<svg width="358" height="72" viewBox="0 0 358 72" fill="none" xmlns="http://www.w3.org/2000/svg">
<path d="M8.13802e-05 36.8736C8.13802e-05 47.1829 8.35743 55.5402 18.6667 55.5402C28.9761 55.5402 37.3334 47.1829 37.3334 36.8736C37.3334 26.5642 28.9761 18.2069 18.6667 18.2069C8.35743 18.2069 8.13802e-05 26.5642 8.13802e-05 36.8736ZM320 36.8736C320 47.1829 328.357 55.5402 338.667 55.5402C348.976 55.5402 357.333 47.1829 357.333 36.8736C357.333 26.5642 348.976 18.2069 338.667 18.2069C328.357 18.2069 320 26.5642 320 36.8736ZM18.6667 36.8736L16.0832 39.2348C18.4521 41.8266 20.8213 44.2444 23.1917 46.4952L25.6017 43.9572L28.0117 41.4191C25.7675 39.2881 23.5137 36.9888 21.2503 34.5123L18.6667 36.8736ZM40.8543 56.1213L38.9471 59.0561C45.0093 62.9957 51.0823 65.9466 57.1729 68.0282L58.3048 64.7163L59.4367 61.4044C53.9217 59.5195 48.3667 56.8293 42.7615 53.1866L40.8543 56.1213ZM77.4273 68.3993L77.2447 71.8946C84.037 72.2493 90.7926 71.6948 97.5115 70.446L96.872 67.0049L96.2325 63.5639C89.977 64.7265 83.7774 65.2262 77.6098 64.9041L77.4273 68.3993ZM115.693 61.7857L116.876 65.0796C122.998 62.8803 129.111 60.2605 135.218 57.3779L133.724 54.2128L132.23 51.0477C126.268 53.8618 120.367 56.3873 114.509 58.4919L115.693 61.7857ZM151.185 45.3768L152.829 48.4664C158.547 45.4234 164.299 42.2597 170.053 39.1155L168.375 36.0441L166.696 32.9728C160.918 36.1304 155.215 39.2675 149.541 42.2871L151.185 45.3768ZM185.614 26.8032L187.226 29.9099C193 26.9137 198.798 24.0434 204.633 21.4078L203.193 18.2181L201.752 15.0283C195.767 17.7312 189.851 20.6617 184.002 23.6966L185.614 26.8032ZM221.335 10.9352L222.478 14.2434C228.565 12.141 234.687 10.4113 240.858 9.17002L240.168 5.73876L239.477 2.30749C232.953 3.61987 226.526 5.4392 220.193 7.627L221.335 10.9352ZM259.576 3.52514L259.654 7.02427C265.83 6.88616 272.072 7.33312 278.392 8.47954L279.017 5.03573L279.642 1.59192C272.834 0.357204 266.121 -0.12209 259.497 0.0260145L259.576 3.52514ZM297.738 10.4129L296.45 13.6674C302.036 15.8773 307.707 18.6935 313.467 22.1987L315.286 19.2087L317.106 16.2187C311.023 12.5177 304.998 9.52126 299.025 7.15833L297.738 10.4129ZM331.118 30.4112L328.918 33.134C331.369 35.1132 333.835 37.223 336.319 39.4693L338.667 36.8736L341.015 34.2778C338.438 31.9474 335.872 29.7526 333.317 27.6884L331.118 30.4112Z" fill="#F5F0E9"/>
<path d="M8.13802e-05 36.8736C8.13802e-05 47.1829 8.35743 55.5402 18.6667 55.5402C28.9761 55.5402 37.3334 47.1829 37.3334 36.8736C37.3334 26.5642 28.9761 18.2069 18.6667 18.2069C8.35743 18.2069 8.13802e-05 26.5642 8.13802e-05 36.8736ZM320 36.8736C320 47.1829 328.357 55.5402 338.667 55.5402C348.976 55.5402 357.333 47.1829 357.333 36.8736C357.333 26.5642 348.976 18.2069 338.667 18.2069C328.357 18.2069 320 26.5642 320 36.8736ZM18.6667 36.8736L16.0832 39.2348C18.4521 41.8266 20.8213 44.2444 23.1917 46.4952L25.6017 43.9572L28.0117 41.4191C25.7675 39.2881 23.5137 36.9888 21.2503 34.5123L18.6667 36.8736ZM40.8543 56.1213L38.9471 59.0561C45.0093 62.9957 51.0823 65.9466 57.1729 68.0282L58.3048 64.7163L59.4367 61.4044C53.9217 59.5195 48.3667 56.8293 42.7615 53.1866L40.8543 56.1213ZM77.4273 68.3993L77.2447 71.8946C84.037 72.2493 90.7926 71.6948 97.5115 70.446L96.872 67.0049L96.2325 63.5639C89.977 64.7265 83.7774 65.2262 77.6098 64.9041L77.4273 68.3993ZM115.693 61.7857L116.876 65.0796C122.998 62.8803 129.111 60.2605 135.218 57.3779L133.724 54.2128L132.23 51.0477C126.268 53.8618 120.367 56.3873 114.509 58.4919L115.693 61.7857ZM151.185 45.3768L152.829 48.4664C158.547 45.4234 164.299 42.2597 170.053 39.1155L168.375 36.0441L166.696 32.9728C160.918 36.1304 155.215 39.2675 149.541 42.2871L151.185 45.3768ZM185.614 26.8032L187.226 29.9099C193 26.9137 198.798 24.0434 204.633 21.4078L203.193 18.2181L201.752 15.0283C195.767 17.7312 189.851 20.6617 184.002 23.6966L185.614 26.8032ZM221.335 10.9352L222.478 14.2434C228.565 12.141 234.687 10.4113 240.858 9.17002L240.168 5.73876L239.477 2.30749C232.953 3.61987 226.526 5.4392 220.193 7.627L221.335 10.9352ZM259.576 3.52514L259.654 7.02427C265.83 6.88616 272.072 7.33312 278.392 8.47954L279.017 5.03573L279.642 1.59192C272.834 0.357204 266.121 -0.12209 259.497 0.0260145L259.576 3.52514ZM297.738 10.4129L296.45 13.6674C302.036 15.8773 307.707 18.6935 313.467 22.1987L315.286 19.2087L317.106 16.2187C311.023 12.5177 304.998 9.52126 299.025 7.15833L297.738 10.4129ZM331.118 30.4112L328.918 33.134C331.369 35.1132 333.835 37.223 336.319 39.4693L338.667 36.8736L341.015 34.2778C338.438 31.9474 335.872 29.7526 333.317 27.6884L331.118 30.4112Z" fill="url(#paint0_linear_42_101)" fill-opacity="0.7"/>
<defs>
<linearGradient id="paint0_linear_42_101" x1="-17.6358" y1="35.8751" x2="414.445" y2="43.9233" gradientUnits="userSpaceOnUse">
<stop stop-color="#000072"/>
<stop offset="1" stop-color="#951C1E"/>
</linearGradient>
</defs>
</svg>
