<svg width="71" height="71" viewBox="0 0 71 71" fill="none" xmlns="http://www.w3.org/2000/svg">
<g clip-path="url(#clip0_42_96)">
<path d="M21.0529 50.5026C20.6991 50.1692 20.4911 49.7824 20.4289 49.3421C20.3667 48.9018 20.4272 48.4579 20.6104 48.0103C21.4636 46.1427 22.1072 44.2445 22.5411 42.3156C23.0003 40.4106 23.3712 38.017 23.6539 35.1346C23.9366 32.2523 24.388 29.6721 25.008 27.3938C25.6533 25.1394 26.9879 22.9381 29.0119 20.79C31.7978 17.8333 35.1787 16.2958 39.1544 16.1775C43.1792 16.0578 46.6699 17.3909 49.6267 20.1768C52.5835 22.9628 54.1091 26.3562 54.2035 30.3572C54.3471 34.3568 53.0258 37.8349 50.2399 40.7917C48.0731 43.0914 45.8211 44.5953 43.4841 45.3035C41.1962 46.0102 38.7812 46.5733 36.2391 46.9928C33.16 47.5265 30.6952 48.0665 28.8447 48.6128C27.0432 49.1577 25.284 49.8855 23.5671 50.7963C23.1074 51.031 22.6433 51.1185 22.1748 51.0587C21.7554 50.9975 21.3815 50.8121 21.0529 50.5026ZM36.0542 34.5816C37.1156 35.5817 38.358 36.0605 39.7814 36.0182C41.2048 35.9758 42.4165 35.424 43.4166 34.3626C44.4167 33.3012 44.8956 32.0588 44.8532 30.6354C44.8109 29.212 44.259 28.0002 43.1976 27.0001C42.1362 26.0001 40.8938 25.5212 39.4704 25.5635C38.047 25.6059 36.8353 26.1577 35.8352 27.2191C34.8351 28.2805 34.3562 29.5229 34.3986 30.9463C34.4409 32.3698 34.9928 33.5815 36.0542 34.5816Z" fill="#F5F0E9"/>
<path d="M21.0529 50.5026C20.6991 50.1692 20.4911 49.7824 20.4289 49.3421C20.3667 48.9018 20.4272 48.4579 20.6104 48.0103C21.4636 46.1427 22.1072 44.2445 22.5411 42.3156C23.0003 40.4106 23.3712 38.017 23.6539 35.1346C23.9366 32.2523 24.388 29.6721 25.008 27.3938C25.6533 25.1394 26.9879 22.9381 29.0119 20.79C31.7978 17.8333 35.1787 16.2958 39.1544 16.1775C43.1792 16.0578 46.6699 17.3909 49.6267 20.1768C52.5835 22.9628 54.1091 26.3562 54.2035 30.3572C54.3471 34.3568 53.0258 37.8349 50.2399 40.7917C48.0731 43.0914 45.8211 44.5953 43.4841 45.3035C41.1962 46.0102 38.7812 46.5733 36.2391 46.9928C33.16 47.5265 30.6952 48.0665 28.8447 48.6128C27.0432 49.1577 25.284 49.8855 23.5671 50.7963C23.1074 51.031 22.6433 51.1185 22.1748 51.0587C21.7554 50.9975 21.3815 50.8121 21.0529 50.5026ZM36.0542 34.5816C37.1156 35.5817 38.358 36.0605 39.7814 36.0182C41.2048 35.9758 42.4165 35.424 43.4166 34.3626C44.4167 33.3012 44.8956 32.0588 44.8532 30.6354C44.8109 29.212 44.259 28.0002 43.1976 27.0001C42.1362 26.0001 40.8938 25.5212 39.4704 25.5635C38.047 25.6059 36.8353 26.1577 35.8352 27.2191C34.8351 28.2805 34.3562 29.5229 34.3986 30.9463C34.4409 32.3698 34.9928 33.5815 36.0542 34.5816Z" fill="url(#paint0_linear_42_96)"/>
</g>
<defs>
<linearGradient id="paint0_linear_42_96" x1="67.7414" y1="7.89128" x2="-8.39724" y2="69.0661" gradientUnits="userSpaceOnUse">
<stop stop-color="#A40B0D"/>
<stop offset="0.738614" stop-color="#F5F0E9"/>
</linearGradient>
<clipPath id="clip0_42_96">
<rect width="50" height="50" fill="white" transform="translate(34.2886) rotate(43.2962)"/>
</clipPath>
</defs>
</svg>
