<svg width="358" height="72" viewBox="0 0 358 72" fill="none" xmlns="http://www.w3.org/2000/svg">
<path d="M357.333 36.8736C357.333 47.1829 348.976 55.5402 338.667 55.5402C328.357 55.5402 320 47.1829 320 36.8736C320 26.5642 328.357 18.2069 338.667 18.2069C348.976 18.2069 357.333 26.5642 357.333 36.8736ZM37.3334 36.8736C37.3334 47.1829 28.9761 55.5402 18.6667 55.5402C8.35743 55.5402 8.13802e-05 47.1829 8.13802e-05 36.8736C8.13802e-05 26.5642 8.35743 18.2069 18.6667 18.2069C28.9761 18.2069 37.3334 26.5642 37.3334 36.8736ZM338.667 36.8736L341.25 39.2348C338.881 41.8266 336.512 44.2444 334.142 46.4952L331.732 43.9572L329.322 41.4191C331.566 39.2881 333.82 36.9888 336.083 34.5123L338.667 36.8736ZM316.479 56.1213L318.386 59.0561C312.324 62.9957 306.251 65.9466 300.161 68.0282L299.029 64.7163L297.897 61.4044C303.412 59.5195 308.967 56.8293 314.572 53.1866L316.479 56.1213ZM279.906 68.3993L280.089 71.8946C273.296 72.2493 266.541 71.6948 259.822 70.446L260.461 67.0049L261.101 63.5639C267.357 64.7265 273.556 65.2262 279.724 64.9041L279.906 68.3993ZM241.641 61.7857L240.457 65.0796C234.336 62.8803 228.222 60.2605 222.115 57.3779L223.609 54.2128L225.103 51.0477C231.065 53.8618 236.966 56.3873 242.824 58.4919L241.641 61.7857ZM206.148 45.3768L204.504 48.4664C198.786 45.4234 193.035 42.2597 187.281 39.1155L188.959 36.0441L190.637 32.9728C196.416 36.1304 202.119 39.2675 207.793 42.2871L206.148 45.3768ZM171.719 26.8032L170.107 29.9099C164.333 26.9137 158.536 24.0434 152.7 21.4078L154.141 18.2181L155.581 15.0283C161.566 17.7312 167.483 20.6617 173.331 23.6966L171.719 26.8032ZM135.998 10.9352L134.856 14.2434C128.769 12.141 122.646 10.4113 116.476 9.17002L117.166 5.73876L117.856 2.30749C124.38 3.61987 130.807 5.4392 137.141 7.627L135.998 10.9352ZM97.7579 3.52514L97.6797 7.02427C91.5035 6.88616 85.2615 7.33312 78.9411 8.47954L78.3164 5.03573L77.6918 1.59192C84.499 0.357204 91.2129 -0.12209 97.8362 0.0260145L97.7579 3.52514ZM59.5956 10.4129L60.8832 13.6674C55.2975 15.8773 49.627 18.6935 43.8665 22.1987L42.0471 19.2087L40.2278 16.2187C46.3101 12.5177 52.3353 9.52126 58.308 7.15833L59.5956 10.4129ZM26.216 30.4112L28.4152 33.134C25.9648 35.1132 23.498 37.223 21.0146 39.4693L18.6667 36.8736L16.3189 34.2778C18.8954 31.9474 21.4612 29.7526 24.0167 27.6884L26.216 30.4112Z" fill="#F5F0E9"/>
<path d="M357.333 36.8736C357.333 47.1829 348.976 55.5402 338.667 55.5402C328.357 55.5402 320 47.1829 320 36.8736C320 26.5642 328.357 18.2069 338.667 18.2069C348.976 18.2069 357.333 26.5642 357.333 36.8736ZM37.3334 36.8736C37.3334 47.1829 28.9761 55.5402 18.6667 55.5402C8.35743 55.5402 8.13802e-05 47.1829 8.13802e-05 36.8736C8.13802e-05 26.5642 8.35743 18.2069 18.6667 18.2069C28.9761 18.2069 37.3334 26.5642 37.3334 36.8736ZM338.667 36.8736L341.25 39.2348C338.881 41.8266 336.512 44.2444 334.142 46.4952L331.732 43.9572L329.322 41.4191C331.566 39.2881 333.82 36.9888 336.083 34.5123L338.667 36.8736ZM316.479 56.1213L318.386 59.0561C312.324 62.9957 306.251 65.9466 300.161 68.0282L299.029 64.7163L297.897 61.4044C303.412 59.5195 308.967 56.8293 314.572 53.1866L316.479 56.1213ZM279.906 68.3993L280.089 71.8946C273.296 72.2493 266.541 71.6948 259.822 70.446L260.461 67.0049L261.101 63.5639C267.357 64.7265 273.556 65.2262 279.724 64.9041L279.906 68.3993ZM241.641 61.7857L240.457 65.0796C234.336 62.8803 228.222 60.2605 222.115 57.3779L223.609 54.2128L225.103 51.0477C231.065 53.8618 236.966 56.3873 242.824 58.4919L241.641 61.7857ZM206.148 45.3768L204.504 48.4664C198.786 45.4234 193.035 42.2597 187.281 39.1155L188.959 36.0441L190.637 32.9728C196.416 36.1304 202.119 39.2675 207.793 42.2871L206.148 45.3768ZM171.719 26.8032L170.107 29.9099C164.333 26.9137 158.536 24.0434 152.7 21.4078L154.141 18.2181L155.581 15.0283C161.566 17.7312 167.483 20.6617 173.331 23.6966L171.719 26.8032ZM135.998 10.9352L134.856 14.2434C128.769 12.141 122.646 10.4113 116.476 9.17002L117.166 5.73876L117.856 2.30749C124.38 3.61987 130.807 5.4392 137.141 7.627L135.998 10.9352ZM97.7579 3.52514L97.6797 7.02427C91.5035 6.88616 85.2615 7.33312 78.9411 8.47954L78.3164 5.03573L77.6918 1.59192C84.499 0.357204 91.2129 -0.12209 97.8362 0.0260145L97.7579 3.52514ZM59.5956 10.4129L60.8832 13.6674C55.2975 15.8773 49.627 18.6935 43.8665 22.1987L42.0471 19.2087L40.2278 16.2187C46.3101 12.5177 52.3353 9.52126 58.308 7.15833L59.5956 10.4129ZM26.216 30.4112L28.4152 33.134C25.9648 35.1132 23.498 37.223 21.0146 39.4693L18.6667 36.8736L16.3189 34.2778C18.8954 31.9474 21.4612 29.7526 24.0167 27.6884L26.216 30.4112Z" fill="url(#paint0_linear_42_133)" fill-opacity="0.7"/>
<defs>
<linearGradient id="paint0_linear_42_133" x1="374.969" y1="35.8751" x2="-57.1116" y2="43.9233" gradientUnits="userSpaceOnUse">
<stop stop-color="#000072"/>
<stop offset="1" stop-color="#951C1E"/>
</linearGradient>
</defs>
</svg>
