<svg width="1980" height="1080" viewBox="0 0 1980 1080" fill="none" xmlns="http://www.w3.org/2000/svg">
<rect width="1980" height="1080" fill="url(#paint0_linear_366_193)"/>
<rect width="1980" height="1080" fill="url(#paint1_linear_366_193)" fill-opacity="0.2"/>
<rect x="143" y="319" width="991" height="442.972" rx="72" fill="#F5F0E9"/>
<g filter="url(#filter0_i_366_193)">
<path d="M545.984 507.672C541.984 507.672 538.8 506.52 536.432 504.216C534.064 501.88 532.88 498.488 532.88 494.04V486.36C532.88 481.912 534.064 478.536 536.432 476.232C538.8 473.896 541.984 472.728 545.984 472.728C549.952 472.728 552.992 473.832 555.104 476.04C557.248 478.248 558.32 481.272 558.32 485.112V485.352H554.336V484.968C554.336 482.44 553.648 480.376 552.272 478.776C550.928 477.144 548.832 476.328 545.984 476.328C543.136 476.328 540.912 477.208 539.312 478.968C537.712 480.696 536.912 483.128 536.912 486.264V494.136C536.912 497.272 537.712 499.72 539.312 501.48C540.912 503.208 543.136 504.072 545.984 504.072C548.832 504.072 550.928 503.272 552.272 501.672C553.648 500.04 554.336 497.96 554.336 495.432V494.664H558.32V495.288C558.32 499.128 557.248 502.152 555.104 504.36C552.992 506.568 549.952 507.672 545.984 507.672ZM571.981 507.672C570.349 507.672 568.861 507.384 567.517 506.808C566.173 506.232 565.117 505.4 564.349 504.312C563.581 503.224 563.197 501.896 563.197 500.328C563.197 498.728 563.581 497.416 564.349 496.392C565.117 495.336 566.173 494.552 567.517 494.04C568.861 493.496 570.365 493.224 572.029 493.224H579.949V491.496C579.949 489.832 579.453 488.52 578.461 487.56C577.501 486.6 576.061 486.12 574.141 486.12C572.253 486.12 570.781 486.584 569.725 487.512C568.669 488.408 567.949 489.624 567.565 491.16L564.013 490.008C564.397 488.696 565.005 487.512 565.837 486.456C566.669 485.368 567.773 484.504 569.149 483.864C570.557 483.192 572.237 482.856 574.189 482.856C577.197 482.856 579.533 483.64 581.197 485.208C582.861 486.744 583.693 488.92 583.693 491.736V502.344C583.693 503.304 584.141 503.784 585.037 503.784H587.197V507H583.885C582.829 507 581.981 506.712 581.341 506.136C580.701 505.528 580.381 504.728 580.381 503.736V503.496H579.805C579.453 504.104 578.973 504.744 578.365 505.416C577.789 506.056 576.989 506.584 575.965 507C574.941 507.448 573.613 507.672 571.981 507.672ZM572.413 504.408C574.653 504.408 576.461 503.752 577.837 502.44C579.245 501.096 579.949 499.224 579.949 496.824V496.296H572.173C570.669 496.296 569.421 496.632 568.429 497.304C567.469 497.944 566.989 498.92 566.989 500.232C566.989 501.544 567.485 502.568 568.477 503.304C569.501 504.04 570.813 504.408 572.413 504.408ZM592.39 507V483.528H596.086V487.512H596.758C597.27 486.392 598.134 485.384 599.35 484.488C600.598 483.56 602.422 483.096 604.822 483.096C606.582 483.096 608.15 483.464 609.526 484.2C610.934 484.936 612.054 486.024 612.886 487.464C613.718 488.904 614.134 490.68 614.134 492.792V507H610.342V493.08C610.342 490.744 609.75 489.048 608.566 487.992C607.414 486.936 605.846 486.408 603.862 486.408C601.59 486.408 599.734 487.144 598.294 488.616C596.886 490.088 596.182 492.28 596.182 495.192V507H592.39ZM629.028 507.672C627.396 507.672 625.908 507.384 624.564 506.808C623.22 506.232 622.164 505.4 621.396 504.312C620.628 503.224 620.244 501.896 620.244 500.328C620.244 498.728 620.628 497.416 621.396 496.392C622.164 495.336 623.22 494.552 624.564 494.04C625.908 493.496 627.412 493.224 629.076 493.224H636.996V491.496C636.996 489.832 636.5 488.52 635.508 487.56C634.548 486.6 633.108 486.12 631.188 486.12C629.3 486.12 627.828 486.584 626.772 487.512C625.716 488.408 624.996 489.624 624.612 491.16L621.06 490.008C621.444 488.696 622.052 487.512 622.884 486.456C623.716 485.368 624.82 484.504 626.196 483.864C627.604 483.192 629.284 482.856 631.236 482.856C634.244 482.856 636.58 483.64 638.244 485.208C639.908 486.744 640.74 488.92 640.74 491.736V502.344C640.74 503.304 641.188 503.784 642.084 503.784H644.244V507H640.932C639.876 507 639.028 506.712 638.388 506.136C637.748 505.528 637.428 504.728 637.428 503.736V503.496H636.852C636.5 504.104 636.02 504.744 635.412 505.416C634.836 506.056 634.036 506.584 633.012 507C631.988 507.448 630.66 507.672 629.028 507.672ZM629.46 504.408C631.7 504.408 633.508 503.752 634.884 502.44C636.292 501.096 636.996 499.224 636.996 496.824V496.296H629.22C627.716 496.296 626.468 496.632 625.476 497.304C624.516 497.944 624.036 498.92 624.036 500.232C624.036 501.544 624.532 502.568 625.524 503.304C626.548 504.04 627.86 504.408 629.46 504.408ZM658.717 507.672C656.701 507.672 654.845 507.192 653.149 506.232C651.453 505.272 650.109 503.88 649.117 502.056C648.125 500.232 647.629 498.072 647.629 495.576V494.952C647.629 492.456 648.125 490.312 649.117 488.52C650.109 486.696 651.437 485.304 653.101 484.344C654.797 483.352 656.669 482.856 658.717 482.856C660.349 482.856 661.725 483.08 662.845 483.528C663.997 483.944 664.925 484.488 665.629 485.16C666.333 485.8 666.877 486.488 667.261 487.224H667.933V473.4H671.725V507H668.029V503.112H667.357C666.717 504.296 665.725 505.352 664.381 506.28C663.037 507.208 661.149 507.672 658.717 507.672ZM659.725 504.312C662.157 504.312 664.125 503.544 665.629 502.008C667.165 500.44 667.933 498.264 667.933 495.48V495.048C667.933 492.264 667.165 490.104 665.629 488.568C664.125 487 662.157 486.216 659.725 486.216C657.325 486.216 655.341 487 653.773 488.568C652.237 490.104 651.469 492.264 651.469 495.048V495.48C651.469 498.264 652.237 500.44 653.773 502.008C655.341 503.544 657.325 504.312 659.725 504.312ZM679.672 507V483.528H683.464V507H679.672ZM681.592 479.88C680.76 479.88 680.056 479.608 679.48 479.064C678.936 478.52 678.664 477.832 678.664 477C678.664 476.136 678.936 475.432 679.48 474.888C680.056 474.344 680.76 474.072 681.592 474.072C682.424 474.072 683.112 474.344 683.656 474.888C684.2 475.432 684.472 476.136 684.472 477C684.472 477.832 684.2 478.52 683.656 479.064C683.112 479.608 682.424 479.88 681.592 479.88ZM698.637 507.672C697.005 507.672 695.517 507.384 694.173 506.808C692.829 506.232 691.773 505.4 691.005 504.312C690.237 503.224 689.853 501.896 689.853 500.328C689.853 498.728 690.237 497.416 691.005 496.392C691.773 495.336 692.829 494.552 694.173 494.04C695.517 493.496 697.021 493.224 698.685 493.224H706.605V491.496C706.605 489.832 706.109 488.52 705.117 487.56C704.157 486.6 702.717 486.12 700.797 486.12C698.909 486.12 697.437 486.584 696.381 487.512C695.325 488.408 694.605 489.624 694.221 491.16L690.669 490.008C691.053 488.696 691.661 487.512 692.493 486.456C693.325 485.368 694.429 484.504 695.805 483.864C697.213 483.192 698.893 482.856 700.845 482.856C703.853 482.856 706.189 483.64 707.853 485.208C709.517 486.744 710.349 488.92 710.349 491.736V502.344C710.349 503.304 710.797 503.784 711.693 503.784H713.853V507H710.541C709.485 507 708.637 506.712 707.997 506.136C707.357 505.528 707.037 504.728 707.037 503.736V503.496H706.461C706.109 504.104 705.629 504.744 705.021 505.416C704.445 506.056 703.645 506.584 702.621 507C701.597 507.448 700.269 507.672 698.637 507.672ZM699.069 504.408C701.309 504.408 703.117 503.752 704.493 502.44C705.901 501.096 706.605 499.224 706.605 496.824V496.296H698.829C697.325 496.296 696.077 496.632 695.085 497.304C694.125 497.944 693.645 498.92 693.645 500.232C693.645 501.544 694.141 502.568 695.133 503.304C696.157 504.04 697.469 504.408 699.069 504.408ZM719.047 507V483.528H722.743V487.512H723.415C723.927 486.392 724.791 485.384 726.007 484.488C727.255 483.56 729.079 483.096 731.479 483.096C733.239 483.096 734.807 483.464 736.183 484.2C737.591 484.936 738.711 486.024 739.543 487.464C740.375 488.904 740.791 490.68 740.791 492.792V507H736.999V493.08C736.999 490.744 736.407 489.048 735.223 487.992C734.071 486.936 732.503 486.408 730.519 486.408C728.247 486.408 726.391 487.144 724.951 488.616C723.543 490.088 722.839 492.28 722.839 495.192V507H719.047ZM772.812 507.672C770.316 507.672 768.14 507.224 766.284 506.328C764.428 505.432 762.988 504.104 761.964 502.344C760.94 500.552 760.428 498.36 760.428 495.768V473.4H764.412V495.816C764.412 498.568 765.148 500.632 766.62 502.008C768.092 503.384 770.156 504.072 772.812 504.072C775.468 504.072 777.532 503.384 779.004 502.008C780.476 500.632 781.212 498.568 781.212 495.816V473.4H785.244V495.768C785.244 498.36 784.732 500.552 783.708 502.344C782.684 504.104 781.228 505.432 779.34 506.328C777.484 507.224 775.308 507.672 772.812 507.672ZM792.781 507V483.528H796.477V487.512H797.149C797.661 486.392 798.525 485.384 799.741 484.488C800.989 483.56 802.813 483.096 805.213 483.096C806.973 483.096 808.541 483.464 809.917 484.2C811.325 484.936 812.445 486.024 813.277 487.464C814.109 488.904 814.525 490.68 814.525 492.792V507H810.733V493.08C810.733 490.744 810.141 489.048 808.957 487.992C807.805 486.936 806.237 486.408 804.253 486.408C801.981 486.408 800.125 487.144 798.685 488.616C797.277 490.088 796.573 492.28 796.573 495.192V507H792.781ZM822.218 507V483.528H826.01V507H822.218ZM824.138 479.88C823.306 479.88 822.602 479.608 822.026 479.064C821.482 478.52 821.21 477.832 821.21 477C821.21 476.136 821.482 475.432 822.026 474.888C822.602 474.344 823.306 474.072 824.138 474.072C824.97 474.072 825.658 474.344 826.202 474.888C826.746 475.432 827.018 476.136 827.018 477C827.018 477.832 826.746 478.52 826.202 479.064C825.658 479.608 824.97 479.88 824.138 479.88ZM839.936 507L831.536 483.528H835.568L842.624 504.168H843.296L850.352 483.528H854.384L845.984 507H839.936ZM869.627 507.672C867.259 507.672 865.179 507.176 863.387 506.184C861.595 505.16 860.203 503.736 859.211 501.912C858.219 500.088 857.723 497.976 857.723 495.576V495C857.723 492.568 858.219 490.44 859.211 488.616C860.203 486.792 861.579 485.384 863.339 484.392C865.099 483.368 867.115 482.856 869.387 482.856C871.595 482.856 873.547 483.336 875.243 484.296C876.939 485.224 878.267 486.568 879.227 488.328C880.187 490.088 880.667 492.152 880.667 494.52V496.248H861.515C861.611 498.776 862.427 500.76 863.963 502.2C865.499 503.608 867.419 504.312 869.723 504.312C871.739 504.312 873.291 503.848 874.379 502.92C875.467 501.992 876.299 500.888 876.875 499.608L880.139 501.192C879.659 502.184 878.987 503.176 878.123 504.168C877.291 505.16 876.187 505.992 874.811 506.664C873.467 507.336 871.739 507.672 869.627 507.672ZM861.563 493.128H876.827C876.699 490.952 875.947 489.256 874.571 488.04C873.227 486.824 871.499 486.216 869.387 486.216C867.243 486.216 865.483 486.824 864.107 488.04C862.731 489.256 861.883 490.952 861.563 493.128ZM887.281 507V483.528H890.977V486.408H891.649C892.065 485.384 892.705 484.632 893.569 484.152C894.433 483.672 895.569 483.432 896.977 483.432H899.761V486.888H896.737C895.041 486.888 893.665 487.368 892.609 488.328C891.585 489.256 891.073 490.712 891.073 492.696V507H887.281ZM914.362 507.672C911.45 507.672 908.986 507 906.97 505.656C904.986 504.312 903.786 502.184 903.37 499.272L906.97 498.456C907.226 499.992 907.706 501.208 908.41 502.104C909.114 502.968 909.978 503.592 911.002 503.976C912.058 504.328 913.178 504.504 914.362 504.504C916.122 504.504 917.514 504.152 918.538 503.448C919.562 502.744 920.074 501.8 920.074 500.616C920.074 499.4 919.578 498.552 918.586 498.072C917.626 497.56 916.298 497.144 914.602 496.824L912.634 496.488C911.13 496.232 909.754 495.832 908.506 495.288C907.258 494.744 906.266 494.008 905.53 493.08C904.794 492.152 904.426 490.984 904.426 489.576C904.426 487.464 905.242 485.816 906.874 484.632C908.506 483.448 910.666 482.856 913.354 482.856C916.01 482.856 918.154 483.464 919.786 484.68C921.45 485.864 922.522 487.544 923.002 489.72L919.45 490.632C919.162 488.936 918.474 487.752 917.386 487.08C916.298 486.376 914.954 486.024 913.354 486.024C911.754 486.024 910.49 486.328 909.562 486.936C908.634 487.512 908.17 488.376 908.17 489.528C908.17 490.648 908.602 491.48 909.466 492.024C910.362 492.536 911.546 492.92 913.018 493.176L914.986 493.512C916.65 493.8 918.138 494.2 919.45 494.712C920.794 495.192 921.85 495.896 922.618 496.824C923.418 497.752 923.818 498.968 923.818 500.472C923.818 502.776 922.954 504.552 921.226 505.8C919.53 507.048 917.242 507.672 914.362 507.672ZM930.218 507V483.528H934.01V507H930.218ZM932.138 479.88C931.306 479.88 930.602 479.608 930.026 479.064C929.482 478.52 929.21 477.832 929.21 477C929.21 476.136 929.482 475.432 930.026 474.888C930.602 474.344 931.306 474.072 932.138 474.072C932.97 474.072 933.658 474.344 934.202 474.888C934.746 475.432 935.018 476.136 935.018 477C935.018 477.832 934.746 478.52 934.202 479.064C933.658 479.608 932.97 479.88 932.138 479.88ZM950.624 507C949.28 507 948.24 506.632 947.504 505.896C946.8 505.16 946.448 504.152 946.448 502.872V486.84H939.392V483.528H946.448V475.176H950.24V483.528H957.92V486.84H950.24V502.296C950.24 503.256 950.704 503.736 951.632 503.736H956.864V507H950.624ZM966.894 516.6V513.24H980.334C981.262 513.24 981.726 512.76 981.726 511.8V503.256H981.054C980.734 503.928 980.238 504.6 979.566 505.272C978.926 505.912 978.078 506.44 977.022 506.856C975.966 507.24 974.638 507.432 973.038 507.432C971.342 507.432 969.774 507.064 968.334 506.328C966.926 505.592 965.806 504.504 964.974 503.064C964.174 501.624 963.774 499.864 963.774 497.784V483.528H967.566V497.496C967.566 499.8 968.142 501.48 969.294 502.536C970.478 503.592 972.062 504.12 974.046 504.12C976.286 504.12 978.126 503.384 979.566 501.912C981.006 500.44 981.726 498.248 981.726 495.336V483.528H985.518V512.472C985.518 513.752 985.15 514.76 984.414 515.496C983.71 516.232 982.67 516.6 981.294 516.6H966.894ZM545.024 560.672C542.592 560.672 540.416 560.24 538.496 559.376C536.576 558.512 535.056 557.216 533.936 555.488C532.848 553.728 532.304 551.536 532.304 548.912V547.904H536.288V548.912C536.288 551.696 537.104 553.776 538.736 555.152C540.368 556.496 542.464 557.168 545.024 557.168C547.648 557.168 549.648 556.576 551.024 555.392C552.4 554.208 553.088 552.72 553.088 550.928C553.088 549.68 552.768 548.688 552.128 547.952C551.52 547.216 550.656 546.624 549.536 546.176C548.416 545.696 547.104 545.28 545.6 544.928L543.104 544.304C541.152 543.792 539.424 543.168 537.92 542.432C536.416 541.696 535.232 540.736 534.368 539.552C533.536 538.336 533.12 536.784 533.12 534.896C533.12 533.008 533.584 531.376 534.512 530C535.472 528.624 536.8 527.568 538.496 526.832C540.224 526.096 542.208 525.728 544.448 525.728C546.72 525.728 548.752 526.128 550.544 526.928C552.368 527.696 553.792 528.848 554.816 530.384C555.872 531.888 556.4 533.792 556.4 536.096V538.112H552.416V536.096C552.416 534.464 552.064 533.152 551.36 532.16C550.688 531.168 549.744 530.432 548.528 529.952C547.344 529.472 545.984 529.232 544.448 529.232C542.24 529.232 540.464 529.728 539.12 530.72C537.776 531.68 537.104 533.056 537.104 534.848C537.104 536.032 537.392 536.992 537.968 537.728C538.544 538.464 539.36 539.072 540.416 539.552C541.472 540 542.736 540.4 544.208 540.752L546.704 541.376C548.656 541.792 550.4 542.368 551.936 543.104C553.504 543.808 554.752 544.784 555.68 546.032C556.608 547.248 557.072 548.848 557.072 550.832C557.072 552.816 556.576 554.544 555.584 556.016C554.592 557.488 553.184 558.64 551.36 559.472C549.568 560.272 547.456 560.672 545.024 560.672ZM574.27 560.672C571.902 560.672 569.806 560.176 567.982 559.184C566.19 558.192 564.782 556.8 563.758 555.008C562.766 553.184 562.27 551.04 562.27 548.576V547.952C562.27 545.52 562.766 543.392 563.758 541.568C564.782 539.744 566.19 538.336 567.982 537.344C569.806 536.352 571.902 535.856 574.27 535.856C576.638 535.856 578.718 536.352 580.51 537.344C582.334 538.336 583.742 539.744 584.734 541.568C585.758 543.392 586.27 545.52 586.27 547.952V548.576C586.27 551.04 585.758 553.184 584.734 555.008C583.742 556.8 582.334 558.192 580.51 559.184C578.718 560.176 576.638 560.672 574.27 560.672ZM574.27 557.264C576.766 557.264 578.75 556.48 580.222 554.912C581.726 553.312 582.478 551.168 582.478 548.48V548.048C582.478 545.36 581.726 543.232 580.222 541.664C578.75 540.064 576.766 539.264 574.27 539.264C571.806 539.264 569.822 540.064 568.318 541.664C566.814 543.232 566.062 545.36 566.062 548.048V548.48C566.062 551.168 566.814 553.312 568.318 554.912C569.822 556.48 571.806 557.264 574.27 557.264ZM596.717 560V539.84H589.517V536.528H596.717V530.528C596.717 529.248 597.069 528.24 597.773 527.504C598.509 526.768 599.549 526.4 600.893 526.4H606.797V529.664H601.949C600.989 529.664 600.509 530.144 600.509 531.104V536.528H607.901V539.84H600.509V560H596.717ZM621.187 560C619.843 560 618.803 559.632 618.067 558.896C617.363 558.16 617.011 557.152 617.011 555.872V539.84H609.955V536.528H617.011V528.176H620.803V536.528H628.483V539.84H620.803V555.296C620.803 556.256 621.267 556.736 622.195 556.736H627.427V560H621.187ZM637.889 560L633.185 536.528H637.025L640.913 557.456H641.585L646.721 536.528H653.009L658.145 557.456H658.817L662.705 536.528H666.545L661.841 560H655.361L650.177 539.072H649.553L644.369 560H637.889ZM679.887 560.672C678.255 560.672 676.767 560.384 675.423 559.808C674.079 559.232 673.023 558.4 672.255 557.312C671.487 556.224 671.103 554.896 671.103 553.328C671.103 551.728 671.487 550.416 672.255 549.392C673.023 548.336 674.079 547.552 675.423 547.04C676.767 546.496 678.271 546.224 679.935 546.224H687.855V544.496C687.855 542.832 687.359 541.52 686.367 540.56C685.407 539.6 683.967 539.12 682.047 539.12C680.159 539.12 678.687 539.584 677.631 540.512C676.575 541.408 675.855 542.624 675.471 544.16L671.919 543.008C672.303 541.696 672.911 540.512 673.743 539.456C674.575 538.368 675.679 537.504 677.055 536.864C678.463 536.192 680.143 535.856 682.095 535.856C685.103 535.856 687.439 536.64 689.103 538.208C690.767 539.744 691.599 541.92 691.599 544.736V555.344C691.599 556.304 692.047 556.784 692.943 556.784H695.103V560H691.791C690.735 560 689.887 559.712 689.247 559.136C688.607 558.528 688.287 557.728 688.287 556.736V556.496H687.711C687.359 557.104 686.879 557.744 686.271 558.416C685.695 559.056 684.895 559.584 683.871 560C682.847 560.448 681.519 560.672 679.887 560.672ZM680.319 557.408C682.559 557.408 684.367 556.752 685.743 555.44C687.151 554.096 687.855 552.224 687.855 549.824V549.296H680.079C678.575 549.296 677.327 549.632 676.335 550.304C675.375 550.944 674.895 551.92 674.895 553.232C674.895 554.544 675.391 555.568 676.383 556.304C677.407 557.04 678.719 557.408 680.319 557.408ZM700.297 560V536.528H703.993V539.408H704.665C705.081 538.384 705.721 537.632 706.585 537.152C707.449 536.672 708.585 536.432 709.993 536.432H712.777V539.888H709.753C708.057 539.888 706.681 540.368 705.625 541.328C704.601 542.256 704.089 543.712 704.089 545.696V560H700.297ZM728.299 560.672C725.931 560.672 723.851 560.176 722.059 559.184C720.267 558.16 718.875 556.736 717.883 554.912C716.891 553.088 716.395 550.976 716.395 548.576V548C716.395 545.568 716.891 543.44 717.883 541.616C718.875 539.792 720.251 538.384 722.011 537.392C723.771 536.368 725.787 535.856 728.059 535.856C730.267 535.856 732.219 536.336 733.915 537.296C735.611 538.224 736.939 539.568 737.899 541.328C738.859 543.088 739.339 545.152 739.339 547.52V549.248H720.187C720.283 551.776 721.099 553.76 722.635 555.2C724.171 556.608 726.091 557.312 728.395 557.312C730.411 557.312 731.963 556.848 733.051 555.92C734.139 554.992 734.971 553.888 735.547 552.608L738.811 554.192C738.331 555.184 737.659 556.176 736.795 557.168C735.963 558.16 734.859 558.992 733.483 559.664C732.139 560.336 730.411 560.672 728.299 560.672ZM720.235 546.128H735.499C735.371 543.952 734.619 542.256 733.243 541.04C731.899 539.824 730.171 539.216 728.059 539.216C725.915 539.216 724.155 539.824 722.779 541.04C721.403 542.256 720.555 543.952 720.235 546.128ZM758.137 560V526.4H778.825V530.048H762.169V541.28H777.481V544.928H762.169V556.352H779.065V560H758.137ZM785.328 560V536.528H789.024V540.512H789.696C790.208 539.392 791.072 538.384 792.288 537.488C793.536 536.56 795.36 536.096 797.76 536.096C799.52 536.096 801.088 536.464 802.464 537.2C803.872 537.936 804.992 539.024 805.824 540.464C806.656 541.904 807.072 543.68 807.072 545.792V560H803.28V546.08C803.28 543.744 802.688 542.048 801.504 540.992C800.352 539.936 798.784 539.408 796.8 539.408C794.528 539.408 792.672 540.144 791.232 541.616C789.824 543.088 789.12 545.28 789.12 548.192V560H785.328ZM813.613 548.384V547.712C813.613 545.248 814.109 543.136 815.101 541.376C816.093 539.616 817.437 538.256 819.133 537.296C820.829 536.336 822.685 535.856 824.701 535.856C827.165 535.856 829.053 536.336 830.365 537.296C831.709 538.224 832.701 539.264 833.341 540.416H834.013V536.528H837.613V565.472C837.613 566.752 837.261 567.76 836.557 568.496C835.853 569.232 834.829 569.6 833.485 569.6H817.549V566.24H832.477C833.437 566.24 833.917 565.76 833.917 564.8V555.872H833.245C832.861 556.576 832.317 557.264 831.613 557.936C830.909 558.608 829.997 559.168 828.877 559.616C827.757 560.032 826.365 560.24 824.701 560.24C822.685 560.24 820.829 559.76 819.133 558.8C817.437 557.84 816.093 556.48 815.101 554.72C814.109 552.928 813.613 550.816 813.613 548.384ZM825.709 556.88C828.141 556.88 830.109 556.112 831.613 554.576C833.149 553.04 833.917 550.928 833.917 548.24V547.856C833.917 545.136 833.149 543.024 831.613 541.52C830.109 539.984 828.141 539.216 825.709 539.216C823.309 539.216 821.325 539.984 819.757 541.52C818.221 543.024 817.453 545.136 817.453 547.856V548.24C817.453 550.928 818.221 553.04 819.757 554.576C821.325 556.112 823.309 556.88 825.709 556.88ZM845.562 560V536.528H849.354V560H845.562ZM847.482 532.88C846.65 532.88 845.946 532.608 845.37 532.064C844.826 531.52 844.554 530.832 844.554 530C844.554 529.136 844.826 528.432 845.37 527.888C845.946 527.344 846.65 527.072 847.482 527.072C848.314 527.072 849.002 527.344 849.546 527.888C850.09 528.432 850.362 529.136 850.362 530C850.362 530.832 850.09 531.52 849.546 532.064C849.002 532.608 848.314 532.88 847.482 532.88ZM857.328 560V536.528H861.024V540.512H861.696C862.208 539.392 863.072 538.384 864.288 537.488C865.536 536.56 867.36 536.096 869.76 536.096C871.52 536.096 873.088 536.464 874.464 537.2C875.872 537.936 876.992 539.024 877.824 540.464C878.656 541.904 879.072 543.68 879.072 545.792V560H875.28V546.08C875.28 543.744 874.688 542.048 873.504 540.992C872.352 539.936 870.784 539.408 868.8 539.408C866.528 539.408 864.672 540.144 863.232 541.616C861.824 543.088 861.12 545.28 861.12 548.192V560H857.328ZM897.517 560.672C895.149 560.672 893.069 560.176 891.277 559.184C889.485 558.16 888.093 556.736 887.101 554.912C886.109 553.088 885.613 550.976 885.613 548.576V548C885.613 545.568 886.109 543.44 887.101 541.616C888.093 539.792 889.469 538.384 891.229 537.392C892.989 536.368 895.005 535.856 897.277 535.856C899.485 535.856 901.437 536.336 903.133 537.296C904.829 538.224 906.157 539.568 907.117 541.328C908.077 543.088 908.557 545.152 908.557 547.52V549.248H889.405C889.501 551.776 890.317 553.76 891.853 555.2C893.389 556.608 895.309 557.312 897.613 557.312C899.629 557.312 901.181 556.848 902.269 555.92C903.357 554.992 904.189 553.888 904.765 552.608L908.029 554.192C907.549 555.184 906.877 556.176 906.013 557.168C905.181 558.16 904.077 558.992 902.701 559.664C901.357 560.336 899.629 560.672 897.517 560.672ZM889.453 546.128H904.717C904.589 543.952 903.837 542.256 902.461 541.04C901.117 539.824 899.389 539.216 897.277 539.216C895.133 539.216 893.373 539.824 891.997 541.04C890.621 542.256 889.773 543.952 889.453 546.128ZM925.924 560.672C923.556 560.672 921.476 560.176 919.684 559.184C917.892 558.16 916.5 556.736 915.508 554.912C914.516 553.088 914.02 550.976 914.02 548.576V548C914.02 545.568 914.516 543.44 915.508 541.616C916.5 539.792 917.876 538.384 919.636 537.392C921.396 536.368 923.412 535.856 925.684 535.856C927.892 535.856 929.844 536.336 931.54 537.296C933.236 538.224 934.564 539.568 935.524 541.328C936.484 543.088 936.964 545.152 936.964 547.52V549.248H917.812C917.908 551.776 918.724 553.76 920.26 555.2C921.796 556.608 923.716 557.312 926.02 557.312C928.036 557.312 929.588 556.848 930.676 555.92C931.764 554.992 932.596 553.888 933.172 552.608L936.436 554.192C935.956 555.184 935.284 556.176 934.42 557.168C933.588 558.16 932.484 558.992 931.108 559.664C929.764 560.336 928.036 560.672 925.924 560.672ZM917.86 546.128H933.124C932.996 543.952 932.244 542.256 930.868 541.04C929.524 539.824 927.796 539.216 925.684 539.216C923.54 539.216 921.78 539.824 920.404 541.04C919.028 542.256 918.18 543.952 917.86 546.128ZM943.578 560V536.528H947.274V539.408H947.946C948.362 538.384 949.002 537.632 949.866 537.152C950.73 536.672 951.866 536.432 953.274 536.432H956.058V539.888H953.034C951.338 539.888 949.962 540.368 948.906 541.328C947.882 542.256 947.37 543.712 947.37 545.696V560H943.578ZM961.672 560V536.528H965.464V560H961.672ZM963.592 532.88C962.76 532.88 962.056 532.608 961.48 532.064C960.936 531.52 960.664 530.832 960.664 530C960.664 529.136 960.936 528.432 961.48 527.888C962.056 527.344 962.76 527.072 963.592 527.072C964.424 527.072 965.112 527.344 965.656 527.888C966.2 528.432 966.472 529.136 966.472 530C966.472 530.832 966.2 531.52 965.656 532.064C965.112 532.608 964.424 532.88 963.592 532.88ZM973.437 560V536.528H977.133V540.512H977.805C978.317 539.392 979.181 538.384 980.397 537.488C981.645 536.56 983.469 536.096 985.869 536.096C987.629 536.096 989.197 536.464 990.573 537.2C991.981 537.936 993.101 539.024 993.933 540.464C994.765 541.904 995.181 543.68 995.181 545.792V560H991.389V546.08C991.389 543.744 990.797 542.048 989.613 540.992C988.461 539.936 986.893 539.408 984.909 539.408C982.637 539.408 980.781 540.144 979.341 541.616C977.933 543.088 977.229 545.28 977.229 548.192V560H973.437ZM1001.72 548.384V547.712C1001.72 545.248 1002.22 543.136 1003.21 541.376C1004.2 539.616 1005.55 538.256 1007.24 537.296C1008.94 536.336 1010.79 535.856 1012.81 535.856C1015.27 535.856 1017.16 536.336 1018.47 537.296C1019.82 538.224 1020.81 539.264 1021.45 540.416H1022.12V536.528H1025.72V565.472C1025.72 566.752 1025.37 567.76 1024.67 568.496C1023.96 569.232 1022.94 569.6 1021.59 569.6H1005.66V566.24H1020.59C1021.55 566.24 1022.03 565.76 1022.03 564.8V555.872H1021.35C1020.97 556.576 1020.43 557.264 1019.72 557.936C1019.02 558.608 1018.11 559.168 1016.99 559.616C1015.87 560.032 1014.47 560.24 1012.81 560.24C1010.79 560.24 1008.94 559.76 1007.24 558.8C1005.55 557.84 1004.2 556.48 1003.21 554.72C1002.22 552.928 1001.72 550.816 1001.72 548.384ZM1013.82 556.88C1016.25 556.88 1018.22 556.112 1019.72 554.576C1021.26 553.04 1022.03 550.928 1022.03 548.24V547.856C1022.03 545.136 1021.26 543.024 1019.72 541.52C1018.22 539.984 1016.25 539.216 1013.82 539.216C1011.42 539.216 1009.43 539.984 1007.87 541.52C1006.33 543.024 1005.56 545.136 1005.56 547.856V548.24C1005.56 550.928 1006.33 553.04 1007.87 554.576C1009.43 556.112 1011.42 556.88 1013.82 556.88ZM545.984 613.672C541.984 613.672 538.8 612.52 536.432 610.216C534.064 607.88 532.88 604.488 532.88 600.04V592.36C532.88 587.912 534.064 584.536 536.432 582.232C538.8 579.896 541.984 578.728 545.984 578.728C549.952 578.728 552.992 579.832 555.104 582.04C557.248 584.248 558.32 587.272 558.32 591.112V591.352H554.336V590.968C554.336 588.44 553.648 586.376 552.272 584.776C550.928 583.144 548.832 582.328 545.984 582.328C543.136 582.328 540.912 583.208 539.312 584.968C537.712 586.696 536.912 589.128 536.912 592.264V600.136C536.912 603.272 537.712 605.72 539.312 607.48C540.912 609.208 543.136 610.072 545.984 610.072C548.832 610.072 550.928 609.272 552.272 607.672C553.648 606.04 554.336 603.96 554.336 601.432V600.664H558.32V601.288C558.32 605.128 557.248 608.152 555.104 610.36C552.992 612.568 549.952 613.672 545.984 613.672ZM575.629 613.672C573.261 613.672 571.165 613.176 569.341 612.184C567.549 611.192 566.141 609.8 565.117 608.008C564.125 606.184 563.629 604.04 563.629 601.576V600.952C563.629 598.52 564.125 596.392 565.117 594.568C566.141 592.744 567.549 591.336 569.341 590.344C571.165 589.352 573.261 588.856 575.629 588.856C577.997 588.856 580.077 589.352 581.869 590.344C583.693 591.336 585.101 592.744 586.093 594.568C587.117 596.392 587.629 598.52 587.629 600.952V601.576C587.629 604.04 587.117 606.184 586.093 608.008C585.101 609.8 583.693 611.192 581.869 612.184C580.077 613.176 577.997 613.672 575.629 613.672ZM575.629 610.264C578.125 610.264 580.109 609.48 581.581 607.912C583.085 606.312 583.837 604.168 583.837 601.48V601.048C583.837 598.36 583.085 596.232 581.581 594.664C580.109 593.064 578.125 592.264 575.629 592.264C573.165 592.264 571.181 593.064 569.677 594.664C568.173 596.232 567.421 598.36 567.421 601.048V601.48C567.421 604.168 568.173 606.312 569.677 607.912C571.181 609.48 573.165 610.264 575.629 610.264ZM594.453 613V589.528H598.149V593.512H598.821C599.333 592.392 600.197 591.384 601.413 590.488C602.661 589.56 604.485 589.096 606.885 589.096C608.645 589.096 610.213 589.464 611.589 590.2C612.997 590.936 614.117 592.024 614.949 593.464C615.781 594.904 616.197 596.68 616.197 598.792V613H612.405V599.08C612.405 596.744 611.813 595.048 610.629 593.992C609.477 592.936 607.909 592.408 605.925 592.408C603.653 592.408 601.797 593.144 600.357 594.616C598.949 596.088 598.245 598.28 598.245 601.192V613H594.453ZM627.842 613V592.84H620.642V589.528H627.842V583.528C627.842 582.248 628.194 581.24 628.898 580.504C629.634 579.768 630.674 579.4 632.018 579.4H637.922V582.664H633.074C632.114 582.664 631.634 583.144 631.634 584.104V589.528H639.026V592.84H631.634V613H627.842ZM654.049 613.672C651.681 613.672 649.601 613.176 647.809 612.184C646.017 611.16 644.625 609.736 643.633 607.912C642.641 606.088 642.145 603.976 642.145 601.576V601C642.145 598.568 642.641 596.44 643.633 594.616C644.625 592.792 646.001 591.384 647.761 590.392C649.521 589.368 651.537 588.856 653.809 588.856C656.017 588.856 657.969 589.336 659.665 590.296C661.361 591.224 662.689 592.568 663.649 594.328C664.609 596.088 665.089 598.152 665.089 600.52V602.248H645.937C646.033 604.776 646.849 606.76 648.385 608.2C649.921 609.608 651.841 610.312 654.145 610.312C656.161 610.312 657.713 609.848 658.801 608.92C659.889 607.992 660.721 606.888 661.297 605.608L664.561 607.192C664.081 608.184 663.409 609.176 662.545 610.168C661.713 611.16 660.609 611.992 659.233 612.664C657.889 613.336 656.161 613.672 654.049 613.672ZM645.985 599.128H661.249C661.121 596.952 660.369 595.256 658.993 594.04C657.649 592.824 655.921 592.216 653.809 592.216C651.665 592.216 649.905 592.824 648.529 594.04C647.153 595.256 646.305 596.952 645.985 599.128ZM671.703 613V589.528H675.399V592.408H676.071C676.487 591.384 677.127 590.632 677.991 590.152C678.855 589.672 679.991 589.432 681.399 589.432H684.183V592.888H681.159C679.463 592.888 678.087 593.368 677.031 594.328C676.007 595.256 675.495 596.712 675.495 598.696V613H671.703ZM699.705 613.672C697.337 613.672 695.257 613.176 693.465 612.184C691.673 611.16 690.281 609.736 689.289 607.912C688.297 606.088 687.801 603.976 687.801 601.576V601C687.801 598.568 688.297 596.44 689.289 594.616C690.281 592.792 691.657 591.384 693.417 590.392C695.177 589.368 697.193 588.856 699.465 588.856C701.673 588.856 703.625 589.336 705.321 590.296C707.017 591.224 708.345 592.568 709.305 594.328C710.265 596.088 710.745 598.152 710.745 600.52V602.248H691.593C691.689 604.776 692.505 606.76 694.041 608.2C695.577 609.608 697.497 610.312 699.801 610.312C701.817 610.312 703.369 609.848 704.457 608.92C705.545 607.992 706.377 606.888 706.953 605.608L710.217 607.192C709.737 608.184 709.065 609.176 708.201 610.168C707.369 611.16 706.265 611.992 704.889 612.664C703.545 613.336 701.817 613.672 699.705 613.672ZM691.641 599.128H706.905C706.777 596.952 706.025 595.256 704.649 594.04C703.305 592.824 701.577 592.216 699.465 592.216C697.321 592.216 695.561 592.824 694.185 594.04C692.809 595.256 691.961 596.952 691.641 599.128ZM717.359 613V589.528H721.055V593.512H721.727C722.239 592.392 723.103 591.384 724.319 590.488C725.567 589.56 727.391 589.096 729.791 589.096C731.551 589.096 733.119 589.464 734.495 590.2C735.903 590.936 737.023 592.024 737.855 593.464C738.687 594.904 739.103 596.68 739.103 598.792V613H735.311V599.08C735.311 596.744 734.719 595.048 733.535 593.992C732.383 592.936 730.815 592.408 728.831 592.408C726.559 592.408 724.703 593.144 723.263 594.616C721.855 596.088 721.151 598.28 721.151 601.192V613H717.359ZM757.597 613.672C755.325 613.672 753.277 613.192 751.453 612.232C749.661 611.24 748.237 609.832 747.181 608.008C746.157 606.184 745.645 604.024 745.645 601.528V601C745.645 598.472 746.157 596.312 747.181 594.52C748.237 592.696 749.661 591.304 751.453 590.344C753.277 589.352 755.325 588.856 757.597 588.856C759.837 588.856 761.741 589.272 763.309 590.104C764.909 590.936 766.157 592.04 767.052 593.416C767.981 594.792 768.573 596.264 768.829 597.832L765.133 598.6C764.973 597.448 764.589 596.392 763.981 595.432C763.405 594.472 762.589 593.704 761.533 593.128C760.477 592.552 759.181 592.264 757.645 592.264C756.077 592.264 754.669 592.616 753.421 593.32C752.205 594.024 751.229 595.032 750.493 596.344C749.789 597.656 749.437 599.224 749.437 601.048V601.48C749.437 603.304 749.789 604.872 750.493 606.184C751.229 607.496 752.205 608.504 753.421 609.208C754.669 609.912 756.077 610.264 757.645 610.264C759.981 610.264 761.757 609.656 762.973 608.44C764.221 607.224 764.989 605.72 765.277 603.928L769.021 604.744C768.669 606.28 768.029 607.736 767.101 609.112C766.173 610.488 764.909 611.592 763.309 612.424C761.741 613.256 759.837 613.672 757.597 613.672ZM786.236 613.672C783.868 613.672 781.788 613.176 779.996 612.184C778.204 611.16 776.812 609.736 775.82 607.912C774.828 606.088 774.332 603.976 774.332 601.576V601C774.332 598.568 774.828 596.44 775.82 594.616C776.812 592.792 778.188 591.384 779.948 590.392C781.708 589.368 783.724 588.856 785.996 588.856C788.204 588.856 790.156 589.336 791.852 590.296C793.548 591.224 794.876 592.568 795.836 594.328C796.796 596.088 797.276 598.152 797.276 600.52V602.248H778.124C778.22 604.776 779.036 606.76 780.572 608.2C782.108 609.608 784.028 610.312 786.332 610.312C788.348 610.312 789.9 609.848 790.988 608.92C792.076 607.992 792.908 606.888 793.484 605.608L796.748 607.192C796.268 608.184 795.596 609.176 794.732 610.168C793.9 611.16 792.796 611.992 791.42 612.664C790.076 613.336 788.348 613.672 786.236 613.672ZM778.172 599.128H793.436C793.308 596.952 792.556 595.256 791.18 594.04C789.836 592.824 788.108 592.216 785.996 592.216C783.852 592.216 782.092 592.824 780.716 594.04C779.34 595.256 778.492 596.952 778.172 599.128Z" fill="#000072"/>
</g>
<line x1="485.412" y1="443.925" x2="485.412" y2="637.65" stroke="#000072" stroke-width="4"/>
<path d="M335.172 439L394.639 458.322L431.392 508.908V571.436L394.639 622.021L335.172 641.343L275.704 622.021L238.952 571.436V508.908L275.704 458.322L335.172 439Z" fill="url(#paint2_linear_366_193)"/>
<path d="M277.917 461.663L335.063 443.121L392.101 461.772L335.063 480.314L277.917 461.663Z" fill="#000072"/>
<path d="M277.917 461.663L335.063 443.121L392.101 461.772L335.063 480.314L277.917 461.663Z" fill="url(#paint3_linear_366_193)" fill-opacity="0.7"/>
<path d="M268.266 545.377L335.063 480.314L242.675 510.243L268.266 545.377Z" fill="#000072"/>
<path d="M268.266 545.377L335.063 480.314L242.675 510.243L268.266 545.377Z" fill="url(#paint4_linear_366_193)"/>
<path d="M268.266 545.377L335.063 480.314L242.675 510.243L268.266 545.377Z" fill="url(#paint5_linear_366_193)" fill-opacity="0.7"/>
<path d="M335.063 480.315L277.917 461.663L242.675 510.243L335.063 480.315Z" fill="#000072"/>
<path d="M335.063 480.315L277.917 461.663L242.675 510.243L335.063 480.315Z" fill="url(#paint6_linear_366_193)" fill-opacity="0.7"/>
<path d="M335.172 600.354L427.452 570.317L391.993 618.897L335.172 600.354Z" fill="#000072"/>
<path d="M335.172 600.354L427.452 570.317L391.993 618.897L335.172 600.354Z" fill="url(#paint7_linear_366_193)" fill-opacity="0.7"/>
<path d="M398.933 531.063L335.172 600.354L427.452 570.317L398.933 531.063Z" fill="#000072"/>
<path d="M398.933 531.063L335.172 600.354L427.452 570.317L398.933 531.063Z" fill="url(#paint8_linear_366_193)" fill-opacity="0.7"/>
<path d="M398.933 531.063L335.172 600.354L427.452 570.317L398.933 531.063Z" fill="url(#paint9_linear_366_193)" fill-opacity="0.8"/>
<path d="M242.675 570.317L268.266 545.377L335.172 600.354L277.917 618.897L242.675 570.317Z" fill="#000072"/>
<path d="M242.675 570.317L268.266 545.377L335.172 600.354L277.917 618.897L242.675 570.317Z" fill="url(#paint10_linear_366_193)" fill-opacity="0.9"/>
<path d="M398.933 531.063L427.343 510.352L392.101 461.772L335.063 480.315L398.933 531.063Z" fill="#000072"/>
<path d="M398.933 531.063L427.343 510.352L392.101 461.772L335.063 480.315L398.933 531.063Z" fill="url(#paint11_linear_366_193)" fill-opacity="0.7"/>
<path d="M427.343 510.352L398.933 531.063L427.452 570.317L427.343 510.352Z" fill="#000072"/>
<path d="M427.343 510.352L398.933 531.063L427.452 570.317L427.343 510.352Z" fill="url(#paint12_linear_366_193)" fill-opacity="0.7"/>
<path d="M268.266 545.377L242.675 570.317V510.243L268.266 545.377Z" fill="#000072"/>
<path d="M268.266 545.377L242.675 570.317V510.243L268.266 545.377Z" fill="url(#paint13_linear_366_193)" fill-opacity="0.9"/>
<path d="M335.172 600.354L398.933 531.063L335.063 480.314L268.266 545.377L335.172 600.354Z" fill="#000072"/>
<path d="M335.172 600.354L398.933 531.063L335.063 480.314L268.266 545.377L335.172 600.354Z" fill="url(#paint14_linear_366_193)" fill-opacity="0.7"/>
<path d="M335.172 600.354L398.933 531.063L335.063 480.314L268.266 545.377L335.172 600.354Z" fill="url(#paint15_linear_366_193)" fill-opacity="0.7"/>
<path d="M335.172 600.354L277.917 618.897L335.063 637.44L391.993 618.897L335.172 600.354Z" fill="#000072"/>
<path d="M335.172 600.354L277.917 618.897L335.063 637.44L391.993 618.897L335.172 600.354Z" fill="url(#paint16_linear_366_193)" fill-opacity="0.9"/>
<path d="M278.025 618.897L335.172 600.354M278.025 618.897L242.675 570.317M278.025 618.897L335.063 637.44L391.884 618.789M427.452 570.317L398.933 531.063M427.452 570.317L427.235 510.352M427.452 570.317L391.884 618.789M427.452 570.317L335.172 600.354M398.933 531.063L427.235 510.352M398.933 531.063L335.063 480.315M398.933 531.063L335.172 600.354M427.235 510.352L392.101 461.772M391.884 618.789L335.172 600.354M335.172 600.354L268.591 545.702L242.783 510.243M242.783 510.243L335.063 480.315M242.783 510.243L242.675 570.317M242.783 510.243L278.242 461.772M335.063 480.315L242.675 570.317M335.063 480.315L278.242 461.772M335.063 480.315L392.101 461.772M278.242 461.772L335.063 443.121L392.101 461.772" stroke="url(#paint17_linear_366_193)" stroke-width="6.60291"/>
<defs>
<filter id="filter0_i_366_193" x="532.304" y="472.728" width="493.419" height="142.57" filterUnits="userSpaceOnUse" color-interpolation-filters="sRGB">
<feFlood flood-opacity="0" result="BackgroundImageFix"/>
<feBlend mode="normal" in="SourceGraphic" in2="BackgroundImageFix" result="shape"/>
<feColorMatrix in="SourceAlpha" type="matrix" values="0 0 0 0 0 0 0 0 0 0 0 0 0 0 0 0 0 0 127 0" result="hardAlpha"/>
<feOffset dy="1.62648"/>
<feGaussianBlur stdDeviation="0.813241"/>
<feComposite in2="hardAlpha" operator="arithmetic" k2="-1" k3="1"/>
<feColorMatrix type="matrix" values="0 0 0 0 0 0 0 0 0 0 0 0 0 0 0 0 0 0 0.05 0"/>
<feBlend mode="normal" in2="shape" result="effect1_innerShadow_366_193"/>
</filter>
<linearGradient id="paint0_linear_366_193" x1="279.583" y1="444.868" x2="1740.77" y2="-1108.39" gradientUnits="userSpaceOnUse">
<stop offset="0.391433" stop-color="#000072"/>
<stop offset="1" stop-color="#A40B0D"/>
</linearGradient>
<linearGradient id="paint1_linear_366_193" x1="990" y1="182.739" x2="990" y2="1239.53" gradientUnits="userSpaceOnUse">
<stop offset="0.351728" stop-color="#000072"/>
<stop offset="0.826398" stop-color="#F5F0E9"/>
</linearGradient>
<linearGradient id="paint2_linear_366_193" x1="472.809" y1="537.927" x2="197.772" y2="537.927" gradientUnits="userSpaceOnUse">
<stop stop-color="#555454"/>
<stop offset="0.3" stop-color="#9A9A9A"/>
<stop offset="0.5" stop-color="#E0E0E0"/>
<stop offset="0.697174" stop-color="#9A9A9A"/>
<stop offset="1" stop-color="#555454"/>
</linearGradient>
<linearGradient id="paint3_linear_366_193" x1="243" y1="443.121" x2="414.873" y2="443.121" gradientUnits="userSpaceOnUse">
<stop stop-color="#000072" stop-opacity="0"/>
<stop offset="1" stop-color="#F5F0E9"/>
</linearGradient>
<linearGradient id="paint4_linear_366_193" x1="279.869" y1="518.593" x2="260.675" y2="578.45" gradientUnits="userSpaceOnUse">
<stop stop-color="#951C1E" stop-opacity="0"/>
<stop offset="1" stop-color="#951C1E"/>
</linearGradient>
<linearGradient id="paint5_linear_366_193" x1="297.002" y1="507.966" x2="432.006" y2="415.035" gradientUnits="userSpaceOnUse">
<stop stop-color="#F5F0E9" stop-opacity="0"/>
<stop offset="1" stop-color="#F5F0E9"/>
</linearGradient>
<linearGradient id="paint6_linear_366_193" x1="459.874" y1="496.255" x2="277.808" y2="455.157" gradientUnits="userSpaceOnUse">
<stop offset="0.424631" stop-color="#F5F0E9"/>
<stop offset="1" stop-color="#000072" stop-opacity="0"/>
</linearGradient>
<linearGradient id="paint7_linear_366_193" x1="409.126" y1="602.957" x2="313.81" y2="605.234" gradientUnits="userSpaceOnUse">
<stop stop-color="#000072" stop-opacity="0"/>
<stop offset="1" stop-color="#951C1E"/>
</linearGradient>
<linearGradient id="paint8_linear_366_193" x1="417.042" y1="509.376" x2="399.15" y2="572.269" gradientUnits="userSpaceOnUse">
<stop offset="0.0535586" stop-color="#F5F0E9"/>
<stop offset="1" stop-color="#000072" stop-opacity="0"/>
</linearGradient>
<linearGradient id="paint9_linear_366_193" x1="312.075" y1="617.813" x2="397.089" y2="569.884" gradientUnits="userSpaceOnUse">
<stop stop-color="#951C1E"/>
<stop offset="1" stop-color="#000072" stop-opacity="0"/>
</linearGradient>
<linearGradient id="paint10_linear_366_193" x1="369.655" y1="518.484" x2="264.145" y2="613.258" gradientUnits="userSpaceOnUse">
<stop stop-color="#000072" stop-opacity="0"/>
<stop offset="1" stop-color="#A40B0D"/>
</linearGradient>
<linearGradient id="paint11_linear_366_193" x1="311.966" y1="555.787" x2="406.957" y2="461.772" gradientUnits="userSpaceOnUse">
<stop stop-color="#000072" stop-opacity="0"/>
<stop offset="1" stop-color="#F5F0E9"/>
</linearGradient>
<linearGradient id="paint12_linear_366_193" x1="419.861" y1="494.303" x2="417.042" y2="590.812" gradientUnits="userSpaceOnUse">
<stop stop-color="#F5F0E9"/>
<stop offset="1" stop-color="#000072" stop-opacity="0"/>
</linearGradient>
<linearGradient id="paint13_linear_366_193" x1="261.977" y1="471.531" x2="242.675" y2="585.824" gradientUnits="userSpaceOnUse">
<stop stop-color="#000072" stop-opacity="0"/>
<stop offset="1" stop-color="#A40B0D"/>
</linearGradient>
<linearGradient id="paint14_linear_366_193" x1="351.979" y1="540.28" x2="285.182" y2="606.427" gradientUnits="userSpaceOnUse">
<stop stop-color="#000072" stop-opacity="0"/>
<stop offset="0.835723" stop-color="#A40B0D"/>
</linearGradient>
<linearGradient id="paint15_linear_366_193" x1="424.958" y1="458.952" x2="329.858" y2="550.039" gradientUnits="userSpaceOnUse">
<stop offset="0.240449" stop-color="#F5F0E9"/>
<stop offset="1" stop-color="#000072" stop-opacity="0"/>
</linearGradient>
<linearGradient id="paint16_linear_366_193" x1="254.386" y1="625.837" x2="457.055" y2="629.199" gradientUnits="userSpaceOnUse">
<stop stop-color="#A40B0D"/>
<stop offset="1" stop-color="#000072" stop-opacity="0"/>
</linearGradient>
<linearGradient id="paint17_linear_366_193" x1="460.751" y1="538.124" x2="209.592" y2="538.124" gradientUnits="userSpaceOnUse">
<stop stop-color="#555454"/>
<stop offset="0.3" stop-color="#9A9A9A"/>
<stop offset="0.5" stop-color="#E0E0E0"/>
<stop offset="0.697174" stop-color="#9A9A9A"/>
<stop offset="1" stop-color="#555454"/>
</linearGradient>
</defs>
</svg>
