<svg width="1920" height="1080" viewBox="0 0 1920 1080" fill="none" xmlns="http://www.w3.org/2000/svg">
<rect width="1920" height="1080" fill="url(#paint0_linear_366_193)"/>
<rect width="1920" height="1080" fill="url(#paint1_linear_366_193)" fill-opacity="0.2"/>
<rect x="113" y="351" width="847" height="378.605" rx="50" fill="white"/>
<g filter="url(#filter0_i_366_193)">
<path d="M482.727 511.49C479.393 511.49 476.74 510.53 474.767 508.61C472.793 506.664 471.807 503.837 471.807 500.13V493.73C471.807 490.024 472.793 487.21 474.767 485.29C476.74 483.344 479.393 482.37 482.727 482.37C486.033 482.37 488.567 483.29 490.327 485.13C492.113 486.97 493.007 489.49 493.007 492.69V492.89H489.687V492.57C489.687 490.464 489.113 488.744 487.967 487.41C486.847 486.05 485.1 485.37 482.727 485.37C480.353 485.37 478.5 486.104 477.167 487.57C475.833 489.01 475.167 491.037 475.167 493.65V500.21C475.167 502.824 475.833 504.864 477.167 506.33C478.5 507.77 480.353 508.49 482.727 508.49C485.1 508.49 486.847 507.824 487.967 506.49C489.113 505.13 489.687 503.397 489.687 501.29V500.65H493.007V501.17C493.007 504.37 492.113 506.89 490.327 508.73C488.567 510.57 486.033 511.49 482.727 511.49ZM504.391 511.49C503.031 511.49 501.791 511.25 500.671 510.77C499.551 510.29 498.671 509.597 498.031 508.69C497.391 507.784 497.071 506.677 497.071 505.37C497.071 504.037 497.391 502.944 498.031 502.09C498.671 501.21 499.551 500.557 500.671 500.13C501.791 499.677 503.044 499.45 504.431 499.45H511.031V498.01C511.031 496.624 510.617 495.53 509.791 494.73C508.991 493.93 507.791 493.53 506.191 493.53C504.617 493.53 503.391 493.917 502.511 494.69C501.631 495.437 501.031 496.45 500.711 497.73L497.751 496.77C498.071 495.677 498.577 494.69 499.271 493.81C499.964 492.904 500.884 492.184 502.031 491.65C503.204 491.09 504.604 490.81 506.231 490.81C508.737 490.81 510.684 491.464 512.071 492.77C513.457 494.05 514.151 495.864 514.151 498.21V507.05C514.151 507.85 514.524 508.25 515.271 508.25H517.071V510.93H514.311C513.431 510.93 512.724 510.69 512.191 510.21C511.657 509.704 511.391 509.037 511.391 508.21V508.01H510.911C510.617 508.517 510.217 509.05 509.711 509.61C509.231 510.144 508.564 510.584 507.711 510.93C506.857 511.304 505.751 511.49 504.391 511.49ZM504.751 508.77C506.617 508.77 508.124 508.224 509.271 507.13C510.444 506.01 511.031 504.45 511.031 502.45V502.01H504.551C503.297 502.01 502.257 502.29 501.431 502.85C500.631 503.384 500.231 504.197 500.231 505.29C500.231 506.384 500.644 507.237 501.471 507.85C502.324 508.464 503.417 508.77 504.751 508.77ZM521.398 510.93V491.37H524.478V494.69H525.038C525.465 493.757 526.185 492.917 527.198 492.17C528.238 491.397 529.758 491.01 531.758 491.01C533.225 491.01 534.532 491.317 535.678 491.93C536.852 492.544 537.785 493.45 538.478 494.65C539.172 495.85 539.518 497.33 539.518 499.09V510.93H536.358V499.33C536.358 497.384 535.865 495.97 534.878 495.09C533.918 494.21 532.612 493.77 530.958 493.77C529.065 493.77 527.518 494.384 526.318 495.61C525.145 496.837 524.558 498.664 524.558 501.09V510.93H521.398ZM551.93 511.49C550.57 511.49 549.33 511.25 548.21 510.77C547.09 510.29 546.21 509.597 545.57 508.69C544.93 507.784 544.61 506.677 544.61 505.37C544.61 504.037 544.93 502.944 545.57 502.09C546.21 501.21 547.09 500.557 548.21 500.13C549.33 499.677 550.583 499.45 551.97 499.45H558.57V498.01C558.57 496.624 558.156 495.53 557.33 494.73C556.53 493.93 555.33 493.53 553.73 493.53C552.156 493.53 550.93 493.917 550.05 494.69C549.17 495.437 548.57 496.45 548.25 497.73L545.29 496.77C545.61 495.677 546.116 494.69 546.81 493.81C547.503 492.904 548.423 492.184 549.57 491.65C550.743 491.09 552.143 490.81 553.77 490.81C556.276 490.81 558.223 491.464 559.61 492.77C560.996 494.05 561.69 495.864 561.69 498.21V507.05C561.69 507.85 562.063 508.25 562.81 508.25H564.61V510.93H561.85C560.97 510.93 560.263 510.69 559.73 510.21C559.196 509.704 558.93 509.037 558.93 508.21V508.01H558.45C558.156 508.517 557.756 509.05 557.25 509.61C556.77 510.144 556.103 510.584 555.25 510.93C554.396 511.304 553.29 511.49 551.93 511.49ZM552.29 508.77C554.156 508.77 555.663 508.224 556.81 507.13C557.983 506.01 558.57 504.45 558.57 502.45V502.01H552.09C550.836 502.01 549.796 502.29 548.97 502.85C548.17 503.384 547.77 504.197 547.77 505.29C547.77 506.384 548.183 507.237 549.01 507.85C549.863 508.464 550.956 508.77 552.29 508.77ZM576.671 511.49C574.991 511.49 573.444 511.09 572.031 510.29C570.617 509.49 569.497 508.33 568.671 506.81C567.844 505.29 567.431 503.49 567.431 501.41V500.89C567.431 498.81 567.844 497.024 568.671 495.53C569.497 494.01 570.604 492.85 571.991 492.05C573.404 491.224 574.964 490.81 576.671 490.81C578.031 490.81 579.177 490.997 580.111 491.37C581.071 491.717 581.844 492.17 582.431 492.73C583.017 493.264 583.471 493.837 583.791 494.45H584.351V482.93H587.511V510.93H584.431V507.69H583.871C583.337 508.677 582.511 509.557 581.391 510.33C580.271 511.104 578.697 511.49 576.671 511.49ZM577.511 508.69C579.537 508.69 581.177 508.05 582.431 506.77C583.711 505.464 584.351 503.65 584.351 501.33V500.97C584.351 498.65 583.711 496.85 582.431 495.57C581.177 494.264 579.537 493.61 577.511 493.61C575.511 493.61 573.857 494.264 572.551 495.57C571.271 496.85 570.631 498.65 570.631 500.97V501.33C570.631 503.65 571.271 505.464 572.551 506.77C573.857 508.05 575.511 508.69 577.511 508.69ZM594.133 510.93V491.37H597.293V510.93H594.133ZM595.733 488.33C595.04 488.33 594.453 488.104 593.973 487.65C593.52 487.197 593.293 486.624 593.293 485.93C593.293 485.21 593.52 484.624 593.973 484.17C594.453 483.717 595.04 483.49 595.733 483.49C596.426 483.49 597 483.717 597.453 484.17C597.906 484.624 598.133 485.21 598.133 485.93C598.133 486.624 597.906 487.197 597.453 487.65C597 488.104 596.426 488.33 595.733 488.33ZM609.938 511.49C608.578 511.49 607.338 511.25 606.218 510.77C605.098 510.29 604.218 509.597 603.578 508.69C602.938 507.784 602.618 506.677 602.618 505.37C602.618 504.037 602.938 502.944 603.578 502.09C604.218 501.21 605.098 500.557 606.218 500.13C607.338 499.677 608.591 499.45 609.978 499.45H616.578V498.01C616.578 496.624 616.164 495.53 615.338 494.73C614.538 493.93 613.338 493.53 611.738 493.53C610.164 493.53 608.938 493.917 608.058 494.69C607.178 495.437 606.578 496.45 606.258 497.73L603.298 496.77C603.618 495.677 604.124 494.69 604.818 493.81C605.511 492.904 606.431 492.184 607.578 491.65C608.751 491.09 610.151 490.81 611.778 490.81C614.284 490.81 616.231 491.464 617.618 492.77C619.004 494.05 619.698 495.864 619.698 498.21V507.05C619.698 507.85 620.071 508.25 620.818 508.25H622.618V510.93H619.858C618.978 510.93 618.271 510.69 617.738 510.21C617.204 509.704 616.938 509.037 616.938 508.21V508.01H616.458C616.164 508.517 615.764 509.05 615.258 509.61C614.778 510.144 614.111 510.584 613.258 510.93C612.404 511.304 611.298 511.49 609.938 511.49ZM610.298 508.77C612.164 508.77 613.671 508.224 614.818 507.13C615.991 506.01 616.578 504.45 616.578 502.45V502.01H610.098C608.844 502.01 607.804 502.29 606.978 502.85C606.178 503.384 605.778 504.197 605.778 505.29C605.778 506.384 606.191 507.237 607.018 507.85C607.871 508.464 608.964 508.77 610.298 508.77ZM626.945 510.93V491.37H630.025V494.69H630.585C631.012 493.757 631.732 492.917 632.745 492.17C633.785 491.397 635.305 491.01 637.305 491.01C638.772 491.01 640.079 491.317 641.225 491.93C642.399 492.544 643.332 493.45 644.025 494.65C644.719 495.85 645.065 497.33 645.065 499.09V510.93H641.905V499.33C641.905 497.384 641.412 495.97 640.425 495.09C639.465 494.21 638.159 493.77 636.505 493.77C634.612 493.77 633.065 494.384 631.865 495.61C630.692 496.837 630.105 498.664 630.105 501.09V510.93H626.945ZM671.75 511.49C669.67 511.49 667.857 511.117 666.31 510.37C664.763 509.624 663.563 508.517 662.71 507.05C661.857 505.557 661.43 503.73 661.43 501.57V482.93H664.75V501.61C664.75 503.904 665.363 505.624 666.59 506.77C667.817 507.917 669.537 508.49 671.75 508.49C673.963 508.49 675.683 507.917 676.91 506.77C678.137 505.624 678.75 503.904 678.75 501.61V482.93H682.11V501.57C682.11 503.73 681.683 505.557 680.83 507.05C679.977 508.517 678.763 509.624 677.19 510.37C675.643 511.117 673.83 511.49 671.75 511.49ZM688.391 510.93V491.37H691.471V494.69H692.031C692.457 493.757 693.177 492.917 694.191 492.17C695.231 491.397 696.751 491.01 698.751 491.01C700.217 491.01 701.524 491.317 702.671 491.93C703.844 492.544 704.777 493.45 705.471 494.65C706.164 495.85 706.511 497.33 706.511 499.09V510.93H703.351V499.33C703.351 497.384 702.857 495.97 701.871 495.09C700.911 494.21 699.604 493.77 697.951 493.77C696.057 493.77 694.511 494.384 693.311 495.61C692.137 496.837 691.551 498.664 691.551 501.09V510.93H688.391ZM712.922 510.93V491.37H716.082V510.93H712.922ZM714.522 488.33C713.829 488.33 713.242 488.104 712.762 487.65C712.309 487.197 712.082 486.624 712.082 485.93C712.082 485.21 712.309 484.624 712.762 484.17C713.242 483.717 713.829 483.49 714.522 483.49C715.215 483.49 715.789 483.717 716.242 484.17C716.695 484.624 716.922 485.21 716.922 485.93C716.922 486.624 716.695 487.197 716.242 487.65C715.789 488.104 715.215 488.33 714.522 488.33ZM727.687 510.93L720.687 491.37H724.047L729.927 508.57H730.487L736.367 491.37H739.727L732.727 510.93H727.687ZM752.429 511.49C750.455 511.49 748.722 511.077 747.229 510.25C745.735 509.397 744.575 508.21 743.749 506.69C742.922 505.17 742.509 503.41 742.509 501.41V500.93C742.509 498.904 742.922 497.13 743.749 495.61C744.575 494.09 745.722 492.917 747.189 492.09C748.655 491.237 750.335 490.81 752.229 490.81C754.069 490.81 755.695 491.21 757.109 492.01C758.522 492.784 759.629 493.904 760.429 495.37C761.229 496.837 761.629 498.557 761.629 500.53V501.97H745.669C745.749 504.077 746.429 505.73 747.709 506.93C748.989 508.104 750.589 508.69 752.509 508.69C754.189 508.69 755.482 508.304 756.389 507.53C757.295 506.757 757.989 505.837 758.469 504.77L761.189 506.09C760.789 506.917 760.229 507.744 759.509 508.57C758.815 509.397 757.895 510.09 756.749 510.65C755.629 511.21 754.189 511.49 752.429 511.49ZM745.709 499.37H758.429C758.322 497.557 757.695 496.144 756.549 495.13C755.429 494.117 753.989 493.61 752.229 493.61C750.442 493.61 748.975 494.117 747.829 495.13C746.682 496.144 745.975 497.557 745.709 499.37ZM767.141 510.93V491.37H770.221V493.77H770.781C771.127 492.917 771.661 492.29 772.381 491.89C773.101 491.49 774.047 491.29 775.221 491.29H777.541V494.17H775.021C773.607 494.17 772.461 494.57 771.581 495.37C770.727 496.144 770.301 497.357 770.301 499.01V510.93H767.141ZM789.708 511.49C787.282 511.49 785.228 510.93 783.548 509.81C781.895 508.69 780.895 506.917 780.548 504.49L783.548 503.81C783.762 505.09 784.162 506.104 784.748 506.85C785.335 507.57 786.055 508.09 786.908 508.41C787.788 508.704 788.722 508.85 789.708 508.85C791.175 508.85 792.335 508.557 793.188 507.97C794.042 507.384 794.468 506.597 794.468 505.61C794.468 504.597 794.055 503.89 793.228 503.49C792.428 503.064 791.322 502.717 789.908 502.45L788.268 502.17C787.015 501.957 785.868 501.624 784.828 501.17C783.788 500.717 782.962 500.104 782.348 499.33C781.735 498.557 781.428 497.584 781.428 496.41C781.428 494.65 782.108 493.277 783.468 492.29C784.828 491.304 786.628 490.81 788.868 490.81C791.082 490.81 792.868 491.317 794.228 492.33C795.615 493.317 796.508 494.717 796.908 496.53L793.948 497.29C793.708 495.877 793.135 494.89 792.228 494.33C791.322 493.744 790.202 493.45 788.868 493.45C787.535 493.45 786.482 493.704 785.708 494.21C784.935 494.69 784.548 495.41 784.548 496.37C784.548 497.304 784.908 497.997 785.628 498.45C786.375 498.877 787.362 499.197 788.588 499.41L790.228 499.69C791.615 499.93 792.855 500.264 793.948 500.69C795.068 501.09 795.948 501.677 796.588 502.45C797.255 503.224 797.588 504.237 797.588 505.49C797.588 507.41 796.868 508.89 795.428 509.93C794.015 510.97 792.108 511.49 789.708 511.49ZM802.922 510.93V491.37H806.082V510.93H802.922ZM804.522 488.33C803.829 488.33 803.242 488.104 802.762 487.65C802.309 487.197 802.082 486.624 802.082 485.93C802.082 485.21 802.309 484.624 802.762 484.17C803.242 483.717 803.829 483.49 804.522 483.49C805.215 483.49 805.789 483.717 806.242 484.17C806.695 484.624 806.922 485.21 806.922 485.93C806.922 486.624 806.695 487.197 806.242 487.65C805.789 488.104 805.215 488.33 804.522 488.33ZM819.927 510.93C818.807 510.93 817.94 510.624 817.327 510.01C816.74 509.397 816.447 508.557 816.447 507.49V494.13H810.567V491.37H816.447V484.41H819.607V491.37H826.007V494.13H819.607V507.01C819.607 507.81 819.993 508.21 820.767 508.21H825.127V510.93H819.927ZM833.485 518.93V516.13H844.685C845.458 516.13 845.845 515.73 845.845 514.93V507.81H845.285C845.018 508.37 844.605 508.93 844.045 509.49C843.512 510.024 842.805 510.464 841.925 510.81C841.045 511.13 839.938 511.29 838.605 511.29C837.192 511.29 835.885 510.984 834.685 510.37C833.512 509.757 832.578 508.85 831.885 507.65C831.218 506.45 830.885 504.984 830.885 503.25V491.37H834.045V503.01C834.045 504.93 834.525 506.33 835.485 507.21C836.472 508.09 837.792 508.53 839.445 508.53C841.312 508.53 842.845 507.917 844.045 506.69C845.245 505.464 845.845 503.637 845.845 501.21V491.37H849.005V515.49C849.005 516.557 848.698 517.397 848.085 518.01C847.498 518.624 846.632 518.93 845.485 518.93H833.485ZM481.927 555.49C479.9 555.49 478.087 555.13 476.487 554.41C474.887 553.69 473.62 552.61 472.687 551.17C471.78 549.704 471.327 547.877 471.327 545.69V544.85H474.647V545.69C474.647 548.01 475.327 549.744 476.687 550.89C478.047 552.01 479.793 552.57 481.927 552.57C484.113 552.57 485.78 552.077 486.927 551.09C488.073 550.104 488.647 548.864 488.647 547.37C488.647 546.33 488.38 545.504 487.847 544.89C487.34 544.277 486.62 543.784 485.687 543.41C484.753 543.01 483.66 542.664 482.407 542.37L480.327 541.85C478.7 541.424 477.26 540.904 476.007 540.29C474.753 539.677 473.767 538.877 473.047 537.89C472.353 536.877 472.007 535.584 472.007 534.01C472.007 532.437 472.393 531.077 473.167 529.93C473.967 528.784 475.073 527.904 476.487 527.29C477.927 526.677 479.58 526.37 481.447 526.37C483.34 526.37 485.033 526.704 486.527 527.37C488.047 528.01 489.233 528.97 490.087 530.25C490.967 531.504 491.407 533.09 491.407 535.01V536.69H488.087V535.01C488.087 533.65 487.793 532.557 487.207 531.73C486.647 530.904 485.86 530.29 484.847 529.89C483.86 529.49 482.727 529.29 481.447 529.29C479.607 529.29 478.127 529.704 477.007 530.53C475.887 531.33 475.327 532.477 475.327 533.97C475.327 534.957 475.567 535.757 476.047 536.37C476.527 536.984 477.207 537.49 478.087 537.89C478.967 538.264 480.02 538.597 481.247 538.89L483.327 539.41C484.953 539.757 486.407 540.237 487.687 540.85C488.993 541.437 490.033 542.25 490.807 543.29C491.58 544.304 491.967 545.637 491.967 547.29C491.967 548.944 491.553 550.384 490.727 551.61C489.9 552.837 488.727 553.797 487.207 554.49C485.713 555.157 483.953 555.49 481.927 555.49ZM506.298 555.49C504.325 555.49 502.578 555.077 501.058 554.25C499.565 553.424 498.391 552.264 497.538 550.77C496.711 549.25 496.298 547.464 496.298 545.41V544.89C496.298 542.864 496.711 541.09 497.538 539.57C498.391 538.05 499.565 536.877 501.058 536.05C502.578 535.224 504.325 534.81 506.298 534.81C508.271 534.81 510.005 535.224 511.498 536.05C513.018 536.877 514.191 538.05 515.018 539.57C515.871 541.09 516.298 542.864 516.298 544.89V545.41C516.298 547.464 515.871 549.25 515.018 550.77C514.191 552.264 513.018 553.424 511.498 554.25C510.005 555.077 508.271 555.49 506.298 555.49ZM506.298 552.65C508.378 552.65 510.031 551.997 511.258 550.69C512.511 549.357 513.138 547.57 513.138 545.33V544.97C513.138 542.73 512.511 540.957 511.258 539.65C510.031 538.317 508.378 537.65 506.298 537.65C504.245 537.65 502.591 538.317 501.338 539.65C500.085 540.957 499.458 542.73 499.458 544.97V545.33C499.458 547.57 500.085 549.357 501.338 550.69C502.591 551.997 504.245 552.65 506.298 552.65ZM525.004 554.93V538.13H519.004V535.37H525.004V530.37C525.004 529.304 525.297 528.464 525.884 527.85C526.497 527.237 527.364 526.93 528.484 526.93H533.404V529.65H529.364C528.564 529.65 528.164 530.05 528.164 530.85V535.37H534.324V538.13H528.164V554.93H525.004ZM545.395 554.93C544.275 554.93 543.409 554.624 542.795 554.01C542.209 553.397 541.915 552.557 541.915 551.49V538.13H536.035V535.37H541.915V528.41H545.075V535.37H551.475V538.13H545.075V551.01C545.075 551.81 545.462 552.21 546.235 552.21H550.595V554.93H545.395ZM559.314 554.93L555.394 535.37H558.594L561.834 552.81H562.394L566.674 535.37H571.914L576.194 552.81H576.754L579.994 535.37H583.194L579.274 554.93H573.874L569.554 537.49H569.034L564.714 554.93H559.314ZM594.313 555.49C592.953 555.49 591.713 555.25 590.593 554.77C589.473 554.29 588.593 553.597 587.953 552.69C587.313 551.784 586.993 550.677 586.993 549.37C586.993 548.037 587.313 546.944 587.953 546.09C588.593 545.21 589.473 544.557 590.593 544.13C591.713 543.677 592.966 543.45 594.353 543.45H600.953V542.01C600.953 540.624 600.539 539.53 599.713 538.73C598.913 537.93 597.713 537.53 596.113 537.53C594.539 537.53 593.313 537.917 592.433 538.69C591.553 539.437 590.953 540.45 590.633 541.73L587.673 540.77C587.993 539.677 588.499 538.69 589.193 537.81C589.886 536.904 590.806 536.184 591.953 535.65C593.126 535.09 594.526 534.81 596.153 534.81C598.659 534.81 600.606 535.464 601.993 536.77C603.379 538.05 604.073 539.864 604.073 542.21V551.05C604.073 551.85 604.446 552.25 605.193 552.25H606.993V554.93H604.233C603.353 554.93 602.646 554.69 602.113 554.21C601.579 553.704 601.313 553.037 601.313 552.21V552.01H600.833C600.539 552.517 600.139 553.05 599.633 553.61C599.153 554.144 598.486 554.584 597.633 554.93C596.779 555.304 595.673 555.49 594.313 555.49ZM594.673 552.77C596.539 552.77 598.046 552.224 599.193 551.13C600.366 550.01 600.953 548.45 600.953 546.45V546.01H594.473C593.219 546.01 592.179 546.29 591.353 546.85C590.553 547.384 590.153 548.197 590.153 549.29C590.153 550.384 590.566 551.237 591.393 551.85C592.246 552.464 593.339 552.77 594.673 552.77ZM611.32 554.93V535.37H614.4V537.77H614.96C615.307 536.917 615.84 536.29 616.56 535.89C617.28 535.49 618.227 535.29 619.4 535.29H621.72V538.17H619.2C617.787 538.17 616.64 538.57 615.76 539.37C614.907 540.144 614.48 541.357 614.48 543.01V554.93H611.32ZM634.655 555.49C632.682 555.49 630.949 555.077 629.455 554.25C627.962 553.397 626.802 552.21 625.975 550.69C625.149 549.17 624.735 547.41 624.735 545.41V544.93C624.735 542.904 625.149 541.13 625.975 539.61C626.802 538.09 627.949 536.917 629.415 536.09C630.882 535.237 632.562 534.81 634.455 534.81C636.295 534.81 637.922 535.21 639.335 536.01C640.749 536.784 641.855 537.904 642.655 539.37C643.455 540.837 643.855 542.557 643.855 544.53V545.97H627.895C627.975 548.077 628.655 549.73 629.935 550.93C631.215 552.104 632.815 552.69 634.735 552.69C636.415 552.69 637.709 552.304 638.615 551.53C639.522 550.757 640.215 549.837 640.695 548.77L643.415 550.09C643.015 550.917 642.455 551.744 641.735 552.57C641.042 553.397 640.122 554.09 638.975 554.65C637.855 555.21 636.415 555.49 634.655 555.49ZM627.935 543.37H640.655C640.549 541.557 639.922 540.144 638.775 539.13C637.655 538.117 636.215 537.61 634.455 537.61C632.669 537.61 631.202 538.117 630.055 539.13C628.909 540.144 628.202 541.557 627.935 543.37ZM659.521 554.93V526.93H676.761V529.97H662.881V539.33H675.641V542.37H662.881V551.89H676.961V554.93H659.521ZM682.18 554.93V535.37H685.26V538.69H685.82C686.246 537.757 686.966 536.917 687.98 536.17C689.02 535.397 690.54 535.01 692.54 535.01C694.006 535.01 695.313 535.317 696.46 535.93C697.633 536.544 698.566 537.45 699.26 538.65C699.953 539.85 700.3 541.33 700.3 543.09V554.93H697.14V543.33C697.14 541.384 696.646 539.97 695.66 539.09C694.7 538.21 693.393 537.77 691.74 537.77C689.846 537.77 688.3 538.384 687.1 539.61C685.926 540.837 685.34 542.664 685.34 545.09V554.93H682.18ZM705.751 545.25V544.69C705.751 542.637 706.164 540.877 706.991 539.41C707.818 537.944 708.938 536.81 710.351 536.01C711.764 535.21 713.311 534.81 714.991 534.81C717.044 534.81 718.618 535.21 719.711 536.01C720.831 536.784 721.658 537.65 722.191 538.61H722.751V535.37H725.751V559.49C725.751 560.557 725.458 561.397 724.871 562.01C724.284 562.624 723.431 562.93 722.311 562.93H709.031V560.13H721.471C722.271 560.13 722.671 559.73 722.671 558.93V551.49H722.111C721.791 552.077 721.338 552.65 720.751 553.21C720.164 553.77 719.404 554.237 718.471 554.61C717.538 554.957 716.378 555.13 714.991 555.13C713.311 555.13 711.764 554.73 710.351 553.93C708.938 553.13 707.818 551.997 706.991 550.53C706.164 549.037 705.751 547.277 705.751 545.25ZM715.831 552.33C717.858 552.33 719.498 551.69 720.751 550.41C722.031 549.13 722.671 547.37 722.671 545.13V544.81C722.671 542.544 722.031 540.784 720.751 539.53C719.498 538.25 717.858 537.61 715.831 537.61C713.831 537.61 712.178 538.25 710.871 539.53C709.591 540.784 708.951 542.544 708.951 544.81V545.13C708.951 547.37 709.591 549.13 710.871 550.41C712.178 551.69 713.831 552.33 715.831 552.33ZM732.375 554.93V535.37H735.535V554.93H732.375ZM733.975 532.33C733.282 532.33 732.695 532.104 732.215 531.65C731.762 531.197 731.535 530.624 731.535 529.93C731.535 529.21 731.762 528.624 732.215 528.17C732.695 527.717 733.282 527.49 733.975 527.49C734.668 527.49 735.242 527.717 735.695 528.17C736.148 528.624 736.375 529.21 736.375 529.93C736.375 530.624 736.148 531.197 735.695 531.65C735.242 532.104 734.668 532.33 733.975 532.33ZM742.18 554.93V535.37H745.26V538.69H745.82C746.246 537.757 746.966 536.917 747.98 536.17C749.02 535.397 750.54 535.01 752.54 535.01C754.006 535.01 755.313 535.317 756.46 535.93C757.633 536.544 758.566 537.45 759.26 538.65C759.953 539.85 760.3 541.33 760.3 543.09V554.93H757.14V543.33C757.14 541.384 756.646 539.97 755.66 539.09C754.7 538.21 753.393 537.77 751.74 537.77C749.846 537.77 748.3 538.384 747.1 539.61C745.926 540.837 745.34 542.664 745.34 545.09V554.93H742.18ZM775.671 555.49C773.698 555.49 771.964 555.077 770.471 554.25C768.978 553.397 767.818 552.21 766.991 550.69C766.164 549.17 765.751 547.41 765.751 545.41V544.93C765.751 542.904 766.164 541.13 766.991 539.61C767.818 538.09 768.964 536.917 770.431 536.09C771.898 535.237 773.578 534.81 775.471 534.81C777.311 534.81 778.938 535.21 780.351 536.01C781.764 536.784 782.871 537.904 783.671 539.37C784.471 540.837 784.871 542.557 784.871 544.53V545.97H768.911C768.991 548.077 769.671 549.73 770.951 550.93C772.231 552.104 773.831 552.69 775.751 552.69C777.431 552.69 778.724 552.304 779.631 551.53C780.538 550.757 781.231 549.837 781.711 548.77L784.431 550.09C784.031 550.917 783.471 551.744 782.751 552.57C782.058 553.397 781.138 554.09 779.991 554.65C778.871 555.21 777.431 555.49 775.671 555.49ZM768.951 543.37H781.671C781.564 541.557 780.938 540.144 779.791 539.13C778.671 538.117 777.231 537.61 775.471 537.61C773.684 537.61 772.218 538.117 771.071 539.13C769.924 540.144 769.218 541.557 768.951 543.37ZM799.343 555.49C797.37 555.49 795.636 555.077 794.143 554.25C792.65 553.397 791.49 552.21 790.663 550.69C789.836 549.17 789.423 547.41 789.423 545.41V544.93C789.423 542.904 789.836 541.13 790.663 539.61C791.49 538.09 792.636 536.917 794.103 536.09C795.57 535.237 797.25 534.81 799.143 534.81C800.983 534.81 802.61 535.21 804.023 536.01C805.436 536.784 806.543 537.904 807.343 539.37C808.143 540.837 808.543 542.557 808.543 544.53V545.97H792.583C792.663 548.077 793.343 549.73 794.623 550.93C795.903 552.104 797.503 552.69 799.423 552.69C801.103 552.69 802.396 552.304 803.303 551.53C804.21 550.757 804.903 549.837 805.383 548.77L808.103 550.09C807.703 550.917 807.143 551.744 806.423 552.57C805.73 553.397 804.81 554.09 803.663 554.65C802.543 555.21 801.103 555.49 799.343 555.49ZM792.623 543.37H805.343C805.236 541.557 804.61 540.144 803.463 539.13C802.343 538.117 800.903 537.61 799.143 537.61C797.356 537.61 795.89 538.117 794.743 539.13C793.596 540.144 792.89 541.557 792.623 543.37ZM814.055 554.93V535.37H817.135V537.77H817.695C818.041 536.917 818.575 536.29 819.295 535.89C820.015 535.49 820.961 535.29 822.135 535.29H824.455V538.17H821.935C820.521 538.17 819.375 538.57 818.495 539.37C817.641 540.144 817.215 541.357 817.215 543.01V554.93H814.055ZM829.133 554.93V535.37H832.293V554.93H829.133ZM830.733 532.33C830.04 532.33 829.453 532.104 828.973 531.65C828.52 531.197 828.293 530.624 828.293 529.93C828.293 529.21 828.52 528.624 828.973 528.17C829.453 527.717 830.04 527.49 830.733 527.49C831.426 527.49 832 527.717 832.453 528.17C832.906 528.624 833.133 529.21 833.133 529.93C833.133 530.624 832.906 531.197 832.453 531.65C832 532.104 831.426 532.33 830.733 532.33ZM838.938 554.93V535.37H842.018V538.69H842.578C843.004 537.757 843.724 536.917 844.738 536.17C845.778 535.397 847.298 535.01 849.298 535.01C850.764 535.01 852.071 535.317 853.218 535.93C854.391 536.544 855.324 537.45 856.018 538.65C856.711 539.85 857.058 541.33 857.058 543.09V554.93H853.898V543.33C853.898 541.384 853.404 539.97 852.418 539.09C851.458 538.21 850.151 537.77 848.498 537.77C846.604 537.77 845.058 538.384 843.858 539.61C842.684 540.837 842.098 542.664 842.098 545.09V554.93H838.938ZM862.509 545.25V544.69C862.509 542.637 862.922 540.877 863.749 539.41C864.575 537.944 865.695 536.81 867.109 536.01C868.522 535.21 870.069 534.81 871.749 534.81C873.802 534.81 875.375 535.21 876.469 536.01C877.589 536.784 878.415 537.65 878.949 538.61H879.509V535.37H882.509V559.49C882.509 560.557 882.215 561.397 881.629 562.01C881.042 562.624 880.189 562.93 879.069 562.93H865.789V560.13H878.229C879.029 560.13 879.429 559.73 879.429 558.93V551.49H878.869C878.549 552.077 878.095 552.65 877.509 553.21C876.922 553.77 876.162 554.237 875.229 554.61C874.295 554.957 873.135 555.13 871.749 555.13C870.069 555.13 868.522 554.73 867.109 553.93C865.695 553.13 864.575 551.997 863.749 550.53C862.922 549.037 862.509 547.277 862.509 545.25ZM872.589 552.33C874.615 552.33 876.255 551.69 877.509 550.41C878.789 549.13 879.429 547.37 879.429 545.13V544.81C879.429 542.544 878.789 540.784 877.509 539.53C876.255 538.25 874.615 537.61 872.589 537.61C870.589 537.61 868.935 538.25 867.629 539.53C866.349 540.784 865.709 542.544 865.709 544.81V545.13C865.709 547.37 866.349 549.13 867.629 550.41C868.935 551.69 870.589 552.33 872.589 552.33ZM482.727 599.49C479.393 599.49 476.74 598.53 474.767 596.61C472.793 594.664 471.807 591.837 471.807 588.13V581.73C471.807 578.024 472.793 575.21 474.767 573.29C476.74 571.344 479.393 570.37 482.727 570.37C486.033 570.37 488.567 571.29 490.327 573.13C492.113 574.97 493.007 577.49 493.007 580.69V580.89H489.687V580.57C489.687 578.464 489.113 576.744 487.967 575.41C486.847 574.05 485.1 573.37 482.727 573.37C480.353 573.37 478.5 574.104 477.167 575.57C475.833 577.01 475.167 579.037 475.167 581.65V588.21C475.167 590.824 475.833 592.864 477.167 594.33C478.5 595.77 480.353 596.49 482.727 596.49C485.1 596.49 486.847 595.824 487.967 594.49C489.113 593.13 489.687 591.397 489.687 589.29V588.65H493.007V589.17C493.007 592.37 492.113 594.89 490.327 596.73C488.567 598.57 486.033 599.49 482.727 599.49ZM507.431 599.49C505.457 599.49 503.711 599.077 502.191 598.25C500.697 597.424 499.524 596.264 498.671 594.77C497.844 593.25 497.431 591.464 497.431 589.41V588.89C497.431 586.864 497.844 585.09 498.671 583.57C499.524 582.05 500.697 580.877 502.191 580.05C503.711 579.224 505.457 578.81 507.431 578.81C509.404 578.81 511.137 579.224 512.631 580.05C514.151 580.877 515.324 582.05 516.151 583.57C517.004 585.09 517.431 586.864 517.431 588.89V589.41C517.431 591.464 517.004 593.25 516.151 594.77C515.324 596.264 514.151 597.424 512.631 598.25C511.137 599.077 509.404 599.49 507.431 599.49ZM507.431 596.65C509.511 596.65 511.164 595.997 512.391 594.69C513.644 593.357 514.271 591.57 514.271 589.33V588.97C514.271 586.73 513.644 584.957 512.391 583.65C511.164 582.317 509.511 581.65 507.431 581.65C505.377 581.65 503.724 582.317 502.471 583.65C501.217 584.957 500.591 586.73 500.591 588.97V589.33C500.591 591.57 501.217 593.357 502.471 594.69C503.724 595.997 505.377 596.65 507.431 596.65ZM523.117 598.93V579.37H526.197V582.69H526.757C527.184 581.757 527.904 580.917 528.917 580.17C529.957 579.397 531.477 579.01 533.477 579.01C534.944 579.01 536.251 579.317 537.397 579.93C538.571 580.544 539.504 581.45 540.197 582.65C540.891 583.85 541.237 585.33 541.237 587.09V598.93H538.077V587.33C538.077 585.384 537.584 583.97 536.597 583.09C535.637 582.21 534.331 581.77 532.677 581.77C530.784 581.77 529.237 582.384 528.037 583.61C526.864 584.837 526.277 586.664 526.277 589.09V598.93H523.117ZM550.942 598.93V582.13H544.942V579.37H550.942V574.37C550.942 573.304 551.235 572.464 551.822 571.85C552.435 571.237 553.302 570.93 554.422 570.93H559.342V573.65H555.302C554.502 573.65 554.102 574.05 554.102 574.85V579.37H560.262V582.13H554.102V598.93H550.942ZM572.78 599.49C570.807 599.49 569.074 599.077 567.58 598.25C566.087 597.397 564.927 596.21 564.1 594.69C563.274 593.17 562.86 591.41 562.86 589.41V588.93C562.86 586.904 563.274 585.13 564.1 583.61C564.927 582.09 566.074 580.917 567.54 580.09C569.007 579.237 570.687 578.81 572.58 578.81C574.42 578.81 576.047 579.21 577.46 580.01C578.874 580.784 579.98 581.904 580.78 583.37C581.58 584.837 581.98 586.557 581.98 588.53V589.97H566.02C566.1 592.077 566.78 593.73 568.06 594.93C569.34 596.104 570.94 596.69 572.86 596.69C574.54 596.69 575.834 596.304 576.74 595.53C577.647 594.757 578.34 593.837 578.82 592.77L581.54 594.09C581.14 594.917 580.58 595.744 579.86 596.57C579.167 597.397 578.247 598.09 577.1 598.65C575.98 599.21 574.54 599.49 572.78 599.49ZM566.06 587.37H578.78C578.674 585.557 578.047 584.144 576.9 583.13C575.78 582.117 574.34 581.61 572.58 581.61C570.794 581.61 569.327 582.117 568.18 583.13C567.034 584.144 566.327 585.557 566.06 587.37ZM587.492 598.93V579.37H590.572V581.77H591.132C591.479 580.917 592.012 580.29 592.732 579.89C593.452 579.49 594.399 579.29 595.572 579.29H597.892V582.17H595.372C593.959 582.17 592.812 582.57 591.932 583.37C591.079 584.144 590.652 585.357 590.652 587.01V598.93H587.492ZM610.827 599.49C608.854 599.49 607.121 599.077 605.627 598.25C604.134 597.397 602.974 596.21 602.147 594.69C601.321 593.17 600.907 591.41 600.907 589.41V588.93C600.907 586.904 601.321 585.13 602.147 583.61C602.974 582.09 604.121 580.917 605.587 580.09C607.054 579.237 608.734 578.81 610.627 578.81C612.467 578.81 614.094 579.21 615.507 580.01C616.921 580.784 618.027 581.904 618.827 583.37C619.627 584.837 620.027 586.557 620.027 588.53V589.97H604.067C604.147 592.077 604.827 593.73 606.107 594.93C607.387 596.104 608.987 596.69 610.907 596.69C612.587 596.69 613.881 596.304 614.787 595.53C615.694 594.757 616.387 593.837 616.867 592.77L619.587 594.09C619.187 594.917 618.627 595.744 617.907 596.57C617.214 597.397 616.294 598.09 615.147 598.65C614.027 599.21 612.587 599.49 610.827 599.49ZM604.107 587.37H616.827C616.721 585.557 616.094 584.144 614.947 583.13C613.827 582.117 612.387 581.61 610.627 581.61C608.841 581.61 607.374 582.117 606.227 583.13C605.081 584.144 604.374 585.557 604.107 587.37ZM625.539 598.93V579.37H628.619V582.69H629.179C629.606 581.757 630.326 580.917 631.339 580.17C632.379 579.397 633.899 579.01 635.899 579.01C637.366 579.01 638.672 579.317 639.819 579.93C640.992 580.544 641.926 581.45 642.619 582.65C643.312 583.85 643.659 585.33 643.659 587.09V598.93H640.499V587.33C640.499 585.384 640.006 583.97 639.019 583.09C638.059 582.21 636.752 581.77 635.099 581.77C633.206 581.77 631.659 582.384 630.459 583.61C629.286 584.837 628.699 586.664 628.699 589.09V598.93H625.539ZM659.07 599.49C657.177 599.49 655.47 599.09 653.95 598.29C652.457 597.464 651.27 596.29 650.39 594.77C649.537 593.25 649.11 591.45 649.11 589.37V588.93C649.11 586.824 649.537 585.024 650.39 583.53C651.27 582.01 652.457 580.85 653.95 580.05C655.47 579.224 657.177 578.81 659.07 578.81C660.937 578.81 662.524 579.157 663.83 579.85C665.164 580.544 666.204 581.464 666.95 582.61C667.724 583.757 668.217 584.984 668.43 586.29L665.35 586.93C665.217 585.97 664.897 585.09 664.39 584.29C663.91 583.49 663.23 582.85 662.35 582.37C661.47 581.89 660.39 581.65 659.11 581.65C657.804 581.65 656.63 581.944 655.59 582.53C654.577 583.117 653.764 583.957 653.15 585.05C652.564 586.144 652.27 587.45 652.27 588.97V589.33C652.27 590.85 652.564 592.157 653.15 593.25C653.764 594.344 654.577 595.184 655.59 595.77C656.63 596.357 657.804 596.65 659.11 596.65C661.057 596.65 662.537 596.144 663.55 595.13C664.59 594.117 665.23 592.864 665.47 591.37L668.59 592.05C668.297 593.33 667.764 594.544 666.99 595.69C666.217 596.837 665.164 597.757 663.83 598.45C662.524 599.144 660.937 599.49 659.07 599.49ZM682.937 599.49C680.963 599.49 679.23 599.077 677.737 598.25C676.243 597.397 675.083 596.21 674.257 594.69C673.43 593.17 673.017 591.41 673.017 589.41V588.93C673.017 586.904 673.43 585.13 674.257 583.61C675.083 582.09 676.23 580.917 677.697 580.09C679.163 579.237 680.843 578.81 682.737 578.81C684.577 578.81 686.203 579.21 687.617 580.01C689.03 580.784 690.137 581.904 690.937 583.37C691.737 584.837 692.137 586.557 692.137 588.53V589.97H676.177C676.257 592.077 676.937 593.73 678.217 594.93C679.497 596.104 681.097 596.69 683.017 596.69C684.697 596.69 685.99 596.304 686.897 595.53C687.803 594.757 688.497 593.837 688.977 592.77L691.697 594.09C691.297 594.917 690.737 595.744 690.017 596.57C689.323 597.397 688.403 598.09 687.257 598.65C686.137 599.21 684.697 599.49 682.937 599.49ZM676.217 587.37H688.937C688.83 585.557 688.203 584.144 687.057 583.13C685.937 582.117 684.497 581.61 682.737 581.61C680.95 581.61 679.483 582.117 678.337 583.13C677.19 584.144 676.483 585.557 676.217 587.37Z" fill="#000072"/>
</g>
<line x1="431.588" y1="457.773" x2="431.588" y2="623.348" stroke="#000072" stroke-width="4"/>
<path d="M312.796 467L357.935 481.667L385.833 520.065V567.527L357.935 605.925L312.796 620.592L267.656 605.925L239.759 567.527V520.065L267.656 481.667L312.796 467Z" fill="url(#paint2_linear_366_193)"/>
<path d="M269.336 484.203L312.714 470.128L356.009 484.285L312.714 498.36L269.336 484.203Z" fill="#000072"/>
<path d="M269.336 484.203L312.714 470.128L356.009 484.285L312.714 498.36L269.336 484.203Z" fill="url(#paint3_linear_366_193)" fill-opacity="0.7"/>
<path d="M262.01 547.747L312.714 498.36L242.585 521.078L262.01 547.747Z" fill="#000072"/>
<path d="M262.01 547.747L312.714 498.36L242.585 521.078L262.01 547.747Z" fill="url(#paint4_linear_366_193)"/>
<path d="M262.01 547.747L312.714 498.36L242.585 521.078L262.01 547.747Z" fill="url(#paint5_linear_366_193)" fill-opacity="0.7"/>
<path d="M312.714 498.36L269.336 484.203L242.585 521.078L312.714 498.36Z" fill="#000072"/>
<path d="M312.714 498.36L269.336 484.203L242.585 521.078L312.714 498.36Z" fill="url(#paint6_linear_366_193)" fill-opacity="0.7"/>
<path d="M312.796 589.479L382.843 566.678L355.927 603.554L312.796 589.479Z" fill="#000072"/>
<path d="M312.796 589.479L382.843 566.678L355.927 603.554L312.796 589.479Z" fill="url(#paint7_linear_366_193)" fill-opacity="0.7"/>
<path d="M361.195 536.882L312.796 589.479L382.843 566.678L361.195 536.882Z" fill="#000072"/>
<path d="M361.195 536.882L312.796 589.479L382.843 566.678L361.195 536.882Z" fill="url(#paint8_linear_366_193)" fill-opacity="0.7"/>
<path d="M361.195 536.882L312.796 589.479L382.843 566.678L361.195 536.882Z" fill="url(#paint9_linear_366_193)" fill-opacity="0.8"/>
<path d="M242.585 566.678L262.01 547.747L312.796 589.479L269.336 603.554L242.585 566.678Z" fill="#000072"/>
<path d="M242.585 566.678L262.01 547.747L312.796 589.479L269.336 603.554L242.585 566.678Z" fill="url(#paint10_linear_366_193)" fill-opacity="0.9"/>
<path d="M361.195 536.882L382.76 521.161L356.009 484.285L312.714 498.36L361.195 536.882Z" fill="#000072"/>
<path d="M361.195 536.882L382.76 521.161L356.009 484.285L312.714 498.36L361.195 536.882Z" fill="url(#paint11_linear_366_193)" fill-opacity="0.7"/>
<path d="M382.76 521.161L361.195 536.882L382.843 566.678L382.76 521.161Z" fill="#000072"/>
<path d="M382.76 521.161L361.195 536.882L382.843 566.678L382.76 521.161Z" fill="url(#paint12_linear_366_193)" fill-opacity="0.7"/>
<path d="M262.01 547.747L242.585 566.678V521.078L262.01 547.747Z" fill="#000072"/>
<path d="M262.01 547.747L242.585 566.678V521.078L262.01 547.747Z" fill="url(#paint13_linear_366_193)" fill-opacity="0.9"/>
<path d="M312.796 589.478L361.195 536.882L312.714 498.36L262.01 547.747L312.796 589.478Z" fill="#000072"/>
<path d="M312.796 589.478L361.195 536.882L312.714 498.36L262.01 547.747L312.796 589.478Z" fill="url(#paint14_linear_366_193)" fill-opacity="0.7"/>
<path d="M312.796 589.478L361.195 536.882L312.714 498.36L262.01 547.747L312.796 589.478Z" fill="url(#paint15_linear_366_193)" fill-opacity="0.7"/>
<path d="M312.796 589.479L269.336 603.554L312.714 617.629L355.927 603.554L312.796 589.479Z" fill="#000072"/>
<path d="M312.796 589.479L269.336 603.554L312.714 617.629L355.927 603.554L312.796 589.479Z" fill="url(#paint16_linear_366_193)" fill-opacity="0.9"/>
<path d="M269.418 603.554L312.796 589.478M269.418 603.554L242.585 566.678M269.418 603.554L312.714 617.629L355.844 603.471M382.842 566.678L361.195 536.882M382.842 566.678L382.678 521.161M382.842 566.678L355.844 603.471M382.842 566.678L312.796 589.478M361.195 536.882L382.678 521.161M361.195 536.882L312.714 498.36M361.195 536.882L312.796 589.478M382.678 521.161L356.009 484.285M355.844 603.471L312.796 589.478M312.796 589.478L262.257 547.994L242.667 521.078M242.667 521.078L312.714 498.36M242.667 521.078L242.585 566.678M242.667 521.078L269.583 484.285M312.714 498.36L242.585 566.678M312.714 498.36L269.583 484.285M312.714 498.36L356.009 484.285M269.583 484.285L312.714 470.128L356.009 484.285" stroke="url(#paint17_linear_366_193)" stroke-width="6.60291"/>
<defs>
<filter id="filter0_i_366_193" x="471.327" y="482.37" width="411.182" height="118.747" filterUnits="userSpaceOnUse" color-interpolation-filters="sRGB">
<feFlood flood-opacity="0" result="BackgroundImageFix"/>
<feBlend mode="normal" in="SourceGraphic" in2="BackgroundImageFix" result="shape"/>
<feColorMatrix in="SourceAlpha" type="matrix" values="0 0 0 0 0 0 0 0 0 0 0 0 0 0 0 0 0 0 127 0" result="hardAlpha"/>
<feOffset dy="1.62648"/>
<feGaussianBlur stdDeviation="0.813241"/>
<feComposite in2="hardAlpha" operator="arithmetic" k2="-1" k3="1"/>
<feColorMatrix type="matrix" values="0 0 0 0 0 0 0 0 0 0 0 0 0 0 0 0 0 0 0.05 0"/>
<feBlend mode="normal" in2="shape" result="effect1_innerShadow_366_193"/>
</filter>
<linearGradient id="paint0_linear_366_193" x1="271.111" y1="444.868" x2="1734.35" y2="-1063.44" gradientUnits="userSpaceOnUse">
<stop offset="0.391433" stop-color="#000072"/>
<stop offset="1" stop-color="#A40B0D"/>
</linearGradient>
<linearGradient id="paint1_linear_366_193" x1="960" y1="182.739" x2="960" y2="1239.53" gradientUnits="userSpaceOnUse">
<stop offset="0.351728" stop-color="#000072"/>
<stop offset="0.826398" stop-color="#F5F0E9"/>
</linearGradient>
<linearGradient id="paint2_linear_366_193" x1="417.271" y1="542.092" x2="208.501" y2="542.092" gradientUnits="userSpaceOnUse">
<stop stop-color="#555454"/>
<stop offset="0.3" stop-color="#9A9A9A"/>
<stop offset="0.5" stop-color="#E0E0E0"/>
<stop offset="0.697174" stop-color="#9A9A9A"/>
<stop offset="1" stop-color="#555454"/>
</linearGradient>
<linearGradient id="paint3_linear_366_193" x1="242.832" y1="470.128" x2="373.294" y2="470.128" gradientUnits="userSpaceOnUse">
<stop stop-color="#000072" stop-opacity="0"/>
<stop offset="1" stop-color="#F5F0E9"/>
</linearGradient>
<linearGradient id="paint4_linear_366_193" x1="270.817" y1="527.416" x2="256.248" y2="572.852" gradientUnits="userSpaceOnUse">
<stop stop-color="#951C1E" stop-opacity="0"/>
<stop offset="1" stop-color="#951C1E"/>
</linearGradient>
<linearGradient id="paint5_linear_366_193" x1="283.823" y1="519.35" x2="386.299" y2="448.809" gradientUnits="userSpaceOnUse">
<stop stop-color="#F5F0E9" stop-opacity="0"/>
<stop offset="1" stop-color="#F5F0E9"/>
</linearGradient>
<linearGradient id="paint6_linear_366_193" x1="407.453" y1="510.46" x2="269.254" y2="479.264" gradientUnits="userSpaceOnUse">
<stop offset="0.424631" stop-color="#F5F0E9"/>
<stop offset="1" stop-color="#000072" stop-opacity="0"/>
</linearGradient>
<linearGradient id="paint7_linear_366_193" x1="368.932" y1="591.454" x2="296.581" y2="593.183" gradientUnits="userSpaceOnUse">
<stop stop-color="#000072" stop-opacity="0"/>
<stop offset="1" stop-color="#951C1E"/>
</linearGradient>
<linearGradient id="paint8_linear_366_193" x1="374.941" y1="520.42" x2="361.359" y2="568.16" gradientUnits="userSpaceOnUse">
<stop offset="0.0535586" stop-color="#F5F0E9"/>
<stop offset="1" stop-color="#000072" stop-opacity="0"/>
</linearGradient>
<linearGradient id="paint9_linear_366_193" x1="295.264" y1="602.731" x2="359.795" y2="566.349" gradientUnits="userSpaceOnUse">
<stop stop-color="#951C1E"/>
<stop offset="1" stop-color="#000072" stop-opacity="0"/>
</linearGradient>
<linearGradient id="paint10_linear_366_193" x1="338.971" y1="527.334" x2="258.882" y2="599.274" gradientUnits="userSpaceOnUse">
<stop stop-color="#000072" stop-opacity="0"/>
<stop offset="1" stop-color="#A40B0D"/>
</linearGradient>
<linearGradient id="paint11_linear_366_193" x1="295.181" y1="555.649" x2="367.286" y2="484.285" gradientUnits="userSpaceOnUse">
<stop stop-color="#000072" stop-opacity="0"/>
<stop offset="1" stop-color="#F5F0E9"/>
</linearGradient>
<linearGradient id="paint12_linear_366_193" x1="377.081" y1="508.979" x2="374.941" y2="582.235" gradientUnits="userSpaceOnUse">
<stop stop-color="#F5F0E9"/>
<stop offset="1" stop-color="#000072" stop-opacity="0"/>
</linearGradient>
<linearGradient id="paint13_linear_366_193" x1="257.236" y1="491.693" x2="242.585" y2="578.449" gradientUnits="userSpaceOnUse">
<stop stop-color="#000072" stop-opacity="0"/>
<stop offset="1" stop-color="#A40B0D"/>
</linearGradient>
<linearGradient id="paint14_linear_366_193" x1="325.554" y1="543.878" x2="274.851" y2="594.088" gradientUnits="userSpaceOnUse">
<stop stop-color="#000072" stop-opacity="0"/>
<stop offset="0.835723" stop-color="#A40B0D"/>
</linearGradient>
<linearGradient id="paint15_linear_366_193" x1="380.949" y1="482.145" x2="308.763" y2="551.286" gradientUnits="userSpaceOnUse">
<stop offset="0.240449" stop-color="#F5F0E9"/>
<stop offset="1" stop-color="#000072" stop-opacity="0"/>
</linearGradient>
<linearGradient id="paint16_linear_366_193" x1="251.474" y1="608.822" x2="405.313" y2="611.373" gradientUnits="userSpaceOnUse">
<stop stop-color="#A40B0D"/>
<stop offset="1" stop-color="#000072" stop-opacity="0"/>
</linearGradient>
<linearGradient id="paint17_linear_366_193" x1="408.119" y1="542.242" x2="217.473" y2="542.242" gradientUnits="userSpaceOnUse">
<stop stop-color="#555454"/>
<stop offset="0.3" stop-color="#9A9A9A"/>
<stop offset="0.5" stop-color="#E0E0E0"/>
<stop offset="0.697174" stop-color="#9A9A9A"/>
<stop offset="1" stop-color="#555454"/>
</linearGradient>
</defs>
</svg>
