<svg width="1980" height="1137" viewBox="0 0 1980 1137" fill="none" xmlns="http://www.w3.org/2000/svg">
<rect width="1980" height="1137" fill="url(#paint0_linear_366_193)"/>
<rect width="1980" height="1137" fill="url(#paint1_linear_366_193)" fill-opacity="0.2"/>
<rect x="168" y="348" width="991" height="442.972" rx="72" fill="#F5F0E9"/>
<g filter="url(#filter0_i_366_193)">
<path d="M567.209 532.289C563.209 532.289 560.025 531.137 557.657 528.833C555.289 526.497 554.105 523.105 554.105 518.657V510.977C554.105 506.529 555.289 503.153 557.657 500.849C560.025 498.513 563.209 497.345 567.209 497.345C571.177 497.345 574.217 498.449 576.329 500.657C578.473 502.865 579.545 505.889 579.545 509.729V509.969H575.561V509.585C575.561 507.057 574.873 504.993 573.497 503.393C572.153 501.761 570.057 500.945 567.209 500.945C564.361 500.945 562.137 501.825 560.537 503.585C558.937 505.313 558.137 507.745 558.137 510.881V518.753C558.137 521.889 558.937 524.337 560.537 526.097C562.137 527.825 564.361 528.689 567.209 528.689C570.057 528.689 572.153 527.889 573.497 526.289C574.873 524.657 575.561 522.577 575.561 520.049V519.281H579.545V519.905C579.545 523.745 578.473 526.769 576.329 528.977C574.217 531.185 571.177 532.289 567.209 532.289ZM593.206 532.289C591.574 532.289 590.086 532.001 588.742 531.425C587.398 530.849 586.342 530.017 585.574 528.929C584.806 527.841 584.422 526.513 584.422 524.945C584.422 523.345 584.806 522.033 585.574 521.009C586.342 519.953 587.398 519.169 588.742 518.657C590.086 518.113 591.59 517.841 593.254 517.841H601.174V516.113C601.174 514.449 600.678 513.137 599.686 512.177C598.726 511.217 597.286 510.737 595.366 510.737C593.478 510.737 592.006 511.201 590.95 512.129C589.894 513.025 589.174 514.241 588.79 515.777L585.238 514.625C585.622 513.313 586.23 512.129 587.062 511.073C587.894 509.985 588.998 509.121 590.374 508.481C591.782 507.809 593.462 507.473 595.414 507.473C598.422 507.473 600.758 508.257 602.422 509.825C604.086 511.361 604.918 513.537 604.918 516.353V526.961C604.918 527.921 605.366 528.401 606.262 528.401H608.422V531.617H605.11C604.054 531.617 603.206 531.329 602.566 530.753C601.926 530.145 601.606 529.345 601.606 528.353V528.113H601.03C600.678 528.721 600.198 529.361 599.59 530.033C599.014 530.673 598.214 531.201 597.19 531.617C596.166 532.065 594.838 532.289 593.206 532.289ZM593.638 529.025C595.878 529.025 597.686 528.369 599.062 527.057C600.47 525.713 601.174 523.841 601.174 521.441V520.913H593.398C591.894 520.913 590.646 521.249 589.654 521.921C588.694 522.561 588.214 523.537 588.214 524.849C588.214 526.161 588.71 527.185 589.702 527.921C590.726 528.657 592.038 529.025 593.638 529.025ZM613.616 531.617V508.145H617.312V512.129H617.984C618.496 511.009 619.36 510.001 620.576 509.105C621.824 508.177 623.648 507.713 626.048 507.713C627.808 507.713 629.376 508.081 630.752 508.817C632.16 509.553 633.28 510.641 634.112 512.081C634.944 513.521 635.36 515.297 635.36 517.409V531.617H631.568V517.697C631.568 515.361 630.976 513.665 629.792 512.609C628.64 511.553 627.072 511.025 625.088 511.025C622.816 511.025 620.96 511.761 619.52 513.233C618.112 514.705 617.408 516.897 617.408 519.809V531.617H613.616ZM650.253 532.289C648.621 532.289 647.133 532.001 645.789 531.425C644.445 530.849 643.389 530.017 642.621 528.929C641.853 527.841 641.469 526.513 641.469 524.945C641.469 523.345 641.853 522.033 642.621 521.009C643.389 519.953 644.445 519.169 645.789 518.657C647.133 518.113 648.637 517.841 650.301 517.841H658.221V516.113C658.221 514.449 657.725 513.137 656.733 512.177C655.773 511.217 654.333 510.737 652.413 510.737C650.525 510.737 649.053 511.201 647.997 512.129C646.941 513.025 646.221 514.241 645.837 515.777L642.285 514.625C642.669 513.313 643.277 512.129 644.109 511.073C644.941 509.985 646.045 509.121 647.421 508.481C648.829 507.809 650.509 507.473 652.461 507.473C655.469 507.473 657.805 508.257 659.469 509.825C661.133 511.361 661.965 513.537 661.965 516.353V526.961C661.965 527.921 662.413 528.401 663.309 528.401H665.469V531.617H662.157C661.101 531.617 660.253 531.329 659.613 530.753C658.973 530.145 658.653 529.345 658.653 528.353V528.113H658.077C657.725 528.721 657.245 529.361 656.637 530.033C656.061 530.673 655.261 531.201 654.237 531.617C653.213 532.065 651.885 532.289 650.253 532.289ZM650.685 529.025C652.925 529.025 654.733 528.369 656.109 527.057C657.517 525.713 658.221 523.841 658.221 521.441V520.913H650.445C648.941 520.913 647.693 521.249 646.701 521.921C645.741 522.561 645.261 523.537 645.261 524.849C645.261 526.161 645.757 527.185 646.749 527.921C647.773 528.657 649.085 529.025 650.685 529.025ZM679.942 532.289C677.926 532.289 676.07 531.809 674.374 530.849C672.678 529.889 671.334 528.497 670.342 526.673C669.35 524.849 668.854 522.689 668.854 520.193V519.569C668.854 517.073 669.35 514.929 670.342 513.137C671.334 511.313 672.662 509.921 674.326 508.961C676.022 507.969 677.894 507.473 679.942 507.473C681.574 507.473 682.95 507.697 684.07 508.145C685.222 508.561 686.15 509.105 686.854 509.777C687.558 510.417 688.102 511.105 688.486 511.841H689.158V498.017H692.95V531.617H689.254V527.729H688.582C687.942 528.913 686.95 529.969 685.606 530.897C684.262 531.825 682.374 532.289 679.942 532.289ZM680.95 528.929C683.382 528.929 685.35 528.161 686.854 526.625C688.39 525.057 689.158 522.881 689.158 520.097V519.665C689.158 516.881 688.39 514.721 686.854 513.185C685.35 511.617 683.382 510.833 680.95 510.833C678.55 510.833 676.566 511.617 674.998 513.185C673.462 514.721 672.694 516.881 672.694 519.665V520.097C672.694 522.881 673.462 525.057 674.998 526.625C676.566 528.161 678.55 528.929 680.95 528.929ZM700.897 531.617V508.145H704.689V531.617H700.897ZM702.817 504.497C701.985 504.497 701.281 504.225 700.705 503.681C700.161 503.137 699.889 502.449 699.889 501.617C699.889 500.753 700.161 500.049 700.705 499.505C701.281 498.961 701.985 498.689 702.817 498.689C703.649 498.689 704.337 498.961 704.881 499.505C705.425 500.049 705.697 500.753 705.697 501.617C705.697 502.449 705.425 503.137 704.881 503.681C704.337 504.225 703.649 504.497 702.817 504.497ZM719.862 532.289C718.23 532.289 716.742 532.001 715.398 531.425C714.054 530.849 712.998 530.017 712.23 528.929C711.462 527.841 711.078 526.513 711.078 524.945C711.078 523.345 711.462 522.033 712.23 521.009C712.998 519.953 714.054 519.169 715.398 518.657C716.742 518.113 718.246 517.841 719.91 517.841H727.83V516.113C727.83 514.449 727.334 513.137 726.342 512.177C725.382 511.217 723.942 510.737 722.022 510.737C720.134 510.737 718.662 511.201 717.606 512.129C716.55 513.025 715.83 514.241 715.446 515.777L711.894 514.625C712.278 513.313 712.886 512.129 713.718 511.073C714.55 509.985 715.654 509.121 717.03 508.481C718.438 507.809 720.118 507.473 722.07 507.473C725.078 507.473 727.414 508.257 729.078 509.825C730.742 511.361 731.574 513.537 731.574 516.353V526.961C731.574 527.921 732.022 528.401 732.918 528.401H735.078V531.617H731.766C730.71 531.617 729.862 531.329 729.222 530.753C728.582 530.145 728.262 529.345 728.262 528.353V528.113H727.686C727.334 528.721 726.854 529.361 726.246 530.033C725.67 530.673 724.87 531.201 723.846 531.617C722.822 532.065 721.494 532.289 719.862 532.289ZM720.294 529.025C722.534 529.025 724.342 528.369 725.718 527.057C727.126 525.713 727.83 523.841 727.83 521.441V520.913H720.054C718.55 520.913 717.302 521.249 716.31 521.921C715.35 522.561 714.87 523.537 714.87 524.849C714.87 526.161 715.366 527.185 716.358 527.921C717.382 528.657 718.694 529.025 720.294 529.025ZM740.272 531.617V508.145H743.968V512.129H744.64C745.152 511.009 746.016 510.001 747.232 509.105C748.48 508.177 750.304 507.713 752.704 507.713C754.464 507.713 756.032 508.081 757.408 508.817C758.816 509.553 759.936 510.641 760.768 512.081C761.6 513.521 762.016 515.297 762.016 517.409V531.617H758.224V517.697C758.224 515.361 757.632 513.665 756.448 512.609C755.296 511.553 753.728 511.025 751.744 511.025C749.472 511.025 747.616 511.761 746.176 513.233C744.768 514.705 744.064 516.897 744.064 519.809V531.617H740.272ZM794.037 532.289C791.541 532.289 789.365 531.841 787.509 530.945C785.653 530.049 784.213 528.721 783.189 526.961C782.165 525.169 781.653 522.977 781.653 520.385V498.017H785.637V520.433C785.637 523.185 786.373 525.249 787.845 526.625C789.317 528.001 791.381 528.689 794.037 528.689C796.693 528.689 798.757 528.001 800.229 526.625C801.701 525.249 802.437 523.185 802.437 520.433V498.017H806.469V520.385C806.469 522.977 805.957 525.169 804.933 526.961C803.909 528.721 802.453 530.049 800.565 530.945C798.709 531.841 796.533 532.289 794.037 532.289ZM814.006 531.617V508.145H817.702V512.129H818.374C818.886 511.009 819.75 510.001 820.966 509.105C822.214 508.177 824.038 507.713 826.438 507.713C828.198 507.713 829.766 508.081 831.142 508.817C832.55 509.553 833.67 510.641 834.502 512.081C835.334 513.521 835.75 515.297 835.75 517.409V531.617H831.958V517.697C831.958 515.361 831.366 513.665 830.182 512.609C829.03 511.553 827.462 511.025 825.478 511.025C823.206 511.025 821.35 511.761 819.91 513.233C818.502 514.705 817.798 516.897 817.798 519.809V531.617H814.006ZM843.444 531.617V508.145H847.236V531.617H843.444ZM845.364 504.497C844.532 504.497 843.828 504.225 843.252 503.681C842.708 503.137 842.436 502.449 842.436 501.617C842.436 500.753 842.708 500.049 843.252 499.505C843.828 498.961 844.532 498.689 845.364 498.689C846.196 498.689 846.884 498.961 847.428 499.505C847.972 500.049 848.244 500.753 848.244 501.617C848.244 502.449 847.972 503.137 847.428 503.681C846.884 504.225 846.196 504.497 845.364 504.497ZM861.161 531.617L852.761 508.145H856.793L863.849 528.785H864.521L871.577 508.145H875.609L867.209 531.617H861.161ZM890.852 532.289C888.484 532.289 886.404 531.793 884.612 530.801C882.82 529.777 881.428 528.353 880.436 526.529C879.444 524.705 878.948 522.593 878.948 520.193V519.617C878.948 517.185 879.444 515.057 880.436 513.233C881.428 511.409 882.804 510.001 884.564 509.009C886.324 507.985 888.34 507.473 890.612 507.473C892.82 507.473 894.772 507.953 896.468 508.913C898.164 509.841 899.492 511.185 900.452 512.945C901.412 514.705 901.892 516.769 901.892 519.137V520.865H882.74C882.836 523.393 883.652 525.377 885.188 526.817C886.724 528.225 888.644 528.929 890.948 528.929C892.964 528.929 894.516 528.465 895.604 527.537C896.692 526.609 897.524 525.505 898.1 524.225L901.364 525.809C900.884 526.801 900.212 527.793 899.348 528.785C898.516 529.777 897.412 530.609 896.036 531.281C894.692 531.953 892.964 532.289 890.852 532.289ZM882.788 517.745H898.052C897.924 515.569 897.172 513.873 895.796 512.657C894.452 511.441 892.724 510.833 890.612 510.833C888.468 510.833 886.708 511.441 885.332 512.657C883.956 513.873 883.108 515.569 882.788 517.745ZM908.506 531.617V508.145H912.202V511.025H912.874C913.29 510.001 913.93 509.249 914.794 508.769C915.658 508.289 916.794 508.049 918.202 508.049H920.986V511.505H917.962C916.266 511.505 914.89 511.985 913.834 512.945C912.81 513.873 912.298 515.329 912.298 517.313V531.617H908.506ZM935.587 532.289C932.675 532.289 930.211 531.617 928.195 530.273C926.211 528.929 925.011 526.801 924.595 523.889L928.195 523.073C928.451 524.609 928.931 525.825 929.635 526.721C930.339 527.585 931.203 528.209 932.227 528.593C933.283 528.945 934.403 529.121 935.587 529.121C937.347 529.121 938.739 528.769 939.763 528.065C940.787 527.361 941.299 526.417 941.299 525.233C941.299 524.017 940.803 523.169 939.811 522.689C938.851 522.177 937.523 521.761 935.827 521.441L933.859 521.105C932.355 520.849 930.979 520.449 929.731 519.905C928.483 519.361 927.491 518.625 926.755 517.697C926.019 516.769 925.651 515.601 925.651 514.193C925.651 512.081 926.467 510.433 928.099 509.249C929.731 508.065 931.891 507.473 934.579 507.473C937.235 507.473 939.379 508.081 941.011 509.297C942.675 510.481 943.747 512.161 944.227 514.337L940.675 515.249C940.387 513.553 939.699 512.369 938.611 511.697C937.523 510.993 936.179 510.641 934.579 510.641C932.979 510.641 931.715 510.945 930.787 511.553C929.859 512.129 929.395 512.993 929.395 514.145C929.395 515.265 929.827 516.097 930.691 516.641C931.587 517.153 932.771 517.537 934.243 517.793L936.211 518.129C937.875 518.417 939.363 518.817 940.675 519.329C942.019 519.809 943.075 520.513 943.843 521.441C944.643 522.369 945.043 523.585 945.043 525.089C945.043 527.393 944.179 529.169 942.451 530.417C940.755 531.665 938.467 532.289 935.587 532.289ZM951.444 531.617V508.145H955.236V531.617H951.444ZM953.364 504.497C952.532 504.497 951.828 504.225 951.252 503.681C950.708 503.137 950.436 502.449 950.436 501.617C950.436 500.753 950.708 500.049 951.252 499.505C951.828 498.961 952.532 498.689 953.364 498.689C954.196 498.689 954.884 498.961 955.428 499.505C955.972 500.049 956.244 500.753 956.244 501.617C956.244 502.449 955.972 503.137 955.428 503.681C954.884 504.225 954.196 504.497 953.364 504.497ZM971.849 531.617C970.505 531.617 969.465 531.249 968.729 530.513C968.025 529.777 967.673 528.769 967.673 527.489V511.457H960.617V508.145H967.673V499.793H971.465V508.145H979.145V511.457H971.465V526.913C971.465 527.873 971.929 528.353 972.857 528.353H978.089V531.617H971.849ZM988.119 541.217V537.857H1001.56C1002.49 537.857 1002.95 537.377 1002.95 536.417V527.873H1002.28C1001.96 528.545 1001.46 529.217 1000.79 529.889C1000.15 530.529 999.303 531.057 998.247 531.473C997.191 531.857 995.863 532.049 994.263 532.049C992.567 532.049 990.999 531.681 989.559 530.945C988.151 530.209 987.031 529.121 986.199 527.681C985.399 526.241 984.999 524.481 984.999 522.401V508.145H988.791V522.113C988.791 524.417 989.367 526.097 990.519 527.153C991.703 528.209 993.287 528.737 995.271 528.737C997.511 528.737 999.351 528.001 1000.79 526.529C1002.23 525.057 1002.95 522.865 1002.95 519.953V508.145H1006.74V537.089C1006.74 538.369 1006.38 539.377 1005.64 540.113C1004.94 540.849 1003.9 541.217 1002.52 541.217H988.119ZM566.249 585.289C563.817 585.289 561.641 584.857 559.721 583.993C557.801 583.129 556.281 581.833 555.161 580.105C554.073 578.345 553.529 576.153 553.529 573.529V572.521H557.513V573.529C557.513 576.313 558.329 578.393 559.961 579.769C561.593 581.113 563.689 581.785 566.249 581.785C568.873 581.785 570.873 581.193 572.249 580.009C573.625 578.825 574.313 577.337 574.313 575.545C574.313 574.297 573.993 573.305 573.353 572.569C572.745 571.833 571.881 571.241 570.761 570.793C569.641 570.313 568.329 569.897 566.825 569.545L564.329 568.921C562.377 568.409 560.649 567.785 559.145 567.049C557.641 566.313 556.457 565.353 555.593 564.169C554.761 562.953 554.345 561.401 554.345 559.513C554.345 557.625 554.809 555.993 555.737 554.617C556.697 553.241 558.025 552.185 559.721 551.449C561.449 550.713 563.433 550.345 565.673 550.345C567.945 550.345 569.977 550.745 571.769 551.545C573.593 552.313 575.017 553.465 576.041 555.001C577.097 556.505 577.625 558.409 577.625 560.713V562.729H573.641V560.713C573.641 559.081 573.289 557.769 572.585 556.777C571.913 555.785 570.969 555.049 569.753 554.569C568.569 554.089 567.209 553.849 565.673 553.849C563.465 553.849 561.689 554.345 560.345 555.337C559.001 556.297 558.329 557.673 558.329 559.465C558.329 560.649 558.617 561.609 559.193 562.345C559.769 563.081 560.585 563.689 561.641 564.169C562.697 564.617 563.961 565.017 565.433 565.369L567.929 565.993C569.881 566.409 571.625 566.985 573.161 567.721C574.729 568.425 575.977 569.401 576.905 570.649C577.833 571.865 578.297 573.465 578.297 575.449C578.297 577.433 577.801 579.161 576.809 580.633C575.817 582.105 574.409 583.257 572.585 584.089C570.793 584.889 568.681 585.289 566.249 585.289ZM595.495 585.289C593.127 585.289 591.031 584.793 589.207 583.801C587.415 582.809 586.007 581.417 584.983 579.625C583.991 577.801 583.495 575.657 583.495 573.193V572.569C583.495 570.137 583.991 568.009 584.983 566.185C586.007 564.361 587.415 562.953 589.207 561.961C591.031 560.969 593.127 560.473 595.495 560.473C597.863 560.473 599.943 560.969 601.735 561.961C603.559 562.953 604.967 564.361 605.959 566.185C606.983 568.009 607.495 570.137 607.495 572.569V573.193C607.495 575.657 606.983 577.801 605.959 579.625C604.967 581.417 603.559 582.809 601.735 583.801C599.943 584.793 597.863 585.289 595.495 585.289ZM595.495 581.881C597.991 581.881 599.975 581.097 601.447 579.529C602.951 577.929 603.703 575.785 603.703 573.097V572.665C603.703 569.977 602.951 567.849 601.447 566.281C599.975 564.681 597.991 563.881 595.495 563.881C593.031 563.881 591.047 564.681 589.543 566.281C588.039 567.849 587.287 569.977 587.287 572.665V573.097C587.287 575.785 588.039 577.929 589.543 579.529C591.047 581.097 593.031 581.881 595.495 581.881ZM617.942 584.617V564.457H610.742V561.145H617.942V555.145C617.942 553.865 618.294 552.857 618.998 552.121C619.734 551.385 620.774 551.017 622.118 551.017H628.022V554.281H623.174C622.214 554.281 621.734 554.761 621.734 555.721V561.145H629.126V564.457H621.734V584.617H617.942ZM642.412 584.617C641.068 584.617 640.028 584.249 639.292 583.513C638.588 582.777 638.236 581.769 638.236 580.489V564.457H631.18V561.145H638.236V552.793H642.028V561.145H649.708V564.457H642.028V579.913C642.028 580.873 642.492 581.353 643.42 581.353H648.652V584.617H642.412ZM659.114 584.617L654.41 561.145H658.25L662.138 582.073H662.81L667.946 561.145H674.234L679.37 582.073H680.042L683.93 561.145H687.77L683.066 584.617H676.586L671.402 563.689H670.778L665.594 584.617H659.114ZM701.112 585.289C699.48 585.289 697.992 585.001 696.648 584.425C695.304 583.849 694.248 583.017 693.48 581.929C692.712 580.841 692.328 579.513 692.328 577.945C692.328 576.345 692.712 575.033 693.48 574.009C694.248 572.953 695.304 572.169 696.648 571.657C697.992 571.113 699.496 570.841 701.16 570.841H709.08V569.113C709.08 567.449 708.584 566.137 707.592 565.177C706.632 564.217 705.192 563.737 703.272 563.737C701.384 563.737 699.912 564.201 698.856 565.129C697.8 566.025 697.08 567.241 696.696 568.777L693.144 567.625C693.528 566.313 694.136 565.129 694.968 564.073C695.8 562.985 696.904 562.121 698.28 561.481C699.688 560.809 701.368 560.473 703.32 560.473C706.328 560.473 708.664 561.257 710.328 562.825C711.992 564.361 712.824 566.537 712.824 569.353V579.961C712.824 580.921 713.272 581.401 714.168 581.401H716.328V584.617H713.016C711.96 584.617 711.112 584.329 710.472 583.753C709.832 583.145 709.512 582.345 709.512 581.353V581.113H708.936C708.584 581.721 708.104 582.361 707.496 583.033C706.92 583.673 706.12 584.201 705.096 584.617C704.072 585.065 702.744 585.289 701.112 585.289ZM701.544 582.025C703.784 582.025 705.592 581.369 706.968 580.057C708.376 578.713 709.08 576.841 709.08 574.441V573.913H701.304C699.8 573.913 698.552 574.249 697.56 574.921C696.6 575.561 696.12 576.537 696.12 577.849C696.12 579.161 696.616 580.185 697.608 580.921C698.632 581.657 699.944 582.025 701.544 582.025ZM721.522 584.617V561.145H725.218V564.025H725.89C726.306 563.001 726.946 562.249 727.81 561.769C728.674 561.289 729.81 561.049 731.218 561.049H734.002V564.505H730.978C729.282 564.505 727.906 564.985 726.85 565.945C725.826 566.873 725.314 568.329 725.314 570.313V584.617H721.522ZM749.524 585.289C747.156 585.289 745.076 584.793 743.284 583.801C741.492 582.777 740.1 581.353 739.108 579.529C738.116 577.705 737.62 575.593 737.62 573.193V572.617C737.62 570.185 738.116 568.057 739.108 566.233C740.1 564.409 741.476 563.001 743.236 562.009C744.996 560.985 747.012 560.473 749.284 560.473C751.492 560.473 753.444 560.953 755.14 561.913C756.836 562.841 758.164 564.185 759.124 565.945C760.084 567.705 760.564 569.769 760.564 572.137V573.865H741.412C741.508 576.393 742.324 578.377 743.86 579.817C745.396 581.225 747.316 581.929 749.62 581.929C751.636 581.929 753.188 581.465 754.276 580.537C755.364 579.609 756.196 578.505 756.772 577.225L760.036 578.809C759.556 579.801 758.884 580.793 758.02 581.785C757.188 582.777 756.084 583.609 754.708 584.281C753.364 584.953 751.636 585.289 749.524 585.289ZM741.46 570.745H756.724C756.596 568.569 755.844 566.873 754.468 565.657C753.124 564.441 751.396 563.833 749.284 563.833C747.14 563.833 745.38 564.441 744.004 565.657C742.628 566.873 741.78 568.569 741.46 570.745ZM779.362 584.617V551.017H800.05V554.665H783.394V565.897H798.706V569.545H783.394V580.969H800.29V584.617H779.362ZM806.553 584.617V561.145H810.249V565.129H810.921C811.433 564.009 812.297 563.001 813.513 562.105C814.761 561.177 816.585 560.713 818.985 560.713C820.745 560.713 822.313 561.081 823.689 561.817C825.097 562.553 826.217 563.641 827.049 565.081C827.881 566.521 828.297 568.297 828.297 570.409V584.617H824.505V570.697C824.505 568.361 823.913 566.665 822.729 565.609C821.577 564.553 820.009 564.025 818.025 564.025C815.753 564.025 813.897 564.761 812.457 566.233C811.049 567.705 810.345 569.897 810.345 572.809V584.617H806.553ZM834.839 573.001V572.329C834.839 569.865 835.335 567.753 836.327 565.993C837.319 564.233 838.663 562.873 840.359 561.913C842.055 560.953 843.911 560.473 845.927 560.473C848.391 560.473 850.279 560.953 851.591 561.913C852.935 562.841 853.927 563.881 854.567 565.033H855.239V561.145H858.839V590.089C858.839 591.369 858.487 592.377 857.783 593.113C857.079 593.849 856.055 594.217 854.711 594.217H838.775V590.857H853.703C854.663 590.857 855.143 590.377 855.143 589.417V580.489H854.471C854.087 581.193 853.543 581.881 852.839 582.553C852.135 583.225 851.223 583.785 850.103 584.233C848.983 584.649 847.591 584.857 845.927 584.857C843.911 584.857 842.055 584.377 840.359 583.417C838.663 582.457 837.319 581.097 836.327 579.337C835.335 577.545 834.839 575.433 834.839 573.001ZM846.935 581.497C849.367 581.497 851.335 580.729 852.839 579.193C854.375 577.657 855.143 575.545 855.143 572.857V572.473C855.143 569.753 854.375 567.641 852.839 566.137C851.335 564.601 849.367 563.833 846.935 563.833C844.535 563.833 842.551 564.601 840.983 566.137C839.447 567.641 838.679 569.753 838.679 572.473V572.857C838.679 575.545 839.447 577.657 840.983 579.193C842.551 580.729 844.535 581.497 846.935 581.497ZM866.787 584.617V561.145H870.579V584.617H866.787ZM868.707 557.497C867.875 557.497 867.171 557.225 866.595 556.681C866.051 556.137 865.779 555.449 865.779 554.617C865.779 553.753 866.051 553.049 866.595 552.505C867.171 551.961 867.875 551.689 868.707 551.689C869.539 551.689 870.227 551.961 870.771 552.505C871.315 553.049 871.587 553.753 871.587 554.617C871.587 555.449 871.315 556.137 870.771 556.681C870.227 557.225 869.539 557.497 868.707 557.497ZM878.553 584.617V561.145H882.249V565.129H882.921C883.433 564.009 884.297 563.001 885.513 562.105C886.761 561.177 888.585 560.713 890.985 560.713C892.745 560.713 894.313 561.081 895.689 561.817C897.097 562.553 898.217 563.641 899.049 565.081C899.881 566.521 900.297 568.297 900.297 570.409V584.617H896.505V570.697C896.505 568.361 895.913 566.665 894.729 565.609C893.577 564.553 892.009 564.025 890.025 564.025C887.753 564.025 885.897 564.761 884.457 566.233C883.049 567.705 882.345 569.897 882.345 572.809V584.617H878.553ZM918.743 585.289C916.375 585.289 914.295 584.793 912.503 583.801C910.711 582.777 909.319 581.353 908.327 579.529C907.335 577.705 906.839 575.593 906.839 573.193V572.617C906.839 570.185 907.335 568.057 908.327 566.233C909.319 564.409 910.695 563.001 912.455 562.009C914.215 560.985 916.231 560.473 918.503 560.473C920.711 560.473 922.663 560.953 924.359 561.913C926.055 562.841 927.383 564.185 928.343 565.945C929.303 567.705 929.783 569.769 929.783 572.137V573.865H910.631C910.727 576.393 911.543 578.377 913.079 579.817C914.615 581.225 916.535 581.929 918.839 581.929C920.855 581.929 922.407 581.465 923.495 580.537C924.583 579.609 925.415 578.505 925.991 577.225L929.255 578.809C928.775 579.801 928.103 580.793 927.239 581.785C926.407 582.777 925.303 583.609 923.927 584.281C922.583 584.953 920.855 585.289 918.743 585.289ZM910.679 570.745H925.943C925.815 568.569 925.063 566.873 923.687 565.657C922.343 564.441 920.615 563.833 918.503 563.833C916.359 563.833 914.599 564.441 913.223 565.657C911.847 566.873 910.999 568.569 910.679 570.745ZM947.149 585.289C944.781 585.289 942.701 584.793 940.909 583.801C939.117 582.777 937.725 581.353 936.733 579.529C935.741 577.705 935.245 575.593 935.245 573.193V572.617C935.245 570.185 935.741 568.057 936.733 566.233C937.725 564.409 939.101 563.001 940.861 562.009C942.621 560.985 944.637 560.473 946.909 560.473C949.117 560.473 951.069 560.953 952.765 561.913C954.461 562.841 955.789 564.185 956.749 565.945C957.709 567.705 958.189 569.769 958.189 572.137V573.865H939.037C939.133 576.393 939.949 578.377 941.485 579.817C943.021 581.225 944.941 581.929 947.245 581.929C949.261 581.929 950.813 581.465 951.901 580.537C952.989 579.609 953.821 578.505 954.397 577.225L957.661 578.809C957.181 579.801 956.509 580.793 955.645 581.785C954.813 582.777 953.709 583.609 952.333 584.281C950.989 584.953 949.261 585.289 947.149 585.289ZM939.085 570.745H954.349C954.221 568.569 953.469 566.873 952.093 565.657C950.749 564.441 949.021 563.833 946.909 563.833C944.765 563.833 943.005 564.441 941.629 565.657C940.253 566.873 939.405 568.569 939.085 570.745ZM964.803 584.617V561.145H968.499V564.025H969.171C969.587 563.001 970.227 562.249 971.091 561.769C971.955 561.289 973.091 561.049 974.499 561.049H977.283V564.505H974.259C972.563 564.505 971.187 564.985 970.131 565.945C969.107 566.873 968.595 568.329 968.595 570.313V584.617H964.803ZM982.897 584.617V561.145H986.689V584.617H982.897ZM984.817 557.497C983.985 557.497 983.281 557.225 982.705 556.681C982.161 556.137 981.889 555.449 981.889 554.617C981.889 553.753 982.161 553.049 982.705 552.505C983.281 551.961 983.985 551.689 984.817 551.689C985.649 551.689 986.337 551.961 986.881 552.505C987.425 553.049 987.697 553.753 987.697 554.617C987.697 555.449 987.425 556.137 986.881 556.681C986.337 557.225 985.649 557.497 984.817 557.497ZM994.662 584.617V561.145H998.358V565.129H999.03C999.542 564.009 1000.41 563.001 1001.62 562.105C1002.87 561.177 1004.69 560.713 1007.09 560.713C1008.85 560.713 1010.42 561.081 1011.8 561.817C1013.21 562.553 1014.33 563.641 1015.16 565.081C1015.99 566.521 1016.41 568.297 1016.41 570.409V584.617H1012.61V570.697C1012.61 568.361 1012.02 566.665 1010.84 565.609C1009.69 564.553 1008.12 564.025 1006.13 564.025C1003.86 564.025 1002.01 564.761 1000.57 566.233C999.158 567.705 998.454 569.897 998.454 572.809V584.617H994.662ZM1022.95 573.001V572.329C1022.95 569.865 1023.44 567.753 1024.44 565.993C1025.43 564.233 1026.77 562.873 1028.47 561.913C1030.16 560.953 1032.02 560.473 1034.04 560.473C1036.5 560.473 1038.39 560.953 1039.7 561.913C1041.04 562.841 1042.04 563.881 1042.68 565.033H1043.35V561.145H1046.95V590.089C1046.95 591.369 1046.6 592.377 1045.89 593.113C1045.19 593.849 1044.16 594.217 1042.82 594.217H1026.88V590.857H1041.81C1042.77 590.857 1043.25 590.377 1043.25 589.417V580.489H1042.58C1042.2 581.193 1041.65 581.881 1040.95 582.553C1040.24 583.225 1039.33 583.785 1038.21 584.233C1037.09 584.649 1035.7 584.857 1034.04 584.857C1032.02 584.857 1030.16 584.377 1028.47 583.417C1026.77 582.457 1025.43 581.097 1024.44 579.337C1023.44 577.545 1022.95 575.433 1022.95 573.001ZM1035.04 581.497C1037.48 581.497 1039.44 580.729 1040.95 579.193C1042.48 577.657 1043.25 575.545 1043.25 572.857V572.473C1043.25 569.753 1042.48 567.641 1040.95 566.137C1039.44 564.601 1037.48 563.833 1035.04 563.833C1032.64 563.833 1030.66 564.601 1029.09 566.137C1027.56 567.641 1026.79 569.753 1026.79 572.473V572.857C1026.79 575.545 1027.56 577.657 1029.09 579.193C1030.66 580.729 1032.64 581.497 1035.04 581.497ZM567.209 638.289C563.209 638.289 560.025 637.137 557.657 634.833C555.289 632.497 554.105 629.105 554.105 624.657V616.977C554.105 612.529 555.289 609.153 557.657 606.849C560.025 604.513 563.209 603.345 567.209 603.345C571.177 603.345 574.217 604.449 576.329 606.657C578.473 608.865 579.545 611.889 579.545 615.729V615.969H575.561V615.585C575.561 613.057 574.873 610.993 573.497 609.393C572.153 607.761 570.057 606.945 567.209 606.945C564.361 606.945 562.137 607.825 560.537 609.585C558.937 611.313 558.137 613.745 558.137 616.881V624.753C558.137 627.889 558.937 630.337 560.537 632.097C562.137 633.825 564.361 634.689 567.209 634.689C570.057 634.689 572.153 633.889 573.497 632.289C574.873 630.657 575.561 628.577 575.561 626.049V625.281H579.545V625.905C579.545 629.745 578.473 632.769 576.329 634.977C574.217 637.185 571.177 638.289 567.209 638.289ZM596.854 638.289C594.486 638.289 592.39 637.793 590.566 636.801C588.774 635.809 587.366 634.417 586.342 632.625C585.35 630.801 584.854 628.657 584.854 626.193V625.569C584.854 623.137 585.35 621.009 586.342 619.185C587.366 617.361 588.774 615.953 590.566 614.961C592.39 613.969 594.486 613.473 596.854 613.473C599.222 613.473 601.302 613.969 603.094 614.961C604.918 615.953 606.326 617.361 607.318 619.185C608.342 621.009 608.854 623.137 608.854 625.569V626.193C608.854 628.657 608.342 630.801 607.318 632.625C606.326 634.417 604.918 635.809 603.094 636.801C601.302 637.793 599.222 638.289 596.854 638.289ZM596.854 634.881C599.35 634.881 601.334 634.097 602.806 632.529C604.31 630.929 605.062 628.785 605.062 626.097V625.665C605.062 622.977 604.31 620.849 602.806 619.281C601.334 617.681 599.35 616.881 596.854 616.881C594.39 616.881 592.406 617.681 590.902 619.281C589.398 620.849 588.646 622.977 588.646 625.665V626.097C588.646 628.785 589.398 630.929 590.902 632.529C592.406 634.097 594.39 634.881 596.854 634.881ZM615.678 637.617V614.145H619.374V618.129H620.046C620.558 617.009 621.422 616.001 622.638 615.105C623.886 614.177 625.71 613.713 628.11 613.713C629.87 613.713 631.438 614.081 632.814 614.817C634.222 615.553 635.342 616.641 636.174 618.081C637.006 619.521 637.422 621.297 637.422 623.409V637.617H633.63V623.697C633.63 621.361 633.038 619.665 631.854 618.609C630.702 617.553 629.134 617.025 627.15 617.025C624.878 617.025 623.022 617.761 621.582 619.233C620.174 620.705 619.47 622.897 619.47 625.809V637.617H615.678ZM649.067 637.617V617.457H641.867V614.145H649.067V608.145C649.067 606.865 649.419 605.857 650.123 605.121C650.859 604.385 651.899 604.017 653.243 604.017H659.147V607.281H654.299C653.339 607.281 652.859 607.761 652.859 608.721V614.145H660.251V617.457H652.859V637.617H649.067ZM675.274 638.289C672.906 638.289 670.826 637.793 669.034 636.801C667.242 635.777 665.85 634.353 664.858 632.529C663.866 630.705 663.37 628.593 663.37 626.193V625.617C663.37 623.185 663.866 621.057 664.858 619.233C665.85 617.409 667.226 616.001 668.986 615.009C670.746 613.985 672.762 613.473 675.034 613.473C677.242 613.473 679.194 613.953 680.89 614.913C682.586 615.841 683.914 617.185 684.874 618.945C685.834 620.705 686.314 622.769 686.314 625.137V626.865H667.162C667.258 629.393 668.074 631.377 669.61 632.817C671.146 634.225 673.066 634.929 675.37 634.929C677.386 634.929 678.938 634.465 680.026 633.537C681.114 632.609 681.946 631.505 682.522 630.225L685.786 631.809C685.306 632.801 684.634 633.793 683.77 634.785C682.938 635.777 681.834 636.609 680.458 637.281C679.114 637.953 677.386 638.289 675.274 638.289ZM667.21 623.745H682.474C682.346 621.569 681.594 619.873 680.218 618.657C678.874 617.441 677.146 616.833 675.034 616.833C672.89 616.833 671.13 617.441 669.754 618.657C668.378 619.873 667.53 621.569 667.21 623.745ZM692.928 637.617V614.145H696.624V617.025H697.296C697.712 616.001 698.352 615.249 699.216 614.769C700.08 614.289 701.216 614.049 702.624 614.049H705.408V617.505H702.384C700.688 617.505 699.312 617.985 698.256 618.945C697.232 619.873 696.72 621.329 696.72 623.313V637.617H692.928ZM720.93 638.289C718.562 638.289 716.482 637.793 714.69 636.801C712.898 635.777 711.506 634.353 710.514 632.529C709.522 630.705 709.026 628.593 709.026 626.193V625.617C709.026 623.185 709.522 621.057 710.514 619.233C711.506 617.409 712.882 616.001 714.642 615.009C716.402 613.985 718.418 613.473 720.69 613.473C722.898 613.473 724.85 613.953 726.546 614.913C728.242 615.841 729.57 617.185 730.53 618.945C731.49 620.705 731.97 622.769 731.97 625.137V626.865H712.818C712.914 629.393 713.73 631.377 715.266 632.817C716.802 634.225 718.722 634.929 721.026 634.929C723.042 634.929 724.594 634.465 725.682 633.537C726.77 632.609 727.602 631.505 728.178 630.225L731.442 631.809C730.962 632.801 730.29 633.793 729.426 634.785C728.594 635.777 727.49 636.609 726.114 637.281C724.77 637.953 723.042 638.289 720.93 638.289ZM712.866 623.745H728.13C728.002 621.569 727.25 619.873 725.874 618.657C724.53 617.441 722.802 616.833 720.69 616.833C718.546 616.833 716.786 617.441 715.41 618.657C714.034 619.873 713.186 621.569 712.866 623.745ZM738.584 637.617V614.145H742.28V618.129H742.952C743.464 617.009 744.328 616.001 745.544 615.105C746.792 614.177 748.616 613.713 751.016 613.713C752.776 613.713 754.344 614.081 755.72 614.817C757.128 615.553 758.248 616.641 759.08 618.081C759.912 619.521 760.328 621.297 760.328 623.409V637.617H756.536V623.697C756.536 621.361 755.944 619.665 754.76 618.609C753.608 617.553 752.04 617.025 750.056 617.025C747.784 617.025 745.928 617.761 744.488 619.233C743.08 620.705 742.376 622.897 742.376 625.809V637.617H738.584ZM778.822 638.289C776.55 638.289 774.502 637.809 772.678 636.849C770.886 635.857 769.462 634.449 768.406 632.625C767.382 630.801 766.87 628.641 766.87 626.145V625.617C766.87 623.089 767.382 620.929 768.406 619.137C769.462 617.313 770.886 615.921 772.678 614.961C774.502 613.969 776.55 613.473 778.822 613.473C781.062 613.473 782.966 613.889 784.534 614.721C786.134 615.553 787.382 616.657 788.278 618.033C789.206 619.409 789.798 620.881 790.054 622.449L786.358 623.217C786.198 622.065 785.814 621.009 785.206 620.049C784.63 619.089 783.814 618.321 782.758 617.745C781.702 617.169 780.406 616.881 778.87 616.881C777.302 616.881 775.894 617.233 774.646 617.937C773.43 618.641 772.454 619.649 771.718 620.961C771.014 622.273 770.662 623.841 770.662 625.665V626.097C770.662 627.921 771.014 629.489 771.718 630.801C772.454 632.113 773.43 633.121 774.646 633.825C775.894 634.529 777.302 634.881 778.87 634.881C781.206 634.881 782.982 634.273 784.198 633.057C785.446 631.841 786.214 630.337 786.502 628.545L790.246 629.361C789.894 630.897 789.254 632.353 788.326 633.729C787.398 635.105 786.134 636.209 784.534 637.041C782.966 637.873 781.062 638.289 778.822 638.289ZM807.461 638.289C805.093 638.289 803.013 637.793 801.221 636.801C799.429 635.777 798.037 634.353 797.045 632.529C796.053 630.705 795.557 628.593 795.557 626.193V625.617C795.557 623.185 796.053 621.057 797.045 619.233C798.037 617.409 799.413 616.001 801.173 615.009C802.933 613.985 804.949 613.473 807.221 613.473C809.429 613.473 811.381 613.953 813.077 614.913C814.773 615.841 816.101 617.185 817.061 618.945C818.021 620.705 818.501 622.769 818.501 625.137V626.865H799.349C799.445 629.393 800.261 631.377 801.797 632.817C803.333 634.225 805.253 634.929 807.557 634.929C809.573 634.929 811.125 634.465 812.213 633.537C813.301 632.609 814.133 631.505 814.709 630.225L817.973 631.809C817.493 632.801 816.821 633.793 815.957 634.785C815.125 635.777 814.021 636.609 812.645 637.281C811.301 637.953 809.573 638.289 807.461 638.289ZM799.397 623.745H814.661C814.533 621.569 813.781 619.873 812.405 618.657C811.061 617.441 809.333 616.833 807.221 616.833C805.077 616.833 803.317 617.441 801.941 618.657C800.565 619.873 799.717 621.569 799.397 623.745Z" fill="#000072"/>
</g>
<line x1="516.412" y1="472.925" x2="516.412" y2="666.65" stroke="#000072" stroke-width="4"/>
<path d="M372.172 468L431.639 487.322L468.392 537.908V600.436L431.639 651.021L372.172 670.343L312.704 651.021L275.952 600.436V537.908L312.704 487.322L372.172 468Z" fill="url(#paint2_linear_366_193)"/>
<path d="M314.917 490.663L372.063 472.121L429.101 490.772L372.063 509.314L314.917 490.663Z" fill="#000072"/>
<path d="M314.917 490.663L372.063 472.121L429.101 490.772L372.063 509.314L314.917 490.663Z" fill="url(#paint3_linear_366_193)" fill-opacity="0.7"/>
<path d="M305.266 574.377L372.063 509.315L279.675 539.243L305.266 574.377Z" fill="#000072"/>
<path d="M305.266 574.377L372.063 509.315L279.675 539.243L305.266 574.377Z" fill="url(#paint4_linear_366_193)"/>
<path d="M305.266 574.377L372.063 509.315L279.675 539.243L305.266 574.377Z" fill="url(#paint5_linear_366_193)" fill-opacity="0.7"/>
<path d="M372.063 509.315L314.917 490.663L279.675 539.243L372.063 509.315Z" fill="#000072"/>
<path d="M372.063 509.315L314.917 490.663L279.675 539.243L372.063 509.315Z" fill="url(#paint6_linear_366_193)" fill-opacity="0.7"/>
<path d="M372.172 629.354L464.452 599.317L428.993 647.897L372.172 629.354Z" fill="#000072"/>
<path d="M372.172 629.354L464.452 599.317L428.993 647.897L372.172 629.354Z" fill="url(#paint7_linear_366_193)" fill-opacity="0.7"/>
<path d="M435.933 560.063L372.172 629.354L464.452 599.317L435.933 560.063Z" fill="#000072"/>
<path d="M435.933 560.063L372.172 629.354L464.452 599.317L435.933 560.063Z" fill="url(#paint8_linear_366_193)" fill-opacity="0.7"/>
<path d="M435.933 560.063L372.172 629.354L464.452 599.317L435.933 560.063Z" fill="url(#paint9_linear_366_193)" fill-opacity="0.8"/>
<path d="M279.675 599.317L305.266 574.377L372.172 629.354L314.917 647.897L279.675 599.317Z" fill="#000072"/>
<path d="M279.675 599.317L305.266 574.377L372.172 629.354L314.917 647.897L279.675 599.317Z" fill="url(#paint10_linear_366_193)" fill-opacity="0.9"/>
<path d="M435.933 560.063L464.343 539.352L429.101 490.772L372.063 509.315L435.933 560.063Z" fill="#000072"/>
<path d="M435.933 560.063L464.343 539.352L429.101 490.772L372.063 509.315L435.933 560.063Z" fill="url(#paint11_linear_366_193)" fill-opacity="0.7"/>
<path d="M464.343 539.352L435.933 560.063L464.452 599.317L464.343 539.352Z" fill="#000072"/>
<path d="M464.343 539.352L435.933 560.063L464.452 599.317L464.343 539.352Z" fill="url(#paint12_linear_366_193)" fill-opacity="0.7"/>
<path d="M305.266 574.377L279.675 599.317V539.243L305.266 574.377Z" fill="#000072"/>
<path d="M305.266 574.377L279.675 599.317V539.243L305.266 574.377Z" fill="url(#paint13_linear_366_193)" fill-opacity="0.9"/>
<path d="M372.172 629.354L435.933 560.063L372.063 509.315L305.266 574.377L372.172 629.354Z" fill="#000072"/>
<path d="M372.172 629.354L435.933 560.063L372.063 509.315L305.266 574.377L372.172 629.354Z" fill="url(#paint14_linear_366_193)" fill-opacity="0.7"/>
<path d="M372.172 629.354L435.933 560.063L372.063 509.315L305.266 574.377L372.172 629.354Z" fill="url(#paint15_linear_366_193)" fill-opacity="0.7"/>
<path d="M372.172 629.354L314.917 647.897L372.063 666.44L428.993 647.897L372.172 629.354Z" fill="#000072"/>
<path d="M372.172 629.354L314.917 647.897L372.063 666.44L428.993 647.897L372.172 629.354Z" fill="url(#paint16_linear_366_193)" fill-opacity="0.9"/>
<path d="M315.025 647.897L372.172 629.354M315.025 647.897L279.675 599.317M315.025 647.897L372.063 666.44L428.884 647.789M464.452 599.317L435.933 560.063M464.452 599.317L464.235 539.352M464.452 599.317L428.884 647.789M464.452 599.317L372.172 629.354M435.933 560.063L464.235 539.352M435.933 560.063L372.063 509.315M435.933 560.063L372.172 629.354M464.235 539.352L429.101 490.772M428.884 647.789L372.172 629.354M372.172 629.354L305.591 574.702L279.783 539.243M279.783 539.243L372.063 509.315M279.783 539.243L279.675 599.317M279.783 539.243L315.242 490.772M372.063 509.315L279.675 599.317M372.063 509.315L315.242 490.772M372.063 509.315L429.101 490.772M315.242 490.772L372.063 472.121L429.101 490.772" stroke="url(#paint17_linear_366_193)" stroke-width="6.60291"/>
<defs>
<filter id="filter0_i_366_193" x="553.529" y="497.345" width="493.419" height="142.57" filterUnits="userSpaceOnUse" color-interpolation-filters="sRGB">
<feFlood flood-opacity="0" result="BackgroundImageFix"/>
<feBlend mode="normal" in="SourceGraphic" in2="BackgroundImageFix" result="shape"/>
<feColorMatrix in="SourceAlpha" type="matrix" values="0 0 0 0 0 0 0 0 0 0 0 0 0 0 0 0 0 0 127 0" result="hardAlpha"/>
<feOffset dy="1.62648"/>
<feGaussianBlur stdDeviation="0.813241"/>
<feComposite in2="hardAlpha" operator="arithmetic" k2="-1" k3="1"/>
<feColorMatrix type="matrix" values="0 0 0 0 0 0 0 0 0 0 0 0 0 0 0 0 0 0 0.05 0"/>
<feBlend mode="normal" in2="shape" result="effect1_innerShadow_366_193"/>
</filter>
<linearGradient id="paint0_linear_366_193" x1="279.583" y1="468.347" x2="1820.69" y2="-1087.74" gradientUnits="userSpaceOnUse">
<stop offset="0.391433" stop-color="#000072"/>
<stop offset="1" stop-color="#A40B0D"/>
</linearGradient>
<linearGradient id="paint1_linear_366_193" x1="990" y1="192.384" x2="990" y2="1304.95" gradientUnits="userSpaceOnUse">
<stop offset="0.351728" stop-color="#000072"/>
<stop offset="0.826398" stop-color="#F5F0E9"/>
</linearGradient>
<linearGradient id="paint2_linear_366_193" x1="509.809" y1="566.927" x2="234.772" y2="566.927" gradientUnits="userSpaceOnUse">
<stop stop-color="#555454"/>
<stop offset="0.3" stop-color="#9A9A9A"/>
<stop offset="0.5" stop-color="#E0E0E0"/>
<stop offset="0.697174" stop-color="#9A9A9A"/>
<stop offset="1" stop-color="#555454"/>
</linearGradient>
<linearGradient id="paint3_linear_366_193" x1="280" y1="472.121" x2="451.873" y2="472.121" gradientUnits="userSpaceOnUse">
<stop stop-color="#000072" stop-opacity="0"/>
<stop offset="1" stop-color="#F5F0E9"/>
</linearGradient>
<linearGradient id="paint4_linear_366_193" x1="316.869" y1="547.593" x2="297.675" y2="607.45" gradientUnits="userSpaceOnUse">
<stop stop-color="#951C1E" stop-opacity="0"/>
<stop offset="1" stop-color="#951C1E"/>
</linearGradient>
<linearGradient id="paint5_linear_366_193" x1="334.002" y1="536.966" x2="469.006" y2="444.035" gradientUnits="userSpaceOnUse">
<stop stop-color="#F5F0E9" stop-opacity="0"/>
<stop offset="1" stop-color="#F5F0E9"/>
</linearGradient>
<linearGradient id="paint6_linear_366_193" x1="496.874" y1="525.255" x2="314.808" y2="484.157" gradientUnits="userSpaceOnUse">
<stop offset="0.424631" stop-color="#F5F0E9"/>
<stop offset="1" stop-color="#000072" stop-opacity="0"/>
</linearGradient>
<linearGradient id="paint7_linear_366_193" x1="446.126" y1="631.957" x2="350.81" y2="634.234" gradientUnits="userSpaceOnUse">
<stop stop-color="#000072" stop-opacity="0"/>
<stop offset="1" stop-color="#951C1E"/>
</linearGradient>
<linearGradient id="paint8_linear_366_193" x1="454.042" y1="538.376" x2="436.15" y2="601.269" gradientUnits="userSpaceOnUse">
<stop offset="0.0535586" stop-color="#F5F0E9"/>
<stop offset="1" stop-color="#000072" stop-opacity="0"/>
</linearGradient>
<linearGradient id="paint9_linear_366_193" x1="349.075" y1="646.813" x2="434.089" y2="598.884" gradientUnits="userSpaceOnUse">
<stop stop-color="#951C1E"/>
<stop offset="1" stop-color="#000072" stop-opacity="0"/>
</linearGradient>
<linearGradient id="paint10_linear_366_193" x1="406.655" y1="547.484" x2="301.145" y2="642.258" gradientUnits="userSpaceOnUse">
<stop stop-color="#000072" stop-opacity="0"/>
<stop offset="1" stop-color="#A40B0D"/>
</linearGradient>
<linearGradient id="paint11_linear_366_193" x1="348.966" y1="584.787" x2="443.957" y2="490.772" gradientUnits="userSpaceOnUse">
<stop stop-color="#000072" stop-opacity="0"/>
<stop offset="1" stop-color="#F5F0E9"/>
</linearGradient>
<linearGradient id="paint12_linear_366_193" x1="456.861" y1="523.303" x2="454.042" y2="619.812" gradientUnits="userSpaceOnUse">
<stop stop-color="#F5F0E9"/>
<stop offset="1" stop-color="#000072" stop-opacity="0"/>
</linearGradient>
<linearGradient id="paint13_linear_366_193" x1="298.977" y1="500.531" x2="279.675" y2="614.824" gradientUnits="userSpaceOnUse">
<stop stop-color="#000072" stop-opacity="0"/>
<stop offset="1" stop-color="#A40B0D"/>
</linearGradient>
<linearGradient id="paint14_linear_366_193" x1="388.979" y1="569.28" x2="322.182" y2="635.427" gradientUnits="userSpaceOnUse">
<stop stop-color="#000072" stop-opacity="0"/>
<stop offset="0.835723" stop-color="#A40B0D"/>
</linearGradient>
<linearGradient id="paint15_linear_366_193" x1="461.958" y1="487.952" x2="366.858" y2="579.04" gradientUnits="userSpaceOnUse">
<stop offset="0.240449" stop-color="#F5F0E9"/>
<stop offset="1" stop-color="#000072" stop-opacity="0"/>
</linearGradient>
<linearGradient id="paint16_linear_366_193" x1="291.386" y1="654.837" x2="494.055" y2="658.199" gradientUnits="userSpaceOnUse">
<stop stop-color="#A40B0D"/>
<stop offset="1" stop-color="#000072" stop-opacity="0"/>
</linearGradient>
<linearGradient id="paint17_linear_366_193" x1="497.751" y1="567.124" x2="246.592" y2="567.124" gradientUnits="userSpaceOnUse">
<stop stop-color="#555454"/>
<stop offset="0.3" stop-color="#9A9A9A"/>
<stop offset="0.5" stop-color="#E0E0E0"/>
<stop offset="0.697174" stop-color="#9A9A9A"/>
<stop offset="1" stop-color="#555454"/>
</linearGradient>
</defs>
</svg>
