<svg width="196" height="196" viewBox="0 0 196 196" fill="none" xmlns="http://www.w3.org/2000/svg">
<path opacity="0.46" d="M38.7324 175.679L98.1127 157.357M38.7324 175.679L2 127.679M38.7324 175.679L98 194L157.042 175.571M194 127.679L164.366 88.8929M194 127.679L193.775 68.4286M194 127.679L157.042 175.571M194 127.679L98.1127 157.357M164.366 88.8929L193.775 68.4286M164.366 88.8929L98 38.75M164.366 88.8929L98.1127 157.357M193.775 68.4286L157.268 20.4286M157.042 175.571L98.1127 157.357M98.1127 157.357L28.9296 103.357L2.11268 68.3214M2.11268 68.3214L98 38.75M2.11268 68.3214L2 127.679M2.11268 68.3214L38.9577 20.4286M98 38.75L2 127.679M98 38.75L38.9577 20.4286M98 38.75L157.268 20.4286M38.9577 20.4286L98 2L157.268 20.4286" stroke="url(#paint0_linear_225_778)" stroke-width="2.5"/>
<defs>
<linearGradient id="paint0_linear_225_778" x1="228.601" y1="95.8696" x2="-32.3756" y2="95.8696" gradientUnits="userSpaceOnUse">
<stop stop-color="#555454"/>
<stop offset="0.3" stop-color="#9A9A9A"/>
<stop offset="0.5" stop-color="#E0E0E0"/>
<stop offset="0.697174" stop-color="#9A9A9A"/>
<stop offset="1" stop-color="#555454"/>
</linearGradient>
</defs>
</svg>
