<svg width="92" height="210" viewBox="0 0 92 210" fill="none" xmlns="http://www.w3.org/2000/svg">
<path d="M0.235298 0.0460815H50.8641V210H0.235298V192.898V176.586V174.745V0.0460815Z" fill="#191313"/>
<path d="M0.235298 0.0460815H50.8641V210H0.235298V192.898V176.586V174.745V0.0460815Z" fill="url(#paint0_linear_112_457)" fill-opacity="0.2"/>
<path d="M0.235298 0.0460815H50.8641V210H0.235298V192.898V176.586V174.745V0.0460815Z" fill="url(#paint1_linear_112_457)" fill-opacity="0.2"/>
<rect x="7.09129" y="7.93909" width="6.3286" height="6.8406" fill="#D9D9D9"/>
<rect x="7.09129" y="7.93909" width="6.3286" height="6.8406" fill="url(#paint2_linear_112_457)"/>
<rect x="22.3854" y="7.93909" width="6.3286" height="6.8406" fill="#D9D9D9"/>
<rect x="22.3854" y="7.93909" width="6.3286" height="6.8406" fill="url(#paint3_linear_112_457)"/>
<rect x="37.6795" y="7.93909" width="6.3286" height="6.8406" fill="#D9D9D9"/>
<rect x="37.6795" y="7.93909" width="6.3286" height="6.8406" fill="url(#paint4_linear_112_457)"/>
<rect x="7.09129" y="24.7775" width="6.3286" height="6.8406" fill="#D9D9D9"/>
<rect x="7.09129" y="24.7775" width="6.3286" height="6.8406" fill="url(#paint5_linear_112_457)"/>
<rect x="22.3854" y="24.7775" width="6.3286" height="6.8406" fill="#D9D9D9"/>
<rect x="22.3854" y="24.7775" width="6.3286" height="6.8406" fill="url(#paint6_linear_112_457)"/>
<rect x="37.6795" y="24.7775" width="6.3286" height="6.8406" fill="#D9D9D9"/>
<rect x="37.6795" y="24.7775" width="6.3286" height="6.8406" fill="url(#paint7_linear_112_457)"/>
<rect x="7.09129" y="41.616" width="6.3286" height="6.8406" fill="#D9D9D9"/>
<rect x="7.09129" y="41.616" width="6.3286" height="6.8406" fill="url(#paint8_linear_112_457)"/>
<rect x="22.3854" y="41.616" width="6.3286" height="6.8406" fill="#D9D9D9"/>
<rect x="22.3854" y="41.616" width="6.3286" height="6.8406" fill="url(#paint9_linear_112_457)"/>
<rect x="37.6795" y="41.616" width="6.3286" height="6.8406" fill="#D9D9D9"/>
<rect x="37.6795" y="41.616" width="6.3286" height="6.8406" fill="url(#paint10_linear_112_457)"/>
<rect x="7.09129" y="58.4543" width="6.3286" height="6.8406" fill="#D9D9D9"/>
<rect x="7.09129" y="58.4543" width="6.3286" height="6.8406" fill="url(#paint11_linear_112_457)"/>
<rect x="22.3854" y="58.4543" width="6.3286" height="6.8406" fill="#D9D9D9"/>
<rect x="22.3854" y="58.4543" width="6.3286" height="6.8406" fill="url(#paint12_linear_112_457)"/>
<rect x="37.6795" y="58.4543" width="6.3286" height="6.8406" fill="#D9D9D9"/>
<rect x="37.6795" y="58.4543" width="6.3286" height="6.8406" fill="url(#paint13_linear_112_457)"/>
<rect x="7.09129" y="75.2927" width="6.3286" height="6.8406" fill="#D9D9D9"/>
<rect x="7.09129" y="75.2927" width="6.3286" height="6.8406" fill="url(#paint14_linear_112_457)"/>
<rect x="22.3854" y="75.2927" width="6.3286" height="6.8406" fill="#D9D9D9"/>
<rect x="22.3854" y="75.2927" width="6.3286" height="6.8406" fill="url(#paint15_linear_112_457)"/>
<rect x="37.6795" y="75.2927" width="6.3286" height="6.8406" fill="#D9D9D9"/>
<rect x="37.6795" y="75.2927" width="6.3286" height="6.8406" fill="url(#paint16_linear_112_457)"/>
<rect x="7.09129" y="41.616" width="6.3286" height="6.8406" fill="#D9D9D9"/>
<rect x="7.09129" y="41.616" width="6.3286" height="6.8406" fill="url(#paint17_linear_112_457)"/>
<rect x="22.3854" y="41.616" width="6.3286" height="6.8406" fill="#D9D9D9"/>
<rect x="22.3854" y="41.616" width="6.3286" height="6.8406" fill="url(#paint18_linear_112_457)"/>
<rect x="37.6795" y="41.616" width="6.3286" height="6.8406" fill="#D9D9D9"/>
<rect x="37.6795" y="41.616" width="6.3286" height="6.8406" fill="url(#paint19_linear_112_457)"/>
<rect x="7.09129" y="108.97" width="6.3286" height="6.8406" fill="#D9D9D9"/>
<rect x="7.09129" y="108.97" width="6.3286" height="6.8406" fill="url(#paint20_linear_112_457)"/>
<rect x="22.3854" y="108.97" width="6.3286" height="6.8406" fill="#D9D9D9"/>
<rect x="22.3854" y="108.97" width="6.3286" height="6.8406" fill="url(#paint21_linear_112_457)"/>
<rect x="37.6795" y="108.97" width="6.3286" height="6.8406" fill="#D9D9D9"/>
<rect x="37.6795" y="108.97" width="6.3286" height="6.8406" fill="url(#paint22_linear_112_457)"/>
<rect x="7.09129" y="125.808" width="6.3286" height="6.8406" fill="#D9D9D9"/>
<rect x="7.09129" y="125.808" width="6.3286" height="6.8406" fill="url(#paint23_linear_112_457)"/>
<rect x="22.3854" y="125.808" width="6.3286" height="6.8406" fill="#D9D9D9"/>
<rect x="22.3854" y="125.808" width="6.3286" height="6.8406" fill="url(#paint24_linear_112_457)"/>
<rect x="37.6795" y="125.808" width="6.3286" height="6.8406" fill="#D9D9D9"/>
<rect x="37.6795" y="125.808" width="6.3286" height="6.8406" fill="url(#paint25_linear_112_457)"/>
<rect x="7.09129" y="92.1311" width="6.3286" height="6.8406" fill="#D9D9D9"/>
<rect x="7.09129" y="92.1311" width="6.3286" height="6.8406" fill="url(#paint26_linear_112_457)"/>
<rect x="22.3854" y="92.1311" width="6.3286" height="6.8406" fill="#D9D9D9"/>
<rect x="22.3854" y="92.1311" width="6.3286" height="6.8406" fill="url(#paint27_linear_112_457)"/>
<rect x="37.6795" y="92.1311" width="6.3286" height="6.8406" fill="#D9D9D9"/>
<rect x="37.6795" y="92.1311" width="6.3286" height="6.8406" fill="url(#paint28_linear_112_457)"/>
<rect x="7.09129" y="159.485" width="6.3286" height="6.8406" fill="#D9D9D9"/>
<rect x="7.09129" y="159.485" width="6.3286" height="6.8406" fill="url(#paint29_linear_112_457)"/>
<rect x="22.3854" y="159.485" width="6.3286" height="6.8406" fill="#D9D9D9"/>
<rect x="22.3854" y="159.485" width="6.3286" height="6.8406" fill="url(#paint30_linear_112_457)"/>
<rect x="37.6795" y="159.485" width="6.3286" height="6.8406" fill="#D9D9D9"/>
<rect x="37.6795" y="159.485" width="6.3286" height="6.8406" fill="url(#paint31_linear_112_457)"/>
<rect x="7.09129" y="142.646" width="6.3286" height="6.8406" fill="#D9D9D9"/>
<rect x="7.09129" y="142.646" width="6.3286" height="6.8406" fill="url(#paint32_linear_112_457)"/>
<rect x="22.3854" y="142.646" width="6.3286" height="6.8406" fill="#D9D9D9"/>
<rect x="22.3854" y="142.646" width="6.3286" height="6.8406" fill="url(#paint33_linear_112_457)"/>
<rect x="37.6795" y="142.646" width="6.3286" height="6.8406" fill="#D9D9D9"/>
<rect x="37.6795" y="142.646" width="6.3286" height="6.8406" fill="url(#paint34_linear_112_457)"/>
<path d="M50.8641 0.0460815L92 21.0677V210H50.8641V0.0460815Z" fill="#191313"/>
<path d="M50.8641 0.0460815L92 21.0677V210H50.8641V0.0460815Z" fill="url(#paint35_linear_112_457)" fill-opacity="0.2"/>
<path d="M50.8641 0.0460815L92 21.0677V210H50.8641V0.0460815Z" fill="url(#paint36_linear_112_457)" fill-opacity="0.2"/>
<defs>
<linearGradient id="paint0_linear_112_457" x1="62.2029" y1="293.14" x2="-11.318" y2="-12.6579" gradientUnits="userSpaceOnUse">
<stop offset="0.0168611" stop-opacity="0"/>
<stop offset="0.84814" stop-color="#951C1E"/>
</linearGradient>
<linearGradient id="paint1_linear_112_457" x1="-8.20282" y1="170.272" x2="105.273" y2="252.601" gradientUnits="userSpaceOnUse">
<stop stop-opacity="0"/>
<stop offset="1" stop-color="#F5F0E9"/>
</linearGradient>
<linearGradient id="paint2_linear_112_457" x1="12.6535" y1="12.8863" x2="11.6436" y2="5.89787" gradientUnits="userSpaceOnUse">
<stop offset="0.25367" stop-color="#F5F0E9"/>
<stop offset="0.712074" stop-color="#41578C"/>
</linearGradient>
<linearGradient id="paint3_linear_112_457" x1="27.9476" y1="12.8863" x2="26.9377" y2="5.89787" gradientUnits="userSpaceOnUse">
<stop offset="0.25367" stop-color="#F5F0E9"/>
<stop offset="0.712074" stop-color="#41578C"/>
</linearGradient>
<linearGradient id="paint4_linear_112_457" x1="43.2418" y1="12.8863" x2="42.2318" y2="5.89787" gradientUnits="userSpaceOnUse">
<stop offset="0.25367" stop-color="#F5F0E9"/>
<stop offset="0.712074" stop-color="#41578C"/>
</linearGradient>
<linearGradient id="paint5_linear_112_457" x1="12.6535" y1="29.7247" x2="11.6436" y2="22.7363" gradientUnits="userSpaceOnUse">
<stop offset="0.25367" stop-color="#F5F0E9"/>
<stop offset="0.712074" stop-color="#41578C"/>
</linearGradient>
<linearGradient id="paint6_linear_112_457" x1="27.9476" y1="29.7247" x2="26.9377" y2="22.7363" gradientUnits="userSpaceOnUse">
<stop offset="0.25367" stop-color="#F5F0E9"/>
<stop offset="0.712074" stop-color="#41578C"/>
</linearGradient>
<linearGradient id="paint7_linear_112_457" x1="43.2418" y1="29.7247" x2="42.2318" y2="22.7363" gradientUnits="userSpaceOnUse">
<stop offset="0.25367" stop-color="#F5F0E9"/>
<stop offset="0.712074" stop-color="#41578C"/>
</linearGradient>
<linearGradient id="paint8_linear_112_457" x1="12.6535" y1="46.5632" x2="11.6436" y2="39.5748" gradientUnits="userSpaceOnUse">
<stop offset="0.25367" stop-color="#F5F0E9"/>
<stop offset="0.712074" stop-color="#41578C"/>
</linearGradient>
<linearGradient id="paint9_linear_112_457" x1="27.9476" y1="46.5632" x2="26.9377" y2="39.5748" gradientUnits="userSpaceOnUse">
<stop offset="0.25367" stop-color="#F5F0E9"/>
<stop offset="0.712074" stop-color="#41578C"/>
</linearGradient>
<linearGradient id="paint10_linear_112_457" x1="43.2418" y1="46.5632" x2="42.2318" y2="39.5748" gradientUnits="userSpaceOnUse">
<stop offset="0.25367" stop-color="#F5F0E9"/>
<stop offset="0.712074" stop-color="#41578C"/>
</linearGradient>
<linearGradient id="paint11_linear_112_457" x1="12.6535" y1="63.4015" x2="11.6436" y2="56.4131" gradientUnits="userSpaceOnUse">
<stop offset="0.25367" stop-color="#F5F0E9"/>
<stop offset="0.712074" stop-color="#41578C"/>
</linearGradient>
<linearGradient id="paint12_linear_112_457" x1="27.9476" y1="63.4015" x2="26.9377" y2="56.4131" gradientUnits="userSpaceOnUse">
<stop offset="0.25367" stop-color="#F5F0E9"/>
<stop offset="0.712074" stop-color="#41578C"/>
</linearGradient>
<linearGradient id="paint13_linear_112_457" x1="43.2418" y1="63.4015" x2="42.2318" y2="56.4131" gradientUnits="userSpaceOnUse">
<stop offset="0.25367" stop-color="#F5F0E9"/>
<stop offset="0.712074" stop-color="#41578C"/>
</linearGradient>
<linearGradient id="paint14_linear_112_457" x1="12.6535" y1="80.2399" x2="11.6436" y2="73.2515" gradientUnits="userSpaceOnUse">
<stop offset="0.25367" stop-color="#F5F0E9"/>
<stop offset="0.712074" stop-color="#41578C"/>
</linearGradient>
<linearGradient id="paint15_linear_112_457" x1="27.9476" y1="80.2399" x2="26.9377" y2="73.2515" gradientUnits="userSpaceOnUse">
<stop offset="0.25367" stop-color="#F5F0E9"/>
<stop offset="0.712074" stop-color="#41578C"/>
</linearGradient>
<linearGradient id="paint16_linear_112_457" x1="43.2418" y1="80.2399" x2="42.2318" y2="73.2515" gradientUnits="userSpaceOnUse">
<stop offset="0.25367" stop-color="#F5F0E9"/>
<stop offset="0.712074" stop-color="#41578C"/>
</linearGradient>
<linearGradient id="paint17_linear_112_457" x1="12.6535" y1="46.5632" x2="11.6436" y2="39.5748" gradientUnits="userSpaceOnUse">
<stop offset="0.25367" stop-color="#F5F0E9"/>
<stop offset="0.712074" stop-color="#41578C"/>
</linearGradient>
<linearGradient id="paint18_linear_112_457" x1="27.9476" y1="46.5632" x2="26.9377" y2="39.5748" gradientUnits="userSpaceOnUse">
<stop offset="0.25367" stop-color="#F5F0E9"/>
<stop offset="0.712074" stop-color="#41578C"/>
</linearGradient>
<linearGradient id="paint19_linear_112_457" x1="43.2418" y1="46.5632" x2="42.2318" y2="39.5748" gradientUnits="userSpaceOnUse">
<stop offset="0.25367" stop-color="#F5F0E9"/>
<stop offset="0.712074" stop-color="#41578C"/>
</linearGradient>
<linearGradient id="paint20_linear_112_457" x1="12.6535" y1="113.917" x2="11.6436" y2="106.928" gradientUnits="userSpaceOnUse">
<stop offset="0.25367" stop-color="#F5F0E9"/>
<stop offset="0.712074" stop-color="#41578C"/>
</linearGradient>
<linearGradient id="paint21_linear_112_457" x1="27.9476" y1="113.917" x2="26.9377" y2="106.928" gradientUnits="userSpaceOnUse">
<stop offset="0.25367" stop-color="#F5F0E9"/>
<stop offset="0.712074" stop-color="#41578C"/>
</linearGradient>
<linearGradient id="paint22_linear_112_457" x1="43.2418" y1="113.917" x2="42.2318" y2="106.928" gradientUnits="userSpaceOnUse">
<stop offset="0.25367" stop-color="#F5F0E9"/>
<stop offset="0.712074" stop-color="#41578C"/>
</linearGradient>
<linearGradient id="paint23_linear_112_457" x1="12.6535" y1="130.755" x2="11.6436" y2="123.767" gradientUnits="userSpaceOnUse">
<stop offset="0.25367" stop-color="#F5F0E9"/>
<stop offset="0.712074" stop-color="#41578C"/>
</linearGradient>
<linearGradient id="paint24_linear_112_457" x1="27.9476" y1="130.755" x2="26.9377" y2="123.767" gradientUnits="userSpaceOnUse">
<stop offset="0.25367" stop-color="#F5F0E9"/>
<stop offset="0.712074" stop-color="#41578C"/>
</linearGradient>
<linearGradient id="paint25_linear_112_457" x1="43.2418" y1="130.755" x2="42.2318" y2="123.767" gradientUnits="userSpaceOnUse">
<stop offset="0.25367" stop-color="#F5F0E9"/>
<stop offset="0.712074" stop-color="#41578C"/>
</linearGradient>
<linearGradient id="paint26_linear_112_457" x1="12.6535" y1="97.0783" x2="11.6436" y2="90.0899" gradientUnits="userSpaceOnUse">
<stop offset="0.25367" stop-color="#F5F0E9"/>
<stop offset="0.712074" stop-color="#41578C"/>
</linearGradient>
<linearGradient id="paint27_linear_112_457" x1="27.9476" y1="97.0783" x2="26.9377" y2="90.0899" gradientUnits="userSpaceOnUse">
<stop offset="0.25367" stop-color="#F5F0E9"/>
<stop offset="0.712074" stop-color="#41578C"/>
</linearGradient>
<linearGradient id="paint28_linear_112_457" x1="43.2418" y1="97.0783" x2="42.2318" y2="90.0899" gradientUnits="userSpaceOnUse">
<stop offset="0.25367" stop-color="#F5F0E9"/>
<stop offset="0.712074" stop-color="#41578C"/>
</linearGradient>
<linearGradient id="paint29_linear_112_457" x1="12.6535" y1="164.432" x2="11.6436" y2="157.444" gradientUnits="userSpaceOnUse">
<stop offset="0.25367" stop-color="#F5F0E9"/>
<stop offset="0.712074" stop-color="#41578C"/>
</linearGradient>
<linearGradient id="paint30_linear_112_457" x1="27.9476" y1="164.432" x2="26.9377" y2="157.444" gradientUnits="userSpaceOnUse">
<stop offset="0.25367" stop-color="#F5F0E9"/>
<stop offset="0.712074" stop-color="#41578C"/>
</linearGradient>
<linearGradient id="paint31_linear_112_457" x1="43.2418" y1="164.432" x2="42.2318" y2="157.444" gradientUnits="userSpaceOnUse">
<stop offset="0.25367" stop-color="#F5F0E9"/>
<stop offset="0.712074" stop-color="#41578C"/>
</linearGradient>
<linearGradient id="paint32_linear_112_457" x1="12.6535" y1="147.594" x2="11.6436" y2="140.605" gradientUnits="userSpaceOnUse">
<stop offset="0.25367" stop-color="#F5F0E9"/>
<stop offset="0.712074" stop-color="#41578C"/>
</linearGradient>
<linearGradient id="paint33_linear_112_457" x1="27.9476" y1="147.594" x2="26.9377" y2="140.605" gradientUnits="userSpaceOnUse">
<stop offset="0.25367" stop-color="#F5F0E9"/>
<stop offset="0.712074" stop-color="#41578C"/>
</linearGradient>
<linearGradient id="paint34_linear_112_457" x1="43.2418" y1="147.594" x2="42.2318" y2="140.605" gradientUnits="userSpaceOnUse">
<stop offset="0.25367" stop-color="#F5F0E9"/>
<stop offset="0.712074" stop-color="#41578C"/>
</linearGradient>
<linearGradient id="paint35_linear_112_457" x1="18.6937" y1="225.523" x2="184.959" y2="52.8192" gradientUnits="userSpaceOnUse">
<stop offset="0.227488" stop-opacity="0"/>
<stop offset="1" stop-color="#A40B0D"/>
</linearGradient>
<linearGradient id="paint36_linear_112_457" x1="63.785" y1="146.856" x2="-28.857" y2="226.781" gradientUnits="userSpaceOnUse">
<stop stop-opacity="0"/>
<stop offset="1" stop-color="#F5F0E9"/>
</linearGradient>
</defs>
</svg>
