<svg width="174" height="399" viewBox="0 0 174 399" fill="none" xmlns="http://www.w3.org/2000/svg">
<path d="M0 0H96V399L26 398H0V332V0Z" fill="#191313"/>
<path d="M0 0H96V399L26 398H0V332V0Z" fill="url(#paint0_linear_360_193)" fill-opacity="0.2"/>
<path d="M0 0H96V399L26 398H0V332V0Z" fill="url(#paint1_linear_360_193)" fill-opacity="0.2"/>
<rect x="13" y="15" width="12" height="13" fill="#D9D9D9"/>
<rect x="13" y="15" width="12" height="13" fill="url(#paint2_linear_360_193)"/>
<rect x="42" y="15" width="12" height="13" fill="#D9D9D9"/>
<rect x="42" y="15" width="12" height="13" fill="url(#paint3_linear_360_193)"/>
<rect x="71" y="15" width="12" height="13" fill="#D9D9D9"/>
<rect x="71" y="15" width="12" height="13" fill="url(#paint4_linear_360_193)"/>
<rect x="13" y="47" width="12" height="13" fill="#191313" fill-opacity="0.85"/>
<rect x="42" y="47" width="12" height="13" fill="#191313" fill-opacity="0.85"/>
<rect x="71" y="47" width="12" height="13" fill="#D9D9D9"/>
<rect x="71" y="47" width="12" height="13" fill="url(#paint5_linear_360_193)"/>
<rect x="13" y="79" width="12" height="13" fill="#D9D9D9"/>
<rect x="13" y="79" width="12" height="13" fill="url(#paint6_linear_360_193)"/>
<rect x="42" y="79" width="12" height="13" fill="#D9D9D9"/>
<rect x="42" y="79" width="12" height="13" fill="url(#paint7_linear_360_193)"/>
<rect x="71" y="79" width="12" height="13" fill="#D9D9D9"/>
<rect x="71" y="79" width="12" height="13" fill="url(#paint8_linear_360_193)"/>
<rect x="13" y="111" width="12" height="13" fill="#D9D9D9"/>
<rect x="13" y="111" width="12" height="13" fill="url(#paint9_linear_360_193)"/>
<rect x="42" y="111" width="12" height="13" fill="#D9D9D9"/>
<rect x="42" y="111" width="12" height="13" fill="url(#paint10_linear_360_193)"/>
<rect x="71" y="111" width="12" height="13" fill="#191313" fill-opacity="0.85"/>
<rect x="13" y="143" width="12" height="13" fill="#191313" fill-opacity="0.85"/>
<rect x="42" y="143" width="12" height="13" fill="#D9D9D9"/>
<rect x="42" y="143" width="12" height="13" fill="url(#paint11_linear_360_193)"/>
<rect x="71" y="143" width="12" height="13" fill="#D9D9D9"/>
<rect x="71" y="143" width="12" height="13" fill="url(#paint12_linear_360_193)"/>
<rect x="13" y="79" width="12" height="13" fill="#D9D9D9"/>
<rect x="13" y="79" width="12" height="13" fill="url(#paint13_linear_360_193)"/>
<rect x="42" y="79" width="12" height="13" fill="#D9D9D9"/>
<rect x="42" y="79" width="12" height="13" fill="url(#paint14_linear_360_193)"/>
<rect x="71" y="79" width="12" height="13" fill="#D9D9D9"/>
<rect x="71" y="79" width="12" height="13" fill="url(#paint15_linear_360_193)"/>
<rect x="13" y="207" width="12" height="13" fill="#191313" fill-opacity="0.85"/>
<rect x="42" y="207" width="12" height="13" fill="#191313" fill-opacity="0.85"/>
<rect x="71" y="207" width="12" height="13" fill="#D9D9D9"/>
<rect x="71" y="207" width="12" height="13" fill="url(#paint16_linear_360_193)"/>
<rect x="13" y="239" width="12" height="13" fill="#D9D9D9"/>
<rect x="13" y="239" width="12" height="13" fill="url(#paint17_linear_360_193)"/>
<rect x="42" y="239" width="12" height="13" fill="#D9D9D9"/>
<rect x="42" y="239" width="12" height="13" fill="url(#paint18_linear_360_193)"/>
<rect x="71" y="239" width="12" height="13" fill="#D9D9D9"/>
<rect x="71" y="239" width="12" height="13" fill="url(#paint19_linear_360_193)"/>
<rect x="13" y="175" width="12" height="13" fill="#D9D9D9"/>
<rect x="13" y="175" width="12" height="13" fill="url(#paint20_linear_360_193)"/>
<rect x="42" y="175" width="12" height="13" fill="#D9D9D9"/>
<rect x="42" y="175" width="12" height="13" fill="url(#paint21_linear_360_193)"/>
<rect x="71" y="175" width="12" height="13" fill="#D9D9D9"/>
<rect x="71" y="175" width="12" height="13" fill="url(#paint22_linear_360_193)"/>
<rect x="13" y="303" width="12" height="13" fill="#D9D9D9"/>
<rect x="13" y="303" width="12" height="13" fill="url(#paint23_linear_360_193)"/>
<rect x="42" y="303" width="12" height="13" fill="#D9D9D9"/>
<rect x="42" y="303" width="12" height="13" fill="url(#paint24_linear_360_193)"/>
<rect x="71" y="303" width="12" height="13" fill="#D9D9D9"/>
<rect x="71" y="303" width="12" height="13" fill="url(#paint25_linear_360_193)"/>
<rect x="13" y="271" width="12" height="13" fill="#D9D9D9"/>
<rect x="13" y="271" width="12" height="13" fill="url(#paint26_linear_360_193)"/>
<rect x="42" y="271" width="12" height="13" fill="#D9D9D9"/>
<rect x="42" y="271" width="12" height="13" fill="url(#paint27_linear_360_193)"/>
<rect x="71" y="271" width="12" height="13" fill="#191313" fill-opacity="0.85"/>
<path d="M96 0L174 39.9499V399H96V0Z" fill="#191313"/>
<path d="M96 0L174 39.9499V399H96V0Z" fill="url(#paint28_linear_360_193)" fill-opacity="0.2"/>
<path d="M96 0L174 39.9499V399H96V0Z" fill="url(#paint29_linear_360_193)" fill-opacity="0.2"/>
<defs>
<linearGradient id="paint0_linear_360_193" x1="117.5" y1="557" x2="-22.5" y2="-24" gradientUnits="userSpaceOnUse">
<stop offset="0.0168611" stop-opacity="0"/>
<stop offset="0.84814" stop-color="#951C1E"/>
</linearGradient>
<linearGradient id="paint1_linear_360_193" x1="-16" y1="323.5" x2="199.5" y2="479.5" gradientUnits="userSpaceOnUse">
<stop stop-opacity="0"/>
<stop offset="1" stop-color="#F5F0E9"/>
</linearGradient>
<linearGradient id="paint2_linear_360_193" x1="23.5469" y1="24.4018" x2="21.6234" y2="11.1221" gradientUnits="userSpaceOnUse">
<stop offset="0.25367" stop-color="#F5F0E9"/>
<stop offset="0.712074" stop-color="#41578C"/>
</linearGradient>
<linearGradient id="paint3_linear_360_193" x1="52.5469" y1="24.4018" x2="50.6234" y2="11.1221" gradientUnits="userSpaceOnUse">
<stop offset="0.25367" stop-color="#F5F0E9"/>
<stop offset="0.712074" stop-color="#41578C"/>
</linearGradient>
<linearGradient id="paint4_linear_360_193" x1="81.5469" y1="24.4018" x2="79.6234" y2="11.1221" gradientUnits="userSpaceOnUse">
<stop offset="0.25367" stop-color="#F5F0E9"/>
<stop offset="0.712074" stop-color="#41578C"/>
</linearGradient>
<linearGradient id="paint5_linear_360_193" x1="81.5469" y1="56.4018" x2="79.6234" y2="43.1221" gradientUnits="userSpaceOnUse">
<stop offset="0.25367" stop-color="#F5F0E9"/>
<stop offset="0.712074" stop-color="#41578C"/>
</linearGradient>
<linearGradient id="paint6_linear_360_193" x1="23.5469" y1="88.4018" x2="21.6234" y2="75.1221" gradientUnits="userSpaceOnUse">
<stop offset="0.25367" stop-color="#F5F0E9"/>
<stop offset="0.712074" stop-color="#41578C"/>
</linearGradient>
<linearGradient id="paint7_linear_360_193" x1="52.5469" y1="88.4018" x2="50.6234" y2="75.1221" gradientUnits="userSpaceOnUse">
<stop offset="0.25367" stop-color="#F5F0E9"/>
<stop offset="0.712074" stop-color="#41578C"/>
</linearGradient>
<linearGradient id="paint8_linear_360_193" x1="81.5469" y1="88.4018" x2="79.6234" y2="75.1221" gradientUnits="userSpaceOnUse">
<stop offset="0.25367" stop-color="#F5F0E9"/>
<stop offset="0.712074" stop-color="#41578C"/>
</linearGradient>
<linearGradient id="paint9_linear_360_193" x1="23.5469" y1="120.402" x2="21.6234" y2="107.122" gradientUnits="userSpaceOnUse">
<stop offset="0.25367" stop-color="#F5F0E9"/>
<stop offset="0.712074" stop-color="#41578C"/>
</linearGradient>
<linearGradient id="paint10_linear_360_193" x1="52.5469" y1="120.402" x2="50.6234" y2="107.122" gradientUnits="userSpaceOnUse">
<stop offset="0.25367" stop-color="#F5F0E9"/>
<stop offset="0.712074" stop-color="#41578C"/>
</linearGradient>
<linearGradient id="paint11_linear_360_193" x1="52.5469" y1="152.402" x2="50.6234" y2="139.122" gradientUnits="userSpaceOnUse">
<stop offset="0.25367" stop-color="#F5F0E9"/>
<stop offset="0.712074" stop-color="#41578C"/>
</linearGradient>
<linearGradient id="paint12_linear_360_193" x1="81.5469" y1="152.402" x2="79.6234" y2="139.122" gradientUnits="userSpaceOnUse">
<stop offset="0.25367" stop-color="#F5F0E9"/>
<stop offset="0.712074" stop-color="#41578C"/>
</linearGradient>
<linearGradient id="paint13_linear_360_193" x1="23.5469" y1="88.4018" x2="21.6234" y2="75.1221" gradientUnits="userSpaceOnUse">
<stop offset="0.25367" stop-color="#F5F0E9"/>
<stop offset="0.712074" stop-color="#41578C"/>
</linearGradient>
<linearGradient id="paint14_linear_360_193" x1="52.5469" y1="88.4018" x2="50.6234" y2="75.1221" gradientUnits="userSpaceOnUse">
<stop offset="0.25367" stop-color="#F5F0E9"/>
<stop offset="0.712074" stop-color="#41578C"/>
</linearGradient>
<linearGradient id="paint15_linear_360_193" x1="81.5469" y1="88.4018" x2="79.6234" y2="75.1221" gradientUnits="userSpaceOnUse">
<stop offset="0.25367" stop-color="#F5F0E9"/>
<stop offset="0.712074" stop-color="#41578C"/>
</linearGradient>
<linearGradient id="paint16_linear_360_193" x1="81.5469" y1="216.402" x2="79.6234" y2="203.122" gradientUnits="userSpaceOnUse">
<stop offset="0.25367" stop-color="#F5F0E9"/>
<stop offset="0.712074" stop-color="#41578C"/>
</linearGradient>
<linearGradient id="paint17_linear_360_193" x1="23.5469" y1="248.402" x2="21.6234" y2="235.122" gradientUnits="userSpaceOnUse">
<stop offset="0.25367" stop-color="#F5F0E9"/>
<stop offset="0.712074" stop-color="#41578C"/>
</linearGradient>
<linearGradient id="paint18_linear_360_193" x1="52.5469" y1="248.402" x2="50.6234" y2="235.122" gradientUnits="userSpaceOnUse">
<stop offset="0.25367" stop-color="#F5F0E9"/>
<stop offset="0.712074" stop-color="#41578C"/>
</linearGradient>
<linearGradient id="paint19_linear_360_193" x1="81.5469" y1="248.402" x2="79.6234" y2="235.122" gradientUnits="userSpaceOnUse">
<stop offset="0.25367" stop-color="#F5F0E9"/>
<stop offset="0.712074" stop-color="#41578C"/>
</linearGradient>
<linearGradient id="paint20_linear_360_193" x1="23.5469" y1="184.402" x2="21.6234" y2="171.122" gradientUnits="userSpaceOnUse">
<stop offset="0.25367" stop-color="#F5F0E9"/>
<stop offset="0.712074" stop-color="#41578C"/>
</linearGradient>
<linearGradient id="paint21_linear_360_193" x1="52.5469" y1="184.402" x2="50.6234" y2="171.122" gradientUnits="userSpaceOnUse">
<stop offset="0.25367" stop-color="#F5F0E9"/>
<stop offset="0.712074" stop-color="#41578C"/>
</linearGradient>
<linearGradient id="paint22_linear_360_193" x1="81.5469" y1="184.402" x2="79.6234" y2="171.122" gradientUnits="userSpaceOnUse">
<stop offset="0.25367" stop-color="#F5F0E9"/>
<stop offset="0.712074" stop-color="#41578C"/>
</linearGradient>
<linearGradient id="paint23_linear_360_193" x1="23.5469" y1="312.402" x2="21.6234" y2="299.122" gradientUnits="userSpaceOnUse">
<stop offset="0.25367" stop-color="#F5F0E9"/>
<stop offset="0.712074" stop-color="#41578C"/>
</linearGradient>
<linearGradient id="paint24_linear_360_193" x1="52.5469" y1="312.402" x2="50.6234" y2="299.122" gradientUnits="userSpaceOnUse">
<stop offset="0.25367" stop-color="#F5F0E9"/>
<stop offset="0.712074" stop-color="#41578C"/>
</linearGradient>
<linearGradient id="paint25_linear_360_193" x1="81.5469" y1="312.402" x2="79.6234" y2="299.122" gradientUnits="userSpaceOnUse">
<stop offset="0.25367" stop-color="#F5F0E9"/>
<stop offset="0.712074" stop-color="#41578C"/>
</linearGradient>
<linearGradient id="paint26_linear_360_193" x1="23.5469" y1="280.402" x2="21.6234" y2="267.122" gradientUnits="userSpaceOnUse">
<stop offset="0.25367" stop-color="#F5F0E9"/>
<stop offset="0.712074" stop-color="#41578C"/>
</linearGradient>
<linearGradient id="paint27_linear_360_193" x1="52.5469" y1="280.402" x2="50.6234" y2="267.122" gradientUnits="userSpaceOnUse">
<stop offset="0.25367" stop-color="#F5F0E9"/>
<stop offset="0.712074" stop-color="#41578C"/>
</linearGradient>
<linearGradient id="paint28_linear_360_193" x1="35" y1="428.5" x2="351" y2="101" gradientUnits="userSpaceOnUse">
<stop offset="0.227488" stop-opacity="0"/>
<stop offset="1" stop-color="#A40B0D"/>
</linearGradient>
<linearGradient id="paint29_linear_360_193" x1="120.5" y1="279" x2="-55.5" y2="430.5" gradientUnits="userSpaceOnUse">
<stop stop-opacity="0"/>
<stop offset="1" stop-color="#F5F0E9"/>
</linearGradient>
</defs>
</svg>
