<svg width="221" height="499" viewBox="0 0 221 499" fill="none" xmlns="http://www.w3.org/2000/svg">
<path d="M0 100V35H148V100V156V498.5H95.5H0V407V100Z" fill="#191313"/>
<path d="M0 100V35H148V100V156V498.5H95.5H0V407V100Z" fill="url(#paint0_linear_360_231)"/>
<rect x="8" y="51" width="12" height="13" fill="#D9D9D9"/>
<rect x="8" y="51" width="12" height="13" fill="url(#paint1_linear_360_231)"/>
<rect x="37" y="51" width="12" height="13" fill="#D9D9D9"/>
<rect x="37" y="51" width="12" height="13" fill="url(#paint2_linear_360_231)"/>
<rect x="66" y="51" width="12" height="13" fill="#D9D9D9"/>
<rect x="66" y="51" width="12" height="13" fill="url(#paint3_linear_360_231)"/>
<rect x="95" y="51" width="12" height="13" fill="#191313" fill-opacity="0.85"/>
<rect x="124" y="51" width="12" height="13" fill="#D9D9D9"/>
<rect x="124" y="51" width="12" height="13" fill="url(#paint4_linear_360_231)"/>
<rect x="8" y="83" width="12" height="13" fill="#D9D9D9"/>
<rect x="8" y="83" width="12" height="13" fill="url(#paint5_linear_360_231)"/>
<rect x="37" y="83" width="12" height="13" fill="#191313" fill-opacity="0.85"/>
<rect x="66" y="83" width="12" height="13" fill="#D9D9D9"/>
<rect x="66" y="83" width="12" height="13" fill="url(#paint6_linear_360_231)"/>
<rect x="95" y="83" width="12" height="13" fill="#D9D9D9"/>
<rect x="95" y="83" width="12" height="13" fill="url(#paint7_linear_360_231)"/>
<rect x="124" y="83" width="12" height="13" fill="#D9D9D9"/>
<rect x="124" y="83" width="12" height="13" fill="url(#paint8_linear_360_231)"/>
<rect x="8" y="115" width="12" height="13" fill="#D9D9D9"/>
<rect x="8" y="115" width="12" height="13" fill="url(#paint9_linear_360_231)"/>
<rect x="37" y="115" width="12" height="13" fill="#D9D9D9"/>
<rect x="37" y="115" width="12" height="13" fill="url(#paint10_linear_360_231)"/>
<rect x="66" y="115" width="12" height="13" fill="#D9D9D9"/>
<rect x="66" y="115" width="12" height="13" fill="url(#paint11_linear_360_231)"/>
<rect x="95" y="115" width="12" height="13" fill="#191313" fill-opacity="0.85"/>
<rect x="124" y="115" width="12" height="13" fill="#D9D9D9"/>
<rect x="124" y="115" width="12" height="13" fill="url(#paint12_linear_360_231)"/>
<rect x="8" y="147" width="12" height="13" fill="#D9D9D9"/>
<rect x="8" y="147" width="12" height="13" fill="url(#paint13_linear_360_231)"/>
<rect x="37" y="147" width="12" height="13" fill="#191313" fill-opacity="0.85"/>
<rect x="66" y="147" width="12" height="13" fill="#191313" fill-opacity="0.85"/>
<rect x="95" y="147" width="12" height="13" fill="#D9D9D9"/>
<rect x="95" y="147" width="12" height="13" fill="url(#paint14_linear_360_231)"/>
<rect x="124" y="147" width="12" height="13" fill="#D9D9D9"/>
<rect x="124" y="147" width="12" height="13" fill="url(#paint15_linear_360_231)"/>
<rect x="8" y="179" width="12" height="13" fill="#191313" fill-opacity="0.85"/>
<rect x="37" y="179" width="12" height="13" fill="#D9D9D9"/>
<rect x="37" y="179" width="12" height="13" fill="url(#paint16_linear_360_231)"/>
<rect x="66" y="179" width="12" height="13" fill="#D9D9D9"/>
<rect x="66" y="179" width="12" height="13" fill="url(#paint17_linear_360_231)"/>
<rect x="95" y="179" width="12" height="13" fill="#D9D9D9"/>
<rect x="95" y="179" width="12" height="13" fill="url(#paint18_linear_360_231)"/>
<rect x="124" y="179" width="12" height="13" fill="#191313" fill-opacity="0.85"/>
<rect x="8" y="115" width="12" height="13" fill="#D9D9D9"/>
<rect x="8" y="115" width="12" height="13" fill="url(#paint19_linear_360_231)"/>
<rect x="37" y="115" width="12" height="13" fill="#D9D9D9"/>
<rect x="37" y="115" width="12" height="13" fill="url(#paint20_linear_360_231)"/>
<rect x="66" y="115" width="12" height="13" fill="#D9D9D9"/>
<rect x="66" y="115" width="12" height="13" fill="url(#paint21_linear_360_231)"/>
<rect x="124" y="115" width="12" height="13" fill="#D9D9D9"/>
<rect x="124" y="115" width="12" height="13" fill="url(#paint22_linear_360_231)"/>
<rect x="8" y="243" width="12" height="13" fill="#D9D9D9"/>
<rect x="8" y="243" width="12" height="13" fill="url(#paint23_linear_360_231)"/>
<rect x="37" y="243" width="12" height="13" fill="#191313" fill-opacity="0.85"/>
<rect x="66" y="243" width="12" height="13" fill="#191313" fill-opacity="0.85"/>
<rect x="95" y="243" width="12" height="13" fill="#D9D9D9"/>
<rect x="95" y="243" width="12" height="13" fill="url(#paint24_linear_360_231)"/>
<rect x="8" y="275" width="12" height="13" fill="#191313" fill-opacity="0.85"/>
<rect x="37" y="275" width="12" height="13" fill="#D9D9D9"/>
<rect x="37" y="275" width="12" height="13" fill="url(#paint25_linear_360_231)"/>
<rect x="66" y="275" width="12" height="13" fill="#D9D9D9"/>
<rect x="66" y="275" width="12" height="13" fill="url(#paint26_linear_360_231)"/>
<rect x="95" y="275" width="12" height="13" fill="#D9D9D9"/>
<rect x="95" y="275" width="12" height="13" fill="url(#paint27_linear_360_231)"/>
<rect x="8" y="211" width="12" height="13" fill="#D9D9D9"/>
<rect x="8" y="211" width="12" height="13" fill="url(#paint28_linear_360_231)"/>
<rect x="37" y="211" width="12" height="13" fill="#191313" fill-opacity="0.85"/>
<rect x="66" y="211" width="12" height="13" fill="#D9D9D9"/>
<rect x="66" y="211" width="12" height="13" fill="url(#paint29_linear_360_231)"/>
<rect x="95" y="211" width="12" height="13" fill="#D9D9D9"/>
<rect x="95" y="211" width="12" height="13" fill="url(#paint30_linear_360_231)"/>
<rect x="124" y="211" width="12" height="13" fill="#D9D9D9"/>
<rect x="124" y="211" width="12" height="13" fill="url(#paint31_linear_360_231)"/>
<rect x="124" y="244" width="12" height="13" fill="#D9D9D9"/>
<rect x="124" y="244" width="12" height="13" fill="url(#paint32_linear_360_231)"/>
<rect x="124" y="342" width="12" height="13" fill="#191313" fill-opacity="0.85"/>
<rect x="124" y="275" width="12" height="13" fill="#D9D9D9"/>
<rect x="124" y="275" width="12" height="13" fill="url(#paint33_linear_360_231)"/>
<rect x="8" y="339" width="12" height="13" fill="#D9D9D9"/>
<rect x="8" y="339" width="12" height="13" fill="url(#paint34_linear_360_231)"/>
<rect x="37" y="339" width="12" height="13" fill="#D9D9D9"/>
<rect x="37" y="339" width="12" height="13" fill="url(#paint35_linear_360_231)"/>
<rect x="66" y="339" width="12" height="13" fill="#D9D9D9"/>
<rect x="66" y="339" width="12" height="13" fill="url(#paint36_linear_360_231)"/>
<rect x="95" y="339" width="12" height="13" fill="#D9D9D9"/>
<rect x="95" y="339" width="12" height="13" fill="url(#paint37_linear_360_231)"/>
<rect x="8" y="374" width="12" height="13" fill="#D9D9D9"/>
<rect x="8" y="374" width="12" height="13" fill="url(#paint38_linear_360_231)"/>
<rect x="37" y="374" width="12" height="13" fill="#191313" fill-opacity="0.85"/>
<rect x="66" y="374" width="12" height="13" fill="#D9D9D9"/>
<rect x="66" y="374" width="12" height="13" fill="url(#paint39_linear_360_231)"/>
<rect x="95" y="374" width="12" height="13" fill="#D9D9D9"/>
<rect x="95" y="374" width="12" height="13" fill="url(#paint40_linear_360_231)"/>
<rect x="8" y="307" width="12" height="13" fill="#D9D9D9"/>
<rect x="8" y="307" width="12" height="13" fill="url(#paint41_linear_360_231)"/>
<rect x="37" y="307" width="12" height="13" fill="#D9D9D9"/>
<rect x="37" y="307" width="12" height="13" fill="url(#paint42_linear_360_231)"/>
<rect x="66" y="307" width="12" height="13" fill="#191313" fill-opacity="0.85"/>
<rect x="95" y="307" width="12" height="13" fill="#191313" fill-opacity="0.85"/>
<rect x="124" y="307" width="12" height="13" fill="#D9D9D9"/>
<rect x="124" y="307" width="12" height="13" fill="url(#paint43_linear_360_231)"/>
<rect x="124" y="374" width="12" height="13" fill="#D9D9D9"/>
<rect x="124" y="374" width="12" height="13" fill="url(#paint44_linear_360_231)"/>
<path d="M148 35L220.5 66.5L221 497H183H177.5H171.764H148V35Z" fill="#191313"/>
<path d="M148 35L220.5 66.5L221 497H183H177.5H171.764H148V35Z" fill="url(#paint45_linear_360_231)" fill-opacity="0.2"/>
<rect x="49" width="93" height="35" fill="#191313"/>
<rect x="49" width="93" height="35" fill="url(#paint46_linear_360_231)" fill-opacity="0.2"/>
<path d="M142 0L196 26.488V56L148.5 35H142V0Z" fill="#191313"/>
<path d="M142 0L196 26.488V56L148.5 35H142V0Z" fill="url(#paint47_linear_360_231)" fill-opacity="0.2"/>
<defs>
<linearGradient id="paint0_linear_360_231" x1="85" y1="413" x2="24" y2="-559.5" gradientUnits="userSpaceOnUse">
<stop stop-color="#41578C" stop-opacity="0"/>
<stop offset="1" stop-color="#41578C"/>
</linearGradient>
<linearGradient id="paint1_linear_360_231" x1="18.5469" y1="60.4018" x2="16.6234" y2="47.1221" gradientUnits="userSpaceOnUse">
<stop offset="0.25367" stop-color="#F5F0E9"/>
<stop offset="1" stop-color="#A40B0D"/>
</linearGradient>
<linearGradient id="paint2_linear_360_231" x1="47.5469" y1="60.4018" x2="45.6234" y2="47.1221" gradientUnits="userSpaceOnUse">
<stop offset="0.25367" stop-color="#F5F0E9"/>
<stop offset="1" stop-color="#A40B0D"/>
</linearGradient>
<linearGradient id="paint3_linear_360_231" x1="76.5469" y1="60.4018" x2="74.6234" y2="47.1221" gradientUnits="userSpaceOnUse">
<stop offset="0.25367" stop-color="#F5F0E9"/>
<stop offset="1" stop-color="#A40B0D"/>
</linearGradient>
<linearGradient id="paint4_linear_360_231" x1="134.547" y1="60.4018" x2="132.623" y2="47.1221" gradientUnits="userSpaceOnUse">
<stop offset="0.25367" stop-color="#F5F0E9"/>
<stop offset="1" stop-color="#A40B0D"/>
</linearGradient>
<linearGradient id="paint5_linear_360_231" x1="18.5469" y1="92.4018" x2="16.6234" y2="79.1221" gradientUnits="userSpaceOnUse">
<stop offset="0.25367" stop-color="#F5F0E9"/>
<stop offset="1" stop-color="#A40B0D"/>
</linearGradient>
<linearGradient id="paint6_linear_360_231" x1="76.5469" y1="92.4018" x2="74.6234" y2="79.1221" gradientUnits="userSpaceOnUse">
<stop offset="0.25367" stop-color="#F5F0E9"/>
<stop offset="1" stop-color="#A40B0D"/>
</linearGradient>
<linearGradient id="paint7_linear_360_231" x1="105.547" y1="92.4018" x2="103.623" y2="79.1221" gradientUnits="userSpaceOnUse">
<stop offset="0.25367" stop-color="#F5F0E9"/>
<stop offset="1" stop-color="#A40B0D"/>
</linearGradient>
<linearGradient id="paint8_linear_360_231" x1="134.547" y1="92.4018" x2="132.623" y2="79.1221" gradientUnits="userSpaceOnUse">
<stop offset="0.25367" stop-color="#F5F0E9"/>
<stop offset="1" stop-color="#A40B0D"/>
</linearGradient>
<linearGradient id="paint9_linear_360_231" x1="18.5469" y1="124.402" x2="16.6234" y2="111.122" gradientUnits="userSpaceOnUse">
<stop offset="0.25367" stop-color="#F5F0E9"/>
<stop offset="1" stop-color="#A40B0D"/>
</linearGradient>
<linearGradient id="paint10_linear_360_231" x1="47.5469" y1="124.402" x2="45.6234" y2="111.122" gradientUnits="userSpaceOnUse">
<stop offset="0.25367" stop-color="#F5F0E9"/>
<stop offset="1" stop-color="#A40B0D"/>
</linearGradient>
<linearGradient id="paint11_linear_360_231" x1="76.5469" y1="124.402" x2="74.6234" y2="111.122" gradientUnits="userSpaceOnUse">
<stop offset="0.25367" stop-color="#F5F0E9"/>
<stop offset="1" stop-color="#A40B0D"/>
</linearGradient>
<linearGradient id="paint12_linear_360_231" x1="134.547" y1="124.402" x2="132.623" y2="111.122" gradientUnits="userSpaceOnUse">
<stop offset="0.25367" stop-color="#F5F0E9"/>
<stop offset="1" stop-color="#A40B0D"/>
</linearGradient>
<linearGradient id="paint13_linear_360_231" x1="18.5469" y1="156.402" x2="16.6234" y2="143.122" gradientUnits="userSpaceOnUse">
<stop offset="0.25367" stop-color="#F5F0E9"/>
<stop offset="1" stop-color="#A40B0D"/>
</linearGradient>
<linearGradient id="paint14_linear_360_231" x1="105.547" y1="156.402" x2="103.623" y2="143.122" gradientUnits="userSpaceOnUse">
<stop offset="0.25367" stop-color="#F5F0E9"/>
<stop offset="1" stop-color="#A40B0D"/>
</linearGradient>
<linearGradient id="paint15_linear_360_231" x1="134.547" y1="156.402" x2="132.623" y2="143.122" gradientUnits="userSpaceOnUse">
<stop offset="0.25367" stop-color="#F5F0E9"/>
<stop offset="1" stop-color="#A40B0D"/>
</linearGradient>
<linearGradient id="paint16_linear_360_231" x1="47.5469" y1="188.402" x2="45.6234" y2="175.122" gradientUnits="userSpaceOnUse">
<stop offset="0.25367" stop-color="#F5F0E9"/>
<stop offset="1" stop-color="#A40B0D"/>
</linearGradient>
<linearGradient id="paint17_linear_360_231" x1="76.5469" y1="188.402" x2="74.6234" y2="175.122" gradientUnits="userSpaceOnUse">
<stop offset="0.25367" stop-color="#F5F0E9"/>
<stop offset="1" stop-color="#A40B0D"/>
</linearGradient>
<linearGradient id="paint18_linear_360_231" x1="105.547" y1="188.402" x2="103.623" y2="175.122" gradientUnits="userSpaceOnUse">
<stop offset="0.25367" stop-color="#F5F0E9"/>
<stop offset="1" stop-color="#A40B0D"/>
</linearGradient>
<linearGradient id="paint19_linear_360_231" x1="18.5469" y1="124.402" x2="16.6234" y2="111.122" gradientUnits="userSpaceOnUse">
<stop offset="0.25367" stop-color="#F5F0E9"/>
<stop offset="1" stop-color="#A40B0D"/>
</linearGradient>
<linearGradient id="paint20_linear_360_231" x1="47.5469" y1="124.402" x2="45.6234" y2="111.122" gradientUnits="userSpaceOnUse">
<stop offset="0.25367" stop-color="#F5F0E9"/>
<stop offset="1" stop-color="#A40B0D"/>
</linearGradient>
<linearGradient id="paint21_linear_360_231" x1="76.5469" y1="124.402" x2="74.6234" y2="111.122" gradientUnits="userSpaceOnUse">
<stop offset="0.25367" stop-color="#F5F0E9"/>
<stop offset="1" stop-color="#A40B0D"/>
</linearGradient>
<linearGradient id="paint22_linear_360_231" x1="134.547" y1="124.402" x2="132.623" y2="111.122" gradientUnits="userSpaceOnUse">
<stop offset="0.25367" stop-color="#F5F0E9"/>
<stop offset="1" stop-color="#A40B0D"/>
</linearGradient>
<linearGradient id="paint23_linear_360_231" x1="18.5469" y1="252.402" x2="16.6234" y2="239.122" gradientUnits="userSpaceOnUse">
<stop offset="0.25367" stop-color="#F5F0E9"/>
<stop offset="1" stop-color="#A40B0D"/>
</linearGradient>
<linearGradient id="paint24_linear_360_231" x1="105.547" y1="252.402" x2="103.623" y2="239.122" gradientUnits="userSpaceOnUse">
<stop offset="0.25367" stop-color="#F5F0E9"/>
<stop offset="1" stop-color="#A40B0D"/>
</linearGradient>
<linearGradient id="paint25_linear_360_231" x1="47.5469" y1="284.402" x2="45.6234" y2="271.122" gradientUnits="userSpaceOnUse">
<stop offset="0.25367" stop-color="#F5F0E9"/>
<stop offset="1" stop-color="#A40B0D"/>
</linearGradient>
<linearGradient id="paint26_linear_360_231" x1="76.5469" y1="284.402" x2="74.6234" y2="271.122" gradientUnits="userSpaceOnUse">
<stop offset="0.25367" stop-color="#F5F0E9"/>
<stop offset="1" stop-color="#A40B0D"/>
</linearGradient>
<linearGradient id="paint27_linear_360_231" x1="105.547" y1="284.402" x2="103.623" y2="271.122" gradientUnits="userSpaceOnUse">
<stop offset="0.25367" stop-color="#F5F0E9"/>
<stop offset="1" stop-color="#A40B0D"/>
</linearGradient>
<linearGradient id="paint28_linear_360_231" x1="18.5469" y1="220.402" x2="16.6234" y2="207.122" gradientUnits="userSpaceOnUse">
<stop offset="0.25367" stop-color="#F5F0E9"/>
<stop offset="1" stop-color="#A40B0D"/>
</linearGradient>
<linearGradient id="paint29_linear_360_231" x1="76.5469" y1="220.402" x2="74.6234" y2="207.122" gradientUnits="userSpaceOnUse">
<stop offset="0.25367" stop-color="#F5F0E9"/>
<stop offset="1" stop-color="#A40B0D"/>
</linearGradient>
<linearGradient id="paint30_linear_360_231" x1="105.547" y1="220.402" x2="103.623" y2="207.122" gradientUnits="userSpaceOnUse">
<stop offset="0.25367" stop-color="#F5F0E9"/>
<stop offset="1" stop-color="#A40B0D"/>
</linearGradient>
<linearGradient id="paint31_linear_360_231" x1="134.547" y1="220.402" x2="132.623" y2="207.122" gradientUnits="userSpaceOnUse">
<stop offset="0.25367" stop-color="#F5F0E9"/>
<stop offset="1" stop-color="#A40B0D"/>
</linearGradient>
<linearGradient id="paint32_linear_360_231" x1="134.547" y1="253.402" x2="132.623" y2="240.122" gradientUnits="userSpaceOnUse">
<stop offset="0.25367" stop-color="#F5F0E9"/>
<stop offset="1" stop-color="#A40B0D"/>
</linearGradient>
<linearGradient id="paint33_linear_360_231" x1="134.547" y1="284.402" x2="132.623" y2="271.122" gradientUnits="userSpaceOnUse">
<stop offset="0.25367" stop-color="#F5F0E9"/>
<stop offset="1" stop-color="#A40B0D"/>
</linearGradient>
<linearGradient id="paint34_linear_360_231" x1="18.5469" y1="348.402" x2="16.6234" y2="335.122" gradientUnits="userSpaceOnUse">
<stop offset="0.25367" stop-color="#F5F0E9"/>
<stop offset="1" stop-color="#A40B0D"/>
</linearGradient>
<linearGradient id="paint35_linear_360_231" x1="47.5469" y1="348.402" x2="45.6234" y2="335.122" gradientUnits="userSpaceOnUse">
<stop offset="0.25367" stop-color="#F5F0E9"/>
<stop offset="1" stop-color="#A40B0D"/>
</linearGradient>
<linearGradient id="paint36_linear_360_231" x1="76.5469" y1="348.402" x2="74.6234" y2="335.122" gradientUnits="userSpaceOnUse">
<stop offset="0.25367" stop-color="#F5F0E9"/>
<stop offset="1" stop-color="#A40B0D"/>
</linearGradient>
<linearGradient id="paint37_linear_360_231" x1="105.547" y1="348.402" x2="103.623" y2="335.122" gradientUnits="userSpaceOnUse">
<stop offset="0.25367" stop-color="#F5F0E9"/>
<stop offset="1" stop-color="#A40B0D"/>
</linearGradient>
<linearGradient id="paint38_linear_360_231" x1="18.5469" y1="383.402" x2="16.6234" y2="370.122" gradientUnits="userSpaceOnUse">
<stop offset="0.25367" stop-color="#F5F0E9"/>
<stop offset="1" stop-color="#A40B0D"/>
</linearGradient>
<linearGradient id="paint39_linear_360_231" x1="76.5469" y1="383.402" x2="74.6234" y2="370.122" gradientUnits="userSpaceOnUse">
<stop offset="0.25367" stop-color="#F5F0E9"/>
<stop offset="1" stop-color="#A40B0D"/>
</linearGradient>
<linearGradient id="paint40_linear_360_231" x1="105.547" y1="383.402" x2="103.623" y2="370.122" gradientUnits="userSpaceOnUse">
<stop offset="0.25367" stop-color="#F5F0E9"/>
<stop offset="1" stop-color="#A40B0D"/>
</linearGradient>
<linearGradient id="paint41_linear_360_231" x1="18.5469" y1="316.402" x2="16.6234" y2="303.122" gradientUnits="userSpaceOnUse">
<stop offset="0.25367" stop-color="#F5F0E9"/>
<stop offset="1" stop-color="#A40B0D"/>
</linearGradient>
<linearGradient id="paint42_linear_360_231" x1="47.5469" y1="316.402" x2="45.6234" y2="303.122" gradientUnits="userSpaceOnUse">
<stop offset="0.25367" stop-color="#F5F0E9"/>
<stop offset="1" stop-color="#A40B0D"/>
</linearGradient>
<linearGradient id="paint43_linear_360_231" x1="134.547" y1="316.402" x2="132.623" y2="303.122" gradientUnits="userSpaceOnUse">
<stop offset="0.25367" stop-color="#F5F0E9"/>
<stop offset="1" stop-color="#A40B0D"/>
</linearGradient>
<linearGradient id="paint44_linear_360_231" x1="134.547" y1="383.402" x2="132.623" y2="370.122" gradientUnits="userSpaceOnUse">
<stop offset="0.25367" stop-color="#F5F0E9"/>
<stop offset="1" stop-color="#A40B0D"/>
</linearGradient>
<linearGradient id="paint45_linear_360_231" x1="226.5" y1="-39" x2="-32" y2="550.5" gradientUnits="userSpaceOnUse">
<stop offset="0.343675" stop-color="#41578C"/>
<stop offset="0.619653" stop-opacity="0"/>
</linearGradient>
<linearGradient id="paint46_linear_360_231" x1="137.571" y1="84.4565" x2="112.677" y2="-31.4607" gradientUnits="userSpaceOnUse">
<stop stop-opacity="0"/>
<stop offset="0.759885" stop-color="#41578C"/>
</linearGradient>
<linearGradient id="paint47_linear_360_231" x1="139.702" y1="66.8506" x2="180.365" y2="-17.8105" gradientUnits="userSpaceOnUse">
<stop offset="0.00403997" stop-opacity="0"/>
<stop offset="0.917128" stop-color="#41578C"/>
</linearGradient>
</defs>
</svg>
