<svg width="115" height="268" viewBox="0 0 115 268" fill="none" xmlns="http://www.w3.org/2000/svg">
<path d="M8.34465e-07 57.7641L1.68765e-06 53.4853L1.68765e-06 18.7198H76.8166V53.4853V83.437L76.8166 267.426H49.308H8.34465e-07L8.34465e-07 57.7641Z" fill="#191313"/>
<path d="M8.34465e-07 57.7641L1.68765e-06 53.4853L1.68765e-06 18.7198H76.8166V53.4853V83.437L76.8166 267.426H49.308H8.34465e-07L8.34465e-07 57.7641Z" fill="url(#paint0_linear_112_389)"/>
<rect x="4.15226" y="27.2775" width="6.22837" height="6.95308" fill="#D9D9D9"/>
<rect x="4.15226" y="27.2775" width="6.22837" height="6.95308" fill="url(#paint1_linear_112_389)"/>
<rect x="19.2042" y="27.2775" width="6.22837" height="6.95308" fill="#D9D9D9"/>
<rect x="19.2042" y="27.2775" width="6.22837" height="6.95308" fill="url(#paint2_linear_112_389)"/>
<rect x="34.2561" y="27.2775" width="6.22837" height="6.95308" fill="#D9D9D9"/>
<rect x="34.2561" y="27.2775" width="6.22837" height="6.95308" fill="url(#paint3_linear_112_389)"/>
<rect x="49.308" y="27.2775" width="6.22837" height="6.95308" fill="#D9D9D9"/>
<rect x="49.308" y="27.2775" width="6.22837" height="6.95308" fill="url(#paint4_linear_112_389)"/>
<rect x="64.3599" y="27.2775" width="6.22837" height="6.95308" fill="#D9D9D9"/>
<rect x="64.3599" y="27.2775" width="6.22837" height="6.95308" fill="url(#paint5_linear_112_389)"/>
<rect x="4.15226" y="44.3928" width="6.22837" height="6.95308" fill="#D9D9D9"/>
<rect x="4.15226" y="44.3928" width="6.22837" height="6.95308" fill="url(#paint6_linear_112_389)"/>
<rect x="19.2042" y="44.3928" width="6.22837" height="6.95308" fill="#D9D9D9"/>
<rect x="19.2042" y="44.3928" width="6.22837" height="6.95308" fill="url(#paint7_linear_112_389)"/>
<rect x="34.2561" y="44.3928" width="6.22837" height="6.95308" fill="#D9D9D9"/>
<rect x="34.2561" y="44.3928" width="6.22837" height="6.95308" fill="url(#paint8_linear_112_389)"/>
<rect x="49.308" y="44.3928" width="6.22837" height="6.95308" fill="#D9D9D9"/>
<rect x="49.308" y="44.3928" width="6.22837" height="6.95308" fill="url(#paint9_linear_112_389)"/>
<rect x="64.3599" y="44.3928" width="6.22837" height="6.95308" fill="#D9D9D9"/>
<rect x="64.3599" y="44.3928" width="6.22837" height="6.95308" fill="url(#paint10_linear_112_389)"/>
<rect x="4.15225" y="61.5081" width="6.22837" height="6.95308" fill="#D9D9D9"/>
<rect x="4.15225" y="61.5081" width="6.22837" height="6.95308" fill="url(#paint11_linear_112_389)"/>
<rect x="19.2042" y="61.5081" width="6.22837" height="6.95308" fill="#D9D9D9"/>
<rect x="19.2042" y="61.5081" width="6.22837" height="6.95308" fill="url(#paint12_linear_112_389)"/>
<rect x="34.2561" y="61.5081" width="6.22837" height="6.95308" fill="#D9D9D9"/>
<rect x="34.2561" y="61.5081" width="6.22837" height="6.95308" fill="url(#paint13_linear_112_389)"/>
<rect x="49.308" y="61.5081" width="6.22837" height="6.95308" fill="#D9D9D9"/>
<rect x="49.308" y="61.5081" width="6.22837" height="6.95308" fill="url(#paint14_linear_112_389)"/>
<rect x="64.3599" y="61.5081" width="6.22837" height="6.95308" fill="#D9D9D9"/>
<rect x="64.3599" y="61.5081" width="6.22837" height="6.95308" fill="url(#paint15_linear_112_389)"/>
<rect x="4.15226" y="78.6234" width="6.22837" height="6.95308" fill="#D9D9D9"/>
<rect x="4.15226" y="78.6234" width="6.22837" height="6.95308" fill="url(#paint16_linear_112_389)"/>
<rect x="19.2042" y="78.6234" width="6.22837" height="6.95308" fill="#D9D9D9"/>
<rect x="19.2042" y="78.6234" width="6.22837" height="6.95308" fill="url(#paint17_linear_112_389)"/>
<rect x="34.2561" y="78.6234" width="6.22837" height="6.95308" fill="#D9D9D9"/>
<rect x="34.2561" y="78.6234" width="6.22837" height="6.95308" fill="url(#paint18_linear_112_389)"/>
<rect x="49.308" y="78.6234" width="6.22837" height="6.95308" fill="#D9D9D9"/>
<rect x="49.308" y="78.6234" width="6.22837" height="6.95308" fill="url(#paint19_linear_112_389)"/>
<rect x="64.3599" y="78.6234" width="6.22837" height="6.95308" fill="#D9D9D9"/>
<rect x="64.3599" y="78.6234" width="6.22837" height="6.95308" fill="url(#paint20_linear_112_389)"/>
<rect x="4.15225" y="95.7386" width="6.22837" height="6.95308" fill="#D9D9D9"/>
<rect x="4.15225" y="95.7386" width="6.22837" height="6.95308" fill="url(#paint21_linear_112_389)"/>
<rect x="19.2042" y="95.7386" width="6.22837" height="6.95308" fill="#D9D9D9"/>
<rect x="19.2042" y="95.7386" width="6.22837" height="6.95308" fill="url(#paint22_linear_112_389)"/>
<rect x="34.2561" y="95.7385" width="6.22837" height="6.95308" fill="#D9D9D9"/>
<rect x="34.2561" y="95.7385" width="6.22837" height="6.95308" fill="url(#paint23_linear_112_389)"/>
<rect x="49.308" y="95.7386" width="6.22837" height="6.95308" fill="#D9D9D9"/>
<rect x="49.308" y="95.7386" width="6.22837" height="6.95308" fill="url(#paint24_linear_112_389)"/>
<rect x="64.3599" y="95.7386" width="6.22837" height="6.95308" fill="#D9D9D9"/>
<rect x="64.3599" y="95.7386" width="6.22837" height="6.95308" fill="url(#paint25_linear_112_389)"/>
<rect x="4.15225" y="61.5081" width="6.22837" height="6.95308" fill="#D9D9D9"/>
<rect x="4.15225" y="61.5081" width="6.22837" height="6.95308" fill="url(#paint26_linear_112_389)"/>
<rect x="19.2042" y="61.5081" width="6.22837" height="6.95308" fill="#D9D9D9"/>
<rect x="19.2042" y="61.5081" width="6.22837" height="6.95308" fill="url(#paint27_linear_112_389)"/>
<rect x="34.2561" y="61.5081" width="6.22837" height="6.95308" fill="#D9D9D9"/>
<rect x="34.2561" y="61.5081" width="6.22837" height="6.95308" fill="url(#paint28_linear_112_389)"/>
<rect x="49.308" y="61.5081" width="6.22837" height="6.95308" fill="#D9D9D9"/>
<rect x="49.308" y="61.5081" width="6.22837" height="6.95308" fill="url(#paint29_linear_112_389)"/>
<rect x="64.3599" y="61.5081" width="6.22837" height="6.95308" fill="#D9D9D9"/>
<rect x="64.3599" y="61.5081" width="6.22837" height="6.95308" fill="url(#paint30_linear_112_389)"/>
<rect x="64.3599" y="95.7386" width="6.22837" height="6.95308" fill="#D9D9D9"/>
<rect x="64.3599" y="95.7386" width="6.22837" height="6.95308" fill="url(#paint31_linear_112_389)"/>
<rect x="4.15225" y="129.969" width="6.22837" height="6.95308" fill="#D9D9D9"/>
<rect x="4.15225" y="129.969" width="6.22837" height="6.95308" fill="url(#paint32_linear_112_389)"/>
<rect x="19.2042" y="129.969" width="6.22837" height="6.95308" fill="#D9D9D9"/>
<rect x="19.2042" y="129.969" width="6.22837" height="6.95308" fill="url(#paint33_linear_112_389)"/>
<rect x="34.2561" y="129.969" width="6.22837" height="6.95308" fill="#D9D9D9"/>
<rect x="34.2561" y="129.969" width="6.22837" height="6.95308" fill="url(#paint34_linear_112_389)"/>
<rect x="49.308" y="129.969" width="6.22837" height="6.95308" fill="#D9D9D9"/>
<rect x="49.308" y="129.969" width="6.22837" height="6.95308" fill="url(#paint35_linear_112_389)"/>
<rect x="4.15226" y="147.084" width="6.22837" height="6.95308" fill="#D9D9D9"/>
<rect x="4.15226" y="147.084" width="6.22837" height="6.95308" fill="url(#paint36_linear_112_389)"/>
<rect x="19.2042" y="147.084" width="6.22837" height="6.95308" fill="#D9D9D9"/>
<rect x="19.2042" y="147.084" width="6.22837" height="6.95308" fill="url(#paint37_linear_112_389)"/>
<rect x="34.2561" y="147.084" width="6.22837" height="6.95308" fill="#D9D9D9"/>
<rect x="34.2561" y="147.084" width="6.22837" height="6.95308" fill="url(#paint38_linear_112_389)"/>
<rect x="49.308" y="147.084" width="6.22837" height="6.95308" fill="#D9D9D9"/>
<rect x="49.308" y="147.084" width="6.22837" height="6.95308" fill="url(#paint39_linear_112_389)"/>
<rect x="4.15225" y="112.854" width="6.22837" height="6.95308" fill="#D9D9D9"/>
<rect x="4.15225" y="112.854" width="6.22837" height="6.95308" fill="url(#paint40_linear_112_389)"/>
<rect x="19.2042" y="112.854" width="6.22837" height="6.95308" fill="#D9D9D9"/>
<rect x="19.2042" y="112.854" width="6.22837" height="6.95308" fill="url(#paint41_linear_112_389)"/>
<rect x="34.2561" y="112.854" width="6.22837" height="6.95308" fill="#D9D9D9"/>
<rect x="34.2561" y="112.854" width="6.22837" height="6.95308" fill="url(#paint42_linear_112_389)"/>
<rect x="49.308" y="112.854" width="6.22837" height="6.95308" fill="#D9D9D9"/>
<rect x="49.308" y="112.854" width="6.22837" height="6.95308" fill="url(#paint43_linear_112_389)"/>
<rect x="64.3599" y="112.854" width="6.22837" height="6.95308" fill="#D9D9D9"/>
<rect x="64.3599" y="112.854" width="6.22837" height="6.95308" fill="url(#paint44_linear_112_389)"/>
<rect x="64.3599" y="130.504" width="6.22837" height="6.95308" fill="#D9D9D9"/>
<rect x="64.3599" y="130.504" width="6.22837" height="6.95308" fill="url(#paint45_linear_112_389)"/>
<rect x="64.3599" y="182.92" width="6.22837" height="6.95308" fill="#D9D9D9"/>
<rect x="64.3599" y="182.92" width="6.22837" height="6.95308" fill="url(#paint46_linear_112_389)"/>
<rect x="64.3599" y="147.084" width="6.22837" height="6.95308" fill="#D9D9D9"/>
<rect x="64.3599" y="147.084" width="6.22837" height="6.95308" fill="url(#paint47_linear_112_389)"/>
<rect x="4.15226" y="181.315" width="6.22837" height="6.95308" fill="#D9D9D9"/>
<rect x="4.15226" y="181.315" width="6.22837" height="6.95308" fill="url(#paint48_linear_112_389)"/>
<rect x="19.2042" y="181.315" width="6.22837" height="6.95308" fill="#D9D9D9"/>
<rect x="19.2042" y="181.315" width="6.22837" height="6.95308" fill="url(#paint49_linear_112_389)"/>
<rect x="34.2561" y="181.315" width="6.22837" height="6.95308" fill="#D9D9D9"/>
<rect x="34.2561" y="181.315" width="6.22837" height="6.95308" fill="url(#paint50_linear_112_389)"/>
<rect x="49.308" y="181.315" width="6.22837" height="6.95308" fill="#D9D9D9"/>
<rect x="49.308" y="181.315" width="6.22837" height="6.95308" fill="url(#paint51_linear_112_389)"/>
<rect x="4.15226" y="200.035" width="6.22837" height="6.95308" fill="#D9D9D9"/>
<rect x="4.15226" y="200.035" width="6.22837" height="6.95308" fill="url(#paint52_linear_112_389)"/>
<rect x="19.2042" y="200.035" width="6.22837" height="6.95308" fill="#D9D9D9"/>
<rect x="19.2042" y="200.035" width="6.22837" height="6.95308" fill="url(#paint53_linear_112_389)"/>
<rect x="34.2561" y="200.035" width="6.22837" height="6.95308" fill="#D9D9D9"/>
<rect x="34.2561" y="200.035" width="6.22837" height="6.95308" fill="url(#paint54_linear_112_389)"/>
<rect x="49.308" y="200.035" width="6.22837" height="6.95308" fill="#D9D9D9"/>
<rect x="49.308" y="200.035" width="6.22837" height="6.95308" fill="url(#paint55_linear_112_389)"/>
<rect x="4.15226" y="164.2" width="6.22837" height="6.95308" fill="#D9D9D9"/>
<rect x="4.15226" y="164.2" width="6.22837" height="6.95308" fill="url(#paint56_linear_112_389)"/>
<rect x="19.2042" y="164.2" width="6.22837" height="6.95308" fill="#D9D9D9"/>
<rect x="19.2042" y="164.2" width="6.22837" height="6.95308" fill="url(#paint57_linear_112_389)"/>
<rect x="34.2561" y="164.2" width="6.22837" height="6.95308" fill="#D9D9D9"/>
<rect x="34.2561" y="164.2" width="6.22837" height="6.95308" fill="url(#paint58_linear_112_389)"/>
<rect x="49.308" y="164.2" width="6.22837" height="6.95308" fill="#D9D9D9"/>
<rect x="49.308" y="164.2" width="6.22837" height="6.95308" fill="url(#paint59_linear_112_389)"/>
<rect x="64.3599" y="164.2" width="6.22837" height="6.95308" fill="#D9D9D9"/>
<rect x="64.3599" y="164.2" width="6.22837" height="6.95308" fill="url(#paint60_linear_112_389)"/>
<rect x="64.3599" y="200.035" width="6.22837" height="6.95308" fill="#D9D9D9"/>
<rect x="64.3599" y="200.035" width="6.22837" height="6.95308" fill="url(#paint61_linear_112_389)"/>
<path d="M76.8166 18.7198L114.446 35.6771L114.706 267.426H94.9827H89.2734H76.8166V18.7198Z" fill="#191313"/>
<path d="M76.8166 18.7198L114.446 35.6771L114.706 267.426H94.9827H89.2734H76.8166V18.7198Z" fill="url(#paint62_linear_112_389)" fill-opacity="0.2"/>
<rect x="25.4325" width="48.2699" height="18.7198" fill="#191313"/>
<rect x="25.4325" width="48.2699" height="18.7198" fill="url(#paint63_linear_112_389)" fill-opacity="0.2"/>
<path d="M73.7024 0L101.73 14.1672V29.9517L77.0761 18.7198H73.7024V0Z" fill="#191313"/>
<path d="M73.7024 0L101.73 14.1672V29.9517L77.0761 18.7198H73.7024V0Z" fill="url(#paint64_linear_112_389)" fill-opacity="0.2"/>
<defs>
<linearGradient id="paint0_linear_112_389" x1="44.1177" y1="220.894" x2="10.5053" y2="-299.124" gradientUnits="userSpaceOnUse">
<stop stop-color="#41578C" stop-opacity="0"/>
<stop offset="1" stop-color="#41578C"/>
</linearGradient>
<linearGradient id="paint1_linear_112_389" x1="9.62642" y1="32.3061" x2="8.56764" y2="25.2124" gradientUnits="userSpaceOnUse">
<stop offset="0.25367" stop-color="#F5F0E9"/>
<stop offset="1" stop-color="#A40B0D"/>
</linearGradient>
<linearGradient id="paint2_linear_112_389" x1="24.6783" y1="32.3061" x2="23.6195" y2="25.2124" gradientUnits="userSpaceOnUse">
<stop offset="0.25367" stop-color="#F5F0E9"/>
<stop offset="1" stop-color="#A40B0D"/>
</linearGradient>
<linearGradient id="paint3_linear_112_389" x1="39.7302" y1="32.3061" x2="38.6714" y2="25.2124" gradientUnits="userSpaceOnUse">
<stop offset="0.25367" stop-color="#F5F0E9"/>
<stop offset="1" stop-color="#A40B0D"/>
</linearGradient>
<linearGradient id="paint4_linear_112_389" x1="54.7821" y1="32.306" x2="53.7233" y2="25.2124" gradientUnits="userSpaceOnUse">
<stop offset="0.25367" stop-color="#F5F0E9"/>
<stop offset="1" stop-color="#A40B0D"/>
</linearGradient>
<linearGradient id="paint5_linear_112_389" x1="69.834" y1="32.306" x2="68.7752" y2="25.2124" gradientUnits="userSpaceOnUse">
<stop offset="0.25367" stop-color="#F5F0E9"/>
<stop offset="1" stop-color="#A40B0D"/>
</linearGradient>
<linearGradient id="paint6_linear_112_389" x1="9.62642" y1="49.4214" x2="8.56764" y2="42.3277" gradientUnits="userSpaceOnUse">
<stop offset="0.25367" stop-color="#F5F0E9"/>
<stop offset="1" stop-color="#A40B0D"/>
</linearGradient>
<linearGradient id="paint7_linear_112_389" x1="24.6783" y1="49.4213" x2="23.6195" y2="42.3277" gradientUnits="userSpaceOnUse">
<stop offset="0.25367" stop-color="#F5F0E9"/>
<stop offset="1" stop-color="#A40B0D"/>
</linearGradient>
<linearGradient id="paint8_linear_112_389" x1="39.7302" y1="49.4213" x2="38.6714" y2="42.3277" gradientUnits="userSpaceOnUse">
<stop offset="0.25367" stop-color="#F5F0E9"/>
<stop offset="1" stop-color="#A40B0D"/>
</linearGradient>
<linearGradient id="paint9_linear_112_389" x1="54.7821" y1="49.4213" x2="53.7233" y2="42.3277" gradientUnits="userSpaceOnUse">
<stop offset="0.25367" stop-color="#F5F0E9"/>
<stop offset="1" stop-color="#A40B0D"/>
</linearGradient>
<linearGradient id="paint10_linear_112_389" x1="69.834" y1="49.4213" x2="68.7752" y2="42.3277" gradientUnits="userSpaceOnUse">
<stop offset="0.25367" stop-color="#F5F0E9"/>
<stop offset="1" stop-color="#A40B0D"/>
</linearGradient>
<linearGradient id="paint11_linear_112_389" x1="9.62641" y1="66.5367" x2="8.56763" y2="59.443" gradientUnits="userSpaceOnUse">
<stop offset="0.25367" stop-color="#F5F0E9"/>
<stop offset="1" stop-color="#A40B0D"/>
</linearGradient>
<linearGradient id="paint12_linear_112_389" x1="24.6783" y1="66.5366" x2="23.6195" y2="59.443" gradientUnits="userSpaceOnUse">
<stop offset="0.25367" stop-color="#F5F0E9"/>
<stop offset="1" stop-color="#A40B0D"/>
</linearGradient>
<linearGradient id="paint13_linear_112_389" x1="39.7302" y1="66.5367" x2="38.6714" y2="59.443" gradientUnits="userSpaceOnUse">
<stop offset="0.25367" stop-color="#F5F0E9"/>
<stop offset="1" stop-color="#A40B0D"/>
</linearGradient>
<linearGradient id="paint14_linear_112_389" x1="54.7821" y1="66.5367" x2="53.7234" y2="59.443" gradientUnits="userSpaceOnUse">
<stop offset="0.25367" stop-color="#F5F0E9"/>
<stop offset="1" stop-color="#A40B0D"/>
</linearGradient>
<linearGradient id="paint15_linear_112_389" x1="69.834" y1="66.5367" x2="68.7752" y2="59.443" gradientUnits="userSpaceOnUse">
<stop offset="0.25367" stop-color="#F5F0E9"/>
<stop offset="1" stop-color="#A40B0D"/>
</linearGradient>
<linearGradient id="paint16_linear_112_389" x1="9.62641" y1="83.6519" x2="8.56764" y2="76.5583" gradientUnits="userSpaceOnUse">
<stop offset="0.25367" stop-color="#F5F0E9"/>
<stop offset="1" stop-color="#A40B0D"/>
</linearGradient>
<linearGradient id="paint17_linear_112_389" x1="24.6783" y1="83.6519" x2="23.6195" y2="76.5583" gradientUnits="userSpaceOnUse">
<stop offset="0.25367" stop-color="#F5F0E9"/>
<stop offset="1" stop-color="#A40B0D"/>
</linearGradient>
<linearGradient id="paint18_linear_112_389" x1="39.7302" y1="83.6519" x2="38.6714" y2="76.5583" gradientUnits="userSpaceOnUse">
<stop offset="0.25367" stop-color="#F5F0E9"/>
<stop offset="1" stop-color="#A40B0D"/>
</linearGradient>
<linearGradient id="paint19_linear_112_389" x1="54.7821" y1="83.6519" x2="53.7233" y2="76.5583" gradientUnits="userSpaceOnUse">
<stop offset="0.25367" stop-color="#F5F0E9"/>
<stop offset="1" stop-color="#A40B0D"/>
</linearGradient>
<linearGradient id="paint20_linear_112_389" x1="69.834" y1="83.6519" x2="68.7752" y2="76.5583" gradientUnits="userSpaceOnUse">
<stop offset="0.25367" stop-color="#F5F0E9"/>
<stop offset="1" stop-color="#A40B0D"/>
</linearGradient>
<linearGradient id="paint21_linear_112_389" x1="9.6264" y1="100.767" x2="8.56763" y2="93.6735" gradientUnits="userSpaceOnUse">
<stop offset="0.25367" stop-color="#F5F0E9"/>
<stop offset="1" stop-color="#A40B0D"/>
</linearGradient>
<linearGradient id="paint22_linear_112_389" x1="24.6783" y1="100.767" x2="23.6195" y2="93.6735" gradientUnits="userSpaceOnUse">
<stop offset="0.25367" stop-color="#F5F0E9"/>
<stop offset="1" stop-color="#A40B0D"/>
</linearGradient>
<linearGradient id="paint23_linear_112_389" x1="39.7302" y1="100.767" x2="38.6714" y2="93.6734" gradientUnits="userSpaceOnUse">
<stop offset="0.25367" stop-color="#F5F0E9"/>
<stop offset="1" stop-color="#A40B0D"/>
</linearGradient>
<linearGradient id="paint24_linear_112_389" x1="54.7821" y1="100.767" x2="53.7233" y2="93.6735" gradientUnits="userSpaceOnUse">
<stop offset="0.25367" stop-color="#F5F0E9"/>
<stop offset="1" stop-color="#A40B0D"/>
</linearGradient>
<linearGradient id="paint25_linear_112_389" x1="69.834" y1="100.767" x2="68.7752" y2="93.6735" gradientUnits="userSpaceOnUse">
<stop offset="0.25367" stop-color="#F5F0E9"/>
<stop offset="1" stop-color="#A40B0D"/>
</linearGradient>
<linearGradient id="paint26_linear_112_389" x1="9.62641" y1="66.5367" x2="8.56763" y2="59.443" gradientUnits="userSpaceOnUse">
<stop offset="0.25367" stop-color="#F5F0E9"/>
<stop offset="1" stop-color="#A40B0D"/>
</linearGradient>
<linearGradient id="paint27_linear_112_389" x1="24.6783" y1="66.5366" x2="23.6195" y2="59.443" gradientUnits="userSpaceOnUse">
<stop offset="0.25367" stop-color="#F5F0E9"/>
<stop offset="1" stop-color="#A40B0D"/>
</linearGradient>
<linearGradient id="paint28_linear_112_389" x1="39.7302" y1="66.5367" x2="38.6714" y2="59.443" gradientUnits="userSpaceOnUse">
<stop offset="0.25367" stop-color="#F5F0E9"/>
<stop offset="1" stop-color="#A40B0D"/>
</linearGradient>
<linearGradient id="paint29_linear_112_389" x1="54.7821" y1="66.5367" x2="53.7234" y2="59.443" gradientUnits="userSpaceOnUse">
<stop offset="0.25367" stop-color="#F5F0E9"/>
<stop offset="1" stop-color="#A40B0D"/>
</linearGradient>
<linearGradient id="paint30_linear_112_389" x1="69.834" y1="66.5367" x2="68.7752" y2="59.443" gradientUnits="userSpaceOnUse">
<stop offset="0.25367" stop-color="#F5F0E9"/>
<stop offset="1" stop-color="#A40B0D"/>
</linearGradient>
<linearGradient id="paint31_linear_112_389" x1="69.834" y1="100.767" x2="68.7752" y2="93.6735" gradientUnits="userSpaceOnUse">
<stop offset="0.25367" stop-color="#F5F0E9"/>
<stop offset="1" stop-color="#A40B0D"/>
</linearGradient>
<linearGradient id="paint32_linear_112_389" x1="9.62641" y1="134.998" x2="8.56763" y2="127.904" gradientUnits="userSpaceOnUse">
<stop offset="0.25367" stop-color="#F5F0E9"/>
<stop offset="1" stop-color="#A40B0D"/>
</linearGradient>
<linearGradient id="paint33_linear_112_389" x1="24.6783" y1="134.998" x2="23.6195" y2="127.904" gradientUnits="userSpaceOnUse">
<stop offset="0.25367" stop-color="#F5F0E9"/>
<stop offset="1" stop-color="#A40B0D"/>
</linearGradient>
<linearGradient id="paint34_linear_112_389" x1="39.7302" y1="134.998" x2="38.6714" y2="127.904" gradientUnits="userSpaceOnUse">
<stop offset="0.25367" stop-color="#F5F0E9"/>
<stop offset="1" stop-color="#A40B0D"/>
</linearGradient>
<linearGradient id="paint35_linear_112_389" x1="54.7821" y1="134.998" x2="53.7233" y2="127.904" gradientUnits="userSpaceOnUse">
<stop offset="0.25367" stop-color="#F5F0E9"/>
<stop offset="1" stop-color="#A40B0D"/>
</linearGradient>
<linearGradient id="paint36_linear_112_389" x1="9.62641" y1="152.113" x2="8.56764" y2="145.019" gradientUnits="userSpaceOnUse">
<stop offset="0.25367" stop-color="#F5F0E9"/>
<stop offset="1" stop-color="#A40B0D"/>
</linearGradient>
<linearGradient id="paint37_linear_112_389" x1="24.6783" y1="152.113" x2="23.6195" y2="145.019" gradientUnits="userSpaceOnUse">
<stop offset="0.25367" stop-color="#F5F0E9"/>
<stop offset="1" stop-color="#A40B0D"/>
</linearGradient>
<linearGradient id="paint38_linear_112_389" x1="39.7302" y1="152.113" x2="38.6714" y2="145.019" gradientUnits="userSpaceOnUse">
<stop offset="0.25367" stop-color="#F5F0E9"/>
<stop offset="1" stop-color="#A40B0D"/>
</linearGradient>
<linearGradient id="paint39_linear_112_389" x1="54.7821" y1="152.113" x2="53.7233" y2="145.019" gradientUnits="userSpaceOnUse">
<stop offset="0.25367" stop-color="#F5F0E9"/>
<stop offset="1" stop-color="#A40B0D"/>
</linearGradient>
<linearGradient id="paint40_linear_112_389" x1="9.62641" y1="117.882" x2="8.56763" y2="110.789" gradientUnits="userSpaceOnUse">
<stop offset="0.25367" stop-color="#F5F0E9"/>
<stop offset="1" stop-color="#A40B0D"/>
</linearGradient>
<linearGradient id="paint41_linear_112_389" x1="24.6783" y1="117.882" x2="23.6195" y2="110.789" gradientUnits="userSpaceOnUse">
<stop offset="0.25367" stop-color="#F5F0E9"/>
<stop offset="1" stop-color="#A40B0D"/>
</linearGradient>
<linearGradient id="paint42_linear_112_389" x1="39.7302" y1="117.882" x2="38.6714" y2="110.789" gradientUnits="userSpaceOnUse">
<stop offset="0.25367" stop-color="#F5F0E9"/>
<stop offset="1" stop-color="#A40B0D"/>
</linearGradient>
<linearGradient id="paint43_linear_112_389" x1="54.7821" y1="117.883" x2="53.7233" y2="110.789" gradientUnits="userSpaceOnUse">
<stop offset="0.25367" stop-color="#F5F0E9"/>
<stop offset="1" stop-color="#A40B0D"/>
</linearGradient>
<linearGradient id="paint44_linear_112_389" x1="69.834" y1="117.882" x2="68.7752" y2="110.789" gradientUnits="userSpaceOnUse">
<stop offset="0.25367" stop-color="#F5F0E9"/>
<stop offset="1" stop-color="#A40B0D"/>
</linearGradient>
<linearGradient id="paint45_linear_112_389" x1="69.834" y1="135.533" x2="68.7752" y2="128.439" gradientUnits="userSpaceOnUse">
<stop offset="0.25367" stop-color="#F5F0E9"/>
<stop offset="1" stop-color="#A40B0D"/>
</linearGradient>
<linearGradient id="paint46_linear_112_389" x1="69.834" y1="187.948" x2="68.7752" y2="180.854" gradientUnits="userSpaceOnUse">
<stop offset="0.25367" stop-color="#F5F0E9"/>
<stop offset="1" stop-color="#A40B0D"/>
</linearGradient>
<linearGradient id="paint47_linear_112_389" x1="69.834" y1="152.113" x2="68.7752" y2="145.019" gradientUnits="userSpaceOnUse">
<stop offset="0.25367" stop-color="#F5F0E9"/>
<stop offset="1" stop-color="#A40B0D"/>
</linearGradient>
<linearGradient id="paint48_linear_112_389" x1="9.62641" y1="186.344" x2="8.56764" y2="179.25" gradientUnits="userSpaceOnUse">
<stop offset="0.25367" stop-color="#F5F0E9"/>
<stop offset="1" stop-color="#A40B0D"/>
</linearGradient>
<linearGradient id="paint49_linear_112_389" x1="24.6783" y1="186.344" x2="23.6195" y2="179.25" gradientUnits="userSpaceOnUse">
<stop offset="0.25367" stop-color="#F5F0E9"/>
<stop offset="1" stop-color="#A40B0D"/>
</linearGradient>
<linearGradient id="paint50_linear_112_389" x1="39.7302" y1="186.344" x2="38.6714" y2="179.25" gradientUnits="userSpaceOnUse">
<stop offset="0.25367" stop-color="#F5F0E9"/>
<stop offset="1" stop-color="#A40B0D"/>
</linearGradient>
<linearGradient id="paint51_linear_112_389" x1="54.7821" y1="186.344" x2="53.7233" y2="179.25" gradientUnits="userSpaceOnUse">
<stop offset="0.25367" stop-color="#F5F0E9"/>
<stop offset="1" stop-color="#A40B0D"/>
</linearGradient>
<linearGradient id="paint52_linear_112_389" x1="9.62642" y1="205.063" x2="8.56764" y2="197.97" gradientUnits="userSpaceOnUse">
<stop offset="0.25367" stop-color="#F5F0E9"/>
<stop offset="1" stop-color="#A40B0D"/>
</linearGradient>
<linearGradient id="paint53_linear_112_389" x1="24.6783" y1="205.063" x2="23.6195" y2="197.97" gradientUnits="userSpaceOnUse">
<stop offset="0.25367" stop-color="#F5F0E9"/>
<stop offset="1" stop-color="#A40B0D"/>
</linearGradient>
<linearGradient id="paint54_linear_112_389" x1="39.7302" y1="205.063" x2="38.6714" y2="197.97" gradientUnits="userSpaceOnUse">
<stop offset="0.25367" stop-color="#F5F0E9"/>
<stop offset="1" stop-color="#A40B0D"/>
</linearGradient>
<linearGradient id="paint55_linear_112_389" x1="54.7821" y1="205.063" x2="53.7233" y2="197.97" gradientUnits="userSpaceOnUse">
<stop offset="0.25367" stop-color="#F5F0E9"/>
<stop offset="1" stop-color="#A40B0D"/>
</linearGradient>
<linearGradient id="paint56_linear_112_389" x1="9.62642" y1="169.228" x2="8.56764" y2="162.135" gradientUnits="userSpaceOnUse">
<stop offset="0.25367" stop-color="#F5F0E9"/>
<stop offset="1" stop-color="#A40B0D"/>
</linearGradient>
<linearGradient id="paint57_linear_112_389" x1="24.6783" y1="169.228" x2="23.6195" y2="162.135" gradientUnits="userSpaceOnUse">
<stop offset="0.25367" stop-color="#F5F0E9"/>
<stop offset="1" stop-color="#A40B0D"/>
</linearGradient>
<linearGradient id="paint58_linear_112_389" x1="39.7302" y1="169.228" x2="38.6714" y2="162.135" gradientUnits="userSpaceOnUse">
<stop offset="0.25367" stop-color="#F5F0E9"/>
<stop offset="1" stop-color="#A40B0D"/>
</linearGradient>
<linearGradient id="paint59_linear_112_389" x1="54.7821" y1="169.228" x2="53.7233" y2="162.135" gradientUnits="userSpaceOnUse">
<stop offset="0.25367" stop-color="#F5F0E9"/>
<stop offset="1" stop-color="#A40B0D"/>
</linearGradient>
<linearGradient id="paint60_linear_112_389" x1="69.834" y1="169.228" x2="68.7752" y2="162.135" gradientUnits="userSpaceOnUse">
<stop offset="0.25367" stop-color="#F5F0E9"/>
<stop offset="1" stop-color="#A40B0D"/>
</linearGradient>
<linearGradient id="paint61_linear_112_389" x1="69.834" y1="205.063" x2="68.7752" y2="197.97" gradientUnits="userSpaceOnUse">
<stop offset="0.25367" stop-color="#F5F0E9"/>
<stop offset="1" stop-color="#A40B0D"/>
</linearGradient>
<linearGradient id="paint62_linear_112_389" x1="117.561" y1="-21.1162" x2="-25.0281" y2="292.398" gradientUnits="userSpaceOnUse">
<stop offset="0.343675" stop-color="#41578C"/>
<stop offset="0.619653" stop-opacity="0"/>
</linearGradient>
<linearGradient id="paint63_linear_112_389" x1="71.4038" y1="45.1718" x2="57.7204" y2="-16.6581" gradientUnits="userSpaceOnUse">
<stop stop-opacity="0"/>
<stop offset="0.759885" stop-color="#41578C"/>
</linearGradient>
<linearGradient id="paint64_linear_112_389" x1="72.5097" y1="35.7552" x2="94.6642" y2="-9.00665" gradientUnits="userSpaceOnUse">
<stop offset="0.00403997" stop-opacity="0"/>
<stop offset="0.917128" stop-color="#41578C"/>
</linearGradient>
</defs>
</svg>
