<svg width="1006" height="185" viewBox="0 0 1006 185" fill="none" xmlns="http://www.w3.org/2000/svg">
<g style="mix-blend-mode:soft-light">
<path d="M1005 25.4466L971.458 25.133C938.042 24.7806 870.958 24.1532 804 37.6703C737.042 51.1878 669.958 78.8495 603 83.943C536.042 89.0361 468.958 71.5617 402 67.6831C335.042 63.8433 267.959 73.6382 201 81.5526C134.043 89.4285 66.9593 95.4619 33.543 98.4396L-6.10352e-05 101.457V152H33.543C66.9593 152 134.043 152 201 152C267.959 152 320 175 402 152C484 129 603 152 603 152C603 152 660 198 786 168C912 138 979.542 178 994 182C1008.46 186 1005 190 1005 152C1005 114 1005 25.4466 1005 25.4466Z" fill="url(#paint0_linear_84_105)"/>
</g>
<path opacity="0.98" d="M691.563 145.709C691.93 145.621 692.225 145.472 692.401 145.288C692.724 144.953 692.948 144.571 693.045 144.161C693.142 144.571 693.365 144.953 693.689 145.289C693.867 145.473 694.16 145.621 694.527 145.71C695.196 145.872 695.955 145.985 696.772 146.033C695.956 146.081 695.196 146.193 694.527 146.356C694.162 146.446 693.865 146.593 693.689 146.777C693.366 147.113 693.142 147.495 693.045 147.905C692.948 147.495 692.725 147.114 692.401 146.777C692.225 146.594 691.93 146.446 691.563 146.357C690.894 146.195 690.134 146.081 689.318 146.033C690.133 145.985 690.894 145.872 691.563 145.709Z" fill="white"/>
<path opacity="0.51" d="M749.947 148.039C749.947 148.271 750.323 148.459 750.784 148.459C751.246 148.459 751.621 148.271 751.621 148.039C751.621 147.806 751.246 147.619 750.784 147.619C750.323 147.619 749.947 147.806 749.947 148.039Z" fill="white"/>
<path opacity="0.54" d="M763.579 142.442C763.963 142.348 764.272 142.193 764.459 142.001C764.798 141.648 765.032 141.248 765.133 140.816C765.236 141.248 765.47 141.649 765.81 142.001C765.996 142.195 766.304 142.349 766.689 142.444C767.392 142.614 768.189 142.732 769.047 142.782C768.191 142.833 767.391 142.95 766.689 143.122C766.306 143.215 765.995 143.37 765.81 143.563C765.47 143.917 765.235 144.317 765.133 144.748C765.032 144.318 764.797 143.917 764.459 143.564C764.272 143.371 763.964 143.216 763.579 143.122C762.876 142.952 762.077 142.833 761.221 142.783C762.077 142.732 762.876 142.613 763.579 142.442Z" fill="white"/>
<path opacity="0.83" d="M815.423 137.248C815.423 137.942 816.544 138.505 817.925 138.505C819.307 138.505 820.428 137.942 820.428 137.248C820.428 136.553 819.307 135.991 817.925 135.991C816.543 135.991 815.423 136.553 815.423 137.248Z" fill="white"/>
<path opacity="0.98" d="M850.928 143.473C850.928 143.96 851.713 144.353 852.679 144.353C853.646 144.353 854.432 143.959 854.432 143.473C854.432 142.988 853.646 142.594 852.679 142.594C851.712 142.594 850.928 142.988 850.928 143.473Z" fill="white"/>
<path opacity="0.64" d="M912.873 151.651C912.873 151.865 913.218 152.039 913.646 152.039C914.074 152.039 914.419 151.865 914.419 151.651C914.419 151.436 914.074 151.262 913.646 151.262C913.218 151.262 912.873 151.436 912.873 151.651Z" fill="white"/>
<path opacity="0.9" d="M962.743 144.992C963.102 144.905 963.39 144.76 963.565 144.58C963.881 144.251 964.1 143.877 964.195 143.474C964.29 143.877 964.509 144.251 964.827 144.58C965.001 144.761 965.289 144.905 965.648 144.994C966.303 145.152 967.048 145.262 967.849 145.31C967.051 145.356 966.303 145.467 965.648 145.626C965.29 145.714 965 145.858 964.827 146.039C964.509 146.368 964.29 146.743 964.195 147.145C964.1 146.743 963.881 146.369 963.565 146.039C963.391 145.859 963.102 145.714 962.743 145.627C962.088 145.468 961.341 145.356 960.54 145.31C961.341 145.263 962.088 145.152 962.743 144.992Z" fill="white"/>
<path opacity="0.53" d="M641.455 125.018C641.455 125.275 641.869 125.484 642.382 125.484C642.893 125.484 643.307 125.275 643.307 125.018C643.307 124.761 642.893 124.553 642.382 124.553C641.869 124.553 641.455 124.761 641.455 125.018Z" fill="white"/>
<path opacity="0.58" d="M687.515 120.323C687.515 120.54 687.865 120.716 688.298 120.716C688.728 120.716 689.077 120.54 689.077 120.323C689.077 120.107 688.728 119.931 688.298 119.931C687.865 119.931 687.515 120.107 687.515 120.323Z" fill="white"/>
<path opacity="0.73" d="M696.184 123.703C696.184 124.151 696.907 124.514 697.8 124.514C698.692 124.514 699.415 124.151 699.415 123.703C699.415 123.255 698.692 122.891 697.8 122.891C696.906 122.891 696.184 123.255 696.184 123.703Z" fill="white"/>
<path opacity="0.58" d="M762.138 137.065C762.138 137.501 762.841 137.854 763.709 137.854C764.576 137.854 765.28 137.501 765.28 137.065C765.28 136.63 764.576 136.276 763.709 136.276C762.841 136.277 762.138 136.63 762.138 137.065Z" fill="white"/>
<path opacity="0.72" d="M791.523 123.703C791.523 124.479 792.776 125.108 794.321 125.108C795.865 125.108 797.119 124.479 797.119 123.703C797.119 122.927 795.866 122.297 794.321 122.297C792.776 122.298 791.523 122.927 791.523 123.703Z" fill="white"/>
<path opacity="0.57" d="M841.705 122.895C841.705 123.58 842.81 124.135 844.174 124.135C845.538 124.135 846.644 123.58 846.644 122.895C846.644 122.209 845.538 121.654 844.174 121.654C842.81 121.654 841.705 122.209 841.705 122.895Z" fill="white"/>
<path opacity="0.64" d="M879.854 124.701C879.854 125.394 880.973 125.956 882.354 125.956C883.734 125.956 884.854 125.394 884.854 124.701C884.854 124.007 883.734 123.445 882.354 123.445C880.973 123.445 879.854 124.007 879.854 124.701Z" fill="white"/>
<path opacity="0.79" d="M941.555 117.623C940.696 117.623 940 117.273 940 116.842C940 116.411 940.696 116.061 941.555 116.061C942.413 116.061 943.109 116.411 943.109 116.842C943.109 117.273 942.413 117.623 941.555 117.623Z" fill="white"/>
<path opacity="0.64" d="M971.235 125.87C971.235 126.327 971.973 126.698 972.884 126.698C973.796 126.698 974.534 126.327 974.534 125.87C974.534 125.412 973.796 125.042 972.884 125.042C971.973 125.042 971.235 125.412 971.235 125.87Z" fill="white"/>
<path opacity="0.58" d="M664.113 116.775C664.113 117.469 665.234 118.032 666.616 118.032C667.998 118.032 669.116 117.469 669.116 116.775C669.116 116.081 667.998 115.519 666.616 115.519C665.234 115.519 664.113 116.081 664.113 116.775Z" fill="white"/>
<path opacity="0.61" d="M729.655 132.26C729.655 132.52 730.074 132.731 730.592 132.731C731.109 132.731 731.528 132.52 731.528 132.26C731.528 132 731.109 131.79 730.592 131.79C730.074 131.79 729.655 132.001 729.655 132.26Z" fill="white"/>
<path opacity="0.8" d="M742.241 121.917C742.241 122.318 742.888 122.644 743.689 122.644C744.488 122.644 745.136 122.319 745.136 121.917C745.136 121.515 744.489 121.19 743.689 121.19C742.889 121.19 742.241 121.515 742.241 121.917Z" fill="white"/>
<path opacity="0.7" d="M764.858 127.76C765.229 127.67 765.527 127.52 765.706 127.334C766.033 126.994 766.26 126.607 766.358 126.192C766.456 126.608 766.682 126.994 767.009 127.334C767.189 127.521 767.486 127.67 767.857 127.76C768.534 127.925 769.304 128.039 770.13 128.088C769.305 128.136 768.534 128.249 767.857 128.414C767.488 128.504 767.187 128.654 767.009 128.84C766.682 129.18 766.455 129.568 766.358 129.983C766.259 129.568 766.033 129.18 765.706 128.841C765.527 128.655 765.229 128.504 764.858 128.414C764.182 128.25 763.411 128.136 762.584 128.088C763.412 128.038 764.182 127.924 764.858 127.76Z" fill="white"/>
<path opacity="0.72" d="M806.651 123.232C806.651 123.483 807.057 123.688 807.558 123.688C808.059 123.688 808.466 123.484 808.466 123.232C808.466 122.98 808.06 122.776 807.558 122.776C807.058 122.776 806.651 122.98 806.651 123.232Z" fill="white"/>
<path opacity="0.85" d="M831.831 131.177C831.831 131.396 832.185 131.574 832.622 131.574C833.059 131.574 833.413 131.397 833.413 131.177C833.413 130.958 833.06 130.78 832.622 130.78C832.185 130.78 831.831 130.958 831.831 131.177Z" fill="white"/>
<path opacity="0.87" d="M853.234 134.788C853.234 135.026 853.617 135.219 854.089 135.219C854.563 135.219 854.946 135.026 854.946 134.788C854.946 134.551 854.563 134.359 854.089 134.359C853.617 134.358 853.234 134.551 853.234 134.788Z" fill="white"/>
<path opacity="0.59" d="M943.091 118.176C943.091 118.391 943.438 118.565 943.866 118.565C944.294 118.565 944.641 118.391 944.641 118.176C944.641 117.961 944.294 117.787 943.866 117.787C943.439 117.787 943.091 117.962 943.091 118.176Z" fill="white"/>
<path opacity="0.5" d="M924.974 104.092C924.974 104.318 925.339 104.502 925.788 104.502C926.239 104.502 926.604 104.318 926.604 104.092C926.604 103.866 926.239 103.682 925.788 103.682C925.339 103.682 924.974 103.866 924.974 104.092Z" fill="white"/>
<path opacity="0.9" d="M973.702 127.204C973.702 127.448 974.096 127.646 974.58 127.646C975.065 127.646 975.458 127.448 975.458 127.204C975.458 126.96 975.065 126.764 974.58 126.764C974.095 126.764 973.702 126.96 973.702 127.204Z" fill="white"/>
<path opacity="0.92" d="M689.309 100.341C689.309 100.853 690.136 101.268 691.154 101.268C692.172 101.268 692.999 100.853 692.999 100.341C692.999 99.8293 692.172 99.4143 691.154 99.4143C690.136 99.4143 689.309 99.8293 689.309 100.341Z" fill="white"/>
<path opacity="0.77" d="M733.997 94.2675C734.365 94.1779 734.663 94.0288 734.841 93.8439C735.167 93.5059 735.392 93.1209 735.488 92.707C735.587 93.1209 735.813 93.5062 736.137 93.8446C736.317 94.0299 736.613 94.1787 736.981 94.2686C737.656 94.4318 738.421 94.5452 739.243 94.594C738.422 94.6424 737.655 94.755 736.981 94.9186C736.614 95.0085 736.315 95.1577 736.137 95.3426C735.813 95.6813 735.586 96.0663 735.488 96.4795C735.391 96.0667 735.167 95.6817 734.841 95.3437C734.663 95.1577 734.365 95.0086 733.997 94.919C733.323 94.7558 732.556 94.6416 731.734 94.5936C732.557 94.5452 733.323 94.4315 733.997 94.2675Z" fill="white"/>
<path opacity="0.68" d="M763.824 109.962C763.824 110.158 764.141 110.317 764.531 110.317C764.921 110.317 765.238 110.158 765.238 109.962C765.238 109.766 764.921 109.607 764.531 109.607C764.141 109.607 763.824 109.766 763.824 109.962Z" fill="white"/>
<path opacity="0.62" d="M802.942 98.8104C802.942 99.519 804.087 100.094 805.5 100.094C806.911 100.094 808.057 99.519 808.057 98.8104C808.057 98.1012 806.911 97.5259 805.5 97.5259C804.087 97.5262 802.942 98.1015 802.942 98.8104Z" fill="white"/>
<path opacity="0.58" d="M867.189 97.3223C867.189 97.5581 867.569 97.7488 868.039 97.7488C868.507 97.7488 868.889 97.5584 868.889 97.3223C868.889 97.0864 868.508 96.8958 868.039 96.8958C867.569 96.8961 867.189 97.0864 867.189 97.3223Z" fill="white"/>
<path opacity="0.94" d="M899.375 96.2391C899.375 96.4934 899.785 96.6992 900.291 96.6992C900.797 96.6992 901.207 96.4934 901.207 96.2391C901.207 95.9849 900.797 95.7791 900.291 95.7791C899.786 95.7791 899.375 95.9849 899.375 96.2391Z" fill="white"/>
<path opacity="0.54" d="M918.846 96.3689C918.846 96.8488 919.623 97.2385 920.579 97.2385C921.536 97.2385 922.312 96.8488 922.312 96.3689C922.312 95.8882 921.536 95.4985 920.579 95.4985C919.623 95.4985 918.846 95.8882 918.846 96.3689Z" fill="white"/>
<path opacity="0.88" d="M959.553 89.6195C960 89.5105 960.36 89.3299 960.577 89.106C960.972 88.6958 961.244 88.2292 961.362 87.7275C961.481 88.2295 961.754 88.6968 962.149 89.1064C962.367 89.3313 962.725 89.5112 963.173 89.6213C963.99 89.8189 964.918 89.9561 965.917 90.0153C964.92 90.0738 963.99 90.2111 963.173 90.4097C962.728 90.5188 962.365 90.6993 962.149 90.9232C961.754 91.3342 961.481 91.8004 961.362 92.3017C961.244 91.8012 960.972 91.3346 960.577 90.9243C960.36 90.6997 960 90.5191 959.553 90.4104C958.736 90.2122 957.806 90.0735 956.809 90.015C957.807 89.9561 958.737 89.8182 959.553 89.6195Z" fill="white"/>
<path opacity="0.73" d="M668.006 81.5679C668.006 82.2533 669.112 82.8095 670.479 82.8095C671.844 82.8095 672.951 82.2533 672.951 81.5679C672.951 80.8817 671.845 80.3259 670.479 80.3259C669.112 80.3259 668.006 80.8817 668.006 81.5679Z" fill="white"/>
<path opacity="0.6" d="M678.357 67.8012C678.357 68.0046 678.686 68.1689 679.089 68.1689C679.494 68.1689 679.823 68.0046 679.823 67.8012C679.823 67.5979 679.494 67.4336 679.089 67.4336C678.686 67.434 678.357 67.5983 678.357 67.8012Z" fill="white"/>
<path opacity="0.84" d="M816.345 76.5489C816.72 76.4579 817.021 76.3066 817.203 76.1184C817.533 75.775 817.762 75.3842 817.86 74.9639C817.96 75.3839 818.189 75.7753 818.52 76.1191C818.702 76.3077 819.002 76.4582 819.377 76.55C820.061 76.7157 820.839 76.8309 821.674 76.8801C820.84 76.9295 820.061 77.0437 819.377 77.2109C819.003 77.3015 818.7 77.4528 818.52 77.641C818.189 77.9848 817.96 78.3759 817.86 78.7959C817.762 78.3762 817.533 77.9855 817.203 77.6421C817.021 77.4539 816.72 77.3022 816.345 77.2116C815.661 77.0455 814.883 76.9299 814.047 76.8804C814.883 76.8309 815.661 76.7154 816.345 76.5489Z" fill="white"/>
<path opacity="0.52" d="M888.29 67.5693C888.29 68.0124 889.004 68.3714 889.887 68.3714C890.768 68.3714 891.483 68.0124 891.483 67.5693C891.483 67.1262 890.768 66.7676 889.887 66.7676C889.005 66.7676 888.29 67.1262 888.29 67.5693Z" fill="white"/>
<path opacity="0.82" d="M905.822 80.802C905.822 81.0122 906.161 81.1827 906.579 81.1827C906.998 81.1827 907.338 81.0122 907.338 80.802C907.338 80.5918 906.998 80.4214 906.579 80.4214C906.161 80.4217 905.822 80.5918 905.822 80.802Z" fill="white"/>
<path opacity="0.98" d="M987.309 79.4876C987.309 79.874 987.933 80.1875 988.703 80.1875C989.474 80.1875 990.098 79.8736 990.098 79.4876C990.098 79.1001 989.474 78.7866 988.703 78.7866C987.934 78.7866 987.309 79.1001 987.309 79.4876Z" fill="white"/>
<path opacity="0.93" d="M834.288 63.9827C834.288 64.2423 834.707 64.4529 835.224 64.4529C835.741 64.4529 836.161 64.2423 836.161 63.9827C836.161 63.7234 835.741 63.5125 835.224 63.5125C834.707 63.5125 834.288 63.723 834.288 63.9827Z" fill="white"/>
<path opacity="0.76" d="M898.415 67.2759C898.415 67.8927 899.412 68.3936 900.641 68.3936C901.869 68.3936 902.865 67.8927 902.865 67.2759C902.865 66.6587 901.869 66.1582 900.641 66.1582C899.412 66.1582 898.415 66.6587 898.415 67.2759Z" fill="white"/>
<path opacity="0.71" d="M955.063 52.7877C955.063 53.0441 955.477 53.2524 955.987 53.2524C956.498 53.2524 956.913 53.0444 956.913 52.7877C956.913 52.5313 956.498 52.3232 955.987 52.3232C955.477 52.3232 955.063 52.5309 955.063 52.7877Z" fill="white"/>
<path opacity="0.53" d="M956.425 50.9815C956.425 51.2306 956.827 51.4322 957.323 51.4322C957.819 51.4322 958.221 51.2306 958.221 50.9815C958.221 50.7326 957.819 50.5308 957.323 50.5308C956.828 50.5308 956.425 50.7326 956.425 50.9815Z" fill="white"/>
<path opacity="0.62" d="M790.053 108.025C790.441 107.931 790.754 107.774 790.942 107.579C791.285 107.223 791.521 106.818 791.623 106.383C791.726 106.818 791.963 107.223 792.306 107.579C792.494 107.775 792.805 107.931 793.194 108.026C793.903 108.198 794.708 108.317 795.575 108.368C794.71 108.419 793.903 108.538 793.194 108.711C792.807 108.805 792.493 108.961 792.306 109.156C791.963 109.513 791.725 109.918 791.623 110.353C791.521 109.918 791.284 109.513 790.942 109.157C790.753 108.962 790.441 108.805 790.053 108.711C789.345 108.539 788.538 108.419 787.671 108.368C788.538 108.317 789.345 108.198 790.053 108.025Z" fill="white"/>
<path opacity="0.95" d="M581.971 80.8619C582.394 80.759 582.735 80.5874 582.941 80.3751C583.315 79.9865 583.573 79.5448 583.684 79.0696C583.796 79.5448 584.056 79.9872 584.43 80.3758C584.635 80.5889 584.975 80.7597 585.399 80.8626C586.173 81.0508 587.053 81.1808 587.998 81.2368C587.054 81.2917 586.173 81.422 585.399 81.6102C584.978 81.7131 584.634 81.8846 584.43 82.097C584.056 82.4867 583.796 82.9283 583.684 83.4029C583.573 82.9287 583.314 82.487 582.941 82.0984C582.735 81.885 582.394 81.7138 581.971 81.6109C581.197 81.4231 580.316 81.292 579.371 81.2368C580.317 81.1808 581.197 81.05 581.971 80.8619Z" fill="white"/>
<path opacity="0.59" d="M866.2 45.428C866.615 45.3272 866.948 45.1597 867.149 44.952C867.515 44.5717 867.768 44.1395 867.877 43.6743C867.987 44.1395 868.241 44.5725 868.607 44.9527C868.808 45.1611 869.141 45.328 869.555 45.4291C870.314 45.6133 871.175 45.7404 872.099 45.7949C871.176 45.8491 870.314 45.9762 869.555 46.1611C869.143 46.2615 868.807 46.4291 868.607 46.6371C868.241 47.0181 867.988 47.4504 867.877 47.9151C867.769 47.4511 867.515 47.0184 867.149 46.6382C866.948 46.4294 866.615 46.2619 866.2 46.1611C865.443 45.9773 864.581 45.8491 863.656 45.7945C864.581 45.74 865.443 45.6122 866.2 45.428Z" fill="white"/>
<path opacity="0.8" d="M898.205 33.0374C898.205 33.6838 899.248 34.2078 900.536 34.2078C901.823 34.2078 902.866 33.6838 902.866 33.0374C902.866 32.391 901.823 31.8669 900.536 31.8669C899.249 31.8666 898.205 32.391 898.205 33.0374Z" fill="white"/>
<path opacity="0.97" d="M956.5 32.633C956.5 32.8609 956.869 33.0461 957.322 33.0461C957.776 33.0461 958.146 32.8612 958.146 32.633C958.146 32.4047 957.776 32.2195 957.322 32.2195C956.869 32.2198 956.5 32.4051 956.5 32.633Z" fill="white"/>
<path opacity="0.82" d="M528.329 137.677C528.329 137.897 528.683 138.075 529.119 138.075C529.555 138.075 529.91 137.897 529.91 137.677C529.91 137.458 529.556 137.281 529.119 137.281C528.683 137.281 528.329 137.458 528.329 137.677Z" fill="white"/>
<path opacity="0.88" d="M498 100.616C498 101.325 499.146 101.9 500.558 101.9C501.971 101.9 503.115 101.325 503.115 100.616C503.115 99.9068 501.971 99.3315 500.558 99.3315C499.146 99.3319 498 99.9072 498 100.616Z" fill="white"/>
<path opacity="0.93" d="M601.626 94.433C601.626 94.6872 602.036 94.8931 602.541 94.8931C603.048 94.8931 603.458 94.6872 603.458 94.433C603.458 94.1788 603.048 93.9729 602.541 93.9729C602.036 93.9729 601.626 94.1788 601.626 94.433Z" fill="white"/>
<path opacity="0.8" d="M617.145 69.7363C617.145 70.1794 617.859 70.5384 618.742 70.5384C619.624 70.5384 620.339 70.1794 620.339 69.7363C620.339 69.2932 619.624 68.9346 618.742 68.9346C617.859 68.9346 617.145 69.2932 617.145 69.7363Z" fill="white"/>
<path opacity="0.75" d="M971.418 25.5457C971.418 26.399 972.795 27.091 974.494 27.091C976.193 27.091 977.57 26.399 977.57 25.5457C977.57 24.6927 976.193 24 974.494 24C972.795 24 971.418 24.6927 971.418 25.5457Z" fill="white"/>
<defs>
<linearGradient id="paint0_linear_84_105" x1="-6.10352e-05" y1="88.5" x2="1005" y2="88.5" gradientUnits="userSpaceOnUse">
<stop stop-color="white"/>
<stop offset="0.13" stop-color="#000072" stop-opacity="0.7"/>
<stop offset="0.3" stop-color="#41578C" stop-opacity="0.7"/>
<stop offset="0.51" stop-color="#A40B0D" stop-opacity="0.7"/>
</linearGradient>
</defs>
</svg>
