<svg width="50" height="56" viewBox="0 0 50 56" fill="none" xmlns="http://www.w3.org/2000/svg">
<g filter="url(#filter0_d_607_1106)">
<path d="M42.8516 12.3271V34.6719L23.5 45.8447L4.14844 34.6719V12.3271L23.5 1.1543L42.8516 12.3271Z" fill="#C0C0C0" stroke="white" stroke-width="2"/>
<g filter="url(#filter1_d_607_1106)">
<path d="M10.152 34V32.104C10.152 30.936 10.352 29.976 10.752 29.224C11.152 28.472 11.72 27.864 12.456 27.4C13.208 26.92 14.112 26.52 15.168 26.2L16.632 25.744C17.288 25.536 17.848 25.28 18.312 24.976C18.792 24.672 19.16 24.296 19.416 23.848C19.672 23.384 19.8 22.848 19.8 22.24V22.144C19.8 21.2 19.48 20.464 18.84 19.936C18.2 19.392 17.36 19.12 16.32 19.12C15.248 19.12 14.376 19.408 13.704 19.984C13.048 20.56 12.72 21.408 12.72 22.528V22.912H10.224V22.552C10.224 21.336 10.488 20.312 11.016 19.48C11.544 18.632 12.272 17.984 13.2 17.536C14.128 17.088 15.168 16.864 16.32 16.864C17.472 16.864 18.496 17.08 19.392 17.512C20.304 17.944 21.016 18.552 21.528 19.336C22.056 20.12 22.32 21.04 22.32 22.096V22.312C22.32 23.4 22.104 24.304 21.672 25.024C21.24 25.744 20.64 26.336 19.872 26.8C19.12 27.264 18.248 27.656 17.256 27.976L15.84 28.408C15.088 28.632 14.48 28.88 14.016 29.152C13.568 29.408 13.232 29.72 13.008 30.088C12.8 30.456 12.696 30.928 12.696 31.504V31.744H22.176V34H10.152Z" fill="#F5F0E9"/>
<path d="M23.912 19V13.084H25.124V13.972H25.316C25.428 13.732 25.628 13.508 25.916 13.3C26.204 13.092 26.632 12.988 27.2 12.988C27.648 12.988 28.044 13.088 28.388 13.288C28.74 13.488 29.016 13.772 29.216 14.14C29.416 14.5 29.516 14.936 29.516 15.448V19H28.28V15.544C28.28 15.032 28.152 14.656 27.896 14.416C27.64 14.168 27.288 14.044 26.84 14.044C26.328 14.044 25.916 14.212 25.604 14.548C25.3 14.884 25.148 15.372 25.148 16.012V19H23.912ZM33.5028 19.168C33.0148 19.168 32.5628 19.048 32.1468 18.808C31.7308 18.568 31.3948 18.224 31.1388 17.776C30.8908 17.32 30.7668 16.772 30.7668 16.132V15.952C30.7668 15.32 30.8908 14.776 31.1388 14.32C31.3868 13.864 31.7188 13.516 32.1348 13.276C32.5508 13.036 33.0068 12.916 33.5028 12.916C33.8868 12.916 34.2068 12.964 34.4628 13.06C34.7268 13.156 34.9428 13.28 35.1108 13.432C35.2788 13.576 35.4068 13.728 35.4948 13.888H35.6868V10.6H36.9228V19H35.7108V18.16H35.5188C35.3668 18.416 35.1348 18.648 34.8228 18.856C34.5188 19.064 34.0788 19.168 33.5028 19.168ZM33.8508 18.088C34.3868 18.088 34.8268 17.916 35.1708 17.572C35.5228 17.228 35.6988 16.736 35.6988 16.096V15.988C35.6988 15.356 35.5268 14.868 35.1828 14.524C34.8388 14.18 34.3948 14.008 33.8508 14.008C33.3228 14.008 32.8828 14.18 32.5308 14.524C32.1868 14.868 32.0148 15.356 32.0148 15.988V16.096C32.0148 16.736 32.1868 17.228 32.5308 17.572C32.8828 17.916 33.3228 18.088 33.8508 18.088Z" fill="#F5F0E9"/>
</g>
</g>
<defs>
<filter id="filter0_d_607_1106" x="1.14844" y="0" width="48.7031" height="56" filterUnits="userSpaceOnUse" color-interpolation-filters="sRGB">
<feFlood flood-opacity="0" result="BackgroundImageFix"/>
<feColorMatrix in="SourceAlpha" type="matrix" values="0 0 0 0 0 0 0 0 0 0 0 0 0 0 0 0 0 0 127 0" result="hardAlpha"/>
<feOffset dx="2" dy="5"/>
<feGaussianBlur stdDeviation="2"/>
<feComposite in2="hardAlpha" operator="out"/>
<feColorMatrix type="matrix" values="0 0 0 0 0 0 0 0 0 0 0 0 0 0 0 0 0 0 0.25 0"/>
<feBlend mode="normal" in2="BackgroundImageFix" result="effect1_dropShadow_607_1106"/>
<feBlend mode="normal" in="SourceGraphic" in2="effect1_dropShadow_607_1106" result="shape"/>
</filter>
<filter id="filter1_d_607_1106" x="9.15186" y="10.6001" width="32.771" height="30.3999" filterUnits="userSpaceOnUse" color-interpolation-filters="sRGB">
<feFlood flood-opacity="0" result="BackgroundImageFix"/>
<feColorMatrix in="SourceAlpha" type="matrix" values="0 0 0 0 0 0 0 0 0 0 0 0 0 0 0 0 0 0 127 0" result="hardAlpha"/>
<feOffset dx="2" dy="4"/>
<feGaussianBlur stdDeviation="1.5"/>
<feComposite in2="hardAlpha" operator="out"/>
<feColorMatrix type="matrix" values="0 0 0 0 0 0 0 0 0 0 0 0 0 0 0 0 0 0 0.25 0"/>
<feBlend mode="normal" in2="BackgroundImageFix" result="effect1_dropShadow_607_1106"/>
<feBlend mode="normal" in="SourceGraphic" in2="effect1_dropShadow_607_1106" result="shape"/>
</filter>
</defs>
</svg>
