<svg width="41" height="47" viewBox="0 0 41 47" fill="none" xmlns="http://www.w3.org/2000/svg">
<path d="M39.7031 12.3271V34.6719L20.3516 45.8447L1 34.6719V12.3271L20.3516 1.1543L39.7031 12.3271Z" fill="#C0C0C0" stroke="white" stroke-width="2"/>
<g filter="url(#filter0_d_0_1)">
<path d="M7.00356 34V32.104C7.00356 30.936 7.20356 29.976 7.60356 29.224C8.00356 28.472 8.57156 27.864 9.30756 27.4C10.0596 26.92 10.9636 26.52 12.0196 26.2L13.4836 25.744C14.1396 25.536 14.6996 25.28 15.1636 24.976C15.6436 24.672 16.0116 24.296 16.2676 23.848C16.5236 23.384 16.6516 22.848 16.6516 22.24V22.144C16.6516 21.2 16.3316 20.464 15.6916 19.936C15.0516 19.392 14.2116 19.12 13.1716 19.12C12.0996 19.12 11.2276 19.408 10.5556 19.984C9.89956 20.56 9.57156 21.408 9.57156 22.528V22.912H7.07556V22.552C7.07556 21.336 7.33956 20.312 7.86756 19.48C8.39556 18.632 9.12356 17.984 10.0516 17.536C10.9796 17.088 12.0196 16.864 13.1716 16.864C14.3236 16.864 15.3476 17.08 16.2436 17.512C17.1556 17.944 17.8676 18.552 18.3796 19.336C18.9076 20.12 19.1716 21.04 19.1716 22.096V22.312C19.1716 23.4 18.9556 24.304 18.5236 25.024C18.0916 25.744 17.4916 26.336 16.7236 26.8C15.9716 27.264 15.0996 27.656 14.1076 27.976L12.6916 28.408C11.9396 28.632 11.3316 28.88 10.8676 29.152C10.4196 29.408 10.0836 29.72 9.85956 30.088C9.65156 30.456 9.54756 30.928 9.54756 31.504V31.744H19.0276V34H7.00356Z" fill="#F5F0E9"/>
<path d="M20.7636 19V13.084H21.9756V13.972H22.1676C22.2796 13.732 22.4796 13.508 22.7676 13.3C23.0556 13.092 23.4836 12.988 24.0516 12.988C24.4996 12.988 24.8956 13.088 25.2396 13.288C25.5916 13.488 25.8676 13.772 26.0676 14.14C26.2676 14.5 26.3676 14.936 26.3676 15.448V19H25.1316V15.544C25.1316 15.032 25.0036 14.656 24.7476 14.416C24.4916 14.168 24.1396 14.044 23.6916 14.044C23.1796 14.044 22.7676 14.212 22.4556 14.548C22.1516 14.884 21.9996 15.372 21.9996 16.012V19H20.7636ZM30.3544 19.168C29.8664 19.168 29.4144 19.048 28.9984 18.808C28.5824 18.568 28.2464 18.224 27.9904 17.776C27.7424 17.32 27.6184 16.772 27.6184 16.132V15.952C27.6184 15.32 27.7424 14.776 27.9904 14.32C28.2384 13.864 28.5704 13.516 28.9864 13.276C29.4024 13.036 29.8584 12.916 30.3544 12.916C30.7384 12.916 31.0584 12.964 31.3144 13.06C31.5784 13.156 31.7944 13.28 31.9624 13.432C32.1304 13.576 32.2584 13.728 32.3464 13.888H32.5384V10.6H33.7744V19H32.5624V18.16H32.3704C32.2184 18.416 31.9864 18.648 31.6744 18.856C31.3704 19.064 30.9304 19.168 30.3544 19.168ZM30.7024 18.088C31.2384 18.088 31.6784 17.916 32.0224 17.572C32.3744 17.228 32.5504 16.736 32.5504 16.096V15.988C32.5504 15.356 32.3784 14.868 32.0344 14.524C31.6904 14.18 31.2464 14.008 30.7024 14.008C30.1744 14.008 29.7344 14.18 29.3824 14.524C29.0384 14.868 28.8664 15.356 28.8664 15.988V16.096C28.8664 16.736 29.0384 17.228 29.3824 17.572C29.7344 17.916 30.1744 18.088 30.7024 18.088Z" fill="#F5F0E9"/>
</g>
<defs>
<filter id="filter0_d_0_1" x="6.00342" y="10.6001" width="32.771" height="30.3999" filterUnits="userSpaceOnUse" color-interpolation-filters="sRGB">
<feFlood flood-opacity="0" result="BackgroundImageFix"/>
<feColorMatrix in="SourceAlpha" type="matrix" values="0 0 0 0 0 0 0 0 0 0 0 0 0 0 0 0 0 0 127 0" result="hardAlpha"/>
<feOffset dx="2" dy="4"/>
<feGaussianBlur stdDeviation="1.5"/>
<feComposite in2="hardAlpha" operator="out"/>
<feColorMatrix type="matrix" values="0 0 0 0 0 0 0 0 0 0 0 0 0 0 0 0 0 0 0.25 0"/>
<feBlend mode="normal" in2="BackgroundImageFix" result="effect1_dropShadow_0_1"/>
<feBlend mode="normal" in="SourceGraphic" in2="effect1_dropShadow_0_1" result="shape"/>
</filter>
</defs>
</svg>
