<svg width="41" height="47" viewBox="0 0 41 47" fill="none" xmlns="http://www.w3.org/2000/svg">
<path d="M39.7031 12.3271V34.6719L20.3516 45.8447L1 34.6719V12.3271L20.3516 1.1543L39.7031 12.3271Z" fill="#FFD700" stroke="white" stroke-width="2"/>
<g filter="url(#filter0_d_0_1)">
<path d="M15.5336 36V19.724H15.1176L12.1276 25.86H9.24156L13.2716 17.8H18.2636V36H15.5336Z" fill="#F5F0E9"/>
<path d="M23.7436 19.196C22.8662 19.196 22.1382 19 21.5596 18.608C20.9809 18.216 20.6262 17.6233 20.4956 16.83L21.8396 16.508C21.9142 16.8907 22.0402 17.194 22.2176 17.418C22.3949 17.642 22.6142 17.8007 22.8756 17.894C23.1462 17.9873 23.4356 18.034 23.7436 18.034C24.2009 18.034 24.5509 17.9453 24.7936 17.768C25.0456 17.5907 25.1716 17.362 25.1716 17.082C25.1716 16.802 25.0549 16.5967 24.8216 16.466C24.5882 16.3353 24.2429 16.228 23.7856 16.144L23.3096 16.06C22.8429 15.976 22.4182 15.8547 22.0356 15.696C21.6529 15.5373 21.3496 15.318 21.1256 15.038C20.9016 14.758 20.7896 14.3987 20.7896 13.96C20.7896 13.3067 21.0322 12.8027 21.5176 12.448C22.0029 12.084 22.6469 11.902 23.4496 11.902C24.2242 11.902 24.8589 12.0793 25.3536 12.434C25.8576 12.7793 26.1842 13.2507 26.3336 13.848L24.9896 14.226C24.9056 13.806 24.7282 13.512 24.4576 13.344C24.1869 13.1667 23.8509 13.078 23.4496 13.078C23.0576 13.078 22.7496 13.1527 22.5256 13.302C22.3016 13.442 22.1896 13.6427 22.1896 13.904C22.1896 14.184 22.2969 14.3893 22.5116 14.52C22.7356 14.6507 23.0342 14.7487 23.4076 14.814L23.8976 14.898C24.3922 14.982 24.8449 15.0987 25.2556 15.248C25.6662 15.3973 25.9882 15.612 26.2216 15.892C26.4642 16.172 26.5856 16.5453 26.5856 17.012C26.5856 17.7027 26.3289 18.2393 25.8156 18.622C25.3022 19.0047 24.6116 19.196 23.7436 19.196ZM30.4306 19C30.0106 19 29.6746 18.874 29.4226 18.622C29.18 18.37 29.0586 18.034 29.0586 17.614V13.316H27.1546V12.098H29.0586V9.816H30.5006V12.098H32.5586V13.316H30.5006V17.362C30.5006 17.642 30.6313 17.782 30.8926 17.782H32.3346V19H30.4306Z" fill="#F5F0E9"/>
</g>
<defs>
<filter id="filter0_d_0_1" x="8.2417" y="9.81592" width="29.3169" height="33.1841" filterUnits="userSpaceOnUse" color-interpolation-filters="sRGB">
<feFlood flood-opacity="0" result="BackgroundImageFix"/>
<feColorMatrix in="SourceAlpha" type="matrix" values="0 0 0 0 0 0 0 0 0 0 0 0 0 0 0 0 0 0 127 0" result="hardAlpha"/>
<feOffset dx="2" dy="4"/>
<feGaussianBlur stdDeviation="1.5"/>
<feComposite in2="hardAlpha" operator="out"/>
<feColorMatrix type="matrix" values="0 0 0 0 0 0 0 0 0 0 0 0 0 0 0 0 0 0 0.25 0"/>
<feBlend mode="normal" in2="BackgroundImageFix" result="effect1_dropShadow_0_1"/>
<feBlend mode="normal" in="SourceGraphic" in2="effect1_dropShadow_0_1" result="shape"/>
</filter>
</defs>
</svg>
