<svg width="41" height="47" viewBox="0 0 41 47" fill="none" xmlns="http://www.w3.org/2000/svg">
<path d="M39.7031 12.3271V34.6719L20.3516 45.8447L1 34.6719V12.3271L20.3516 1.1543L39.7031 12.3271Z" fill="#CD7F32" stroke="white" stroke-width="2"/>
<g filter="url(#filter0_d_0_1)">
<path d="M15.1476 36.9175C13.9156 36.9175 12.8196 36.6935 11.8596 36.2455C10.8996 35.7975 10.1476 35.1495 9.60356 34.3015C9.07556 33.4535 8.81156 32.4455 8.81156 31.2775V30.8455H11.3316V31.2295C11.3316 32.2855 11.6756 33.1255 12.3636 33.7495C13.0676 34.3575 13.9956 34.6615 15.1476 34.6615C16.2996 34.6615 17.1956 34.3735 17.8356 33.7975C18.4756 33.2215 18.7956 32.4935 18.7956 31.6135V31.3975C18.7956 30.7735 18.6436 30.2695 18.3396 29.8855C18.0356 29.5015 17.6276 29.2215 17.1156 29.0455C16.6036 28.8535 16.0276 28.7575 15.3876 28.7575H12.3396V25.8535L18.2436 22.3735V22.0375H9.21956V19.7815H20.9796V23.1895L15.3396 26.5495V26.8855H16.3716C17.2196 26.8855 18.0196 27.0455 18.7716 27.3655C19.5236 27.6855 20.1316 28.1735 20.5956 28.8295C21.0756 29.4855 21.3156 30.3175 21.3156 31.3255V31.6135C21.3156 32.6855 21.0596 33.6215 20.5476 34.4215C20.0356 35.2055 19.3156 35.8215 18.3876 36.2695C17.4596 36.7015 16.3796 36.9175 15.1476 36.9175Z" fill="#F5F0E9"/>
<path d="M21.7636 19V13.084H22.9756V13.78H23.1676C23.2636 13.532 23.4156 13.352 23.6236 13.24C23.8396 13.12 24.1036 13.06 24.4156 13.06H25.1236V14.176H24.3676C23.9676 14.176 23.6396 14.288 23.3836 14.512C23.1276 14.728 22.9996 15.064 22.9996 15.52V19H21.7636ZM28.4013 19.168C27.9133 19.168 27.4613 19.048 27.0453 18.808C26.6293 18.568 26.2933 18.224 26.0373 17.776C25.7893 17.32 25.6653 16.772 25.6653 16.132V15.952C25.6653 15.32 25.7893 14.776 26.0373 14.32C26.2853 13.864 26.6173 13.516 27.0333 13.276C27.4493 13.036 27.9053 12.916 28.4013 12.916C28.7853 12.916 29.1053 12.964 29.3613 13.06C29.6253 13.156 29.8413 13.28 30.0093 13.432C30.1773 13.576 30.3053 13.728 30.3933 13.888H30.5853V10.6H31.8213V19H30.6093V18.16H30.4173C30.2653 18.416 30.0333 18.648 29.7213 18.856C29.4173 19.064 28.9773 19.168 28.4013 19.168ZM28.7493 18.088C29.2853 18.088 29.7253 17.916 30.0693 17.572C30.4213 17.228 30.5973 16.736 30.5973 16.096V15.988C30.5973 15.356 30.4253 14.868 30.0813 14.524C29.7373 14.18 29.2933 14.008 28.7493 14.008C28.2213 14.008 27.7813 14.18 27.4293 14.524C27.0853 14.868 26.9133 15.356 26.9133 15.988V16.096C26.9133 16.736 27.0853 17.228 27.4293 17.572C27.7813 17.916 28.2213 18.088 28.7493 18.088Z" fill="#F5F0E9"/>
</g>
<defs>
<filter id="filter0_d_0_1" x="7.81152" y="10.6001" width="29.0098" height="33.3174" filterUnits="userSpaceOnUse" color-interpolation-filters="sRGB">
<feFlood flood-opacity="0" result="BackgroundImageFix"/>
<feColorMatrix in="SourceAlpha" type="matrix" values="0 0 0 0 0 0 0 0 0 0 0 0 0 0 0 0 0 0 127 0" result="hardAlpha"/>
<feOffset dx="2" dy="4"/>
<feGaussianBlur stdDeviation="1.5"/>
<feComposite in2="hardAlpha" operator="out"/>
<feColorMatrix type="matrix" values="0 0 0 0 0 0 0 0 0 0 0 0 0 0 0 0 0 0 0.25 0"/>
<feBlend mode="normal" in2="BackgroundImageFix" result="effect1_dropShadow_0_1"/>
<feBlend mode="normal" in="SourceGraphic" in2="effect1_dropShadow_0_1" result="shape"/>
</filter>
</defs>
</svg>
