<svg width="120" height="268" viewBox="0 0 120 268" fill="none" xmlns="http://www.w3.org/2000/svg">
<path d="M8.3923 35.6675H20.6797L10.8163 156.652L0 268H43.6754L37.75 156.652L33.955 35.6675H45.8301L49.8701 34.2117L45.8301 32.028H38.5504V28.3884L42.8904 21.4733L38.5504 18.1977H32.4233L33.955 10.1907H29.1044L26.8068 0L24.7644 10.1907H20.6797L22.4668 18.1977H16.0844L12.5103 21.4733L16.0844 28.3884V32.028H8.3923L4.89092 34.2117L8.3923 35.6675Z" fill="url(#paint0_linear_112_501)"/>
<path d="M42.8684 21.471L115.945 6.63367C120.742 11.7629 121.929 30.6924 115.945 35.8218L40.5195 25.3627L42.8684 21.471Z" fill="url(#paint1_linear_112_501)"/>
<rect x="20.2597" y="21.2277" width="3.11688" height="3.9802" fill="#D9D9D9"/>
<rect x="20.2597" y="21.2277" width="3.11688" height="3.9802" fill="url(#paint2_linear_112_501)"/>
<path d="M14.026 21.2277C15.3649 21.2277 15.8039 21.2277 17.1429 21.2277V25.2079H16.2078L14.026 21.2277Z" fill="#D9D9D9"/>
<path d="M14.026 21.2277C15.3649 21.2277 15.8039 21.2277 17.1429 21.2277V25.2079H16.2078L14.026 21.2277Z" fill="url(#paint3_linear_112_501)"/>
<path d="M43.6364 21.2277H40.5195V25.2079H41.2987L43.6364 21.2277Z" fill="#D9D9D9"/>
<path d="M43.6364 21.2277H40.5195V25.2079H41.2987L43.6364 21.2277Z" fill="url(#paint4_linear_112_501)"/>
<rect x="26.4935" y="21.2277" width="4.67532" height="3.9802" fill="#D9D9D9"/>
<rect x="26.4935" y="21.2277" width="4.67532" height="3.9802" fill="url(#paint5_linear_112_501)"/>
<rect x="34.2857" y="21.2277" width="3.11688" height="3.9802" fill="#D9D9D9"/>
<rect x="34.2857" y="21.2277" width="3.11688" height="3.9802" fill="url(#paint6_linear_112_501)"/>
<defs>
<linearGradient id="paint0_linear_112_501" x1="93.2333" y1="13.5451" x2="-116.052" y2="-3.22926" gradientUnits="userSpaceOnUse">
<stop offset="0.206731" stop-color="#191313"/>
<stop offset="0.519231" stop-color="#41578C"/>
</linearGradient>
<linearGradient id="paint1_linear_112_501" x1="25.9041" y1="23.9033" x2="141.874" y2="11.5997" gradientUnits="userSpaceOnUse">
<stop stop-color="#F5F0E9"/>
<stop offset="1" stop-color="#A40B0D"/>
</linearGradient>
<linearGradient id="paint2_linear_112_501" x1="21.8182" y1="21.2277" x2="21.8182" y2="25.2079" gradientUnits="userSpaceOnUse">
<stop stop-color="#A40B0D"/>
<stop offset="0.759615" stop-color="#A40B0D" stop-opacity="0"/>
</linearGradient>
<linearGradient id="paint3_linear_112_501" x1="15.5844" y1="21.2277" x2="15.5844" y2="25.2079" gradientUnits="userSpaceOnUse">
<stop stop-color="#A40B0D"/>
<stop offset="0.759615" stop-color="#A40B0D" stop-opacity="0"/>
</linearGradient>
<linearGradient id="paint4_linear_112_501" x1="37.6623" y1="20.4814" x2="43.4255" y2="25.4524" gradientUnits="userSpaceOnUse">
<stop stop-color="#A40B0D"/>
<stop offset="0.761307" stop-color="#A40B0D" stop-opacity="0"/>
</linearGradient>
<linearGradient id="paint5_linear_112_501" x1="28.8312" y1="21.2277" x2="28.8312" y2="25.2079" gradientUnits="userSpaceOnUse">
<stop stop-color="#A40B0D"/>
<stop offset="0.759615" stop-color="#A40B0D" stop-opacity="0"/>
</linearGradient>
<linearGradient id="paint6_linear_112_501" x1="35.8441" y1="21.2277" x2="35.8441" y2="25.2079" gradientUnits="userSpaceOnUse">
<stop stop-color="#A40B0D"/>
<stop offset="0.759615" stop-color="#A40B0D" stop-opacity="0"/>
</linearGradient>
</defs>
</svg>
