<svg width="45" height="45" viewBox="0 0 45 45" fill="none" xmlns="http://www.w3.org/2000/svg">
<g clip-path="url(#clip0_231_325)">
<path d="M16.875 35.6254C7.5 38.4379 7.5 30.9379 3.75 30.0004M30 41.2504V33.9942C30.0703 33.1001 29.9495 32.2013 29.6457 31.3575C29.3418 30.5138 28.8617 29.7443 28.2375 29.1004C34.125 28.4442 40.3125 26.2129 40.3125 15.9754C40.312 13.3576 39.305 10.8402 37.5 8.94418C38.3547 6.65388 38.2943 4.12234 37.3312 1.87543C37.3312 1.87543 35.1188 1.21918 30 4.65043C25.7025 3.48572 21.1725 3.48572 16.875 4.65043C11.7562 1.21918 9.54375 1.87543 9.54375 1.87543C8.58071 4.12234 8.52027 6.65388 9.375 8.94418C7.55649 10.8542 6.54848 13.3944 6.5625 16.0317C6.5625 26.1942 12.75 28.4254 18.6375 29.1567C18.0206 29.7941 17.5449 30.5543 17.2412 31.3878C16.9375 32.2212 16.8128 33.1093 16.875 33.9942V41.2504" stroke="#F5F0E9" stroke-width="4" stroke-linecap="round" stroke-linejoin="round"/>
</g>
<defs>
<clipPath id="clip0_231_325">
<rect width="45" height="45" fill="white"/>
</clipPath>
</defs>
</svg>
