<svg width="45" height="45" viewBox="0 0 45 45" fill="none" xmlns="http://www.w3.org/2000/svg">
<g clip-path="url(#clip0_231_310)">
<path d="M42.2625 12.0375C42.0397 11.1476 41.5861 10.3323 40.9475 9.67389C40.3088 9.01545 39.5076 8.53722 38.625 8.2875C35.4 7.5 22.5 7.5 22.5 7.5C22.5 7.5 9.59997 7.5 6.37497 8.3625C5.49231 8.61222 4.69118 9.09045 4.0525 9.74889C3.41382 10.4073 2.9602 11.2226 2.73747 12.1125C2.14725 15.3854 1.85854 18.7056 1.87497 22.0313C1.85393 25.382 2.14266 28.7274 2.73747 32.025C2.98302 32.8872 3.4468 33.6715 4.08399 34.3022C4.72119 34.9328 5.51026 35.3884 6.37497 35.625C9.59997 36.4875 22.5 36.4875 22.5 36.4875C22.5 36.4875 35.4 36.4875 38.625 35.625C39.5076 35.3753 40.3088 34.897 40.9475 34.2386C41.5861 33.5802 42.0397 32.7649 42.2625 31.875C42.8481 28.6267 43.1368 25.3319 43.125 22.0313C43.146 18.6805 42.8573 15.3351 42.2625 12.0375Z" stroke="#F5F0E9" stroke-width="4" stroke-linecap="round" stroke-linejoin="round"/>
<path d="M18.2812 28.1625L29.0625 22.0313L18.2812 15.9V28.1625Z" stroke="#F5F0E9" stroke-width="4" stroke-linecap="round" stroke-linejoin="round"/>
</g>
<defs>
<clipPath id="clip0_231_310">
<rect width="45" height="45" fill="white"/>
</clipPath>
</defs>
</svg>
