<svg width="195" height="195" viewBox="0 0 195 195" fill="none" xmlns="http://www.w3.org/2000/svg">
<mask id="path-1-inside-1_434_668" fill="white">
<circle cx="97.5" cy="97.5" r="97.5" transform="rotate(90 97.5 97.5)"/>
</mask>
<circle cx="97.5" cy="97.5" r="97.5" transform="rotate(90 97.5 97.5)" fill="#F5F0E9" fill-opacity="0.15"/>
<path d="M97.5 195C87.2743 194.804 77.136 193.02 67.5363 189.71C28.7281 176.813 1.25516 137.684 2.25 97.5C1.58232 46.7742 47.2152 1.8004 97.5 3C147.785 1.8004 193.418 46.7742 192.75 97.5C193.745 137.684 166.272 176.813 127.464 189.71C117.864 193.02 107.726 194.804 97.5 195C107.725 195.204 117.99 193.799 127.816 190.794C167.524 179.211 197.472 139.656 197.25 97.5C199.108 44.3568 151.084 -4.32595 97.5 -3C43.9158 -4.32595 -4.10788 44.3568 -2.25 97.5C-2.47179 139.656 27.4763 179.211 67.1842 190.794C77.0101 193.799 87.2749 195.204 97.5 195Z" fill="#F5F0E9" fill-opacity="0.7" mask="url(#path-1-inside-1_434_668)"/>
<path d="M21.1634 65.1888C21.5056 64.4509 21.8646 63.6325 22.3422 63.0089C22.4006 62.9323 22.5424 63.0227 22.5748 63.0109C22.6644 62.9784 22.515 62.8414 22.5537 62.8037C22.7428 62.6185 22.8858 62.4317 23.0595 62.2598C23.2375 62.0835 23.6311 62.4449 23.7838 62.4349C24.081 62.4175 23.4219 62.1985 23.3207 62.0678C23.3804 62.0023 23.4454 61.9415 23.5122 61.8843C23.5878 61.8191 23.6662 61.7575 23.7446 61.6945C23.7804 61.7624 23.815 61.8291 23.8456 61.8959C23.8946 61.8355 24.0401 61.7862 24.1346 61.986C24.1913 61.9843 24.2551 61.9866 24.3113 61.9828C24.0967 61.8588 24.1434 61.7277 24.0182 61.6495C23.8935 61.5708 23.8887 61.653 23.8774 61.6467C23.7183 61.5577 24.0804 61.3997 24.1084 61.3871C24.1829 61.3586 24.4357 61.541 24.4406 61.4861C24.4491 61.3911 23.8591 61.1756 24.6604 61.4265C24.4365 61.2683 24.5652 61.3243 24.6073 61.2781C24.6127 61.272 24.4683 61.2118 24.466 61.207C24.3982 61.077 24.6335 61.2609 24.6479 61.2674C24.8945 61.3717 24.8274 61.2321 24.8591 61.2238C25.2571 61.1159 25.5347 61.0113 25.7069 60.7663C25.7442 60.7128 25.7077 60.496 25.7707 60.4537C25.8331 60.4117 26.0041 60.5063 26.1021 60.5068C25.6815 60.3047 25.6483 60.2449 25.9746 60.2346C25.6682 60.0851 25.9247 60.1783 25.8869 60.0786C25.8557 59.9957 25.5086 59.754 25.8609 59.7908C25.8034 59.8638 25.9639 59.9077 26.028 60.0324C26.0493 60.0745 25.9474 60.3957 26.2818 60.4853C26.4565 60.5318 26.3369 60.3704 26.3696 60.3771C26.5612 60.4152 26.7659 60.5525 26.6684 60.5794C26.6361 60.5533 26.6041 60.5242 26.5721 60.4972C26.302 60.5381 27.2088 60.7604 26.4096 60.5851C26.3116 60.5634 26.2151 60.5248 26.1088 60.508C26.1488 60.5263 26.2591 60.5397 26.2707 60.5655C26.2822 60.5918 26.0746 60.5606 26.2364 60.6241C26.4715 60.7171 26.4069 60.6011 26.4229 60.5999C26.4214 60.5993 26.42 60.5988 26.4186 60.5982C26.5645 60.5875 26.5387 60.7075 26.5591 60.7212C26.6948 60.8096 26.8178 60.8254 26.9207 60.9239C26.9793 60.9802 26.9091 61.0456 26.9207 61.0832C26.9329 61.1212 27.0619 61.1165 27.0787 61.1453C27.0954 61.1741 27.001 61.1676 27.0202 61.2012C27.0287 61.2158 27.1538 61.262 27.1563 61.2685C27.1846 61.3392 26.938 61.2074 26.9361 61.2602C26.9354 61.294 27.1364 61.4909 27.2359 61.4469C27.2476 61.4911 27.2527 61.5322 27.2586 61.5746C27.3041 61.5673 27.3381 61.5542 27.3899 61.5496C27.3052 61.5923 27.5058 61.7052 27.5047 61.7536C27.5037 61.802 27.2351 61.736 27.3402 61.8317C27.563 62.0372 27.5406 61.7451 27.5991 61.7334C27.6224 61.7288 27.8037 61.8532 27.8065 61.8628C27.8187 61.9048 27.6617 61.8841 27.6583 61.9108C27.6471 62.0064 27.812 62.1369 27.814 62.2366C27.8219 62.5746 27.7601 62.9729 27.6684 63.253C27.6344 63.3571 27.4022 63.3108 27.3861 63.356C27.3482 63.4618 27.517 63.5668 27.4806 63.6578C27.4372 63.7668 27.2729 63.8475 27.1605 63.9192C27.1311 63.9375 27.1054 63.9553 27.0866 63.9728C27.0241 64.0316 27.1558 64.1878 27.1493 64.2087C27.0657 64.494 26.8938 64.7774 26.7855 64.9673C26.7343 65.057 26.5238 64.9899 26.5186 65.0113C26.4961 65.103 26.6673 65.1755 26.6148 65.2285C26.5866 65.2574 26.4298 65.1749 26.4212 65.176C26.3474 65.1869 26.5426 65.311 26.5313 65.3455C26.466 65.5455 26.2376 65.6401 26.1206 65.8032C26.1119 65.8151 26.0233 65.7638 26.0233 65.7745C26.0256 65.8217 26.1754 65.8842 26.1653 65.9263C26.1446 66.0149 26.0788 66.0787 26.0165 66.15C26.0105 66.1569 25.8931 66.0973 25.8831 66.1155C25.8731 66.1337 25.9752 66.2072 25.9535 66.2325C25.8967 66.2993 25.7262 66.3014 25.6763 66.3779C25.6684 66.3905 25.7999 66.4808 25.788 66.4996C25.7508 66.5588 25.5756 66.5834 25.5433 66.6346C25.4383 66.8023 25.437 67.0062 25.3578 67.1713C25.3386 67.2104 25.1898 67.1809 25.1768 67.1997C25.1479 67.2423 25.2897 67.2678 25.2679 67.3145C25.0897 67.6949 24.8608 68.0535 24.709 68.4512C24.6534 68.5962 24.7001 68.8135 24.6315 68.953C24.6262 68.9638 24.6202 68.9741 24.6133 68.9839C24.5736 69.0401 24.3899 68.9834 24.3712 69.0279C24.3385 69.108 24.5638 69.208 24.5556 69.3007C24.5487 69.3746 24.2897 69.368 24.2783 69.4444C24.2668 69.5209 24.4796 69.6344 24.4779 69.7248C24.4763 69.7993 24.341 69.8587 24.3323 69.9379C24.2515 70.6677 24.1343 71.3765 23.7472 72.0366C23.6106 72.2698 23.5635 72.56 23.2643 72.76C23.236 72.7789 23.0247 72.6789 23.0491 72.7717C23.0624 72.8219 23.2372 72.9341 23.2195 73.0356C23.114 73.6379 22.536 74.1621 22.46 74.7922C22.3468 75.7361 23.7004 77.0821 21.1727 77.3022C21.0485 77.3129 20.4938 77.1516 20.3406 77.0883C20.4598 77.0949 20.5999 77.1084 20.734 77.1177C20.0415 76.9139 20.2224 76.9645 20.3119 76.8735C20.3673 76.8175 20.0549 76.7952 19.9788 76.7389C19.8803 76.6661 19.5881 76.3662 20.0412 76.5232C19.9642 76.4899 19.8903 76.4585 19.8149 76.4259C19.7833 76.2539 19.7049 76.0748 19.61 75.8902C19.5933 75.8583 19.4482 75.8206 19.4318 75.7877C19.3867 75.6993 19.4966 75.6659 19.5007 75.5875C19.503 75.5449 19.3365 75.4969 19.3606 75.4465C19.3849 75.396 19.6113 75.4544 19.3832 75.3198C19.0868 75.2953 19.3464 75.1365 19.3479 75.0571C19.3484 75.0457 19.1155 74.8918 19.157 74.8516C19.1979 74.8112 19.3794 74.7804 19.3056 74.6832C19.2709 74.6376 19.0773 74.566 19.0755 74.5257C19.0743 74.4974 19.2592 74.511 19.275 74.4797C19.2908 74.4483 19.1641 74.3394 19.1651 74.3256C19.1677 74.2756 19.2785 74.3599 19.2931 74.329C19.3616 74.1791 19.4751 74.0144 19.4318 73.8377C19.4266 73.8161 19.2735 73.8045 19.2693 73.8007C19.1234 73.6248 19.296 73.7433 19.4361 73.7425C19.5714 73.7417 19.567 73.4762 19.3134 73.4078C19.6336 73.4837 19.405 73.365 19.3994 73.3481C19.378 73.2829 19.6504 73.3663 19.5795 73.2899C19.5537 73.2619 19.3575 73.2514 19.3686 73.2316C19.396 73.1825 19.7073 73.2141 19.7557 73.1524C19.7675 73.1374 19.6359 73.0966 19.6484 73.0677C19.661 73.0387 19.8573 72.9561 19.5612 72.9395C19.8065 72.9229 19.6871 72.875 19.7172 72.7875C19.7251 72.7654 19.9472 72.7939 19.8937 72.7281C19.8755 72.7059 19.6688 72.6507 19.6737 72.6258C19.6844 72.5687 19.9122 72.5743 19.9399 72.5055C19.9922 72.3775 19.8807 72.1956 19.9723 72.072C19.9973 72.0385 20.202 72.1052 20.221 72.052C20.2232 72.0442 20.0624 71.9284 20.0898 71.8953C20.1062 71.8753 20.2649 71.7931 20.2817 71.7724C20.3088 71.738 20.1107 71.6745 20.1559 71.664C20.2863 71.6335 20.5667 71.7668 20.185 71.578C20.4153 71.6167 20.4053 71.5669 20.6841 71.6312C20.3901 71.5201 20.6887 71.5701 20.6019 71.492C20.515 71.4141 19.9437 71.2059 20.5744 71.3744C20.5048 71.3295 20.4029 71.1941 20.3982 71.1749C20.3855 71.1184 20.5513 71.1947 20.5386 71.1511C20.5366 71.1435 20.416 71.1158 20.4399 71.0775C20.4556 71.0523 20.5214 70.8554 20.5413 70.8478C20.767 70.7664 20.6366 70.9571 20.7565 71.0236C20.7213 71.0189 20.686 71.014 20.6511 71.0098C20.5776 71.0533 20.8552 71.0976 20.9253 71.0888C20.9953 71.08 20.8909 70.9946 20.9855 70.9978C21.0329 70.9996 21.3515 71.1013 21.3028 71.1237C21.4122 71.1167 21.502 71.1968 21.599 71.2099C21.7054 71.224 21.7845 71.0724 21.6082 71.0189C21.5931 71.0472 21.5881 71.0865 21.5717 71.1149C21.2527 71.0646 20.2408 70.6301 20.6933 70.6423C21.0207 70.6513 21.2207 70.8584 21.0249 70.5891C21.0036 70.6149 20.9674 70.6314 20.9464 70.6545C20.7156 70.5882 20.9817 70.6205 20.9153 70.5759C20.8829 70.5542 20.6998 70.572 20.6633 70.4975C21.0071 70.5469 20.688 70.4087 20.7098 70.3234C20.7612 70.3648 20.8124 70.4057 20.8639 70.4467C21.145 70.3789 21.1243 70.7286 21.3407 70.4966C21.3412 70.5329 21.3285 70.5645 21.3347 70.6023C21.46 70.6231 21.8062 70.7561 21.8853 70.7647C22.0927 70.7876 21.9912 70.6966 22.0224 70.6566C22.0357 70.639 22.1274 70.6806 22.1284 70.6791C22.1473 70.6554 22.0056 70.6183 22.004 70.5918C22.0021 70.5583 22.1646 70.5147 22.1535 70.496C22.1252 70.4474 21.8306 70.4219 21.8111 70.412C21.6846 70.3474 21.8103 70.3342 21.6348 70.2822C21.7193 70.4333 21.4634 70.7166 21.2662 70.3279C20.9582 70.3234 20.5757 70.1799 20.5824 70.0498C20.5878 69.9422 20.7238 70.0549 20.9114 70.0566C20.935 70.0565 21.0586 69.9496 20.9397 69.9046C21.2169 69.9979 21.4774 70.0334 21.7561 70.1529C21.797 70.1704 21.7635 70.2186 22.0008 70.2729C22.12 70.3002 22.3813 70.3536 22.5279 70.4046C22.4284 70.3613 22.3163 70.3134 22.2125 70.2684C22.2076 70.1797 22.3221 70.203 22.5276 70.2213C22.447 70.1976 22.0979 70.1303 22.2197 70.102C22.2268 70.1008 22.3483 70.1367 22.418 70.1252C22.558 70.1015 22.5993 70.1012 22.9381 70.2625C22.7772 70.0704 23.1807 70.17 23.108 70.0033C22.6455 69.8791 22.7425 69.9624 22.791 70.1112C22.6812 70.0813 22.5733 70.049 22.4623 70.019C22.7599 69.9375 22.7088 70.0096 22.5193 69.8465C22.4728 69.8067 22.5697 69.7068 22.251 69.645C22.1759 69.6308 22.1596 69.7077 22.049 69.6617C22.0279 69.6531 22.0031 69.544 22.0351 69.5456C22.4299 69.5661 22.622 69.8275 22.582 69.5113C22.5807 69.5025 22.4498 69.4551 22.4365 69.434C22.4118 69.3945 22.5645 69.4462 22.5377 69.4095C22.5108 69.3728 22.3175 69.2679 22.5199 69.2961C22.8881 69.3482 23.0324 69.5739 22.825 69.5826C23.267 69.7623 23.4484 69.2709 23.4217 69.2274C23.3023 69.0333 23.319 69.2912 23.1905 69.2583C23.1361 69.2443 22.4676 69.0059 22.8817 69.2162C23.0046 69.2782 23.1989 69.2677 23.2552 69.3345C23.3115 69.4012 23.1201 69.3155 23.1053 69.3137C23.0545 69.3077 23.1119 69.3781 23.0819 69.3742C22.6259 69.3164 21.9867 69.0855 22.9766 69.2954C22.7807 69.1681 22.3972 69.1694 22.2747 69.0531C22.1262 68.9108 22.452 68.9605 22.4692 68.9557C22.6743 68.8941 22.18 68.8735 22.3748 68.7774C22.483 68.7247 22.627 69.0049 22.6645 68.8099C22.6956 68.6475 22.5112 68.6734 22.164 68.5342C22.0828 68.5014 22.0138 68.3778 22.0068 68.509C22.0971 68.5457 22.2155 68.5958 22.2972 68.6339C22.2201 68.6378 21.7443 68.5202 21.7226 68.5302C21.619 68.5787 21.8586 68.6601 21.562 68.605C21.8804 68.6824 21.6769 68.6683 21.7349 68.7107C21.9486 68.8673 22.071 68.8035 21.7066 68.8574C21.8582 68.8867 22.0064 68.9173 22.1571 68.9476C22.1553 68.9685 22.1537 68.9895 22.1519 69.0105C21.8242 68.928 21.8287 69.0462 21.5414 68.8409C21.4111 68.9223 21.4649 68.9921 21.7042 69.1015C21.7498 69.1224 21.763 69.1457 21.7608 69.1671C21.8317 69.1871 22.0486 69.2558 22.074 69.2679C22.2968 69.3746 21.8808 69.2814 21.7326 69.2148C21.7206 69.2263 21.7083 69.2341 21.7033 69.2368C21.6712 69.2532 21.5489 69.1583 21.4946 69.162C21.477 69.1634 21.4837 69.2429 21.4269 69.2254C21.0627 69.1126 21.3622 69.084 21.0743 69.2462C21.4018 69.3611 21.3652 69.2298 21.7056 69.3743C22.0714 69.529 21.5475 69.4209 22.0043 69.5871C21.9269 69.5668 21.8629 69.548 21.7752 69.5236C21.9459 69.6817 21.5612 69.5564 21.467 69.557C21.2829 69.5582 21.2255 69.8205 21.6328 69.7009C21.6552 69.745 21.6596 69.784 21.6785 69.8262C20.9858 69.6109 21.267 69.6789 21.11 69.8059C21.0754 69.8338 20.7675 69.7491 21.1177 69.8985C20.7649 69.7813 20.9458 69.954 20.8997 69.9502C20.5998 69.9258 20.2849 69.5668 20.9208 69.7361C20.6898 69.6186 21.0119 69.7218 20.9833 69.6642C20.9421 69.5808 20.8822 69.552 21.1443 69.5533C20.8338 69.37 20.9029 69.797 20.5306 69.4314C20.1589 69.0754 20.3573 67.7073 20.43 67.3307C20.4313 67.3232 20.4325 67.3162 20.4336 67.3096C20.5383 66.6935 20.5899 66.3603 20.8351 65.8645C20.8585 65.8148 21.0014 65.4271 21.3334 65.6774C21.3809 65.7134 21.4478 65.9359 21.7997 65.936C21.6162 65.8837 21.5424 65.7528 21.5276 65.7377C21.192 65.3942 21.0511 65.4325 21.1634 65.1888ZM24.7381 66.1474C24.5144 66.3787 24.8597 66.302 25.3766 66.6384C25.3954 66.6057 25.4148 66.5717 25.4339 66.5386C25.3951 66.5299 25.3564 66.5211 25.3175 66.5124C25.3175 66.5124 25.3175 66.5125 25.3175 66.5125C25.1241 66.3913 24.931 66.2694 24.7381 66.1474ZM27.6227 61.5297C27.6933 61.5714 27.764 61.6132 27.8323 61.6559C27.7917 61.6918 27.7515 61.7273 27.7105 61.7628C27.6616 61.7374 27.612 61.712 27.563 61.6868C27.5859 61.635 27.6082 61.5842 27.6227 61.5297ZM22.8951 69.6526C22.6636 69.6365 23.045 69.7591 22.8471 69.7751C23.1306 69.8598 23.4082 69.9416 23.689 70.0252C23.6659 69.9563 23.5636 69.9078 23.6523 69.8714C23.5599 69.8478 23.467 69.8242 23.3741 69.8004C23.39 69.8169 23.4084 69.835 23.4222 69.8504C23.165 69.781 23.1601 69.6715 22.8945 69.6522C22.8947 69.6524 22.8949 69.6525 22.8951 69.6526ZM22.8197 70.2618C22.7734 70.2798 22.5971 70.3564 22.7087 70.4096C23.0869 70.5904 22.9429 70.1746 23.2158 70.534C23.2717 70.5505 23.3257 70.569 23.3807 70.5864C23.4144 70.5477 23.4454 70.5085 23.4754 70.4687C23.2559 70.4008 23.0404 70.3297 22.8197 70.2618ZM24.2713 67.1542C24.2222 67.1832 24.3064 67.4698 24.5764 67.5115C24.6552 67.524 24.3544 67.2771 24.3853 67.2493C24.4051 67.2315 24.5808 67.3432 24.5323 67.2675C24.4489 67.2311 24.3569 67.1899 24.2718 67.1546C24.2716 67.1545 24.2714 67.1544 24.2713 67.1542ZM23.2221 66.5641C23.2336 66.6262 23.2536 66.6935 23.2678 66.7561C23.4967 66.821 23.3908 66.6906 23.6923 66.8265C23.7092 66.8497 23.726 66.8727 23.7429 66.8959C23.6728 66.8751 23.6027 66.8541 23.5328 66.8331C23.6776 66.9479 23.7697 66.9612 23.6889 67.0127C24.164 67.1761 24.4091 67.2845 24.0089 66.9463C24.2438 67.0843 25.054 67.4376 24.5138 67.1025C24.4137 67.0399 24.3181 67.0591 24.3009 67.0518C24.087 66.9614 23.9669 66.8688 23.7644 66.7843C23.6727 66.7461 23.6585 66.7799 23.5315 66.7266C23.4696 66.7006 23.3111 66.5872 23.2221 66.5641ZM24.3291 66.9755C24.4498 67.0492 24.773 67.1458 24.7311 67.0768C24.6664 66.9688 24.3326 66.9311 24.3291 66.9755ZM27.6226 61.5293C27.6226 61.5294 27.6227 61.5296 27.6227 61.5297C27.6225 61.5295 27.6222 61.5294 27.6219 61.5292C27.6221 61.5293 27.6223 61.5293 27.6226 61.5293ZM23.0245 70.1572C23.1265 70.2297 23.0932 70.2762 23.2752 70.3308C23.2342 70.3363 23.1937 70.3422 23.1526 70.3479C23.2071 70.3652 23.2617 70.3824 23.3155 70.3996C23.3659 70.3593 23.4163 70.3195 23.4674 70.2794C23.32 70.2385 23.1722 70.1969 23.0245 70.1572ZM22.7177 70.6824C22.6791 70.742 22.943 70.764 23.0577 70.8153C23.1725 70.8665 23.0576 70.8943 23.2308 70.9404C23.2493 70.9042 23.2682 70.8669 23.2864 70.83C23.0973 70.7822 22.9056 70.7305 22.7177 70.6826C22.7177 70.6825 22.7177 70.6825 22.7177 70.6824ZM25.5218 65.1388C25.4505 65.1509 25.2883 65.037 25.4439 65.2306C25.444 65.2306 25.444 65.2305 25.444 65.2304C25.6275 65.2344 25.8071 65.2104 25.7193 65.0497C25.51 64.9962 25.6333 65.1199 25.5218 65.1388ZM23.498 69.6876C23.3564 69.6184 23.2036 69.6618 23.3346 69.7276C23.5468 69.8336 23.713 69.7922 23.498 69.6876ZM25.2797 62.7911C25.0283 62.5991 24.7127 62.4721 24.561 62.4693C24.4798 62.4672 24.4454 62.5019 24.4923 62.5846C24.504 62.6055 24.6818 62.6018 24.7504 62.6712C24.7572 62.678 24.7225 62.7162 24.7748 62.7595C24.8271 62.8033 24.9689 62.8688 25.0157 62.9187C25.0973 63.0063 24.8729 62.9725 24.9898 63.07C25.0054 63.083 25.211 63.1431 25.2195 63.1441C25.3552 63.1606 25.1434 62.9824 25.1457 62.9748C25.1576 62.9347 25.3406 63.0446 25.3895 63.0601C25.4815 63.089 25.4166 63.012 25.4239 63.0133C25.6183 63.0493 25.5 63.1506 25.5573 63.2054C25.7116 63.354 25.9042 63.4062 25.9416 63.5768C25.9454 63.5926 25.8613 63.7137 26.1606 63.6722C26.4102 64.2375 26.4985 63.6534 26.4333 63.543C26.4026 63.4937 26.2045 63.4314 26.1328 63.3719C26.1032 63.3475 26.0789 63.3251 26.0575 63.3039C25.9603 63.2069 25.921 63.1365 25.707 63.0237C25.3922 62.8579 25.3619 62.8752 25.3704 62.9207C25.377 62.954 25.4052 63.003 25.3544 63.0024C25.2399 62.9311 25.1265 62.8647 25.0169 62.7907C25.0928 62.8434 25.1686 62.8477 25.2198 62.8367C25.2677 62.8259 25.2943 62.802 25.2808 62.7917C25.2804 62.7915 25.2801 62.7913 25.2797 62.7911ZM25.4476 63.9225C25.2459 63.8965 25.587 64.089 25.3569 64.0387C25.6278 64.272 25.6716 64.1506 25.696 64.1481C25.8061 64.1355 26.1359 64.3292 26.0692 64.2102C25.8619 64.1165 25.6547 64.0177 25.4476 63.9225ZM25.9377 63.3976C26.0833 63.5429 26.1288 63.4556 26.164 63.4704C26.5358 63.6304 26.3214 63.8497 25.9377 63.3976ZM23.4308 67.098C23.4077 67.1166 23.5878 67.179 23.6295 67.223C23.6717 67.267 23.4909 67.2739 23.5997 67.32C23.7091 67.3653 24.0477 67.3596 24.0502 67.5177C24.1129 67.5402 24.1576 67.5617 24.2135 67.5839C24.2309 67.5488 24.2496 67.5141 24.2671 67.4794C24.0839 67.4205 23.8911 67.3586 23.7137 67.3026C23.5838 67.22 23.7672 67.2881 23.7677 67.2871C23.7675 67.287 23.7673 67.2869 23.7671 67.2868C23.77 67.2429 23.4822 67.0563 23.4308 67.098ZM24.8848 65.5196C24.4714 65.2847 24.9078 65.5932 24.9477 65.6432C24.9873 65.6932 24.8161 65.6397 25.0021 65.7258C25.1455 65.7575 24.9307 65.5461 24.8842 65.5193C24.8844 65.5194 24.8846 65.5195 24.8848 65.5196ZM25.2318 64.2931C25.298 64.4085 25.4102 64.4615 25.248 64.4598C25.3489 64.5149 25.4519 64.5712 25.5513 64.6255C25.5851 64.572 25.2947 64.4079 25.448 64.4113C25.4732 64.412 25.6902 64.5687 25.6438 64.4784C25.513 64.4204 25.3686 64.3547 25.2318 64.2931ZM25.437 64.7879C25.4591 64.7146 24.6847 64.1965 24.978 64.5269C25.0219 64.5762 25.4204 64.8435 25.437 64.7879ZM23.7016 66.4615C23.6223 66.5643 23.82 66.4994 23.963 66.5323C23.9385 66.8459 23.9422 66.4848 24.3823 66.6674C24.2761 66.5764 24.0281 66.3794 23.9208 66.41C23.8761 66.4229 24.0082 66.4749 24.0069 66.4763C23.9503 66.5124 23.7449 66.4055 23.7016 66.4615ZM25.4976 63.7917C25.5011 63.7995 25.6437 63.8737 25.6634 63.9036C25.6831 63.933 25.5683 63.9068 25.6515 63.9596C25.7353 64.0126 25.8373 63.9904 25.7863 63.9346C25.7344 63.8788 25.4668 63.7218 25.4976 63.7917ZM24.9049 64.0213C24.9723 64.1349 25.5354 64.3433 25.5404 64.3293C25.5762 64.2069 25.0644 64.1195 24.9049 64.0213ZM22.9331 65.7477C23.1309 66.025 23.6516 66.1493 23.9736 66.2043C23.9224 66.1646 23.8714 66.1244 23.8208 66.085C24.1399 66.31 24.4369 66.5687 24.2354 66.2203C24.0996 66.288 24.0527 66.1505 24.0336 66.1399C23.4066 65.8078 23.6181 66.1211 22.9331 65.7475C22.9331 65.7476 22.9331 65.7476 22.9331 65.7477ZM25.751 63.6924C25.7833 63.6322 25.7673 63.4139 25.4574 63.3329C25.5557 63.4523 25.6533 63.5726 25.751 63.6924ZM21.9257 68.1639C21.7402 68.155 21.7247 68.2051 21.7113 68.2752C21.9745 68.305 21.9877 68.3544 22.0395 68.3959C22.1174 68.4587 22.1369 68.3834 22.1533 68.3893C22.3819 68.4757 22.4005 68.5343 22.4337 68.4286C22.5039 68.4839 22.5749 68.539 22.6447 68.5938C22.6843 68.519 22.8405 68.5568 23.0413 68.576C22.5777 68.4567 22.8804 68.4981 22.6809 68.3566C22.5811 68.2852 22.0207 68.168 21.9256 68.1642C21.9256 68.1641 21.9256 68.164 21.9257 68.1639ZM22.7741 65.8538C22.8438 65.9063 22.9414 65.9708 23.0225 66.028C23.0233 66.0476 23.0231 66.0668 23.0239 66.0865C22.9548 66.0553 22.8827 66.0223 22.816 65.9928C22.7862 66.0038 22.8851 66.0417 22.891 66.0521C22.8907 66.0519 22.8903 66.0517 22.89 66.0516C22.9739 66.1993 22.943 66.2277 22.6983 66.1965C22.9082 66.296 23.1181 66.3955 23.3279 66.4949C23.315 66.4706 23.3029 66.4456 23.2907 66.4212C23.1819 66.3594 23.0731 66.2975 22.9644 66.2355C23.035 66.2474 23.105 66.2594 23.1755 66.2716C23.1418 66.2381 23.1074 66.2007 23.0739 66.1695C23.692 66.3824 23.2187 66.3485 23.4611 66.4666C23.617 66.5417 23.6854 66.3823 23.5895 66.3065C23.5754 66.2955 23.1241 66.1182 23.379 66.1701C23.4193 66.1781 24.3594 66.636 23.6298 66.2008C23.5265 66.1387 22.9286 65.8823 22.7741 65.8538ZM22.1841 66.3107C22.8349 66.4959 22.0344 66.5472 22.603 66.6263C22.864 66.795 22.8641 66.7851 23.1314 66.8563C23.1553 66.8628 23.2192 66.9262 23.2301 66.9282C23.3846 66.9517 23.3333 66.8721 23.5822 66.9857C23.5736 66.9693 23.5663 66.9543 23.5577 66.9379C23.3037 66.8735 23.1776 66.7328 22.9927 66.6146C22.9089 66.561 22.8682 66.5765 22.7947 66.53C22.7679 66.5129 22.8432 66.4998 22.7621 66.4602C22.5785 66.3709 22.3167 66.2797 22.1599 66.2603C22.1598 66.2602 22.1596 66.2601 22.1594 66.26C22.1665 66.2765 22.1764 66.2939 22.1841 66.3107ZM23.6714 64.612C24.0031 64.7763 24.1283 64.7689 24.2231 64.9707C24.2899 65.0004 24.3562 65.0297 24.423 65.0594C24.4281 65.0371 24.4328 65.0154 24.4385 64.9932C23.5197 64.4039 24.653 64.8969 23.9403 64.5879C23.8628 64.5544 23.9191 64.6459 23.7455 64.4893C23.7452 64.4893 23.745 64.4892 23.7448 64.4892C23.7705 64.5866 23.8806 64.6582 23.6714 64.612ZM23.6643 65.163C24.272 65.6759 24.1546 65.1681 23.9425 65.1268C23.923 65.1234 23.9896 65.352 23.6643 65.163ZM23.734 63.6546C23.6845 63.7132 24.0455 63.9276 24.18 63.9969C24.315 64.0663 24.2081 63.9453 24.2323 63.9512C24.3114 63.9717 24.3331 64.038 24.4407 64.0676C24.4758 64.0768 24.6702 64.0403 24.6575 64.0263C24.5875 63.947 24.2637 63.8145 24.2343 63.7863C24.1377 63.694 24.3145 63.7484 24.16 63.6478C23.8304 63.4329 24.1471 63.7087 24.1461 63.7237C24.1422 63.7674 23.9529 63.6529 23.8996 63.6565C23.8463 63.6601 23.9019 63.7151 23.875 63.7303C23.866 63.7353 23.7372 63.652 23.734 63.6546ZM24.3776 64.3127C24.1412 64.0864 23.7462 64.08 23.7995 64.1369C23.9585 64.3041 24.4907 64.4201 24.3776 64.3127ZM23.207 66.5052C23.0291 66.3422 22.7891 66.4142 22.8526 66.4979C22.9434 66.5296 23.2684 66.5607 23.207 66.5052ZM22.954 65.7085C22.9884 65.8002 23.4922 65.9528 23.509 65.9013C23.2187 65.7194 23.2656 65.7766 23.237 65.8024C23.2082 65.8283 22.9273 65.6369 22.954 65.7085ZM24.4698 63.1473C24.4579 63.157 24.5873 63.4942 24.7541 63.4411C24.7665 63.4373 24.8041 63.2745 24.7644 63.2382C24.6847 63.1641 24.5012 63.1236 24.4698 63.1473ZM22.6508 65.1923C22.8966 65.3595 22.8777 65.3879 23.2006 65.5173C23.2006 65.5172 23.2007 65.5172 23.2007 65.5171C23.255 65.6439 22.6214 65.3265 22.6259 65.351C22.6423 65.4364 23.1216 65.6064 23.2502 65.7191C23.1557 65.5612 23.4463 65.7403 23.4988 65.6849C23.5102 65.6727 23.3601 65.5206 23.2522 65.4536C23.1443 65.3867 22.7912 65.2433 22.6508 65.1923ZM24.5653 62.836C24.4299 62.8446 24.8085 63.145 24.9275 63.0907C24.9858 63.0642 24.6477 62.8306 24.5653 62.836ZM21.1827 69.854C21.3058 69.8807 21.4285 69.907 21.5507 69.9327C21.5709 69.9691 21.5917 70.0058 21.6124 70.0424C21.5815 70.0089 21.5511 69.9754 21.5208 69.9419C21.4629 69.9797 21.2379 69.9344 21.1827 69.8541C21.1827 69.8541 21.1827 69.854 21.1827 69.854ZM20.5416 71.6616C20.4189 71.6518 20.7657 71.7992 20.7954 71.8013C21.0168 71.8171 20.7117 71.6753 20.5416 71.6616ZM22.1329 66.1211C22.0462 66.1836 22.6248 66.3809 22.6858 66.3486C22.566 66.3305 22.1821 66.086 22.1329 66.1211ZM20.7565 71.0236C20.8089 71.0306 20.8613 71.0376 20.914 71.0438C20.8363 71.0503 20.7881 71.0413 20.7565 71.0236ZM23.9881 62.9078C23.941 62.896 23.8582 62.9611 23.9011 63.0022C23.9916 63.0876 24.3207 63.1898 24.2542 63.0989C24.2471 63.0891 24.0351 62.9197 23.988 62.9079C23.988 62.9079 23.988 62.9078 23.9881 62.9078ZM20.924 69.8995C20.9296 69.9011 20.9349 69.9028 20.9397 69.9046C20.9345 69.9029 20.9292 69.9012 20.924 69.8995ZM19.2863 73.4015C19.2956 73.4034 19.3047 73.4055 19.3134 73.4078C19.3048 73.4058 19.2957 73.4038 19.2863 73.4015ZM23.1864 63.2565C22.6687 62.9945 22.8952 63.2179 23.1742 63.3078C23.189 63.3123 23.1813 63.263 23.1864 63.2565Z" fill="#F5F0E9" fill-opacity="0.7"/>
<path d="M87.2166 174.765C88.8937 174.901 90.6611 175.019 92.4064 175.158L92.2883 175.152C93.3051 175.185 94.3332 175.218 95.3231 175.27C95.6545 175.288 95.625 175.455 95.7173 175.479C95.9677 175.543 96.1235 175.347 96.3051 175.364C97.1958 175.445 98.032 175.482 98.9089 175.552C99.809 175.624 99.3834 176.142 99.694 176.272C100.306 176.524 99.7879 175.841 100.03 175.689C100.733 175.734 101.444 175.811 102.15 175.889C101.976 175.951 101.804 176.013 101.63 176.071C101.936 176.086 102.379 176.193 101.861 176.369C101.975 176.418 102.082 176.476 102.199 176.524C102.231 176.277 102.775 176.259 102.827 176.112C102.877 175.965 102.569 175.998 102.572 175.985C102.594 175.802 103.848 176.056 103.939 176.076C104.178 176.131 103.967 176.438 104.172 176.419C104.522 176.386 104.289 175.76 104.763 176.592C104.953 176.322 104.968 176.463 105.207 176.482C105.239 176.484 105.214 176.328 105.228 176.324C105.59 176.208 105.312 176.499 105.314 176.514C105.346 176.782 105.736 176.664 105.817 176.689C106.843 177.01 107.596 177.227 108.68 177.302C108.914 177.318 109.628 177.209 109.854 177.255C110.078 177.3 109.958 177.492 110.075 177.585C110.263 177.121 110.442 177.07 110.863 177.376C111.02 177.037 111 177.31 111.3 177.243C111.551 177.187 111.986 176.781 112.262 177.127C111.946 177.095 111.978 177.261 111.623 177.362C111.505 177.395 110.272 177.402 110.363 177.748C110.411 177.928 110.821 177.762 110.836 177.796C110.928 177.989 110.7 178.227 110.497 178.144C110.548 178.105 110.609 178.065 110.663 178.026C110.208 177.784 110.521 178.714 110.176 177.901C110.133 177.802 110.15 177.698 110.079 177.592C110.065 177.635 110.151 177.744 110.077 177.764C110.001 177.783 109.857 177.577 109.836 177.751C109.804 178.003 110.118 177.904 110.141 177.919C110.141 177.917 110.141 177.916 110.142 177.914C110.35 178.048 109.915 178.063 109.894 178.087C109.759 178.245 109.851 178.366 109.649 178.496C109.533 178.57 109.241 178.526 109.132 178.55C109.024 178.575 109.191 178.694 109.119 178.72C109.046 178.745 108.956 178.655 108.871 178.684C108.835 178.697 108.836 178.831 108.819 178.835C108.63 178.887 108.754 178.609 108.583 178.626C108.472 178.637 108.098 178.896 108.356 178.973C108.232 178.999 108.112 179.019 107.989 179.04C108.066 179.08 108.146 179.107 108.222 179.153C107.991 179.09 107.887 179.318 107.741 179.335C107.596 179.351 107.466 179.078 107.307 179.211C106.966 179.495 107.81 179.364 107.914 179.415C107.955 179.435 107.799 179.649 107.774 179.655C107.667 179.682 107.54 179.529 107.457 179.536C107.162 179.561 106.981 179.763 106.699 179.804C105.739 179.942 104.548 180.052 103.639 180.094C103.3 180.11 103.095 179.882 102.944 179.888C102.589 179.902 102.543 180.1 102.234 180.109C101.77 180.124 101.121 179.948 100.736 179.909C100.467 179.882 100.227 180.072 100.157 180.076C99.1893 180.14 98.0133 180.126 97.212 180.12C96.8335 180.117 96.6573 179.9 96.5806 179.905C96.2432 179.928 96.3305 180.113 96.0608 180.091C95.9155 180.079 95.888 179.902 95.8688 179.895C95.6957 179.834 95.6583 180.065 95.5243 180.07C94.7484 180.102 93.998 179.938 93.2249 179.897C93.1688 179.894 93.1764 179.791 93.1401 179.796C92.9845 179.817 93.0552 179.98 92.8884 179.988C92.6415 179.999 92.3863 179.983 92.134 179.961C92.1122 179.958 92.0464 179.958 92.0248 179.955C91.9274 179.941 91.8301 179.928 91.733 179.914C91.6981 179.909 91.6927 179.777 91.6131 179.77C91.5343 179.764 91.4598 179.883 91.334 179.866C91.0083 179.822 90.6903 179.646 90.3411 179.609C90.284 179.603 90.1994 179.755 90.1115 179.746C89.8388 179.718 89.4505 179.541 89.2141 179.516C88.448 179.435 87.7284 179.464 87.0052 179.403C86.8369 179.388 86.6965 179.229 86.6105 179.218C86.4107 179.194 86.5493 179.345 86.3484 179.328C84.7944 179.2 83.264 179.019 81.7276 178.948C81.654 178.939 81.4365 178.92 81.3655 178.898C81.2728 178.878 81.1798 178.857 81.0864 178.836C80.4346 178.692 79.615 178.648 79.0001 178.46C78.7445 178.382 78.7426 178.184 78.5597 178.139C78.2341 178.058 78.117 178.283 77.7674 178.224C77.4883 178.176 77.2322 177.861 76.9439 177.806C76.6555 177.752 76.4677 177.952 76.1341 177.899C75.8596 177.856 75.5098 177.659 75.2136 177.605C73.0165 177.203 70.863 176.763 68.7614 176.246C68.2002 176.11 67.6495 175.95 67.1077 175.766C66.108 175.427 64.9911 175.1 64.0668 174.504C63.9805 174.448 64.2044 174.287 63.8874 174.219C63.7173 174.182 63.4195 174.28 63.0434 174.138C61.1836 173.434 59.4235 172.245 57.7158 171.069C57.3967 170.848 57.0719 170.636 56.7423 170.439C53.7939 168.714 50.0573 168.204 48.7246 165.174C48.6599 165.032 48.8627 164.489 48.9929 164.357C49.0328 164.492 49.0496 164.645 49.078 164.796C49.4161 164.152 49.3429 164.319 49.6739 164.525C49.8771 164.656 49.823 164.297 49.9771 164.268C50.1773 164.226 51.0622 164.259 50.7101 164.62C50.791 164.568 50.8677 164.518 50.9482 164.467C51.4981 164.662 52.0523 164.827 52.6154 164.986C52.7119 165.013 52.7895 164.885 52.8899 164.914C53.1608 164.993 53.2994 165.186 53.5485 165.314C53.6852 165.384 53.79 165.245 53.9567 165.356C54.1242 165.468 53.9989 165.666 54.3634 165.587C54.3624 165.244 54.9308 165.834 55.1795 165.966C55.2147 165.985 55.639 165.936 55.7736 166.055C55.9101 166.174 56.0505 166.459 56.3347 166.524C56.4677 166.555 56.6433 166.422 56.7677 166.487C56.855 166.532 56.8572 166.749 56.9578 166.822C57.0584 166.895 57.365 166.912 57.4077 166.936C57.5626 167.023 57.3287 167.026 57.4275 167.097C57.9052 167.436 58.438 167.862 58.9672 168.103C59.0322 168.133 59.0327 167.953 59.0433 167.954C59.5466 168.061 59.2248 168.086 59.2594 168.27C59.2685 168.318 59.3343 168.386 59.4276 168.454C59.664 168.63 60.1069 168.797 60.2095 168.634C60.0609 168.929 60.3561 168.813 60.4036 168.83C60.5888 168.896 60.4126 169.123 60.621 169.142C60.697 169.148 60.6762 168.914 60.7377 168.956C60.8885 169.059 60.8819 169.41 61.0849 169.556C61.1339 169.592 61.2167 169.48 61.3075 169.534C61.3976 169.589 61.7152 169.944 61.6671 169.592C61.799 169.922 61.9069 169.834 62.1851 169.98C62.2554 170.016 62.2505 170.261 62.4344 170.274C62.4966 170.277 62.5872 170.084 62.6657 170.119C62.8454 170.199 62.9212 170.479 63.148 170.591C63.5721 170.8 64.0944 170.853 64.5293 171.086C64.6479 171.149 64.5376 171.337 64.7183 171.412C64.7455 171.423 65.031 171.334 65.1507 171.397C65.2222 171.436 65.5722 171.703 65.649 171.741C65.7758 171.804 65.8686 171.616 65.9273 171.679C66.0978 171.862 65.8313 172.095 66.2193 171.784C66.2281 172.032 66.3839 172.059 66.3432 172.347C66.5279 172.078 66.5467 172.4 66.7491 172.354C66.9509 172.308 67.2644 171.769 67.1161 172.406C67.218 172.354 67.5935 172.323 67.6518 172.329C67.8271 172.35 67.6886 172.498 67.8219 172.51C67.8453 172.512 67.8549 172.387 67.9942 172.438C68.0863 172.474 68.7727 172.657 68.8104 172.681C69.2378 172.981 68.5242 172.74 68.3895 172.841C68.3801 172.802 68.371 172.763 68.3603 172.725C68.1657 172.614 68.2142 172.915 68.2942 173.003C68.3739 173.09 68.5825 173.014 68.6406 173.122C68.6694 173.176 68.5667 173.496 68.454 173.426C68.5602 173.558 68.3554 173.62 68.3841 173.727C68.4157 173.846 69.0027 174.015 69.0469 173.835C68.9359 173.804 68.7994 173.779 68.6882 173.745C68.626 173.437 69.1638 172.639 69.4823 172.829C69.5234 172.852 69.5619 172.89 69.5965 172.946C69.8296 173.319 69.2854 173.458 70.0464 173.352C69.94 173.316 69.8547 173.266 69.7598 173.232C69.7999 172.995 69.9031 173.288 70.0023 173.231C70.05 173.203 69.841 172.984 70.066 172.975C70.1761 173.35 70.3905 173.044 70.6964 173.108C70.5979 173.149 70.5011 173.19 70.4018 173.23C70.8636 173.588 69.649 173.402 70.6192 173.761C70.496 173.745 70.3789 173.716 70.253 173.705C70.2844 173.841 70.1106 174.181 70.1461 174.269C70.2401 174.5 70.4667 174.424 70.6305 174.48C70.7014 174.504 70.6343 174.591 70.6403 174.593C70.7373 174.626 70.7478 174.478 70.8376 174.489C70.9524 174.503 71.2363 174.715 71.2929 174.711C71.4354 174.702 71.2783 174.369 71.2957 174.351C71.4137 174.234 71.56 174.387 71.5927 174.207C71.1458 174.231 69.9686 173.8 71.1338 173.754C70.895 173.396 71.0748 173.019 71.518 173.088C71.8864 173.145 71.6155 173.25 71.7625 173.469C71.7821 173.496 72.2438 173.692 72.2981 173.575C72.2118 173.855 72.3092 174.144 72.1348 174.413C72.1091 174.452 71.9159 174.389 71.9292 174.641C71.9357 174.768 71.9736 175.05 71.9221 175.197C71.9875 175.101 72.0574 174.993 72.124 174.893C72.4252 174.932 72.4411 175.056 72.5547 175.289C72.5669 175.206 72.4999 174.827 72.7009 174.985C72.711 174.994 72.6916 175.12 72.7921 175.209C72.9937 175.386 73.0331 175.436 72.7689 175.755C73.2985 175.664 73.3033 176.092 73.824 176.093C73.8384 175.605 73.6381 175.678 73.166 175.659C73.1731 175.544 73.1903 175.432 73.1971 175.316C73.7361 175.711 73.4458 175.614 73.8399 175.471C73.9371 175.437 74.3654 175.603 74.2937 175.254C74.2764 175.172 73.9995 175.114 74.0589 175.005C74.0705 174.985 74.4188 175.01 74.4414 175.047C74.7223 175.508 73.9966 175.604 75.0504 175.718C75.0795 175.721 75.1224 175.588 75.1821 175.583C75.2943 175.573 75.257 175.73 75.3581 175.716C75.4592 175.703 75.6393 175.523 75.7302 175.752C75.8973 176.169 75.2485 176.226 75.0279 175.973C74.8061 176.41 76.7096 176.886 76.8382 176.875C77.3968 176.829 76.5131 176.719 76.5003 176.579C76.4952 176.52 76.6728 175.833 76.3463 176.227C76.2496 176.344 76.4755 176.585 76.2974 176.619C76.119 176.652 76.2322 176.465 76.2241 176.448C76.196 176.39 76.0071 176.423 75.992 176.389C75.7585 175.869 75.9514 175.217 76.1637 176.302C76.4141 176.13 76.0491 175.668 76.3298 175.578C76.6713 175.469 76.8108 175.836 76.8448 175.86C77.2512 176.136 76.8473 175.552 77.358 175.831C77.6423 175.987 76.8281 176.026 77.5304 176.165C78.1185 176.281 77.843 176.045 77.9734 175.692C78.0041 175.609 78.3478 175.582 77.9051 175.514C77.8698 175.606 77.8164 175.725 77.7676 175.806C77.678 175.711 77.6159 175.194 77.5636 175.164C77.307 175.018 77.2603 175.267 77.1684 174.938C77.2072 175.283 77.0648 175.046 76.9774 175.095C76.6537 175.277 76.977 175.453 76.4628 174.992C76.5035 175.159 76.5378 175.322 76.5763 175.488C76.5041 175.476 76.4317 175.464 76.3595 175.452C76.3336 175.099 75.9464 175.048 76.3683 174.803C75.9805 174.609 75.7972 174.64 75.645 174.872C75.616 174.916 75.5495 174.921 75.476 174.908C75.4722 174.982 75.4357 175.208 75.4177 175.232C75.2577 175.445 75.1993 174.995 75.2918 174.851C75.2429 174.831 75.2049 174.812 75.1916 174.805C75.1078 174.759 75.3186 174.66 75.2577 174.593C75.2375 174.571 74.9771 174.541 74.986 174.482C75.0459 174.104 75.3977 174.473 74.6125 174.053C74.5105 174.386 74.9172 174.406 74.7301 174.74C74.5297 175.099 74.4361 174.529 74.2737 174.99C74.2748 174.908 74.2827 174.841 74.2889 174.749C73.9007 174.873 73.9909 174.478 73.9087 174.367C73.7483 174.148 72.8171 173.951 73.5656 174.492C73.4363 174.497 73.3085 174.483 73.1803 174.484C73.3215 173.772 73.3295 174.07 72.7712 173.823C72.649 173.769 72.6795 173.448 72.4664 173.787C72.5695 173.429 72.1365 173.558 72.1115 173.506C71.9498 173.166 72.8924 172.969 72.8485 173.634C73.0502 173.419 72.9713 173.748 73.1414 173.743C73.3851 173.735 73.4345 173.679 73.6476 173.987C73.9987 173.709 72.6328 173.584 73.5418 173.322C74.4581 173.058 79.1593 173.948 80.2449 174.129C81.0774 174.271 81.7429 174.379 82.3625 174.484L81.9484 174.428C82.8531 174.427 83.6749 174.457 84.7382 174.55C84.9211 174.565 86.283 174.643 85.967 175.025C85.9213 175.079 85.3262 175.186 85.7997 175.545C85.7136 175.348 86.0177 175.251 86.0442 175.233C86.6467 174.832 86.3293 174.694 87.2166 174.765ZM89.5317 178.6C88.3817 178.41 89.2096 178.753 88.9171 179.344C89.0685 179.359 89.2113 179.372 89.362 179.387C89.3258 179.345 89.2903 179.304 89.2545 179.262C89.2544 179.262 89.2542 179.262 89.254 179.262C89.3458 179.041 89.4404 178.821 89.5317 178.6ZM108.555 179.364C108.51 179.445 108.465 179.525 108.416 179.604C108.263 179.579 108.11 179.555 107.957 179.529C107.975 179.475 107.993 179.419 108.011 179.364C108.192 179.367 108.373 179.369 108.555 179.364ZM74.8495 176.021C74.6929 175.752 74.616 176.145 74.3803 175.9C74.3445 176.195 74.314 176.486 74.2807 176.779C74.5037 176.788 74.5785 176.691 74.7923 176.817C74.7879 176.718 74.7831 176.619 74.7795 176.52C74.7362 176.53 74.6898 176.543 74.6484 176.551C74.6521 176.278 75.0306 176.33 74.8504 176.02C74.8501 176.021 74.8498 176.021 74.8495 176.021ZM72.6677 175.615C72.563 175.55 72.1491 175.303 72.0598 175.408C71.7574 175.763 73.0793 175.806 72.0647 175.945C72.0556 176.002 72.0381 176.057 72.0248 176.113C72.1908 176.173 72.3532 176.23 72.5213 176.287C72.5656 176.061 72.6244 175.842 72.6677 175.615ZM85.3574 178.272C85.1822 178.225 84.3221 178.354 84.5773 178.638C84.6516 178.721 85.0575 178.375 85.2009 178.404C85.2926 178.422 85.1717 178.619 85.3613 178.558C85.3606 178.467 85.3637 178.366 85.3569 178.273C85.3571 178.273 85.3572 178.273 85.3574 178.272ZM85.7899 177.104C85.6024 177.125 85.4114 177.156 85.2228 177.18C85.339 177.425 85.6189 177.297 85.6065 177.627C85.5541 177.648 85.5018 177.669 85.4487 177.69C85.4157 177.615 85.3833 177.539 85.3511 177.464C85.1788 177.63 85.2657 177.727 84.9751 177.652C85.1136 178.164 85.1244 178.434 85.6724 177.972C85.554 178.234 85.5727 179.122 85.9042 178.516C85.9661 178.404 85.7546 178.307 85.7533 178.288C85.7388 178.054 85.8726 177.917 85.8547 177.695C85.8475 177.595 85.7116 177.586 85.7032 177.447C85.6994 177.379 85.8434 177.199 85.7899 177.104ZM86.0597 178.307C85.9917 178.442 86.1555 178.791 86.3322 178.738C86.6036 178.656 86.2142 178.304 86.0597 178.307ZM108.556 179.363C108.556 179.364 108.556 179.364 108.555 179.364C108.555 179.363 108.556 179.363 108.556 179.363C108.556 179.363 108.556 179.363 108.556 179.363ZM73.2118 175.913C73.0513 175.997 72.8579 175.933 72.8282 176.121C72.7722 176.069 72.7155 176.018 72.6597 175.966C72.647 176.022 72.6349 176.078 72.6224 176.133C72.8079 176.214 72.9942 176.295 73.1799 176.377C73.1913 176.223 73.2047 176.068 73.2118 175.913ZM71.1221 175.282C70.881 175.206 71.0286 175.506 70.9468 175.615C70.8647 175.724 70.6718 175.575 70.6569 175.756C70.7977 175.795 70.9467 175.837 71.0903 175.877C71.0962 175.678 71.1143 175.479 71.1216 175.281C71.1218 175.281 71.1219 175.282 71.1221 175.282ZM94.3203 179.072C94.1477 179.012 94.2233 178.817 93.879 179.041C93.8792 179.041 93.8795 179.041 93.8797 179.041C94.1986 179.209 94.6123 179.361 94.9752 179.21C94.7575 178.999 94.5916 179.164 94.3203 179.072ZM75.293 176.728C75.4004 176.594 75.1042 176.387 74.9978 176.51C74.8254 176.71 75.1294 176.933 75.293 176.728ZM101.266 177.758C101.528 177.278 101.04 176.735 100.52 176.966C100.475 176.986 100.809 177.141 100.709 177.234C100.699 177.243 100.515 177.231 100.47 177.298C100.424 177.364 100.471 177.52 100.396 177.585C100.267 177.699 99.9711 177.486 99.873 177.635C99.8599 177.655 100.042 177.864 100.053 177.872C100.243 177.999 100.422 177.728 100.452 177.726C100.601 177.718 100.577 177.931 100.615 177.981C100.686 178.076 100.812 177.982 100.821 177.989C101.048 178.178 100.527 178.122 100.458 178.198C100.268 178.405 100.444 178.599 99.9889 178.713C99.9457 178.724 99.4314 178.709 100.079 178.951C98.8042 179.442 100.715 179.239 100.925 179.13C101.02 179.079 100.877 178.875 100.935 178.784C101.068 178.575 101.294 178.539 101.275 178.244C101.234 177.623 100.938 178.029 100.733 177.923C100.755 177.789 100.764 177.657 100.805 177.526C100.744 177.703 101.246 177.794 101.266 177.759C101.266 177.758 101.266 177.758 101.266 177.758ZM98.0436 178.446C97.7598 178.256 97.7786 178.648 97.5166 178.421C97.281 178.771 97.7404 178.751 97.7918 178.772C98.0317 178.863 98.0228 179.245 98.2736 179.129C98.1895 178.902 98.1217 178.673 98.0436 178.446ZM100.527 178.624C100.335 178.822 100.677 178.82 100.691 178.858C100.839 179.261 99.8182 179.177 100.527 178.624ZM84.3162 177.4C84.2209 177.379 84.2677 177.573 84.179 177.623C84.0897 177.673 83.8114 177.49 83.8099 177.608C83.81 177.727 84.3169 178.071 83.7804 178.099C83.7937 178.167 83.7841 178.216 83.7886 178.276C83.934 178.289 84.082 178.302 84.2273 178.315C84.1615 178.118 84.0943 177.911 84.0301 177.721C84.1239 177.576 84.1561 177.774 84.1602 177.774C84.1603 177.774 84.1603 177.774 84.1603 177.774C84.314 177.77 84.5313 177.446 84.3162 177.4ZM91.8728 178.626C91.9385 178.154 91.6725 178.665 91.5713 178.716C91.4717 178.767 91.3576 178.581 91.3894 178.789C91.5308 178.942 91.8655 178.678 91.8728 178.625C91.8728 178.625 91.8728 178.626 91.8728 178.626ZM96.4919 178.43C96.2493 178.543 96.2859 178.667 95.9966 178.522C96.0065 178.637 96.0166 178.755 96.0262 178.868C96.257 178.873 96.2445 178.54 96.5144 178.677C96.5582 178.7 96.4623 178.965 96.6607 178.882C96.605 178.739 96.5484 178.58 96.4919 178.43ZM95.2968 178.84C95.5765 178.827 95.8055 177.9 95.2915 178.312C95.2153 178.373 95.0889 178.85 95.2968 178.84ZM86.8387 177.582C86.376 177.516 86.8908 177.71 87.0008 177.863C85.907 177.885 87.1273 177.835 87.1934 178.317C87.3391 178.194 87.6108 177.907 87.3439 177.801C87.2311 177.756 87.2615 177.901 87.2545 177.9C87.0463 177.847 87.0916 177.618 86.8387 177.582ZM98.5403 178.427C98.5227 178.434 98.5489 178.594 98.4928 178.626C98.4363 178.657 98.312 178.544 98.2976 178.642C98.2853 178.742 98.537 178.82 98.6164 178.749C98.6953 178.677 98.7 178.366 98.5403 178.427ZM96.7497 178.014C96.5163 178.127 96.889 178.723 96.941 178.72C97.3914 178.694 96.7324 178.201 96.7497 178.014ZM88.0048 176.674C87.4196 176.925 87.783 177.48 88.1095 177.822C88.1609 177.763 88.2136 177.703 88.2648 177.645C88.023 178.011 87.6202 178.36 88.4704 178.095C88.027 177.966 88.4136 177.895 88.4193 177.873C88.5275 177.171 87.8338 177.442 88.0053 176.674C88.0052 176.674 88.005 176.674 88.0048 176.674ZM99.299 178.602C99.5478 178.601 100.182 178.482 99.8874 178.171C99.6914 178.315 99.4968 178.458 99.299 178.602ZM78.9684 175.57C78.8151 175.351 78.6355 175.311 78.393 175.264C78.5484 175.567 78.3996 175.561 78.3119 175.605C78.1791 175.67 78.4486 175.727 78.4453 175.744C78.383 175.981 78.2034 175.976 78.5933 176.064C78.4774 176.124 78.3624 176.184 78.2463 176.243C78.5401 176.326 78.5726 176.498 78.7154 176.732C78.644 176.226 78.8146 176.573 79.0883 176.395C79.2248 176.306 79.0458 175.682 78.9676 175.57C78.9679 175.57 78.9681 175.57 78.9684 175.57ZM87.4337 176.529C87.3681 176.61 87.3053 176.721 87.2413 176.814C87.18 176.818 87.119 176.821 87.0564 176.825C87.0553 176.749 87.0557 176.669 87.0531 176.596C86.9745 176.567 86.9969 176.675 86.9722 176.682C86.9722 176.682 86.9723 176.682 86.9723 176.681C86.6192 176.792 86.4789 176.764 86.2319 176.508C86.2124 176.739 86.193 176.971 86.1735 177.202C86.2349 177.185 86.2973 177.169 86.3596 177.152C86.4022 177.031 86.4451 176.909 86.4879 176.787C86.5517 176.862 86.6141 176.936 86.6783 177.01C86.7379 176.97 86.8104 176.929 86.8614 176.89C87.0837 177.56 86.4889 177.067 86.4619 177.335C86.4417 177.507 87.0805 177.554 87.1812 177.442C87.196 177.426 87.0997 176.933 87.3108 177.204C87.3436 177.246 87.269 178.289 87.5905 177.467C87.6362 177.35 87.5681 176.693 87.4337 176.529ZM85.1458 175.999C85.4522 176.694 84.1806 175.885 84.7108 176.479C84.5237 176.773 84.5545 176.771 84.6978 177.056C84.7103 177.081 84.5903 177.157 84.5991 177.168C84.7418 177.33 84.9306 177.265 84.9108 177.538C84.9536 177.526 84.9935 177.517 85.0356 177.505C84.8851 177.235 85.1704 177.084 85.2957 176.876C85.3524 176.781 85.2428 176.742 85.2908 176.659C85.3093 176.629 85.4579 176.705 85.472 176.615C85.5013 176.413 85.4282 176.13 85.2728 175.966C85.2728 175.966 85.2728 175.966 85.2728 175.966C85.23 175.976 85.1883 175.989 85.1458 175.999ZM92.7231 177.164C92.7724 177.535 93.0148 177.648 92.5402 177.815C92.5617 177.889 92.5841 177.962 92.6059 178.035C92.6842 178.031 92.7604 178.027 92.8415 178.023C93.1181 176.941 93.5203 178.18 93.2584 177.401C93.2295 177.316 93.0415 177.405 93.2307 177.182C93.2305 177.182 93.2303 177.181 93.23 177.181C92.9755 177.245 92.9303 177.375 92.7231 177.164ZM90.9966 177.308C90.3403 178.035 91.784 177.808 91.5647 177.582C91.545 177.562 90.9189 177.679 90.9966 177.308ZM95.7862 176.805C95.5193 176.788 95.4972 177.208 95.5212 177.359C95.5454 177.511 95.732 177.361 95.7559 177.385C95.8328 177.465 95.6666 177.514 95.7664 177.624C95.7998 177.659 96.2652 177.815 96.2864 177.797C96.4066 177.698 96.2372 177.35 96.2717 177.311C96.3837 177.182 96.5333 177.364 96.5681 177.18C96.6426 176.788 96.3547 177.197 96.3078 177.203C96.165 177.22 96.1804 176.999 96.0752 176.953C95.9695 176.908 95.8967 176.983 95.8028 176.966C95.7715 176.96 95.7997 176.807 95.7862 176.805ZM94.8877 177.678C95.1749 177.365 94.4964 177.008 94.4161 177.081C94.1737 177.297 94.7483 177.828 94.8877 177.678ZM85.9613 177.079C86.2356 176.871 85.6567 176.635 85.4779 176.714C85.5022 176.812 85.8679 177.151 85.9613 177.079ZM88.1615 176.689C87.919 176.74 88.1866 177.284 88.3833 177.292C88.5283 176.962 88.4127 177.02 88.2862 176.996C88.1603 176.971 88.3475 176.649 88.1615 176.689ZM98.6877 177.216C98.6376 177.21 97.8149 177.485 98.2865 177.606C98.3225 177.615 98.8942 177.57 98.9402 177.518C99.0287 177.412 98.8186 177.232 98.6877 177.216ZM89.3289 176.282C89.1793 176.566 89.0567 176.551 89.1421 176.906C89.1423 176.906 89.1425 176.906 89.1426 176.906C88.8196 176.986 88.8661 176.278 88.7965 176.287C88.5552 176.32 88.7363 176.842 88.5743 176.994C88.9327 176.869 88.8058 177.199 89.0659 177.243C89.1254 177.253 89.3778 177.07 89.4227 176.947C89.4677 176.824 89.3793 176.435 89.3289 176.282ZM99.8445 177.15C99.5703 177.035 99.3143 177.512 99.6962 177.59C99.8821 177.629 100.013 177.22 99.8445 177.15ZM72.6701 173.885C72.6826 174.017 72.6955 174.148 72.7109 174.28C72.6052 174.286 72.4977 174.292 72.3912 174.299C72.4788 174.279 72.5675 174.259 72.6552 174.24C72.4787 174.153 72.445 173.911 72.6696 173.885C72.6698 173.885 72.6699 173.885 72.6701 173.885ZM66.1577 172.15C66.1175 172.009 65.8401 172.309 65.8503 172.343C65.9313 172.601 66.215 172.345 66.1577 172.15ZM85.6775 175.916C85.3612 175.838 85.5333 176.462 85.7236 176.519C85.6144 176.393 85.8547 175.96 85.6775 175.916ZM68.3895 172.841C68.4036 172.898 68.4179 172.956 68.4354 173.014C68.358 172.92 68.3538 172.868 68.3895 172.841ZM98.5619 176.678C98.5144 176.631 98.1556 176.589 98.1061 176.646C98.0034 176.767 98.2843 177.105 98.4478 177.003C98.466 176.992 98.6096 176.725 98.5611 176.678C98.5614 176.678 98.5616 176.678 98.5619 176.678ZM72.3026 173.559C72.3019 173.565 72.3003 173.57 72.2981 173.575C72.2997 173.57 72.3009 173.564 72.3026 173.559ZM60.2217 168.609C60.2184 168.618 60.2143 168.627 60.2095 168.634C60.2135 168.626 60.2171 168.617 60.2217 168.609ZM96.0399 176.135C95.9265 175.555 95.6481 175.859 95.8613 176.148C95.8731 176.163 96.0105 176.134 96.0399 176.135Z" fill="#F5F0E9" fill-opacity="0.7"/>
<path d="M38.5854 159.176C38.1475 158.693 37.6277 158.166 37.3153 157.546C37.277 157.47 37.4182 157.378 37.4231 157.346C37.437 157.259 37.252 157.34 37.2375 157.292C37.1689 157.071 37.0795 156.881 37.0149 156.664C37.0133 156.658 37.0116 156.651 37.01 156.644C36.9612 156.442 37.4542 156.246 37.526 156.121C37.6668 155.875 37.1486 156.331 36.9909 156.367C36.9444 156.214 36.9252 156.043 36.9073 155.873C36.9812 155.871 37.0539 155.871 37.124 155.872C37.1005 155.807 37.1391 155.67 37.3496 155.672C37.3781 155.625 37.4146 155.575 37.4417 155.528C37.2274 155.653 37.1477 155.562 37.0171 155.631C36.8864 155.699 36.9504 155.738 36.9393 155.744C36.7813 155.837 36.8493 155.472 36.8562 155.444C36.8748 155.371 37.1601 155.248 37.1199 155.221C37.0507 155.173 36.5463 155.546 37.198 155.02C36.9468 155.127 37.0641 155.05 37.0524 154.996C37.0508 154.989 36.9207 155.076 36.9157 155.075C36.7754 155.069 37.0545 154.968 37.0677 154.959C37.2913 154.812 37.1455 154.803 37.1579 154.774C37.3113 154.415 37.4086 154.161 37.3468 153.921C37.3332 153.869 37.1589 153.794 37.1715 153.728C37.1839 153.663 37.3615 153.583 37.4267 153.513C37.011 153.722 36.9469 153.716 37.1581 153.477C36.8526 153.626 37.0868 153.486 36.9947 153.466C36.9183 153.449 36.5233 153.582 36.7856 153.349C36.7952 153.424 36.9326 153.33 37.0587 153.343C37.1006 153.348 37.2485 153.573 37.5318 153.374C37.6794 153.27 37.4918 153.281 37.5182 153.261C37.6722 153.142 37.9007 153.059 37.853 153.14C37.814 153.151 37.7734 153.161 37.7339 153.172C37.5804 153.383 38.3346 152.836 37.6839 153.328C37.6041 153.388 37.5138 153.44 37.4319 153.509C37.4708 153.488 37.5532 153.415 37.5783 153.419C37.6036 153.422 37.4449 153.558 37.5951 153.47C37.8135 153.343 37.6928 153.337 37.7026 153.325C37.7013 153.326 37.7 153.326 37.6987 153.327C37.7887 153.218 37.8518 153.291 37.8745 153.282C38.0238 153.224 38.1162 153.143 38.25 153.112C38.3262 153.094 38.3228 153.172 38.3557 153.179C38.3889 153.186 38.4712 153.092 38.5013 153.092C38.5315 153.092 38.4647 153.157 38.4997 153.157C38.5151 153.157 38.6281 153.086 38.6341 153.087C38.6994 153.095 38.4495 153.218 38.4836 153.241C38.5059 153.256 38.7685 153.189 38.8044 153.1C38.8414 153.109 38.8719 153.121 38.9039 153.133C38.9287 153.098 38.9424 153.069 38.9733 153.03C38.9459 153.106 39.1518 153.006 39.1829 153.024C39.2139 153.041 38.9963 153.21 39.1281 153.169C39.4086 153.083 39.2002 152.995 39.2313 152.949C39.2435 152.931 39.4438 152.847 39.4517 152.848C39.4868 152.854 39.3711 152.958 39.3864 152.97C39.4422 153.011 39.635 152.938 39.7021 152.969C39.9304 153.074 40.163 153.235 40.3051 153.381C40.3579 153.435 40.188 153.592 40.2109 153.617C40.2647 153.675 40.4382 153.579 40.4828 153.631C40.5497 153.708 40.4773 153.919 40.4899 154.01C40.4988 154.073 40.6896 154.017 40.7015 154.028C40.7774 154.091 40.8456 154.171 40.9062 154.252C40.9681 154.332 41.021 154.415 41.0656 154.481C41.1034 154.536 40.9424 154.683 40.9557 154.691C41.0123 154.727 41.1557 154.61 41.1678 154.661C41.1745 154.688 41.0316 154.793 41.028 154.8C40.9981 154.859 41.1917 154.733 41.2119 154.749C41.3279 154.839 41.2855 155.038 41.3539 155.167C41.3587 155.177 41.2762 155.237 41.2845 155.24C41.3221 155.248 41.4429 155.14 41.4705 155.157C41.5284 155.193 41.5459 155.259 41.5711 155.325C41.5736 155.332 41.4714 155.415 41.4808 155.427C41.4902 155.439 41.5957 155.372 41.6049 155.395C41.6292 155.455 41.5512 155.597 41.5871 155.655C41.5932 155.664 41.7254 155.575 41.7344 155.589C41.7632 155.633 41.7006 155.784 41.7257 155.823C41.8086 155.949 41.967 155.996 42.0609 156.103C42.0825 156.128 41.9913 156.247 42.0003 156.262C42.0206 156.297 42.1054 156.183 42.1321 156.213C42.3493 156.454 42.5268 156.739 42.7686 156.974C42.8633 157.066 43.0781 157.08 43.1404 157.198C43.1661 157.248 43.0374 157.39 43.0631 157.418C43.1096 157.468 43.2914 157.301 43.3589 157.333C43.4124 157.359 43.2876 157.58 43.3411 157.611C43.3943 157.641 43.5794 157.488 43.6481 157.515C43.7046 157.536 43.6861 157.668 43.7427 157.698C44.2421 157.956 44.7007 158.236 45.0132 158.717C45.03 158.746 45.121 158.8 45.1358 158.83C45.147 158.849 45.158 158.868 45.1686 158.888C45.2761 159.087 45.473 159.234 45.4662 159.558C45.4654 159.589 45.28 159.729 45.3618 159.742C45.4057 159.749 45.5821 159.645 45.6487 159.697C46.0435 160.01 46.116 160.688 46.5295 160.992C47.1465 161.444 48.8966 160.906 47.5933 163.025C47.5286 163.128 47.0957 163.51 46.9631 163.609C47.0367 163.516 47.1269 163.409 47.2106 163.304C46.6685 163.781 46.8081 163.655 46.7962 163.548C46.789 163.481 46.5932 163.723 46.5096 163.762C46.4022 163.813 46.0241 163.931 46.3948 163.628C46.3269 163.677 46.2624 163.724 46.1964 163.772C46.0581 163.73 45.8875 163.724 45.7047 163.73C45.6727 163.731 45.563 163.833 45.5311 163.834C45.4441 163.838 45.483 163.736 45.431 163.703C45.4027 163.685 45.2734 163.8 45.2526 163.763C45.2316 163.724 45.4012 163.563 45.177 163.697C44.9911 163.927 45.0281 163.657 44.9741 163.627C44.9663 163.622 44.7264 163.753 44.7224 163.705C44.7176 163.657 44.7986 163.498 44.6892 163.523C44.6377 163.534 44.478 163.664 44.449 163.651C44.4289 163.642 44.5428 163.497 44.5298 163.473C44.5168 163.448 44.369 163.511 44.3603 163.505C44.327 163.485 44.448 163.426 44.4347 163.403C44.3677 163.292 44.3169 163.141 44.1683 163.112C44.1501 163.109 44.0568 163.229 44.0517 163.231C43.8473 163.287 44.0266 163.189 44.104 163.075C44.1788 162.964 43.9897 162.873 43.8011 163.056C44.0318 162.821 43.8213 162.966 43.8065 162.964C43.7493 162.959 43.9583 162.766 43.8654 162.797C43.8315 162.808 43.7159 162.965 43.708 162.949C43.6889 162.91 43.8818 162.665 43.8653 162.604C43.8612 162.589 43.7602 162.683 43.7467 162.663C43.7334 162.642 43.7817 162.452 43.6082 162.689C43.7309 162.482 43.6319 162.564 43.5863 162.509C43.5752 162.495 43.7157 162.321 43.6404 162.343C43.6148 162.35 43.4633 162.501 43.4484 162.489C43.4141 162.461 43.5412 162.275 43.5074 162.228C43.4455 162.142 43.2554 162.172 43.2168 162.055C43.2063 162.023 43.3633 161.876 43.3355 161.842C43.331 161.838 43.1628 161.932 43.1538 161.899C43.1486 161.879 43.1732 161.719 43.1678 161.698C43.1576 161.665 43.0069 161.808 43.0235 161.767C43.071 161.649 43.3151 161.46 42.9774 161.715C43.1271 161.536 43.0854 161.528 43.279 161.317C43.0441 161.525 43.2375 161.293 43.1356 161.34C43.0336 161.387 42.5836 161.795 43.0361 161.324C42.9667 161.367 42.8162 161.409 42.7999 161.406C42.7525 161.399 42.8943 161.285 42.8561 161.282C42.8496 161.281 42.7667 161.373 42.7515 161.341C42.7479 161.333 42.7307 161.312 42.7107 161.287L42.7665 161.339C42.7281 161.298 42.681 161.248 42.6832 161.236C42.7243 161.016 42.8096 161.184 42.9152 161.098C42.8955 161.127 42.8758 161.157 42.8567 161.186C42.8566 161.263 43.0165 161.033 43.0417 160.969C43.0669 160.905 42.9542 160.972 42.9999 160.891C43.0229 160.85 43.2455 160.6 43.2402 160.649C43.2849 160.552 43.3865 160.496 43.4408 160.415C43.5002 160.326 43.422 160.215 43.3008 160.354C43.3152 160.375 43.3426 160.39 43.3566 160.412C43.1726 160.676 42.3808 161.437 42.5958 161.045C42.7525 160.763 43.0015 160.646 42.7072 160.742C42.7171 160.767 42.713 160.803 42.721 160.828C42.5649 161.011 42.7113 160.788 42.647 160.833C42.6156 160.855 42.5454 161.02 42.4719 161.031C42.667 160.745 42.4156 160.984 42.3603 160.941C42.4153 160.908 42.4701 160.875 42.5251 160.842C42.6019 160.577 42.8592 160.694 42.7817 160.44C42.8093 160.45 42.8277 160.47 42.8593 160.475C42.9326 160.372 43.1926 160.108 43.2354 160.042C43.3478 159.868 43.2324 159.931 43.2165 159.892C43.2094 159.876 43.2831 159.808 43.2824 159.807C43.2732 159.784 43.1798 159.896 43.159 159.891C43.1328 159.883 43.1746 159.73 43.1552 159.734C43.1054 159.745 42.9502 159.994 42.9338 160.008C42.8264 160.1 42.8744 159.987 42.754 160.125C42.908 160.094 43.005 160.395 42.6192 160.458C42.4742 160.725 42.1895 161.017 42.0931 160.974C42.0131 160.939 42.1618 160.853 42.2494 160.69C42.2601 160.67 42.2355 160.532 42.1465 160.623C42.3452 160.408 42.4923 160.192 42.7117 159.984C42.744 159.953 42.7651 159.996 42.9158 159.805C42.9915 159.709 43.1527 159.497 43.2591 159.384C43.1803 159.458 43.0922 159.542 43.0101 159.62C42.9404 159.599 43.0112 159.507 43.12 159.334C43.0648 159.397 42.8523 159.681 42.8871 159.568C42.8895 159.561 42.973 159.466 42.9965 159.402C43.0433 159.274 43.0622 159.239 43.3413 158.99C43.1212 159.076 43.3839 158.755 43.2237 158.772C42.9149 159.137 43.0233 159.077 43.1586 159.075C43.085 159.162 43.0105 159.247 42.9363 159.335C43.0123 159.055 43.0435 159.119 42.8317 159.238C42.7798 159.267 42.749 159.156 42.5542 159.414C42.5083 159.475 42.5595 159.51 42.4733 159.593C42.4568 159.609 42.3625 159.601 42.3784 159.573C42.5768 159.238 42.8653 159.144 42.6054 159.091C42.5981 159.09 42.5013 159.19 42.4791 159.196C42.4377 159.206 42.5479 159.089 42.5075 159.102C42.467 159.115 42.2972 159.253 42.4124 159.086C42.6228 158.782 42.8625 158.72 42.7724 158.901C43.1149 158.569 42.8238 158.278 42.7778 158.29C42.5741 158.34 42.7788 158.395 42.6944 158.497C42.6585 158.54 42.1662 159.052 42.5192 158.752C42.6236 158.663 42.7055 158.493 42.7828 158.462C42.86 158.432 42.7057 158.574 42.6974 158.586C42.6693 158.628 42.7495 158.598 42.7326 158.622C42.477 159 42.0039 159.488 42.6237 158.692C42.4358 158.826 42.2586 159.157 42.1131 159.231C41.9355 159.32 42.1241 159.053 42.1283 159.036C42.1761 158.843 41.9313 159.263 41.9481 159.07C41.9578 158.962 42.2395 158.914 42.107 158.829C41.996 158.757 41.9311 158.924 41.6633 159.185C41.6007 159.246 41.4738 159.272 41.5714 159.313C41.6413 159.245 41.7346 159.157 41.8017 159.097C41.7692 159.165 41.4589 159.543 41.4565 159.564C41.4457 159.666 41.619 159.482 41.4393 159.723C41.6461 159.469 41.5411 159.641 41.6006 159.603C41.8198 159.461 41.8274 159.338 41.7002 159.667C41.7929 159.545 41.8849 159.425 41.9779 159.304C41.9931 159.311 42.0085 159.318 42.0236 159.325C41.8085 159.585 41.9009 159.614 41.6109 159.805C41.6129 159.94 41.6916 159.913 41.886 159.737C41.9231 159.703 41.9471 159.698 41.9624 159.706C42.0106 159.65 42.1635 159.482 42.1845 159.463C42.3692 159.3 42.1051 159.633 41.9856 159.743C41.9887 159.757 41.9892 159.77 41.9888 159.775C41.9866 159.807 41.8573 159.886 41.8352 159.934C41.828 159.95 41.8921 159.966 41.8524 160.011C41.5977 160.294 41.7142 160.027 41.7054 160.322C41.9447 160.07 41.8273 160.065 42.0952 159.811C42.3826 159.537 42.0578 159.961 42.3957 159.611C42.3444 159.673 42.3004 159.723 42.2412 159.792C42.4409 159.688 42.1674 159.986 42.1244 160.068C42.0403 160.228 42.2137 160.351 42.3107 159.965C42.3548 159.958 42.3863 159.964 42.4273 159.96C41.9433 160.5 42.125 160.276 42.1495 160.447C42.1548 160.485 41.9483 160.728 42.2237 160.467C41.9718 160.74 42.1869 160.632 42.1628 160.67C42.0064 160.924 41.5867 161.096 42.0091 160.592C41.8129 160.759 42.0401 160.509 41.9829 160.517C41.9003 160.53 41.8504 160.573 41.9725 160.347C41.6891 160.564 42.0476 160.625 41.5962 160.845C41.1441 161.07 40.1555 160.49 39.9209 160.346C39.4946 160.095 39.258 159.967 38.9766 159.63C38.9483 159.597 38.7041 159.376 39.0529 159.156C39.1031 159.125 39.3098 159.124 39.4689 158.823C39.3445 158.967 39.2072 158.997 39.1885 159.005C38.763 159.204 38.7311 159.335 38.5854 159.176ZM40.9704 156.383C41.0505 156.626 41.1484 156.317 41.6516 155.963C41.6342 155.939 41.617 155.916 41.5998 155.892C41.575 155.923 41.5502 155.953 41.5254 155.983C41.5254 155.983 41.5254 155.983 41.5254 155.984C41.3408 156.117 41.1557 156.25 40.9704 156.383ZM39.1137 152.857C39.1876 152.823 39.2615 152.789 39.3343 152.756C39.3306 152.798 39.3272 152.839 39.3235 152.881C39.2748 152.906 39.2257 152.932 39.177 152.958C39.1581 152.923 39.1395 152.888 39.1137 152.857ZM42.8583 158.86C42.7387 159.055 43.009 158.759 42.9295 158.935C43.1252 158.713 43.3162 158.496 43.5101 158.276C43.447 158.277 43.3626 158.352 43.376 158.266C43.3152 158.339 43.2542 158.413 43.193 158.487C43.2129 158.477 43.2352 158.466 43.2534 158.459C43.0813 158.662 42.9955 158.636 42.8578 158.86C42.8579 158.86 42.8581 158.86 42.8583 158.86ZM43.286 159.092C43.2782 159.137 43.2544 159.311 43.3465 159.229C43.6579 158.951 43.2775 158.962 43.6752 158.824C43.7135 158.78 43.7525 158.738 43.7911 158.695C43.7776 158.656 43.7625 158.618 43.7463 158.581C43.5932 158.753 43.4396 158.92 43.286 159.092ZM41.5519 157.02C41.5531 157.069 41.8158 157.068 41.9716 156.848C42.0174 156.784 41.6867 156.98 41.6788 156.946C41.6737 156.925 41.8414 156.803 41.7597 156.825C41.6932 156.887 41.6189 156.956 41.5524 157.019C41.5523 157.02 41.5521 157.02 41.5519 157.02ZM40.6102 157.767C40.6645 157.773 40.7267 157.773 40.7827 157.776C40.9376 157.597 40.7865 157.655 41.0307 157.432C41.0567 157.423 41.0824 157.415 41.1083 157.406C41.0601 157.46 41.0118 157.515 40.9635 157.569C41.1201 157.475 41.1722 157.399 41.1762 157.481C41.5207 157.117 41.7169 156.934 41.269 157.192C41.4844 157.026 42.1312 156.424 41.6216 156.801C41.5267 156.871 41.4984 156.957 41.4848 156.97C41.3164 157.129 41.1887 157.209 41.0301 157.36C40.9584 157.429 40.9786 157.449 40.8789 157.544C40.8302 157.59 40.6688 157.697 40.6102 157.767ZM41.4374 156.927C41.5503 156.842 41.7737 156.591 41.7003 156.61C41.5857 156.639 41.4041 156.913 41.4374 156.927ZM39.1133 152.857C39.1135 152.857 39.1136 152.857 39.1137 152.857C39.1134 152.858 39.1132 152.858 39.1129 152.858C39.113 152.858 39.1132 152.858 39.1133 152.857ZM43.3017 158.886C43.4039 158.818 43.4235 158.859 43.5492 158.717C43.5344 158.754 43.5201 158.791 43.5054 158.828C43.5437 158.785 43.582 158.743 43.62 158.701C43.6129 158.646 43.6062 158.592 43.5996 158.537C43.5003 158.653 43.4002 158.769 43.3017 158.886ZM43.5567 159.296C43.5841 159.346 43.7223 159.123 43.8141 159.038C43.9058 158.952 43.8735 159.059 43.9882 158.922C43.9697 158.896 43.9502 158.869 43.9309 158.843C43.8074 158.994 43.6797 159.146 43.5568 159.296C43.5567 159.296 43.5567 159.296 43.5567 159.296ZM40.5481 155.503C40.5226 155.564 40.3551 155.669 40.5816 155.587C40.5815 155.587 40.5815 155.587 40.5815 155.587C40.6736 155.439 40.744 155.291 40.5763 155.325C40.4313 155.48 40.5881 155.409 40.5481 155.503ZM43.1648 158.349C43.0464 158.452 43.0087 158.596 43.1194 158.501C43.2985 158.347 43.3444 158.192 43.1648 158.349ZM38.5997 155.049C38.1608 155.254 37.7585 155.63 38.0163 155.603C38.0388 155.601 38.1304 155.458 38.2216 155.427C38.2306 155.424 38.242 155.464 38.3041 155.437C38.3663 155.41 38.4931 155.319 38.5572 155.299C38.6692 155.263 38.5234 155.429 38.662 155.368C38.6805 155.36 38.8364 155.216 38.8418 155.21C38.9273 155.109 38.6752 155.219 38.6703 155.214C38.6452 155.191 38.8292 155.083 38.8674 155.05C38.9394 154.987 38.8448 155.013 38.8498 155.008C38.9828 154.867 38.9968 154.992 39.0703 154.964C39.2684 154.89 39.4124 154.756 39.564 154.778C39.5783 154.78 39.6267 154.882 39.7554 154.636C40.3248 154.609 39.9227 154.368 39.8057 154.387C39.7515 154.396 39.5953 154.53 39.5108 154.568C39.3176 154.654 39.2603 154.631 39.0118 154.79C38.4895 155.125 38.8691 154.966 38.8038 155.059C38.6869 155.126 38.5742 155.194 38.4576 155.256C38.6154 155.174 38.6326 155.033 38.6007 155.048C38.6004 155.048 38.6 155.049 38.5997 155.049ZM39.5683 155.264C39.4426 155.415 39.7694 155.199 39.6108 155.366C39.9311 155.213 39.861 155.149 39.8721 155.129C39.9204 155.041 40.2435 154.836 40.1184 154.858C39.9361 154.993 39.7506 155.128 39.5683 155.264ZM39.4239 154.726C39.6144 154.657 39.5722 154.596 39.6028 154.573C39.9274 154.333 39.9786 154.564 39.4239 154.726ZM41.1262 157.723C41.1304 157.747 41.2613 157.609 41.3148 157.585C41.3686 157.559 41.2915 157.715 41.3772 157.634C41.4625 157.552 41.6124 157.262 41.7372 157.299C41.7834 157.251 41.8206 157.218 41.8635 157.176C41.844 157.152 41.8253 157.128 41.8061 157.104C41.6765 157.246 41.5402 157.395 41.4155 157.533C41.2917 157.623 41.4286 157.483 41.428 157.483C41.4278 157.483 41.4277 157.483 41.4275 157.483C41.3945 157.47 41.1165 157.668 41.1262 157.723ZM40.5422 156.113C40.1627 156.399 40.6116 156.111 40.6695 156.09C40.7274 156.069 40.6051 156.198 40.7601 156.064C40.8524 155.953 40.5849 156.081 40.5418 156.113C40.5419 156.113 40.5421 156.113 40.5422 156.113ZM39.745 155.531C39.8686 155.508 39.9659 155.432 39.8834 155.561C39.9769 155.494 40.0724 155.426 40.1645 155.36C40.1403 155.32 39.8661 155.51 39.9463 155.389C39.9597 155.37 40.1913 155.237 40.098 155.251C39.9864 155.34 39.8621 155.438 39.745 155.531ZM40.2334 155.49C40.1878 155.455 39.3977 155.947 39.8028 155.795C39.8633 155.772 40.2682 155.516 40.2334 155.49ZM40.7461 157.334C40.7919 157.427 40.8296 157.242 40.9208 157.129C41.1583 157.227 40.8734 157.135 41.2186 156.807C41.0984 156.875 40.8293 157.037 40.8049 157.135C40.795 157.176 40.8961 157.077 40.8966 157.079C40.8996 157.135 40.7211 157.283 40.7461 157.334ZM39.4941 155.189C39.502 155.189 39.635 155.099 39.6683 155.091C39.7012 155.084 39.62 155.166 39.7047 155.115C39.7897 155.064 39.8276 154.98 39.7581 155.005C39.688 155.031 39.4242 155.194 39.4941 155.189ZM39.3672 155.721C39.4906 155.698 39.9374 155.302 39.9301 155.296C39.8543 155.238 39.5233 155.618 39.3672 155.721ZM39.83 157.81C40.1405 157.71 40.4753 157.299 40.6659 157.04C40.611 157.074 40.5558 157.107 40.5014 157.14C40.8256 156.926 41.166 156.737 40.7976 156.823C40.7895 156.954 40.6589 156.96 40.6417 156.974C40.0923 157.422 40.4383 157.321 39.8299 157.809C39.83 157.809 39.83 157.809 39.83 157.81ZM39.5521 154.962C39.5218 154.918 39.3444 154.864 39.1159 155.082C39.2613 155.042 39.4067 155.002 39.5521 154.962ZM41.2681 159.29C41.1756 159.447 41.2077 159.475 41.2551 159.505C41.3998 159.286 41.4438 159.288 41.4997 159.255C41.5839 159.205 41.5352 159.168 41.5472 159.155C41.7193 158.982 41.7733 158.982 41.7068 158.924C41.782 158.879 41.8574 158.833 41.9318 158.787C41.8925 158.733 41.9931 158.608 42.1008 158.441C41.7947 158.808 41.9666 158.559 41.7654 158.692C41.6644 158.759 41.3152 159.21 41.2683 159.29C41.2682 159.29 41.2682 159.29 41.2681 159.29ZM39.8431 157.971C39.9165 157.925 40.0121 157.858 40.0943 157.804C40.1102 157.808 40.1253 157.813 40.1413 157.817C40.0852 157.868 40.0263 157.921 39.9726 157.97C39.9679 157.998 40.0428 157.924 40.0538 157.921C40.0535 157.922 40.0532 157.922 40.0529 157.922C40.2087 157.888 40.2172 157.921 40.0817 158.122C40.2555 157.968 40.4294 157.814 40.6032 157.66C40.578 157.665 40.553 157.669 40.528 157.673C40.4298 157.751 40.3314 157.828 40.233 157.905C40.2744 157.848 40.3156 157.791 40.3572 157.734C40.3153 157.754 40.27 157.774 40.23 157.795C40.6787 157.322 40.4379 157.717 40.6412 157.54C40.7715 157.426 40.6757 157.328 40.5725 157.391C40.5574 157.4 40.212 157.74 40.3688 157.536C40.3932 157.504 41.1836 156.819 40.5066 157.33C40.4104 157.403 39.9355 157.847 39.8431 157.971ZM39.9399 158.59C40.381 158.08 40.0589 158.777 40.3787 158.311C40.6303 158.131 40.6223 158.128 40.7997 157.918C40.8156 157.899 40.8947 157.86 40.9012 157.851C40.9898 157.725 40.904 157.749 41.1064 157.565C41.0896 157.569 41.0744 157.571 41.0576 157.574C40.8916 157.775 40.7235 157.848 40.5462 157.976C40.4659 158.034 40.4598 158.072 40.3897 158.123C40.3642 158.142 40.3876 158.074 40.3195 158.134C40.1657 158.268 39.9754 158.469 39.8891 158.598C39.8889 158.598 39.8888 158.598 39.8886 158.598C39.9049 158.596 39.9232 158.592 39.9399 158.59ZM39.2517 156.896C39.5378 156.661 39.5908 156.556 39.7963 156.528C39.8512 156.479 39.9055 156.432 39.9605 156.384C39.9452 156.374 39.9303 156.365 39.9152 156.355C39.013 156.968 39.9386 156.152 39.3568 156.665C39.2935 156.72 39.394 156.698 39.1864 156.801C39.1863 156.801 39.1861 156.801 39.186 156.802C39.2771 156.806 39.3858 156.733 39.2517 156.896ZM39.693 157.044C40.3827 156.662 39.9227 156.634 39.7916 156.801C39.7798 156.817 39.9938 156.818 39.693 157.044ZM38.5009 156.574C38.5256 156.634 38.8722 156.397 38.9927 156.305C39.1137 156.214 38.9642 156.267 38.9808 156.249C39.0356 156.19 39.0993 156.19 39.1753 156.111C39.1996 156.084 39.2657 155.916 39.2483 155.922C39.1505 155.957 38.8855 156.183 38.8486 156.2C38.7269 156.252 38.8571 156.123 38.7003 156.22C38.3654 156.426 38.7436 156.249 38.755 156.254C38.7887 156.27 38.6042 156.392 38.5816 156.437C38.559 156.483 38.6306 156.453 38.63 156.48C38.6298 156.489 38.5003 156.571 38.5009 156.574ZM39.3417 156.229C39.0461 156.362 38.8541 156.688 38.9257 156.66C39.1358 156.573 39.4815 156.165 39.3417 156.229ZM40.5567 157.766C40.3469 157.876 40.2955 158.099 40.3903 158.066C40.4565 157.996 40.6285 157.727 40.5567 157.766ZM39.8082 157.782C39.8969 157.776 40.2471 157.386 40.2134 157.359C39.9364 157.56 40.0034 157.534 40.0113 157.565C40.019 157.596 39.7389 157.787 39.8082 157.782ZM38.4499 155.806C38.4517 155.82 38.7883 155.824 38.8309 155.673C38.8332 155.665 38.7766 155.62 38.7266 155.603C38.7074 155.597 38.6892 155.595 38.6754 155.6C38.6026 155.629 38.5153 155.707 38.4737 155.76C38.4581 155.78 38.4491 155.797 38.4499 155.806ZM39.2565 157.908C39.5022 157.742 39.5165 157.766 39.7665 157.525C39.7665 157.525 39.7664 157.525 39.7664 157.525C39.8927 157.51 39.3514 157.968 39.3731 157.97C39.449 157.978 39.8022 157.614 39.9505 157.533C39.7815 157.574 40.0564 157.372 40.036 157.314C40.0314 157.301 39.8414 157.39 39.7388 157.465C39.6361 157.539 39.3609 157.802 39.2565 157.908ZM38.2537 155.629C38.1894 155.74 38.625 155.535 38.6453 155.424C38.6555 155.37 38.2928 155.562 38.2537 155.629ZM42.2197 160.398C42.2968 160.298 42.3734 160.199 42.4494 160.1C42.4865 160.093 42.5239 160.085 42.5614 160.077C42.5216 160.095 42.4822 160.112 42.4426 160.129C42.4446 160.19 42.3064 160.372 42.2198 160.398C42.2198 160.398 42.2197 160.398 42.2197 160.398ZM43.226 161.446C43.1542 161.545 43.4438 161.306 43.4611 161.282C43.5894 161.103 43.3255 161.309 43.226 161.446ZM39.7664 158.585C39.7766 158.675 40.1946 158.231 40.1967 158.171C40.1281 158.268 39.7608 158.535 39.7664 158.585ZM42.9152 161.098C42.9444 161.054 42.9736 161.01 43.0023 160.966C42.9719 161.036 42.943 161.075 42.9152 161.098ZM38.0106 156.116C37.977 156.151 37.9903 156.244 38.0452 156.223C38.1602 156.177 38.4082 155.942 38.3009 155.965C38.2893 155.968 38.0441 156.082 38.0107 156.116C38.0106 156.116 38.0106 156.116 38.0106 156.116ZM42.1353 160.635C42.1391 160.631 42.1429 160.627 42.1465 160.623C42.1428 160.627 42.139 160.631 42.1353 160.635ZM43.7817 163.076C43.7882 163.069 43.7947 163.062 43.8011 163.056C43.795 163.062 43.7886 163.069 43.7817 163.076ZM37.9133 156.909C37.4524 157.261 37.7452 157.142 37.9503 156.936C37.961 156.925 37.9164 156.915 37.9133 156.909Z" fill="#F5F0E9" fill-opacity="0.7"/>
</svg>
