<svg width="195" height="195" viewBox="0 0 195 195" fill="none" xmlns="http://www.w3.org/2000/svg">
<mask id="path-1-inside-1_432_634" fill="white">
<circle cx="97.5" cy="97.5" r="97.5" transform="rotate(90 97.5 97.5)"/>
</mask>
<circle cx="97.5" cy="97.5" r="97.5" transform="rotate(90 97.5 97.5)" fill="#F5F0E9" fill-opacity="0.15"/>
<path d="M97.5 195C87.2743 194.804 77.136 193.02 67.5363 189.71C28.7281 176.813 1.25516 137.684 2.25 97.5C1.58232 46.7742 47.2152 1.8004 97.5 3C147.785 1.8004 193.418 46.7742 192.75 97.5C193.745 137.684 166.272 176.813 127.464 189.71C117.864 193.02 107.726 194.804 97.5 195C107.725 195.204 117.99 193.799 127.816 190.794C167.524 179.211 197.472 139.656 197.25 97.5C199.108 44.3568 151.084 -4.32595 97.5 -3C43.9158 -4.32595 -4.10788 44.3568 -2.25 97.5C-2.47179 139.656 27.4763 179.211 67.1842 190.794C77.0101 193.799 87.2749 195.204 97.5 195Z" fill="#F5F0E9" fill-opacity="0.7" mask="url(#path-1-inside-1_432_634)"/>
<path d="M22.1634 66.1888C22.5056 65.4509 22.8646 64.6325 23.3422 64.0089C23.4006 63.9323 23.5424 64.0227 23.5748 64.0109C23.6644 63.9784 23.515 63.8414 23.5537 63.8037C23.7428 63.6185 23.8858 63.4317 24.0595 63.2598C24.2375 63.0835 24.6311 63.4449 24.7838 63.4349C25.081 63.4175 24.4219 63.1985 24.3207 63.0678C24.3804 63.0023 24.4454 62.9415 24.5122 62.8843C24.5878 62.8191 24.6662 62.7575 24.7446 62.6945C24.7804 62.7624 24.815 62.8291 24.8456 62.8959C24.8946 62.8355 25.0401 62.7862 25.1346 62.986C25.1913 62.9843 25.2551 62.9866 25.3113 62.9828C25.0967 62.8588 25.1434 62.7277 25.0182 62.6495C24.8935 62.5708 24.8887 62.653 24.8774 62.6467C24.7183 62.5577 25.0804 62.3997 25.1084 62.3871C25.1829 62.3586 25.4357 62.541 25.4406 62.4861C25.4491 62.3911 24.8591 62.1756 25.6604 62.4265C25.4365 62.2683 25.5652 62.3243 25.6073 62.2781C25.6127 62.272 25.4683 62.2118 25.466 62.207C25.3982 62.077 25.6335 62.2609 25.6479 62.2674C25.8945 62.3717 25.8274 62.2321 25.8591 62.2238C26.2571 62.1159 26.5347 62.0113 26.7069 61.7663C26.7442 61.7128 26.7077 61.496 26.7707 61.4537C26.8331 61.4117 27.0041 61.5063 27.1021 61.5068C26.6815 61.3047 26.6483 61.2449 26.9746 61.2346C26.6682 61.0851 26.9247 61.1783 26.8869 61.0786C26.8557 60.9957 26.5086 60.754 26.8609 60.7908C26.8034 60.8638 26.9639 60.9077 27.028 61.0324C27.0493 61.0745 26.9474 61.3957 27.2818 61.4853C27.4565 61.5318 27.3369 61.3704 27.3696 61.3771C27.5612 61.4152 27.7659 61.5525 27.6684 61.5794C27.6361 61.5533 27.6041 61.5242 27.5721 61.4972C27.302 61.5381 28.2088 61.7604 27.4096 61.5851C27.3116 61.5634 27.2151 61.5248 27.1088 61.508C27.1488 61.5263 27.2591 61.5397 27.2707 61.5655C27.2822 61.5918 27.0746 61.5606 27.2364 61.6241C27.4715 61.7171 27.4069 61.6011 27.4229 61.5999C27.4214 61.5993 27.42 61.5988 27.4186 61.5982C27.5645 61.5875 27.5387 61.7075 27.5591 61.7212C27.6948 61.8096 27.8178 61.8254 27.9207 61.9239C27.9793 61.9802 27.9091 62.0456 27.9207 62.0832C27.9329 62.1212 28.0619 62.1165 28.0787 62.1453C28.0954 62.1741 28.001 62.1676 28.0202 62.2012C28.0287 62.2158 28.1538 62.262 28.1563 62.2685C28.1846 62.3392 27.938 62.2074 27.9361 62.2602C27.9354 62.294 28.1364 62.4909 28.2359 62.4469C28.2476 62.4911 28.2527 62.5322 28.2586 62.5746C28.3041 62.5673 28.3381 62.5542 28.3899 62.5496C28.3052 62.5923 28.5058 62.7052 28.5047 62.7536C28.5037 62.802 28.2351 62.736 28.3402 62.8317C28.563 63.0372 28.5406 62.7451 28.5991 62.7334C28.6224 62.7288 28.8037 62.8532 28.8065 62.8628C28.8187 62.9048 28.6617 62.8841 28.6583 62.9108C28.6471 63.0064 28.812 63.1369 28.814 63.2366C28.8219 63.5746 28.7601 63.9729 28.6684 64.253C28.6344 64.3571 28.4022 64.3108 28.3861 64.356C28.3482 64.4618 28.517 64.5668 28.4806 64.6578C28.4372 64.7668 28.2729 64.8475 28.1605 64.9192C28.1311 64.9375 28.1054 64.9553 28.0866 64.9728C28.0241 65.0316 28.1558 65.1878 28.1493 65.2087C28.0657 65.494 27.8938 65.7774 27.7855 65.9673C27.7343 66.057 27.5238 65.9899 27.5186 66.0113C27.4961 66.103 27.6673 66.1755 27.6148 66.2285C27.5866 66.2574 27.4298 66.1749 27.4212 66.176C27.3474 66.1869 27.5426 66.311 27.5313 66.3455C27.466 66.5455 27.2376 66.6401 27.1206 66.8032C27.1119 66.8151 27.0233 66.7638 27.0233 66.7745C27.0256 66.8217 27.1754 66.8842 27.1653 66.9263C27.1446 67.0149 27.0788 67.0787 27.0165 67.15C27.0105 67.1569 26.8931 67.0973 26.8831 67.1155C26.8731 67.1337 26.9752 67.2072 26.9535 67.2325C26.8967 67.2993 26.7262 67.3014 26.6763 67.3779C26.6684 67.3905 26.7999 67.4808 26.788 67.4996C26.7508 67.5588 26.5756 67.5834 26.5433 67.6346C26.4383 67.8023 26.437 68.0062 26.3578 68.1713C26.3386 68.2104 26.1898 68.1809 26.1768 68.1997C26.1479 68.2423 26.2897 68.2678 26.2679 68.3145C26.0897 68.6949 25.8608 69.0535 25.709 69.4512C25.6534 69.5962 25.7001 69.8135 25.6315 69.953C25.6262 69.9638 25.6202 69.9741 25.6133 69.9839C25.5736 70.0401 25.3899 69.9834 25.3712 70.0279C25.3385 70.108 25.5638 70.208 25.5556 70.3007C25.5487 70.3746 25.2897 70.368 25.2783 70.4444C25.2668 70.5209 25.4796 70.6344 25.4779 70.7248C25.4763 70.7993 25.341 70.8587 25.3323 70.9379C25.2515 71.6677 25.1343 72.3765 24.7472 73.0366C24.6106 73.2698 24.5635 73.56 24.2643 73.76C24.236 73.7789 24.0247 73.6789 24.0491 73.7717C24.0624 73.8219 24.2372 73.9341 24.2195 74.0356C24.114 74.6379 23.536 75.1621 23.46 75.7922C23.3468 76.7361 24.7004 78.0821 22.1727 78.3022C22.0485 78.3129 21.4938 78.1516 21.3406 78.0883C21.4598 78.0949 21.5999 78.1084 21.734 78.1177C21.0415 77.9139 21.2224 77.9645 21.3119 77.8735C21.3673 77.8175 21.0549 77.7952 20.9788 77.7389C20.8803 77.6661 20.5881 77.3662 21.0412 77.5232C20.9642 77.4899 20.8903 77.4585 20.8149 77.4259C20.7833 77.2539 20.7049 77.0748 20.61 76.8902C20.5933 76.8583 20.4482 76.8206 20.4318 76.7877C20.3867 76.6993 20.4966 76.6659 20.5007 76.5875C20.503 76.5449 20.3365 76.4969 20.3606 76.4465C20.3849 76.396 20.6113 76.4544 20.3832 76.3198C20.0868 76.2953 20.3464 76.1365 20.3479 76.0571C20.3484 76.0457 20.1155 75.8918 20.157 75.8516C20.1979 75.8112 20.3794 75.7804 20.3056 75.6832C20.2709 75.6376 20.0773 75.566 20.0755 75.5257C20.0743 75.4974 20.2592 75.511 20.275 75.4797C20.2908 75.4483 20.1641 75.3394 20.1651 75.3256C20.1677 75.2756 20.2785 75.3599 20.2931 75.329C20.3616 75.1791 20.4751 75.0144 20.4318 74.8377C20.4266 74.8161 20.2735 74.8045 20.2693 74.8007C20.1234 74.6248 20.296 74.7433 20.4361 74.7425C20.5714 74.7417 20.567 74.4762 20.3134 74.4078C20.6336 74.4837 20.405 74.365 20.3994 74.3481C20.378 74.2829 20.6504 74.3663 20.5795 74.2899C20.5537 74.2619 20.3575 74.2514 20.3686 74.2316C20.396 74.1825 20.7073 74.2141 20.7557 74.1524C20.7675 74.1374 20.6359 74.0966 20.6484 74.0677C20.661 74.0387 20.8573 73.9561 20.5612 73.9395C20.8065 73.9229 20.6871 73.875 20.7172 73.7875C20.7251 73.7654 20.9472 73.7939 20.8937 73.7281C20.8755 73.7059 20.6688 73.6507 20.6737 73.6258C20.6844 73.5687 20.9122 73.5743 20.9399 73.5055C20.9922 73.3775 20.8807 73.1956 20.9723 73.072C20.9973 73.0385 21.202 73.1052 21.221 73.052C21.2232 73.0442 21.0624 72.9284 21.0898 72.8953C21.1062 72.8753 21.2649 72.7931 21.2817 72.7724C21.3088 72.738 21.1107 72.6745 21.1559 72.664C21.2863 72.6335 21.5667 72.7668 21.185 72.578C21.4153 72.6167 21.4053 72.5669 21.6841 72.6312C21.3901 72.5201 21.6887 72.5701 21.6019 72.492C21.515 72.4141 20.9437 72.2059 21.5744 72.3744C21.5048 72.3295 21.4029 72.1941 21.3982 72.1749C21.3855 72.1184 21.5513 72.1947 21.5386 72.1511C21.5366 72.1435 21.416 72.1158 21.4399 72.0775C21.4556 72.0523 21.5214 71.8554 21.5413 71.8478C21.767 71.7664 21.6366 71.9571 21.7565 72.0236C21.7213 72.0189 21.686 72.014 21.6511 72.0098C21.5776 72.0533 21.8552 72.0976 21.9253 72.0888C21.9953 72.08 21.8909 71.9946 21.9855 71.9978C22.0329 71.9996 22.3515 72.1013 22.3028 72.1237C22.4122 72.1167 22.502 72.1968 22.599 72.2099C22.7054 72.224 22.7845 72.0724 22.6082 72.0189C22.5931 72.0472 22.5881 72.0865 22.5717 72.1149C22.2527 72.0646 21.2408 71.6301 21.6933 71.6423C22.0207 71.6513 22.2207 71.8584 22.0249 71.5891C22.0036 71.6149 21.9674 71.6314 21.9464 71.6545C21.7156 71.5882 21.9817 71.6205 21.9153 71.5759C21.8829 71.5542 21.6998 71.572 21.6633 71.4975C22.0071 71.5469 21.688 71.4087 21.7098 71.3234C21.7612 71.3648 21.8124 71.4057 21.8639 71.4467C22.145 71.3789 22.1243 71.7286 22.3407 71.4966C22.3412 71.5329 22.3285 71.5645 22.3347 71.6023C22.46 71.6231 22.8062 71.7561 22.8853 71.7647C23.0927 71.7876 22.9912 71.6966 23.0224 71.6566C23.0357 71.639 23.1274 71.6806 23.1284 71.6791C23.1473 71.6554 23.0056 71.6183 23.004 71.5918C23.0021 71.5583 23.1646 71.5147 23.1535 71.496C23.1252 71.4474 22.8306 71.4219 22.8111 71.412C22.6846 71.3474 22.8103 71.3342 22.6348 71.2822C22.7193 71.4333 22.4634 71.7166 22.2662 71.3279C21.9582 71.3234 21.5757 71.1799 21.5824 71.0498C21.5878 70.9422 21.7238 71.0549 21.9114 71.0566C21.935 71.0565 22.0586 70.9496 21.9397 70.9046C22.2169 70.9979 22.4774 71.0334 22.7561 71.1529C22.797 71.1704 22.7635 71.2186 23.0008 71.2729C23.12 71.3002 23.3813 71.3536 23.5279 71.4046C23.4284 71.3613 23.3163 71.3134 23.2125 71.2684C23.2076 71.1797 23.3221 71.203 23.5276 71.2213C23.447 71.1976 23.0979 71.1303 23.2197 71.102C23.2268 71.1008 23.3483 71.1367 23.418 71.1252C23.558 71.1015 23.5993 71.1012 23.9381 71.2625C23.7772 71.0704 24.1807 71.17 24.108 71.0033C23.6455 70.8791 23.7425 70.9624 23.791 71.1112C23.6812 71.0813 23.5733 71.049 23.4623 71.019C23.7599 70.9375 23.7088 71.0096 23.5193 70.8465C23.4728 70.8067 23.5697 70.7068 23.251 70.645C23.1759 70.6308 23.1596 70.7077 23.049 70.6617C23.0279 70.6531 23.0031 70.544 23.0351 70.5456C23.4299 70.5661 23.622 70.8275 23.582 70.5113C23.5807 70.5025 23.4498 70.4551 23.4365 70.434C23.4118 70.3945 23.5645 70.4462 23.5377 70.4095C23.5108 70.3728 23.3175 70.2679 23.5199 70.2961C23.8881 70.3482 24.0324 70.5739 23.825 70.5826C24.267 70.7623 24.4484 70.2709 24.4217 70.2274C24.3023 70.0333 24.319 70.2912 24.1905 70.2583C24.1361 70.2443 23.4676 70.0059 23.8817 70.2162C24.0046 70.2782 24.1989 70.2677 24.2552 70.3345C24.3115 70.4012 24.1201 70.3155 24.1053 70.3137C24.0545 70.3077 24.1119 70.3781 24.0819 70.3742C23.6259 70.3164 22.9867 70.0855 23.9766 70.2954C23.7807 70.1681 23.3972 70.1694 23.2747 70.0531C23.1262 69.9108 23.452 69.9605 23.4692 69.9557C23.6743 69.8941 23.18 69.8735 23.3748 69.7774C23.483 69.7247 23.627 70.0049 23.6645 69.8099C23.6956 69.6475 23.5112 69.6734 23.164 69.5342C23.0828 69.5014 23.0138 69.3778 23.0068 69.509C23.0971 69.5457 23.2155 69.5958 23.2972 69.6339C23.2201 69.6378 22.7443 69.5202 22.7226 69.5302C22.619 69.5787 22.8586 69.6601 22.562 69.605C22.8804 69.6824 22.6769 69.6683 22.7349 69.7107C22.9486 69.8673 23.071 69.8035 22.7066 69.8574C22.8582 69.8867 23.0064 69.9173 23.1571 69.9476C23.1553 69.9685 23.1537 69.9895 23.1519 70.0105C22.8242 69.928 22.8287 70.0462 22.5414 69.8409C22.4111 69.9223 22.4649 69.9921 22.7042 70.1015C22.7498 70.1224 22.763 70.1457 22.7608 70.1671C22.8317 70.1871 23.0486 70.2558 23.074 70.2679C23.2968 70.3746 22.8808 70.2814 22.7326 70.2148C22.7206 70.2263 22.7083 70.2341 22.7033 70.2368C22.6712 70.2532 22.5489 70.1583 22.4946 70.162C22.477 70.1634 22.4837 70.2429 22.4269 70.2254C22.0627 70.1126 22.3622 70.084 22.0743 70.2462C22.4018 70.3611 22.3652 70.2298 22.7056 70.3743C23.0714 70.529 22.5475 70.4209 23.0043 70.5871C22.9269 70.5668 22.8629 70.548 22.7752 70.5236C22.9459 70.6817 22.5612 70.5564 22.467 70.557C22.2829 70.5582 22.2255 70.8205 22.6328 70.7009C22.6552 70.745 22.6596 70.784 22.6785 70.8262C21.9858 70.6109 22.267 70.6789 22.11 70.8059C22.0754 70.8338 21.7675 70.7491 22.1177 70.8985C21.7649 70.7813 21.9458 70.954 21.8997 70.9502C21.5998 70.9258 21.2849 70.5668 21.9208 70.7361C21.6898 70.6186 22.0119 70.7218 21.9833 70.6642C21.9421 70.5808 21.8822 70.552 22.1443 70.5533C21.8338 70.37 21.9029 70.797 21.5306 70.4314C21.1589 70.0754 21.3573 68.7073 21.43 68.3307C21.4313 68.3232 21.4325 68.3162 21.4336 68.3096C21.5383 67.6935 21.5899 67.3603 21.8351 66.8645C21.8585 66.8148 22.0014 66.4271 22.3334 66.6774C22.3809 66.7134 22.4478 66.9359 22.7997 66.936C22.6162 66.8837 22.5424 66.7528 22.5276 66.7377C22.192 66.3942 22.0511 66.4325 22.1634 66.1888ZM25.7381 67.1474C25.5144 67.3787 25.8597 67.302 26.3766 67.6384C26.3954 67.6057 26.4148 67.5717 26.4339 67.5386C26.3951 67.5299 26.3564 67.5211 26.3175 67.5124C26.3175 67.5124 26.3175 67.5125 26.3175 67.5125C26.1241 67.3913 25.931 67.2694 25.7381 67.1474ZM28.6227 62.5297C28.6933 62.5714 28.764 62.6132 28.8323 62.6559C28.7917 62.6918 28.7515 62.7273 28.7105 62.7628C28.6616 62.7374 28.612 62.712 28.563 62.6868C28.5859 62.635 28.6082 62.5842 28.6227 62.5297ZM23.8951 70.6526C23.6636 70.6365 24.045 70.7591 23.8471 70.7751C24.1306 70.8598 24.4082 70.9416 24.689 71.0252C24.6659 70.9563 24.5636 70.9078 24.6523 70.8714C24.5599 70.8478 24.467 70.8242 24.3741 70.8004C24.39 70.8169 24.4084 70.835 24.4222 70.8504C24.165 70.781 24.1601 70.6715 23.8945 70.6522C23.8947 70.6524 23.8949 70.6525 23.8951 70.6526ZM23.8197 71.2618C23.7734 71.2798 23.5971 71.3564 23.7087 71.4096C24.0869 71.5904 23.9429 71.1746 24.2158 71.534C24.2717 71.5505 24.3257 71.569 24.3807 71.5864C24.4144 71.5477 24.4454 71.5085 24.4754 71.4687C24.2559 71.4008 24.0404 71.3297 23.8197 71.2618ZM25.2713 68.1542C25.2222 68.1832 25.3064 68.4698 25.5764 68.5115C25.6552 68.524 25.3544 68.2771 25.3853 68.2493C25.4051 68.2315 25.5808 68.3432 25.5323 68.2675C25.4489 68.2311 25.3569 68.1899 25.2718 68.1546C25.2716 68.1545 25.2714 68.1544 25.2713 68.1542ZM24.2221 67.5641C24.2336 67.6262 24.2536 67.6935 24.2678 67.7561C24.4967 67.821 24.3908 67.6906 24.6923 67.8265C24.7092 67.8497 24.726 67.8727 24.7429 67.8959C24.6728 67.8751 24.6027 67.8541 24.5328 67.8331C24.6776 67.9479 24.7697 67.9612 24.6889 68.0127C25.164 68.1761 25.4091 68.2845 25.0089 67.9463C25.2438 68.0843 26.054 68.4376 25.5138 68.1025C25.4137 68.0399 25.3181 68.0591 25.3009 68.0518C25.087 67.9614 24.9669 67.8688 24.7644 67.7843C24.6727 67.7461 24.6585 67.7799 24.5315 67.7266C24.4696 67.7006 24.3111 67.5872 24.2221 67.5641ZM25.3291 67.9755C25.4498 68.0492 25.773 68.1458 25.7311 68.0768C25.6664 67.9688 25.3326 67.9311 25.3291 67.9755ZM28.6226 62.5293C28.6226 62.5294 28.6227 62.5296 28.6227 62.5297C28.6225 62.5295 28.6222 62.5294 28.6219 62.5292C28.6221 62.5293 28.6223 62.5293 28.6226 62.5293ZM24.0245 71.1572C24.1265 71.2297 24.0932 71.2762 24.2752 71.3308C24.2342 71.3363 24.1937 71.3422 24.1526 71.3479C24.2071 71.3652 24.2617 71.3824 24.3155 71.3996C24.3659 71.3593 24.4163 71.3195 24.4674 71.2794C24.32 71.2385 24.1722 71.1969 24.0245 71.1572ZM23.7177 71.6824C23.6791 71.742 23.943 71.764 24.0577 71.8153C24.1725 71.8665 24.0576 71.8943 24.2308 71.9404C24.2493 71.9042 24.2682 71.8669 24.2864 71.83C24.0973 71.7822 23.9056 71.7305 23.7177 71.6826C23.7177 71.6825 23.7177 71.6825 23.7177 71.6824ZM26.5218 66.1388C26.4505 66.1509 26.2883 66.037 26.4439 66.2306C26.444 66.2306 26.444 66.2305 26.444 66.2304C26.6275 66.2344 26.8071 66.2104 26.7193 66.0497C26.51 65.9962 26.6333 66.1199 26.5218 66.1388ZM24.498 70.6876C24.3564 70.6184 24.2036 70.6618 24.3346 70.7276C24.5468 70.8336 24.713 70.7922 24.498 70.6876ZM26.2797 63.7911C26.0283 63.5991 25.7127 63.4721 25.561 63.4693C25.4798 63.4672 25.4454 63.5019 25.4923 63.5846C25.504 63.6055 25.6818 63.6018 25.7504 63.6712C25.7572 63.678 25.7225 63.7162 25.7748 63.7595C25.8271 63.8033 25.9689 63.8688 26.0157 63.9187C26.0973 64.0063 25.8729 63.9725 25.9898 64.07C26.0054 64.083 26.211 64.1431 26.2195 64.1441C26.3552 64.1606 26.1434 63.9824 26.1457 63.9748C26.1576 63.9347 26.3406 64.0446 26.3895 64.0601C26.4815 64.089 26.4166 64.012 26.4239 64.0133C26.6183 64.0493 26.5 64.1506 26.5573 64.2054C26.7116 64.354 26.9042 64.4062 26.9416 64.5768C26.9454 64.5926 26.8613 64.7137 27.1606 64.6722C27.4102 65.2375 27.4985 64.6534 27.4333 64.543C27.4026 64.4937 27.2045 64.4314 27.1328 64.3719C27.1032 64.3475 27.0789 64.3251 27.0575 64.3039C26.9603 64.2069 26.921 64.1365 26.707 64.0237C26.3922 63.8579 26.3619 63.8752 26.3704 63.9207C26.377 63.954 26.4052 64.003 26.3544 64.0024C26.2399 63.9311 26.1265 63.8647 26.0169 63.7907C26.0928 63.8434 26.1686 63.8477 26.2198 63.8367C26.2677 63.8259 26.2943 63.802 26.2808 63.7917C26.2804 63.7915 26.2801 63.7913 26.2797 63.7911ZM26.4476 64.9225C26.2459 64.8965 26.587 65.089 26.3569 65.0387C26.6278 65.272 26.6716 65.1506 26.696 65.1481C26.8061 65.1355 27.1359 65.3292 27.0692 65.2102C26.8619 65.1165 26.6547 65.0177 26.4476 64.9225ZM26.9377 64.3976C27.0833 64.5429 27.1288 64.4556 27.164 64.4704C27.5358 64.6304 27.3214 64.8497 26.9377 64.3976ZM24.4308 68.098C24.4077 68.1166 24.5878 68.179 24.6295 68.223C24.6717 68.267 24.4909 68.2739 24.5997 68.32C24.7091 68.3653 25.0477 68.3596 25.0502 68.5177C25.1129 68.5402 25.1576 68.5617 25.2135 68.5839C25.2309 68.5488 25.2496 68.5141 25.2671 68.4794C25.0839 68.4205 24.8911 68.3586 24.7137 68.3026C24.5838 68.22 24.7672 68.2881 24.7677 68.2871C24.7675 68.287 24.7673 68.2869 24.7671 68.2868C24.77 68.2429 24.4822 68.0563 24.4308 68.098ZM25.8848 66.5196C25.4714 66.2847 25.9078 66.5932 25.9477 66.6432C25.9873 66.6932 25.8161 66.6397 26.0021 66.7258C26.1455 66.7575 25.9307 66.5461 25.8842 66.5193C25.8844 66.5194 25.8846 66.5195 25.8848 66.5196ZM26.2318 65.2931C26.298 65.4085 26.4102 65.4615 26.248 65.4598C26.3489 65.5149 26.4519 65.5712 26.5513 65.6255C26.5851 65.572 26.2947 65.4079 26.448 65.4113C26.4732 65.412 26.6902 65.5687 26.6438 65.4784C26.513 65.4204 26.3686 65.3547 26.2318 65.2931ZM26.437 65.7879C26.4591 65.7146 25.6847 65.1965 25.978 65.5269C26.0219 65.5762 26.4204 65.8435 26.437 65.7879ZM24.7016 67.4615C24.6223 67.5643 24.82 67.4994 24.963 67.5323C24.9385 67.8459 24.9422 67.4848 25.3823 67.6674C25.2761 67.5764 25.0281 67.3794 24.9208 67.41C24.8761 67.4229 25.0082 67.4749 25.0069 67.4763C24.9503 67.5124 24.7449 67.4055 24.7016 67.4615ZM26.4976 64.7917C26.5011 64.7995 26.6437 64.8737 26.6634 64.9036C26.6831 64.933 26.5683 64.9068 26.6515 64.9596C26.7353 65.0126 26.8373 64.9904 26.7863 64.9346C26.7344 64.8788 26.4668 64.7218 26.4976 64.7917ZM25.9049 65.0213C25.9723 65.1349 26.5354 65.3433 26.5404 65.3293C26.5762 65.2069 26.0644 65.1195 25.9049 65.0213ZM23.9331 66.7477C24.1309 67.025 24.6516 67.1493 24.9736 67.2043C24.9224 67.1646 24.8714 67.1244 24.8208 67.085C25.1399 67.31 25.4369 67.5687 25.2354 67.2203C25.0996 67.288 25.0527 67.1505 25.0336 67.1399C24.4066 66.8078 24.6181 67.1211 23.9331 66.7475C23.9331 66.7476 23.9331 66.7476 23.9331 66.7477ZM26.751 64.6924C26.7833 64.6322 26.7673 64.4139 26.4574 64.3329C26.5557 64.4523 26.6533 64.5726 26.751 64.6924ZM22.9257 69.1639C22.7402 69.155 22.7247 69.2051 22.7113 69.2752C22.9745 69.305 22.9877 69.3544 23.0395 69.3959C23.1174 69.4587 23.1369 69.3834 23.1533 69.3893C23.3819 69.4757 23.4005 69.5343 23.4337 69.4286C23.5039 69.4839 23.5749 69.539 23.6447 69.5938C23.6843 69.519 23.8405 69.5568 24.0413 69.576C23.5777 69.4567 23.8804 69.4981 23.6809 69.3566C23.5811 69.2852 23.0207 69.168 22.9256 69.1642C22.9256 69.1641 22.9256 69.164 22.9257 69.1639ZM23.7741 66.8538C23.8438 66.9063 23.9414 66.9708 24.0225 67.028C24.0233 67.0476 24.0231 67.0668 24.0239 67.0865C23.9548 67.0553 23.8827 67.0223 23.816 66.9928C23.7862 67.0038 23.8851 67.0417 23.891 67.0521C23.8907 67.0519 23.8903 67.0517 23.89 67.0516C23.9739 67.1993 23.943 67.2277 23.6983 67.1965C23.9082 67.296 24.1181 67.3955 24.3279 67.4949C24.315 67.4706 24.3029 67.4456 24.2907 67.4212C24.1819 67.3594 24.0731 67.2975 23.9644 67.2355C24.035 67.2474 24.105 67.2594 24.1755 67.2716C24.1418 67.2381 24.1074 67.2007 24.0739 67.1695C24.692 67.3824 24.2187 67.3485 24.4611 67.4666C24.617 67.5417 24.6854 67.3823 24.5895 67.3065C24.5754 67.2955 24.1241 67.1182 24.379 67.1701C24.4193 67.1781 25.3594 67.636 24.6298 67.2008C24.5265 67.1387 23.9286 66.8823 23.7741 66.8538ZM23.1841 67.3107C23.8349 67.4959 23.0344 67.5472 23.603 67.6263C23.864 67.795 23.8641 67.7851 24.1314 67.8563C24.1553 67.8628 24.2192 67.9262 24.2301 67.9282C24.3846 67.9517 24.3333 67.8721 24.5822 67.9857C24.5736 67.9693 24.5663 67.9543 24.5577 67.9379C24.3037 67.8735 24.1776 67.7328 23.9927 67.6146C23.9089 67.561 23.8682 67.5765 23.7947 67.53C23.7679 67.5129 23.8432 67.4998 23.7621 67.4602C23.5785 67.3709 23.3167 67.2797 23.1599 67.2603C23.1598 67.2602 23.1596 67.2601 23.1594 67.26C23.1665 67.2765 23.1764 67.2939 23.1841 67.3107ZM24.6714 65.612C25.0031 65.7763 25.1283 65.7689 25.2231 65.9707C25.2899 66.0004 25.3562 66.0297 25.423 66.0594C25.4281 66.0371 25.4328 66.0154 25.4385 65.9932C24.5197 65.4039 25.653 65.8969 24.9403 65.5879C24.8628 65.5544 24.9191 65.6459 24.7455 65.4893C24.7452 65.4893 24.745 65.4892 24.7448 65.4892C24.7705 65.5866 24.8806 65.6582 24.6714 65.612ZM24.6643 66.163C25.272 66.6759 25.1546 66.1681 24.9425 66.1268C24.923 66.1234 24.9896 66.352 24.6643 66.163ZM24.734 64.6546C24.6845 64.7132 25.0455 64.9276 25.18 64.9969C25.315 65.0663 25.2081 64.9453 25.2323 64.9512C25.3114 64.9717 25.3331 65.038 25.4407 65.0676C25.4758 65.0768 25.6702 65.0403 25.6575 65.0263C25.5875 64.947 25.2637 64.8145 25.2343 64.7863C25.1377 64.694 25.3145 64.7484 25.16 64.6478C24.8304 64.4329 25.1471 64.7087 25.1461 64.7237C25.1422 64.7674 24.9529 64.6529 24.8996 64.6565C24.8463 64.6601 24.9019 64.7151 24.875 64.7303C24.866 64.7353 24.7372 64.652 24.734 64.6546ZM25.3776 65.3127C25.1412 65.0864 24.7462 65.08 24.7995 65.1369C24.9585 65.3041 25.4907 65.4201 25.3776 65.3127ZM24.207 67.5052C24.0291 67.3422 23.7891 67.4142 23.8526 67.4979C23.9434 67.5296 24.2684 67.5607 24.207 67.5052ZM23.954 66.7085C23.9884 66.8002 24.4922 66.9528 24.509 66.9013C24.2187 66.7194 24.2656 66.7766 24.237 66.8024C24.2082 66.8283 23.9273 66.6369 23.954 66.7085ZM25.4698 64.1473C25.4579 64.157 25.5873 64.4942 25.7541 64.4411C25.7665 64.4373 25.8041 64.2745 25.7644 64.2382C25.6847 64.1641 25.5012 64.1236 25.4698 64.1473ZM23.6508 66.1923C23.8966 66.3595 23.8777 66.3879 24.2006 66.5173C24.2006 66.5172 24.2007 66.5172 24.2007 66.5171C24.255 66.6439 23.6214 66.3265 23.6259 66.351C23.6423 66.4364 24.1216 66.6064 24.2502 66.7191C24.1557 66.5612 24.4463 66.7403 24.4988 66.6849C24.5102 66.6727 24.3601 66.5206 24.2522 66.4536C24.1443 66.3867 23.7912 66.2433 23.6508 66.1923ZM25.5653 63.836C25.4299 63.8446 25.8085 64.145 25.9275 64.0907C25.9858 64.0642 25.6477 63.8306 25.5653 63.836ZM22.1827 70.854C22.3058 70.8807 22.4285 70.907 22.5507 70.9327C22.5709 70.9691 22.5917 71.0058 22.6124 71.0424C22.5815 71.0089 22.5511 70.9754 22.5208 70.9419C22.4629 70.9797 22.2379 70.9344 22.1827 70.8541C22.1827 70.8541 22.1827 70.854 22.1827 70.854ZM21.5416 72.6616C21.4189 72.6518 21.7657 72.7992 21.7954 72.8013C22.0168 72.8171 21.7117 72.6753 21.5416 72.6616ZM23.1329 67.1211C23.0462 67.1836 23.6248 67.3809 23.6858 67.3486C23.566 67.3305 23.1821 67.086 23.1329 67.1211ZM21.7565 72.0236C21.8089 72.0306 21.8613 72.0376 21.914 72.0438C21.8363 72.0503 21.7881 72.0413 21.7565 72.0236ZM24.9881 63.9078C24.941 63.896 24.8582 63.9611 24.9011 64.0022C24.9916 64.0876 25.3207 64.1898 25.2542 64.0989C25.2471 64.0891 25.0351 63.9197 24.988 63.9079C24.988 63.9079 24.988 63.9078 24.9881 63.9078ZM21.924 70.8995C21.9296 70.9011 21.9349 70.9028 21.9397 70.9046C21.9345 70.9029 21.9292 70.9012 21.924 70.8995ZM20.2863 74.4015C20.2956 74.4034 20.3047 74.4055 20.3134 74.4078C20.3048 74.4058 20.2957 74.4038 20.2863 74.4015ZM24.1864 64.2565C23.6687 63.9945 23.8952 64.2179 24.1742 64.3078C24.189 64.3123 24.1813 64.263 24.1864 64.2565Z" fill="#F5F0E9" fill-opacity="0.7"/>
<path d="M21.1222 116.624C21.8454 118.291 22.7403 120.076 23.4411 121.768C23.5272 121.975 23.3693 122.034 23.3766 122.1C23.396 122.281 23.6204 122.29 23.662 122.409C23.8659 122.988 24.0932 123.511 24.3066 124.073C24.5259 124.65 23.9306 124.63 23.9148 124.879C23.8843 125.364 24.3273 124.737 24.5378 124.812C24.7228 125.26 24.8779 125.714 25.0404 126.174C24.9297 126.102 24.8195 126.028 24.7111 125.95C24.7983 126.143 24.8466 126.455 24.5243 126.23C24.5178 126.322 24.5015 126.413 24.4969 126.505C24.7242 126.405 24.9202 126.725 25.0647 126.683C25.2098 126.642 25.0812 126.476 25.0929 126.471C25.2601 126.398 25.4472 127.255 25.462 127.32C25.4943 127.488 25.157 127.515 25.242 127.625C25.3878 127.813 25.8506 127.364 25.2913 128.058C25.5891 128.033 25.4698 128.107 25.5375 128.259C25.5463 128.279 25.6726 128.185 25.6809 128.191C25.9041 128.341 25.5593 128.329 25.5463 128.338C25.328 128.495 25.5607 128.652 25.5694 128.716C25.6094 129.1 25.6612 129.44 25.7418 129.75C25.7536 129.764 25.7774 129.813 25.7873 129.829C25.8364 130.154 25.9067 130.469 26.0249 130.82C26.0785 130.976 26.3781 131.39 26.3984 131.554C26.4188 131.715 26.2085 131.714 26.1555 131.825C26.633 131.763 26.7298 131.859 26.562 132.248C26.9161 132.217 26.6592 132.31 26.8023 132.477C26.9211 132.615 27.4122 132.738 27.1663 133.048C27.1112 132.834 26.9666 132.918 26.779 132.729C26.7174 132.667 26.3781 131.879 26.0842 132.073C25.9315 132.174 26.1941 132.37 26.1676 132.393C26.0139 132.527 25.7334 132.474 25.7558 132.313C25.8053 132.33 25.8582 132.353 25.9088 132.373C26.0091 131.989 25.2379 132.551 25.8921 132.014C25.9721 131.947 26.0722 131.917 26.1504 131.831C26.1062 131.839 26.0298 131.936 25.9917 131.897C25.9532 131.856 26.1032 131.683 25.9378 131.738C25.697 131.818 25.8738 131.977 25.8666 131.998C25.8681 131.998 25.8696 131.998 25.8711 131.997C25.8042 132.182 25.6721 131.912 25.6443 131.908C25.4631 131.885 25.3767 131.991 25.2024 131.915C25.1031 131.872 25.063 131.67 25.0112 131.612C24.9592 131.555 24.8958 131.708 24.8524 131.673C24.8092 131.638 24.8673 131.545 24.8167 131.505C24.7947 131.487 24.6734 131.543 24.6643 131.534C24.5655 131.439 24.8527 131.401 24.7897 131.302C24.7483 131.238 24.4093 131.118 24.4108 131.306C24.3522 131.242 24.3006 131.177 24.2473 131.112C24.233 131.176 24.2309 131.235 24.2094 131.3C24.2028 131.134 23.9668 131.168 23.9111 131.09C23.8555 131.012 24.0656 130.817 23.8999 130.781C23.8829 130.778 23.8675 130.775 23.8536 130.774L23.95 130.942C23.8768 130.941 23.8498 130.967 23.8502 131.009L23.7459 130.827C23.7266 130.932 23.8985 131.167 23.8865 131.226C23.8796 131.258 23.6423 131.257 23.6301 131.246C23.5765 131.195 23.6798 131.055 23.6504 131.01C23.6258 130.973 23.5937 130.943 23.5582 130.919L23.6762 131.124C23.5404 131.044 23.3665 131.008 23.2529 130.888C22.7485 130.356 22.2137 129.656 21.8576 129.108C21.7263 128.907 21.8513 128.661 21.7957 128.573C21.6619 128.36 21.4707 128.423 21.3568 128.235C21.1863 127.953 21.1228 127.463 21.0291 127.202C20.9652 127.025 20.7157 126.96 20.6887 126.918C20.3132 126.343 19.9448 125.599 19.6935 125.094C19.5753 124.857 19.7128 124.647 19.6836 124.602C19.5568 124.403 19.4186 124.54 19.3519 124.36C19.3157 124.263 19.4665 124.168 19.4667 124.153C19.4663 124.018 19.2481 124.098 19.2001 124.016C18.9238 123.542 18.8365 123.005 18.6287 122.508C18.6138 122.471 18.708 122.431 18.6925 122.41C18.6239 122.323 18.4991 122.437 18.4406 122.339C18.3185 122.135 18.2405 121.903 18.155 121.667C18.1465 121.644 18.2615 121.579 18.2379 121.527C18.2143 121.476 18.0829 121.488 18.0522 121.404C17.9719 121.184 18.0131 120.913 17.9195 120.685C17.9038 120.647 17.7384 120.666 17.7149 120.609C17.6409 120.432 17.6569 120.113 17.5951 119.96C17.3904 119.457 17.1082 119.034 16.9051 118.562C16.8578 118.451 16.9517 118.296 16.9301 118.236C16.8818 118.103 16.7957 118.255 16.7392 118.123C16.3002 117.092 15.9282 116.023 15.5179 114.959C15.4706 114.777 15.3529 114.289 15.3825 114.103C15.3846 114.056 15.3866 114.009 15.3884 113.962C15.4054 113.521 15.2811 112.977 15.3327 112.547C15.3546 112.369 15.5472 112.341 15.5521 112.214C15.5599 111.987 15.3149 111.94 15.2955 111.7C15.2802 111.508 15.5298 111.292 15.5181 111.091C15.5063 110.89 15.2693 110.794 15.2442 110.562C15.2238 110.371 15.3359 110.106 15.3214 109.897C15.1888 107.985 15.1162 106.035 15.473 104.018C15.5986 103.309 15.6534 102.501 15.9964 101.791C16.0289 101.724 16.2404 101.865 16.2265 101.635C16.2191 101.512 16.0491 101.313 16.0879 101.032C16.1259 100.758 16.1813 100.483 16.2501 100.208C16.5818 98.8984 17.1622 97.5921 17.4099 96.2655C17.8424 93.9131 16.9752 90.9519 19.9216 89.678C20.0656 89.617 20.5964 89.8508 20.7333 89.9596C20.6043 89.9768 20.4557 89.9834 20.3114 89.999C20.9742 90.2934 20.7996 90.222 20.6535 90.4651C20.5634 90.6148 20.8985 90.5795 20.9545 90.692C21.0261 90.8382 21.2034 91.4658 20.7786 91.2238C20.8476 91.2808 20.9141 91.3343 20.9818 91.3897C20.934 91.7896 20.9379 92.192 20.961 92.6008C20.9653 92.6715 21.1083 92.7165 21.112 92.7891C21.1233 92.9842 20.9882 93.0978 20.9507 93.2849C20.9304 93.3866 21.0931 93.4475 21.0459 93.5743C20.9988 93.7011 20.7741 93.6361 20.9698 93.8813C21.2843 93.8441 20.9371 94.3022 20.9055 94.4911C20.9005 94.5183 21.0965 94.8051 21.0366 94.9129C20.9771 95.0215 20.7676 95.1561 20.8133 95.3608C20.8348 95.4569 21.0204 95.5593 21.0083 95.6532C20.9998 95.7193 20.8033 95.7514 20.7752 95.8309C20.7472 95.9103 20.8481 96.123 20.8425 96.1559C20.823 96.2745 20.7306 96.1151 20.7045 96.1931C20.58 96.5707 20.4041 97.0032 20.3979 97.4041C20.397 97.4534 20.5594 97.4234 20.5629 97.4308C20.6684 97.7907 20.5168 97.576 20.3648 97.631C20.2174 97.6844 20.1462 98.3108 20.4018 98.3734C20.0768 98.319 20.2909 98.5107 20.2925 98.5478C20.298 98.6928 20.0263 98.6036 20.0824 98.756C20.1027 98.8119 20.3118 98.7588 20.2945 98.81C20.2519 98.9365 19.9243 98.9859 19.8559 99.1527C19.8393 99.1928 19.9708 99.2359 19.95 99.3091C19.929 99.3824 19.6969 99.6586 20.0118 99.5762C19.7436 99.7157 19.86 99.7816 19.807 99.9999C19.7932 100.055 19.5608 100.081 19.6031 100.214C19.6175 100.259 19.827 100.302 19.816 100.363C19.7915 100.502 19.5476 100.587 19.5027 100.761C19.4933 100.798 19.4859 100.835 19.4801 100.872C19.436 101.161 19.4959 101.48 19.3978 101.767C19.3677 101.855 19.1592 101.797 19.1336 101.929C19.1304 101.949 19.2889 102.137 19.2581 102.226C19.2391 102.279 19.0688 102.547 19.0508 102.604C19.0211 102.698 19.2251 102.742 19.1779 102.789C19.0422 102.926 18.7538 102.766 19.1465 103.001C18.9086 103.033 18.9189 103.143 18.631 103.145C18.9348 103.244 18.6264 103.292 18.7173 103.426C18.8083 103.56 19.4018 103.721 18.7495 103.685C18.8224 103.75 18.9338 104.006 18.9402 104.048C18.9571 104.171 18.7831 104.09 18.7993 104.184C18.802 104.2 18.9263 104.194 18.9054 104.296C18.8907 104.363 18.8449 104.86 18.8266 104.889C18.6103 105.216 18.7172 104.695 18.5904 104.611C18.6263 104.6 18.6624 104.59 18.6981 104.579C18.768 104.434 18.4832 104.497 18.4133 104.561C18.3434 104.624 18.4578 104.762 18.3625 104.812C18.3146 104.838 17.9822 104.796 18.0288 104.712C17.9193 104.798 17.8201 104.663 17.7209 104.692C17.6116 104.725 17.5506 105.145 17.7348 105.158C17.7461 105.08 17.7462 104.982 17.7592 104.904C18.0857 104.824 19.1549 105.206 18.7028 105.461C18.3756 105.649 18.143 105.294 18.3816 105.799C18.3983 105.724 18.4316 105.662 18.4488 105.594C18.689 105.6 18.4192 105.697 18.4926 105.758C18.5284 105.787 18.7071 105.628 18.7559 105.777C18.4064 105.885 18.7464 106 18.741 106.211C18.6824 106.149 18.6243 106.088 18.5659 106.026C18.3003 106.374 18.2574 105.533 18.0856 106.228C18.0783 106.143 18.0851 106.059 18.0723 105.973C17.9444 106.009 17.5781 105.925 17.4983 105.958C17.2887 106.046 17.4056 106.196 17.3827 106.315C17.3729 106.367 17.2745 106.33 17.2737 106.334C17.2597 106.406 17.4066 106.396 17.4134 106.459C17.4218 106.538 17.2712 106.76 17.2861 106.798C17.3242 106.895 17.6185 106.746 17.6397 106.756C17.7773 106.822 17.6572 106.942 17.8403 106.941C17.7234 106.638 17.9219 105.791 18.1922 106.575C18.4962 106.375 18.9006 106.454 18.9214 106.757C18.9392 107.008 18.7817 106.841 18.5977 106.966C18.5745 106.981 18.4781 107.317 18.6047 107.338C18.3127 107.316 18.0506 107.419 17.7511 107.336C17.7071 107.324 17.7287 107.184 17.4847 107.226C17.3622 107.246 17.095 107.309 16.9402 107.293C17.0472 107.326 17.1676 107.359 17.2793 107.392C17.305 107.603 17.1882 107.63 16.9841 107.741C17.0682 107.737 17.4236 107.64 17.3124 107.799C17.3058 107.807 17.1789 107.811 17.1142 107.892C16.9844 108.055 16.9446 108.089 16.5755 107.953C16.78 108.303 16.3641 108.368 16.479 108.724C16.9584 108.662 16.842 108.537 16.7564 108.211C16.8704 108.2 16.9831 108.195 17.0983 108.183C16.8319 108.608 16.8624 108.396 17.0887 108.644C17.1442 108.704 17.0783 109.021 17.402 108.92C17.4781 108.896 17.4728 108.7 17.5918 108.724C17.6145 108.729 17.6682 108.969 17.6371 108.99C17.2521 109.248 16.9939 108.771 17.1215 109.502C17.1253 109.522 17.2644 109.532 17.2832 109.571C17.3183 109.645 17.157 109.644 17.1932 109.71C17.2296 109.777 17.4452 109.872 17.2432 109.968C16.8756 110.143 16.6717 109.713 16.8682 109.525C16.3921 109.442 16.3621 110.801 16.4012 110.884C16.573 111.253 16.4803 110.642 16.613 110.612C16.6691 110.6 17.3787 110.617 16.9205 110.456C16.7848 110.408 16.6021 110.596 16.5286 110.481C16.455 110.366 16.6633 110.414 16.678 110.406C16.7284 110.378 16.6527 110.256 16.6826 110.241C17.1357 110.004 17.8149 110.037 16.8065 110.344C17.0313 110.487 17.3976 110.171 17.549 110.347C17.7331 110.561 17.4071 110.711 17.3921 110.738C17.2145 111.054 17.6928 110.693 17.5355 111.081C17.4478 111.296 17.2266 110.751 17.2491 111.246C17.2678 111.661 17.4362 111.44 17.8095 111.477C17.8968 111.486 17.9998 111.716 17.9671 111.405C17.8699 111.395 17.7419 111.376 17.6525 111.354C17.7249 111.28 18.2145 111.162 18.2322 111.121C18.3166 110.925 18.0634 110.931 18.3632 110.819C18.036 110.897 18.2345 110.765 18.1665 110.713C17.9157 110.521 17.8178 110.766 18.15 110.349C17.9964 110.402 17.8457 110.449 17.6927 110.5C17.6882 110.45 17.6836 110.399 17.679 110.348C18.0167 110.278 17.9775 110.008 18.3128 110.256C18.4132 109.965 18.3416 109.846 18.0807 109.777C18.0309 109.765 18.0116 109.72 18.0075 109.669C17.9338 109.677 17.7062 109.686 17.6784 109.678C17.4341 109.601 17.8596 109.495 18.0208 109.536C18.0291 109.5 18.0386 109.471 18.0427 109.461C18.0687 109.397 18.2131 109.525 18.2641 109.474C18.2806 109.457 18.2515 109.276 18.311 109.274C18.6927 109.258 18.4128 109.55 18.6439 108.959C18.2971 108.939 18.369 109.216 18.0015 109.139C17.6068 109.057 18.1405 108.91 17.6553 108.868C17.7354 108.856 17.8021 108.852 17.8932 108.843C17.6857 108.598 18.0904 108.602 18.1811 108.53C18.3579 108.391 18.3458 107.735 17.9829 108.316C17.9496 108.23 17.9353 108.141 17.9063 108.055C18.6321 108.051 18.3417 108.096 18.4626 107.688C18.4894 107.598 18.8091 107.577 18.4328 107.478C18.8039 107.501 18.5871 107.228 18.6331 107.204C18.9309 107.055 19.3218 107.655 18.6634 107.715C18.9167 107.821 18.5786 107.813 18.6208 107.926C18.6818 108.089 18.7471 108.113 18.4936 108.3C18.841 108.496 18.6645 107.563 19.1185 108.136C19.5682 108.698 19.7914 112.014 19.8289 112.823C19.8628 113.406 19.8877 113.881 19.8985 114.328L19.7439 113.351C20.0046 113.899 20.2269 114.399 20.4896 115.078C20.5323 115.191 20.9133 116.022 20.4657 116.003C20.4012 116.001 20.1068 115.694 19.9424 116.13C20.0897 115.994 20.2795 116.132 20.3044 116.14C20.868 116.319 20.8824 116.071 21.1222 116.624ZM18.5214 119.733C18.2786 118.954 18.2707 119.609 17.641 119.702C17.6816 119.798 17.7222 119.894 17.763 119.991C17.787 119.95 17.8111 119.91 17.8352 119.869C17.8352 119.869 17.8351 119.869 17.8351 119.869C18.0639 119.824 18.2929 119.779 18.5214 119.733ZM24.1097 131.589C24.0236 131.595 23.9377 131.601 23.8524 131.604C23.8336 131.502 23.8142 131.401 23.7947 131.3C23.8495 131.288 23.9046 131.275 23.9594 131.263C24.0074 131.372 24.0548 131.481 24.1097 131.589ZM16.7811 109.412C17.0078 109.264 16.607 109.272 16.7927 109.075C16.4967 109.095 16.207 109.117 15.9139 109.138C15.9552 109.292 16.0671 109.328 15.9924 109.493C16.0877 109.475 16.1836 109.456 16.2795 109.439C16.2595 109.411 16.2368 109.382 16.2191 109.355C16.4856 109.316 16.5213 109.581 16.7817 109.412C16.7815 109.412 16.7813 109.412 16.7811 109.412ZM16.6905 107.863C16.7308 107.783 16.8838 107.464 16.7627 107.417C16.3512 107.255 16.5913 108.176 16.2395 107.493C16.1811 107.494 16.1242 107.49 16.0665 107.488C16.0428 107.611 16.0222 107.733 16.0029 107.857C16.2328 107.856 16.4595 107.865 16.6905 107.863ZM17.3404 117.048C17.3221 116.921 16.9137 116.438 16.7443 116.719C16.6947 116.802 17.1454 116.909 17.1686 117.008C17.184 117.072 16.9651 117.083 17.0849 117.174C17.1667 117.134 17.2585 117.092 17.3397 117.047C17.3399 117.048 17.3402 117.048 17.3404 117.048ZM18.5387 116.803C18.4552 116.699 18.3624 116.596 18.2771 116.492C18.0957 116.669 18.3065 116.783 18.0054 116.92C17.9686 116.897 17.9321 116.874 17.8953 116.851C17.9517 116.798 18.0083 116.745 18.0649 116.693C17.8565 116.659 17.7999 116.756 17.7687 116.544C17.3545 116.851 17.1149 116.974 17.7191 117.111C17.4428 117.152 16.6515 117.551 17.3112 117.492C17.4337 117.481 17.4461 117.307 17.4626 117.299C17.6676 117.187 17.8374 117.21 18.0298 117.101C18.1169 117.053 18.0792 116.966 18.2009 116.9C18.2604 116.869 18.4716 116.877 18.5387 116.803ZM17.5523 117.495C17.4072 117.512 17.1527 117.768 17.2616 117.852C17.4308 117.983 17.6086 117.589 17.5523 117.495ZM24.1102 131.589C24.11 131.589 24.1099 131.589 24.1097 131.589C24.11 131.589 24.1103 131.589 24.1106 131.589C24.1105 131.589 24.1104 131.589 24.1102 131.589ZM16.5188 108.279C16.4012 108.181 16.4217 108.039 16.2316 108.046C16.2699 108 16.3077 107.953 16.3461 107.907C16.289 107.906 16.2317 107.906 16.1752 107.905C16.1364 108.045 16.0977 108.185 16.0588 108.325C16.2119 108.31 16.3656 108.297 16.5188 108.279ZM16.6933 106.751C16.7189 106.574 16.4552 106.713 16.3319 106.67C16.2085 106.626 16.3161 106.471 16.1364 106.483C16.1253 106.588 16.1143 106.697 16.1042 106.803C16.2999 106.782 16.4988 106.769 16.6933 106.75C16.6933 106.75 16.6933 106.75 16.6933 106.751ZM19.7155 122.825C19.7148 122.693 19.9137 122.652 19.6041 122.537C19.6042 122.537 19.6043 122.537 19.6044 122.537C19.554 122.81 19.5491 123.136 19.7971 123.292C19.9193 123.065 19.7175 123.034 19.7155 122.825ZM16.193 109.819C16.3486 109.871 16.4825 109.639 16.338 109.586C16.1043 109.499 15.9568 109.739 16.193 109.819ZM23.1059 126.525C23.6157 126.46 23.9322 125.904 23.5635 125.701C23.5313 125.683 23.5011 125.956 23.3866 125.94C23.3753 125.938 23.3274 125.821 23.2536 125.824C23.1797 125.828 23.0567 125.929 22.975 125.913C22.832 125.886 22.9253 125.605 22.762 125.615C22.7401 125.617 22.6124 125.823 22.6091 125.834C22.5577 126.009 22.8573 125.996 22.8681 126.012C22.924 126.1 22.7275 126.184 22.6951 126.231C22.6342 126.318 22.7577 126.351 22.7543 126.359C22.6614 126.585 22.5429 126.243 22.4523 126.235C22.2075 126.214 22.0922 126.412 21.8423 126.184C21.8191 126.163 21.6663 125.838 21.6604 126.349C20.8103 125.785 21.6147 126.88 21.7807 126.957C21.8573 126.993 21.9897 126.808 22.0899 126.801C22.3189 126.787 22.425 126.909 22.6793 126.759C23.2143 126.444 22.7574 126.449 22.7848 126.275C22.9111 126.226 23.0301 126.17 23.1595 126.133C22.9819 126.177 23.068 126.531 23.1048 126.526C23.1052 126.526 23.1055 126.525 23.1059 126.525ZM21.4546 124.858C21.5335 124.597 21.1888 124.783 21.3082 124.52C20.9218 124.532 21.0838 124.806 21.083 124.849C21.0791 125.04 20.7353 125.207 20.9179 125.309C21.0936 125.155 21.2765 125.009 21.4546 124.858ZM22.0976 126.476C21.8602 126.449 21.9733 126.66 21.9441 126.685C21.6365 126.966 21.3746 126.292 22.0976 126.476ZM17.7752 116.031C17.7624 115.963 17.6026 116.075 17.5281 116.04C17.453 116.005 17.5273 115.755 17.4197 115.803C17.3114 115.852 17.1676 116.317 16.9645 115.99C16.9076 116.027 16.86 116.041 16.8066 116.069C16.8436 116.166 16.8809 116.266 16.918 116.363C17.0742 116.239 17.2385 116.108 17.3895 115.989C17.5525 115.986 17.3838 116.089 17.385 116.092C17.3852 116.092 17.3853 116.092 17.3855 116.092C17.4403 116.187 17.8042 116.182 17.7752 116.031ZM19.3433 121.151C19.7838 120.971 19.2348 121.047 19.1539 121.012C19.0733 120.976 19.196 120.821 19.0239 120.937C18.9395 121.092 19.2942 121.171 19.3439 121.15C19.3437 121.15 19.3435 121.151 19.3433 121.151ZM20.9753 123.889C20.7987 123.79 20.6991 123.868 20.7366 123.622C20.6367 123.68 20.5345 123.738 20.4361 123.794C20.5052 123.942 20.8001 123.786 20.7616 124.013C20.7552 124.05 20.487 124.108 20.6247 124.195C20.7347 124.096 20.8586 123.99 20.9753 123.889ZM20.2314 123.33C20.3305 123.496 21.2336 123.228 20.7034 123.093C20.6243 123.073 20.1568 123.205 20.2314 123.33ZM18.473 117.65C18.3703 117.339 18.3769 117.739 18.2785 117.872C17.8769 117.218 18.3475 117.935 17.9408 118.192C18.1018 118.224 18.4546 118.261 18.4548 118.051C18.4548 117.964 18.3362 118.047 18.3349 118.042C18.3089 117.892 18.5288 117.818 18.473 117.65ZM21.6298 125.157C21.618 125.149 21.4833 125.238 21.4369 125.217C21.3905 125.196 21.4514 125.067 21.3595 125.103C21.2667 125.139 21.2782 125.334 21.3676 125.351C21.4574 125.367 21.7352 125.229 21.6298 125.157ZM21.4292 123.863C21.2538 123.767 20.84 124.267 20.8584 124.298C21.0238 124.564 21.2568 123.937 21.4292 123.863ZM19.692 117.944C19.2625 117.707 18.895 118.173 18.706 118.523C18.7771 118.527 18.8488 118.533 18.9192 118.537C18.5066 118.556 18.0529 118.47 18.5914 118.864C18.5488 118.539 18.7493 118.739 18.7701 118.732C19.4337 118.48 18.9471 118.186 19.6921 117.944C19.692 117.944 19.692 117.944 19.692 117.944ZM21.7181 125.706C21.799 125.86 22.1098 126.196 22.2905 125.871C22.1002 125.818 21.9095 125.763 21.7181 125.706ZM18.1478 112.138C18.3278 112.002 18.3276 111.873 18.3195 111.701C18.0591 111.851 18.0317 111.748 17.9698 111.695C17.8766 111.614 17.8805 111.805 17.8631 111.806C17.6188 111.797 17.5836 111.674 17.5834 111.952C17.4998 111.881 17.4155 111.812 17.3324 111.742C17.3169 111.952 17.1563 111.999 16.9585 112.127C17.4373 112.009 17.1355 112.172 17.3683 112.333C17.4848 112.414 18.0559 112.207 18.1478 112.137C18.1478 112.137 18.1478 112.137 18.1478 112.138ZM19.621 117.537C19.5265 117.535 19.4055 117.547 19.3002 117.549C19.275 117.514 19.2509 117.479 19.2258 117.444C19.2935 117.409 19.3648 117.374 19.4295 117.34C19.4281 117.28 19.3394 117.342 19.3239 117.33C19.3242 117.33 19.3246 117.33 19.325 117.33C19.1035 117.166 19.0799 117.07 19.2244 116.809C19.0102 116.899 18.7961 116.989 18.582 117.078C18.6186 117.108 18.6548 117.139 18.691 117.169C18.8146 117.141 18.9383 117.113 19.0619 117.085C19.0173 117.156 18.973 117.227 18.9286 117.299C18.985 117.317 19.0467 117.342 19.1001 117.356C18.5784 117.788 18.8122 117.21 18.5627 117.311C18.4018 117.376 18.5825 117.783 18.7175 117.794C18.7372 117.795 19.1441 117.517 18.9762 117.765C18.9496 117.804 17.992 118.224 18.8394 118.052C18.9596 118.027 19.5219 117.69 19.621 117.537ZM19.3148 115.938C18.7897 116.421 19.0988 115.308 18.7379 115.88C18.4109 115.892 18.4222 115.909 18.2126 116.118C18.1938 116.136 18.0858 116.095 18.0784 116.106C17.9793 116.261 18.1022 116.351 17.8494 116.455C17.874 116.477 17.8964 116.497 17.9209 116.518C18.1133 116.308 18.3467 116.421 18.5755 116.405C18.6793 116.398 18.6781 116.316 18.7685 116.309C18.8016 116.306 18.7844 116.429 18.8695 116.399C19.0616 116.329 19.2907 116.161 19.3868 115.999C19.387 115.999 19.3872 115.999 19.3874 115.999C19.3642 115.978 19.3387 115.959 19.3148 115.938ZM20.9265 121C20.6087 121.194 20.5842 121.393 20.283 121.173C20.2236 121.218 20.1651 121.263 20.1058 121.308C20.1347 121.356 20.163 121.402 20.1918 121.45C21.2501 121.143 20.2653 121.939 20.8825 121.435C20.9495 121.38 20.8095 121.301 21.0705 121.322C21.0706 121.321 21.0707 121.321 21.0708 121.321C20.9317 121.188 20.8034 121.223 20.9265 121ZM20.1924 120.016C19.3122 119.958 20.034 120.718 20.1537 120.481C20.1644 120.46 19.8362 120.142 20.1924 120.016ZM22.2089 122.731C22.1411 122.56 21.7574 122.73 21.6293 122.813C21.5008 122.895 21.6945 122.944 21.6801 122.969C21.6326 123.052 21.5362 122.972 21.4694 123.082C21.4475 123.117 21.4549 123.476 21.4776 123.481C21.6039 123.511 21.8628 123.251 21.9087 123.255C22.0591 123.267 21.9425 123.439 22.1177 123.378C22.4917 123.248 22.0365 123.256 22.0161 123.229C21.9561 123.149 22.1589 123.06 22.1665 122.974C22.1741 122.888 22.0846 122.877 22.0705 122.812C22.0659 122.79 22.2117 122.74 22.2089 122.731ZM21.1446 122.562C21.5144 122.599 21.6243 122.027 21.5333 122.008C21.2629 121.954 20.9676 122.544 21.1446 122.562ZM18.6197 116.897C18.9008 116.972 18.913 116.518 18.7827 116.445C18.7024 116.501 18.5226 116.87 18.6197 116.897ZM19.7336 118.043C19.6032 117.923 19.2125 118.327 19.2746 118.449C19.6192 118.386 19.5271 118.344 19.5046 118.257C19.4822 118.17 19.8353 118.137 19.7336 118.043ZM22.7559 124.697C22.7442 124.663 22.2397 124.285 22.2799 124.627C22.2822 124.651 22.5068 124.987 22.5668 124.989C22.6887 124.995 22.7831 124.785 22.7559 124.697ZM20.5069 118.554C20.2023 118.594 20.1718 118.515 19.8866 118.727C19.8866 118.727 19.8867 118.727 19.8867 118.728C19.7018 118.571 20.3473 118.278 20.3147 118.241C20.2004 118.112 19.8004 118.457 19.6073 118.428C19.8461 118.586 19.5068 118.659 19.5606 118.835C19.5728 118.874 19.8248 118.942 19.9503 118.913C20.0757 118.884 20.3891 118.654 20.5069 118.554ZM23.1832 125.374C23.1973 125.155 22.6914 125.215 22.7449 125.486C22.7708 125.619 23.1747 125.509 23.1832 125.374ZM18.3802 107.628C18.2541 107.654 18.1285 107.681 18.0036 107.709C17.975 107.638 17.9459 107.566 17.917 107.495C17.9551 107.552 17.9927 107.609 18.0303 107.666C18.0775 107.535 18.3071 107.481 18.3802 107.628C18.3802 107.628 18.3802 107.628 18.3802 107.628ZM18.7784 102.997C18.9051 102.954 18.5485 102.794 18.5178 102.805C18.2882 102.887 18.6025 103.057 18.7784 102.997ZM19.5672 116.218C19.5321 115.997 19.0276 116.368 19.041 116.509C19.1168 116.388 19.5874 116.344 19.5672 116.218ZM18.5904 104.611C18.5368 104.626 18.4832 104.642 18.4293 104.66C18.507 104.597 18.5566 104.589 18.5904 104.611ZM23.1948 124.375C23.2208 124.323 23.1455 124.087 23.079 124.083C22.9396 124.075 22.7252 124.397 22.8684 124.452C22.8841 124.459 23.1682 124.426 23.1946 124.375C23.1946 124.375 23.1947 124.375 23.1948 124.375ZM18.6211 107.339C18.6153 107.339 18.6097 107.339 18.6047 107.338C18.6101 107.338 18.6157 107.338 18.6211 107.339ZM20.4293 98.3777C20.4198 98.3769 20.4105 98.3755 20.4018 98.3734C20.4105 98.3748 20.4198 98.3759 20.4293 98.3777ZM22.8882 122.588C23.3734 122.262 23.0145 122.227 22.8212 122.485C22.8113 122.499 22.8805 122.57 22.8882 122.588Z" fill="#F5F0E9" fill-opacity="0.7"/>
</svg>
