<svg width="195" height="195" viewBox="0 0 195 195" fill="none" xmlns="http://www.w3.org/2000/svg">
<mask id="path-1-inside-1_432_588" fill="white">
<circle cx="97.5" cy="97.5" r="97.5" transform="rotate(90 97.5 97.5)"/>
</mask>
<circle cx="97.5" cy="97.5" r="97.5" transform="rotate(90 97.5 97.5)" fill="#F5F0E9" fill-opacity="0.15"/>
<path d="M97.5 195C87.2743 194.804 77.136 193.02 67.5363 189.71C28.7281 176.813 1.25516 137.684 2.25 97.5C1.58232 46.7742 47.2152 1.8004 97.5 3C147.785 1.8004 193.418 46.7742 192.75 97.5C193.745 137.684 166.272 176.813 127.464 189.71C117.864 193.02 107.726 194.804 97.5 195C107.725 195.204 117.99 193.799 127.816 190.794C167.524 179.211 197.472 139.656 197.25 97.5C199.108 44.3568 151.084 -4.32595 97.5 -3C43.9158 -4.32595 -4.10788 44.3568 -2.25 97.5C-2.47179 139.656 27.4763 179.211 67.1842 190.794C77.0101 193.799 87.2749 195.204 97.5 195Z" fill="#F5F0E9" fill-opacity="0.7" mask="url(#path-1-inside-1_432_588)"/>
<path d="M125.129 19.2325C126.833 20.443 128.449 21.6622 130.031 22.5912C130.706 22.9897 131.351 23.4219 131.95 23.8762C132.238 24.0957 132.118 24.2179 132.187 24.2951C132.372 24.5068 132.622 24.4473 132.774 24.5815C133.503 25.2296 134.171 25.8371 134.816 26.5124C135.473 27.2098 134.781 27.2818 134.932 27.5988C135.216 28.2159 135.299 27.3522 135.586 27.4162C136.086 27.9558 136.544 28.5247 136.988 29.0842C136.821 29.0043 136.656 28.9249 136.489 28.8401C136.698 29.072 136.932 29.461 136.443 29.2159C136.487 29.3314 136.522 29.4487 136.57 29.5657C136.769 29.4151 137.164 29.7898 137.303 29.7222C137.443 29.6545 137.206 29.4608 137.216 29.4531C137.363 29.342 138.052 30.4 138.098 30.4719C138.224 30.6743 137.863 30.7486 138.017 30.8736C138.284 31.089 138.556 30.4818 138.306 31.3964C138.623 31.3266 138.537 31.4392 138.69 31.6082C138.71 31.6302 138.8 31.5002 138.812 31.5061C139.141 31.6525 138.752 31.6884 138.742 31.7006C138.583 31.9191 138.936 32.0803 138.977 32.1496C139.059 32.292 139.142 32.4288 139.223 32.5571C139.235 32.5656 139.265 32.5965 139.277 32.6059C139.808 33.4805 139.944 34.1678 140.42 34.882C140.454 34.9342 140.52 35.0085 140.599 35.0888C140.797 35.2908 141.101 35.5309 141.19 35.6601C141.314 35.839 141.099 35.9009 141.119 36.0464C141.57 35.8306 141.719 35.8986 141.837 36.3979C142.171 36.237 141.98 36.4336 142.251 36.5683C142.477 36.6806 143.065 36.6301 143.065 37.0716C142.839 36.8516 142.761 37.0025 142.424 36.8609C142.306 36.8166 141.379 36.0469 141.221 36.3581C141.136 36.5258 141.555 36.6676 141.545 36.7017C141.492 36.9094 141.161 36.9437 141.06 36.7445C141.125 36.7488 141.197 36.759 141.264 36.7649C141.079 36.2836 140.696 37.1848 140.979 36.3468C141.014 36.2444 141.097 36.1788 141.117 36.054C141.077 36.0764 141.066 36.2142 140.999 36.1785C140.93 36.1415 140.969 35.8945 140.834 36.0052C140.635 36.1651 140.934 36.3104 140.941 36.3362C140.943 36.3352 140.944 36.3342 140.945 36.3333C141.01 36.5747 140.674 36.2878 140.643 36.2886C140.434 36.306 140.419 36.4611 140.175 36.4024C140.034 36.3688 139.846 36.1059 139.75 36.0307C139.652 35.9569 139.686 36.1763 139.613 36.1322C139.569 36.1056 139.552 36.0452 139.528 35.9897C139.511 35.9523 139.492 35.9174 139.459 35.8951C139.423 35.8716 139.32 35.9568 139.304 35.944C139.13 35.8069 139.435 35.7464 139.307 35.607C139.224 35.5186 138.781 35.3383 138.88 35.611C138.779 35.516 138.689 35.4204 138.599 35.3264C138.612 35.4154 138.638 35.5012 138.647 35.5956C138.556 35.3535 138.309 35.3933 138.214 35.283C138.12 35.1744 138.277 34.9183 138.087 34.8795C137.685 34.7996 138.213 35.3306 138.245 35.4728C138.252 35.5189 137.984 35.5053 137.966 35.4895C137.884 35.4156 137.944 35.2313 137.897 35.1742C137.726 34.9722 137.481 34.9818 137.342 34.8791C137.278 34.8319 137.217 34.7929 137.159 34.7613L137.276 34.8679C136.453 34.3238 135.638 33.6451 135.046 33.1025C134.79 32.8673 134.809 32.561 134.698 32.457C134.436 32.212 134.265 32.3208 134.043 32.1085C133.712 31.793 133.392 31.2226 133.154 30.9351C132.991 30.7365 132.691 30.7123 132.641 30.6703C131.937 30.0781 131.136 29.3498 130.571 28.8914C130.305 28.6746 130.312 28.4072 130.252 28.3674C129.995 28.2006 129.948 28.3977 129.764 28.2343C129.664 28.147 129.75 27.9908 129.74 27.9746C129.649 27.8344 129.487 28.0022 129.384 27.9375C128.797 27.5674 128.323 27.0771 127.739 26.7104C127.697 26.6836 127.752 26.5974 127.721 26.5855C127.721 26.5853 127.72 26.5851 127.72 26.5849C127.563 26.5243 127.549 26.7012 127.392 26.6219C127.064 26.4566 126.758 26.2356 126.45 26.0113C126.419 25.989 126.476 25.8694 126.404 25.8223C126.332 25.7751 126.209 25.8434 126.101 25.7629C125.816 25.5515 125.618 25.234 125.325 25.0173C125.276 24.9816 125.124 25.0678 125.051 25.0141C124.822 24.8449 124.571 24.4852 124.383 24.341C123.761 23.8654 123.144 23.5166 122.579 23.1119C122.447 23.0167 122.414 22.8136 122.348 22.7623C122.197 22.6472 122.234 22.8425 122.077 22.7338C120.803 21.8481 119.595 21.0725 118.321 20.7191C118.129 20.665 117.915 20.6346 117.698 20.6158C117.257 20.5667 116.81 20.5228 116.436 20.4237C116.182 20.3561 116.173 20.1588 115.992 20.1214C115.667 20.0552 115.561 20.2853 115.216 20.243C114.939 20.2089 114.672 19.9075 114.387 19.8685C114.099 19.8291 113.924 20.0386 113.594 20.0057C113.32 19.9779 112.967 19.8023 112.67 19.7656C110.501 19.4976 108.369 19.2291 106.221 18.8275C105.826 18.7495 105.337 18.6831 104.839 18.6187C103.937 18.5037 102.899 18.5275 101.915 18.3008C101.822 18.2794 101.963 18.0475 101.664 18.0989C101.5 18.127 101.29 18.328 100.915 18.345C98.7242 18.4458 96.3366 18.1381 94.0826 18.3652C90.6941 18.7088 87.3778 20.635 84.2147 18.5795C84.0621 18.4784 84.071 17.8963 84.1372 17.7237C84.2291 17.8311 84.3181 17.9612 84.4169 18.0833C84.4399 17.3551 84.4553 17.5419 84.8446 17.5647C85.09 17.5787 84.8641 17.2928 84.9843 17.1918C85.1481 17.06 85.8891 16.6259 85.7895 17.1164C85.8309 17.0289 85.8686 16.9454 85.9068 16.8601C86.4646 16.7313 87.0155 16.5586 87.5569 16.3714C87.6512 16.3387 87.6421 16.189 87.7403 16.1561C88.0083 16.0663 88.221 16.1463 88.499 16.1068C88.6491 16.0856 88.6567 15.9111 88.8522 15.9055C89.0489 15.8999 89.0637 16.1333 89.3119 15.8575C89.1138 15.5795 89.9078 15.7273 90.1864 15.6874C90.2279 15.6817 90.5341 15.3931 90.713 15.4098C90.8922 15.4257 91.1724 15.5732 91.4371 15.4578C91.5615 15.4035 91.6241 15.1931 91.7618 15.1713C91.8591 15.1561 91.9876 15.3297 92.1109 15.3285C92.2339 15.3273 92.4893 15.1593 92.5381 15.1535C92.7136 15.1314 92.5281 15.2728 92.649 15.2709C93.2304 15.2599 93.9095 15.2846 94.4766 15.1638C94.5464 15.1491 94.4398 15.0041 94.4488 14.9985C94.9162 14.7846 94.6727 14.9966 94.8098 15.1239C94.942 15.2466 95.8535 15.1239 95.8459 14.8617C95.8916 15.1887 96.0814 14.9269 96.1343 14.9145C96.3389 14.8665 96.3131 15.1528 96.508 15.0548C96.5796 15.019 96.4274 14.8341 96.5063 14.8357C96.7015 14.8399 96.8913 15.14 97.1525 15.1587C97.2155 15.1634 97.2294 15.0249 97.3408 15.0244C97.4518 15.0239 97.9263 15.1719 97.6976 14.8912C97.9925 15.1114 98.0443 14.9813 98.3726 14.9747C98.4548 14.9735 98.5729 15.1909 98.7483 15.1156C98.8077 15.0901 98.7982 14.8764 98.8887 14.8714C99.0955 14.8595 99.2964 15.0742 99.5615 15.0748C100.051 15.0767 100.571 14.908 101.09 14.9548C101.23 14.9677 101.199 15.1831 101.4 15.1845C101.428 15.184 101.674 14.995 101.815 15.0114C101.902 15.0208 102.335 15.1493 102.428 15.1601C102.575 15.1768 102.601 14.969 102.681 15.0098C102.912 15.128 102.721 15.433 103.006 15.0161C103.098 15.2489 103.262 15.2275 103.31 15.514C103.41 15.2022 103.521 15.5046 103.714 15.4036C103.902 15.3025 104.069 14.7004 104.095 15.3541C104.177 15.2766 104.565 15.1549 104.624 15.148C104.808 15.128 104.697 15.3038 104.842 15.2862C104.867 15.2834 104.848 15.1586 105.007 15.1792C105.108 15.1898 105.874 15.2527 105.923 15.2776C106.439 15.5225 105.621 15.3706 105.505 15.5C105.488 15.4635 105.47 15.4269 105.451 15.3908C105.218 15.3165 105.336 15.6039 105.436 15.6758C105.537 15.7477 105.736 15.639 105.811 15.7379C105.853 15.7878 105.79 16.1176 105.673 16.0672C105.796 16.1809 105.607 16.2741 105.651 16.375C105.7 16.4828 106.285 16.5769 106.319 16.3987C106.199 16.3769 106.07 16.3688 105.955 16.3496C105.838 16.0351 106.355 15.0818 106.755 15.407C106.776 15.4255 106.796 15.4483 106.815 15.4757C107.065 15.8349 106.533 16.0057 107.281 15.8549C107.175 15.825 107.087 15.781 106.991 15.7522C107.017 15.5133 107.137 15.7994 107.231 15.737C107.277 15.7063 107.058 15.4998 107.28 15.4774C107.409 15.8455 107.604 15.5265 107.911 15.5716C107.816 15.6184 107.721 15.665 107.626 15.7119C108.105 16.0403 106.89 15.9298 107.874 16.228C107.751 16.2195 107.631 16.1974 107.507 16.1947C107.546 16.3285 107.394 16.6788 107.434 16.7644C107.54 16.9889 107.764 16.8995 107.929 16.9444C108.002 16.9637 107.94 17.0549 107.946 17.0565C108.045 17.0837 108.046 16.9356 108.136 16.9407C108.249 16.9471 108.548 17.1401 108.603 17.1326C108.744 17.1139 108.566 16.792 108.583 16.7728C108.691 16.6488 108.849 16.7922 108.869 16.6101C108.426 16.6642 107.231 16.3085 108.384 16.1878C108.126 15.8466 108.279 15.458 108.724 15.498C109.091 15.531 108.83 15.6538 108.991 15.8621C109.011 15.8882 109.483 16.0535 109.529 15.9325C109.461 16.2177 109.577 16.4996 109.421 16.7796C109.398 16.8206 109.202 16.7703 109.232 17.0212C109.246 17.1472 109.302 17.4254 109.261 17.5758C109.319 17.4762 109.382 17.3636 109.442 17.2595C109.744 17.2782 109.767 17.4002 109.896 17.626C109.902 17.542 109.811 17.1685 110.021 17.3131C110.032 17.3214 110.021 17.448 110.126 17.5297C110.338 17.6938 110.381 17.7408 110.138 18.0767C110.658 17.9506 110.691 18.3771 111.207 18.3446C111.191 17.8564 110.996 17.942 110.527 17.9542C110.526 17.8388 110.536 17.7262 110.535 17.6095C111.096 17.9683 110.802 17.8906 111.184 17.7231C111.278 17.6819 111.714 17.8208 111.621 17.4773C111.6 17.3965 111.319 17.3559 111.372 17.2439C111.382 17.2226 111.731 17.2254 111.755 17.2612C112.064 17.7033 111.348 17.8441 112.401 17.8927C112.43 17.8939 112.465 17.7587 112.524 17.7497C112.634 17.733 112.607 17.8919 112.707 17.8722C112.807 17.8525 112.975 17.6628 113.078 17.8857C113.268 18.2918 112.627 18.3873 112.394 18.1485C112.2 18.5966 114.111 18.9605 114.237 18.9448C114.787 18.8681 113.907 18.8055 113.888 18.6676C113.88 18.6092 114.019 17.9132 113.716 18.3249C113.626 18.447 113.863 18.6743 113.688 18.7181C113.513 18.7619 113.616 18.5685 113.607 18.5519C113.576 18.4954 113.39 18.5396 113.373 18.5063C113.114 18.001 113.268 17.3382 113.539 18.4097C113.778 18.2234 113.39 17.7832 113.665 17.6778C113.997 17.5493 114.157 17.9089 114.192 17.9302C114.611 18.1851 114.179 17.6223 114.701 17.8751C114.992 18.0162 114.183 18.0965 114.888 18.1996C115.479 18.2863 115.193 18.064 115.307 17.705C115.333 17.621 115.674 17.5775 115.23 17.5312C115.2 17.6245 115.152 17.746 115.107 17.8289C115.013 17.7383 114.927 17.2258 114.872 17.1979C114.607 17.065 114.577 17.3167 114.466 16.9925C114.523 17.3351 114.368 17.1057 114.284 17.16C113.972 17.3595 114.302 17.5171 113.765 17.0852C113.815 17.2499 113.857 17.4104 113.905 17.5741C113.832 17.5659 113.76 17.5579 113.688 17.5498C113.641 17.1988 113.253 17.1707 113.66 16.9014C113.263 16.7299 113.082 16.7716 112.943 17.0123C112.917 17.0583 112.85 17.0665 112.776 17.058C112.777 17.1329 112.754 17.3599 112.737 17.3853C112.591 17.6079 112.506 17.1619 112.59 17.0126C112.54 16.9956 112.501 16.9794 112.487 16.9729C112.401 16.9318 112.605 16.82 112.54 16.7574C112.519 16.7369 112.258 16.7222 112.263 16.6627C112.299 16.2821 112.673 16.6279 111.864 16.2586C111.783 16.5966 112.19 16.5916 112.024 16.9365C111.847 17.3071 111.718 16.7446 111.585 17.2146C111.581 17.1328 111.585 17.0658 111.585 16.9735C111.206 17.1215 111.273 16.7226 111.182 16.6161C111.01 16.4085 110.07 16.2733 110.849 16.7635C110.72 16.7766 110.593 16.7712 110.465 16.7806C110.56 16.061 110.586 16.3578 110.016 16.1486C109.89 16.1025 109.9 15.7807 109.71 16.133C109.789 15.7693 109.367 15.9265 109.339 15.8762C109.157 15.5484 110.08 15.2882 110.08 15.9552C110.267 15.7273 110.21 16.0608 110.378 16.044C110.621 16.0198 110.665 15.9605 110.898 16.2541C111.23 15.9542 109.861 15.919 110.75 15.598C111.64 15.2644 116.411 15.8876 117.517 16.0483C117.908 16.101 118.259 16.1483 118.592 16.1944C120.281 16.4671 121.437 16.9137 122.881 17.7507C123.072 17.8477 124.344 18.6256 123.857 18.7976C123.789 18.8207 123.182 18.6132 123.455 19.17C123.468 18.9531 123.796 19.0221 123.829 19.0207C124.576 18.9824 124.363 18.6975 125.129 19.2325ZM125.132 23.7246C124.246 22.9615 124.776 23.6862 124.217 24.0376C124.337 24.1274 124.457 24.2178 124.578 24.3083C124.569 24.2538 124.56 24.1997 124.55 24.1452C124.55 24.1451 124.55 24.145 124.55 24.1449C124.744 24.0053 124.938 23.8651 125.132 23.7246ZM138.698 36.025C138.602 36.031 138.505 36.0364 138.408 36.0363C138.322 35.8761 138.246 35.7219 138.176 35.5746C138.232 35.5596 138.288 35.5438 138.345 35.5289C138.451 35.6887 138.566 35.8574 138.698 36.025ZM112.22 18.2072C112.049 17.9483 111.995 18.3457 111.747 18.1159C111.73 18.4131 111.717 18.7047 111.701 18.9993C111.923 18.9945 111.991 18.8925 112.21 19.0056C112.2 18.9072 112.189 18.8081 112.18 18.7092C112.137 18.7223 112.092 18.7377 112.052 18.7488C112.039 18.4763 112.417 18.5043 112.22 18.2068C112.22 18.2069 112.22 18.2071 112.22 18.2072ZM110.029 17.9434C109.921 17.8859 109.493 17.6668 109.412 17.7774C109.134 18.1515 110.451 18.1068 109.451 18.3123C109.446 18.3705 109.432 18.4261 109.423 18.483C109.591 18.5319 109.757 18.578 109.927 18.6235C109.956 18.3954 110.001 18.1729 110.029 17.9434ZM121.775 21.3638C121.649 21.2394 120.868 21.0014 120.956 21.3602C120.98 21.4624 121.474 21.3226 121.582 21.4109C121.65 21.4668 121.457 21.5879 121.643 21.617C121.686 21.5364 121.736 21.449 121.774 21.3641C121.775 21.364 121.775 21.3639 121.775 21.3638ZM122.703 20.5359C122.529 20.465 122.347 20.4025 122.17 20.3378C122.158 20.6074 122.462 20.6238 122.293 20.9092C122.238 20.9032 122.183 20.8973 122.128 20.8916C122.135 20.8102 122.143 20.7291 122.15 20.6479C121.921 20.7161 121.955 20.8415 121.737 20.6459C121.625 21.1648 121.499 21.3981 122.185 21.2417C121.96 21.4187 121.544 22.2011 122.115 21.8241C122.223 21.7549 122.091 21.5726 122.099 21.5558C122.2 21.3443 122.381 21.2866 122.473 21.0847C122.515 20.9932 122.404 20.9217 122.463 20.7959C122.492 20.7345 122.704 20.6446 122.703 20.5359ZM122.347 21.714C122.223 21.7997 122.19 22.1799 122.36 22.2159C122.628 22.2744 122.481 21.785 122.347 21.714ZM138.699 36.0257C138.699 36.0255 138.699 36.0252 138.698 36.025C138.699 36.0249 138.699 36.0249 138.699 36.0249C138.699 36.0252 138.699 36.0255 138.699 36.0257ZM110.589 18.2047C110.434 18.2991 110.239 18.248 110.221 18.4377C110.162 18.3896 110.102 18.3421 110.044 18.2942C110.035 18.3506 110.026 18.4073 110.017 18.4631C110.207 18.5317 110.396 18.6004 110.587 18.6702C110.588 18.5154 110.591 18.3603 110.589 18.2047ZM108.47 17.7129C108.226 17.6536 108.391 17.9425 108.317 18.0568C108.242 18.1711 108.039 18.0351 108.036 18.2161C108.18 18.2466 108.331 18.2783 108.477 18.3087C108.469 18.1101 108.474 17.9099 108.469 17.7128C108.469 17.7129 108.47 17.7129 108.47 17.7129ZM129.018 26.5018C128.914 26.368 129.074 26.2347 128.682 26.2621C128.683 26.2622 128.683 26.2623 128.683 26.2625C128.854 26.5583 129.095 26.8873 129.456 26.9464C129.406 26.6598 129.182 26.712 129.018 26.5018ZM112.7 18.8862C112.8 18.7455 112.493 18.5567 112.395 18.6866C112.237 18.8966 112.549 19.0998 112.7 18.8862ZM135.038 29.773C135.563 29.6198 135.599 28.8858 135.061 28.6839C135.015 28.667 135.146 29.0119 135.009 29.0086C134.996 29.0082 134.873 28.8707 134.793 28.8863C134.714 28.9021 134.639 29.0467 134.54 29.041C134.368 29.0319 134.303 28.6739 134.128 28.7149C134.105 28.7204 134.092 28.9967 134.095 29.0104C134.141 29.2307 134.459 29.1613 134.481 29.1809C134.594 29.2789 134.428 29.4149 134.42 29.477C134.404 29.5936 134.558 29.6139 134.559 29.6253C134.587 29.9166 134.261 29.5169 134.157 29.5235C133.878 29.5411 133.867 29.7988 133.468 29.5749C133.429 29.5532 133.079 29.1988 133.366 29.8072C132.136 29.3157 133.613 30.4351 133.832 30.509C133.934 30.539 133.977 30.295 134.082 30.2703C134.322 30.2138 134.505 30.3457 134.701 30.1238C135.11 29.6553 134.615 29.7341 134.544 29.5171C134.654 29.4364 134.752 29.3487 134.873 29.2834C134.706 29.3666 134.998 29.7842 135.037 29.7739C135.037 29.7736 135.037 29.7733 135.038 29.773ZM132.245 28.105C132.156 27.7803 131.917 28.0917 131.868 27.7567C131.471 27.8823 131.822 28.1472 131.847 28.1953C131.967 28.4151 131.711 28.6994 131.965 28.7663C132.054 28.543 132.155 28.3273 132.245 28.105ZM133.909 29.8767C133.636 29.8865 133.877 30.1192 133.86 30.1555C133.682 30.5441 133.026 29.7901 133.909 29.8767ZM121.272 20.1409C121.196 20.0832 121.156 20.2779 121.057 20.2874C120.959 20.2971 120.788 20.0225 120.739 20.1309C120.695 20.2401 120.987 20.7441 120.517 20.5697C120.501 20.6364 120.473 20.6778 120.452 20.7347C120.57 20.7983 120.689 20.8656 120.806 20.9333C120.834 20.7301 120.864 20.5165 120.886 20.3186C121.028 20.2223 120.974 20.4154 120.977 20.4172C120.977 20.4171 120.977 20.4169 120.978 20.4167C121.112 20.4732 121.442 20.2712 121.272 20.1409ZM127.186 24.9445C127.469 24.5617 126.983 24.8796 126.87 24.8746C126.756 24.8703 126.744 24.65 126.671 24.8479C126.723 25.0529 127.155 24.9881 127.186 24.944C127.186 24.9442 127.186 24.9443 127.186 24.9445ZM131.082 27.1459C130.828 27.0954 130.784 27.2164 130.643 26.9335C130.582 27.032 130.521 27.1324 130.461 27.2292C130.637 27.3648 130.828 27.0907 130.949 27.3551C130.969 27.3988 130.734 27.5526 130.936 27.6029C130.981 27.4571 131.034 27.298 131.082 27.1459ZM129.914 26.8088C130.135 26.9443 130.854 26.3162 130.209 26.3703C130.112 26.3789 129.746 26.7067 129.914 26.8088ZM123.371 21.4656C123.009 21.1782 123.351 21.602 123.365 21.7883C122.427 21.2655 123.488 21.8252 123.295 22.2748C123.479 22.2407 123.861 22.1354 123.688 21.9077C123.616 21.813 123.567 21.9522 123.561 21.9477C123.412 21.7973 123.568 21.6236 123.371 21.4656ZM132.622 28.4083C132.605 28.402 132.518 28.5394 132.456 28.527C132.394 28.5145 132.376 28.3483 132.302 28.4139C132.227 28.4802 132.36 28.7013 132.464 28.6982C132.569 28.6944 132.779 28.4664 132.622 28.4083ZM131.536 26.9702C131.285 26.9186 131.21 27.6132 131.247 27.6404C131.601 27.8883 131.413 27.1094 131.536 26.9702ZM124.836 21.2856C124.203 21.1947 124.23 21.8607 124.326 22.3192C124.401 22.2954 124.477 22.2725 124.551 22.2489C124.152 22.4348 123.63 22.5239 124.489 22.7392C124.182 22.3996 124.546 22.5391 124.561 22.5233C125.022 21.9818 124.29 21.852 124.836 21.2859C124.836 21.2858 124.836 21.2857 124.836 21.2856ZM133.054 29.0335C133.23 29.1927 133.765 29.5389 133.769 29.1138C133.531 29.0849 133.292 29.0576 133.054 29.0335ZM116.294 17.538C116.133 17.3265 115.949 17.2936 115.706 17.2584C115.874 17.5531 115.726 17.5544 115.64 17.602C115.511 17.6734 115.782 17.7181 115.779 17.7352C115.728 17.9742 115.548 17.9778 115.941 18.0484C115.828 18.113 115.716 18.1787 115.604 18.243C115.898 18.3115 115.94 18.4821 116.09 18.71C115.998 18.2071 116.182 18.5467 116.447 18.3576C116.58 18.2628 116.376 17.6463 116.293 17.5379C116.293 17.5379 116.293 17.538 116.294 17.538ZM124.42 20.8641C124.322 20.8993 124.211 20.9621 124.108 21.0089C124.053 20.9808 123.998 20.9516 123.943 20.9235C123.981 20.8574 124.021 20.7891 124.056 20.7246C124.003 20.6594 123.968 20.7638 123.942 20.7579C123.942 20.7576 123.943 20.7573 123.943 20.7569C123.58 20.6711 123.475 20.5791 123.381 20.2312C123.25 20.4232 123.119 20.6152 122.989 20.8072C123.051 20.8227 123.114 20.8393 123.175 20.8557C123.272 20.7711 123.37 20.6867 123.468 20.6025C123.486 20.6992 123.504 20.795 123.522 20.8916C123.594 20.8872 123.676 20.8873 123.741 20.8797C123.593 21.5701 123.331 20.8453 123.172 21.0641C123.071 21.2035 123.591 21.5608 123.734 21.5182C123.755 21.5117 123.926 21.0388 123.968 21.3793C123.974 21.4331 123.371 22.287 124.07 21.7486C124.17 21.6725 124.452 21.0741 124.42 20.8641ZM122.639 19.2514C122.61 20.0126 121.793 18.7038 122.024 19.4792C121.725 19.6603 121.757 19.6741 121.76 19.9921C121.76 20.0203 121.62 20.0363 121.623 20.0505C121.678 20.2564 121.874 20.2821 121.733 20.5166C121.775 20.525 121.814 20.5338 121.856 20.5426C121.846 20.2342 122.168 20.2276 122.375 20.1014C122.468 20.0441 122.39 19.9585 122.47 19.9074C122.5 19.8888 122.6 20.0264 122.654 19.954C122.775 19.7894 122.84 19.5028 122.772 19.2831C122.772 19.2829 122.772 19.2827 122.772 19.2825C122.728 19.2708 122.684 19.2623 122.639 19.2514ZM128.628 24.0769C128.486 24.4232 128.644 24.6433 128.146 24.5521C128.128 24.6263 128.111 24.7005 128.093 24.775C128.165 24.8114 128.235 24.8464 128.307 24.8831C128.628 24.5459 128.767 24.5685 128.837 24.6534C128.936 24.7732 128.89 25.0141 128.974 24.5409C128.979 24.5124 128.96 24.4915 128.942 24.4729C128.907 24.4378 128.875 24.4111 129.012 24.3517C129.025 24.3465 129.039 24.341 129.055 24.3353C129.054 24.335 129.054 24.3346 129.054 24.3343C129.045 24.3317 129.035 24.3293 129.026 24.3271C128.792 24.2734 128.7 24.352 128.628 24.0769ZM127.055 23.3622C126.119 23.6636 127.495 24.1875 127.411 23.8785C127.404 23.8526 126.803 23.6465 127.055 23.3622ZM131.478 25.4198C131.261 25.2439 131.002 25.5764 130.936 25.7147C130.869 25.8531 131.111 25.8397 131.117 25.8736C131.134 25.9837 130.968 25.9269 130.987 26.0742C130.994 26.1219 131.276 26.521 131.303 26.5202C131.458 26.5127 131.532 26.1322 131.582 26.1213C131.751 26.0866 131.76 26.3221 131.9 26.1976C132.198 25.9317 131.718 26.0802 131.676 26.0573C131.549 25.9838 131.693 25.8155 131.632 25.7135C131.571 25.6121 131.468 25.6302 131.399 25.5601C131.376 25.5367 131.489 25.4292 131.478 25.4198ZM130.231 25.6224C130.645 25.5196 130.265 24.8436 130.151 24.8617C129.83 24.9162 130.038 25.6722 130.231 25.6224ZM122.865 20.597C123.208 20.5491 122.811 20.0587 122.613 20.0441C122.59 20.1424 122.749 20.6135 122.865 20.597ZM124.961 21.379C124.729 21.2974 124.673 21.9006 124.835 22.0099C125.13 21.8034 125.003 21.7938 124.908 21.7066C124.813 21.6191 125.142 21.443 124.961 21.379ZM133.535 27.599C133.502 27.5582 132.696 27.2245 132.973 27.6246C132.996 27.6545 133.455 28.0012 133.522 27.9932C133.659 27.9745 133.624 27.6997 133.535 27.599ZM126.165 21.6399C125.891 21.805 125.795 21.7295 125.682 22.076C125.682 22.0761 125.682 22.0762 125.682 22.0763C125.366 21.9756 125.776 21.3968 125.712 21.369C125.49 21.2711 125.371 21.8105 125.153 21.8555C125.524 21.9355 125.242 22.15 125.441 22.3235C125.486 22.3623 125.796 22.3377 125.899 22.2559C126.001 22.1739 126.128 21.7968 126.165 21.6399ZM134.441 28.3434C134.317 28.0678 133.803 28.2408 134.03 28.5607C134.14 28.7165 134.516 28.5106 134.441 28.3434ZM109.919 16.2173C109.94 16.348 109.962 16.4783 109.985 16.6083C109.88 16.6213 109.774 16.6348 109.669 16.6484C109.755 16.6226 109.841 16.5975 109.927 16.5725C109.746 16.4975 109.697 16.2581 109.918 16.2173C109.919 16.2173 109.919 16.2173 109.919 16.2173ZM103.065 15.3825C102.977 15.261 102.805 15.6339 102.827 15.6632C102.984 15.8812 103.185 15.5511 103.065 15.3825ZM123.167 19.4362C122.914 19.2113 122.782 19.848 122.924 19.9905C122.885 19.8262 123.309 19.5637 123.167 19.4362ZM105.505 15.5C105.531 15.5543 105.557 15.6086 105.585 15.6633C105.488 15.583 105.472 15.533 105.505 15.5ZM133.797 27.1116C133.791 27.0435 133.538 26.7681 133.463 26.7793C133.306 26.8032 133.3 27.2431 133.493 27.2782C133.515 27.2821 133.802 27.1793 133.796 27.1111C133.796 27.1113 133.796 27.1114 133.797 27.1116ZM109.532 15.9164C109.532 15.9222 109.531 15.9276 109.529 15.9325C109.53 15.9272 109.531 15.9217 109.532 15.9164ZM95.8416 14.8341C95.844 14.8434 95.8456 14.8527 95.8459 14.8617C95.8446 14.8529 95.8426 14.8437 95.8416 14.8341ZM132.084 25.0308C132.33 24.4909 131.907 24.5623 131.925 24.931C131.926 24.9508 132.061 25.0115 132.084 25.0308Z" fill="#F5F0E9" fill-opacity="0.7"/>
<path d="M160.441 47.3698C160.685 47.7444 160.942 48.1253 161.199 48.5235C161.525 49.0327 161.843 49.5442 162.105 50.0812C162.161 50.1966 162.013 50.277 162.013 50.3193C162.012 50.4347 162.213 50.3837 162.238 50.453C162.361 50.7917 162.51 51.0983 162.635 51.4488C162.763 51.8118 162.218 51.9076 162.169 52.0819C162.07 52.4218 162.567 51.9096 162.749 51.9259C162.84 52.1698 162.907 52.4311 162.962 52.6933C162.971 52.7347 162.98 52.7761 162.988 52.8175C162.938 52.7956 162.889 52.7739 162.841 52.752C162.802 52.7347 162.764 52.7172 162.726 52.6996C162.737 52.729 162.744 52.7638 162.746 52.7979C162.75 52.9057 162.693 53.0045 162.502 52.9168C162.478 52.9805 162.445 53.0448 162.422 53.1085C162.652 53.014 162.765 53.2105 162.907 53.1686C163.05 53.1267 162.966 53.024 162.978 53.0194C163.15 52.9516 163.135 53.5329 163.128 53.5731C163.116 53.6847 162.8 53.7263 162.851 53.7943C162.936 53.9105 163.478 53.5852 162.783 54.0791C163.061 54.046 162.934 54.1058 162.953 54.2009C162.955 54.2134 163.097 54.1458 163.102 54.1494C163.264 54.2404 162.953 54.2455 162.939 54.2523C162.695 54.3642 162.862 54.4619 162.85 54.5014C162.7 54.9938 162.598 55.3382 162.67 55.7529C162.686 55.8423 162.88 56.0619 162.866 56.1587C162.853 56.254 162.656 56.2755 162.583 56.3484C163.044 56.2604 163.115 56.3082 162.88 56.5606C163.219 56.5045 162.959 56.5879 163.061 56.6731C163.145 56.7441 163.583 56.7659 163.291 56.9787C163.281 56.8554 163.128 56.9221 162.989 56.8281C162.943 56.7969 162.781 56.3574 162.466 56.5057C162.303 56.5829 162.51 56.6737 162.481 56.6904C162.31 56.7876 162.057 56.7853 162.11 56.6856C162.153 56.6905 162.198 56.699 162.242 56.7053C162.413 56.4626 161.576 56.8842 162.298 56.49C162.387 56.4414 162.487 56.4126 162.577 56.352C162.534 56.3615 162.443 56.4286 162.415 56.4086C162.387 56.3882 162.563 56.2679 162.397 56.3184C162.155 56.3918 162.288 56.47 162.277 56.4834C162.279 56.483 162.28 56.4826 162.282 56.4821C162.182 56.6013 162.112 56.4513 162.087 56.452C161.922 56.4569 161.819 56.5301 161.671 56.5023C161.587 56.4865 161.591 56.3682 161.554 56.338C161.518 56.3084 161.427 56.4079 161.393 56.3911C161.36 56.3743 161.434 56.3118 161.395 56.2921C161.378 56.2838 161.253 56.3298 161.246 56.3252C161.174 56.2766 161.451 56.2254 161.413 56.1711C161.388 56.1357 161.098 56.0949 161.058 56.2107C161.018 56.177 160.984 56.142 160.948 56.1068C160.921 56.1473 160.906 56.1843 160.872 56.2265C160.902 56.1245 160.675 56.1676 160.64 56.1238C160.606 56.0802 160.846 55.9397 160.7 55.932C160.391 55.916 160.621 56.1568 160.587 56.2109C160.573 56.2317 160.353 56.2525 160.344 56.2465C160.305 56.2194 160.433 56.123 160.416 56.0972C160.354 56.0058 160.142 56.0164 160.068 55.937C159.816 55.666 159.558 55.3263 159.395 55.0662C159.335 54.9693 159.516 54.8152 159.489 54.7711C159.426 54.6694 159.24 54.7396 159.188 54.6533C159.167 54.6202 159.157 54.5779 159.152 54.5317C159.137 54.399 159.166 54.228 159.147 54.1317C159.129 54.0417 158.922 54.0608 158.908 54.0431C158.7 53.7974 158.504 53.4496 158.356 53.2063C158.287 53.0926 158.438 52.9262 158.418 52.9052C158.333 52.8161 158.192 52.9382 158.157 52.8452C158.138 52.7945 158.284 52.6937 158.286 52.684C158.303 52.6 158.099 52.7095 158.067 52.671C157.881 52.4515 157.863 52.1343 157.73 51.8756C157.72 51.8566 157.808 51.8044 157.797 51.7957C157.745 51.7594 157.622 51.8671 157.58 51.821C157.492 51.7253 157.446 51.6004 157.392 51.473C157.386 51.4606 157.495 51.3866 157.479 51.3605C157.463 51.3343 157.345 51.3796 157.325 51.3342C157.276 51.2208 157.333 51.0438 157.278 50.9236C157.28 50.9251 157.278 50.9215 157.276 50.918C157.266 50.8987 157.116 50.9586 157.101 50.9299C157.051 50.8396 157.095 50.6359 157.054 50.5596C156.919 50.3114 156.699 50.1303 156.556 49.9057C156.523 49.8527 156.618 49.7274 156.603 49.6982C156.57 49.6322 156.483 49.7541 156.442 49.6905C156.108 49.1706 155.831 48.629 155.478 48.1207C155.342 47.9247 155.055 47.7576 154.959 47.5483C154.917 47.4581 155.065 47.3346 155.027 47.2769C154.96 47.1749 154.745 47.2973 154.652 47.2076C154.579 47.137 154.711 46.898 154.637 46.8196C154.563 46.7413 154.34 46.84 154.247 46.7592C154.172 46.6943 154.175 46.5143 154.098 46.4374C153.382 45.7296 152.717 45.0386 152.224 44.1842C152.05 43.8824 151.772 43.6249 151.701 43.2066C151.694 43.1673 151.897 43.0464 151.788 43.0019C151.73 42.978 151.53 43.0558 151.431 42.9681C150.85 42.4489 150.527 41.5639 149.85 41.1012C148.819 40.394 146.887 41.0183 147.345 38.4233C147.366 38.2953 147.717 37.8358 147.837 37.7194C147.796 37.8335 147.741 37.9643 147.692 38.0914C148.134 37.5203 148.023 37.6712 148.108 37.8094C148.161 37.8947 148.277 37.5995 148.367 37.5556C148.482 37.4977 148.937 37.3816 148.614 37.7384C148.677 37.6815 148.737 37.6265 148.798 37.5708C149.017 37.6367 149.262 37.6651 149.516 37.6802C149.561 37.6829 149.65 37.5627 149.696 37.5663C149.819 37.5752 149.827 37.7036 149.922 37.755C149.973 37.783 150.083 37.6487 150.138 37.7037C150.193 37.7588 150.051 37.9445 150.288 37.8045C150.41 37.5291 150.524 37.8827 150.622 37.9352C150.635 37.9428 150.9 37.8139 150.936 37.8806C150.972 37.9468 150.951 38.1441 151.094 38.136C151.162 38.1321 151.314 37.9908 151.364 38.016C151.399 38.0338 151.321 38.2049 151.354 38.2413C151.387 38.2775 151.563 38.228 151.58 38.2384C151.64 38.275 151.499 38.3255 151.532 38.3607C151.692 38.5291 151.851 38.7527 152.079 38.8357C152.107 38.846 152.177 38.7063 152.183 38.7049C152.448 38.6894 152.243 38.7718 152.193 38.9075C152.144 39.0382 152.463 39.2246 152.64 39.0315C152.429 39.2839 152.657 39.1509 152.679 39.1581C152.765 39.1857 152.562 39.3855 152.679 39.3738C152.723 39.3698 152.81 39.1893 152.83 39.2147C152.878 39.2779 152.72 39.5523 152.773 39.6442C152.786 39.6666 152.886 39.5713 152.915 39.6049C152.944 39.6385 152.963 39.8882 153.101 39.6184C153.023 39.8652 153.126 39.7874 153.216 39.8826C153.238 39.907 153.115 40.0958 153.213 40.0953C153.246 40.0951 153.395 39.9416 153.422 39.9656C153.484 40.0204 153.383 40.2317 153.45 40.3106C153.575 40.4587 153.831 40.4973 153.931 40.6815C153.958 40.7318 153.793 40.8705 153.845 40.931C153.853 40.9394 154.054 40.8811 154.079 40.9328C154.094 40.9639 154.115 41.178 154.131 41.2105C154.157 41.2638 154.317 41.1304 154.308 41.1812C154.284 41.3277 154.009 41.4807 154.391 41.2778C154.243 41.4603 154.302 41.4912 154.104 41.6978C154.361 41.5149 154.169 41.7516 154.294 41.7344C154.42 41.717 154.913 41.3591 154.436 41.8052C154.518 41.7771 154.712 41.7933 154.736 41.8051C154.803 41.8398 154.642 41.9301 154.695 41.9541C154.705 41.9586 154.791 41.87 154.822 41.9237C154.842 41.9593 155.025 42.1836 155.022 42.2075C155.001 42.482 154.86 42.205 154.731 42.2608C154.753 42.2324 154.775 42.204 154.796 42.1754C154.783 42.0709 154.605 42.2908 154.581 42.3626C154.557 42.4338 154.698 42.408 154.649 42.4919C154.625 42.5339 154.363 42.7427 154.363 42.6802C154.318 42.7859 154.19 42.8033 154.129 42.8814C154.063 42.9668 154.185 43.1621 154.327 43.0452C154.304 43.008 154.265 42.9711 154.243 42.9332C154.449 42.6818 155.399 42.1112 155.171 42.5195C155.002 42.8116 154.686 42.8234 155.065 42.8665C155.048 42.8256 155.049 42.7789 155.035 42.7408C155.217 42.5846 155.053 42.8009 155.133 42.7773C155.172 42.7656 155.242 42.5833 155.338 42.6118C155.119 42.8853 155.421 42.7086 155.501 42.8011C155.432 42.8133 155.363 42.8255 155.295 42.8382C155.23 43.1531 154.869 42.84 155.009 43.2332C154.971 43.2033 154.944 43.1649 154.901 43.139C154.817 43.2364 154.508 43.442 154.46 43.5072C154.335 43.6778 154.48 43.6605 154.507 43.7226C154.519 43.7496 154.43 43.7985 154.431 43.8007C154.446 43.8375 154.555 43.739 154.583 43.7593C154.619 43.7848 154.584 43.9692 154.609 43.9747C154.673 43.9893 154.846 43.7423 154.866 43.7326C154.996 43.6714 154.947 43.7968 155.089 43.6804C154.89 43.6308 154.719 43.1623 155.223 43.306C155.38 43.0293 155.718 42.7987 155.852 42.9145C155.962 43.0103 155.777 43.0394 155.682 43.2094C155.671 43.2308 155.722 43.435 155.828 43.3648C155.594 43.5395 155.427 43.7468 155.164 43.9008C155.126 43.9233 155.092 43.8515 154.917 44.0225C154.83 44.1084 154.645 44.3022 154.519 44.3929C154.613 44.3389 154.719 44.2764 154.817 44.2195C154.911 44.2888 154.829 44.3732 154.708 44.5449C154.772 44.4914 155.016 44.23 154.985 44.3646C154.982 44.3721 154.885 44.4526 154.862 44.5259C154.816 44.6737 154.796 44.7119 154.46 44.8844C154.741 44.9019 154.434 45.1836 154.642 45.2585C155.002 44.9412 154.868 44.9603 154.69 44.879C154.776 44.804 154.864 44.7329 154.95 44.6569C154.885 44.9974 154.836 44.889 155.099 44.854C155.163 44.8451 155.218 45.0186 155.441 44.7799C155.493 44.7236 155.422 44.6432 155.525 44.5813C155.545 44.5693 155.669 44.6393 155.652 44.6671C155.433 45.0108 155.067 44.9634 155.413 45.1975C155.423 45.2037 155.537 45.1241 155.565 45.1296C155.618 45.1402 155.488 45.2361 155.539 45.2426C155.59 45.2491 155.795 45.1612 155.664 45.3229C155.427 45.617 155.122 45.5546 155.218 45.359C154.81 45.6072 155.228 46.2008 155.285 46.2132C155.544 46.2701 155.271 46.0632 155.369 45.9731C155.41 45.935 155.988 45.5235 155.566 45.7254C155.441 45.7855 155.355 45.9728 155.258 45.9677C155.162 45.9628 155.346 45.8599 155.355 45.8479C155.386 45.8061 155.285 45.7978 155.304 45.7736C155.59 45.403 156.148 45.0135 155.438 45.7447C155.667 45.6743 155.856 45.3191 156.037 45.3067C156.257 45.2915 156.042 45.5473 156.039 45.5676C155.999 45.8087 156.267 45.3712 156.268 45.6322C156.268 45.7776 155.909 45.6697 156.091 45.8725C156.243 46.0435 156.307 45.8485 156.622 45.6466C156.696 45.5999 156.856 45.6404 156.726 45.5224C156.643 45.5746 156.533 45.641 156.454 45.684C156.488 45.6088 156.845 45.2697 156.846 45.2415C156.848 45.1054 156.646 45.2568 156.851 45.0315C156.612 45.2582 156.729 45.0834 156.657 45.1009C156.39 45.1648 156.393 45.3307 156.522 44.9517C156.416 45.0663 156.311 45.1761 156.204 45.2883C156.184 45.2692 156.163 45.2501 156.142 45.2302C156.391 44.9992 156.268 44.9027 156.622 44.814C156.603 44.6247 156.505 44.615 156.273 44.7412C156.229 44.7654 156.198 44.7577 156.178 44.7377C156.122 44.7856 155.942 44.9257 155.917 44.9386C155.696 45.052 156.001 44.7515 156.144 44.6723C156.138 44.6519 156.136 44.6339 156.136 44.6272C156.136 44.5841 156.294 44.5524 156.318 44.4998C156.325 44.4828 156.24 44.4214 156.287 44.3841C156.585 44.1472 156.465 44.4451 156.442 44.0436C156.159 44.245 156.313 44.3234 155.993 44.5117C155.65 44.7143 156.024 44.3275 155.624 44.6038C155.684 44.5503 155.736 44.5079 155.805 44.4486C155.556 44.4699 155.878 44.2254 155.925 44.1391C156.019 43.9732 155.772 43.6938 155.694 44.1697C155.637 44.1524 155.595 44.1232 155.541 44.1042C156.11 43.6544 155.899 43.8524 155.846 43.6025C155.834 43.5476 156.075 43.3384 155.746 43.5323C156.044 43.3094 155.774 43.3283 155.8 43.2891C155.974 43.0353 156.506 43.0525 156.012 43.4887C156.249 43.377 155.982 43.5837 156.056 43.6065C156.163 43.6396 156.223 43.6102 156.091 43.8487C156.437 43.7213 155.957 43.4191 156.524 43.3911C157.096 43.3551 158.416 44.7368 158.715 45.0639C159.267 45.6481 159.564 45.9478 159.933 46.5553C159.971 46.6166 160.281 47.0368 159.88 47.1649C159.822 47.1827 159.571 47.0776 159.406 47.4114C159.544 47.2768 159.708 47.3064 159.73 47.3039C160.227 47.2458 160.255 47.0846 160.441 47.3698ZM157.899 50.1409C157.75 49.7244 157.686 50.1376 157.118 50.3851C157.145 50.4326 157.173 50.4801 157.2 50.528C157.225 50.4954 157.25 50.463 157.276 50.4304C157.276 50.4304 157.276 50.4303 157.275 50.4303C157.483 50.3336 157.691 50.2372 157.899 50.1409ZM160.716 56.4138C160.635 56.4258 160.553 56.4381 160.473 56.4484C160.477 56.3872 160.481 56.3264 160.485 56.2654C160.539 56.2526 160.593 56.2395 160.647 56.2268C160.668 56.2899 160.688 56.3529 160.716 56.4138ZM155.111 45.3638C155.244 45.1663 154.926 45.4094 155.008 45.2143C154.779 45.4016 154.556 45.586 154.329 45.7716C154.412 45.8102 154.514 45.7586 154.506 45.8704C154.577 45.806 154.648 45.741 154.719 45.6763C154.694 45.6768 154.666 45.6783 154.644 45.6779C154.844 45.5017 154.958 45.59 155.112 45.3637C155.112 45.3637 155.111 45.3638 155.111 45.3638ZM154.52 44.7769C154.524 44.7191 154.534 44.4958 154.423 44.5531C154.048 44.7468 154.547 44.9604 154.041 44.9102C153.996 44.9473 153.95 44.9811 153.904 45.0165C153.927 45.0788 153.952 45.1395 153.978 45.2003C154.158 45.0574 154.339 44.9209 154.52 44.7769ZM157.042 48.8284C157.033 48.7545 156.698 48.5958 156.533 48.8252C156.485 48.8926 156.877 48.8057 156.892 48.8601C156.902 48.895 156.708 48.9736 156.809 48.9904C156.883 48.9388 156.967 48.8828 157.042 48.8285C157.042 48.8285 157.042 48.8284 157.042 48.8284ZM158.121 48.2873C158.052 48.2479 157.975 48.2134 157.904 48.1757C157.734 48.3456 157.916 48.3489 157.64 48.5323C157.609 48.5296 157.578 48.5271 157.546 48.5246C157.599 48.4732 157.652 48.422 157.705 48.3708C157.522 48.4175 157.466 48.4962 157.45 48.3749C157.066 48.7021 156.846 48.8559 157.375 48.7441C157.127 48.86 156.401 49.3643 156.99 49.1136C157.1 49.0673 157.121 48.9552 157.136 48.9443C157.325 48.8086 157.475 48.7678 157.652 48.6382C157.732 48.5796 157.704 48.5375 157.815 48.457C157.87 48.4178 158.058 48.3555 158.121 48.2873ZM157.205 49.0382C157.074 49.0956 156.833 49.3368 156.924 49.3547C157.067 49.3832 157.249 49.0792 157.205 49.0382ZM160.717 56.4141C160.717 56.414 160.716 56.4139 160.716 56.4138C160.717 56.4138 160.717 56.4137 160.717 56.4137C160.717 56.4138 160.717 56.414 160.717 56.4141ZM154.526 45.0532C154.4 45.0847 154.368 45.0145 154.221 45.1345C154.236 45.0922 154.25 45.0502 154.264 45.008C154.219 45.043 154.174 45.0782 154.129 45.1129C154.146 45.1927 154.163 45.2735 154.178 45.3539C154.294 45.2542 154.411 45.1546 154.526 45.0532ZM154.135 44.3335C154.092 44.2489 153.939 44.4708 153.828 44.5327C153.718 44.5947 153.747 44.4679 153.613 44.5873C153.641 44.6334 153.67 44.6815 153.699 44.7283C153.843 44.5959 153.992 44.4645 154.135 44.3333C154.135 44.3334 154.135 44.3334 154.135 44.3335ZM158.664 51.774C158.678 51.6901 158.859 51.6084 158.596 51.6212C158.596 51.6213 158.596 51.6213 158.596 51.6214C158.522 51.8099 158.481 52.0176 158.684 52.0495C158.819 51.8707 158.643 51.9066 158.664 51.774ZM154.772 45.8855C154.914 45.8148 154.946 45.6375 154.813 45.7018C154.598 45.8059 154.557 45.9929 154.772 45.8855ZM161.15 53.3205C161.626 53.1969 162.023 52.7796 161.719 52.7024C161.693 52.6963 161.618 52.8838 161.517 52.8922C161.507 52.8929 161.484 52.824 161.416 52.8394C161.349 52.855 161.219 52.9435 161.148 52.9487C161.024 52.958 161.158 52.7589 161.008 52.7971C160.988 52.8025 160.837 52.9621 160.832 52.9695C160.754 53.0908 161.027 53.0238 161.034 53.033C161.068 53.079 160.875 53.1699 160.837 53.2056C160.765 53.2726 160.871 53.2708 160.866 53.277C160.738 53.4372 160.698 53.2419 160.617 53.2549C160.401 53.2904 160.26 53.4358 160.08 53.3481C160.063 53.3394 159.988 53.1731 159.886 53.4886C159.237 53.3342 159.742 53.8162 159.869 53.8313C159.93 53.8379 160.088 53.7004 160.179 53.677C160.387 53.6236 160.456 53.6802 160.717 53.5418C161.265 53.2498 160.851 53.3324 160.909 53.2176C161.033 53.163 161.151 53.1055 161.275 53.0588C161.107 53.1195 161.115 53.3303 161.149 53.321C161.15 53.3208 161.15 53.3207 161.15 53.3205ZM159.955 52.6065C160.063 52.4203 159.73 52.6255 159.873 52.4283C159.527 52.5341 159.633 52.6662 159.625 52.6928C159.593 52.814 159.262 53.0043 159.408 53.0221C159.589 52.8823 159.774 52.7461 159.955 52.6065ZM160.252 53.4754C160.045 53.5068 160.104 53.6131 160.072 53.6348C159.74 53.8665 159.643 53.5129 160.252 53.4754ZM157.479 48.0516C157.47 48.0134 157.324 48.1363 157.259 48.1397C157.194 48.1433 157.27 47.9622 157.172 48.029C157.075 48.0962 156.927 48.4322 156.762 48.2995C156.71 48.3415 156.667 48.3666 156.618 48.4022C156.647 48.4494 156.675 48.4978 156.704 48.5455C156.848 48.4157 156.999 48.2798 157.138 48.1543C157.283 48.0976 157.129 48.2189 157.13 48.2203C157.13 48.2201 157.13 48.22 157.13 48.2199C157.175 48.2605 157.499 48.1374 157.479 48.0516ZM158.503 50.8068C158.913 50.5671 158.416 50.7719 158.347 50.7719C158.278 50.772 158.402 50.6377 158.238 50.7604C158.148 50.8846 158.457 50.8335 158.503 50.8065C158.503 50.8066 158.503 50.8067 158.503 50.8068ZM159.66 52.1115C159.515 52.0947 159.417 52.1709 159.481 52.0043C159.385 52.0676 159.287 52.1322 159.192 52.1946C159.235 52.2693 159.517 52.0919 159.454 52.2467C159.444 52.2722 159.197 52.3795 159.309 52.3987C159.42 52.3069 159.543 52.2068 159.66 52.1115ZM159.066 51.9542C159.134 52.0322 159.971 51.6178 159.514 51.6743C159.445 51.6827 159.014 51.8948 159.066 51.9542ZM158.014 48.8437C157.944 48.6826 157.923 48.9295 157.826 49.0442C157.514 48.7645 157.884 49.0615 157.504 49.3498C157.644 49.3194 157.956 49.2338 157.971 49.1018C157.977 49.0468 157.866 49.1357 157.865 49.1332C157.852 49.0474 158.053 48.9318 158.014 48.8437ZM160.066 52.7533C160.057 52.7512 159.923 52.8396 159.885 52.8378C159.847 52.836 159.921 52.7396 159.833 52.7848C159.745 52.8307 159.725 52.9487 159.802 52.9378C159.879 52.9262 160.149 52.7739 160.066 52.7533ZM160.069 51.9767C159.924 51.9611 159.491 52.3881 159.503 52.4022C159.614 52.5286 159.906 52.0694 160.069 51.9767ZM159.083 48.6555C158.714 48.6327 158.356 49.0439 158.162 49.3233C158.225 49.3046 158.289 49.2863 158.351 49.2679C157.981 49.4041 157.583 49.4868 158.035 49.575C158.021 49.3805 158.185 49.4481 158.204 49.4375C158.816 49.078 158.401 49.0354 159.083 48.6556C159.083 48.6556 159.083 48.6555 159.083 48.6555ZM160.055 53.0782C160.101 53.1541 160.318 53.3001 160.539 53.0579C160.377 53.0629 160.216 53.0699 160.055 53.0782ZM157.115 45.7366C157.216 45.5727 157.173 45.5163 157.11 45.4463C156.948 45.663 156.892 45.6344 156.824 45.6474C156.722 45.6668 156.787 45.7473 156.773 45.7575C156.572 45.896 156.503 45.8635 156.594 45.9837C156.503 46.0017 156.412 46.0208 156.321 46.0391C156.378 46.1388 156.262 46.2524 156.144 46.4231C156.494 46.0936 156.302 46.3396 156.546 46.2749C156.668 46.2427 157.063 45.8204 157.115 45.7364C157.115 45.7365 157.115 45.7365 157.115 45.7366ZM159.045 48.4164C158.961 48.4435 158.852 48.4883 158.758 48.5227C158.738 48.5081 158.719 48.493 158.698 48.4785C158.761 48.4356 158.827 48.3913 158.887 48.3495C158.889 48.312 158.806 48.3785 158.793 48.3761C158.793 48.3759 158.794 48.3757 158.794 48.3755C158.607 48.3421 158.591 48.287 158.733 48.0739C158.537 48.1987 158.341 48.3234 158.145 48.4482C158.176 48.4558 158.207 48.4639 158.238 48.4719C158.35 48.4153 158.462 48.3588 158.574 48.3024C158.53 48.3619 158.487 48.4218 158.443 48.4803C158.492 48.4739 158.545 48.4699 158.592 48.4619C158.099 48.8971 158.346 48.4619 158.116 48.6027C157.97 48.6963 158.103 48.8918 158.223 48.8578C158.24 48.8527 158.621 48.5507 158.455 48.7596C158.429 48.7926 157.547 49.3536 158.314 48.983C158.423 48.9306 158.947 48.5445 159.045 48.4164ZM158.854 47.4881C158.366 47.9655 158.686 47.1568 158.343 47.6402C158.05 47.754 158.06 47.7619 157.865 47.9632C157.848 47.9811 157.753 47.9903 157.746 47.9992C157.653 48.1315 157.756 48.1444 157.526 48.2934C157.547 48.2985 157.566 48.3037 157.586 48.3088C157.768 48.115 157.969 48.1074 158.174 48.0237C158.267 47.9858 158.27 47.934 158.351 47.9003C158.38 47.8881 158.359 47.9716 158.436 47.9249C158.611 47.8189 158.823 47.6386 158.916 47.5042C158.916 47.5041 158.916 47.504 158.916 47.5039C158.896 47.4978 158.874 47.4937 158.854 47.4881ZM159.932 50.2655C159.629 50.4787 159.587 50.6131 159.34 50.5566C159.283 50.6023 159.226 50.6479 159.169 50.6936C159.19 50.716 159.21 50.7367 159.231 50.7601C160.207 50.2673 159.248 51.0542 159.85 50.5574C159.915 50.5031 159.798 50.4925 160.029 50.4322C160.029 50.432 160.029 50.4318 160.029 50.4316C159.919 50.3857 159.8 50.4425 159.932 50.2655ZM159.368 49.8405C158.587 50.0539 159.161 50.3338 159.291 50.1496C159.302 50.1327 159.038 50.0216 159.368 49.8405ZM160.899 51.0384C160.857 50.9435 160.495 51.1567 160.371 51.2442C160.247 51.3319 160.415 51.3128 160.399 51.3329C160.348 51.3992 160.27 51.3726 160.198 51.4616C160.175 51.4904 160.139 51.7196 160.159 51.7171C160.268 51.7039 160.53 51.4678 160.571 51.4583C160.704 51.4276 160.579 51.5697 160.743 51.4851C161.093 51.3049 160.685 51.4261 160.67 51.414C160.625 51.3766 160.817 51.2665 160.834 51.2083C160.85 51.1503 160.771 51.1664 160.766 51.1278C160.764 51.1148 160.9 51.0436 160.899 51.0384ZM159.966 51.2129C160.293 51.1375 160.452 50.736 160.372 50.7483C160.137 50.7875 159.811 51.249 159.966 51.2129ZM158.189 48.3206C158.435 48.2792 158.47 47.9864 158.357 47.9822C158.283 48.044 158.104 48.3349 158.189 48.3206ZM159.114 48.707C159.005 48.6684 158.629 49.0454 158.675 49.1051C158.988 48.9621 158.909 48.9624 158.894 48.913C158.88 48.8637 159.199 48.7374 159.114 48.707ZM161.145 52.1976C161.14 52.1763 160.739 52.0459 160.727 52.2604C160.727 52.2766 160.878 52.4413 160.932 52.4306C161.041 52.4079 161.157 52.2493 161.145 52.1976ZM159.769 48.8062C159.493 48.9214 159.472 48.8801 159.201 49.0996C159.201 49.0997 159.201 49.0997 159.201 49.0998C159.048 49.0548 159.647 48.676 159.621 48.6621C159.528 48.6143 159.145 48.953 158.975 48.9932C159.176 49.0211 158.867 49.1693 158.901 49.2648C158.909 49.2861 159.129 49.255 159.243 49.1996C159.358 49.1441 159.656 48.9051 159.769 48.8062ZM161.428 52.5558C161.476 52.4057 161.01 52.5515 161.014 52.7166C161.015 52.7967 161.399 52.6467 161.428 52.5558ZM155.759 43.6284C155.67 43.7181 155.582 43.8077 155.494 43.8974C155.446 43.8852 155.398 43.8736 155.35 43.8622C155.4 43.8619 155.45 43.8621 155.5 43.8626C155.49 43.7784 155.649 43.6117 155.759 43.6283C155.759 43.6283 155.759 43.6284 155.759 43.6284ZM154.136 41.5415C154.203 41.4354 153.883 41.6398 153.867 41.6656C153.748 41.8575 154.043 41.688 154.136 41.5415ZM159.067 47.5869C159.045 47.456 158.579 47.8548 158.584 47.9398C158.657 47.8387 159.08 47.6612 159.067 47.5869ZM154.731 42.2608C154.699 42.3032 154.666 42.3455 154.634 42.3889C154.665 42.3123 154.697 42.2754 154.731 42.2608ZM161.586 51.8872C161.617 51.8474 161.579 51.7046 161.52 51.7174C161.395 51.7444 161.16 52.0072 161.281 52.0113C161.294 52.0117 161.555 51.9269 161.586 51.8869C161.586 51.887 161.586 51.8871 161.586 51.8872ZM155.841 43.3549C155.837 43.3587 155.833 43.362 155.828 43.3648C155.833 43.3616 155.837 43.3581 155.841 43.3549ZM152.658 39.0101C152.652 39.0176 152.646 39.0248 152.64 39.0315C152.646 39.0247 152.651 39.0174 152.658 39.0101ZM161.523 50.7685C161.994 50.4273 161.675 50.4969 161.474 50.7176C161.464 50.7292 161.518 50.7583 161.523 50.7685Z" fill="#F5F0E9" fill-opacity="0.7"/>
<path d="M59.9757 175.453C60.0189 175.474 60.0629 175.495 60.1074 175.516L59.9216 175.43C60.3932 175.605 60.8745 175.696 61.3542 175.901C61.4181 175.929 61.3774 176.092 61.3912 176.117C61.4298 176.189 61.5042 176.002 61.5397 176.025C61.7111 176.133 61.8853 176.195 62.0671 176.292C62.2565 176.391 62.0747 176.889 62.1258 177.026C62.2287 177.295 62.2163 176.604 62.2961 176.462C62.4462 176.527 62.5996 176.625 62.7516 176.721C62.7027 176.779 62.656 176.835 62.6059 176.887C62.6757 176.911 62.7631 177.03 62.6186 177.189C62.6382 177.241 62.6552 177.301 62.6764 177.353C62.7177 177.108 62.8504 177.106 62.8802 176.962C62.9109 176.817 62.8359 176.842 62.8376 176.829C62.8656 176.648 63.1278 176.934 63.1465 176.957C63.1964 177.018 63.1094 177.317 63.1605 177.303C63.2488 177.279 63.2673 176.652 63.2823 177.491C63.3585 177.228 63.346 177.367 63.4017 177.393C63.4091 177.396 63.4208 177.24 63.4246 177.236C63.525 177.131 63.4253 177.412 63.4239 177.428C63.4023 177.694 63.5094 177.587 63.526 177.614C63.743 177.959 63.9037 178.193 64.1673 178.292C64.223 178.313 64.4086 178.22 64.4623 178.271C64.5129 178.32 64.4672 178.51 64.4881 178.604C64.5739 178.146 64.6208 178.099 64.7015 178.412C64.7684 178.078 64.7414 178.35 64.8204 178.288C64.8864 178.237 65.0253 177.841 65.0683 178.191C64.9915 178.154 64.9869 178.32 64.8907 178.413C64.8594 178.444 64.5518 178.426 64.5457 178.772C64.5424 178.953 64.659 178.797 64.6604 178.83C64.668 179.025 64.5903 179.257 64.5463 179.17C64.5622 179.132 64.5808 179.094 64.5977 179.056C64.5037 178.805 64.504 179.738 64.4861 178.921C64.4839 178.821 64.4968 178.718 64.4885 178.611C64.4812 178.654 64.4932 178.764 64.4732 178.782C64.4528 178.8 64.4355 178.592 64.4149 178.764C64.3856 179.015 64.4713 178.923 64.476 178.938C64.4762 178.937 64.4764 178.935 64.4766 178.933C64.517 179.072 64.4075 179.078 64.4004 179.101C64.3531 179.255 64.3657 179.378 64.3027 179.503C64.2666 179.574 64.1957 179.524 64.1664 179.545C64.137 179.567 64.1686 179.69 64.148 179.714C64.1273 179.738 64.1127 179.645 64.0887 179.673C64.0784 179.685 64.0667 179.818 64.0618 179.822C64.0097 179.869 64.0663 179.596 64.0207 179.608C63.9911 179.617 63.8714 179.865 63.9301 179.948C63.8958 179.972 63.8631 179.988 63.8297 180.006C63.8457 180.048 63.8637 180.076 63.8787 180.125C63.8253 180.056 63.7769 180.28 63.7383 180.294C63.7002 180.307 63.6922 180.031 63.6378 180.16C63.5208 180.434 63.7541 180.325 63.7747 180.378C63.7832 180.399 63.7224 180.608 63.7156 180.614C63.6857 180.638 63.6676 180.482 63.6451 180.487C63.5651 180.504 63.4976 180.701 63.4205 180.734C63.154 180.846 62.8275 180.922 62.5791 180.936C62.486 180.941 62.46 180.708 62.4193 180.709C62.324 180.712 62.2845 180.906 62.1994 180.905C62.0739 180.905 61.9214 180.708 61.8237 180.655C61.7549 180.618 61.6603 180.798 61.6407 180.799C61.3664 180.826 61.0414 180.763 60.8162 180.72C60.712 180.701 60.703 180.479 60.6808 180.48C60.5827 180.487 60.5697 180.673 60.4962 180.638C60.4566 180.619 60.4872 180.445 60.4832 180.437C60.4476 180.369 60.3884 180.593 60.348 180.591C60.1182 180.584 59.9395 180.384 59.7271 180.303C59.7117 180.297 59.7403 180.198 59.7288 180.201C59.6785 180.213 59.6558 180.374 59.6056 180.372C59.5017 180.369 59.4085 180.314 59.3126 180.263C59.3029 180.258 59.3369 180.131 59.3137 180.123C59.2906 180.116 59.2357 180.23 59.2013 180.212C59.1109 180.164 59.0644 179.992 58.9674 179.95C58.9514 179.943 58.8793 180.086 58.8551 180.076C58.7777 180.044 58.7124 179.867 58.6489 179.838C58.4848 179.763 58.3097 179.75 58.147 179.708C58.119 179.686 58.0095 179.658 57.9835 179.633C57.9413 179.618 57.9003 179.602 57.8612 179.582C57.8192 179.56 57.8509 179.411 57.8311 179.396C57.786 179.364 57.7576 179.506 57.7078 179.48C57.301 179.267 56.9339 178.984 56.5343 178.753C56.378 178.662 56.1135 178.665 55.9871 178.536C55.9348 178.482 56.0284 178.314 55.9865 178.285C55.9113 178.233 55.7622 178.429 55.6671 178.395C55.5912 178.368 55.6553 178.115 55.5805 178.082C55.5057 178.049 55.3402 178.225 55.2471 178.195C55.1704 178.17 55.1456 178.021 55.0674 177.987C54.3533 177.677 53.69 177.282 53.2305 176.646C53.069 176.421 52.8219 176.25 52.7758 175.892C52.7717 175.858 52.9553 175.714 52.8622 175.695C52.8121 175.684 52.6324 175.789 52.5505 175.727C52.328 175.558 52.1712 175.307 52.0233 175.051L52.0779 175.102C51.8997 174.812 51.7281 174.513 51.4607 174.326C50.7626 173.831 48.7652 174.252 49.9833 171.79C50.0519 171.676 50.5678 171.414 50.7196 171.347C50.6327 171.43 50.528 171.525 50.4332 171.621C51.0544 171.252 50.8893 171.346 50.9012 171.474C50.9083 171.551 51.1252 171.325 51.2148 171.299C51.3315 171.268 51.7222 171.184 51.3316 171.46C51.4031 171.417 51.4711 171.375 51.5407 171.331C51.6837 171.39 51.8612 171.408 52.0519 171.412C52.0853 171.413 52.1955 171.311 52.2286 171.311C52.319 171.312 52.2819 171.416 52.3388 171.453C52.3693 171.473 52.497 171.356 52.5217 171.397C52.5456 171.437 52.3788 171.601 52.6047 171.468C52.7841 171.233 52.7619 171.512 52.8233 171.547C52.8315 171.552 53.0726 171.42 53.0812 171.47C53.0898 171.52 53.0193 171.687 53.1326 171.663C53.186 171.652 53.3422 171.518 53.3736 171.532C53.3958 171.542 53.2898 171.693 53.3063 171.719C53.3227 171.745 53.4718 171.68 53.4822 171.687C53.52 171.709 53.3975 171.77 53.4143 171.794C53.4958 171.912 53.5689 172.074 53.7306 172.107C53.7502 172.111 53.8358 171.984 53.8409 171.982C54.0515 171.924 53.8726 172.027 53.8037 172.147C53.7376 172.265 53.9514 172.364 54.1296 172.171C53.9123 172.418 54.1188 172.267 54.1349 172.268C54.1975 172.275 53.9983 172.478 54.0935 172.446C54.1283 172.435 54.2323 172.269 54.2427 172.286C54.268 172.328 54.0927 172.586 54.1185 172.652C54.1248 172.668 54.221 172.569 54.2381 172.591C54.2476 172.603 54.2432 172.671 54.2646 172.686C54.2732 172.69 54.2909 172.714 54.2994 172.719C54.3153 172.731 54.3487 172.709 54.4224 172.601C54.3081 172.815 54.4072 172.733 54.4592 172.792C54.4722 172.808 54.3368 172.985 54.4152 172.965C54.4417 172.958 54.5893 172.803 54.606 172.817C54.6446 172.847 54.5258 173.04 54.5654 173.089C54.6395 173.183 54.8366 173.154 54.8886 173.277C54.9026 173.31 54.7512 173.463 54.7843 173.499C54.7896 173.504 54.9581 173.406 54.9709 173.441C54.9785 173.462 54.9684 173.629 54.9774 173.651C54.9922 173.687 55.1353 173.536 55.1223 173.579C55.0852 173.703 54.8492 173.903 55.1767 173.633C55.039 173.821 55.0837 173.83 54.9042 174.053C55.1283 173.833 54.9516 174.078 55.0542 174.028C55.1568 173.979 55.5813 173.544 55.1616 174.044C55.2293 173.998 55.3835 173.952 55.401 173.954C55.452 173.961 55.317 174.083 55.3578 174.086C55.3649 174.086 55.4405 173.988 55.4607 174.022C55.4735 174.044 55.6042 174.164 55.6015 174.183C55.5704 174.409 55.4724 174.235 55.3659 174.32C55.385 174.29 55.4042 174.26 55.4228 174.23C55.4195 174.151 55.2625 174.384 55.2396 174.449C55.2167 174.515 55.332 174.449 55.2889 174.533C55.2672 174.574 55.0477 174.827 55.0495 174.775C55.0091 174.876 54.9038 174.93 54.8518 175.012C54.7948 175.103 54.8917 175.227 55.0099 175.085C54.9921 175.062 54.9608 175.044 54.9436 175.02C55.1212 174.751 55.9053 173.981 55.7038 174.381C55.5598 174.672 55.3066 174.79 55.6101 174.695C55.5973 174.668 55.5986 174.63 55.5883 174.605C55.7384 174.417 55.6017 174.647 55.6659 174.6C55.6969 174.577 55.7581 174.408 55.834 174.397C55.6519 174.691 55.8967 174.445 55.9569 174.488C55.9024 174.523 55.848 174.557 55.7933 174.592C55.7365 174.866 55.4526 174.743 55.5602 175.008C55.5297 174.998 55.5081 174.977 55.4738 174.971C55.4061 175.078 55.155 175.351 55.1163 175.42C55.0151 175.602 55.1339 175.539 55.1566 175.58C55.1668 175.598 55.0952 175.669 55.0961 175.67C55.1097 175.695 55.1965 175.577 55.2202 175.584C55.2499 175.593 55.2267 175.756 55.2476 175.752C55.3006 175.741 55.4337 175.478 55.4498 175.463C55.5536 175.367 55.5171 175.486 55.6282 175.34C55.4651 175.373 55.3261 175.054 55.7315 174.991C55.8559 174.712 56.1284 174.408 56.2304 174.447C56.3157 174.481 56.1702 174.574 56.0955 174.744C56.0862 174.765 56.1274 174.906 56.21 174.809C56.0269 175.037 55.8997 175.266 55.6939 175.489C55.6636 175.521 55.6344 175.477 55.4995 175.679C55.4317 175.781 55.2896 176.006 55.1913 176.126C55.2659 176.048 55.349 175.958 55.4263 175.876C55.5067 175.898 55.4446 175.997 55.3563 176.183C55.4056 176.115 55.5891 175.811 55.5708 175.932C55.5693 175.939 55.4945 176.041 55.4806 176.109C55.4531 176.247 55.4405 176.286 55.1776 176.554C55.4087 176.463 55.1819 176.811 55.3621 176.793C55.625 176.393 55.5181 176.461 55.3661 176.462C55.4302 176.368 55.496 176.277 55.5608 176.182C55.5331 176.483 55.4868 176.416 55.6966 176.284C55.748 176.252 55.8064 176.37 55.9656 176.088C56.0032 176.021 55.9402 175.986 56.0179 175.894C56.0328 175.877 56.1368 175.882 56.1246 175.911C55.9775 176.275 55.6801 176.388 55.9801 176.434C55.9885 176.435 56.072 176.323 56.0949 176.316C56.138 176.302 56.0442 176.434 56.0857 176.417C56.1273 176.401 56.2801 176.244 56.1937 176.428C56.0379 176.766 55.7851 176.844 55.8403 176.645C55.5354 177.015 55.9553 177.324 56.0054 177.307C56.2213 177.239 55.9714 177.193 56.0371 177.077C56.0648 177.028 56.4718 176.447 56.1615 176.792C56.0692 176.894 56.0258 177.083 55.9473 177.12C55.8686 177.156 56.0024 176.995 56.0082 176.981C56.028 176.934 55.946 176.971 55.9582 176.944C56.1431 176.524 56.5408 175.973 56.0614 176.863C56.2339 176.707 56.3445 176.342 56.485 176.253C56.6548 176.143 56.5164 176.441 56.5163 176.459C56.5142 176.667 56.6716 176.202 56.7027 176.406C56.721 176.52 56.4269 176.599 56.5949 176.676C56.7358 176.739 56.7593 176.556 56.9773 176.253C57.0284 176.182 57.1551 176.138 57.0425 176.108C56.9855 176.187 56.9087 176.29 56.8526 176.361C56.8695 176.286 57.1061 175.858 57.1043 175.836C57.093 175.73 56.9524 175.94 57.0879 175.672C56.9269 175.957 56.9993 175.768 56.9456 175.815C56.7467 175.985 56.7637 176.112 56.8277 175.759C56.7559 175.896 56.6846 176.029 56.6133 176.165C56.5953 176.158 56.5773 176.152 56.5593 176.146C56.7298 175.855 56.6282 175.836 56.8931 175.608C56.8649 175.471 56.789 175.506 56.6183 175.706C56.5857 175.744 56.5614 175.751 56.5436 175.745C56.5035 175.807 56.3747 175.994 56.3561 176.015C56.1916 176.199 56.406 175.831 56.5118 175.708C56.506 175.694 56.503 175.681 56.5024 175.676C56.4987 175.642 56.6204 175.549 56.6348 175.498C56.6395 175.481 56.5693 175.47 56.6033 175.421C56.8216 175.108 56.7423 175.391 56.7064 175.09C56.4967 175.367 56.6203 175.363 56.3828 175.646C56.127 175.949 56.3963 175.488 56.0986 175.872C56.1423 175.805 56.1802 175.75 56.231 175.675C56.0353 175.793 56.2755 175.468 56.308 175.38C56.3721 175.211 56.1706 175.092 56.1272 175.498C56.0816 175.507 56.0465 175.501 56.0034 175.507C56.4356 174.925 56.2756 175.166 56.2278 174.99C56.2172 174.951 56.4038 174.692 56.1478 174.973C56.3781 174.682 56.167 174.802 56.1877 174.761C56.325 174.496 56.7345 174.297 56.3563 174.835C56.5394 174.653 56.3339 174.921 56.3923 174.91C56.4766 174.892 56.5219 174.844 56.426 175.084C56.6892 174.842 56.3141 174.806 56.7506 174.551C57.1865 174.305 58.2198 174.712 58.4697 174.78C58.9199 174.917 59.1622 174.965 59.5011 175.182C59.5348 175.204 59.8125 175.318 59.5639 175.645C59.5285 175.692 59.3367 175.763 59.2843 176.098C59.3542 175.922 59.472 175.847 59.4862 175.832C59.813 175.497 59.7996 175.365 59.9757 175.453ZM59.0381 178.98C58.7697 178.781 58.8953 179.118 58.6144 179.668C58.6552 179.686 58.6949 179.702 58.7358 179.719C58.7382 179.679 58.7409 179.639 58.7435 179.599C58.7435 179.599 58.7434 179.599 58.7434 179.599C58.8426 179.393 58.9409 179.187 59.0381 178.98ZM63.9454 180.342C63.9261 180.422 63.9069 180.501 63.8868 180.579C63.8491 180.55 63.8118 180.522 63.7748 180.493C63.7848 180.439 63.7946 180.384 63.8045 180.33C63.8509 180.337 63.8974 180.344 63.9454 180.342ZM55.7542 176.692C55.8403 176.477 55.609 176.805 55.6559 176.613C55.4888 176.857 55.3266 177.097 55.1622 177.339C55.2358 177.339 55.3125 177.255 55.3221 177.351C55.3717 177.27 55.4214 177.188 55.4716 177.106C55.4511 177.116 55.4284 177.129 55.4095 177.137C55.5525 176.913 55.6567 176.939 55.7547 176.692C55.7545 176.692 55.7544 176.692 55.7542 176.692ZM55.2184 176.443C55.2174 176.394 55.2103 176.206 55.1226 176.293C54.8239 176.587 55.2582 176.588 54.8316 176.726C54.797 176.773 54.7612 176.818 54.726 176.864C54.7509 176.908 54.7774 176.951 54.8051 176.992C54.9422 176.808 55.0808 176.628 55.2184 176.443ZM57.9123 178.488C57.8865 178.437 57.593 178.497 57.5288 178.762C57.5109 178.841 57.7834 178.562 57.8089 178.594C57.8258 178.616 57.7015 178.783 57.7817 178.74C57.8235 178.66 57.8709 178.571 57.9119 178.488C57.9121 178.488 57.9122 178.488 57.9123 178.488ZM58.5648 177.477C58.5063 177.487 58.4425 177.505 58.3824 177.516C58.2988 177.738 58.4313 177.639 58.2762 177.931C58.2526 177.947 58.2292 177.962 58.2056 177.978C58.2316 177.91 58.2578 177.841 58.2841 177.773C58.1615 177.911 58.1399 178.001 58.098 177.918C57.8952 178.377 57.7755 178.618 58.1359 178.239C57.9834 178.465 57.5821 179.252 57.9503 178.734C58.0184 178.637 58.0043 178.54 58.0127 178.524C58.1158 178.316 58.2145 178.201 58.3108 178.004C58.3544 177.915 58.3234 177.899 58.3848 177.776C58.415 177.716 58.535 177.563 58.5648 177.477ZM58.0876 178.556C58.0073 178.673 57.8953 178.991 57.968 178.954C58.0804 178.894 58.1307 178.562 58.0876 178.556ZM63.9457 180.342C63.9456 180.342 63.9455 180.342 63.9454 180.342C63.9455 180.342 63.9455 180.342 63.9456 180.341C63.9456 180.341 63.9457 180.342 63.9457 180.342ZM55.2461 176.668C55.1454 176.742 55.1129 176.695 55.0015 176.849C55.0098 176.809 55.0177 176.769 55.0262 176.728C54.9918 176.774 54.9575 176.82 54.9234 176.865C54.9445 176.925 54.966 176.986 54.9874 177.047C55.0736 176.921 55.1606 176.795 55.2461 176.668ZM54.8723 176.212C54.8324 176.156 54.7157 176.394 54.6269 176.483C54.538 176.571 54.5542 176.455 54.4484 176.599C54.4751 176.629 54.5032 176.661 54.531 176.691C54.643 176.531 54.76 176.37 54.8722 176.212C54.8722 176.212 54.8722 176.212 54.8723 176.212ZM60.239 179.56C60.2064 179.494 60.2741 179.308 60.1258 179.508C60.1259 179.508 60.126 179.508 60.126 179.508C60.172 179.687 60.2514 179.855 60.3851 179.726C60.3746 179.51 60.2899 179.663 60.239 179.56ZM55.543 177.257C55.6492 177.141 55.6527 176.983 55.5522 177.089C55.3888 177.261 55.3811 177.433 55.543 177.257ZM62.2772 178.545C62.4097 178.078 62.3722 177.527 62.2121 177.738C62.198 177.757 62.2556 177.92 62.2174 178.01C62.2135 178.018 62.1707 178 62.1494 178.065C62.1281 178.129 62.1157 178.285 62.0874 178.346C62.0375 178.454 61.9994 178.234 61.9508 178.378C61.9442 178.397 61.9568 178.61 61.9586 178.618C61.985 178.75 62.0722 178.488 62.0795 178.488C62.1178 178.484 62.0798 178.694 62.0816 178.745C62.0852 178.841 62.1313 178.753 62.1324 178.76C62.1621 178.954 62.0382 178.881 62.0091 178.954C61.9293 179.152 61.9443 179.35 61.8097 179.447C61.7969 179.456 61.664 179.422 61.7958 179.685C61.38 180.122 61.9191 179.992 61.9903 179.891C62.0224 179.844 62.0155 179.638 62.044 179.549C62.1088 179.348 62.1715 179.319 62.2092 179.027C62.2881 178.411 62.1575 178.803 62.1202 178.692C62.1459 178.559 62.1678 178.43 62.1975 178.301C62.1562 178.474 62.267 178.58 62.277 178.546C62.2771 178.546 62.2772 178.545 62.2772 178.545ZM61.3522 179.11C61.3143 178.913 61.247 179.299 61.2212 179.065C61.0938 179.399 61.218 179.399 61.2275 179.421C61.2732 179.52 61.2022 179.896 61.2896 179.792C61.3076 179.565 61.3311 179.337 61.3522 179.11ZM61.962 179.378C61.8822 179.566 61.9711 179.576 61.9692 179.614C61.9473 180.018 61.6926 179.899 61.962 179.378ZM58.044 177.659C58.029 177.635 57.949 177.808 57.9021 177.845C57.8547 177.884 57.8701 177.705 57.8128 177.808C57.755 177.912 57.7251 178.249 57.5689 178.236C57.5399 178.296 57.5138 178.338 57.4859 178.391C57.5193 178.412 57.5522 178.434 57.5857 178.455C57.6613 178.278 57.7419 178.093 57.8161 177.922C57.9102 177.801 57.824 177.976 57.825 177.977C57.8251 177.977 57.8252 177.976 57.8253 177.976C57.8682 177.983 58.0777 177.712 58.044 177.659ZM59.7013 179.027C59.8478 178.575 59.6332 179.064 59.5901 179.113C59.5476 179.161 59.567 178.982 59.5179 179.181C59.5157 179.329 59.686 179.078 59.7014 179.027C59.7014 179.027 59.7013 179.027 59.7013 179.027ZM60.955 179.032C60.8706 179.133 60.8532 179.255 60.8073 179.101C60.7856 179.214 60.7635 179.329 60.7424 179.44C60.8037 179.456 60.8695 179.129 60.9108 179.275C60.9177 179.299 60.8382 179.555 60.9081 179.482C60.9217 179.339 60.9388 179.182 60.955 179.032ZM60.5547 179.38C60.6326 179.38 60.8926 178.486 60.6704 178.865C60.6376 178.922 60.4972 179.381 60.5547 179.38ZM58.6231 177.949C58.5304 177.87 58.5794 178.065 58.5411 178.207C58.2394 178.176 58.5862 178.186 58.3924 178.621C58.4864 178.517 58.6857 178.272 58.6605 178.166C58.6501 178.121 58.5943 178.252 58.593 178.251C58.5604 178.194 58.6738 177.992 58.6231 177.949ZM61.4837 179.111C61.478 179.117 61.4567 179.276 61.4367 179.305C61.4165 179.334 61.4033 179.218 61.3824 179.314C61.3611 179.411 61.4148 179.499 61.4471 179.431C61.48 179.363 61.5347 179.057 61.4837 179.111ZM61.1045 178.635C61.0219 178.736 60.9995 179.335 61.0146 179.336C61.136 179.329 61.0621 178.818 61.1045 178.635ZM59.2804 177.155C59.0421 177.382 58.9299 177.9 58.9006 178.226C58.9357 178.171 58.9708 178.117 59.0051 178.063C58.8113 178.401 58.5743 178.717 58.9053 178.487C58.8269 178.358 58.9589 178.299 58.9673 178.279C59.2393 177.624 58.9614 177.867 59.2805 177.155C59.2805 177.155 59.2804 177.155 59.2804 177.155ZM61.6495 179.312C61.7118 179.32 61.8963 179.226 61.8692 178.908C61.7963 179.043 61.7232 179.177 61.6495 179.312ZM57.3649 176.088C57.4213 175.913 57.3827 175.891 57.3263 175.868C57.2286 176.112 57.1828 176.116 57.1323 176.159C57.0563 176.222 57.1172 176.253 57.1078 176.268C56.9715 176.47 56.9136 176.478 57.0006 176.528C56.9329 176.586 56.8649 176.643 56.7971 176.7C56.8555 176.752 56.7824 176.895 56.717 177.085C56.9384 176.661 56.8276 176.945 57.0049 176.778C57.093 176.694 57.3354 176.176 57.3648 176.087C57.3648 176.087 57.3649 176.088 57.3649 176.088ZM59.2446 177.033C59.1925 177.103 59.1274 177.199 59.0698 177.28C59.0522 177.281 59.035 177.281 59.0174 177.283C59.051 177.215 59.0866 177.144 59.1186 177.078C59.1116 177.05 59.0691 177.147 59.0593 177.153C59.0595 177.152 59.0597 177.152 59.0599 177.152C58.9207 177.236 58.8961 177.205 58.9497 176.968C58.8395 177.172 58.7294 177.377 58.6192 177.581C58.6431 177.569 58.6668 177.557 58.6904 177.545C58.7564 177.439 58.8224 177.333 58.8883 177.227C58.871 177.295 58.8541 177.364 58.8372 177.433C58.8706 177.4 58.9074 177.366 58.9384 177.333C58.6967 177.939 58.7626 177.475 58.6345 177.712C58.5519 177.865 58.6996 177.934 58.7756 177.839C58.7866 177.825 58.9801 177.381 58.9152 177.631C58.9046 177.67 58.4258 178.6 58.8727 177.878C58.9358 177.775 59.2061 177.183 59.2446 177.033ZM58.9138 176.472C58.6641 177.099 58.7296 176.325 58.5808 176.873C58.3953 177.121 58.403 177.121 58.3053 177.379C58.2965 177.402 58.2302 177.461 58.227 177.472C58.1872 177.622 58.2673 177.576 58.1343 177.815C58.1507 177.807 58.1658 177.801 58.1821 177.793C58.269 177.546 58.4144 177.429 58.5426 177.251C58.6007 177.171 58.5913 177.131 58.6419 177.06C58.6603 177.035 58.6635 177.108 58.7084 177.03C58.8097 176.852 58.9218 176.599 58.9604 176.449C58.9605 176.448 58.9606 176.448 58.9607 176.448C58.9455 176.455 58.9292 176.465 58.9138 176.472ZM60.3132 177.643C60.2248 178.002 60.2565 178.122 60.0922 178.263C60.0775 178.334 60.0633 178.405 60.0488 178.477C60.0702 178.476 60.091 178.476 60.1127 178.476C60.4675 177.444 60.242 178.657 60.3798 177.893C60.3947 177.81 60.3263 177.889 60.4299 177.681C60.4299 177.681 60.4299 177.681 60.4299 177.68C60.3522 177.731 60.3068 177.855 60.3132 177.643ZM59.835 177.766C59.4463 178.457 59.9012 178.244 59.904 178.027C59.9053 178.008 59.7056 178.119 59.835 177.766ZM61.1206 177.415C61.0635 177.389 60.9643 177.797 60.9375 177.946C60.9107 178.095 60.9888 177.956 60.9891 177.98C60.9905 178.061 60.9396 178.103 60.9404 178.214C60.9402 178.25 61.0233 178.421 61.033 178.405C61.0829 178.313 61.1131 177.965 61.1298 177.928C61.1833 177.806 61.1812 177.99 61.2268 177.811C61.3235 177.43 61.1735 177.82 61.1607 177.824C61.1224 177.835 61.1721 177.619 61.1565 177.571C61.141 177.522 61.1085 177.593 61.0901 177.572C61.084 177.566 61.1234 177.417 61.1206 177.415ZM60.7115 178.231C60.8525 177.938 60.7712 177.563 60.7367 177.63C60.6267 177.831 60.641 178.37 60.7115 178.231ZM58.6204 177.463C58.7858 177.29 58.7454 177.056 58.6642 177.117C58.6245 177.205 58.563 177.522 58.6204 177.463ZM59.3144 177.17C59.235 177.215 59.1098 177.725 59.1594 177.736C59.3118 177.429 59.2619 177.482 59.2381 177.457C59.2145 177.433 59.3759 177.135 59.3144 177.17ZM61.7305 177.923C61.7213 177.917 61.4699 178.157 61.5639 178.293C61.572 178.304 61.7198 178.28 61.7397 178.23C61.7792 178.129 61.7588 177.944 61.7305 177.923ZM59.7413 176.796C59.6112 177.062 59.5846 177.048 59.4873 177.381C59.4873 177.381 59.4874 177.381 59.4874 177.381C59.3778 177.453 59.6312 176.791 59.6115 176.8C59.5414 176.829 59.4063 177.318 59.3124 177.459C59.4476 177.345 59.3014 177.653 59.3551 177.697C59.3675 177.706 59.4934 177.537 59.545 177.421C59.5966 177.305 59.7024 176.939 59.7413 176.796ZM62.0209 177.898C61.9729 177.776 61.8326 178.237 61.9139 178.328C61.9542 178.372 62.0509 177.973 62.0209 177.898ZM56.1605 175.044C56.0924 175.15 56.0249 175.256 55.9583 175.361C55.9198 175.37 55.8809 175.379 55.842 175.388C55.882 175.369 55.9217 175.35 55.9614 175.331C55.9503 175.268 56.0728 175.074 56.1604 175.044C56.1605 175.044 56.1605 175.044 56.1605 175.044ZM54.9449 173.917C55.0095 173.813 54.7306 174.065 54.715 174.09C54.6004 174.279 54.8558 174.061 54.9449 173.917ZM59.0829 176.421C59.042 176.339 58.794 176.897 58.8164 176.956C58.8468 176.841 59.1064 176.468 59.0829 176.421ZM55.3659 174.32C55.3375 174.364 55.3092 174.409 55.2815 174.454C55.3095 174.382 55.3378 174.342 55.3659 174.32ZM61.7944 177.39C61.7919 177.342 61.7141 177.288 61.6927 177.343C61.6468 177.458 61.6516 177.8 61.7103 177.706C61.7171 177.696 61.7973 177.437 61.7942 177.39C61.7942 177.39 61.7943 177.39 61.7944 177.39ZM56.2202 174.796C56.2168 174.801 56.2133 174.805 56.21 174.809C56.2134 174.805 56.2168 174.801 56.2202 174.796ZM54.1479 172.15C54.1418 172.157 54.1357 172.164 54.1296 172.171C54.1354 172.164 54.1414 172.157 54.1479 172.15ZM61.3203 176.77C61.4183 176.198 61.2941 176.486 61.2782 176.776C61.2776 176.791 61.3142 176.767 61.3203 176.77Z" fill="#F5F0E9" fill-opacity="0.7"/>
</svg>
