<svg width="39" height="39" viewBox="0 0 39 39" fill="none" xmlns="http://www.w3.org/2000/svg">
<path d="M3.99029 13.023C4.06247 12.8617 4.12833 12.6769 4.2445 12.5567C4.25869 12.5419 4.31605 12.5769 4.32646 12.5766C4.35518 12.5759 4.29117 12.5283 4.30158 12.522C4.35211 12.4909 4.38569 12.4564 4.43062 12.4298C4.47653 12.4028 4.64605 12.5266 4.69828 12.5378C4.80019 12.5604 4.55096 12.4477 4.50384 12.407C4.51852 12.3969 4.53537 12.3887 4.55314 12.3819C4.57315 12.3741 4.59463 12.3675 4.61619 12.3607C4.63505 12.3793 4.65338 12.3977 4.67029 12.4159C4.68172 12.4067 4.72835 12.4086 4.77972 12.4633C4.79943 12.4681 4.82206 12.4744 4.84152 12.4785C4.75485 12.4304 4.75933 12.4048 4.70808 12.3759C4.65692 12.3469 4.66283 12.3648 4.65829 12.3623C4.59398 12.3276 4.70704 12.3264 4.71614 12.3261C4.74012 12.3266 4.84638 12.389 4.84331 12.3773C4.83821 12.3569 4.60786 12.2589 4.91698 12.383C4.82301 12.3291 4.87399 12.3525 4.88529 12.346C4.88672 12.3451 4.82953 12.3198 4.8283 12.3186C4.7927 12.2849 4.89334 12.3444 4.89904 12.3471C4.99687 12.3905 4.96112 12.3542 4.97197 12.3551C5.10797 12.364 5.20307 12.3607 5.25062 12.3189C5.2609 12.3097 5.23275 12.2601 5.25379 12.2551C5.27463 12.25 5.34525 12.2816 5.38227 12.2879C5.21062 12.2168 5.19405 12.2023 5.31702 12.2203C5.19165 12.1687 5.29461 12.2049 5.27418 12.1809C5.25727 12.1608 5.11079 12.0871 5.24686 12.1163C5.22939 12.1289 5.29303 12.1481 5.3249 12.1793C5.33545 12.1899 5.31675 12.2537 5.44891 12.2944C5.51791 12.3155 5.46271 12.2723 5.47553 12.2759C5.55052 12.2959 5.63647 12.3389 5.60112 12.339C5.58728 12.3312 5.57341 12.3228 5.55961 12.3148C5.45979 12.3073 5.81683 12.4127 5.50346 12.3244C5.46505 12.3135 5.42612 12.2989 5.38488 12.2885C5.40114 12.2951 5.44369 12.305 5.44968 12.3114C5.45568 12.318 5.37531 12.298 5.44042 12.3223C5.53506 12.3578 5.50341 12.3278 5.50939 12.3285C5.50882 12.3283 5.50825 12.3281 5.50768 12.3279C5.56221 12.3345 5.55985 12.3598 5.56843 12.3642C5.62519 12.3925 5.6727 12.4036 5.71762 12.4324C5.7432 12.4489 5.72069 12.4598 5.7274 12.4692C5.73433 12.4788 5.78274 12.4856 5.79083 12.4934C5.7989 12.5011 5.76289 12.4938 5.77221 12.5029C5.77633 12.5068 5.82631 12.5254 5.82767 12.5271C5.84266 12.5455 5.7416 12.4992 5.74419 12.5115C5.74608 12.5192 5.83392 12.5787 5.8686 12.5744C5.87575 12.5857 5.88021 12.5959 5.88505 12.6065C5.90168 12.6076 5.91366 12.6065 5.93286 12.6086C5.90365 12.6137 5.98599 12.6535 5.98857 12.6654C5.99111 12.6773 5.88638 12.6442 5.93176 12.6743C6.02802 12.7391 6.00143 12.6654 6.02279 12.6662C6.03127 12.6665 6.10699 12.7082 6.10859 12.7108C6.11568 12.722 6.05548 12.7073 6.05585 12.7137C6.05755 12.7367 6.12734 12.7797 6.13427 12.8052C6.15814 12.8914 6.1613 12.991 6.14736 13.058C6.14214 13.083 6.05446 13.0544 6.05189 13.065C6.04583 13.0898 6.11451 13.1296 6.10795 13.1509C6.10019 13.1765 6.04713 13.1856 6.01245 13.1958C6.00336 13.1984 5.99556 13.2011 5.99022 13.2042C5.97255 13.2147 6.03176 13.2657 6.0311 13.2707C6.02413 13.3384 5.98838 13.3957 5.96734 13.4335C5.9574 13.4514 5.87819 13.416 5.87828 13.4209C5.87859 13.4416 5.94463 13.4748 5.93112 13.4832C5.92388 13.4878 5.86196 13.4534 5.85906 13.4529C5.83435 13.449 5.91339 13.497 5.91259 13.5044C5.90789 13.5474 5.83706 13.5493 5.81098 13.5777C5.80903 13.5797 5.77344 13.5595 5.77442 13.562C5.77951 13.5735 5.83749 13.6019 5.83779 13.611C5.83861 13.6301 5.82143 13.6392 5.80608 13.6502C5.80458 13.6513 5.75803 13.6267 5.75617 13.63C5.75432 13.6334 5.79676 13.6598 5.79145 13.6638C5.77756 13.6742 5.71778 13.6594 5.70701 13.6727C5.70531 13.6749 5.75978 13.7075 5.75728 13.7108C5.74947 13.7211 5.68973 13.7111 5.68278 13.72C5.66035 13.7492 5.67765 13.7952 5.66354 13.8252C5.66006 13.8323 5.60414 13.813 5.60108 13.8161C5.59433 13.8232 5.6474 13.8409 5.64357 13.8495C5.61198 13.9187 5.55795 13.9779 5.53265 14.051C5.52331 14.0777 5.55698 14.1269 5.54184 14.1509C5.54066 14.1528 5.53918 14.1545 5.53735 14.1561C5.5267 14.1649 5.45416 14.1397 5.45037 14.1478C5.44388 14.1624 5.53509 14.1994 5.5386 14.2182C5.54129 14.2331 5.44379 14.2137 5.44471 14.229C5.44563 14.2443 5.53329 14.2826 5.5388 14.3013C5.54325 14.3167 5.49622 14.3201 5.49812 14.3361C5.51559 14.4833 5.5133 14.6228 5.40161 14.7391C5.36215 14.7802 5.35987 14.8382 5.25524 14.8642C5.24534 14.8667 5.15866 14.8345 5.17296 14.8553C5.18073 14.8665 5.25403 14.8993 5.25254 14.9196C5.24352 15.0401 5.04637 15.1212 5.04773 15.2503C5.05 15.4438 5.63918 15.791 4.66817 15.7188C4.62049 15.7152 4.39754 15.6549 4.33507 15.6343C4.38165 15.6413 4.43668 15.6508 4.4892 15.659C4.21073 15.5833 4.28336 15.6025 4.31382 15.5875C4.3327 15.5782 4.21037 15.5588 4.17815 15.5433C4.13651 15.5232 4.00893 15.4459 4.19224 15.5005C4.16076 15.4899 4.13059 15.4797 4.09978 15.4693C4.07945 15.4313 4.04056 15.3897 3.99499 15.3461C3.98701 15.3385 3.92892 15.3237 3.92101 15.3159C3.89932 15.295 3.94042 15.2931 3.93831 15.2767C3.93719 15.2677 3.87029 15.2497 3.87727 15.2401C3.88429 15.2305 3.97491 15.2536 3.88002 15.2142C3.76384 15.195 3.85709 15.1735 3.8539 15.1567C3.85354 15.1543 3.75589 15.1105 3.77007 15.1039C3.78404 15.0972 3.853 15.0993 3.81972 15.075C3.80408 15.0637 3.7256 15.0392 3.723 15.0305C3.72118 15.0244 3.79351 15.0361 3.79817 15.0302C3.80281 15.0242 3.74848 14.9949 3.74821 14.992C3.74682 14.9815 3.79381 15.0048 3.79799 14.9989C3.8174 14.9701 3.85347 14.9404 3.82817 14.9004C3.82511 14.8956 3.76522 14.8857 3.7634 14.8847C3.69839 14.8399 3.77101 14.8737 3.82522 14.8802C3.87762 14.8866 3.86304 14.8295 3.7615 14.8025C3.88919 14.8343 3.79488 14.7977 3.79192 14.7938C3.78046 14.7788 3.88998 14.81 3.85879 14.7901C3.84745 14.7828 3.77098 14.771 3.7743 14.7673C3.78252 14.758 3.90457 14.78 3.92026 14.7692C3.9241 14.7665 3.87117 14.7513 3.87459 14.7457C3.87804 14.7401 3.94992 14.7319 3.83457 14.7138C3.92863 14.7223 3.88008 14.7061 3.88739 14.6887C3.88938 14.6843 3.97666 14.7015 3.95269 14.6847C3.94456 14.679 3.86193 14.6568 3.86259 14.6517C3.86387 14.6399 3.95221 14.6524 3.95949 14.6389C3.97329 14.6139 3.92106 14.569 3.95018 14.5468C3.95815 14.5408 4.04052 14.5656 4.04516 14.5551C4.0456 14.5535 3.97765 14.5202 3.98653 14.5144C3.99186 14.5109 4.04886 14.5012 4.05425 14.4976C4.06294 14.4915 3.98329 14.4675 4.00018 14.4676C4.04888 14.4676 4.16383 14.5111 4.00695 14.4503C4.0977 14.4707 4.09126 14.4593 4.20201 14.4878C4.08298 14.4484 4.2006 14.4748 4.1631 14.4533C4.12556 14.4319 3.89475 14.3566 4.14634 14.4263C4.11718 14.4129 4.07089 14.378 4.06806 14.3735C4.06018 14.3605 4.128 14.3859 4.1208 14.3758C4.11962 14.374 4.0718 14.3616 4.07894 14.3545C4.08369 14.3498 4.09848 14.3102 4.10573 14.3096C4.18806 14.3038 4.1482 14.3386 4.19779 14.3595C4.18401 14.3566 4.1702 14.3537 4.15656 14.3509C4.13062 14.3565 4.23971 14.3809 4.26615 14.3828C4.29259 14.3846 4.24791 14.3604 4.2844 14.3662C4.3027 14.3691 4.43055 14.4084 4.41306 14.4106C4.45472 14.415 4.49352 14.4372 4.5315 14.4453C4.57314 14.4541 4.59517 14.4258 4.52461 14.4046C4.52036 14.4098 4.52057 14.4181 4.51585 14.4233C4.3906 14.3952 3.97867 14.2457 4.15302 14.2727C4.27912 14.2924 4.36717 14.3487 4.27731 14.2791C4.27059 14.2836 4.2576 14.2852 4.25082 14.2891C4.15867 14.262 4.26247 14.2836 4.2346 14.2702C4.22096 14.2636 4.15173 14.2576 4.13365 14.2392C4.2682 14.2688 4.13829 14.2211 4.14199 14.2034C4.16395 14.2154 4.18582 14.2272 4.20782 14.239C4.31177 14.2397 4.32315 14.315 4.39326 14.2763C4.39546 14.2842 4.39233 14.2904 4.39679 14.299C4.44598 14.3105 4.58598 14.3586 4.61674 14.3649C4.69747 14.3815 4.65349 14.3561 4.66315 14.3492C4.66726 14.3462 4.70469 14.3604 4.70502 14.3601C4.71089 14.356 4.65457 14.34 4.65246 14.3342C4.64984 14.3268 4.7095 14.3266 4.70417 14.322C4.6906 14.3098 4.57653 14.2875 4.5685 14.2842C4.51649 14.263 4.56379 14.2673 4.49375 14.2459C4.5347 14.2837 4.45248 14.3312 4.35532 14.2352C4.23715 14.217 4.0827 14.1644 4.07812 14.1358C4.07422 14.1122 4.13252 14.1448 4.20441 14.1556C4.21342 14.1569 4.25468 14.1402 4.20668 14.1236C4.31792 14.1598 4.41941 14.1825 4.53269 14.2246C4.54933 14.2308 4.53929 14.2394 4.63303 14.2648C4.68012 14.2776 4.78295 14.3043 4.84186 14.3239C4.80138 14.3087 4.75581 14.2919 4.71358 14.2761C4.70656 14.2566 4.75162 14.2683 4.831 14.2843C4.79889 14.2744 4.66187 14.2394 4.70664 14.2404C4.70928 14.2405 4.7577 14.2555 4.78359 14.2571C4.83551 14.2602 4.85118 14.2627 4.98982 14.3176C4.91708 14.2666 5.07659 14.3124 5.03875 14.2723C4.85548 14.2173 4.8974 14.2413 4.92479 14.2762C4.8812 14.2632 4.83821 14.2498 4.79415 14.2367C4.90256 14.2368 4.88737 14.2495 4.80553 14.2027C4.78546 14.1912 4.81624 14.1753 4.69142 14.1426C4.66203 14.1349 4.66045 14.1508 4.61565 14.1342C4.6071 14.131 4.59117 14.1055 4.60342 14.1078C4.7546 14.1361 4.84348 14.2049 4.80894 14.1335C4.8079 14.1315 4.75534 14.1131 4.74901 14.1077C4.73719 14.0975 4.79828 14.1182 4.78585 14.1085C4.77338 14.0989 4.69368 14.0638 4.77204 14.0826C4.91463 14.1171 4.98345 14.1751 4.90544 14.1641C5.08434 14.2302 5.12128 14.1365 5.10815 14.1253C5.05041 14.0755 5.07369 14.1323 5.02304 14.1169C5.00162 14.1103 4.73405 14.0154 4.90383 14.0879C4.95419 14.1092 5.02684 14.1195 5.05238 14.1376C5.07794 14.1556 5.00019 14.1248 4.99448 14.1234C4.97489 14.1189 5.0011 14.1378 4.98951 14.135C4.8135 14.0936 4.55728 14.0028 4.94469 14.1112C4.86264 14.0709 4.71775 14.047 4.66415 14.0137C4.59913 13.9729 4.72533 14.0043 4.7315 14.0044C4.80498 14.0038 4.61716 13.9678 4.68453 13.9588C4.72195 13.9541 4.79423 14.0254 4.79577 13.9846C4.79694 13.9507 4.72925 13.9444 4.58956 13.8909C4.5569 13.8784 4.52304 13.846 4.52876 13.8752C4.56511 13.8892 4.61289 13.9081 4.64612 13.9218C4.61735 13.9177 4.43047 13.8612 4.42289 13.8621C4.38679 13.8667 4.48238 13.8999 4.36684 13.8691C4.49199 13.9063 4.41421 13.8905 4.43876 13.9037C4.52923 13.9522 4.57163 13.9453 4.43707 13.9349C4.49628 13.9508 4.55423 13.9668 4.6131 13.983C4.61373 13.9875 4.6144 13.9921 4.61504 13.9966C4.48597 13.9579 4.49486 13.9848 4.3735 13.9211C4.32911 13.9316 4.35365 13.9506 4.45102 13.9895C4.46961 13.9969 4.47601 14.0029 4.47646 14.0075C4.50459 14.0162 4.59103 14.0447 4.60138 14.0489C4.69239 14.086 4.52894 14.0401 4.46866 14.0164C4.46477 14.0182 4.46059 14.0193 4.45883 14.0195C4.44763 14.0213 4.3955 13.9928 4.37514 13.9904C4.36851 13.9896 4.37581 14.0078 4.35317 14.0005C4.20803 13.9537 4.32028 13.9649 4.22031 13.9844C4.35166 14.0293 4.32999 13.9979 4.46794 14.0503C4.61621 14.1063 4.41062 14.0512 4.59418 14.1151C4.56353 14.106 4.5381 14.0981 4.50329 14.0875C4.57759 14.1325 4.42379 14.0821 4.38794 14.0767C4.31792 14.0663 4.31121 14.121 4.45952 14.1182C4.47064 14.1293 4.47458 14.1381 4.48422 14.1485C4.20761 14.0609 4.31883 14.0921 4.26616 14.1113C4.25453 14.1155 4.13212 14.0793 4.27435 14.1323C4.13293 14.0863 4.21179 14.1349 4.19397 14.1314C4.07788 14.1094 3.93751 14.0114 4.18996 14.0851C4.09507 14.0458 4.22392 14.087 4.20972 14.0726C4.18924 14.0517 4.16476 14.0418 4.26476 14.0572C4.13591 13.9983 4.18655 14.0978 4.0237 13.9948C3.86232 13.8952 3.85804 13.5898 3.86123 13.502C3.86125 13.5003 3.86127 13.4987 3.86128 13.4971C3.86239 13.3551 3.86001 13.276 3.91699 13.1694C3.9224 13.1587 3.948 13.0715 4.08734 13.1575C4.10726 13.1699 4.14773 13.2295 4.27674 13.2548C4.20574 13.2287 4.16931 13.1911 4.16282 13.1863C4.01531 13.077 3.96664 13.0763 3.99029 13.023ZM5.35463 13.5369C5.29464 13.5723 5.4111 13.5835 5.62397 13.7062C5.62777 13.7004 5.63167 13.6943 5.63554 13.6883C5.62101 13.6829 5.60653 13.6775 5.59199 13.6721C5.59198 13.6721 5.59198 13.6721 5.59198 13.6721C5.51277 13.6272 5.43365 13.5821 5.35463 13.5369ZM6.01939 12.6179C6.04852 12.6322 6.07767 12.6466 6.10597 12.6611C6.09277 12.6676 6.07974 12.6739 6.06648 12.6802C6.04654 12.671 6.02634 12.6617 6.00638 12.6526C6.01181 12.6413 6.01718 12.6302 6.01939 12.6179ZM4.93633 14.1836C4.84756 14.1658 4.99979 14.2159 4.92571 14.2071C5.03848 14.2428 5.14885 14.2776 5.26048 14.313C5.24741 14.297 5.20561 14.2802 5.23685 14.2781C5.20039 14.2672 5.16371 14.2563 5.12704 14.2453C5.13411 14.2499 5.14221 14.2549 5.14843 14.2591C5.04661 14.2281 5.03795 14.2042 4.93611 14.1835C4.93618 14.1835 4.93626 14.1836 4.93633 14.1836ZM4.94469 14.3103C4.92816 14.3114 4.86546 14.3175 4.91115 14.3355C5.06607 14.3965 4.98644 14.2992 5.11182 14.3921C5.1341 14.3989 5.15579 14.4061 5.17778 14.4131C5.18831 14.4069 5.19776 14.4004 5.20675 14.3938C5.1191 14.3662 5.03281 14.3381 4.94469 14.3103ZM5.2705 13.7311C5.25503 13.7339 5.30844 13.8051 5.41 13.8359C5.43962 13.8452 5.3105 13.7657 5.3195 13.7618C5.32527 13.7594 5.39797 13.7987 5.37426 13.7778C5.3411 13.7628 5.30442 13.746 5.27071 13.7312C5.27064 13.7312 5.27057 13.7311 5.2705 13.7311ZM4.84293 13.512C4.85187 13.5275 4.86433 13.5449 4.87429 13.5606C4.96271 13.5934 4.91409 13.5547 5.03431 13.6099C5.04225 13.6166 5.05015 13.6233 5.0581 13.6299C5.031 13.6196 5.00388 13.6093 4.97678 13.599C5.03841 13.6369 5.07301 13.6471 5.04759 13.6527C5.23339 13.7272 5.33087 13.772 5.15872 13.6626C5.25495 13.7129 5.57689 13.8588 5.35414 13.739C5.31285 13.7166 5.27981 13.7132 5.27299 13.7101C5.18822 13.6723 5.1373 13.6414 5.05715 13.6058C5.02089 13.5897 5.01838 13.5964 4.96805 13.5741C4.9435 13.5632 4.87709 13.5243 4.84293 13.512ZM5.27703 13.695C5.32665 13.7216 5.45131 13.7701 5.43044 13.751C5.39819 13.7211 5.27476 13.6851 5.27703 13.695ZM6.01931 12.6177C6.01934 12.6178 6.01937 12.6178 6.01939 12.6179C6.01928 12.6178 6.01917 12.6177 6.01906 12.6177C6.01914 12.6177 6.01923 12.6177 6.01931 12.6177ZM5.01636 14.3002C5.05956 14.3219 5.04968 14.3298 5.12223 14.3524C5.10696 14.3511 5.0919 14.3499 5.07662 14.3487C5.09838 14.3556 5.1202 14.3626 5.14173 14.3695C5.15846 14.364 5.17522 14.3586 5.19218 14.3532C5.13367 14.3355 5.07496 14.3176 5.01636 14.3002ZM4.93049 14.3945C4.91917 14.4051 5.02125 14.425 5.06806 14.4426C5.11488 14.4602 5.0726 14.4594 5.14144 14.4792C5.14641 14.4726 5.15146 14.4659 5.15625 14.4591C5.08124 14.4379 5.00503 14.4157 4.93049 14.3946C4.93049 14.3946 4.93049 14.3945 4.93049 14.3945ZM5.5423 13.3635C5.51845 13.3601 5.45165 13.3179 5.52323 13.3789C5.52324 13.3789 5.52325 13.3789 5.52325 13.3789C5.58777 13.3961 5.64821 13.4064 5.60329 13.3592C5.52553 13.3274 5.57956 13.3688 5.5423 13.3635ZM5.16676 14.2291C5.10885 14.2052 5.05378 14.2049 5.10752 14.2273C5.19455 14.2633 5.25476 14.2651 5.16676 14.2291ZM5.25344 12.7567C5.14835 12.6881 5.02603 12.6301 4.97266 12.6159C4.944 12.6082 4.93509 12.6134 4.95883 12.6377C4.96475 12.6438 5.02668 12.6586 5.05686 12.6816C5.05984 12.6838 5.05102 12.6901 5.07314 12.7054C5.09529 12.7207 5.15073 12.7492 5.17146 12.7656C5.20764 12.7944 5.12608 12.7665 5.17546 12.8009C5.18207 12.8055 5.25931 12.8383 5.2624 12.8392C5.31144 12.855 5.22179 12.7924 5.22192 12.7907C5.22268 12.7818 5.29642 12.8248 5.31494 12.8328C5.3498 12.8478 5.32042 12.8231 5.3231 12.824C5.39472 12.8494 5.3615 12.8648 5.38632 12.8834C5.4532 12.9338 5.5254 12.9631 5.55287 13.0095C5.55551 13.0138 5.53604 13.0376 5.63795 13.052C5.77284 13.2171 5.75549 13.0751 5.72392 13.0411C5.70907 13.026 5.6337 12.9941 5.60348 12.9732C5.59101 12.9645 5.58058 12.9569 5.57124 12.9497C5.52891 12.9171 5.50922 12.8962 5.42404 12.8503C5.29879 12.7827 5.28957 12.7844 5.29641 12.7964C5.30158 12.8053 5.31563 12.8199 5.29769 12.8154C5.25131 12.7879 5.20572 12.7618 5.1608 12.7341C5.19205 12.7536 5.21907 12.7612 5.23619 12.7628C5.25212 12.7642 5.25952 12.7606 5.25387 12.7569C5.25372 12.7568 5.25358 12.7568 5.25344 12.7567ZM5.40942 13.0545C5.33674 13.0304 5.47256 13.1085 5.38788 13.0758C5.50276 13.158 5.50744 13.1314 5.51575 13.1329C5.55309 13.1393 5.68504 13.2166 5.65146 13.1808C5.57091 13.1393 5.49001 13.0965 5.40942 13.0545ZM5.53653 12.9637C5.59996 13.0126 5.60887 12.9942 5.62253 13.0008C5.76716 13.072 5.70931 13.1106 5.53653 12.9637ZM4.95986 13.6526C4.95284 13.6551 5.02348 13.6832 5.04211 13.6965C5.06094 13.7098 4.99524 13.6976 5.0386 13.7164C5.08218 13.7349 5.20547 13.7599 5.21867 13.7957C5.24335 13.8057 5.26135 13.814 5.2835 13.8233C5.28713 13.8168 5.29122 13.8105 5.29485 13.8041C5.2234 13.7764 5.14819 13.7475 5.07898 13.7211C5.02515 13.6923 5.09747 13.7219 5.09755 13.7217C5.09748 13.7217 5.0974 13.7216 5.09733 13.7216C5.09498 13.7119 4.97551 13.6469 4.95986 13.6526ZM5.35239 13.3998C5.18631 13.3072 5.36688 13.4196 5.38532 13.435C5.40365 13.4505 5.3386 13.4228 5.41172 13.4596C5.46502 13.4797 5.37086 13.4103 5.35218 13.3997C5.35225 13.3997 5.35232 13.3998 5.35239 13.3998ZM5.36648 13.1286C5.39971 13.1632 5.44349 13.1863 5.38677 13.1716C5.42681 13.1942 5.46771 13.2173 5.50713 13.2395C5.51421 13.2292 5.3985 13.1628 5.45225 13.1771C5.46112 13.1795 5.55056 13.2376 5.52642 13.211C5.47573 13.1851 5.41961 13.156 5.36648 13.1286ZM5.48159 13.2697C5.48281 13.2536 5.16704 13.0567 5.29839 13.1646C5.31803 13.1807 5.48071 13.2819 5.48159 13.2697ZM5.00883 13.5253C4.98831 13.5432 5.05473 13.5436 5.10892 13.5628C5.12528 13.6341 5.09774 13.5499 5.271 13.6284C5.22528 13.5987 5.12003 13.5322 5.08384 13.5307C5.06878 13.5302 5.12061 13.553 5.12024 13.5533C5.10277 13.5571 5.02004 13.5155 5.00883 13.5253ZM5.41553 13.0259C5.41744 13.0282 5.47368 13.0592 5.48315 13.0684C5.49257 13.0776 5.45019 13.061 5.48384 13.0815C5.51771 13.1021 5.55145 13.1054 5.5288 13.0869C5.50585 13.0683 5.39873 13.0057 5.41553 13.0259ZM5.22867 13.032C5.26212 13.0663 5.4768 13.1677 5.4773 13.1647C5.47907 13.1372 5.29291 13.0705 5.22867 13.032ZM4.67492 13.2938C4.76799 13.3766 4.96608 13.447 5.08614 13.4865C5.06453 13.4729 5.04292 13.4592 5.02153 13.4457C5.15444 13.5252 5.28247 13.6104 5.18136 13.5118C5.13827 13.5165 5.11009 13.4802 5.10241 13.4761C4.85039 13.3458 4.95155 13.438 4.67494 13.2938C4.67493 13.2938 4.67493 13.2938 4.67492 13.2938ZM5.49568 13.0227C5.50186 13.0102 5.4778 12.9536 5.36204 12.9069C5.40671 12.9453 5.45121 12.984 5.49568 13.0227ZM4.47612 13.7917C4.40586 13.7777 4.4032 13.7882 4.40259 13.8034C4.50357 13.8269 4.51169 13.839 4.53386 13.8517C4.5672 13.8709 4.5697 13.8552 4.57622 13.8576C4.66776 13.8918 4.67861 13.9062 4.68415 13.8846C4.71414 13.9017 4.74443 13.9186 4.77427 13.9354C4.78422 13.9213 4.84532 13.9401 4.92187 13.9578C4.74013 13.9003 4.85634 13.9298 4.77211 13.8848C4.73001 13.8621 4.51212 13.7986 4.4761 13.7917C4.47611 13.7917 4.47611 13.7917 4.47612 13.7917ZM4.62564 13.3073C4.65494 13.3254 4.69526 13.3486 4.72907 13.3687C4.73089 13.3735 4.73229 13.3781 4.73411 13.3829C4.70665 13.37 4.67795 13.3565 4.6515 13.3442C4.64151 13.3446 4.68031 13.3614 4.68327 13.3643C4.68313 13.3642 4.68298 13.3642 4.68283 13.3641C4.72465 13.4062 4.71566 13.4104 4.62423 13.3845C4.70817 13.4242 4.79212 13.464 4.87606 13.5038C4.86946 13.497 4.86315 13.4902 4.85681 13.4835C4.81251 13.4604 4.76822 13.4372 4.72397 13.4141C4.75054 13.4223 4.77689 13.4306 4.80341 13.439C4.78859 13.4283 4.77322 13.4167 4.75867 13.4067C4.99919 13.5057 4.82509 13.4606 4.92216 13.5075C4.98463 13.5374 4.9967 13.5054 4.95603 13.4798C4.95007 13.476 4.7729 13.3982 4.86916 13.4306C4.88438 13.4356 5.26009 13.6195 4.96215 13.4579C4.91994 13.4348 4.68382 13.3261 4.62564 13.3073ZM4.44477 13.3739C4.6968 13.4661 4.40706 13.4197 4.62143 13.4802C4.72954 13.5394 4.7289 13.5369 4.83205 13.5737C4.84128 13.5771 4.86946 13.5967 4.8736 13.598C4.93188 13.6152 4.90704 13.5928 5.00657 13.6382C5.00219 13.6338 4.99834 13.6297 4.99397 13.6253C4.89636 13.5908 4.83957 13.5484 4.76312 13.5064C4.72848 13.4874 4.71481 13.488 4.68446 13.4715C4.67339 13.4654 4.69992 13.4679 4.66731 13.4524C4.59357 13.4174 4.49109 13.376 4.43223 13.3599C4.43216 13.3599 4.43209 13.3599 4.43201 13.3598C4.43584 13.3643 4.44073 13.3693 4.44477 13.3739ZM4.84673 13.0736C4.97777 13.1423 5.02122 13.1512 5.07184 13.2091C5.09795 13.2221 5.12384 13.235 5.14994 13.248C5.1498 13.2429 5.14961 13.238 5.14971 13.233C4.77568 13.009 5.21697 13.2276 4.93963 13.0903C4.90948 13.0753 4.93705 13.1029 4.86259 13.0492C4.86251 13.0492 4.86243 13.0491 4.86235 13.0491C4.87959 13.0756 4.92453 13.1026 4.84673 13.0736ZM4.89004 13.2095C5.14882 13.3854 5.06442 13.2519 4.98582 13.2237C4.97861 13.2213 5.02143 13.2828 4.89004 13.2095ZM4.78767 12.8384C4.77533 12.8489 4.92019 12.9339 4.97327 12.9629C5.02651 12.992 4.97864 12.9523 4.98761 12.9559C5.01706 12.9679 5.03037 12.9864 5.07056 13.0032C5.08366 13.0085 5.14841 13.0163 5.14273 13.0117C5.11139 12.9857 4.98679 12.9243 4.97405 12.9147C4.93228 12.8831 4.9988 12.9121 4.93608 12.8734C4.80231 12.7907 4.93684 12.8876 4.9378 12.8913C4.94023 12.9019 4.86413 12.8568 4.84577 12.853C4.82744 12.8494 4.85165 12.868 4.84353 12.8695C4.84081 12.87 4.78854 12.838 4.78767 12.8384ZM5.0697 13.059C4.96739 12.982 4.82828 12.9466 4.85179 12.9655C4.92195 13.0209 5.11866 13.0955 5.0697 13.059ZM4.83288 13.4969C4.7557 13.4445 4.67376 13.4434 4.70319 13.4682C4.73876 13.4825 4.85955 13.5147 4.83288 13.4969ZM4.67942 13.2859C4.69902 13.3109 4.89281 13.3874 4.89466 13.3765C4.77569 13.3094 4.79713 13.327 4.78886 13.331C4.78054 13.335 4.6642 13.2663 4.67942 13.2859ZM5.00055 12.7748C4.99728 12.7761 5.07187 12.872 5.12544 12.8732C5.12943 12.8733 5.12833 12.8358 5.11132 12.8233C5.07702 12.7978 5.00942 12.7716 5.00055 12.7748ZM4.52984 13.1352C4.63135 13.1959 4.62681 13.2013 4.75312 13.2587C4.75312 13.2587 4.75313 13.2587 4.75313 13.2587C4.78277 13.2939 4.5297 13.1662 4.53324 13.1726C4.54577 13.1949 4.73182 13.2742 4.78702 13.3118C4.74047 13.2659 4.8592 13.3326 4.87357 13.3234C4.87669 13.3214 4.81059 13.2723 4.76655 13.2473C4.72248 13.2222 4.58435 13.1588 4.52984 13.1352ZM5.00654 12.7058C4.96004 12.696 5.11859 12.8039 5.15546 12.8007C5.17359 12.7991 5.03489 12.7117 5.00654 12.7058ZM4.29667 14.1261C4.34519 14.139 4.39352 14.1519 4.44163 14.1645C4.45143 14.1737 4.46147 14.183 4.47151 14.1922C4.45777 14.1831 4.44427 14.174 4.43077 14.1648C4.41082 14.1698 4.32233 14.147 4.29666 14.1261C4.29667 14.1261 4.29667 14.1261 4.29667 14.1261ZM4.1487 14.487C4.1009 14.4785 4.2422 14.5284 4.25376 14.5304C4.33987 14.5453 4.21494 14.4988 4.1487 14.487ZM4.41219 13.3242C4.385 13.3331 4.61128 13.4231 4.6311 13.42C4.58598 13.4068 4.4276 13.3193 4.41219 13.3242ZM4.19779 14.3595C4.2183 14.3638 4.23882 14.3682 4.25941 14.3724C4.22992 14.3696 4.21088 14.3651 4.19779 14.3595ZM4.81151 12.6727C4.79405 12.6656 4.77095 12.6746 4.78947 12.6886C4.82854 12.718 4.95225 12.7724 4.92111 12.7438C4.91777 12.7407 4.82897 12.6798 4.81149 12.6728C4.8115 12.6727 4.8115 12.6727 4.81151 12.6727ZM4.20041 14.1215C4.20264 14.1222 4.20475 14.1229 4.20668 14.1236C4.20462 14.1229 4.20248 14.1222 4.20041 14.1215ZM3.75072 14.7998C3.75439 14.8007 3.75803 14.8016 3.7615 14.8025C3.75808 14.8016 3.75446 14.8008 3.75072 14.7998ZM4.56179 12.6909C4.35807 12.5803 4.45641 12.6563 4.5619 12.7028C4.56746 12.7052 4.56056 12.6921 4.56179 12.6909Z" fill="#F5F0E9" fill-opacity="0.7"/>
<path d="M4.67693 23.1322C4.82087 23.4573 5.01082 23.8012 5.12977 24.1417C5.14441 24.1835 5.0826 24.2099 5.07998 24.2249C5.07258 24.2658 5.15294 24.25 5.15842 24.2745C5.18559 24.3944 5.22495 24.4994 5.25512 24.6155C5.28615 24.7343 5.07467 24.7789 5.04856 24.8396C4.99758 24.9583 5.20773 24.7716 5.27672 24.7721C5.30548 24.8635 5.3224 24.9592 5.34057 25.056C5.30751 25.0482 5.27477 25.0397 5.24294 25.03C5.25744 25.0693 5.24803 25.1405 5.15286 25.1136C5.14279 25.1363 5.12931 25.1597 5.11983 25.1824C5.20893 25.1389 5.25086 25.1995 5.30545 25.1767C5.36017 25.1543 5.32906 25.1254 5.33366 25.1231C5.39926 25.091 5.39032 25.2821 5.38952 25.2967C5.38601 25.3346 5.26548 25.3712 5.28554 25.3906C5.32001 25.4237 5.52131 25.2721 5.26442 25.4922C5.37034 25.4595 5.32216 25.4883 5.33192 25.5197C5.33321 25.5237 5.38546 25.4892 5.38779 25.49C5.4514 25.5063 5.3332 25.5349 5.32785 25.5383C5.23807 25.5967 5.30426 25.6148 5.30135 25.6298C5.27988 25.7214 5.26582 25.8021 5.26311 25.8735C5.26841 25.8787 5.27672 25.8995 5.28129 25.9052C5.27424 25.9805 5.27613 26.0503 5.29358 26.1243C5.30157 26.1571 5.38178 26.2322 5.37757 26.2687C5.37349 26.3047 5.29595 26.3196 5.26835 26.3492C5.44916 26.3003 5.47814 26.316 5.38833 26.4176C5.52154 26.3853 5.41987 26.4251 5.461 26.4532C5.49514 26.4767 5.6683 26.4702 5.55529 26.5587C5.55007 26.5134 5.49047 26.5432 5.43442 26.5131C5.41598 26.5031 5.34658 26.3456 5.2242 26.4115C5.16047 26.4458 5.24346 26.4721 5.23206 26.4793C5.1656 26.5211 5.06568 26.529 5.08556 26.4904C5.10266 26.4907 5.12054 26.4923 5.13784 26.4931C5.20252 26.3975 4.87713 26.5827 5.15752 26.4117C5.19187 26.3906 5.23101 26.3764 5.2661 26.3507C5.24921 26.3558 5.21397 26.3838 5.20277 26.3774C5.19146 26.3709 5.25934 26.32 5.19433 26.3447C5.09977 26.3806 5.15339 26.4046 5.14924 26.41C5.14982 26.4098 5.15039 26.4096 5.15097 26.4093C5.11289 26.4568 5.08373 26.4041 5.07379 26.4052C5.00866 26.4132 4.96906 26.4438 4.91045 26.4392C4.87707 26.4366 4.87727 26.3934 4.86263 26.3839C4.84783 26.3747 4.81313 26.4145 4.79983 26.4097C4.78656 26.4051 4.8149 26.3794 4.79944 26.3739C4.79267 26.3716 4.74407 26.3935 4.74142 26.3921C4.71256 26.3778 4.82043 26.3474 4.80495 26.3294C4.79471 26.3175 4.68056 26.3165 4.66638 26.3596C4.65001 26.3495 4.6364 26.3388 4.62222 26.3282C4.61197 26.3438 4.60648 26.3576 4.59353 26.3741C4.60427 26.3366 4.51601 26.3633 4.5023 26.3502C4.48866 26.3371 4.58044 26.2753 4.52385 26.2811C4.51803 26.2817 4.5127 26.2824 4.50785 26.2833L4.54641 26.3505C4.52131 26.3565 4.50978 26.3659 4.50646 26.3771L4.46473 26.3044C4.44874 26.3297 4.49136 26.3685 4.48228 26.3831C4.47714 26.3909 4.39139 26.41 4.38797 26.4085C4.37285 26.4016 4.42171 26.3616 4.41495 26.3539C4.40923 26.3476 4.40027 26.3436 4.38965 26.3411L4.43689 26.4234C4.39675 26.4128 4.33961 26.4173 4.31016 26.3943C4.17942 26.2927 4.04896 26.1569 3.96751 26.0472C3.93746 26.0068 4.00182 25.9349 3.98927 25.9173C3.95912 25.8749 3.88592 25.9062 3.86062 25.8682C3.82265 25.8117 3.83938 25.6952 3.82669 25.6386C3.81808 25.5999 3.73375 25.6039 3.7274 25.5957C3.63856 25.4841 3.56408 25.3319 3.51242 25.2291C3.48811 25.1808 3.55414 25.1194 3.54709 25.1108C3.51656 25.0727 3.45585 25.1164 3.44555 25.0782C3.43992 25.0575 3.50193 25.0231 3.50319 25.0194C3.51343 24.9869 3.42813 25.0229 3.41702 25.0068C3.353 24.9141 3.3621 24.7921 3.32383 24.6891C3.3211 24.6816 3.35851 24.665 3.35443 24.6612C3.33601 24.6454 3.28188 24.682 3.2679 24.663C3.23858 24.6237 3.22747 24.5743 3.21372 24.5246C3.21235 24.5197 3.25926 24.4957 3.25449 24.4853C3.2497 24.4748 3.20066 24.4875 3.19566 24.4698C3.18255 24.4236 3.21768 24.3565 3.20013 24.3095C3.19716 24.3017 3.13509 24.3183 3.13062 24.3066C3.1165 24.27 3.14562 24.1938 3.134 24.1623C3.09534 24.0587 3.02168 23.9798 2.98009 23.8836C2.97047 23.861 3.01611 23.8182 3.01237 23.8058C3.0039 23.7781 2.96126 23.8198 2.94965 23.7929C2.85956 23.583 2.79407 23.3603 2.70885 23.142C2.69773 23.0676 2.63502 22.8722 2.65468 22.7997C2.65504 22.7906 2.65535 22.7815 2.6556 22.7724C2.65804 22.6872 2.60437 22.5806 2.62256 22.497C2.6303 22.4623 2.70718 22.4578 2.70851 22.4329C2.71051 22.3883 2.61231 22.3779 2.6035 22.3306C2.59658 22.2928 2.69561 22.2511 2.69022 22.2112C2.68483 22.1713 2.58972 22.1515 2.57899 22.1053C2.57025 22.0674 2.61431 22.0148 2.60791 21.9729C2.54926 21.5903 2.51496 21.1873 2.62539 20.7639C2.66427 20.6157 2.66961 20.4424 2.78614 20.2969C2.79716 20.2833 2.88482 20.3196 2.8729 20.2695C2.86646 20.2426 2.79359 20.1943 2.80011 20.1336C2.80652 20.0745 2.81907 20.0155 2.83608 19.9567C2.91532 19.6929 3.08798 19.44 3.1249 19.1671C3.18709 18.6882 2.7064 17.978 3.7556 17.8606C3.8069 17.8554 4.02265 17.9385 4.08119 17.9705C4.0331 17.9667 3.97689 17.9594 3.92282 17.9545C4.19252 18.0581 4.12192 18.0321 4.0803 18.077C4.05459 18.1046 4.18041 18.1162 4.20829 18.144C4.24414 18.1802 4.3478 18.3264 4.17158 18.2498C4.2012 18.2661 4.22966 18.2814 4.2587 18.2973C4.26305 18.3812 4.28686 18.4682 4.31796 18.5571C4.32344 18.5725 4.38082 18.5899 4.3862 18.6056C4.40111 18.6478 4.35525 18.6648 4.35078 18.7027C4.34833 18.7233 4.41422 18.7449 4.40274 18.7693C4.39127 18.7937 4.30127 18.7682 4.38949 18.8305C4.50886 18.839 4.39877 18.9179 4.39603 18.9562C4.39549 18.9617 4.48577 19.0321 4.46805 19.0517C4.45049 19.0715 4.37614 19.0895 4.4039 19.1348C4.41695 19.156 4.49385 19.1866 4.49378 19.2057C4.49371 19.219 4.41912 19.2162 4.41209 19.2315C4.40507 19.2468 4.45442 19.2962 4.45379 19.3027C4.45191 19.3266 4.40846 19.2889 4.40203 19.3039C4.37174 19.377 4.32346 19.4592 4.33925 19.5424C4.34113 19.5526 4.40298 19.5537 4.40465 19.5554C4.46206 19.635 4.3933 19.5835 4.33662 19.5881C4.28171 19.5926 4.28168 19.7198 4.38405 19.7439C4.2549 19.7184 4.3468 19.7676 4.34902 19.7753C4.35748 19.8056 4.24759 19.7753 4.27605 19.8093C4.28641 19.8218 4.36571 19.8198 4.36119 19.8297C4.35002 19.854 4.22421 19.8502 4.20456 19.8819C4.19978 19.8895 4.25298 19.904 4.24795 19.9183C4.24287 19.9326 4.16365 19.9801 4.28333 19.9762C4.18429 19.9938 4.23255 20.0123 4.22078 20.0552C4.21768 20.0661 4.12782 20.062 4.14977 20.0912C4.15723 20.1011 4.24099 20.1185 4.23917 20.1306C4.23524 20.1583 4.14316 20.166 4.13253 20.2002C4.13029 20.2074 4.12888 20.2147 4.1281 20.2222C4.12276 20.2777 4.15841 20.3428 4.12959 20.3955C4.12072 20.4116 4.03656 20.3933 4.03079 20.4186C4.03015 20.4224 4.09881 20.4645 4.08931 20.4809C4.08352 20.4906 4.02391 20.5383 4.01827 20.5491C4.00909 20.5668 4.09114 20.5809 4.07369 20.5889C4.02345 20.6119 3.90489 20.5735 4.06671 20.6295C3.97311 20.6298 3.97985 20.6518 3.86552 20.6453C3.98852 20.6721 3.86712 20.6742 3.90621 20.7029C3.94534 20.7316 4.1848 20.7752 3.92448 20.7546C3.95487 20.7691 4.00425 20.8214 4.00752 20.8297C4.01654 20.8541 3.94574 20.8351 3.95388 20.8538C3.95524 20.8571 4.0047 20.8581 3.99813 20.8778C3.9936 20.8906 3.98314 20.9872 3.97611 20.9927C3.89438 21.0539 3.92974 20.953 3.8777 20.9344C3.89189 20.933 3.90613 20.9315 3.92017 20.9299C3.94572 20.9024 3.8332 20.9101 3.80632 20.9217C3.77945 20.9333 3.82714 20.9623 3.78981 20.9709C3.77106 20.9752 3.63789 20.9623 3.65526 20.9461C3.61282 20.9616 3.57128 20.9331 3.53213 20.9377C3.48911 20.9426 3.47036 21.0265 3.54397 21.0316C3.54752 21.016 3.54627 20.9963 3.55038 20.9807C3.67954 20.9697 4.11169 21.0593 3.93413 21.1035C3.80562 21.1367 3.70886 21.064 3.80964 21.1666C3.81553 21.152 3.82815 21.1401 3.83425 21.1269C3.93024 21.1307 3.82358 21.1468 3.85351 21.1597C3.86815 21.1658 3.93782 21.1364 3.95891 21.1663C3.82045 21.1839 3.95745 21.2102 3.95722 21.2516C3.93326 21.2389 3.90945 21.2262 3.88554 21.2135C3.7827 21.2799 3.75763 21.1126 3.69548 21.2491C3.69179 21.2321 3.69373 21.2155 3.6878 21.1983C3.63706 21.2041 3.48991 21.1838 3.45833 21.1897C3.37542 21.2054 3.42351 21.2368 3.41531 21.2604C3.41184 21.2708 3.3722 21.2626 3.37193 21.2635C3.36691 21.2777 3.42555 21.2769 3.42877 21.2896C3.43278 21.3056 3.3742 21.3492 3.38043 21.3569C3.39632 21.3767 3.51292 21.3489 3.52148 21.3511C3.57697 21.3652 3.52974 21.3883 3.60296 21.3895C3.5544 21.328 3.62637 21.1605 3.74096 21.3191C3.86084 21.2816 4.02319 21.3008 4.0338 21.3605C4.04277 21.4102 3.9786 21.376 3.9059 21.3994C3.89676 21.4024 3.86033 21.4682 3.91104 21.4732C3.79417 21.467 3.68997 21.4861 3.56974 21.4678C3.55207 21.4651 3.5599 21.4373 3.4626 21.4442C3.41372 21.4476 3.30725 21.4587 3.24528 21.4546C3.28824 21.4617 3.3366 21.4692 3.38143 21.4763C3.39285 21.519 3.34625 21.5237 3.26521 21.5449C3.29882 21.5447 3.44047 21.5269 3.39676 21.5582C3.39416 21.5598 3.34347 21.56 3.31795 21.5759C3.26681 21.6081 3.251 21.6149 3.10282 21.5858C3.18613 21.6572 3.02006 21.6688 3.06726 21.7409C3.25876 21.7301 3.2118 21.7045 3.17628 21.6387C3.22182 21.6368 3.26686 21.6364 3.31287 21.6345C3.20804 21.7187 3.2194 21.6764 3.31083 21.7269C3.33323 21.7393 3.30795 21.8024 3.43707 21.7834C3.46745 21.7789 3.46464 21.7394 3.51233 21.7448C3.5214 21.7458 3.54372 21.794 3.53132 21.798C3.37816 21.8485 3.27345 21.7521 3.32672 21.8991C3.3283 21.9031 3.38395 21.9053 3.39158 21.9133C3.40582 21.9283 3.34132 21.9275 3.35602 21.9409C3.37075 21.9543 3.45724 21.9739 3.37676 21.9925C3.2302 22.0267 3.14744 21.94 3.22546 21.9029C3.03484 21.8849 3.02674 22.1565 3.04272 22.173C3.11266 22.2471 3.07357 22.1251 3.12657 22.1195C3.149 22.1172 3.43284 22.1228 3.24911 22.0892C3.19467 22.0792 3.12218 22.1163 3.09242 22.0931C3.06267 22.0699 3.14611 22.0801 3.15197 22.0786C3.17204 22.0732 3.14141 22.0485 3.15331 22.0455C3.33387 21.9996 3.60559 22.008 3.20318 22.0664C3.29351 22.0957 3.43909 22.0336 3.50017 22.0693C3.5744 22.1128 3.44448 22.1417 3.43857 22.1469C3.36853 22.2095 3.55868 22.1391 3.49703 22.216C3.4627 22.2587 3.37238 22.1491 3.38305 22.2481C3.39205 22.3309 3.45862 22.2876 3.60804 22.2964C3.64299 22.2985 3.68502 22.345 3.67081 22.2825C3.63189 22.28 3.58062 22.2758 3.54477 22.2712C3.57349 22.2566 3.76887 22.2346 3.77582 22.2265C3.80891 22.1874 3.70768 22.1878 3.82723 22.1663C3.69659 22.1809 3.77558 22.1551 3.74821 22.1445C3.64734 22.1052 3.60889 22.1541 3.74052 22.0715C3.67924 22.0816 3.61911 22.0907 3.55806 22.1004C3.55612 22.0902 3.55412 22.0801 3.55217 22.0699C3.68699 22.0568 3.67055 22.0027 3.80537 22.0534C3.8447 21.9953 3.8157 21.9713 3.71117 21.9569C3.69122 21.9542 3.68335 21.9453 3.68158 21.9349C3.65211 21.9364 3.5611 21.9376 3.54996 21.9358C3.45205 21.9198 3.6219 21.8997 3.68649 21.9084C3.68969 21.9012 3.69341 21.8956 3.69501 21.8936C3.70525 21.8809 3.76338 21.9069 3.7836 21.8968C3.79016 21.8935 3.77798 21.8573 3.80178 21.857C3.95435 21.8551 3.84337 21.9123 3.93389 21.7952C3.79514 21.79 3.82477 21.8457 3.67757 21.8292C3.51943 21.8114 3.73239 21.7838 3.5382 21.7737C3.57019 21.7717 3.59685 21.7711 3.63326 21.7695C3.54943 21.7199 3.71129 21.7221 3.74729 21.7082C3.81751 21.681 3.80985 21.5504 3.66718 21.6647C3.65353 21.6473 3.64743 21.6296 3.63545 21.6122C3.92565 21.6147 3.80985 21.6224 3.85617 21.5418C3.86643 21.5241 3.99415 21.5217 3.84311 21.5001C3.99166 21.5065 3.90339 21.4513 3.9216 21.4468C4.03979 21.4193 4.19966 21.5397 3.9366 21.5481C4.03842 21.5705 3.90317 21.5671 3.92058 21.5898C3.94573 21.6225 3.97197 21.6274 3.87135 21.6636C4.01117 21.7038 3.93644 21.5183 4.12057 21.6337C4.30385 21.7447 4.40057 22.4092 4.42187 22.5781C4.43884 22.6979 4.45251 22.7965 4.46109 22.8895L4.39924 22.4987C4.45893 22.6012 4.50665 22.6962 4.55543 22.8295C4.56341 22.8515 4.64411 23.011 4.47994 23.0394C4.45634 23.0435 4.3694 22.9953 4.27718 23.106C4.34152 23.0645 4.4018 23.082 4.41039 23.082C4.60564 23.0818 4.62915 23.0243 4.67693 23.1322ZM3.49116 24.0412C3.45897 23.8766 3.4081 24.0304 3.16971 24.0981C3.17763 24.1178 3.18557 24.1375 3.19354 24.1572C3.20536 24.1459 3.21716 24.1346 3.22899 24.1233C3.22898 24.1233 3.22897 24.1232 3.22896 24.1232C3.31638 24.096 3.40383 24.0687 3.49116 24.0412ZM4.53452 26.4474C4.50269 26.4555 4.47088 26.4637 4.43957 26.4712C4.4408 26.4497 4.44187 26.4285 4.44305 26.4072C4.46387 26.4 4.4849 26.3926 4.50574 26.3854C4.51438 26.4063 4.52291 26.4273 4.53452 26.4474ZM3.19028 21.8799C3.28053 21.8511 3.12024 21.8513 3.19389 21.8124C3.07555 21.8154 2.95978 21.819 2.84261 21.8224C2.85962 21.8533 2.90449 21.861 2.87509 21.8938C2.91316 21.8905 2.95145 21.8871 2.98975 21.8839C2.98168 21.8782 2.97249 21.8722 2.96535 21.8667C3.07184 21.8599 3.08691 21.913 3.19052 21.88C3.19044 21.8799 3.19036 21.8799 3.19028 21.8799ZM3.1484 21.5682C3.16415 21.5522 3.22369 21.4887 3.17499 21.4785C3.00969 21.4435 3.11034 21.6313 2.9662 21.4911C2.94288 21.4911 2.92007 21.4898 2.89701 21.4892C2.88818 21.514 2.88052 21.5388 2.87341 21.5638C2.96532 21.5646 3.05602 21.5676 3.1484 21.5682ZM3.24793 23.5007C3.25012 23.4728 3.13168 23.3896 3.04931 23.4661C3.02523 23.4887 3.18528 23.4823 3.18698 23.5035C3.18817 23.5174 3.1062 23.5351 3.14431 23.5478C3.17746 23.5328 3.21443 23.5167 3.24768 23.5008C3.24776 23.5007 3.24785 23.5007 3.24793 23.5007ZM3.70936 23.36C3.68589 23.3419 3.65871 23.325 3.63443 23.3071C3.55471 23.3604 3.6248 23.3717 3.50352 23.4246C3.49151 23.4218 3.47959 23.4191 3.46759 23.4163C3.49221 23.4002 3.5169 23.3842 3.54158 23.3682C3.46665 23.375 3.43884 23.4012 3.44211 23.3546C3.26686 23.4541 3.16949 23.4997 3.38398 23.4887C3.27856 23.5177 2.95726 23.6657 3.20595 23.6057C3.25211 23.5945 3.2689 23.5534 3.27566 23.5502C3.35947 23.51 3.42081 23.5032 3.49974 23.4647C3.53544 23.4473 3.5276 23.43 3.57735 23.4063C3.60165 23.3947 3.67926 23.3818 3.70936 23.36ZM3.29508 23.5894C3.24008 23.6036 3.12781 23.6809 3.16219 23.6928C3.21557 23.7112 3.30931 23.607 3.29508 23.5894ZM4.53468 26.4475C4.53463 26.4475 4.53457 26.4475 4.53452 26.4474C4.53464 26.4474 4.53476 26.4474 4.53488 26.4474C4.53481 26.4474 4.53475 26.4475 4.53468 26.4475ZM3.08151 21.6514C3.03411 21.6312 3.0417 21.6026 2.96568 21.603C2.98082 21.5939 2.99572 21.5847 3.01087 21.5756C2.98802 21.5751 2.96513 21.5748 2.94252 21.5743C2.92764 21.6025 2.91276 21.6307 2.89774 21.6588C2.95892 21.6564 3.02032 21.6544 3.08151 21.6514ZM3.1431 21.3432C3.15208 21.3076 3.04766 21.3339 2.99806 21.3242C2.94845 21.3144 2.99027 21.2835 2.91856 21.2846C2.91493 21.306 2.91129 21.3283 2.90798 21.3499C2.98605 21.3469 3.06551 21.3457 3.1431 21.3431C3.1431 21.3432 3.1431 21.3432 3.1431 21.3432ZM3.69559 24.6823C3.70546 24.6507 3.78097 24.6259 3.67707 24.6222C3.67709 24.6222 3.6771 24.6222 3.67712 24.6223C3.63799 24.6909 3.61134 24.7691 3.68941 24.7875C3.75125 24.7238 3.68036 24.7318 3.69559 24.6823ZM2.95629 21.9597C3.01865 21.9707 3.07153 21.9246 3.01361 21.9134C2.91985 21.8953 2.86157 21.9431 2.95629 21.9597ZM4.62381 25.3036C4.81076 25.2454 4.96988 25.0845 4.85516 25.066C4.8451 25.0644 4.81176 25.1329 4.77227 25.1384C4.76836 25.1389 4.7609 25.1147 4.73428 25.1215C4.7076 25.1283 4.65536 25.1628 4.62744 25.1658C4.57858 25.1708 4.63487 25.0954 4.57557 25.1111C4.56762 25.1132 4.50505 25.1736 4.503 25.1766C4.47036 25.2232 4.57861 25.1954 4.58108 25.1986C4.59391 25.2152 4.51677 25.2518 4.5014 25.2658C4.4725 25.292 4.51395 25.2898 4.51202 25.2922C4.46034 25.3549 4.44601 25.2813 4.41419 25.2867C4.32831 25.3015 4.27108 25.359 4.19999 25.3235C4.19337 25.3203 4.16466 25.2536 4.12147 25.3785C3.86175 25.309 4.06263 25.512 4.11548 25.5175C4.13989 25.5202 4.20226 25.464 4.23856 25.4544C4.32154 25.4323 4.34941 25.4535 4.45247 25.3959C4.66919 25.2748 4.50587 25.3137 4.5298 25.2693C4.57893 25.2469 4.62604 25.2236 4.67527 25.2039C4.60832 25.229 4.60983 25.3083 4.62338 25.3039C4.62352 25.3038 4.62367 25.3037 4.62381 25.3036ZM4.16674 25.0337C4.21593 24.9645 4.07685 25.0367 4.14075 24.9639C4.00035 24.9973 4.03719 25.0504 4.03351 25.0608C4.01699 25.1072 3.87983 25.1749 3.93757 25.1851C4.01312 25.1338 4.09056 25.0842 4.16674 25.0337ZM4.26775 25.3742C4.18495 25.3869 4.20841 25.4291 4.19586 25.4378C4.06314 25.5314 4.02374 25.3877 4.26775 25.3742ZM3.48026 23.2365C3.48016 23.2219 3.41301 23.2585 3.3877 23.2557C3.36214 23.2529 3.40706 23.1904 3.36361 23.2089C3.31995 23.2274 3.23454 23.3441 3.18126 23.2829C3.15755 23.2952 3.13882 23.3018 3.117 23.3119C3.12419 23.3317 3.13121 23.3522 3.13843 23.3719C3.20506 23.3326 3.27519 23.2913 3.33965 23.2534C3.40052 23.2416 3.33058 23.2769 3.33082 23.2775C3.33089 23.2775 3.33097 23.2775 3.33105 23.2774C3.34493 23.2954 3.48058 23.269 3.48026 23.2365ZM3.68695 24.3134C3.86149 24.2379 3.65508 24.2972 3.62813 24.2949C3.60126 24.2926 3.65778 24.2469 3.58615 24.287C3.54368 24.33 3.66749 24.3219 3.68717 24.3133C3.6871 24.3134 3.68702 24.3134 3.68695 24.3134ZM4.07015 24.8388C4.01402 24.8289 3.97185 24.8553 4.00461 24.7936C3.96395 24.8151 3.92239 24.837 3.88236 24.8582C3.89589 24.8882 4.01484 24.8278 3.98317 24.8852C3.97791 24.8946 3.87633 24.9295 3.91938 24.9395C3.96691 24.9072 4.02002 24.8721 4.07015 24.8388ZM3.84416 24.763C3.86732 24.795 4.2155 24.6609 4.03375 24.6699C4.00662 24.6714 3.82671 24.739 3.84416 24.763ZM3.62466 23.5596C3.60898 23.4952 3.58275 23.5871 3.53682 23.6251C3.43513 23.5025 3.55782 23.6347 3.38916 23.7235C3.44633 23.7195 3.57382 23.7027 3.58901 23.654C3.59531 23.6337 3.5456 23.6614 3.54543 23.6605C3.54661 23.6276 3.63317 23.5946 3.62466 23.5596ZM4.20605 25.0917C4.20243 25.0907 4.14683 25.1231 4.1318 25.1217C4.1168 25.1202 4.14899 25.0842 4.11299 25.1003C4.0767 25.1164 4.06543 25.1625 4.09624 25.1594C4.12727 25.1562 4.23823 25.1006 4.20605 25.0917ZM4.23633 24.7968C4.18045 24.7877 3.99159 24.9399 3.99582 24.946C4.03465 24.9969 4.16817 24.828 4.23633 24.7968ZM4.053 23.5392C3.91211 23.5159 3.74254 23.6501 3.64751 23.7453C3.67342 23.7411 3.69942 23.7371 3.72507 23.7329C3.5717 23.7675 3.41074 23.7802 3.5805 23.833C3.58848 23.7603 3.64774 23.7924 3.65587 23.7893C3.91863 23.6822 3.76088 23.6496 4.05303 23.5393C4.05302 23.5393 4.05301 23.5392 4.053 23.5392ZM4.19388 25.2174C4.21064 25.2483 4.29487 25.3048 4.38585 25.2114C4.32202 25.2138 4.25803 25.2159 4.19388 25.2174ZM3.74611 22.4303C3.81744 22.404 3.81681 22.3779 3.81285 22.3433C3.70936 22.3723 3.69796 22.3516 3.67298 22.3406C3.63538 22.324 3.63771 22.3624 3.63078 22.3624C3.53306 22.3596 3.51842 22.335 3.51955 22.3905C3.48581 22.376 3.4518 22.3618 3.41827 22.3474C3.41295 22.3894 3.34896 22.398 3.27045 22.4226C3.46137 22.4013 3.34144 22.4324 3.43533 22.4657C3.48235 22.4825 3.70964 22.4439 3.74611 22.4302C3.74611 22.4303 3.74611 22.4303 3.74611 22.4303ZM4.05654 23.4508C4.02189 23.457 3.97638 23.4686 3.93731 23.4769C3.93058 23.4706 3.92426 23.4642 3.91754 23.4579C3.94503 23.4451 3.97387 23.4319 4.00022 23.4193C4.00403 23.4057 3.96687 23.4262 3.96193 23.4248C3.96208 23.4247 3.96223 23.4246 3.96238 23.4246C3.89242 23.403 3.89057 23.3824 3.96277 23.3123C3.87711 23.3482 3.79146 23.3842 3.70581 23.4201C3.71721 23.4244 3.72845 23.4289 3.73965 23.4332C3.78738 23.418 3.83513 23.4027 3.88284 23.3873C3.86122 23.4069 3.83977 23.4264 3.81819 23.446C3.83775 23.4462 3.85878 23.4474 3.87749 23.4467C3.65364 23.5839 3.78159 23.4338 3.68205 23.4751C3.61795 23.5015 3.65561 23.5825 3.7046 23.5754C3.71176 23.5743 3.88205 23.4808 3.80213 23.5501C3.78951 23.5609 3.4058 23.7275 3.73092 23.6262C3.77703 23.6118 4.00885 23.4931 4.05654 23.4508ZM4.0585 23.1071C3.82956 23.2543 4.02284 22.9793 3.8485 23.1348C3.72623 23.1606 3.7292 23.1636 3.63675 23.2259C3.62846 23.2315 3.59123 23.2297 3.58776 23.2325C3.54007 23.275 3.57945 23.2869 3.47829 23.3286C3.4859 23.3318 3.49279 23.3349 3.50041 23.3381C3.58653 23.2765 3.6653 23.2859 3.75126 23.266C3.79022 23.2571 3.79563 23.2384 3.82964 23.2304C3.84207 23.2275 3.82699 23.2568 3.86069 23.2438C3.93682 23.2142 4.03364 23.1596 4.08078 23.1161C4.08086 23.116 4.08094 23.116 4.08101 23.116C4.07392 23.1128 4.06584 23.1103 4.0585 23.1071ZM4.2763 24.1579C4.14559 24.2276 4.12153 24.2765 4.02844 24.2475C4.00335 24.2627 3.97853 24.2778 3.95345 24.293C3.96043 24.302 3.96724 24.3106 3.97408 24.3198C4.38333 24.1665 3.96344 24.4296 4.22694 24.2634C4.25557 24.2453 4.21058 24.2377 4.30409 24.2223C4.30415 24.2223 4.30421 24.2222 4.30427 24.2221C4.26382 24.2016 4.21438 24.2196 4.2763 24.1579ZM4.08285 23.9831C3.76496 24.0356 3.97216 24.1595 4.03362 24.095C4.03917 24.0892 3.94304 24.0392 4.08285 23.9831ZM4.60758 24.4661C4.59657 24.4309 4.44418 24.5014 4.3913 24.531C4.33827 24.5607 4.40459 24.5571 4.39741 24.5642C4.37372 24.5876 4.34508 24.5761 4.31228 24.6074C4.30158 24.6176 4.27614 24.7023 4.28393 24.7018C4.32725 24.699 4.44132 24.6167 4.45765 24.614C4.51107 24.605 4.45533 24.6551 4.52346 24.6268C4.66886 24.5663 4.50378 24.6043 4.49849 24.5995C4.48318 24.5851 4.56352 24.548 4.57306 24.527C4.58258 24.5061 4.55107 24.5106 4.5511 24.4962C4.55113 24.4914 4.60788 24.468 4.60758 24.4661ZM4.23508 24.5095C4.36635 24.4895 4.45087 24.3455 4.41927 24.3483C4.32527 24.3564 4.17228 24.5188 4.23508 24.5095ZM3.73272 23.3757C3.8314 23.3728 3.86836 23.2679 3.82521 23.2606C3.79144 23.2791 3.69865 23.3765 3.73272 23.3757ZM4.06106 23.5591C4.02188 23.5408 3.84841 23.6627 3.86235 23.6865C3.99381 23.6466 3.96301 23.6437 3.96108 23.6252C3.95922 23.6067 4.0916 23.5733 4.06106 23.5591ZM4.64785 24.8907C4.64653 24.8834 4.49536 24.8334 4.48239 24.9121C4.48127 24.9178 4.53502 24.9804 4.55637 24.976C4.59967 24.9675 4.65054 24.9095 4.64785 24.8907ZM4.3076 23.6198C4.19276 23.6519 4.18741 23.6358 4.06692 23.706C4.06693 23.706 4.06693 23.706 4.06694 23.7061C4.01059 23.6833 4.26953 23.5679 4.26027 23.5618C4.22777 23.5406 4.05523 23.6497 3.98629 23.6574C4.06252 23.6763 3.93236 23.7182 3.93915 23.7551C3.94074 23.7634 4.02829 23.7605 4.07652 23.7444C4.12476 23.7283 4.2569 23.6517 4.3076 23.6198ZM4.74601 25.0187C4.7691 24.9647 4.58278 25.0204 4.57994 25.0814C4.57846 25.1112 4.73202 25.0517 4.74601 25.0187ZM3.82291 21.5295C3.77262 21.534 3.72254 21.5386 3.67272 21.5436C3.66094 21.5293 3.64894 21.5149 3.63697 21.5005C3.65252 21.5121 3.66785 21.5236 3.68319 21.5352C3.70136 21.5092 3.79289 21.4998 3.82291 21.5294C3.82291 21.5295 3.82291 21.5295 3.82291 21.5295ZM3.92048 20.6194C3.96975 20.6143 3.82415 20.5736 3.81224 20.5748C3.72324 20.5856 3.85211 20.6271 3.92048 20.6194ZM4.13198 23.153C4.13481 23.1051 3.92144 23.2254 3.9164 23.2567C3.95306 23.2238 4.13042 23.1802 4.13198 23.153ZM3.8777 20.9344C3.85657 20.9367 3.83543 20.9389 3.81423 20.9417C3.84423 20.9303 3.86391 20.9296 3.8777 20.9344ZM4.83158 24.7781C4.84515 24.7636 4.8372 24.7134 4.81361 24.7178C4.76408 24.7272 4.66102 24.8213 4.70807 24.823C4.71318 24.8233 4.81789 24.7924 4.83153 24.778C4.83155 24.7781 4.83156 24.7781 4.83158 24.7781ZM3.91762 21.4734C3.9153 21.4735 3.91308 21.4734 3.91104 21.4732C3.91321 21.4733 3.91545 21.4733 3.91762 21.4734ZM4.39496 19.746C4.39123 19.7454 4.38754 19.7447 4.38405 19.7439C4.38751 19.7446 4.39118 19.7452 4.39496 19.746ZM4.86455 24.3786C5.06595 24.263 4.93897 24.2834 4.84855 24.3596C4.84385 24.3637 4.86325 24.3749 4.86455 24.3786Z" fill="#F5F0E9" fill-opacity="0.7"/>
<mask id="path-3-inside-1_536_1229" fill="white">
<circle cx="19.5" cy="19.5" r="19.5" transform="rotate(90 19.5 19.5)"/>
</mask>
<circle cx="19.5" cy="19.5" r="19.5" transform="rotate(90 19.5 19.5)" fill="#F5F0E9" fill-opacity="0.15"/>
<path d="M19.5 39C17.4548 38.9007 15.4461 38.4871 13.5601 37.7794C5.93338 35.0028 0.81007 27.241 1.125 19.5C1.16999 9.71746 9.93794 1.27903 19.5 1.5C29.0621 1.27903 37.83 9.71746 37.875 19.5C38.1899 27.241 33.0666 35.0028 25.4399 37.7794C23.5539 38.4871 21.5452 38.9007 19.5 39C21.5449 39.1008 23.6169 38.8768 25.616 38.3215C33.6925 36.2019 40.0534 28.2268 40.125 19.5C40.6751 8.50875 30.7117 -1.78414 19.5 -1.5C8.28826 -1.78414 -1.67511 8.50875 -1.125 19.5C-1.0534 28.2268 5.3075 36.2019 13.384 38.3215C15.3831 38.8768 17.4551 39.1008 19.5 39Z" fill="#F5F0E9" fill-opacity="0.7" mask="url(#path-3-inside-1_536_1229)"/>
<path d="M17.3748 25.625C13.8332 26.9375 13.8332 23.4375 12.4165 23M22.3332 28.25V24.8638C22.3597 24.4465 22.3141 24.0271 22.1993 23.6333C22.0845 23.2396 21.9032 22.8805 21.6673 22.58C23.8915 22.2738 26.229 21.2325 26.229 16.455C26.2288 15.2334 25.8484 14.0586 25.1665 13.1738C25.4894 12.1049 25.4666 10.9236 25.1028 9.87501C25.1028 9.87501 24.2669 9.56876 22.3332 11.17C20.7097 10.6265 18.9983 10.6265 17.3748 11.17C15.4411 9.56876 14.6053 9.87501 14.6053 9.87501C14.2414 10.9236 14.2186 12.1049 14.5415 13.1738C13.8545 14.0651 13.4737 15.2505 13.479 16.4813C13.479 21.2238 15.8165 22.265 18.0407 22.6063C17.8076 22.9037 17.6279 23.2585 17.5132 23.6474C17.3985 24.0364 17.3513 24.4508 17.3748 24.8638V28.25" stroke="#F5F0E9" stroke-linecap="round" stroke-linejoin="round"/>
</svg>
