<svg width="265" height="556" viewBox="0 0 265 556" fill="none" xmlns="http://www.w3.org/2000/svg">
<path d="M152.55 93.15L152.55 496.8L264.263 500.85L152.55 93.15Z" fill="#F9F9F9"/>
<path d="M152.888 93.15L152.888 496.8L252.45 500.85L152.888 93.15Z" fill="#9BBFF3"/>
<path d="M140.737 7.42493C101.445 195.129 71.281 298.101 -0.00012207 476.887L140.737 488.362L140.737 7.42493Z" fill="#F9F9F9"/>
<path d="M141.075 174.15C122.768 295.798 108.441 363.478 75.9378 483.3L141.075 488.362L141.075 174.15Z" fill="#9BBFF3"/>
<rect width="7.425" height="500.85" transform="matrix(-1 0 0 1 150.188 0)" fill="#F9F9F9"/>
<rect width="4.725" height="500.85" transform="matrix(-1 0 0 1 147.487 0)" fill="#9BBFF3"/>
<path d="M256.838 523.125L4.38789 528.525L9.82033 543.511C12.4344 550.722 19.2839 555.525 26.9543 555.525H231.525L256.838 523.125Z" fill="#9BBFF3"/>
<path d="M251.101 522.788L199.801 523.8C199.801 523.8 151.201 533.25 133.988 540C118.463 547.763 68.1756 547.763 68.1756 547.763C48.1826 546.5 25.9881 539.663 10.8006 528.188C5.40059 528.188 4.38808 528.525 4.38808 528.525L9.82053 543.511C12.4346 550.722 19.2841 555.525 26.9545 555.525H229.163L251.101 522.788Z" fill="#6E9CE7"/>
<path d="M261.226 514.688L4.38806 523.125V528.525L256.838 523.125L261.226 514.688Z" fill="#2B3476"/>
<path d="M261.226 512.663L49.9505 521.438L261.226 514.688V512.663Z" fill="#F9F9F9"/>
<path d="M200.394 512.608L203.513 514.688L173.138 516.375C170.204 511.555 164.968 508.613 159.325 508.613H133.988L151.2 501.188L155.925 505.238L180.516 506.174C187.609 506.444 194.488 508.671 200.394 512.608Z" fill="#F9F9F9"/>
<path d="M150.863 500.85V504.9L177.188 508.95L179.888 517.387L35.7752 522.112L37.0311 517.986C37.6948 515.805 39.6569 514.276 41.934 514.165L79.6502 512.325V510.975C79.6502 505.383 84.1833 500.85 89.7752 500.85H120.825L121.5 498.825H147.488V500.85H150.863Z" fill="#6E9CE7"/>
<path d="M121.838 498.825H88.0879C85.1055 498.825 82.6879 501.243 82.6879 504.225H121.838V498.825Z" fill="#D9D9D9"/>
<path d="M127.552 511.208C127.364 510.665 126.852 510.3 126.277 510.3H111.713C110.967 510.3 110.363 510.904 110.363 511.65V517.725C110.363 518.471 110.967 519.075 111.713 519.075H128.379C129.307 519.075 129.959 518.16 129.655 517.283L127.552 511.208Z" fill="#2B3476"/>
<path d="M103.896 511.702C103.926 510.937 103.313 510.3 102.547 510.3H91.0399C90.4813 510.3 89.9804 510.644 89.7799 511.165L87.4433 517.24C87.1032 518.125 87.7559 519.075 88.7033 519.075H102.314C103.039 519.075 103.635 518.502 103.663 517.777L103.896 511.702Z" fill="#2B3476"/>
</svg>
