<svg width="436" height="734" viewBox="0 0 436 734" fill="none" xmlns="http://www.w3.org/2000/svg">
<path d="M251.689 117.97L251.69 629.176L435.998 634.305L251.689 117.97Z" fill="#F9F9F9"/>
<path d="M252.245 117.97L252.245 629.176L416.508 634.305L252.245 117.97Z" fill="#9BBFF3"/>
<path d="M232.195 9.40332C167.368 247.122 117.603 377.532 0.000209251 603.958L232.195 618.49L232.195 9.40332Z" fill="#F9F9F9"/>
<path d="M232.762 220.554C202.558 374.615 178.92 460.329 125.295 612.079L232.762 618.49L232.762 220.554Z" fill="#9BBFF3"/>
<rect width="12.2501" height="634.305" transform="matrix(-1 0 0 1 247.795 0)" fill="#F9F9F9"/>
<rect width="7.79552" height="634.305" transform="matrix(-1 0 0 1 243.336 0)" fill="#9BBFF3"/>
<path d="M423.875 663L6.87498 674.667L19.3401 719.643C21.5277 727.536 28.7123 733 36.903 733H382.064L423.875 663Z" fill="#9BBFF3"/>
<path d="M413.875 662L329.246 664.227C329.246 664.227 249.071 685.01 220.675 699.856C195.064 716.928 112.105 716.928 112.105 716.928C79.1226 714.151 42.5084 699.113 17.4537 673.876C8.54534 673.876 6.87502 674.619 6.87502 674.619L19.3661 720.557C21.5239 728.493 28.7288 734 36.9526 734H377.685L413.875 662Z" fill="#6E9CE7"/>
<path d="M430.982 651.83L7.24002 662.516V669.354L423.744 662.516L430.982 651.83Z" fill="#2B3476"/>
<path d="M430.982 649.265L82.411 660.378L430.982 651.83V649.265Z" fill="#F9F9F9"/>
<path d="M323.451 645.525L335.77 651.83L285.655 653.967L282.724 650.27C279.651 646.395 274.977 644.136 270.031 644.136H221.064L249.462 634.732L257.257 639.862L307.048 641.318C312.76 641.485 318.363 642.922 323.451 645.525Z" fill="#F9F9F9"/>
<path d="M248.91 634.305V639.434L292.342 644.563L296.797 655.249L59.0334 661.233L61.633 654.676C62.422 652.687 64.3118 651.351 66.4508 651.27L131.42 648.838V644.43C131.42 638.838 135.954 634.305 141.545 634.305H199.353L200.466 631.74H243.342V634.305H248.91Z" fill="#6E9CE7"/>
<path d="M201.018 631.74H143.265C139.488 631.74 136.426 634.802 136.426 638.579V638.579H201.018V631.74Z" fill="#D9D9D9"/>
<path d="M210.287 647.068C210.068 646.584 209.587 646.273 209.056 646.273H183.437C182.691 646.273 182.087 646.878 182.087 647.623V656.036C182.087 656.782 182.691 657.386 183.437 657.386H212.85C213.83 657.386 214.483 656.375 214.08 655.481L210.287 647.068Z" fill="#2B3476"/>
<path d="M171.437 647.691C171.475 646.92 170.861 646.273 170.088 646.273H149.512C149.001 646.273 148.534 646.562 148.305 647.018L144.089 655.432C143.639 656.329 144.292 657.386 145.296 657.386H169.667C170.386 657.386 170.979 656.822 171.015 656.104L171.437 647.691Z" fill="#2B3476"/>
</svg>
