<svg width="670" height="508" viewBox="0 0 670 508" fill="none" xmlns="http://www.w3.org/2000/svg">
<rect opacity="0.5" x="67.6738" y="89.9109" width="5.52467" height="9.85238" fill="#FDFBE2"/>
<rect opacity="0.4" x="57.5479" y="87.9397" width="10.1285" height="13.7933" fill="#FDFBE2"/>
<rect opacity="0.3" x="44.6592" y="85.9697" width="12.8909" height="17.7343" fill="#FDFBE2"/>
<rect opacity="0.2" x="27.1592" y="82.0286" width="17.4948" height="24.6309" fill="#FDFBE2"/>
<rect opacity="0.1" x="-2.30566" y="76.1169" width="29.4649" height="36.4538" fill="#FDFBE2"/>
<rect opacity="0.7" width="25.9186" height="27.0702" transform="matrix(-1 0 0 1 159.97 82.8845)" fill="#FDFBE2"/>
<rect opacity="0.6" width="44.9516" height="48.2766" transform="matrix(-1 0 0 1 205.045 72.7334)" fill="#FDFBE2"/>
<rect opacity="0.5" width="59.7255" height="63.1639" transform="matrix(-1 0 0 1 264.771 64.8379)" fill="#FDFBE2"/>
<rect opacity="0.3" width="92.4054" height="100.385" transform="matrix(-1 0 0 1 357.176 45.6631)" fill="#FDFBE2"/>
<rect opacity="0.2" width="118.324" height="151.142" transform="matrix(-1 0 0 1 475.5 20.8486)" fill="#FDFBE2"/>
<rect opacity="0.1" width="193.826" height="192.875" transform="matrix(-1 0 0 1 669.326 0.546021)" fill="#FDFBE2"/>
<rect width="130" height="48.6" transform="matrix(-1 0 0 1 178 445)" fill="#ADB6CD"/>
<rect width="144" height="14.4" transform="matrix(-1 0 0 1 178 493.6)" fill="#7C829A"/>
<rect width="110" height="86.4001" transform="matrix(-1 0 0 1 168.003 254.199)" fill="#B5BFD7"/>
<rect width="110" height="64.8" transform="matrix(-1 0 0 1 168.003 265)" fill="#CC425A"/>
<rect width="100" height="61.2" transform="matrix(-1 0 0 1 161.997 193)" fill="#AAB4CC"/>
<rect width="84" height="30.6" transform="matrix(-1 0 0 1 155.999 162.398)" fill="#99A2B9"/>
<rect width="72" height="19.8" transform="matrix(-1 0 0 1 148.005 142.6)" fill="#9DA5BB"/>
<rect width="50" height="5.4" transform="matrix(-1 0 0 1 137.999 137.199)" fill="#ADB6CD"/>
<rect width="32" height="28.8" transform="matrix(-1 0 0 1 137.999 108.399)" fill="#292C51"/>
<rect width="18" height="28.8" transform="matrix(-1 0 0 1 106.002 108.399)" fill="#1E2037"/>
<rect width="120" height="104.4" transform="matrix(-1 0 0 1 172.002 340.599)" fill="#A6AEC3"/>
<rect width="120" height="84.6" transform="matrix(-1 0 0 1 172.002 349.599)" fill="#CC425A"/>
<rect width="100" height="43.2" transform="matrix(-1 0 0 1 161.997 200.199)" fill="#CC425A"/>
<rect opacity="0.7" width="8" height="315" transform="matrix(-1 0 0 1 104.001 193)" fill="#393D44"/>
<rect opacity="0.7" width="28" height="315" transform="matrix(-1 0 0 1 90.001 193)" fill="#393D44"/>
<rect opacity="0.7" width="18" height="30.6" transform="matrix(-1 0 0 1 90.001 162.398)" fill="#393D44"/>
<rect opacity="0.7" width="4" height="55.8" transform="matrix(-1 0 0 1 100 137.199)" fill="#393D44"/>
<rect opacity="0.7" width="14" height="19.8" transform="matrix(-1 0 0 1 90.001 142.6)" fill="#393D44"/>
<rect opacity="0.7" width="14" height="14.4" transform="matrix(-1 0 0 1 48 493.6)" fill="#393D44"/>
<rect opacity="0.7" width="2" height="5.4" transform="matrix(-1 0 0 1 90.001 137.199)" fill="#393D44"/>
<rect opacity="0.7" x="57.999" y="254.199" width="4" height="253.8" fill="#393D44"/>
<rect opacity="0.7" x="51.999" y="340.599" width="6" height="167.4" fill="#393D44"/>
<rect opacity="0.7" x="48" y="445" width="3.99999" height="63.0001" fill="#393D44"/>
<rect width="12.8333" height="19.8" transform="matrix(-1 0 0 1 143.997 452.199)" fill="#172230"/>
<rect width="4.27778" height="19.8" transform="matrix(-1 0 0 1 143.997 452.199)" fill="#283347"/>
<rect width="12.8333" height="19.8" transform="matrix(-1 0 0 1 173.99 452.199)" fill="#172230"/>
<rect width="4.27778" height="19.8" transform="matrix(-1 0 0 1 173.99 452.199)" fill="#283347"/>
<rect width="11.9844" height="18" transform="matrix(-1 0 0 1 139.987 356.799)" fill="#172230"/>
<rect width="3.99481" height="18" transform="matrix(-1 0 0 1 139.987 356.799)" fill="#283347"/>
<rect width="11.9844" height="18" transform="matrix(-1 0 0 1 168.008 356.8)" fill="#172230"/>
<rect width="3.99481" height="18" transform="matrix(-1 0 0 1 168.008 356.8)" fill="#283347"/>
<rect width="11.3852" height="16.2" transform="matrix(-1 0 0 1 137.383 272.2)" fill="#172230"/>
<rect width="3.79507" height="16.2" transform="matrix(-1 0 0 1 137.383 272.2)" fill="#283347"/>
<rect width="11.3852" height="16.2" transform="matrix(-1 0 0 1 163.997 272.2)" fill="#172230"/>
<rect width="3.79507" height="16.2" transform="matrix(-1 0 0 1 163.997 272.2)" fill="#283347"/>
<rect width="11.3852" height="16.2" transform="matrix(-1 0 0 1 131.384 210.999)" fill="#172230"/>
<rect width="3.79507" height="16.2" transform="matrix(-1 0 0 1 131.384 210.999)" fill="#283347"/>
<rect width="11.3852" height="16.2" transform="matrix(-1 0 0 1 157.995 210.999)" fill="#172230"/>
<rect width="3.79506" height="16.2" transform="matrix(-1 0 0 1 157.995 210.999)" fill="#283347"/>
<rect width="62" height="3.60001" transform="matrix(-1 0 0 1 148.502 151.198)" fill="#292C51"/>
<rect width="94.84" height="3.94096" transform="matrix(-1 0 0 1 161.778 179.77)" fill="#292C51"/>
<rect width="4" height="34.2" transform="matrix(-1 0 0 1 90.5068 154.798)" fill="#292C51"/>
<rect width="4" height="36" transform="matrix(-1 0 0 1 150.505 154.798)" fill="#292C51"/>
<rect width="4" height="34.2" transform="matrix(-1 0 0 1 162.505 158.398)" fill="#292C51"/>
<rect width="6" height="5.4" transform="matrix(-1 0 0 1 72.5049 158.398)" fill="#292C51"/>
<rect width="4" height="18" transform="matrix(-1 0 0 1 71.3447 164.006)" fill="#292C51"/>
<rect width="4" height="23.4" transform="matrix(-1 0 0 1 82.5039 158.398)" fill="#292C51"/>
<rect width="4" height="25.2" transform="matrix(-1 0 0 1 138.508 154.798)" fill="#292C51"/>
<rect width="4" height="25.2" transform="matrix(-1 0 0 1 118.508 154.798)" fill="#292C51"/>
<rect width="4" height="9.00002" transform="matrix(-1 0 0 1 80.5078 181.799)" fill="#292C51"/>
<rect width="4" height="5.40001" transform="matrix(-1 0 0 1 100.506 183.598)" fill="#292C51"/>
<rect width="14" height="3.60001" transform="matrix(-1 0 0 1 86.5059 154.798)" fill="#292C51"/>
<rect width="10.1285" height="3.94096" transform="matrix(-1 0 0 1 159.01 155.139)" fill="#292C51"/>
<rect width="4" height="5.40001" transform="matrix(-1 0 0 1 138.508 183.598)" fill="#292C51"/>
<rect x="66.9346" y="183.711" width="3.68311" height="6.89667" fill="#292C51"/>
<rect width="4" height="5.40001" transform="matrix(-1 0 0 1 128.505 183.598)" fill="#292C51"/>
<rect width="4" height="5.40001" transform="matrix(-1 0 0 1 110.507 183.598)" fill="#292C51"/>
<rect width="42" height="25.2" transform="matrix(-1 0 0 1 133.998 83.2002)" fill="#D5AE61"/>
<rect width="15.6532" height="25.6162" transform="matrix(-1 0 0 1 133.961 83.2173)" fill="#EDE58D"/>
<rect width="26" height="5.40001" transform="matrix(-1 0 0 1 136.005 72.4006)" fill="#292C51"/>
<rect width="16" height="5.40001" transform="matrix(-1 0 0 1 110.003 72.4006)" fill="#1E2037"/>
<rect width="40" height="5.40001" transform="matrix(-1 0 0 1 146.002 77.7996)" fill="#292C51"/>
<rect width="24" height="5.4" transform="matrix(-1 0 0 1 106.001 77.8)" fill="#1E2037"/>
<rect width="18" height="5.40001" transform="matrix(-1 0 0 1 129.999 67)" fill="#292C51"/>
<rect width="10" height="5.40001" transform="matrix(-1 0 0 1 112.002 67)" fill="#1E2037"/>
<rect width="10" height="14.4" transform="matrix(-1 0 0 1 124.001 52.5997)" fill="#292C51"/>
<rect width="6" height="14.4" transform="matrix(-1 0 0 1 114 52.5997)" fill="#1E2037"/>
<rect width="6" height="21.6" transform="matrix(-1 0 0 1 118.001 31)" fill="#1E2037"/>
<rect width="32" height="4.14" transform="matrix(-1 0 0 1 141.896 92.0854)" fill="#272942"/>
<rect width="4.60388" height="4.92619" transform="matrix(-1 0 0 1 154.217 99.9673)" fill="#272942"/>
<rect width="8" height="4.14" transform="matrix(-1 0 0 1 89.8975 96.2253)" fill="#272942"/>
<rect width="10" height="4.14001" transform="matrix(-1 0 0 1 84.2344 99.9673)" fill="#272942"/>
<rect width="20" height="4.14001" transform="matrix(-1 0 0 1 109.9 94.1562)" fill="#272942"/>
<rect width="8" height="4.14" transform="matrix(-1 0 0 1 149.903 96.2253)" fill="#272942"/>
<rect width="64" height="4.14" transform="matrix(-1 0 0 1 147.897 121.066)" fill="#272942"/>
<rect width="80.1076" height="3.94095" transform="matrix(-1 0 0 1 154.217 125.583)" fill="#272942"/>
<rect width="74.5829" height="3.94095" transform="matrix(-1 0 0 1 154.217 129.525)" fill="#272942"/>
<rect width="4" height="20.7" transform="matrix(-1 0 0 1 145.901 100.366)" fill="#272942"/>
<rect width="4" height="20.7" transform="matrix(-1 0 0 1 154.217 104.894)" fill="#272942"/>
<rect width="4" height="24.84" transform="matrix(-1 0 0 1 127.897 96.2253)" fill="#272942"/>
<rect width="4" height="22.77" transform="matrix(-1 0 0 1 105.901 98.2961)" fill="#272942"/>
<rect width="4" height="22.77" transform="matrix(-1 0 0 1 87.9014 98.2961)" fill="#272942"/>
<rect width="4" height="22.77" transform="matrix(-1 0 0 1 77.7949 103.908)" fill="#272942"/>
<path d="M116 104C115.267 104 114.639 103.739 114.117 103.217C113.595 102.695 113.334 102.067 113.334 101.333C113.334 100.6 113.595 99.9723 114.117 99.4501C114.639 98.9279 115.267 98.6667 116 98.6667C116.734 98.6667 117.361 98.9279 117.884 99.4501C118.406 99.9723 118.667 100.6 118.667 101.333C118.667 102.067 118.406 102.695 117.884 103.217C117.361 103.739 116.734 104 116 104ZM110.667 109.333V107.467C110.667 107.089 110.764 106.742 110.959 106.425C111.153 106.108 111.411 105.867 111.734 105.7C112.423 105.356 113.123 105.097 113.834 104.925C114.545 104.753 115.267 104.667 116 104.667C116.734 104.667 117.456 104.753 118.167 104.925C118.878 105.097 119.578 105.356 120.267 105.7C120.589 105.867 120.848 106.108 121.042 106.425C121.236 106.742 121.334 107.089 121.334 107.467V109.333H110.667ZM112 108H120V107.467C120 107.345 119.97 107.233 119.909 107.133C119.848 107.033 119.767 106.956 119.667 106.9C119.067 106.6 118.461 106.375 117.85 106.225C117.239 106.075 116.623 106 116 106C115.378 106 114.761 106.075 114.15 106.225C113.539 106.375 112.934 106.6 112.334 106.9C112.234 106.956 112.153 107.033 112.092 107.133C112.031 107.233 112 107.345 112 107.467V108ZM116 102.667C116.367 102.667 116.681 102.536 116.942 102.275C117.203 102.014 117.334 101.7 117.334 101.333C117.334 100.967 117.203 100.653 116.942 100.392C116.681 100.131 116.367 100 116 100C115.634 100 115.32 100.131 115.059 100.392C114.798 100.653 114.667 100.967 114.667 101.333C114.667 101.7 114.798 102.014 115.059 102.275C115.32 102.536 115.634 102.667 116 102.667Z" fill="#352828"/>
<path d="M111.667 107.333L115 107H116.934C117.644 107 118.353 107.05 119.056 107.151L120.334 107.333" stroke="#352828" stroke-width="3"/>
<path d="M116.766 101.714C116.713 101.446 116.524 101.148 116.349 101.04C116.265 100.988 116.147 101.039 116.039 101.16C115.93 101.28 115.823 101.494 115.835 101.618C115.847 101.741 115.981 101.768 116.13 101.635C116.279 101.501 116.439 101.207 116.468 101.056C116.497 100.905 116.39 100.905 116.282 100.945C116.05 101.03 115.876 101.174 115.755 101.268C115.692 101.316 115.713 101.442 115.753 101.511C115.831 101.643 116.09 101.633 116.332 101.607C116.444 101.594 116.522 101.527 116.536 101.446C116.57 101.257 116.362 101.041 116.2 100.865C115.908 100.548 115.39 100.688 115.255 100.769C115.121 100.849 115.146 101.092 115.186 101.268C115.221 101.417 115.443 101.471 115.564 101.606C115.835 101.907 116.36 101.688 116.509 101.594C116.63 101.42 116.685 101.203 116.658 101.001C116.632 100.905 116.578 100.825 116.523 100.743" stroke="#352828" stroke-width="2" stroke-linecap="round"/>
</svg>
