<svg width="937" height="752" viewBox="0 0 937 752" fill="none" xmlns="http://www.w3.org/2000/svg">
<rect width="514.576" height="7.97792" transform="matrix(-1 0 0 1 529.312 728.75)" fill="#161E37"/>
<rect width="543.829" height="14.6262" transform="matrix(-1 0 0 1 543.938 736.728)" fill="#161E37"/>
<rect width="156.402" height="15.2259" transform="matrix(-1 0 0 1 358.707 613.487)" fill="#802b36"/>
<rect width="132.794" height="15.2259" transform="matrix(-1 0 0 1 202.301 613.487)" fill="#5A1E27"/>
<rect width="168.205" height="26.6454" transform="matrix(-1 0 0 1 358.707 628.712)" fill="#993340"/>
<rect width="129.843" height="26.6454" transform="matrix(-1 0 0 1 190.498 628.712)" fill="#6D2732"/>
<rect width="156.402" height="15.2259" transform="matrix(-1 0 0 1 358.707 598.261)" fill="#D3747F"/>
<rect width="126.892" height="15.2259" transform="matrix(-1 0 0 1 202.301 598.261)" fill="#8F3741"/>
<rect width="70.8233" height="11.4195" transform="matrix(-1 0 0 1 488.549 605.875)" fill="#802b36"/>
<rect width="59.0194" height="11.4195" transform="matrix(-1 0 0 1 417.723 605.875)" fill="#5A1E27"/>
<rect width="73.7743" height="22.8389" transform="matrix(-1 0 0 1 488.549 617.293)" fill="#DB5A68"/>
<rect width="56.0685" height="22.8389" transform="matrix(-1 0 0 1 414.773 617.293)" fill="#6D2732"/>
<rect width="59.0194" height="11.4195" transform="matrix(-1 0 0 1 476.74 594.455)" fill="#E59AA3"/>
<rect width="59.0194" height="11.4195" transform="matrix(-1 0 0 1 417.723 594.455)" fill="#8F3741"/>
<rect x="405.92" y="727.681" width="100.333" height="53.2908" transform="rotate(180 405.92 727.681)" fill="#29312F"/>
<rect x="305.588" y="727.681" width="82.6272" height="53.2908" transform="rotate(180 305.588 727.681)" fill="#1D2424"/>
<rect x="222.959" y="727.681" width="100.333" height="53.2908" transform="rotate(180 222.959 727.681)" fill="#29312F"/>
<rect x="122.627" y="727.681" width="82.6272" height="53.2908" transform="rotate(180 122.627 727.681)" fill="#1D2424"/>
<rect x="252.467" y="727.681" width="44.2646" height="26.6454" transform="rotate(180 252.467 727.681)" fill="#29312F"/>
<rect x="208.205" y="727.681" width="35.4117" height="26.6454" transform="rotate(180 208.205 727.681)" fill="#1D2424"/>
<rect x="405.92" y="674.391" width="100.333" height="22.8389" transform="rotate(180 405.92 674.391)" fill="#4A4D4D"/>
<rect x="305.588" y="674.391" width="82.6272" height="22.8389" transform="rotate(180 305.588 674.391)" fill="#313434"/>
<rect x="397.064" y="651.552" width="76.7253" height="22.8389" transform="rotate(180 397.064 651.552)" fill="#353D3B"/>
<rect x="320.346" y="651.552" width="56.0685" height="22.8389" transform="rotate(180 320.346 651.552)" fill="#292F2F"/>
<rect x="491.498" y="708.649" width="70.8233" height="22.8389" transform="rotate(180 491.498 708.649)" fill="#3B4241"/>
<rect x="420.676" y="708.649" width="56.0685" height="22.8389" transform="rotate(180 420.676 708.649)" fill="#202828"/>
<rect x="222.959" y="674.391" width="67.8723" height="19.0324" transform="rotate(180 222.959 674.391)" fill="#3B4241"/>
<rect x="155.092" y="674.391" width="94.4311" height="19.0324" transform="rotate(180 155.092 674.391)" fill="#202828"/>
<rect x="488.549" y="655.359" width="73.7743" height="15.2259" transform="rotate(180 488.549 655.359)" fill="#F0B5BD"/>
<rect x="414.773" y="655.359" width="56.0685" height="15.2259" transform="rotate(180 414.773 655.359)" fill="#8F3741"/>
<rect x="497.4" y="727.681" width="94.4311" height="53.2908" transform="rotate(180 497.4 727.681)" fill="#3B4543"/>
<rect x="402.967" y="727.681" width="44.2646" height="53.2908" transform="rotate(180 402.967 727.681)" fill="#182323"/>
<rect x="497.4" y="674.391" width="94.4311" height="19.0324" transform="rotate(180 497.4 674.391)" fill="#555A59"/>
<rect x="402.967" y="674.391" width="44.2646" height="19.0324" transform="rotate(180 402.967 674.391)" fill="#222D2D"/>
<rect x="373.461" y="727.681" width="23.6078" height="45.6778" transform="rotate(180 373.461 727.681)" fill="#29312F"/>
<rect x="349.852" y="727.681" width="20.6568" height="45.6778" transform="rotate(180 349.852 727.681)" fill="#1D2424"/>
<rect x="373.461" y="682.003" width="23.6078" height="15.2259" transform="rotate(180 373.461 682.003)" fill="#4A4D4D"/>
<rect x="349.852" y="682.003" width="20.6568" height="15.2259" transform="rotate(180 349.852 682.003)" fill="#313434"/>
<rect x="231.812" y="701.036" width="23.6078" height="7.61297" transform="rotate(180 231.812 701.036)" fill="#4A4D4D"/>
<rect x="208.205" y="701.036" width="20.6568" height="7.61297" transform="rotate(180 208.205 701.036)" fill="#313434"/>
<rect width="29.5097" height="7.61298" transform="matrix(-1 0 0 1 155.092 666.778)" fill="#993340"/>
<rect width="20.6568" height="7.61298" transform="matrix(-1 0 0 1 125.58 666.778)" fill="#6D2732"/>
<rect width="14.7549" height="7.61297" transform="matrix(-1 0 0 1 367.561 659.166)" fill="#993340"/>
<rect width="11.8039" height="7.61297" transform="matrix(-1 0 0 1 352.803 659.166)" fill="#6D2732"/>
<rect width="17.7058" height="11.4195" transform="matrix(-1 0 0 1 358.707 617.293)" fill="#993340"/>
<rect width="11.8039" height="11.4195" transform="matrix(-1 0 0 1 340.998 617.293)" fill="#6D2732"/>
<rect width="34.571" height="11.9669" transform="matrix(-1 0 0 1 207.535 716.783)" fill="#12192D"/>
<rect width="94.4055" height="15.9559" transform="matrix(-1 0 0 1 497.4 712.794)" fill="#1D243A"/>
<rect width="23.9338" height="35.9007" transform="matrix(-1 0 0 1 373.742 692.849)" fill="#1D243A"/>
<rect width="29.2524" height="15.9559" transform="matrix(-1 0 0 1 402.994 712.794)" fill="#12192D"/>
<rect width="19.9448" height="35.9007" transform="matrix(-1 0 0 1 349.809 692.849)" fill="#12192D"/>
<rect width="23.9338" height="11.9669" transform="matrix(-1 0 0 1 329.863 716.783)" fill="#1D243A"/>
<rect width="45.2083" height="11.9669" transform="matrix(-1 0 0 1 252.744 716.783)" fill="#1D243A"/>
<rect width="82.4386" height="33.2414" transform="matrix(-1 0 0 1 122.438 695.509)" fill="#12192D"/>
<rect width="50.5269" height="33.2414" transform="matrix(-1 0 0 1 172.965 695.509)" fill="#1D243A"/>
<rect width="53.1862" height="11.9669" transform="matrix(-1 0 0 1 305.93 716.783)" fill="#12192D"/>
<rect opacity="0.5" x="226.281" y="105.447" width="6.51869" height="11.6145" fill="#FDFBE2"/>
<rect opacity="0.4" x="214.332" y="103.124" width="11.9509" height="16.2602" fill="#FDFBE2"/>
<rect opacity="0.3" x="199.125" y="100.801" width="15.2103" height="20.906" fill="#FDFBE2"/>
<rect opacity="0.2" x="178.477" y="96.1552" width="20.6425" height="29.0362" fill="#FDFBE2"/>
<rect opacity="0.1" x="143.711" y="89.1862" width="34.7664" height="42.9735" fill="#FDFBE2"/>
<rect opacity="0.7" width="30.5821" height="31.9117" transform="matrix(-1 0 0 1 335.182 97.1642)" fill="#FDFBE2"/>
<rect opacity="0.6" width="53.0396" height="56.9109" transform="matrix(-1 0 0 1 388.367 85.1973)" fill="#FDFBE2"/>
<rect opacity="0.5" width="70.4717" height="74.4606" transform="matrix(-1 0 0 1 458.84 75.8896)" fill="#FDFBE2"/>
<rect opacity="0.3" width="109.032" height="118.339" transform="matrix(-1 0 0 1 567.871 53.2855)" fill="#FDFBE2"/>
<rect opacity="0.2" width="139.614" height="178.174" transform="matrix(-1 0 0 1 707.484 24.0332)" fill="#FDFBE2"/>
<rect opacity="0.1" width="228.701" height="227.371" transform="matrix(-1 0 0 1 936.186 0.0993652)" fill="#FDFBE2"/>
<rect width="153.391" height="57.2921" transform="matrix(-1 0 0 1 356.457 524.043)" fill="#ADB6CD"/>
<rect width="169.91" height="16.9754" transform="matrix(-1 0 0 1 356.457 581.335)" fill="#7C829A"/>
<rect width="129.792" height="101.853" transform="matrix(-1 0 0 1 344.662 299.118)" fill="#B5BFD7"/>
<rect width="129.792" height="76.3895" transform="matrix(-1 0 0 1 344.662 311.851)" fill="#CC425A"/>
<rect width="117.993" height="72.1456" transform="matrix(-1 0 0 1 337.574 226.973)" fill="#AAB4CC"/>
<rect width="99.1139" height="36.0728" transform="matrix(-1 0 0 1 330.498 190.899)" fill="#99A2B9"/>
<rect width="84.9548" height="23.3412" transform="matrix(-1 0 0 1 321.064 167.559)" fill="#9DA5BB"/>
<rect width="58.9964" height="6.36579" transform="matrix(-1 0 0 1 309.26 161.193)" fill="#ADB6CD"/>
<rect width="37.7577" height="33.9509" transform="matrix(-1 0 0 1 309.26 127.242)" fill="#292C51"/>
<rect width="21.2387" height="33.9509" transform="matrix(-1 0 0 1 271.504 127.242)" fill="#1E2037"/>
<rect width="141.591" height="123.072" transform="matrix(-1 0 0 1 349.381 400.971)" fill="#A6AEC3"/>
<rect width="141.591" height="99.7307" transform="matrix(-1 0 0 1 349.381 411.58)" fill="#CC425A"/>
<rect width="117.993" height="50.9263" transform="matrix(-1 0 0 1 337.574 235.46)" fill="#CC425A"/>
<rect opacity="0.7" width="9.43941" height="371.338" transform="matrix(-1 0 0 1 269.145 226.973)" fill="#393D44"/>
<rect opacity="0.7" width="33.038" height="371.338" transform="matrix(-1 0 0 1 252.625 226.973)" fill="#393D44"/>
<rect opacity="0.7" width="21.2387" height="36.0728" transform="matrix(-1 0 0 1 252.625 190.899)" fill="#393D44"/>
<rect opacity="0.7" width="4.71971" height="65.7798" transform="matrix(-1 0 0 1 264.422 161.193)" fill="#393D44"/>
<rect opacity="0.7" width="16.519" height="23.3412" transform="matrix(-1 0 0 1 252.625 167.559)" fill="#393D44"/>
<rect opacity="0.7" width="16.519" height="16.9754" transform="matrix(-1 0 0 1 203.066 581.335)" fill="#393D44"/>
<rect opacity="0.7" width="2.35986" height="6.36579" transform="matrix(-1 0 0 1 252.625 161.193)" fill="#393D44"/>
<rect opacity="0.7" x="214.865" y="299.118" width="4.71971" height="299.192" fill="#393D44"/>
<rect opacity="0.7" x="207.785" y="400.971" width="7.07956" height="197.339" fill="#393D44"/>
<rect opacity="0.7" x="203.066" y="524.043" width="4.71971" height="74.2675" fill="#393D44"/>
<rect width="15.1424" height="23.3412" transform="matrix(-1 0 0 1 316.336 532.531)" fill="#172230"/>
<rect width="5.04747" height="23.3412" transform="matrix(-1 0 0 1 316.336 532.531)" fill="#283347"/>
<rect width="15.1424" height="23.3412" transform="matrix(-1 0 0 1 351.725 532.531)" fill="#172230"/>
<rect width="5.04747" height="23.3412" transform="matrix(-1 0 0 1 351.725 532.531)" fill="#283347"/>
<rect width="14.1408" height="21.2193" transform="matrix(-1 0 0 1 311.605 420.068)" fill="#172230"/>
<rect width="4.71359" height="21.2193" transform="matrix(-1 0 0 1 311.605 420.068)" fill="#283347"/>
<rect width="14.1408" height="21.2193" transform="matrix(-1 0 0 1 344.666 420.069)" fill="#172230"/>
<rect width="4.71359" height="21.2193" transform="matrix(-1 0 0 1 344.666 420.069)" fill="#283347"/>
<rect width="13.4337" height="19.0974" transform="matrix(-1 0 0 1 308.531 320.338)" fill="#172230"/>
<rect width="4.4779" height="19.0974" transform="matrix(-1 0 0 1 308.531 320.338)" fill="#283347"/>
<rect width="13.4337" height="19.0974" transform="matrix(-1 0 0 1 339.936 320.338)" fill="#172230"/>
<rect width="4.4779" height="19.0974" transform="matrix(-1 0 0 1 339.936 320.338)" fill="#283347"/>
<rect width="13.4337" height="19.0974" transform="matrix(-1 0 0 1 301.453 248.192)" fill="#172230"/>
<rect width="4.4779" height="19.0974" transform="matrix(-1 0 0 1 301.453 248.192)" fill="#283347"/>
<rect width="13.4337" height="19.0974" transform="matrix(-1 0 0 1 332.854 248.192)" fill="#172230"/>
<rect width="4.4779" height="19.0974" transform="matrix(-1 0 0 1 332.854 248.192)" fill="#283347"/>
<rect width="73.1555" height="4.24387" transform="matrix(-1 0 0 1 321.652 177.695)" fill="#292C51"/>
<rect width="111.904" height="4.64578" transform="matrix(-1 0 0 1 337.316 211.377)" fill="#292C51"/>
<rect width="4.71971" height="40.3167" transform="matrix(-1 0 0 1 253.221 181.939)" fill="#292C51"/>
<rect width="4.71971" height="42.4386" transform="matrix(-1 0 0 1 324.016 181.939)" fill="#292C51"/>
<rect width="4.71971" height="40.3167" transform="matrix(-1 0 0 1 338.174 186.183)" fill="#292C51"/>
<rect width="7.07957" height="6.36578" transform="matrix(-1 0 0 1 231.98 186.183)" fill="#292C51"/>
<rect width="4.7197" height="21.2193" transform="matrix(-1 0 0 1 230.611 192.794)" fill="#292C51"/>
<rect width="4.7197" height="27.5851" transform="matrix(-1 0 0 1 243.779 186.183)" fill="#292C51"/>
<rect width="4.71971" height="29.707" transform="matrix(-1 0 0 1 309.859 181.939)" fill="#292C51"/>
<rect width="4.7197" height="29.707" transform="matrix(-1 0 0 1 286.26 181.939)" fill="#292C51"/>
<rect width="4.7197" height="10.6096" transform="matrix(-1 0 0 1 241.424 213.769)" fill="#292C51"/>
<rect width="4.71971" height="6.36578" transform="matrix(-1 0 0 1 265.02 215.89)" fill="#292C51"/>
<rect width="16.519" height="4.24387" transform="matrix(-1 0 0 1 248.5 181.939)" fill="#292C51"/>
<rect width="11.9509" height="4.64578" transform="matrix(-1 0 0 1 334.051 182.341)" fill="#292C51"/>
<rect width="4.71971" height="6.36578" transform="matrix(-1 0 0 1 309.859 215.89)" fill="#292C51"/>
<rect x="225.408" y="216.023" width="4.34579" height="8.13011" fill="#292C51"/>
<rect width="4.71971" height="6.36578" transform="matrix(-1 0 0 1 298.057 215.89)" fill="#292C51"/>
<rect width="4.71971" height="6.36578" transform="matrix(-1 0 0 1 276.82 215.89)" fill="#292C51"/>
<rect width="49.5569" height="29.707" transform="matrix(-1 0 0 1 304.539 97.5361)" fill="#D5AE61"/>
<rect width="18.4696" height="30.1976" transform="matrix(-1 0 0 1 304.494 97.5563)" fill="#EDE58D"/>
<rect width="30.6781" height="6.36579" transform="matrix(-1 0 0 1 306.906 84.8051)" fill="#292C51"/>
<rect width="18.8788" height="6.36579" transform="matrix(-1 0 0 1 276.225 84.8051)" fill="#1E2037"/>
<rect width="47.1971" height="6.36579" transform="matrix(-1 0 0 1 318.701 91.1697)" fill="#292C51"/>
<rect width="28.3183" height="6.36579" transform="matrix(-1 0 0 1 271.504 91.1703)" fill="#1E2037"/>
<rect width="21.2387" height="6.36579" transform="matrix(-1 0 0 1 299.818 78.4386)" fill="#292C51"/>
<rect width="11.7993" height="6.36579" transform="matrix(-1 0 0 1 278.584 78.4386)" fill="#1E2037"/>
<rect width="11.7993" height="16.9754" transform="matrix(-1 0 0 1 292.742 61.4628)" fill="#292C51"/>
<rect width="7.07956" height="16.9754" transform="matrix(-1 0 0 1 280.941 61.4628)" fill="#1E2037"/>
<rect width="7.07956" height="25.4632" transform="matrix(-1 0 0 1 285.662 36)" fill="#1E2037"/>
<rect width="37.7577" height="4.88043" transform="matrix(-1 0 0 1 313.857 108.01)" fill="#272942"/>
<rect width="5.43225" height="5.80724" transform="matrix(-1 0 0 1 328.395 117.302)" fill="#272942"/>
<rect width="9.43941" height="4.88044" transform="matrix(-1 0 0 1 252.502 112.891)" fill="#272942"/>
<rect width="11.7993" height="4.88044" transform="matrix(-1 0 0 1 245.82 117.302)" fill="#272942"/>
<rect width="23.5985" height="4.88043" transform="matrix(-1 0 0 1 276.104 110.452)" fill="#272942"/>
<rect width="9.43942" height="4.88044" transform="matrix(-1 0 0 1 323.305 112.891)" fill="#272942"/>
<rect width="75.5153" height="4.88044" transform="matrix(-1 0 0 1 320.939 142.174)" fill="#272942"/>
<rect width="94.5211" height="4.64579" transform="matrix(-1 0 0 1 328.395 147.499)" fill="#272942"/>
<rect width="88.0024" height="4.64578" transform="matrix(-1 0 0 1 328.395 152.146)" fill="#272942"/>
<rect width="4.71971" height="24.4022" transform="matrix(-1 0 0 1 318.584 117.772)" fill="#272942"/>
<rect width="4.71971" height="24.4022" transform="matrix(-1 0 0 1 328.395 123.109)" fill="#272942"/>
<rect width="4.71971" height="29.2826" transform="matrix(-1 0 0 1 297.34 112.891)" fill="#272942"/>
<rect width="4.7197" height="26.8424" transform="matrix(-1 0 0 1 271.385 115.332)" fill="#272942"/>
<rect width="4.7197" height="26.8424" transform="matrix(-1 0 0 1 250.148 115.332)" fill="#272942"/>
<rect width="4.71971" height="26.8424" transform="matrix(-1 0 0 1 238.223 121.948)" fill="#272942"/>
<path d="M279.677 121.436C278.81 121.436 278.068 121.127 277.451 120.51C276.833 119.892 276.525 119.15 276.525 118.284C276.525 117.417 276.833 116.675 277.451 116.058C278.068 115.441 278.81 115.132 279.677 115.132C280.543 115.132 281.285 115.441 281.903 116.058C282.52 116.675 282.828 117.417 282.828 118.284C282.828 119.15 282.52 119.892 281.903 120.51C281.285 121.127 280.543 121.436 279.677 121.436ZM273.373 127.739V125.533C273.373 125.086 273.488 124.676 273.718 124.302C273.948 123.927 274.253 123.642 274.634 123.445C275.448 123.038 276.275 122.732 277.116 122.529C277.956 122.325 278.81 122.223 279.677 122.223C280.543 122.223 281.397 122.325 282.237 122.529C283.078 122.732 283.905 123.038 284.719 123.445C285.1 123.642 285.406 123.927 285.635 124.302C285.865 124.676 285.98 125.086 285.98 125.533V127.739H273.373ZM274.949 126.163H284.404V125.533C284.404 125.388 284.368 125.257 284.296 125.139C284.224 125.021 284.128 124.929 284.01 124.863C283.301 124.508 282.585 124.243 281.863 124.065C281.141 123.888 280.412 123.799 279.677 123.799C278.941 123.799 278.212 123.888 277.49 124.065C276.768 124.243 276.052 124.508 275.343 124.863C275.225 124.929 275.13 125.021 275.057 125.139C274.985 125.257 274.949 125.388 274.949 125.533V126.163ZM279.677 119.86C280.11 119.86 280.481 119.705 280.79 119.397C281.098 119.088 281.252 118.717 281.252 118.284C281.252 117.85 281.098 117.479 280.79 117.171C280.481 116.862 280.11 116.708 279.677 116.708C279.243 116.708 278.872 116.862 278.564 117.171C278.255 117.479 278.101 117.85 278.101 118.284C278.101 118.717 278.255 119.088 278.564 119.397C278.872 119.705 279.243 119.86 279.677 119.86Z" fill="#1E2037"/>
<path d="M274.02 126.416L276.843 125.438C277.876 125.08 278.961 124.897 280.054 124.897V124.897C281.563 124.897 283.052 125.245 284.404 125.915L285.417 126.416" stroke="#1E2037" stroke-width="3"/>
<path d="M274.02 126.417L277.132 125.877C277.978 125.73 278.835 125.657 279.693 125.657H280.519C281.734 125.657 282.944 125.804 284.124 126.096L285.417 126.417" stroke="#1E2037" stroke-width="3"/>
<path d="M280.858 119.485C280.782 118.923 280.515 118.303 280.268 118.077C280.149 117.969 279.982 118.074 279.829 118.326C279.676 118.578 279.524 119.025 279.541 119.283C279.558 119.541 279.747 119.596 279.957 119.318C280.168 119.04 280.395 118.426 280.436 118.11C280.477 117.794 280.326 117.794 280.173 117.877C279.845 118.056 279.599 118.357 279.427 118.553C279.339 118.654 279.369 118.917 279.425 119.059C279.535 119.336 279.901 119.316 280.244 119.26C280.402 119.234 280.512 119.092 280.532 118.923C280.58 118.529 280.286 118.078 280.058 117.712C279.644 117.05 278.912 117.342 278.721 117.511C278.531 117.678 278.567 118.186 278.624 118.552C278.672 118.864 278.986 118.976 279.157 119.257C279.541 119.888 280.284 119.429 280.493 119.233C280.665 118.869 280.743 118.416 280.705 117.994C280.667 117.795 280.592 117.628 280.514 117.456" stroke="#1E2037" stroke-width="2" stroke-linecap="round"/>
</svg>
