<svg width="1920" height="366" viewBox="0 0 1920 366" fill="none" xmlns="http://www.w3.org/2000/svg" xmlns:xlink="http://www.w3.org/1999/xlink">
<path d="M-1 188.281C130.5 84.3295 203.565 24.721 338 28.3556C359.304 252.001 227.19 221.876 1050.5 148.799C1077.77 146.379 1111.09 118.302 1140.5 115.815C1154.26 114.651 1168.76 92.0025 1183 90.8264C1194.99 89.8359 1231 73.3346 1241 78.3323C1245.23 95.1375 1219.96 165.761 1246 174.787C1351.69 211.42 1634.65 183.144 1919 187.282V365.198H-1V188.281Z" fill="url(#paint0_linear_386_935)"/>
<path d="M163.269 68.4772C166.339 67.0585 168.91 65.3666 171.299 63.4475C174.776 60.69 178.422 57.7959 183.598 55.2132C190.569 51.8035 193.271 51.3463 198.968 49.1047C200.589 48.4833 202.459 47.7073 204.753 46.6759C214.993 42.0557 225.666 38.3733 230.13 36.0598C230.552 35.8395 230.944 35.6494 231.316 35.4826C234.89 33.9073 236.247 34.499 242.252 32.0821C248.912 29.4582 253.11 28.3695 259.182 26.9607C260.498 26.6574 262.386 26.1785 264.611 25.5849C264.64 25.5755 264.727 25.5566 264.756 25.5512C272.975 24.625 285.481 21.4517 290.659 19.7213C290.689 19.7113 290.719 19.7014 290.748 19.6915C290.774 19.6846 290.85 19.6712 290.876 19.6674C297.863 18.3111 305.783 19.3601 310.517 19.5392C312 19.6058 313.168 19.701 314.063 19.7997C314.442 19.8416 314.618 19.9293 314.618 20.0158C314.618 20.0158 314.618 20.0159 314.618 20.0159C314.618 20.1237 314.345 20.2296 313.859 20.2432C311.494 20.3118 307.955 20.4756 303.796 20.927C298.005 21.5971 296.052 21.3025 291.15 21.8116L291.275 21.7879C289.64 22.1862 287.679 22.7069 285.139 23.4457C277.727 25.5914 272.476 27.3429 265.241 28.5694L265.502 28.5088C262.984 29.2935 260.228 30.0866 257.041 30.9363C246.91 33.6999 243.873 36.0267 233.176 40.005C231.271 40.7359 229.128 41.5133 226.649 42.3604C213.304 46.9372 210.191 49.6214 201.087 54.1497C198.96 55.2114 196.523 56.4266 193.58 57.9067C187.434 60.997 180.692 64.5822 174.435 68.3619C164.451 74.1104 155.098 77.9193 150.169 81.5087C148.933 82.3554 147.669 83.2798 146.412 84.2957C138.875 90.3588 129.897 98.5052 119.882 106.368C118.697 107.301 117.492 108.258 116.255 109.246C107.536 116.334 96.1639 122.346 90.5644 131.758C88.8659 134.612 87.0897 137.319 85.3773 139.934C82.0134 145.104 78.1637 151.1 76.5412 157.606C73.2972 169.339 67.7717 179.283 65.3289 185.455C62.3067 192.595 61.1548 195.925 60.1615 201.062C59.8062 203.032 59.3791 205.248 58.7486 208.01C57.4236 213.829 54.772 221.699 51.2317 227.72C49.3569 230.693 49.4678 229.801 50.8279 226.627C52.7257 221.929 54.219 218.012 54.5859 215.384C55.2435 210.118 55.5232 207.959 57.4173 201.687C57.5257 201.314 57.6233 200.952 57.7112 200.599C59.2322 194.753 59.2533 191.579 60.5883 188.101C62.0363 184.471 62.8114 184.671 69.5133 166.304C70.705 162.8 71.6578 159.583 72.2012 156.673C75.6569 142.647 81.5839 136.341 84.2527 131.039C84.6421 130.368 85.081 129.626 85.5524 128.823C89.8795 120.543 102.442 113.215 110.719 106.775C111.393 106.24 112.111 105.663 112.857 105.044C121.308 98.1499 134.508 86.6795 142.894 79.8375C144.395 78.6122 145.769 77.5964 146.914 76.7635C155.417 70.8868 155.98 71.9061 163.269 68.4772Z" fill="white"/>
<path d="M170.551 115.956C174.328 113.81 176.571 110.729 180.413 107.925C181.374 107.236 182.445 106.619 183.633 106.105C190.158 103.548 191.42 104.475 198.636 102.444C204.94 100.81 211.323 100.219 214.798 99.1657C215.319 99.0135 215.777 98.8562 216.165 98.6943C219.145 97.4257 219.846 98.6397 224.184 96.9776C228.509 95.2966 231.257 94.5739 235.282 93.7845C238.269 93.1822 245.68 91.2849 251.11 89.805L251.011 89.8372C252.792 89.0965 254.269 88.2737 255.258 87.625C256.58 86.7555 258.112 85.9657 259.739 85.4376C262.783 84.4622 265.752 84.3371 267.773 84.0512C268.741 83.9211 269.51 83.8649 270.104 83.8465C270.356 83.8389 270.485 83.9023 270.502 83.9871C270.502 83.9872 270.503 83.9873 270.503 83.9873C270.523 84.093 270.37 84.2317 270.06 84.3077C268.56 84.6818 266.301 85.2834 263.793 86.3415C262.436 86.9207 261.454 87.3267 260.585 87.6744C258.457 88.5008 256.958 89.1543 252.475 91.4059C252.238 91.5201 252.003 91.6315 251.768 91.7409C251.739 91.7513 251.654 91.7811 251.624 91.7879C245.503 93.7925 241.778 95.5556 234.222 97.4391C226.886 99.244 225.487 101.779 215.894 103.593C215.193 103.714 214.444 103.826 213.651 103.924C202.195 105.282 201.165 107.072 190.935 110.587C188.597 111.475 186.198 112.485 184.059 113.754C176.16 118.471 167.962 123.584 163.766 126.726C161.752 128.238 159.5 129.966 157.063 131.828C152.806 135.037 148.311 138.44 144.302 142.732C140.647 146.572 137.423 151.765 134.744 157.337C132.679 161.59 130.759 165.962 128.791 170.114C125.399 177.324 121.002 186.956 117.394 193.829C116.179 196.175 115.118 198.228 114.285 199.813C111.02 206.037 110.247 207.569 107.724 213.845C106.275 217.452 103.947 222.283 101.546 226.155C100.336 228.103 100.211 227.473 101.008 225.321C102.17 222.174 103.465 219.745 103.74 217.978C104.286 214.446 104.546 212.964 106.827 209.215C109.105 205.47 108.792 203.076 109.964 200.821C110.922 198.984 111.523 198.866 114.328 192.426C114.97 190.955 115.715 189.159 116.578 186.928C121.158 174.947 123.534 168.257 125.428 163.68C126.303 161.514 127.855 158.317 129.72 154.83C131.819 150.873 134.484 146.649 137.032 143.076C140.145 138.278 147.656 131.51 153.683 127.273C156.383 125.225 158.762 123.401 160.348 122.098C165.434 117.94 165.938 118.608 170.551 115.956Z" fill="white"/>
<path d="M228.055 143.251C230.784 142.794 232.17 140.151 235.457 139.405C238.742 138.674 239.533 139.567 243.136 138.266C246.752 136.97 250.656 136.759 252.212 135.932C253.774 135.104 254.253 136.377 256.548 135.575C258.856 134.782 260.351 134.68 262.511 134.76C263.427 134.796 265.133 134.7 266.955 134.567C266.959 134.566 266.971 134.565 266.975 134.565C269.437 134.432 272.129 134.21 273.47 133.822C275.807 133.13 278.547 134.022 280.145 134.246C280.647 134.314 281.04 134.409 281.342 134.507C281.47 134.549 281.529 134.637 281.529 134.724C281.529 134.724 281.529 134.724 281.529 134.724C281.529 134.831 281.437 134.937 281.273 134.951C280.477 135.018 279.283 135.189 277.893 135.606C275.315 136.401 275.005 135.592 271.521 136.22C269.903 136.523 268.609 136.906 267.257 137.224L267.294 137.219C265.774 137.617 264.192 137.942 261.982 138.069C257.829 138.347 257.338 140.488 251.431 140.74C245.493 141.079 245.444 143.303 239.999 145.241C234.554 147.194 227.256 148.529 223.995 149.855C220.738 151.164 216.435 153.091 211.736 154.742C211.313 154.891 210.885 155.051 210.455 155.22L211.07 154.859C207.5 157.501 204.284 161.863 200.97 165.468C197.266 169.403 192.634 175.662 190.504 178.583C188.363 181.49 187.851 182.239 186.477 185.421C185.691 187.256 184.347 189.641 182.863 191.515C182.122 192.449 181.879 192.062 182.222 190.907C182.724 189.224 183.508 188.043 183.484 187.021C183.434 184.997 183.455 184.144 185.006 182.401C186.557 180.671 185.975 179.128 186.75 178.046C187.555 176.969 188.082 177.321 191.143 171.303C194.279 165.301 196.502 162.248 198.017 160.132C199.536 158.001 203.598 154.324 206.824 151.394C207.098 151.141 207.401 150.873 207.729 150.599C207.842 150.499 208.222 150.295 208.357 150.229C212.333 148.374 219.185 145.856 221.977 144.467C225.028 142.937 225.324 143.72 228.055 143.251Z" fill="white"/>
<path d="M284.791 183.708C286.7 182.243 286.425 179.47 288.642 177.539C290.864 175.626 291.938 176.076 294.128 173.568C294.38 173.281 294.642 173.006 294.908 172.742L294.713 172.954C296.536 170.639 298.8 168.934 299.413 167.701C300.117 166.302 301.194 167.121 302.477 165.425C303.781 163.732 304.869 162.984 306.559 162.119C307.646 161.557 309.951 160.024 311.905 158.698C311.91 158.693 311.928 158.682 311.934 158.678C313.042 157.985 314.03 157.33 314.573 156.805C316.108 155.32 318.624 155.102 319.959 154.682C320.377 154.55 320.724 154.483 321.001 154.454C321.119 154.442 321.204 154.498 321.242 154.575C321.242 154.575 321.242 154.575 321.242 154.576C321.291 154.672 321.267 154.802 321.146 154.878C320.56 155.245 319.715 155.861 318.815 156.76C317.157 158.446 316.544 157.825 314.124 159.67C313.751 159.96 313.412 160.247 313.094 160.53L313.143 160.497C311.493 162.111 310.422 163.504 307.921 165.13C304.965 167.14 305.794 169.09 301.612 171.942C299.574 173.377 298.856 174.596 298.318 175.888C298.281 175.928 298.175 176.053 298.133 176.089C297.409 177.376 296.863 178.782 295.195 180.708C291.939 184.448 286.921 188.431 285.066 190.829C283.204 193.21 280.862 196.517 278.083 199.776C275.367 202.952 272.974 207.515 270.191 211.171C270.117 211.268 270.043 211.365 269.968 211.461C267.052 215.12 263.526 220.797 261.995 223.502C260.446 226.194 260.083 226.894 259.455 229.8C259.11 231.474 258.426 233.669 257.645 235.57C257.261 236.532 256.895 236.288 256.844 235.228C256.784 233.681 257.237 232.495 256.954 231.625C256.406 229.871 256.246 229.068 257.391 227.337C258.547 225.632 257.707 224.33 258.273 223.288C258.875 222.269 259.409 222.525 261.439 217C263.067 212.753 264.459 210.115 265.482 208.225C265.782 207.676 266.063 207.174 266.307 206.736C267.385 204.78 270.504 201.327 272.438 198.302C274.343 195.242 279.023 189.642 280.637 187.156C282.238 184.654 282.884 185.189 284.791 183.708Z" fill="white"/>
<path d="M523.734 293.839C534.129 296.841 542.839 295.296 556.075 296.055C561.582 296.341 565.2 296.649 568.59 296.941C573.045 297.269 577.417 297.31 585.758 294.772C594.652 291.984 603.283 288.056 609.892 284.659C613.862 282.614 617.11 280.742 619.236 279.32C624.896 275.522 626.164 276.27 634.434 271.138C642.609 266.171 647.952 263.44 656.03 260.991C656.171 260.951 656.312 260.91 656.454 260.869C662.874 258.861 681.592 253.136 693.462 257.007C696.36 257.684 698.367 259.392 699.726 260.611C703.527 264.172 706.076 268.908 708.494 273.099L708.411 272.985C710.258 275.435 712.269 277.542 714.458 278.627C715.378 279.087 716.323 279.37 717.208 279.548C719.142 279.922 720.741 279.985 721.957 280.098C722.473 280.141 722.713 280.228 722.713 280.315C722.713 280.315 722.713 280.315 722.713 280.315C722.712 280.422 722.343 280.529 721.676 280.54C719.702 280.532 717.024 280.744 714.015 279.644C712.151 278.936 710.353 277.672 708.673 276.149C707.974 275.517 707.367 274.897 706.821 274.306C706.804 274.284 706.754 274.216 706.74 274.192C704.445 270.914 703.127 268.724 701.47 266.273C699.752 264.034 697.974 260.389 692.981 258.951C692.436 258.828 691.888 258.716 691.296 258.608C678.482 256.49 670.665 259.806 657.1 264.1C655.936 264.475 654.721 264.901 653.471 265.369C638.041 271.672 636.226 276.272 614.752 287.006C613.753 287.492 612.794 287.957 611.872 288.4C593.17 296.481 590.667 301.26 568.506 303.213C567.808 303.216 567.101 303.216 566.386 303.213C550.056 303.129 529.875 302.206 515.178 296.609C508.877 294.497 503.056 292.705 498.813 290.82C494.291 288.855 489.077 285.934 485.166 280.849C478.178 271.841 470.124 261.567 460.84 252.039C460.488 251.681 460.123 251.316 459.762 250.961C452.021 243.402 443.468 234.889 434.133 227.292C426.648 222.144 415.811 219.491 406.378 217.669C397.426 216.076 386.354 215.174 376.625 218.215C363.103 222.811 352.738 233.353 346.731 239.092C346.7 239.122 346.67 239.152 346.64 239.181C337.765 248.188 335.263 251.809 330.35 260.844C329.699 262.093 329.074 263.485 328.484 265.061C325.619 272.488 323.924 283.529 321.995 292.757C321.025 297.404 320.806 296.289 321.328 291.542C322.075 284.596 323.191 278.963 323.499 275.322C324.1 269.04 324.467 265.633 327.885 259.512C328.415 258.619 329.011 257.665 329.692 256.635C334.832 248.993 336.69 244.892 340.321 240.864C341.718 239.36 342.67 238.529 344.324 236.969C347.194 234.632 350.906 229.321 364.92 219.424C368.336 217.188 371.777 215.396 375.212 214.136C395.745 208.152 408.282 212.572 416.89 214.095C421.962 215.482 429.643 217.148 437.681 222.973C444.452 228.668 451.25 235.408 457.326 241.107C459.161 242.83 461.263 244.83 463.56 247.015C472.337 255.337 482.082 267.52 489.681 277.419C493.054 281.807 497.726 284.151 501.07 285.527C509.599 288.737 512.47 289.49 516.856 291.379C518.638 292.114 520.717 292.94 523.734 293.839Z" fill="white"/>
<path d="M866.657 201.133C874.895 204.311 881.472 207.313 889.108 214.067C896.587 220.669 896.947 222.737 906.245 228.656L905.752 228.42C905.881 228.461 906.011 228.503 906.144 228.544C917.052 232.043 928.168 235.148 933.3 235.642C938.415 236.119 938.708 237.579 946.008 238.326C953.267 239.009 957.656 239.633 963.995 240.625C970.112 241.672 988.713 242.938 996.452 242.515L996.296 242.524C996.557 242.473 996.802 242.421 997.032 242.37C1003.96 240.94 1011.84 239.27 1016.45 237.456C1017.88 236.919 1019.02 236.515 1019.91 236.23C1020.28 236.109 1020.48 236.116 1020.52 236.195C1020.52 236.195 1020.52 236.195 1020.52 236.195C1020.56 236.293 1020.35 236.504 1019.89 236.721C1017.68 237.766 1014.43 239.445 1010.42 241.22C1004.46 243.73 1002.41 243.729 996.577 244.606C996.545 244.609 996.449 244.616 996.416 244.615C994.813 244.587 993.007 244.577 990.673 244.594C979.79 244.635 973.174 245.108 960.401 243.489C947.708 241.654 944.392 243.592 926.715 238.89C915.616 235.692 910.725 234.695 904.14 233.133C904.02 233.089 903.685 232.934 903.578 232.863C900.034 231.02 896.063 228.671 890.773 224.489C880.466 216.313 869.692 204.937 858.818 204.794C854.351 204.491 850.455 204.257 847.46 204.173C836.675 203.969 822.063 203.351 807.305 205.373C804.033 205.862 800.648 206.625 797.389 207.85C785.341 212.321 772.7 218.982 760.35 224.052C756.292 225.653 751.799 227.477 746.653 228.485C732.409 231.318 715.823 231.057 708.244 226.104C706.082 224.839 704.481 223.426 703.261 222.021C699.007 217.136 696.701 214.562 690.647 208.787C686.161 204.672 680.327 198.48 674.078 195.226C672.481 194.462 671.801 194.263 672.039 194.135C672.261 194.029 673.441 194.094 675.18 194.782C680.219 196.909 683.352 200.122 685.753 201.519C690.485 204.475 692.441 205.902 696.86 211.235C700.539 215.729 703.302 217.531 705.664 219.795C706.055 220.164 706.447 220.525 706.852 220.907C708.141 222.055 708.704 222.794 711.163 224.081C713.626 225.265 718.314 227.088 728.23 226.516C735.061 226.072 740.804 224.896 745.652 223.769C754.253 221.37 760.132 218 764.657 215.943C771.019 212.884 784.145 207.178 795.531 202.873C796.556 202.482 797.58 202.13 798.589 201.809C811.37 197.289 837.343 198.403 847.617 198.421C853.815 198.429 856.284 198.754 859.06 199.175C861.093 199.486 863.277 199.919 866.657 201.133Z" fill="white"/>
<path d="M1147.17 165.5C1148.97 164.951 1150.36 163.938 1151.95 162.946C1153.34 162.057 1154.92 161.095 1157.07 160.67C1161.52 159.864 1162.35 160.843 1167.24 159.889C1169.25 159.52 1171.29 159.369 1173.13 159.278C1173.16 159.274 1173.23 159.271 1173.26 159.269C1175.89 159.285 1178.11 159.388 1179.39 159.097C1181.55 158.607 1181.81 159.957 1184.89 159.615C1187.98 159.277 1189.85 159.44 1192.55 159.864C1195.25 160.284 1203.53 160.639 1206.55 160.098C1209.56 159.554 1212.99 160.493 1215.06 160.716C1215.7 160.785 1216.21 160.88 1216.6 160.979C1216.76 161.021 1216.84 161.108 1216.84 161.195C1216.84 161.195 1216.84 161.195 1216.84 161.195C1216.84 161.303 1216.72 161.409 1216.51 161.422C1215.48 161.488 1213.95 161.663 1212.14 162.053C1208.76 162.783 1208.39 161.977 1203.83 162.357C1199.27 162.74 1196.54 163.493 1191.18 163.043C1185.81 162.607 1184.61 164.615 1177.05 163.64C1175.63 163.461 1174.45 163.4 1173.42 163.422L1173.52 163.415C1169.12 163.794 1167.58 165.318 1161.9 166.646C1159.36 167.267 1156.71 167.945 1153.88 168.75C1149.28 169.994 1144.91 171.894 1142.63 173.43C1139.02 175.827 1134.58 179.599 1130.83 184.256C1130.19 185.046 1129.59 185.912 1129.04 186.838C1125.88 192.12 1121.7 197.171 1118.16 201.569C1116.1 204.094 1113.94 207.273 1112.77 210.62C1111.39 214.514 1110.34 218.251 1109.69 220.579C1108.47 225.045 1108.21 226.174 1107.97 230.619C1107.84 233.179 1107.44 236.651 1106.86 239.625C1106.58 241.122 1106.19 240.794 1106.03 239.26C1105.8 237.018 1106.1 235.198 1105.71 234.013C1104.94 231.643 1104.67 230.593 1105.58 227.757C1106.5 224.938 1105.48 223.393 1105.9 221.724C1106.39 220.066 1106.89 220.211 1108.36 211.638C1108.5 210.903 1108.64 210.197 1108.78 209.52C1110.7 201.769 1113.81 198.348 1115.41 195.805C1117.25 193.052 1122.15 188.417 1124.45 184.108C1124.48 184.052 1124.51 183.997 1124.54 183.943C1127.02 178.636 1135.75 171.099 1139.53 168.584C1143.23 165.878 1143.7 166.632 1147.17 165.5Z" fill="white"/>
<path d="M1163.63 214.987C1164.92 213.957 1164.1 211.665 1165.68 210.337C1167.25 209.064 1168.22 209.633 1169.66 207.937C1169.86 207.695 1170.09 207.467 1170.33 207.252C1170.34 207.239 1170.38 207.207 1170.4 207.194C1171.79 206.024 1173.42 205.356 1173.81 204.551C1174.28 203.608 1175.2 204.608 1176.08 203.543C1176.95 202.477 1177.71 202.119 1178.91 201.754C1180.11 201.387 1183.21 199.512 1183.93 198.294C1184.65 197.072 1186.41 196.928 1187.26 196.567C1187.53 196.454 1187.76 196.398 1187.96 196.376C1188.04 196.367 1188.12 196.417 1188.17 196.486C1188.17 196.486 1188.17 196.486 1188.17 196.486C1188.24 196.573 1188.26 196.688 1188.19 196.754C1187.88 197.075 1187.45 197.614 1187.05 198.399C1186.32 199.863 1185.7 199.315 1184.35 200.806C1182.99 202.299 1182.5 203.609 1180.36 204.639C1178.22 205.677 1179.04 207.589 1175.78 208.72C1174.31 209.236 1173.72 209.913 1173.32 210.697L1173.38 210.644C1172.94 211.607 1172.78 212.705 1171.73 214.007C1169.81 216.334 1166.72 218.69 1166 220.359C1165.26 221.977 1164.65 224.165 1164.11 226.48C1164.05 226.715 1164.01 226.959 1163.98 227.208C1163.98 227.233 1163.98 227.312 1163.97 227.338C1163.58 229.797 1164 232.783 1163.58 235.492C1163.08 238.509 1162.68 242.891 1162.38 244.931C1162.08 246.972 1162.02 247.469 1162.38 249.403C1162.59 250.514 1162.53 252.085 1162 253.404C1161.73 254.062 1161.35 253.915 1161.16 253.26C1160.88 252.318 1161.02 251.519 1160.52 251.054C1159.52 250.116 1159.13 249.722 1159.62 248.446C1160.1 247.167 1158.8 246.651 1158.9 245.912C1159.01 245.167 1159.74 245.148 1158.98 241.438C1158.24 237.713 1158.09 235.613 1157.96 234.164C1157.82 232.706 1158.55 229.696 1158.58 227.276C1158.59 227.098 1158.59 226.908 1158.6 226.707L1158.59 226.84C1158.49 223.986 1160.23 219.52 1160.91 217.693C1161.59 215.652 1162.34 216.073 1163.63 214.987Z" fill="white"/>
<path d="M1327.04 257.721C1330.96 257.477 1333.5 254.826 1338.11 253.925C1342.72 252.975 1343.72 253.829 1348.82 251.918C1353.9 249.989 1359.24 248.706 1361.33 247.376C1363.4 246.046 1364.16 247.21 1367.22 245.565C1367.96 245.163 1368.64 244.814 1369.29 244.504C1369.29 244.502 1369.31 244.497 1369.31 244.495C1371.36 243.553 1373.08 243.043 1375.36 242.511C1378.04 241.847 1385.44 239.618 1389.29 238.246C1389.77 238.069 1390.19 237.902 1390.53 237.744C1393.7 236.292 1397.75 236.358 1400.08 236.122C1400.8 236.045 1401.38 236.026 1401.83 236.037C1402.02 236.042 1402.12 236.111 1402.14 236.196C1402.14 236.196 1402.14 236.196 1402.14 236.196C1402.16 236.301 1402.05 236.431 1401.82 236.492C1400.7 236.784 1399.03 237.291 1397.13 238.114C1394.06 239.472 1393.23 239.129 1389.85 240.186C1389.36 240.342 1388.82 240.529 1388.21 240.76C1383.43 242.611 1380.8 244.295 1375.06 246.037C1373.24 246.598 1371.96 247.245 1370.79 247.93L1370.81 247.92C1368.26 249.444 1366.21 251.132 1360.42 252.562C1351.95 254.535 1351.83 256.835 1343.57 259.605C1335.29 262.369 1324.2 263.204 1319 263.762C1313.8 264.415 1306.65 265.05 1299.15 263.959C1295.05 263.368 1290.4 262.659 1285.79 261.256C1282.2 260.168 1278.55 259.052 1275.15 257.729C1269.94 255.712 1263.22 253.012 1258.12 250.456C1255.99 249.384 1253.97 248.709 1252.46 248.283C1247.53 247.05 1246.14 246.997 1241.24 247.701C1238.43 248.161 1234.58 248.862 1231.21 249.374C1229.52 249.635 1229.75 249.149 1231.34 248.454C1233.68 247.45 1235.75 247.157 1236.94 246.43C1239.34 245.002 1240.5 244.418 1243.93 244.76C1247.31 245.174 1248.98 244.082 1251.01 244.472C1252.73 244.968 1252.94 245.039 1259.47 247.234C1260.32 247.554 1261.3 247.898 1262.42 248.263C1271.5 251.13 1276.62 252.407 1280.12 253.414C1281.89 253.9 1284.55 254.871 1287.5 255.939C1290.26 256.956 1293.42 257.783 1296.25 258.112C1301.89 259.011 1313.68 259.092 1318.36 258.043C1323.03 257.119 1323.14 257.912 1327.04 257.721Z" fill="white"/>
<path d="M1648.71 237.046C1651.78 239.907 1655.32 240.875 1659.28 242.768C1660.32 243.259 1661.39 243.811 1662.51 244.475C1667.99 247.612 1668.47 248.974 1675.43 251.598C1682.43 254.15 1689.16 257.636 1692.42 258.565C1693.74 258.932 1694.49 259.386 1695.22 259.905L1694.8 259.769C1695.94 260.273 1697.09 260.924 1699.86 261.165C1704.52 261.536 1707.31 261.961 1711.39 262.699C1715.45 263.516 1728.16 264.151 1732.77 263.45C1733.41 263.363 1734.06 263.303 1734.73 263.263L1734.68 263.265C1738.71 262.909 1742.98 263.057 1745.7 262.72C1746.68 262.607 1747.46 262.547 1748.06 262.527C1748.32 262.519 1748.45 262.582 1748.47 262.667C1748.47 262.667 1748.47 262.667 1748.47 262.667C1748.49 262.772 1748.33 262.912 1748.02 262.989C1746.48 263.36 1744.21 264.002 1741.46 264.755C1738.45 265.57 1736.95 265.559 1734.82 265.611C1734.81 265.611 1734.79 265.613 1734.78 265.613C1733.3 265.591 1731.51 265.585 1728.61 265.751C1721.58 266.115 1717.29 266.805 1709.01 265.701C1702.71 264.77 1699.98 265.574 1693.83 264.397C1693.73 264.372 1693.42 264.282 1693.33 264.236C1691.62 263.497 1689.64 262.546 1687.22 261.248C1676.92 255.746 1674.94 257.599 1663.99 252.954C1661.32 251.775 1658.54 250.326 1655.83 248.671C1647.39 243.618 1640.39 236.379 1636.52 232.845C1632.38 229.314 1627.38 223.781 1621.39 224.302C1619.45 224.417 1617.43 224.568 1615.41 224.732C1605.65 225.506 1593.76 228.42 1582.9 229.878C1574.06 231.027 1562.18 232.783 1553.93 232.403C1552.06 232.309 1550.42 232.143 1549.07 231.968C1541.88 230.887 1540.21 230.429 1533.41 228.971C1529.52 228.083 1524.33 226.142 1520.3 223.823C1518.28 222.652 1518.92 222.523 1521.13 223.258C1524.35 224.32 1526.92 225.415 1528.72 225.515C1532.32 225.684 1533.77 225.76 1537.86 227.292C1542 228.772 1544.24 227.779 1546.68 228.211C1548.48 228.475 1548.91 229.071 1553.94 229.15C1555.79 229.155 1558.31 228.967 1561.82 228.409C1574.58 226.202 1581.63 224.474 1586.5 223.517C1591.37 222.5 1601.74 221.26 1609.83 219.958C1612.71 219.489 1616.72 218.972 1621 218.66C1631.1 218.031 1637.13 226.438 1640.4 228.599C1645.51 232.776 1644.91 233.38 1648.71 237.046Z" fill="white"/>
<path d="M1568.68 272.369C1574.43 274.179 1579.42 273.889 1586.03 276.356C1592.63 278.784 1593.31 280.194 1601.16 281.971C1604.79 282.757 1608.37 283.621 1611.57 284.312L1611.33 284.28C1615.16 284.688 1618.41 284.981 1620.37 284.849C1623.99 284.594 1624.31 285.975 1629.45 285.892C1634.6 285.797 1637.7 286.067 1642.18 286.611C1645.74 287.049 1655.21 287.5 1661.43 287.16C1663.04 287.077 1664.43 286.947 1665.45 286.784C1670.4 286.02 1676.06 286.272 1679.36 285.315C1680.39 285.046 1681.2 284.82 1681.84 284.673C1682.11 284.611 1682.26 284.645 1682.29 284.725C1682.29 284.725 1682.29 284.725 1682.29 284.725C1682.33 284.825 1682.19 284.997 1681.87 285.14C1680.31 285.846 1677.92 286.891 1674.93 287.79C1669.46 289.33 1668.66 288.584 1661.48 289.168C1661.33 289.179 1661.16 289.191 1661 289.203C1653.35 289.724 1648.75 290.417 1639.77 289.725C1630.81 288.97 1628.66 290.979 1616.03 289.084C1614.13 288.789 1612.48 288.571 1611.01 288.415C1610.97 288.411 1610.85 288.397 1610.81 288.389C1602.67 286.538 1599.73 287.53 1589.23 284.649C1576.94 281.093 1562.71 274.268 1555.93 276.669C1555.9 276.675 1555.86 276.682 1555.83 276.689C1551.82 277.447 1547.39 280.401 1541.41 282.963C1538.05 284.354 1534.62 286.374 1531.07 288.571C1524.95 291.811 1518.4 299.453 1507.35 297.765C1503.52 296.908 1499.49 296.195 1495.66 295.228C1488.82 293.521 1479.99 290.952 1473.55 286.098C1469.23 282.851 1465.72 279.547 1463.46 277.236C1458.05 271.537 1456.84 270.097 1451.91 264.381C1449.13 261.07 1445.83 255.922 1444.37 251.042C1443.67 248.584 1444.22 249.024 1445.37 251.244C1447.11 254.462 1448.58 257.094 1450.01 258.405C1452.9 260.989 1454.08 261.993 1456.69 265.969C1459.36 269.925 1461.88 270.627 1463.73 272.641C1465.65 274.471 1464.78 275.613 1475.7 282.982C1475.91 283.115 1476.13 283.247 1476.35 283.38C1488.28 289.598 1496.56 289.526 1501.74 290.701C1503.5 290.998 1505.87 291.473 1508.64 292.174C1512.63 293.518 1518.91 290.347 1523.61 287.006C1527.21 284.567 1532.76 280.424 1539.25 277.702C1544.69 275.338 1550.54 271.879 1554.63 271.063C1554.68 271.049 1554.74 271.035 1554.79 271.021C1562.6 269.548 1562.86 270.885 1568.68 272.369Z" fill="white"/>
<path d="M1842.62 237.105C1844.2 237.713 1845.72 235.806 1847.7 236.365C1849.67 236.935 1849.79 238.055 1852.09 238.203C1854.39 238.359 1856.48 239.571 1857.56 239.357C1858.52 239.17 1858.49 240.178 1859.44 240.459L1859.31 240.433C1859.44 240.461 1859.6 240.472 1859.77 240.46C1861.17 240.355 1861.96 240.612 1863.14 241.152C1864.3 241.713 1868.09 242.232 1869.48 241.693C1870.86 241.17 1872.43 242.111 1873.38 242.334C1873.68 242.404 1873.91 242.499 1874.09 242.598C1874.17 242.64 1874.2 242.727 1874.2 242.814C1874.2 242.814 1874.2 242.814 1874.2 242.814C1874.2 242.922 1874.15 243.028 1874.05 243.041C1873.58 243.107 1872.87 243.282 1872.04 243.67C1870.47 244.391 1870.31 243.592 1868.19 243.927C1866.07 244.247 1864.72 244.956 1862.22 244.256C1860.77 243.836 1859.89 244.305 1858.69 244.42C1858.65 244.411 1858.53 244.395 1858.5 244.382C1857.7 244.406 1856.79 244.261 1855.5 243.498C1852.37 241.676 1851.6 243.685 1848.24 243.44C1844.89 243.199 1840.77 241.671 1838.72 241.69C1836.69 241.691 1833.98 241.892 1831.12 241.776C1830.72 241.759 1830.3 241.766 1829.87 241.793L1830.68 241.598C1828.2 242.586 1825.55 244.226 1822.81 244.958C1819.61 245.811 1815.08 247.09 1812.91 247.494C1810.75 247.899 1810.23 248.001 1808.35 248.932C1807.26 249.463 1805.61 249.832 1804.12 249.619C1803.38 249.508 1803.46 249.101 1804.08 248.765C1804.99 248.269 1805.83 248.203 1806.18 247.595C1806.88 246.377 1807.15 245.903 1808.55 245.99C1809.96 246.067 1810.09 244.659 1810.84 244.52C1811.6 244.369 1811.87 245.095 1815.25 243.043C1818.62 240.976 1820.53 239.965 1821.85 239.246C1823.16 238.524 1826.3 237.875 1828.47 236.724C1828.52 236.696 1828.58 236.668 1828.63 236.639C1828.79 236.555 1829.28 236.472 1829.46 236.441C1832.03 235.996 1836.96 236.187 1838.98 235.942C1841.06 235.668 1841.02 236.508 1842.62 237.105Z" fill="white"/>
<path d="M1847.17 297.594C1849.21 297.903 1850.65 295.753 1853.08 295.883C1855.49 296.006 1855.95 297.085 1858.62 296.58C1861.26 296.086 1863.97 296.302 1864.85 295.522C1865.51 294.929 1865.99 295.56 1866.75 295.39L1866.48 295.571C1866.69 295.47 1866.91 295.301 1867.11 295.02C1868.06 293.707 1868.79 293.083 1870.02 292.171C1870.7 291.666 1871.89 290.298 1872.7 288.793C1873.35 287.605 1873.77 286.348 1873.78 285.577C1873.82 283.857 1875.21 282.264 1875.71 281.168C1875.87 280.83 1876.03 280.573 1876.18 280.383C1876.24 280.302 1876.34 280.281 1876.42 280.302C1876.42 280.302 1876.42 280.302 1876.42 280.302C1876.53 280.329 1876.62 280.419 1876.6 280.54C1876.52 281.124 1876.48 282.011 1876.59 283.121C1876.75 285.206 1875.97 285.196 1875.34 287.83C1875.15 288.558 1874.99 289.22 1874.81 289.856C1874.33 291.517 1873.79 293.037 1872.07 294.715C1870.55 296.142 1870.35 297.374 1869.12 298.768C1869.04 298.824 1868.82 298.995 1868.73 299.035C1867.79 299.715 1866.49 300.215 1864.71 300.21C1860 300.007 1859.84 302.002 1855.46 302.662C1851.11 303.242 1845.72 302.414 1843.21 302.816C1840.7 303.192 1837.42 303.88 1834.02 304.492C1830.56 305.103 1826.99 307.304 1824.07 309.179C1823.34 309.637 1822.58 310.201 1821.85 310.868C1819.29 313.278 1816.51 315.872 1814.94 317.181C1812.87 318.906 1812.38 319.331 1810.82 321.384C1809.89 322.536 1808.39 324.036 1806.49 324.533C1805.97 324.64 1805.76 324.417 1805.83 324.274C1805.86 324.121 1805.97 323.979 1806.25 323.705C1807.04 322.882 1807.88 322.254 1808.01 321.481C1808.24 319.907 1808.31 319.294 1809.82 318.48C1811.32 317.657 1810.89 316.235 1811.62 315.624C1812.35 315.004 1812.92 315.516 1815.62 311.452C1816.6 309.989 1817.42 308.778 1818.13 307.75C1819.62 305.673 1820.98 304.528 1822.01 303.672C1823.65 302.261 1827.77 300.905 1830.75 299.799C1833.76 298.511 1840.1 297.7 1842.56 297.099C1845.04 296.454 1845.13 297.294 1847.17 297.594Z" fill="white"/>
<path d="M109.475 277.787C110.085 279.862 111.788 281.101 112.967 283.326C113.328 283.933 113.655 284.58 113.899 285.356C114.895 288.227 114.216 289.268 116.612 292.191C119.052 295.05 121.3 298.302 122.867 299.194C124.431 300.068 123.634 301.187 125.695 302.644C127.756 304.085 128.794 305.209 130.178 306.979C130.789 307.759 132.087 309.104 133.538 310.475C133.548 310.483 133.576 310.51 133.586 310.519C135.346 312.445 137.03 314.62 138.183 315.299C138.571 315.541 138.928 315.805 139.27 316.068C140.662 317.165 142.301 318.478 143.535 319.1C144.005 319.338 144.368 319.558 144.638 319.753C144.752 319.835 144.784 319.938 144.757 320.02C144.757 320.02 144.757 320.02 144.757 320.02C144.722 320.123 144.597 320.193 144.429 320.151C143.607 319.939 142.368 319.739 140.791 319.452C139.263 319.155 138.521 318.62 137.763 317.932C137.058 317.279 136.357 316.454 135.029 315.188C133.811 314.027 132.773 313.185 131.725 312.389L131.82 312.477C130.361 311.511 128.93 310.444 127.244 308.639C124.246 305.372 122.046 306.284 118.292 300.983C114.774 295.555 112.617 296.592 108.844 290.809C107.885 289.201 107.082 287.304 106.555 285.315C105.507 281.303 103.475 276.607 102.311 274.092C100.613 270.678 98.3938 265.641 97.9994 259.947C97.5143 254.359 97.4422 247.279 99.3943 241.488C99.8627 240.067 100.422 238.515 101.058 236.913C102.93 232.182 105.331 227.294 106.725 224.763C108.585 221.39 109.06 220.589 110.277 217.118C110.963 215.116 112.274 212.571 113.412 210.409C113.93 209.298 114.291 209.589 114.149 210.903C113.887 212.79 113.117 214.114 113.209 215.172C113.37 217.278 113.375 218.172 111.927 220.119C110.48 222.058 111.203 223.577 110.542 224.774C109.907 225.978 109.112 225.655 107.217 232.33C106.576 234.675 106.079 236.656 105.679 238.339C104.955 241.412 104.579 243.524 104.347 245.119C103.95 247.601 102.621 252.775 103.151 256.825C103.36 260.867 105.566 268.771 107.53 271.669C109.329 274.609 108.631 274.97 109.475 277.787Z" fill="white"/>
<path d="M76.7191 290.908C78.5002 294.032 81.8943 294.846 84.6014 298.216C87.356 301.577 87.0483 302.825 90.8132 306.187C94.5863 309.528 97.821 313.481 99.7982 314.658C101.772 315.828 101.045 317.002 103.651 318.894C106.26 320.778 107.615 322.175 109.467 324.329C110.255 325.246 111.856 326.829 113.66 328.458L113.625 328.431C116.141 330.494 119.17 332.481 120.844 333.202C123.755 334.458 126.282 337.148 127.993 338.482C128.525 338.897 128.923 339.257 129.214 339.556C129.337 339.682 129.358 339.798 129.312 339.872C129.312 339.872 129.312 339.872 129.312 339.872C129.255 339.963 129.095 339.988 128.9 339.883C127.958 339.371 126.508 338.672 124.699 337.994C121.327 336.716 121.422 335.856 117.233 333.517C115.286 332.414 113.643 331.571 112.017 330.568C112.004 330.557 111.962 330.526 111.949 330.514C110.177 329.298 108.417 327.944 106.302 325.799C102.364 321.771 100.027 322.468 94.8968 316.269C89.8418 310.029 87.7768 311.028 81.9539 305.498C78.0611 301.744 74.1465 296.642 71.4135 292.197C71.4007 292.177 71.3593 292.119 71.3473 292.098C70.1952 290.033 69.1029 288.226 68.2155 286.942C65.5282 283.041 61.6156 277.66 59.1363 271.01C56.5846 264.488 54.1482 255.765 54.9339 247.971C55.2736 243.96 56.141 239.239 57.3169 235.005C58.3979 231.076 59.5852 227.564 60.407 225.34C62.1242 220.757 62.5732 219.663 63.7134 215.116C64.3671 212.506 65.6504 209.041 66.9991 206.194C67.6598 204.753 67.9541 205.179 67.7107 206.771C67.337 209.088 66.5821 210.854 66.6852 212.133C66.8811 214.699 66.9212 215.767 65.508 218.466C64.0984 221.171 64.918 222.877 64.3028 224.504C63.7343 226.135 62.8323 225.899 61.4207 234.603C61.359 235.017 61.3002 235.421 61.2441 235.817C60.1716 243.691 60.3728 248.082 60.5595 251.12C60.7117 254.282 60.9376 261.065 62.9861 265.928C64.6739 270.867 70.0791 280.234 72.9966 283.741C75.1496 286.453 75.2636 287.386 75.9126 289.179L75.8544 289.092C76.0474 289.592 76.3175 290.19 76.7191 290.908Z" fill="white"/>
<path d="M183.916 265.918C184.765 269.154 187.751 270.621 189.247 274.454C190.048 276.509 190.211 277.777 190.513 279.151L189.972 278.363C190.629 279.376 191.413 280.409 193.049 281.855C196.546 284.949 199.435 288.689 201.266 289.774C203.095 290.855 202.334 292.005 204.727 293.766C207.121 295.519 208.343 296.833 210.004 298.853C211.086 300.168 213.928 302.938 216.55 304.991C216.557 304.996 216.576 305.013 216.583 305.018C217.959 306.219 219.205 307.293 220.074 307.859C222.565 309.483 224.25 312.495 225.498 314.055C225.887 314.542 226.165 314.954 226.359 315.288C226.441 315.429 226.431 315.543 226.37 315.604C226.37 315.604 226.37 315.604 226.37 315.605C226.293 315.681 226.138 315.675 225.985 315.541C225.24 314.89 224.073 313.968 222.563 313.02C219.741 311.268 220.07 310.411 216.625 307.724C216.116 307.333 215.628 306.981 215.154 306.656L215.208 306.701C212.298 304.887 209.988 303.585 206.911 300.368C203.335 296.579 201.075 297.299 196.485 291.448C192.294 286.022 190.274 286.459 185.715 282.608C185.541 282.417 185.121 281.848 185.026 281.607C184.8 281.198 184.567 280.76 184.326 280.286C181.022 274.008 178.052 264.837 176.804 260.479C175.362 256.171 173.879 250.08 173.916 243.626C173.885 237.211 173.86 229.235 175.54 222.435C175.57 222.307 175.602 222.178 175.634 222.047C177.267 215.438 179.352 206.199 180.627 201.948C181.915 197.617 182.229 196.577 183.034 192.309C183.506 189.859 184.608 186.576 186.071 184.022C186.81 182.737 187.054 183.183 186.756 184.612C186.326 186.706 185.658 188.322 185.813 189.503C186.134 191.86 186.253 192.811 185.071 195.34C183.9 197.885 184.878 199.424 184.418 200.954C183.978 202.495 183.179 202.309 182.364 210.479C181.817 216.16 181.379 220.069 181.006 222.97C180.844 224.244 180.73 225.26 180.635 226.198C180.307 229.211 178.977 235.483 179.262 240.393C179.303 245.326 180.573 255.13 182.302 258.783C183.867 262.433 183.122 262.697 183.916 265.918Z" fill="white"/>
<path d="M274.727 282.003C275.097 282.816 275.722 283.379 276.439 283.898L276.276 283.697C277.557 284.422 279.054 284.962 280.157 286.414C281.921 288.726 281.429 289.799 283.919 292.014C286.406 294.22 288.264 297.078 289.642 297.776C291.02 298.474 290.191 299.563 291.941 300.779C293.691 301.988 294.506 302.957 295.602 304.504C296.43 305.686 299.025 308.284 301.117 309.744L301.106 309.735C301.757 310.178 302.351 310.519 302.815 310.7C304.784 311.469 306.179 313.553 307.241 314.53C307.57 314.833 307.806 315.105 307.974 315.335C308.044 315.433 308.039 315.535 307.991 315.607C307.991 315.607 307.991 315.607 307.991 315.607C307.932 315.696 307.805 315.74 307.677 315.67C307.053 315.333 306.08 314.896 304.826 314.513C302.487 313.782 302.728 312.985 299.972 311.404C299.944 311.388 299.917 311.372 299.889 311.356C299.886 311.353 299.876 311.346 299.873 311.344C297.2 309.728 295.243 309.049 292.787 306.251C290.338 303.411 288.31 304.322 285.316 299.834C282.382 295.335 280.504 296.437 276.67 292.823C275.058 291.293 273.485 289.383 272.056 287.513C272.013 287.459 271.876 287.304 271.839 287.246C270.162 284.494 268.761 281.861 267.683 280.388C265.811 277.835 263.24 274.433 261.155 270.39C259.089 266.397 255.787 261.724 254.362 256.787C252.828 251.904 251.811 244.738 251.932 241.455C251.991 238.168 252.054 237.405 251.742 234.289C251.575 232.502 251.798 230.025 252.492 228.006C252.843 226.983 253.203 227.256 253.312 228.305C253.476 229.828 253.252 231.064 253.708 231.855C254.629 233.423 254.983 234.045 254.482 235.98C253.999 237.939 255.342 238.754 255.303 239.859C255.323 240.954 254.354 241.108 256.089 246.538C257.969 251.89 259.404 254.625 260.351 256.547C261.297 258.443 262.723 262.79 264.711 265.741C266.639 268.727 270.413 274.929 272.415 277.115C274.401 279.317 273.713 279.777 274.727 282.003Z" fill="white"/>
<path d="M912.894 281.028C918.08 281.425 922.126 279.302 928.433 279.457C934.747 279.603 935.722 280.672 942.942 280.214C943.299 280.191 943.656 280.171 944.014 280.152L943.895 280.159C950.744 279.451 957.483 279.598 960.509 278.947C963.695 278.262 964.125 279.59 968.679 278.961C973.214 278.335 976.008 278.319 980.023 278.471C982.953 278.572 990.308 278.369 995.706 277.644C995.715 277.643 995.74 277.641 995.749 277.64C997.792 277.473 999.577 277.333 1000.79 277.149C1005.27 276.47 1010.39 277.411 1013.46 277.63C1014.41 277.698 1015.17 277.793 1015.74 277.892C1015.99 277.934 1016.1 278.022 1016.1 278.108C1016.1 278.108 1016.1 278.108 1016.1 278.108C1016.1 278.216 1015.92 278.322 1015.61 278.336C1014.09 278.402 1011.81 278.575 1009.13 278.979C1004.13 279.761 1003.56 278.884 996.859 279.576C996.527 279.613 996.203 279.653 995.889 279.695L995.952 279.689C989.791 280.781 985.779 281.686 978.182 281.782C970.203 281.867 968.514 283.998 957.233 283.692C950.878 283.527 947.767 284.169 944.288 284.968C944.263 284.969 944.189 284.975 944.164 284.975C941.404 285.458 938.449 286.021 933.538 286.267C922.307 286.84 908.143 285.846 901.362 285.971C894.579 286.108 885.51 286.359 875.9 285.972C869.76 285.727 862.663 285.823 855.63 285.698C851.674 285.635 847.728 285.529 843.966 285.34C838.016 285.148 829.743 284.451 824.677 286.559C820.582 288.81 817.123 291.22 814.848 292.918C809.456 297.085 808.178 298.282 804.203 303.512C801.954 306.552 798.96 310.771 796.442 314.452C795.183 316.307 795.051 315.694 795.945 313.597C797.276 310.537 798.916 308.339 799.487 306.652C800.664 303.288 801.289 301.803 804.574 298.843C807.887 295.953 808.513 293.664 810.518 292.018C812.606 290.559 812.606 290.547 822.687 283.326C822.892 283.19 823.119 283.055 823.335 282.936C836.983 278.375 843.608 280.276 848.533 279.763C850.348 279.737 852.881 279.846 855.764 279.995C860.533 280.25 866.289 280.572 871.178 280.494C878.992 280.398 894.887 280.656 901.294 280.218C907.692 279.794 907.708 280.624 912.894 281.028Z" fill="white"/>
<use xlink:href="#stroke0_386_935" transform="translate(32.2626 174.755) scale(0.16552) rotate(75.8548)"/>
<use xlink:href="#stroke0_386_935" transform="translate(-0.920601 215.041) scale(0.185278) rotate(-90.8844)"/>
<use xlink:href="#stroke0_386_935" transform="translate(21.6173 171.445) scale(0.115231) rotate(-54.1062)"/>
<use xlink:href="#stroke0_386_935" transform="translate(70.3543 135.87) scale(0.0910675) rotate(77.1095)"/>
<use xlink:href="#stroke0_386_935" transform="translate(88.1241 139.099) scale(0.0840626) rotate(122.544)"/>
<use xlink:href="#stroke0_386_935" transform="translate(87.3148 119.321) scale(0.0763174) rotate(67.974)"/>
<use xlink:href="#stroke0_386_935" transform="translate(64.3031 98.1929) scale(0.172202) rotate(-8.24756)"/>
<use xlink:href="#stroke0_386_935" transform="translate(93.4528 108.503) scale(0.0800209) rotate(-44.6942)"/>
<use xlink:href="#stroke0_386_935" transform="translate(132.831 118.291) scale(0.0807839) rotate(-164.878)"/>
<use xlink:href="#stroke0_386_935" transform="translate(115.687 107.112) scale(0.108886) rotate(-72.5104)"/>
<use xlink:href="#stroke0_386_935" transform="translate(189.604 69.8201) scale(0.154423) rotate(115.823)"/>
<use xlink:href="#stroke0_386_935" transform="matrix(-0.15765 -0.11442 0.11442 -0.15765 188.43 114.059)"/>
<use xlink:href="#stroke0_386_935" transform="translate(177.462 81.2886) scale(0.177779) rotate(-84.8078)"/>
<use xlink:href="#stroke0_386_935" transform="translate(232.754 8.72935) scale(0.168738) rotate(36.7979)"/>
<use xlink:href="#stroke0_386_935" transform="translate(220.845 37.9278) scale(0.196776) rotate(-44.7953)"/>
<use xlink:href="#stroke0_386_935" transform="translate(292.78 13.3769) scale(0.0850215) rotate(53.0717)"/>
<use xlink:href="#stroke0_386_935" transform="translate(319.558 -12.4643) scale(0.179927) rotate(55.1188)"/>
<use xlink:href="#stroke0_386_935" transform="translate(287.255 59.3159) scale(0.16785) rotate(-71.7488)"/>
<use xlink:href="#stroke0_386_935" transform="translate(331.622 43.8682) scale(0.0897492) rotate(65.8053)"/>
<use xlink:href="#stroke0_386_935" transform="translate(306.285 55.2189) scale(0.153783) rotate(0.613256)"/>
<use xlink:href="#stroke0_386_935" transform="translate(337.632 146.15) scale(0.172962) rotate(-129.899)"/>
<use xlink:href="#stroke0_386_935" transform="translate(363.527 102.219) scale(0.163373) rotate(77.0463)"/>
<use xlink:href="#stroke0_386_935" transform="translate(340.687 144.63) scale(0.0747328) rotate(-33.9699)"/>
<use xlink:href="#stroke0_386_935" transform="translate(416.706 149.227) scale(0.184897) rotate(122.838)"/>
<use xlink:href="#stroke0_386_935" transform="translate(382.115 210.567) scale(0.150375) rotate(-139.426)"/>
<use xlink:href="#stroke0_386_935" transform="translate(431.586 161.403) scale(0.130852) rotate(118.687)"/>
<use xlink:href="#stroke0_386_935" transform="translate(388.492 171.963) scale(0.153129) rotate(-36.1996)"/>
<use xlink:href="#stroke0_386_935" transform="translate(455.334 133.203) scale(0.169099) rotate(51.5325)"/>
<use xlink:href="#stroke0_386_935" transform="translate(456.27 196.73) scale(0.0730281) rotate(-136.523)"/>
<use xlink:href="#stroke0_386_935" transform="translate(447.142 195.87) scale(0.0830273) rotate(-80.8575)"/>
<use xlink:href="#stroke0_386_935" transform="translate(474.512 150.06) scale(0.16518) rotate(36.9584)"/>
<use xlink:href="#stroke0_386_935" transform="translate(476.62 172.962) scale(0.150145) rotate(-8.27881)"/>
<use xlink:href="#stroke0_386_935" transform="translate(504.865 195.583) scale(0.0815308) rotate(-49.2047)"/>
<use xlink:href="#stroke0_386_935" transform="translate(543.209 206.958) scale(0.0760532) rotate(-157.634)"/>
<use xlink:href="#stroke0_386_935" transform="translate(569.069 194.651) scale(0.0879377) rotate(154.999)"/>
<use xlink:href="#stroke0_386_935" transform="translate(576.812 208.207) scale(0.104456) rotate(-161.545)"/>
<use xlink:href="#stroke0_386_935" transform="translate(553.445 167.402) scale(0.139698) rotate(-29.0504)"/>
<use xlink:href="#stroke0_386_935" transform="translate(626.801 172.832) scale(0.0972164) rotate(119.879)"/>
<use xlink:href="#stroke0_386_935" transform="translate(615.236 205.045) scale(0.122396) rotate(-120.037)"/>
<use xlink:href="#stroke0_386_935" transform="translate(637.785 191.696) scale(0.076481) rotate(-130.188)"/>
<use xlink:href="#stroke0_386_935" transform="translate(635.13 169.863) scale(0.0729121) rotate(-33.3153)"/>
<use xlink:href="#stroke0_386_935" transform="translate(654.716 194.646) scale(0.0965432) rotate(-105.324)"/>
<use xlink:href="#stroke0_386_935" transform="translate(646.182 182.568) scale(0.192801) rotate(-59.9158)"/>
<use xlink:href="#stroke0_386_935" transform="translate(707.951 192.611) scale(0.0979064) rotate(-120.172)"/>
<use xlink:href="#stroke0_386_935" transform="translate(732.837 127.044) scale(0.1874) rotate(37.7173)"/>
<use xlink:href="#stroke0_386_935" transform="translate(787.503 208.188) scale(0.180338) rotate(-162.536)"/>
<use xlink:href="#stroke0_386_935" transform="translate(795.204 155.134) scale(0.0726292) rotate(63.7315)"/>
<use xlink:href="#stroke0_386_935" transform="translate(791.763 130.365) scale(0.177791) rotate(17.7516)"/>
<use xlink:href="#stroke0_386_935" transform="translate(824.619 145.145) scale(0.104386) rotate(22.0741)"/>
<use xlink:href="#stroke0_386_935" transform="translate(872.905 207.433) scale(0.194829) rotate(-154.104)"/>
<use xlink:href="#stroke0_386_935" transform="translate(922.007 176.085) scale(0.157365) rotate(155.936)"/>
<use xlink:href="#stroke0_386_935" transform="translate(935.741 125.83) scale(0.16161) rotate(80.1105)"/>
<use xlink:href="#stroke0_386_935" transform="translate(961.67 119.413) scale(0.172062) rotate(74.688)"/>
<use xlink:href="#stroke0_386_935" transform="translate(970.836 186.117) scale(0.154894) rotate(-139.989)"/>
<use xlink:href="#stroke0_386_935" transform="translate(995.236 101.683) scale(0.187944) rotate(42.8413)"/>
<use xlink:href="#stroke0_386_935" transform="translate(1001.11 152.871) scale(0.0893094) rotate(-75.4152)"/>
<use xlink:href="#stroke0_386_935" transform="translate(1003.85 119.528) scale(0.188236) rotate(-16.6439)"/>
<use xlink:href="#stroke0_386_935" transform="translate(1082.96 141.591) scale(0.0789851) rotate(135.675)"/>
<use xlink:href="#stroke0_386_935" transform="translate(1080.91 121.96) scale(0.0736461) rotate(58.948)"/>
<use xlink:href="#stroke0_386_935" transform="translate(1091.19 171.542) scale(0.176206) rotate(-129.83)"/>
<use xlink:href="#stroke0_386_935" transform="translate(1114.64 74.6757) scale(0.182197) rotate(34.6028)"/>
<use xlink:href="#stroke0_386_935" transform="translate(1116.14 103.083) scale(0.133063) rotate(-36.0495)"/>
<use xlink:href="#stroke0_386_935" transform="translate(1174.19 122.931) scale(0.105439) rotate(-157.854)"/>
<use xlink:href="#stroke0_386_935" transform="translate(1197.28 114.176) scale(0.121844) rotate(-169.551)"/>
<use xlink:href="#stroke0_386_935" transform="translate(1236.64 106.9) scale(0.177667) rotate(173.325)"/>
<use xlink:href="#stroke0_386_935" transform="translate(1252.96 95.1365) scale(0.141761) rotate(179.177)"/>
<use xlink:href="#stroke0_386_935" transform="translate(1276.79 71.1818) scale(0.120197) rotate(150.025)"/>
<use xlink:href="#stroke0_386_935" transform="translate(1291.88 36.9082) scale(0.133585) rotate(97.3173)"/>
<use xlink:href="#stroke0_386_935" transform="translate(1277.97 59.4165) scale(0.0856968) rotate(94.8773)"/>
<use xlink:href="#stroke0_386_935" transform="translate(1289.61 78.8809) scale(0.157709) rotate(115.785)"/>
<use xlink:href="#stroke0_386_935" transform="translate(1216.24 94.3436) scale(0.158165) rotate(-10.6752)"/>
<use xlink:href="#stroke0_386_935" transform="translate(1246.48 187.619) scale(0.195142) rotate(-147.761)"/>
<use xlink:href="#stroke0_386_935" transform="translate(1229.1 164.451) scale(0.080197) rotate(-54.4154)"/>
<use xlink:href="#stroke0_386_935" transform="translate(1242.16 155.337) scale(0.0934639) rotate(-17.1823)"/>
<use xlink:href="#stroke0_386_935" transform="translate(1273.67 153.85) scale(0.0729664) rotate(42.3764)"/>
<use xlink:href="#stroke0_386_935" transform="translate(1268.29 170.557) scale(0.0789805) rotate(-31.2346)"/>
<use xlink:href="#stroke0_386_935" transform="translate(1330.22 201.339) scale(0.14292) rotate(171.709)"/>
<use xlink:href="#stroke0_386_935" transform="translate(1314.21 169.248) scale(0.0737815) rotate(20.7957)"/>
<use xlink:href="#stroke0_386_935" transform="translate(1340.65 172.868) scale(0.0759148) rotate(69.2061)"/>
<use xlink:href="#stroke0_386_935" transform="translate(1387.27 180.365) scale(0.15304) rotate(121.602)"/>
<use xlink:href="#stroke0_386_935" transform="translate(1370.1 163.631) scale(0.112424) rotate(34.8329)"/>
<use xlink:href="#stroke0_386_935" transform="translate(1379.67 172.15) scale(0.0907099) rotate(10.852)"/>
<use xlink:href="#stroke0_386_935" transform="translate(1422.87 187.473) scale(0.0768744) rotate(122.779)"/>
<use xlink:href="#stroke0_386_935" transform="translate(1404.76 218.346) scale(0.126187) rotate(-100.14)"/>
<use xlink:href="#stroke0_386_935" transform="translate(1444.85 210.305) scale(0.0828058) rotate(-151.57)"/>
<use xlink:href="#stroke0_386_935" transform="translate(1467.83 188.006) scale(0.0756278) rotate(104.673)"/>
<use xlink:href="#stroke0_386_935" transform="translate(1450.32 185.835) scale(0.0815632) rotate(-8.99328)"/>
<use xlink:href="#stroke0_386_935" transform="translate(1472.97 215.642) scale(0.0906886) rotate(-116.311)"/>
<use xlink:href="#stroke0_386_935" transform="translate(1492.61 235.28) scale(0.180338) rotate(-122.017)"/>
<use xlink:href="#stroke0_386_935" transform="translate(1493.73 206) scale(0.169917) rotate(-62.5844)"/>
<use xlink:href="#stroke0_386_935" transform="translate(1548 169.9) scale(0.108232) rotate(28.4469)"/>
<use xlink:href="#stroke0_386_935" transform="translate(1585.92 190.266) scale(0.0750566) rotate(108.09)"/>
<use xlink:href="#stroke0_386_935" transform="translate(1564.48 181.105) scale(0.112637) rotate(-9.77467)"/>
<use xlink:href="#stroke0_386_935" transform="translate(1613.92 182.546) scale(0.0815247) rotate(83.0613)"/>
<use xlink:href="#stroke0_386_935" transform="translate(1601.13 217.581) scale(0.118725) rotate(-96.5659)"/>
<use xlink:href="#stroke0_386_935" transform="translate(1652.65 240.88) scale(0.193547) rotate(-145.881)"/>
<use xlink:href="#stroke0_386_935" transform="translate(1680.59 204.877) scale(0.0765419) rotate(175.161)"/>
<use xlink:href="#stroke0_386_935" transform="translate(1710.74 209.704) scale(0.126815) rotate(160.34)"/>
<use xlink:href="#stroke0_386_935" transform="translate(1731.77 166.706) scale(0.154223) rotate(86.716)"/>
<use xlink:href="#stroke0_386_935" transform="translate(1703.76 191.36) scale(0.110849) rotate(-39.3121)"/>
<use xlink:href="#stroke0_386_935" transform="translate(1769.06 153.804) scale(0.185131) rotate(64.4043)"/>
<use xlink:href="#stroke0_386_935" transform="translate(1790.15 215.303) scale(0.112291) rotate(-161.134)"/>
<use xlink:href="#stroke0_386_935" transform="translate(1779.76 167.725) scale(0.137898) rotate(5.96563)"/>
<use xlink:href="#stroke0_386_935" transform="translate(1848.67 224.369) scale(0.169946) rotate(-171.572)"/>
<use xlink:href="#stroke0_386_935" transform="translate(1831.57 181.272) scale(0.0795887) rotate(-8.00736)"/>
<use xlink:href="#stroke0_386_935" transform="translate(1875.04 207.557) scale(0.103086) rotate(-171.048)"/>
<use xlink:href="#stroke0_386_935" transform="translate(1885.58 142.571) scale(0.184056) rotate(45.1677)"/>
<use xlink:href="#stroke0_386_935" transform="translate(1891.21 153.425) scale(0.143768) rotate(19.4832)"/>
<use xlink:href="#stroke0_386_935" transform="translate(1847.69 175.105) scale(0.149047) rotate(-28.7202)"/>
<defs>
<linearGradient id="paint0_linear_386_935" x1="986.5" y1="128.809" x2="984.003" y2="365.198" gradientUnits="userSpaceOnUse">
<stop stop-color="#41578C"/>
<stop offset="1" stop-color="#121268"/>
</linearGradient>
<g id="stroke0_386_935" data-figma-scatter="f0.50999999046325684_w0.059999998658895493_aj180_sj0.64999997615814209_r0_s0_sw40">
<path d="M215.823 333.963C215.823 333.23 216.123 332.93 216.49 333.296C216.856 333.663 216.856 334.263 216.49 334.63C216.123 334.996 215.823 334.696 215.823 333.963ZM143.424 3.97701C148.056 3.32404 151.523 8.80284 148.726 12.3588C146.775 14.8388 146.175 17.9633 147.648 17.9633C148.553 17.9667 158.823 30.3033 158.823 31.3862C158.823 32.4623 154.479 36.4974 152.507 37.2544C150.609 37.9824 151.073 39.9631 153.14 39.9633C153.801 39.9633 154.92 40.8881 155.626 42.02C156.91 44.0739 156.912 44.0744 158.617 42.0766C159.555 40.9766 161.223 39.938 162.323 39.77C163.423 39.601 164.653 39.0132 165.057 38.4633C165.472 37.8983 165.798 38.2253 165.807 39.2133C165.825 41.3531 166.254 41.3818 169.215 39.4419C170.838 38.3789 171.405 37.2303 171.099 35.6313C170.05 30.1434 175.963 30.1199 185.501 35.5737C190.79 38.5976 191.028 38.5792 193.164 34.9633C196.187 29.8454 203.13 33.2701 201.316 38.9838C200.801 40.6068 201.133 41.2309 202.733 41.6499C203.883 41.9499 204.823 42.5946 204.823 43.0805C204.824 43.5654 205.723 43.9633 206.823 43.9633C209.228 43.9633 209.333 43.3299 207.269 41.2661C205.332 39.3301 205.758 35.0191 208.025 33.5991C210.469 32.0694 211.11 33.2632 210.001 37.2797C209.157 40.3355 209.276 40.8478 210.928 41.2797C211.97 41.5527 212.823 42.4936 212.823 43.3696C212.824 45.4861 216.745 45.4516 218.302 43.3227C219.936 41.0879 223.264 42.9574 223.298 46.1294C223.32 48.1552 223.883 48.504 227.573 48.77C231.476 49.053 231.823 48.8831 231.823 46.6811C231.823 45.0832 232.672 43.8975 234.37 43.1245C240.164 40.4845 243.457 43.0685 242.282 49.3315C241.655 52.6722 241.655 52.6725 249.407 53.3745C262.73 54.5825 271.108 62.5852 260.323 63.8012C258.673 63.9882 256.79 64.5797 256.14 65.1167C255.368 65.7556 253.636 65.7276 251.14 65.0346C246.476 63.7398 245.823 63.7172 245.823 64.8549C245.823 65.7449 249.37 66.9616 253.515 67.4936C257.329 67.9826 258.042 68.9656 257.379 72.8286C255.795 82.0527 255.841 81.9633 252.685 81.9633C250.953 81.9633 249.964 81.5443 250.323 80.9633C250.663 80.4133 250.517 79.9633 249.999 79.9633C249.48 79.9633 248.821 79.0632 248.533 77.9633C248.217 76.7553 247.169 75.9633 245.885 75.9633C244.716 75.9632 243.46 75.1762 243.092 74.2133C242.404 72.4103 242.246 72.1833 238.753 67.9633C236.684 65.4633 236.684 65.4633 237.262 68.1733C237.705 70.252 237.359 71.1408 235.772 71.9897C232.719 73.6237 233.414 78.5898 236.633 78.1401C237.903 77.9621 239.585 78.3504 240.37 79.0024C241.211 79.7003 242.9 79.9101 244.485 79.5122C246.95 78.8932 247.055 78.9823 245.748 80.5922C244.844 81.7052 244.78 82.0721 245.573 81.5962C246.78 80.8713 247.26 82.2792 247.055 85.9321C247.01 86.7401 248.281 89.181 249.881 91.3569C252.292 94.6349 252.689 95.9524 252.194 99.0434C251.695 102.167 251.943 102.958 253.722 103.911C255.46 104.841 255.656 105.407 254.789 107.026C254.207 108.114 254.046 109.515 254.431 110.14C255.79 112.339 247.804 110.139 243.089 107.016C234.391 101.254 232.358 104.203 234.165 119.963C234.386 121.888 234.142 123.998 233.622 124.653C231.331 127.54 233.14 131.457 236.823 131.585C238.748 131.652 240.773 131.816 241.323 131.95C241.873 132.084 243.093 132.116 244.034 132.022C246.328 131.792 249.862 133.758 249.563 135.098C249.134 137.018 257.14 136.437 263.279 134.102C266.554 132.856 270.042 132.048 271.029 132.307C272.126 132.594 272.823 132.23 272.823 131.37C272.823 130.597 271.923 129.963 270.823 129.963C268.355 129.963 268.291 128.842 270.596 125.996C272.37 123.806 272.37 123.805 274.251 125.884C277.35 129.307 282.41 126.734 280.041 122.94C279.048 121.351 279.46 120.899 283.362 119.295C285.811 118.288 287.817 117.126 287.819 116.713C287.821 116.301 288.262 115.963 288.798 115.963C290.086 115.963 288.981 121.818 287.134 124.78C286.042 126.531 285.967 127.431 286.825 128.466C288.108 130.011 286.599 133.834 284.133 135.288C283.329 135.762 282.984 136.896 283.321 137.957C283.727 139.236 283.296 139.996 281.916 140.434C280.723 140.812 280.144 141.636 280.471 142.488C281.07 144.051 279.303 146.204 276.573 147.238C275.611 147.602 274.823 148.857 274.823 150.027C274.823 152.253 271.493 157.622 268.86 159.642C267.494 160.689 267.518 160.896 269.075 161.499C270.259 161.958 271.465 161.413 272.792 159.821C274.896 157.295 275.458 157.908 273.83 160.952C272.986 162.526 273.289 162.906 275.83 163.464C279.699 164.314 279.894 168.296 276.323 173.558C272.999 178.456 273.141 179.594 277.811 185.463C279.999 188.213 283.258 192.592 285.055 195.195C287.985 199.439 291.823 201.575 291.823 198.963C291.823 198.413 292.858 197.963 294.123 197.963C295.388 197.963 296.869 197.517 297.413 196.973C298.033 196.353 299.563 196.316 301.501 196.872C303.893 197.558 304.97 197.388 306.229 196.128C311.032 191.326 313.154 199.168 308.775 205.533C305.051 210.945 307.295 210.388 312.57 204.592C314.356 202.629 316.421 201.256 317.16 201.54C317.898 201.822 319.08 201.359 319.785 200.509C321.719 198.179 324.72 198.643 326.009 201.472C327.592 204.947 325.832 207.908 318.196 214.612C312.035 220.021 312.035 220.021 314.929 222.915C319.416 227.402 318.437 230.291 311.993 231.58C309.623 232.053 308.701 231.81 308.231 230.585C307.343 228.271 305.535 228.576 302.783 231.505C300.746 233.674 300.577 234.339 301.632 236.028C303.496 239.014 301.66 241.738 298.126 241.228C293.529 240.565 288.418 246.501 289.907 250.775C290.518 252.528 291.537 253.977 292.171 253.994C292.805 254.011 292.532 254.484 291.565 255.048C290.598 255.611 289.399 255.819 288.9 255.511C288.402 255.203 287.764 255.415 287.483 255.982C287.203 256.549 287.108 256.439 287.273 255.738C287.438 255.037 288.155 254.601 288.867 254.769C289.918 255.018 289.921 254.787 288.886 253.54C288.066 252.551 286.49 252.15 284.467 252.416C282.738 252.642 279.973 252.894 278.323 252.974C276.673 253.055 275.886 253.348 276.573 253.625C277.261 253.904 277.823 254.712 277.823 255.424C277.823 256.136 278.498 257.278 279.323 257.963C284.43 262.201 279.156 267.527 267.467 269.94C261.662 271.138 261.616 271.176 262.217 274.181C262.55 275.849 262.823 278.291 262.823 279.609C262.823 281.174 263.663 282.389 265.244 283.109C266.671 283.759 267.448 284.778 267.136 285.59C265.821 289.017 267.765 292.135 270.801 291.468C274.766 290.597 278.421 292.537 276.707 294.602C276.023 295.427 274.625 295.883 273.602 295.615C272.138 295.233 271.87 295.538 272.348 297.046C272.893 298.763 272.429 298.963 267.889 298.963C262.743 298.963 261.095 297.073 265.249 295.935C268.036 295.172 268.4 292.927 265.844 292.258C264.392 291.879 264.055 291.437 264.845 290.949C266.469 289.946 265.098 283.964 263.244 283.963C262.462 283.963 261.823 283.571 261.823 283.091C261.823 282.611 259.972 281.923 257.709 281.561C255.433 281.197 252.864 280.005 251.959 278.892C250.396 276.971 250.314 277.128 250.111 282.423C249.912 287.635 250.039 287.963 252.254 287.963C257.861 287.963 255.961 295.527 250.118 296.465C248.031 296.8 244.838 297.728 243.022 298.527C240.536 299.621 239.219 299.71 237.687 298.89C235.32 297.624 234.327 298.227 235.168 300.42C235.494 301.269 236.844 301.963 238.169 301.963C242.073 301.963 243.244 304.249 241.284 308.04C239.619 311.258 239.618 311.258 228.221 310.647C216.823 310.036 216.823 310.036 216.823 313.065C216.823 321.686 206.244 322.014 203.987 313.463C202.962 309.577 196.547 308.889 196.016 312.607C195.599 315.535 190.787 316.541 190.083 313.848C189.539 311.771 188.717 311.487 187.273 312.878C186.751 313.382 185.198 313.944 183.823 314.128C182.113 314.357 181.221 315.181 181 316.737C180.739 318.581 180.17 318.937 178 318.615C176.528 318.397 175.418 317.764 175.533 317.21C175.649 316.655 174.861 315.403 173.783 314.427C171.902 312.724 171.821 312.729 171.781 314.558C171.757 315.606 170.365 317.588 168.686 318.963C167.007 320.338 164.438 322.475 162.978 323.712C158.062 327.876 154.556 326.427 153.301 319.713C152.916 317.652 152.42 315.964 152.199 315.963C151.978 315.963 148.55 316.863 144.58 317.963C130.056 321.988 115.58 315.43 128.81 310.818C130.467 310.24 131.823 309.373 131.823 308.89C131.823 308.407 130.668 308.452 129.257 308.988C127.134 309.795 126.098 309.512 123.257 307.345C120.118 304.951 118.274 301.888 120.978 303.558C121.694 304.001 121.861 303.833 121.417 303.115C120.368 301.418 116.504 303.691 117.229 305.579C118.04 307.692 114.948 308.516 113.522 306.566C111.691 304.062 106.546 306.574 107.286 309.61C108.627 315.112 101.84 317.769 99.8455 312.524C98.8953 310.026 94.4089 310.708 90.3231 313.97C88.4581 315.459 83.5201 315.529 83.0311 314.074C82.7723 313.306 83.018 312.966 83.5799 313.313C84.1398 313.659 84.5764 313.384 84.5526 312.703C84.3916 308.249 84.9971 307.097 88.0731 306.006C91.7409 304.706 90.1749 302.466 84.8231 301.359C83.4482 301.075 81.5171 300.405 80.5321 299.87C79.5471 299.334 78.3755 299.121 77.9295 299.397C77.4824 299.673 76.2634 299.261 75.2196 298.481C73.4269 297.14 73.453 297.096 75.7069 297.665C77.4798 298.113 77.9663 297.907 77.6033 296.865C77.3352 296.094 76.3745 295.595 75.4686 295.757C74.5637 295.918 73.8231 295.644 73.8231 295.147C73.8225 293.779 67.1263 286.964 65.7821 286.963C64.5191 286.963 65.3358 292.016 66.7508 292.954C68.0246 293.798 67.6327 300.104 66.3377 299.607C65.6809 299.355 65.2149 300.076 65.2537 301.283C65.3377 303.874 62.3307 304.729 61.4256 302.372C61.0686 301.443 61.4731 299.62 62.3231 298.322C63.7468 296.15 63.7284 295.96 62.0955 295.928C61.1204 295.908 59.1988 295.27 57.826 294.51C56.13 293.571 54.9418 293.449 54.1238 294.128C52.5208 295.458 48.5416 294.139 49.1746 292.487C49.7193 291.067 47.2348 286.963 45.8309 286.963C44.5728 286.963 35.8231 278.847 35.8231 277.681C35.8231 277.1 37.4871 276.973 39.9481 277.367C43.78 277.98 44.0342 277.878 43.5272 275.938C43.0782 274.221 43.2342 274.059 44.4022 275.028C46.6741 276.914 46.0406 274.471 43.7127 272.369C42.5527 271.321 40.7375 268.625 39.6795 266.377C37.9885 262.785 29.7573 256.441 24.5213 254.696C21.1893 253.585 27.5839 242.826 31.0379 243.73C32.8048 244.192 33.0357 243.965 32.4178 242.374C31.1828 239.197 31.2554 238.448 32.7684 238.778C35.0593 239.276 38.8227 236.801 38.8231 234.794C38.8231 233.715 39.5439 232.963 40.5779 232.963C43.0149 232.963 45.0996 226.438 43.1737 224.839C42.4307 224.223 41.8231 222.9 41.8231 221.9C41.823 220.899 41.3729 219.803 40.8231 219.463C40.2731 219.123 39.8231 217.945 39.8231 216.845C39.8231 215.745 39.4205 215.093 38.9295 215.397C38.4384 215.7 37.0855 214.04 35.9237 211.706C34.7617 209.372 33.2645 206.563 32.5965 205.463C31.9285 204.363 30.3573 201.785 29.1033 199.734C26.2513 195.07 26.2154 191.993 28.9774 189.028C30.8989 186.965 30.957 186.618 29.5194 185.813C28.6324 185.316 28.1605 184.245 28.4735 183.431C28.8615 182.419 27.9015 181.476 25.4315 180.444C23.4467 179.615 21.786 178.38 21.741 177.7C21.499 174.063 20.5431 170.143 19.2762 167.585C18.4912 166.003 18.1172 163.64 18.4442 162.335C18.8492 160.724 18.6035 159.943 17.6805 159.9C16.9341 159.865 17.347 159.425 18.5975 158.923C21.2044 157.876 20.8038 153.423 17.911 151.294C13.1591 147.798 12.87 147.403 13.4549 145.213C13.7859 143.975 14.834 142.963 15.785 142.963C16.735 142.963 18.3281 142.063 19.3231 140.963C20.3181 139.863 21.5542 138.963 22.0682 138.963C22.5823 138.963 23.847 137.951 24.8787 136.713C26.4927 134.779 26.7609 134.71 26.7899 136.223C26.8079 137.191 25.9229 138.753 24.8231 139.695C22.2852 141.868 22.305 142.594 24.9237 143.279C26.0795 143.582 26.7278 144.308 26.3651 144.896C26.0023 145.483 25.92 145.963 26.1815 145.963C26.4445 145.963 27.4328 146.261 28.3778 146.623C29.5896 147.087 29.9501 146.866 29.6024 145.873C29.0314 144.244 32.5938 138.703 33.7518 139.419C34.1787 139.683 35.3646 139.287 36.3875 138.54C38.4045 137.065 37.003 133.964 34.3192 133.963C32.9872 133.963 30.2179 125.51 30.7147 122.963C30.8767 122.138 30.9536 119.741 30.8856 117.637C30.7766 114.238 31.1058 113.683 33.8338 112.653C35.9678 111.847 36.8578 110.879 36.7528 109.478C36.4928 106.022 36.7888 104.824 37.7537 105.42C38.2657 105.737 38.9407 105.581 39.2547 105.073C39.5679 104.566 40.6568 104.368 41.6746 104.635C44.2356 105.304 47.2646 102.201 45.7879 100.421C44.9809 99.4493 44.9929 98.5137 45.8309 96.9487C46.4608 95.7707 46.7305 94.1671 46.4305 93.3852C46.0505 92.3923 46.6314 91.9633 48.3543 91.9633C49.712 91.9632 50.8228 91.5132 50.8231 90.9633C50.8231 90.4135 50.3871 89.9636 49.8543 89.9633C49.3224 89.9633 49.1449 89.2882 49.4608 88.4633C49.7917 87.6015 49.481 86.9636 48.7303 86.9633C47.7133 86.9633 47.6899 86.6961 48.6229 85.7631C49.2829 85.1031 49.8231 83.8148 49.8231 82.9008C49.8233 81.6241 51.1422 81.0827 55.5067 80.5698C58.6325 80.2028 61.7825 79.411 62.5067 78.81C64.2735 77.3441 64.1799 74.9637 62.3543 74.9633C61.4603 74.9633 61.1108 75.5493 61.4608 76.4633C61.8237 77.4082 61.4499 77.9633 60.45 77.9633C58.464 77.9633 58.8759 72.1768 60.9559 70.8598C64.4336 68.656 58.1944 70.1802 53.6815 72.6362C50.1078 74.581 48.4698 75.0103 47.6688 74.2094C46.9258 73.4665 45.7561 73.4182 44.0643 74.061C39.8403 75.667 37.8231 74.3507 37.8231 69.9907C37.8233 65.514 41.1635 63.0775 53.0731 58.8667C60.4397 56.2628 60.5863 56.0654 58.1824 51.9956C56.1924 48.6276 56.994 44.361 59.7821 43.476C62.4579 42.6272 68.8174 43.9249 68.8377 45.3237C68.8797 48.4517 70.4558 49.1528 74.6307 47.9028C79.0287 46.5848 80.5395 44.5322 78.7215 42.3422C77.8406 41.2803 78.116 40.538 79.9549 39.018C81.9907 37.3362 82.4786 37.2654 83.4324 38.5122C85.3604 41.0312 100.442 37.019 99.3865 34.269C98.521 32.0121 103.808 29.185 104.979 31.2778C106.381 33.7828 109.101 33.326 112.231 30.059C115.014 27.1544 115.014 27.1541 112.856 24.9965C109.082 21.2226 112.1 14.3884 117.416 14.6713C123.005 14.9683 123.68 15.1663 123.238 16.3803C123.021 16.9763 123.233 18.0729 123.708 18.8178C124.754 20.4597 129.376 17.8723 130.306 15.1245C130.615 14.2105 133.671 11.332 137.096 8.72701C140.516 6.12608 143.361 3.99002 143.424 3.97701ZM208.763 322.963C209.345 322.963 209.823 323.413 209.823 323.963C209.823 324.513 209.625 324.963 209.382 324.963C209.139 324.963 208.663 324.513 208.323 323.963C207.983 323.413 208.182 322.964 208.763 322.963ZM116.823 315.345C116.823 314.52 117.273 314.123 117.823 314.463C118.373 314.803 118.823 315.757 118.823 316.582C118.823 317.406 118.373 317.803 117.823 317.463C117.273 317.123 116.823 316.17 116.823 315.345ZM202.323 313.963C202.598 313.963 202.823 314.188 202.823 314.463C202.823 314.738 202.598 314.963 202.323 314.963C202.048 314.963 201.823 314.738 201.823 314.463C201.823 314.188 202.048 313.963 202.323 313.963ZM74.7635 305.963C75.3455 305.963 75.8231 306.413 75.8231 306.963C75.823 307.513 75.6246 307.963 75.3817 307.963C75.1386 307.963 74.6629 307.513 74.3231 306.963C73.9831 306.413 74.1818 305.964 74.7635 305.963ZM71.8231 304.963C72.373 304.963 72.8231 305.413 72.8231 305.963C72.823 306.513 72.3729 306.963 71.8231 306.963C71.2731 306.963 70.8232 306.513 70.8231 305.963C70.8231 305.413 71.2731 304.963 71.8231 304.963ZM131.823 306.07C131.823 304.426 129.038 304.086 127.17 305.5C125.465 306.792 125.573 306.902 128.573 306.931C130.36 306.949 131.823 306.561 131.823 306.07ZM86.8231 303.963C87.5559 303.963 87.856 304.263 87.4901 304.63C87.1231 304.996 86.5231 304.996 86.1561 304.63C85.7901 304.263 86.0901 303.963 86.8231 303.963ZM77.2401 304.042C78.294 303.999 78.8836 304.235 78.5516 304.567C78.2196 304.899 77.3566 304.935 76.6356 304.646C75.838 304.327 76.0752 304.09 77.2401 304.042ZM78.8231 300.963C79.373 300.963 79.8231 301.413 79.8231 301.963C79.823 302.513 79.3729 302.963 78.8231 302.963C78.2731 302.963 77.8232 302.513 77.8231 301.963C77.8231 301.413 78.2731 300.963 78.8231 300.963ZM70.3231 299.963C71.148 299.963 71.8231 300.624 71.8231 301.432C71.8231 302.326 71.2371 302.675 70.3231 302.325C69.4981 302.008 68.8231 301.347 68.8231 300.856C68.8233 300.365 69.4982 299.963 70.3231 299.963ZM69.8231 291.963C70.3727 291.963 70.8226 292.161 70.8231 292.404C70.8231 292.647 70.3731 293.123 69.8231 293.463C69.2731 293.803 68.8231 293.604 68.8231 293.022C68.8232 292.44 69.2731 291.963 69.8231 291.963ZM270.323 285.963C271.148 285.963 271.823 286.133 271.823 286.341C271.823 286.548 271.148 287.279 270.323 287.963C269.094 288.983 268.823 288.914 268.823 287.585C268.823 286.693 269.498 285.963 270.323 285.963ZM275.323 284.963C275.598 284.963 275.823 285.188 275.823 285.463C275.823 285.738 275.598 285.963 275.323 285.963C275.048 285.963 274.823 285.738 274.823 285.463C274.823 285.188 275.048 284.963 275.323 284.963ZM273.515 281.322C274.055 279.913 274.222 279.924 275.064 281.429C276.122 283.319 275.489 284.493 273.932 283.531C273.371 283.182 273.183 282.189 273.515 281.322ZM269.981 280.963C269.981 279.588 270.208 279.026 270.485 279.713C270.763 280.401 270.763 281.526 270.485 282.213C270.208 282.901 269.981 282.338 269.981 280.963ZM272.323 279.963C272.598 279.963 272.823 280.188 272.823 280.463C272.823 280.738 272.598 280.963 272.323 280.963C272.048 280.963 271.823 280.738 271.823 280.463C271.823 280.188 272.048 279.963 272.323 279.963ZM266.479 278.508C266.109 277.545 266.407 277.251 267.374 277.622C269.054 278.267 269.168 278.632 267.928 279.398C267.435 279.703 266.783 279.302 266.479 278.508ZM273.323 277.963C273.598 277.963 273.823 278.188 273.823 278.463C273.823 278.738 273.598 278.963 273.323 278.963C273.048 278.963 272.823 278.738 272.823 278.463C272.823 278.188 273.048 277.963 273.323 277.963ZM312.823 274.963C312.823 274.23 313.123 273.93 313.49 274.296C313.856 274.663 313.856 275.263 313.49 275.63C313.123 275.996 312.823 275.696 312.823 274.963ZM306.823 264.522C306.823 262.765 307.423 262.507 308.28 263.894C308.597 264.406 308.398 265.108 307.839 265.454C307.28 265.798 306.823 265.379 306.823 264.522ZM39.241 257.57C36.868 256.659 36.5506 256.812 37.2156 258.545C37.5496 259.415 37.8231 260.315 37.8231 260.545C37.8235 260.775 38.4984 260.963 39.3231 260.963C41.3139 260.963 41.251 258.341 39.241 257.57ZM294.721 251.963C296.379 251.963 302.87 258.076 302.261 259.064C300.769 261.477 295.519 258.26 294.343 254.213C293.964 252.911 294.123 251.964 294.721 251.963ZM274.323 255.963C274.048 255.963 273.823 256.188 273.823 256.463C273.823 256.738 274.048 256.963 274.323 256.963C274.598 256.963 274.823 256.738 274.823 256.463C274.823 256.188 274.598 255.963 274.323 255.963ZM268.323 252.963C268.048 252.963 267.823 253.188 267.823 253.463C267.823 253.738 268.048 253.963 268.323 253.963C268.598 253.963 268.823 253.738 268.823 253.463C268.823 253.188 268.598 252.963 268.323 252.963ZM266.646 249.296C266.257 247.287 264.26 246.448 263.356 247.911C262.476 249.334 263.598 250.963 265.455 250.963C266.331 250.963 266.833 250.26 266.646 249.296ZM269.323 249.963C269.048 249.963 268.823 250.188 268.823 250.463C268.823 250.738 269.048 250.963 269.323 250.963C269.598 250.963 269.823 250.738 269.823 250.463C269.823 250.188 269.598 249.963 269.323 249.963ZM24.3231 232.963C24.598 232.963 24.8231 233.188 24.8231 233.463C24.823 233.738 24.5979 233.963 24.3231 233.963C24.0481 233.963 23.8232 233.738 23.8231 233.463C23.8231 233.188 24.0481 232.963 24.3231 232.963ZM26.3231 232.963C26.598 232.963 26.8231 233.188 26.8231 233.463C26.823 233.738 26.5979 233.963 26.3231 233.963C26.0481 233.963 25.8232 233.738 25.8231 233.463C25.8231 233.188 26.0481 232.963 26.3231 232.963ZM30.3231 182.963C30.0481 182.963 29.8231 183.188 29.8231 183.463C29.8232 183.738 30.0481 183.963 30.3231 183.963C30.5979 183.963 30.823 183.738 30.8231 183.463C30.8231 183.188 30.598 182.963 30.3231 182.963ZM25.8231 182.963C26.5559 182.963 26.856 183.263 26.4901 183.63C26.1231 183.996 25.5231 183.996 25.1561 183.63C24.7901 183.263 25.0901 182.963 25.8231 182.963ZM24.5418 168.045C24.7068 165.852 23.3077 164.369 22.4237 165.799C22.1289 166.277 22.4496 167.439 23.1375 168.378C24.2905 169.956 24.3998 169.93 24.5418 168.045ZM26.3231 165.963C26.0481 165.963 25.8231 166.188 25.8231 166.463C25.8232 166.738 26.0481 166.963 26.3231 166.963C26.5979 166.963 26.823 166.738 26.8231 166.463C26.8231 166.188 26.598 165.963 26.3231 165.963ZM278.023 154.164C281.374 150.813 285.386 154.145 284.39 159.453C283.619 163.564 281.534 164.032 278.766 160.713C276.583 158.097 276.33 155.857 278.023 154.164ZM0.823065 156.963C1.55594 156.963 1.85603 157.263 1.49006 157.63C1.12312 157.996 0.523086 157.996 0.156073 157.63C-0.209927 157.263 0.0900652 156.963 0.823065 156.963ZM286.917 147.963C287.415 147.963 287.823 148.863 287.823 149.963C287.823 151.063 287.65 151.962 287.44 151.963C287.229 151.963 286.821 151.063 286.533 149.963C286.246 148.863 286.418 147.963 286.917 147.963ZM285.323 145.963C285.598 145.963 285.823 146.188 285.823 146.463C285.823 146.738 285.598 146.963 285.323 146.963C285.048 146.963 284.823 146.738 284.823 146.463C284.823 146.188 285.048 145.963 285.323 145.963ZM293.205 142.963C293.48 142.963 293.983 143.413 294.323 143.963C294.663 144.513 294.716 144.963 294.441 144.963C294.166 144.963 293.663 144.513 293.323 143.963C292.983 143.413 292.93 142.963 293.205 142.963ZM18.6795 133.08C18.8755 133.016 18.7986 133.583 18.5076 134.341C18.2168 135.099 18.5072 136.25 19.1512 136.898C20.0502 137.802 19.7528 137.866 17.8738 137.174C14.8158 136.047 14.1344 134.282 16.5184 133.664C17.5105 133.407 18.4825 133.144 18.6795 133.08ZM27.4901 131.63C28.6061 130.513 29.4901 130.881 29.4901 132.463C29.49 133.288 28.8899 133.963 28.1561 133.963C26.7371 133.963 26.3861 132.734 27.4901 131.63ZM293.763 131.963C294.345 131.963 294.823 132.413 294.823 132.963C294.823 133.513 294.625 133.963 294.382 133.963C294.139 133.963 293.663 133.513 293.323 132.963C292.983 132.413 293.182 131.964 293.763 131.963ZM296.323 132.963C296.598 132.963 296.823 133.188 296.823 133.463C296.823 133.738 296.598 133.963 296.323 133.963C296.048 133.963 295.823 133.738 295.823 133.463C295.823 133.188 296.048 132.963 296.323 132.963ZM20.8231 128.963C21.373 128.963 21.8231 129.638 21.8231 130.463C21.823 131.288 21.3729 131.963 20.8231 131.963C20.2731 131.963 19.8231 131.288 19.8231 130.463C19.8231 129.638 20.2731 128.963 20.8231 128.963ZM302.823 129.091C306.081 127.786 307.823 127.729 307.823 128.928C307.823 130.677 303.932 132.124 302.06 131.07C300.503 130.194 300.582 129.989 302.823 129.091ZM14.3885 125.861C17.5155 124.636 18.4666 124.918 16.4256 126.463C15.3817 127.253 14.062 127.611 13.492 127.258C12.8941 126.889 13.2737 126.298 14.3885 125.861ZM290.882 124.963C291.4 124.963 291.823 125.413 291.823 125.963C291.823 126.513 291.12 126.963 290.263 126.963C289.407 126.963 288.983 126.513 289.323 125.963C289.663 125.413 290.364 124.963 290.882 124.963ZM253.323 104.963C253.048 104.963 252.823 105.188 252.823 105.463C252.823 105.738 253.048 105.963 253.323 105.963C253.598 105.963 253.823 105.738 253.823 105.463C253.823 105.188 253.598 104.963 253.323 104.963ZM38.3231 101.963C38.598 101.963 38.8231 102.188 38.8231 102.463C38.823 102.738 38.5979 102.963 38.3231 102.963C38.0481 102.963 37.8232 102.738 37.8231 102.463C37.8231 102.188 38.0481 101.963 38.3231 101.963ZM43.3231 100.963C43.598 100.963 43.8231 101.188 43.8231 101.463C43.823 101.738 43.5979 101.963 43.3231 101.963C43.0481 101.963 42.8232 101.738 42.8231 101.463C42.8231 101.188 43.0481 100.963 43.3231 100.963ZM32.0731 95.9458C33.86 94.8529 35.9221 94.1854 36.6551 94.4614C37.3872 94.7374 38.7372 94.9995 39.6551 95.0424C40.6539 95.0895 40.8314 95.3207 40.0975 95.6176C39.4238 95.8904 38.6452 95.9673 38.367 95.7885C38.089 95.6095 37.152 96.4753 36.286 97.7133C35.258 99.1803 33.6844 99.9633 31.7654 99.9633C27.9139 99.9632 28.0332 98.4167 32.0731 95.9458ZM260.323 98.9633C260.598 98.9634 260.823 99.1884 260.823 99.4633C260.823 99.7382 260.598 99.9632 260.323 99.9633C260.048 99.9633 259.823 99.7383 259.823 99.4633C259.823 99.1883 260.048 98.9633 260.323 98.9633ZM42.3231 97.9633C42.598 97.9634 42.8231 98.1884 42.8231 98.4633C42.823 98.7382 42.5979 98.9632 42.3231 98.9633C42.0481 98.9633 41.8232 98.7383 41.8231 98.4633C41.8231 98.1883 42.0481 97.9633 42.3231 97.9633ZM54.6434 89.7915C54.2964 87.4396 52.372 86.2652 51.411 87.8198C50.504 89.2878 51.8519 91.9633 53.4998 91.9633C54.4317 91.9633 54.8462 91.1762 54.6434 89.7915ZM239.323 74.9633C239.598 74.9634 239.823 75.1884 239.823 75.4633C239.823 75.7382 239.598 75.9632 239.323 75.9633C239.048 75.9633 238.823 75.7383 238.823 75.4633C238.823 75.1883 239.048 74.9633 239.323 74.9633ZM273.823 72.9594C273.823 72.4464 274.498 72.2376 275.323 72.4946C276.148 72.7526 277.573 73.2036 278.49 73.4965C279.664 73.8715 279.843 74.3424 279.097 75.0883C277.917 76.2677 273.824 74.6152 273.823 72.9594ZM69.8074 71.2133C69.8294 69.4163 68.1488 69.6726 67.4178 71.5766C67.0247 72.6002 66.0719 73.0001 64.8113 72.6704C63.7187 72.3845 62.8236 72.5091 62.8231 72.9477C62.8231 73.3867 64.0183 74.0465 65.4783 74.4135C68.145 75.0822 69.7744 73.878 69.8074 71.2133ZM244.382 68.9633C244.139 68.9636 243.663 69.4135 243.323 69.9633C242.983 70.5132 243.182 70.9631 243.763 70.9633C244.345 70.9633 244.823 70.5133 244.823 69.9633C244.823 69.4133 244.625 68.9633 244.382 68.9633ZM241.323 67.9633C241.048 67.9633 240.823 68.1883 240.823 68.4633C240.823 68.7383 241.048 68.9633 241.323 68.9633C241.598 68.9632 241.823 68.7382 241.823 68.4633C241.823 68.1884 241.598 67.9634 241.323 67.9633ZM144.24 46.0424C143.075 46.0904 142.838 46.327 143.636 46.646C144.357 46.935 145.22 46.8988 145.552 46.5669C145.884 46.2349 145.294 45.9995 144.24 46.0424ZM181.823 43.9633C181.09 43.9633 180.79 44.2633 181.156 44.6303C181.523 44.9962 182.123 44.9963 182.49 44.6303C182.856 44.2634 182.556 43.9634 181.823 43.9633ZM147.345 34.3335C146.209 33.8976 145.532 34.3585 145.147 35.8335C144.84 37.0054 143.967 37.9633 143.206 37.9633C142.446 37.9633 141.823 38.4133 141.823 38.9633C141.823 40.4821 144.417 40.1582 145.823 38.4633C146.508 37.6384 148.111 36.9635 149.386 36.9633C150.661 36.9633 151.983 36.5133 152.323 35.9633C152.663 35.4133 152.051 34.9633 150.964 34.9633C149.876 34.9633 148.247 34.6804 147.345 34.3335ZM138.947 36.6958C137.959 35.7159 137.845 35.8314 138.387 37.2563C138.763 38.2423 139.322 38.7967 139.63 38.4887C139.938 38.1817 139.631 37.3747 138.947 36.6958ZM160.323 29.9633C160.598 29.9634 160.823 30.1884 160.823 30.4633C160.823 30.7382 160.598 30.9632 160.323 30.9633C160.048 30.9633 159.823 30.7382 159.823 30.4633C159.823 30.1883 160.048 29.9633 160.323 29.9633ZM205.823 28.9633C206.556 28.9634 206.856 29.2634 206.49 29.6303C206.123 29.9963 205.523 29.9961 205.156 29.6303C204.79 29.2633 205.09 28.9633 205.823 28.9633ZM210.823 24.9633C211.373 24.9634 211.823 25.161 211.823 25.4038C211.823 25.6468 211.373 26.1233 210.823 26.4633C210.273 26.8033 209.823 26.6039 209.823 26.0219C209.823 25.44 210.273 24.9633 210.823 24.9633ZM176.323 24.9633C176.598 24.9634 176.823 25.1884 176.823 25.4633C176.823 25.7382 176.598 25.9632 176.323 25.9633C176.048 25.9633 175.823 25.7382 175.823 25.4633C175.823 25.1883 176.048 24.9633 176.323 24.9633ZM172.823 18.9633C173.556 18.9634 173.856 19.2634 173.49 19.6303C173.123 19.9963 172.523 19.9961 172.156 19.6303C171.79 19.2633 172.09 18.9633 172.823 18.9633ZM173.823 15.9633C173.823 15.2303 174.123 14.9303 174.49 15.2963C174.856 15.6634 174.856 16.2634 174.49 16.6303C174.123 16.9963 173.823 16.6962 173.823 15.9633ZM208.823 13.9633C209.556 13.9634 209.856 14.2634 209.49 14.6303C209.123 14.9963 208.523 14.9962 208.156 14.6303C207.79 14.2633 208.09 13.9633 208.823 13.9633ZM177.323 12.9633C177.598 12.9634 177.823 13.1884 177.823 13.4633C177.823 13.7382 177.598 13.9632 177.323 13.9633C177.048 13.9633 176.823 13.7382 176.823 13.4633C176.823 13.1883 177.048 12.9633 177.323 12.9633ZM166.323 10.9633C166.598 10.9634 166.823 11.1884 166.823 11.4633C166.823 11.7382 166.598 11.9632 166.323 11.9633C166.048 11.9633 165.823 11.7382 165.823 11.4633C165.823 11.1883 166.048 10.9633 166.323 10.9633ZM175.823 10.9633C175.823 10.2303 176.123 9.93035 176.49 10.2963C176.856 10.6634 176.856 11.2634 176.49 11.6303C176.123 11.9963 175.823 11.6962 175.823 10.9633ZM171.323 9.96334C171.598 9.96343 171.823 10.1884 171.823 10.4633C171.823 10.7382 171.598 10.9632 171.323 10.9633C171.048 10.9633 170.823 10.7382 170.823 10.4633C170.823 10.1883 171.048 9.96334 171.323 9.96334ZM132.382 6.96334C132.625 6.96334 132.823 7.41334 132.823 7.96334C132.823 8.51325 132.345 8.96334 131.763 8.96334C131.182 8.96314 130.983 8.51318 131.323 7.96334C131.663 7.41353 132.139 6.96364 132.382 6.96334ZM122.823 7.96334C123.556 7.96339 123.856 8.26336 123.49 8.63033C123.123 8.99625 122.523 8.99614 122.156 8.63033C121.79 8.26333 122.09 7.96334 122.823 7.96334ZM167.204 2.311C170.133 -0.207938 172.823 -0.770742 172.823 1.13424C172.823 2.86018 169.742 5.96305 168.028 5.96334C167.212 5.96334 166.002 6.70389 165.34 7.60885C164.278 9.06077 164.156 8.98412 164.305 6.95846C164.398 5.69446 165.703 3.603 167.204 2.311Z" fill="white"/>
</g>
</defs>
</svg>
