<svg width="1920" height="561" viewBox="0 0 1920 561" fill="none" xmlns="http://www.w3.org/2000/svg" xmlns:xlink="http://www.w3.org/1999/xlink">
<path d="M0 561V95.5L102.5 62.4134H213.5L348 36L408 31.5L422 85L585.5 107.598L726.5 117.032L834.5 107.598L962 82L1114 60.5H1238.5L1256 87L1345.5 98L1488.5 107.598H1613L1717.5 100L1818 84.261L1920 63.903V561H0Z" fill="url(#paint0_linear_395_722)"/>
<use xlink:href="#stroke0_395_722" transform="translate(32.7511 89.1399) scale(0.140692) rotate(128.86)"/>
<use xlink:href="#stroke0_395_722" transform="translate(-12.1094 94.214) scale(0.157486) rotate(-63.6912)"/>
<use xlink:href="#stroke0_395_722" transform="translate(21.5097 70.3635) scale(0.0979467) rotate(-29.1659)"/>
<use xlink:href="#stroke0_395_722" transform="translate(71.7363 60.2834) scale(0.0774074) rotate(101.731)"/>
<use xlink:href="#stroke0_395_722" transform="translate(84.299 69.1876) scale(0.0714532) rotate(147.486)"/>
<use xlink:href="#stroke0_395_722" transform="translate(90.9724 53.944) scale(0.0648698) rotate(93.9466)"/>
<use xlink:href="#stroke0_395_722" transform="translate(83.3161 28.8018) scale(0.146372) rotate(21.3816)"/>
<use xlink:href="#stroke0_395_722" transform="translate(101.352 48.4161) scale(0.0680177) rotate(-10.6266)"/>
<use xlink:href="#stroke0_395_722" transform="translate(125.234 73.925) scale(0.0686663) rotate(-133.929)"/>
<use xlink:href="#stroke0_395_722" transform="translate(117.627 58.7409) scale(0.0925529) rotate(-43.5098)"/>
<use xlink:href="#stroke0_395_722" transform="translate(188.105 59.9196) scale(0.13126) rotate(142.559)"/>
<use xlink:href="#stroke0_395_722" transform="translate(172.393 92.9985) scale(0.165577) rotate(-120.62)"/>
<use xlink:href="#stroke0_395_722" transform="translate(175.531 65.227) scale(0.151112) rotate(-65.5281)"/>
<use xlink:href="#stroke0_395_722" transform="translate(237.865 21.2759) scale(0.143427) rotate(51.9646)"/>
<use xlink:href="#stroke0_395_722" transform="translate(220.644 45.3346) scale(0.167259) rotate(-35.6748)"/>
<use xlink:href="#stroke0_395_722" transform="translate(281.972 32.724) scale(0.0722683) rotate(54.8459)"/>
<use xlink:href="#stroke0_395_722" transform="translate(297.557 8.97592) scale(0.152938) rotate(45.2461)"/>
<use xlink:href="#stroke0_395_722" transform="translate(352.978 52.1141) scale(0.142673) rotate(153.37)"/>
<use xlink:href="#stroke0_395_722" transform="translate(320.795 28.7174) scale(0.0762868) rotate(-31.8486)"/>
<use xlink:href="#stroke0_395_722" transform="translate(326.14 39.8308) scale(0.130716) rotate(-62.7619)"/>
<use xlink:href="#stroke0_395_722" transform="translate(412.024 30.073) scale(0.147017) rotate(141.815)"/>
<use xlink:href="#stroke0_395_722" transform="translate(379.452 2.39175) scale(0.138867) rotate(0.636531)"/>
<use xlink:href="#stroke0_395_722" transform="translate(405.402 29.0373) scale(0.0635228) rotate(-70.1454)"/>
<use xlink:href="#stroke0_395_722" transform="translate(418.075 71.3077) scale(0.157162) rotate(-116.387)"/>
<use xlink:href="#stroke0_395_722" transform="translate(398.234 23.3195) scale(0.127818) rotate(19.6496)"/>
<use xlink:href="#stroke0_395_722" transform="translate(434.276 63.6108) scale(0.111224) rotate(127.076)"/>
<use xlink:href="#stroke0_395_722" transform="translate(396.286 66.213) scale(0.13016) rotate(-16.1584)"/>
<use xlink:href="#stroke0_395_722" transform="translate(460.029 52.3347) scale(0.143734) rotate(69.2721)"/>
<use xlink:href="#stroke0_395_722" transform="translate(475.485 77.6541) scale(0.0620739) rotate(104.679)"/>
<use xlink:href="#stroke0_395_722" transform="translate(457.507 92.6124) scale(0.0705732) rotate(-59.8693)"/>
<use xlink:href="#stroke0_395_722" transform="translate(477.151 58.1243) scale(0.140403) rotate(18.7149)"/>
<use xlink:href="#stroke0_395_722" transform="translate(491.794 70.7383) scale(0.127624) rotate(-2.01387)"/>
<use xlink:href="#stroke0_395_722" transform="translate(513.619 91.2257) scale(0.0693012) rotate(-33.4101)"/>
<use xlink:href="#stroke0_395_722" transform="translate(541.356 109.873) scale(0.0646453) rotate(-138.14)"/>
<use xlink:href="#stroke0_395_722" transform="translate(565.241 107.907) scale(0.074747) rotate(176.083)"/>
<use xlink:href="#stroke0_395_722" transform="translate(567.268 121.04) scale(0.0887878) rotate(-140.575)"/>
<use xlink:href="#stroke0_395_722" transform="translate(561.029 81.7152) scale(0.118743) rotate(-8.47001)"/>
<use xlink:href="#stroke0_395_722" transform="translate(618.358 104.02) scale(0.0826339) rotate(131.703)"/>
<use xlink:href="#stroke0_395_722" transform="translate(604.278 128.256) scale(0.104037) rotate(-110.716)"/>
<use xlink:href="#stroke0_395_722" transform="translate(625.54 120.117) scale(0.0650089) rotate(-123.026)"/>
<use xlink:href="#stroke0_395_722" transform="translate(625.661 101.287) scale(0.0619753) rotate(-25.8109)"/>
<use xlink:href="#stroke0_395_722" transform="translate(638.998 124.261) scale(0.0820617) rotate(-96.3435)"/>
<use xlink:href="#stroke0_395_722" transform="translate(634.169 116.364) scale(0.163881) rotate(-57.6815)"/>
<use xlink:href="#stroke0_395_722" transform="translate(686.485 126.908) scale(0.0832205) rotate(-118.544)"/>
<use xlink:href="#stroke0_395_722" transform="translate(708.806 71.722) scale(0.15929) rotate(38.6995)"/>
<use xlink:href="#stroke0_395_722" transform="translate(754.941 140.842) scale(0.153287) rotate(-163.052)"/>
<use xlink:href="#stroke0_395_722" transform="translate(760.678 95.1984) scale(0.0617348) rotate(61.3789)"/>
<use xlink:href="#stroke0_395_722" transform="translate(756.639 74.3348) scale(0.151122) rotate(14.9668)"/>
<use xlink:href="#stroke0_395_722" transform="translate(785.47 85.4577) scale(0.0887283) rotate(20.2443)"/>
<use xlink:href="#stroke0_395_722" transform="translate(829.664 135.911) scale(0.165605) rotate(-158.53)"/>
<use xlink:href="#stroke0_395_722" transform="translate(867.306 112.746) scale(0.133761) rotate(161.894)"/>
<use xlink:href="#stroke0_395_722" transform="translate(880.926 68.6121) scale(0.137369) rotate(80.7494)"/>
<use xlink:href="#stroke0_395_722" transform="translate(899.728 60.3376) scale(0.146253) rotate(69.3404)"/>
<use xlink:href="#stroke0_395_722" transform="translate(909.872 117.741) scale(0.13166) rotate(-139.203)"/>
<use xlink:href="#stroke0_395_722" transform="translate(931.447 46.3093) scale(0.159753) rotate(43.4025)"/>
<use xlink:href="#stroke0_395_722" transform="translate(936.321 90.1747) scale(0.075913) rotate(-77.2785)"/>
<use xlink:href="#stroke0_395_722" transform="translate(935.757 64.8607) scale(0.16) rotate(-25.4141)"/>
<use xlink:href="#stroke0_395_722" transform="translate(1005.13 73.1665) scale(0.0671373) rotate(130.318)"/>
<use xlink:href="#stroke0_395_722" transform="translate(1006.38 59.1304) scale(0.0625992) rotate(69.5806)"/>
<use xlink:href="#stroke0_395_722" transform="translate(1002.09 101.816) scale(0.149775) rotate(-109.232)"/>
<use xlink:href="#stroke0_395_722" transform="translate(1050.52 32.5111) scale(0.154867) rotate(56.3555)"/>
<use xlink:href="#stroke0_395_722" transform="translate(1041.58 56.112) scale(0.113103) rotate(-19.8555)"/>
<use xlink:href="#stroke0_395_722" transform="translate(1084.26 86.0747) scale(0.0896229) rotate(-141.65)"/>
<use xlink:href="#stroke0_395_722" transform="translate(1103.93 85.039) scale(0.103568) rotate(-150.095)"/>
<use xlink:href="#stroke0_395_722" transform="translate(1137.42 90.4533) scale(0.151017) rotate(-167.009)"/>
<use xlink:href="#stroke0_395_722" transform="translate(1153.65 85.8685) scale(0.120497) rotate(-160.736)"/>
<use xlink:href="#stroke0_395_722" transform="translate(1179.44 74.0878) scale(0.102167) rotate(170.929)"/>
<use xlink:href="#stroke0_395_722" transform="translate(1169.69 33.9559) scale(0.113547) rotate(25.5309)"/>
<use xlink:href="#stroke0_395_722" transform="translate(1178.45 51.0351) scale(0.0728422) rotate(-19.5693)"/>
<use xlink:href="#stroke0_395_722" transform="translate(1185.96 37.8201) scale(0.134053) rotate(-8.41259)"/>
<use xlink:href="#stroke0_395_722" transform="translate(1221.32 84.8388) scale(0.134441) rotate(-113.467)"/>
<use xlink:href="#stroke0_395_722" transform="translate(1251.31 96.6101) scale(0.16587) rotate(-141.494)"/>
<use xlink:href="#stroke0_395_722" transform="translate(1237.78 60.6723) scale(0.0681675) rotate(34.5654)"/>
<use xlink:href="#stroke0_395_722" transform="translate(1247.19 73.1242) scale(0.0794443) rotate(81.9605)"/>
<use xlink:href="#stroke0_395_722" transform="translate(1240.67 73.9919) scale(0.0620214) rotate(27.743)"/>
<use xlink:href="#stroke0_395_722" transform="translate(1239.84 89.2334) scale(0.0671335) rotate(-47.8352)"/>
<use xlink:href="#stroke0_395_722" transform="translate(1297.57 99.756) scale(0.121482) rotate(156.264)"/>
<use xlink:href="#stroke0_395_722" transform="translate(1279.35 77.0221) scale(0.0627142) rotate(14.8748)"/>
<use xlink:href="#stroke0_395_722" transform="translate(1302.78 78.4315) scale(0.0645276) rotate(66.6954)"/>
<use xlink:href="#stroke0_395_722" transform="translate(1342.96 84.6821) scale(0.130084) rotate(121.484)"/>
<use xlink:href="#stroke0_395_722" transform="translate(1328.8 70.6383) scale(0.0955602) rotate(35.9238)"/>
<use xlink:href="#stroke0_395_722" transform="translate(1336.7 78.1266) scale(0.0771034) rotate(11.6805)"/>
<use xlink:href="#stroke0_395_722" transform="translate(1373.17 90.9963) scale(0.0653433) rotate(122.006)"/>
<use xlink:href="#stroke0_395_722" transform="translate(1358.29 117.396) scale(0.107259) rotate(-101.294)"/>
<use xlink:href="#stroke0_395_722" transform="translate(1391.68 110.328) scale(0.070385) rotate(-150.518)"/>
<use xlink:href="#stroke0_395_722" transform="translate(1411.47 91.5988) scale(0.0642836) rotate(104.841)"/>
<use xlink:href="#stroke0_395_722" transform="translate(1396.9 89.4391) scale(0.0693287) rotate(-6.6483)"/>
<use xlink:href="#stroke0_395_722" transform="translate(1414.8 115.545) scale(0.0770853) rotate(-112.987)"/>
<use xlink:href="#stroke0_395_722" transform="matrix(-0.072237 -0.1352 0.1352 -0.072237 1430.16 133.186)"/>
<use xlink:href="#stroke0_395_722" transform="translate(1433.35 109.956) scale(0.14443) rotate(-62.7535)"/>
<use xlink:href="#stroke0_395_722" transform="translate(1479.44 79.1447) scale(0.0919974) rotate(28.4121)"/>
<use xlink:href="#stroke0_395_722" transform="translate(1511.69 96.4641) scale(0.0637981) rotate(108.136)"/>
<use xlink:href="#stroke0_395_722" transform="translate(1493.49 88.6449) scale(0.0957412) rotate(-9.64056)"/>
<use xlink:href="#stroke0_395_722" transform="translate(1535.53 89.9997) scale(0.069296) rotate(83.303)"/>
<use xlink:href="#stroke0_395_722" transform="translate(1524.47 119.71) scale(0.100917) rotate(-96.1684)"/>
<use xlink:href="#stroke0_395_722" transform="translate(1567.75 139.971) scale(0.164515) rotate(-144.911)"/>
<use xlink:href="#stroke0_395_722" transform="translate(1591.85 110.18) scale(0.0650606) rotate(177.275)"/>
<use xlink:href="#stroke0_395_722" transform="translate(1617.48 114.905) scale(0.107793) rotate(161.747)"/>
<use xlink:href="#stroke0_395_722" transform="translate(1635.88 78.2651) scale(0.13109) rotate(87.2057)"/>
<use xlink:href="#stroke0_395_722" transform="translate(1611.88 99.0392) scale(0.094222) rotate(-38.9612)"/>
<use xlink:href="#stroke0_395_722" transform="translate(1670.23 69.9775) scale(0.157361) rotate(69.3905)"/>
<use xlink:href="#stroke0_395_722" transform="translate(1684.41 122.863) scale(0.0954476) rotate(-158.643)"/>
<use xlink:href="#stroke0_395_722" transform="translate(1674.93 83.2) scale(0.117214) rotate(2.01269)"/>
<use xlink:href="#stroke0_395_722" transform="translate(1737.2 124.923) scale(0.144454) rotate(-177.278)"/>
<use xlink:href="#stroke0_395_722" transform="translate(1719.62 89.7729) scale(0.0676504) rotate(-10.1021)"/>
<use xlink:href="#stroke0_395_722" transform="translate(1756.98 111.196) scale(0.0876232) rotate(-171.61)"/>
<use xlink:href="#stroke0_395_722" transform="translate(1762.11 55.0706) scale(0.156448) rotate(39.7267)"/>
<use xlink:href="#stroke0_395_722" transform="translate(1801.8 113.769) scale(0.122203) rotate(-164.398)"/>
<use xlink:href="#stroke0_395_722" transform="translate(1837.83 90.8298) scale(0.12669) rotate(143.918)"/>
<use xlink:href="#stroke0_395_722" transform="translate(1841.09 74.1342) scale(0.0767344) rotate(106.363)"/>
<use xlink:href="#stroke0_395_722" transform="translate(1812.23 85.2879) scale(0.131074) rotate(-59.0207)"/>
<use xlink:href="#stroke0_395_722" transform="translate(1873.96 78.5634) scale(0.0686131) rotate(147.664)"/>
<use xlink:href="#stroke0_395_722" transform="translate(1903.67 68.969) scale(0.126758) rotate(130.282)"/>
<use xlink:href="#stroke0_395_722" transform="translate(1874.52 60.0314) scale(0.0877761) rotate(-15.3961)"/>
<use xlink:href="#stroke0_395_722" transform="translate(1924.64 64.9534) scale(0.0823814) rotate(136.101)"/>
<use xlink:href="#stroke0_395_722" transform="translate(1901.48 64.3396) scale(0.0720146) rotate(-52.674)"/>
<path d="M385.174 100.099C386.048 101.004 386.971 101.63 387.99 102.445C389.439 103.563 391.104 104.406 393.03 105.832C396.176 108.047 396.431 108.895 400.593 110.717C402.852 111.668 405.109 112.658 407.029 113.414L406.978 113.397C408.651 113.975 410.064 114.417 411.002 114.565C413.037 114.878 413.037 115.69 415.897 116.267C418.76 116.833 420.44 117.341 422.873 118.157C425.289 118.999 432.959 120.757 435.817 120.762C437.094 120.778 438.558 121.007 439.672 121.007L439.572 121.028C440.87 120.791 442.006 119.775 442.81 119.12C443.271 118.723 443.649 118.42 443.949 118.2C444.075 118.108 444.164 118.09 444.199 118.126C444.199 118.126 444.199 118.126 444.199 118.126C444.242 118.169 444.203 118.294 444.07 118.438C443.376 119.141 442.563 120.296 441.168 121.536C440.758 121.872 440.321 122.097 439.928 122.24C439.908 122.245 439.849 122.259 439.828 122.261C437.487 122.502 436.782 122.027 433.079 121.659C428.756 121.147 426.094 121.038 421.176 119.625C416.276 118.158 414.824 119.041 408.055 116.368C407.41 116.108 406.81 115.874 406.263 115.669C406.254 115.666 406.226 115.657 406.218 115.654C401.152 113.402 399.57 113.955 393.616 110.857C390.874 109.347 387.964 107.278 385.64 104.697C382.825 101.882 379.541 98.8362 377.931 96.8129C375.892 94.4046 373.265 90.6697 373.396 85.7938C373.448 84.0641 373.576 82.2856 373.832 80.482C374.243 76.6811 375.715 72.0748 376.846 68.3164C376.949 67.8883 376.985 67.4208 376.944 67.1974C376.929 67.0861 376.895 67.0776 376.963 67.1673C377.029 67.2609 377.196 67.3267 377.185 67.3144C375.814 67.0522 374.417 66.9544 373.012 66.9364C371.682 66.9118 370.221 67.021 368.577 67.0608C362.433 67.0977 355.808 66.5508 352.402 67.0724C350.778 67.2595 349.637 67.5219 348.643 67.8355C347.047 68.377 345.785 69.053 343.69 70.5893C341.76 72.0254 339.166 74.084 337.226 76.134C336.278 77.1929 336.246 76.8113 337.051 75.5766C338.273 73.8 339.665 72.7117 340.319 71.7867C341.668 69.9644 342.332 69.1636 344.922 67.9682C346.303 67.361 347.226 66.8004 348.105 66.3327C348.863 65.9292 349.532 65.5908 350.318 65.4414C351.977 65.2573 352.05 65.1781 360.234 64.6813C363.568 64.5178 366.236 64.4317 368.418 64.233C371.507 63.8769 374.055 63.6433 376.004 63.8119C376.519 63.8479 377.119 63.9211 377.783 64.0487C378.292 64.1368 378.952 64.4213 379.416 64.9412C379.883 65.4551 380.086 66.05 380.174 66.5397C380.335 67.5327 380.19 68.3089 379.994 69.0886C379.053 72.2171 377.74 75.0844 377.349 77.9241C377.014 79.9269 376.702 82.831 376.639 85.8813C376.478 89.5905 378.936 93.1122 380.445 94.6943C383.156 97.4423 382.919 97.7084 385.174 100.099Z" fill="#F5F0E9"/>
<path d="M1187.12 115.745C1186.95 115.73 1186.77 115.717 1186.59 115.707C1183.26 115.522 1179.37 116.152 1176.29 115.53C1176.24 115.521 1176.2 115.511 1176.15 115.502C1174.79 115.233 1173.44 114.865 1171.8 114.424C1171.59 114.367 1171.36 114.308 1171.14 114.25C1169.22 113.73 1166.8 113.106 1163.52 112.407C1152.54 110.06 1143.81 111.318 1141.1 111.708C1135.68 112.493 1129.89 112.445 1122.01 112.422C1121.29 112.42 1120.55 112.415 1119.79 112.414C1119.18 112.413 1118.67 111.714 1118.66 110.85C1118.64 109.985 1119.14 109.284 1119.76 109.284C1120.51 109.285 1121.23 109.286 1121.93 109.288C1121.93 109.288 1121.93 109.288 1121.94 109.288C1129.88 109.311 1135.55 109.358 1140.85 108.59C1143.63 108.191 1152.58 106.905 1163.85 109.311C1167.16 110.018 1169.62 110.646 1171.57 111.17C1171.79 111.228 1172 111.285 1172.2 111.34C1172.21 111.341 1172.21 111.342 1172.22 111.344C1173.85 111.788 1175.16 112.142 1176.47 112.401C1176.5 112.406 1176.53 112.41 1176.56 112.415C1179.66 113.041 1183.48 112.411 1186.74 112.581C1186.93 112.591 1187.11 112.604 1187.29 112.62C1187.86 112.672 1188.28 113.414 1188.24 114.277C1188.2 115.14 1187.7 115.797 1187.12 115.745ZM964.15 149.239C961.518 151.322 957.477 152.525 953.815 153.175C950.116 153.835 946.622 153.972 944.957 153.9C943.311 153.836 941.637 154.171 939.639 154.671C939.189 154.783 938.72 154.905 938.23 155.031C937.992 155.093 937.748 155.156 937.499 155.22C936.02 155.6 934.476 155.976 932.732 156.289C925.213 157.642 920.501 159.057 917.16 160.177C916.468 160.408 915.836 160.628 915.251 160.832C915.25 160.832 915.249 160.832 915.248 160.833C912.967 161.624 911.308 162.202 909.64 162.347C906.661 162.609 904.248 162.772 901.167 162.584C896.95 162.315 891.601 164.186 888.445 166.276C888.269 166.391 888.087 166.512 887.905 166.632C885.599 168.157 882.782 170.03 878.331 172.163C874.637 173.934 871.277 174.936 868.269 175.69C867.406 175.907 866.582 176.098 865.788 176.284C864.616 176.559 863.519 176.813 862.475 177.092C861.764 177.281 861.092 177.475 860.44 177.696C850.669 180.962 844.52 181.664 840.469 181.773C837.348 181.834 835.429 181.431 834.041 181.146C833.62 181.061 833.247 180.983 832.9 180.937C831.464 180.743 830.089 180.684 828.688 180.71C827.371 180.661 826.045 180.683 824.573 180.688C823.962 180.689 823.324 180.688 822.654 180.677C820.411 180.64 818.799 181.056 817.542 181.531C816.992 181.738 816.51 181.953 816.052 182.158C816.044 182.163 816.036 182.167 816.027 182.171C815.964 182.2 815.9 182.227 815.837 182.255C815.789 182.276 815.743 182.3 815.695 182.321C815.678 182.34 815.663 182.353 815.651 182.365C815.642 182.374 815.635 182.38 815.63 182.384C815.63 182.386 815.629 182.387 815.628 182.389C815.545 182.466 815.468 182.504 815.452 182.512C815.425 182.527 815.4 182.535 815.387 182.54C815.32 182.568 815.231 182.593 815.172 182.609C815.02 182.649 814.755 182.712 814.341 182.804C813.987 182.916 813.652 183.056 813.229 183.233C813.203 183.245 813.176 183.256 813.15 183.268C812.738 183.441 812.253 183.641 811.633 183.862C811.07 184.064 810.42 183.555 810.19 182.723C809.959 181.892 810.234 181.054 810.797 180.853C811.38 180.644 811.832 180.456 812.244 180.283C812.27 180.272 812.296 180.261 812.322 180.249C812.75 180.07 813.154 179.9 813.594 179.763C813.742 179.718 813.894 179.675 814.036 179.638C814.289 179.551 814.572 179.43 814.907 179.281C814.974 179.251 815.044 179.222 815.114 179.191C815.568 178.987 816.092 178.749 816.685 178.526C818.073 178.001 819.833 177.554 822.226 177.601C822.854 177.613 823.458 177.616 824.044 177.616C825.376 177.616 826.623 177.602 827.87 177.644C829.501 177.594 831.109 177.647 832.781 177.872C833.233 177.933 833.672 178.023 834.138 178.119C835.516 178.403 837.16 178.749 840.045 178.693C843.904 178.589 849.883 177.924 859.47 174.718C860.141 174.492 860.841 174.289 861.575 174.095C862.671 173.802 863.817 173.537 865.01 173.258C865.784 173.076 866.576 172.887 867.383 172.684C870.337 171.944 873.581 170.977 877.148 169.267C881.48 167.187 884.235 165.363 886.527 163.846C886.606 163.793 886.685 163.739 886.765 163.686C886.864 163.621 886.962 163.556 887.06 163.492C890.445 161.258 896.106 159.246 900.781 159.539C903.713 159.723 906.05 159.561 909 159.305C910.463 159.175 911.867 158.685 914.114 157.908C914.723 157.696 915.395 157.466 916.158 157.21C919.563 156.07 924.347 154.632 931.958 153.262C933.64 152.96 935.13 152.597 936.584 152.223C936.826 152.161 937.065 152.1 937.3 152.039C937.798 151.911 938.282 151.787 938.754 151.669C940.758 151.167 942.605 150.781 944.509 150.853C946.058 150.918 949.425 150.797 953.01 150.158C956.62 149.517 960.32 148.373 962.645 146.539C962.887 146.348 963.121 146.161 963.369 145.969C965.473 144.323 967.621 142.643 969.139 140.539C971.582 136.015 974.648 132.944 981.872 130.5C989.336 127.657 998.597 127.135 1005.55 125.99C1005.7 125.965 1005.84 125.942 1005.99 125.918C1016.98 124.097 1025.38 122.452 1029.53 121.614C1030.13 121.492 1030.63 121.385 1031.03 121.299C1031.16 121.271 1031.28 121.245 1031.38 121.222C1031.48 121.201 1031.56 121.181 1031.64 121.164C1032.78 120.918 1033.78 120.584 1034.86 120.224C1034.92 120.205 1034.98 120.185 1035.04 120.165C1036.19 119.784 1037.41 119.383 1038.95 119.043C1044.67 117.769 1049.82 116.524 1054.3 115.591C1055.13 115.416 1055.94 115.253 1056.73 115.095C1056.74 115.095 1056.74 115.094 1056.74 115.094C1060.23 114.401 1063.34 113.875 1066.31 113.536C1071.72 112.927 1075.32 112.498 1078.13 112.115C1079 111.997 1079.81 111.886 1080.58 111.784C1082.21 111.564 1083.66 111.385 1085.14 111.297C1087.47 111.159 1089.62 110.961 1091.76 110.773C1092.14 110.737 1092.52 110.7 1092.9 110.664C1093.1 110.644 1093.31 110.626 1093.52 110.606C1096.04 110.366 1098.56 110.146 1101.19 110.133C1101.81 110.13 1102.32 110.832 1102.34 111.697C1102.35 112.561 1101.86 113.264 1101.24 113.267C1098.7 113.279 1096.23 113.491 1093.72 113.731C1093.52 113.751 1093.31 113.773 1093.1 113.793C1092.66 113.834 1092.22 113.876 1091.78 113.917C1089.71 114.099 1087.61 114.288 1085.33 114.422C1083.92 114.507 1082.57 114.673 1080.99 114.886C1080.24 114.987 1079.4 115.102 1078.5 115.224C1075.69 115.609 1072.1 116.039 1066.71 116.644C1063.82 116.973 1060.81 117.481 1057.37 118.162C1056.58 118.319 1055.78 118.483 1054.95 118.658C1050.53 119.58 1045.42 120.81 1039.68 122.091C1038.22 122.411 1037.06 122.793 1035.9 123.175C1035.84 123.196 1035.77 123.217 1035.71 123.238C1034.63 123.598 1033.55 123.957 1032.33 124.222C1032.16 124.257 1031.96 124.3 1031.71 124.354C1031.29 124.444 1030.77 124.557 1030.13 124.685C1025.97 125.527 1017.58 127.169 1006.62 128.983C1006.58 128.99 1006.54 128.996 1006.5 129.002C997.906 130.429 993.162 131.252 989.809 132.781C987.163 133.992 985.136 134.592 983.461 135.027C983.259 135.08 983.063 135.131 982.873 135.18C982.705 135.22 982.541 135.261 982.38 135.301C980.507 135.775 979.327 136.15 978.207 136.693C974.884 138.34 973.07 140.077 971.025 142.852C969.322 145.2 966.949 147.051 964.885 148.666C964.882 148.668 964.879 148.67 964.876 148.673C964.632 148.864 964.38 149.055 964.15 149.239ZM803.353 187.476C802.734 187.565 802.101 186.951 801.949 186.101C801.794 185.251 802.182 184.485 802.805 184.395C804.293 184.182 805.764 183.978 807.214 183.78C807.821 183.697 808.431 184.319 808.577 185.17C808.725 186.022 808.353 186.781 807.746 186.864C806.298 187.062 804.833 187.265 803.353 187.476ZM971.474 163.222C970.964 163.576 970.229 163.243 969.837 162.481C969.446 161.719 969.524 160.821 970.041 160.465C970.316 160.276 970.738 159.959 971.333 159.523C973.882 157.734 978.783 153.692 986.062 150.095C991.021 147.775 996.684 145.356 1002.65 143.454C1003.87 143.065 1004.96 142.707 1006 142.366C1010.46 140.914 1013.65 137.921 1022.46 136.196C1025.65 135.575 1028.84 134.996 1032.05 134.448C1050.52 130.613 1071.99 127.685 1091.88 128.46C1106.39 128.719 1120.86 128.7 1135.36 127.812C1146.19 127.151 1156.98 127.232 1167.81 127.582C1172.73 127.742 1179.83 128.441 1185.96 129.186C1190.97 129.818 1195.26 130.271 1196.97 130.349C1197.56 130.378 1198.04 131.1 1198.03 131.965C1198.03 132.829 1197.54 133.508 1196.94 133.479C1195.2 133.4 1190.85 132.946 1185.81 132.312C1179.76 131.572 1172.7 130.876 1167.81 130.717C1157.02 130.367 1146.27 130.284 1135.48 130.944C1120.96 131.833 1106.45 132.421 1091.91 132.859C1072.1 133.091 1052.47 136.893 1033.36 141.167C1030.17 141.766 1026.99 142.371 1023.8 142.992C1015.15 144.686 1011.31 143.926 1006.88 145.371C1005.83 145.713 1004.74 146.073 1003.51 146.466C997.473 148.389 991.735 150.854 986.728 153.208C980.206 156.557 975.298 160.475 972.816 162.243C972.21 162.69 971.755 163.025 971.474 163.222ZM944.032 170.701C943.511 170.882 942.965 171.065 942.396 171.25C936.053 173.316 927.558 175.523 920.085 177.482C916.108 178.524 912.394 179.501 909.449 180.344C904.9 181.648 901.826 181.828 898.777 182.008C898.744 182.01 898.712 182.012 898.68 182.014C895.631 182.194 892.598 182.384 887.962 183.728C883.299 185.077 877.042 187.598 870.701 190.072C870.696 190.074 870.691 190.075 870.686 190.077C869.398 190.579 868.132 191.141 866.875 191.732C861.96 194.046 857.237 196.637 853.35 197.493C845.584 199.194 839.198 200.029 834.025 200.699C827.661 201.516 823.047 201.309 820.009 200.971C814.447 200.33 808.842 201.625 803.156 202.64C803.127 202.642 803.046 202.669 803.017 202.673C800.814 203.267 798.62 203.888 796.424 204.297C794.378 204.677 792.297 204.873 790.163 204.768C788.897 204.318 789.838 201.493 791.906 201.526C791.979 201.522 792.052 201.518 792.125 201.514C792.819 201.473 793.422 201.425 794.244 201.276C794.636 201.179 794.992 201.084 795.322 200.991C795.973 200.806 796.528 200.625 797.055 200.455C797.69 200.253 799.529 199.695 802.003 199.117C802.096 199.103 802.364 199.014 802.458 199.008C807.933 198.236 816.118 197.465 819.853 197.885C822.696 198.206 826.895 197.327 832.665 195.603C837.703 194.074 844.036 192.44 851.74 190.755C855.516 189.925 860.689 189.73 865.858 188.348C867.13 188.009 868.391 187.611 869.635 187.126C869.652 187.119 869.67 187.112 869.687 187.106C875.959 184.657 882.274 182.113 887.012 180.742C891.821 179.348 894.986 179.154 898.077 178.971C898.107 178.97 898.137 178.969 898.167 178.967C901.188 178.79 904.125 178.615 908.511 177.359C911.523 176.496 915.272 175.505 919.287 174.452C926.761 172.494 935.189 170.309 941.481 168.255C942.015 168.081 942.528 167.908 943.02 167.738C943.59 167.541 944.288 168.042 944.57 168.859C944.851 169.677 944.603 170.503 944.032 170.701ZM949.631 189.388C949.147 189.636 948.657 189.882 948.162 190.126C931.328 198.548 913.423 203.043 894.925 205.163C890.212 206.526 883.559 208.384 876.782 210.198C876.705 210.217 876.628 210.236 876.551 210.256C875.279 210.596 874.011 210.932 872.746 211.265C867.041 212.783 861.569 214.023 857.534 214.915C849.462 216.687 843.413 217.792 838.827 218.683C831.717 220.138 826.773 220.458 823.552 220.15C818.083 219.586 816.766 219.795 814.723 220.156C814.667 220.165 814.612 220.173 814.557 220.182C814.553 220.185 814.55 220.188 814.547 220.192C814.485 220.244 814.431 220.277 814.402 220.292C814.345 220.323 814.297 220.34 814.278 220.346C814.237 220.36 814.201 220.367 814.188 220.37C814.136 220.382 814.076 220.392 814.038 220.397C813.676 220.446 812.538 220.555 811.64 220.587C810.718 220.621 810.052 220.57 809.349 220.51C809.278 220.503 809.207 220.497 809.136 220.49C808.504 220.435 807.817 220.376 806.848 220.356C806.747 220.354 806.647 220.332 806.55 220.293L807.946 219.96C807.515 219.795 807.098 219.224 806.948 218.528C806.827 217.965 806.918 217.462 807.155 217.186L806.005 217.46C806.15 217.332 806.325 217.261 806.521 217.264C807.55 217.283 808.287 217.346 808.925 217.401C808.996 217.408 809.067 217.414 809.138 217.421C809.815 217.478 810.407 217.518 811.229 217.489C812.405 217.374 813.277 217.224 814.077 217.085C816.19 216.712 817.725 216.472 823.423 217.063C826.456 217.353 831.166 217.052 838.019 215.658C842.629 214.757 848.697 213.65 856.78 211.877C860.791 210.992 866.207 209.766 871.845 208.268C873.108 207.935 874.373 207.6 875.642 207.261C875.721 207.24 875.799 207.219 875.877 207.197C882.635 205.389 889.274 203.541 893.976 202.18C911.825 196.994 928.655 190.22 947.118 186.709C947.62 186.612 948.119 186.517 948.615 186.426C952.035 185.246 955.162 184.212 958.063 183.241C966.588 180.384 973.083 178.088 978.514 174.286C979.66 173.478 983.196 171.887 987.474 170.162C988.441 169.771 989.497 169.377 990.131 169.124C990.472 169.023 990.818 168.92 991.166 168.816C995.633 167.485 1000.86 165.873 1006.65 164.023C1007.86 163.636 1008.94 163.28 1009.97 162.942C1014.37 161.5 1017.84 160.345 1026.43 158.659C1029.33 158.092 1032.76 157.483 1036.44 156.874C1047.35 154.941 1057.76 152.856 1064.22 152.419C1068.67 152.042 1071.2 152.074 1072.99 152.12C1073.49 152.135 1073.95 152.154 1074.34 152.173C1075.38 152.222 1076.22 152.263 1077.28 152.257C1082.62 152.234 1086.86 152.032 1092.03 151.664C1094.49 151.503 1097.08 151.291 1100.04 151.046C1100.64 150.996 1101.16 151.657 1101.21 152.52C1101.26 153.383 1100.82 154.124 1100.22 154.175C1097.2 154.425 1094.56 154.64 1092.05 154.803C1086.96 155.166 1082.74 155.363 1077.47 155.381C1076.38 155.386 1075.5 155.34 1074.46 155.289C1074.07 155.271 1073.64 155.253 1073.18 155.238C1071.45 155.191 1069 155.155 1064.66 155.519C1058.33 155.939 1048.14 157.974 1037.05 159.949C1033.38 160.554 1029.97 161.159 1027.09 161.722C1018.6 163.387 1015.22 164.512 1010.84 165.947C1009.82 166.284 1008.72 166.645 1007.51 167.035C1001.72 168.885 996.467 170.506 991.981 171.842C991.579 171.962 991.181 172.08 990.788 172.197C990.314 172.41 989.362 172.768 988.475 173.13C984.272 174.838 980.888 176.367 979.931 177.049C974.34 180.972 967.538 183.377 958.905 186.265C956.032 187.227 952.951 188.242 949.631 189.388ZM1134.67 151.882C1134.05 151.919 1133.55 151.247 1133.52 150.383C1133.49 149.519 1133.93 148.788 1134.55 148.751C1137.74 148.553 1140.03 148.392 1141.82 148.266C1145.14 148.034 1146.74 147.925 1149.14 147.992C1155.33 148.165 1161.28 148.332 1166.67 148.505C1174.45 148.755 1181.13 149.025 1185 149.325C1185.6 149.37 1186.13 149.411 1186.62 149.453C1187.25 149.506 1187.73 150.248 1187.69 151.111C1187.64 151.974 1187.09 152.631 1186.46 152.578C1185.97 152.538 1185.44 152.496 1184.86 152.452C1181.05 152.155 1174.41 151.885 1166.68 151.636C1161.29 151.462 1155.33 151.299 1149.12 151.125C1146.78 151.06 1145.28 151.161 1142.04 151.388C1140.25 151.513 1137.94 151.679 1134.67 151.882Z" fill="#F5F0E9"/>
<path d="M99.9968 153.83C103.997 153.626 108.742 152.278 112.571 152.479C112.571 152.479 112.572 152.479 112.572 152.479C112.628 152.481 112.685 152.484 112.741 152.486C114.378 152.561 116.054 152.726 118.061 152.92C118.317 152.945 118.579 152.971 118.844 152.997C121.216 153.226 124.105 153.481 127.887 153.725C140.411 154.536 149.785 152.756 152.877 152.177C153.113 152.133 153.35 152.09 153.59 152.048C158.007 151.432 160.185 150.969 163.465 150.714C166.655 150.445 170.337 150.314 174.631 150.21C175.433 150.191 176.283 150.175 177.145 150.157C177.864 150.142 178.426 150.83 178.463 151.694C178.487 152.558 177.969 153.27 177.259 153.285C176.414 153.303 175.593 153.322 174.807 153.341C174.803 153.341 174.799 153.341 174.796 153.341C170.423 153.447 166.728 153.579 163.584 153.849C160.341 154.107 158.304 154.567 153.731 155.203C153.603 155.226 153.476 155.249 153.349 155.273C150.19 155.864 140.685 157.67 127.908 156.841C124.095 156.594 121.159 156.342 118.766 156.111C118.504 156.086 118.248 156.061 117.997 156.037C117.991 156.036 117.985 156.035 117.979 156.035C115.994 155.843 114.406 155.686 112.86 155.613C112.828 155.611 112.796 155.609 112.764 155.608C112.733 155.607 112.701 155.606 112.669 155.605C108.799 155.403 104.137 156.751 100.239 156.951C99.4946 156.989 98.8356 156.319 98.7704 155.457C98.707 154.595 99.2577 153.869 99.9968 153.83ZM354.481 160.812C354.96 160.806 355.452 160.821 355.954 160.854C359.582 161.074 363.719 162.363 367.291 163.835C371.374 165.512 374.824 167.513 376.374 168.595C377.896 169.651 379.688 170.414 381.833 171.267C382.325 171.462 382.835 171.662 383.362 171.872C384.846 172.464 386.458 173.129 388.171 173.973C388.507 174.134 388.845 174.298 389.184 174.466C397.651 178.645 403.746 180.459 408.138 181.541C409.046 181.763 409.884 181.952 410.693 182.129C410.695 182.129 410.696 182.13 410.697 182.13C413.71 182.785 415.983 183.196 418.021 183.946C421.645 185.273 424.695 186.283 428.265 187.791C430.109 188.571 432.272 189.104 434.309 189.425C436.323 189.832 439.822 190.154 442.366 189.999C442.593 189.986 442.833 189.972 443.069 189.959C446.107 189.797 449.957 189.675 455.712 190.27C460.499 190.766 464.603 191.759 468.284 192.733C469.345 193.014 470.345 193.289 471.337 193.553C471.508 193.598 471.677 193.643 471.844 193.687C474.195 194.304 476.344 194.809 478.407 195.095C492.211 196.901 499.711 197.677 504.369 198.941C504.937 199.085 505.449 199.23 505.941 199.375L504.644 199.225C507.25 200.247 508.93 201.17 510.18 201.856C510.629 202.102 511.033 202.321 511.411 202.499C514.819 204.091 518.017 204.922 521.771 205.841C522.592 206.044 523.461 206.253 524.364 206.473C527.373 207.206 529.612 207.239 531.368 207.111C532.139 207.055 532.798 206.969 533.451 206.886C533.463 206.884 533.475 206.882 533.487 206.88C533.58 206.868 533.664 206.858 533.75 206.846C533.814 206.838 533.879 206.826 533.944 206.817C533.97 206.803 533.993 206.794 534.01 206.786C534.024 206.779 534.035 206.775 534.042 206.772C534.043 206.771 534.044 206.769 534.046 206.768C534.171 206.714 534.277 206.696 534.299 206.692C534.337 206.685 534.371 206.682 534.388 206.68C534.48 206.67 534.597 206.668 534.676 206.667C534.875 206.666 535.235 206.669 535.772 206.68C536.233 206.656 536.682 206.599 537.253 206.527C537.289 206.522 537.326 206.517 537.362 206.512C537.935 206.441 538.539 206.358 539.359 206.284C540.114 206.218 540.728 206.859 540.797 207.721C540.856 208.583 540.331 209.339 539.59 209.407C538.815 209.476 538.216 209.555 537.675 209.627C537.641 209.632 537.606 209.637 537.57 209.642C536.98 209.716 536.431 209.785 535.851 209.813C535.657 209.822 535.461 209.827 535.264 209.828C534.915 209.851 534.521 209.898 534.056 209.96C533.963 209.972 533.867 209.983 533.769 209.996C533.147 210.081 532.369 210.177 531.552 210.239C529.568 210.381 527.109 210.34 523.781 209.534C522.927 209.324 522.064 209.12 521.248 208.92C517.442 207.993 513.927 207.092 510.262 205.378C509.757 205.142 509.284 204.885 508.779 204.609C507.607 203.966 506.25 203.215 504.138 202.361L505.718 202.543C505.141 202.365 504.51 202.185 503.797 202.003C499.334 200.79 491.991 200.025 478.017 198.203C475.862 197.905 473.588 197.375 471.203 196.752C470.979 196.693 470.752 196.632 470.522 196.571C469.546 196.311 468.57 196.049 467.567 195.784C463.922 194.82 459.939 193.857 455.321 193.379C449.703 192.798 445.971 192.914 442.967 193.073C442.863 193.079 442.76 193.086 442.657 193.092C442.529 193.099 442.404 193.107 442.278 193.114C439.635 193.278 435.908 192.944 434.023 192.544C431.789 192.198 429.346 191.605 427.222 190.713C423.725 189.246 420.74 188.258 417.054 186.913C415.244 186.246 413.248 185.89 410.235 185.239C409.379 185.053 408.465 184.844 407.439 184.593C402.878 183.471 396.577 181.595 387.907 177.321C387.618 177.178 387.331 177.038 387.045 176.901C385.375 176.07 383.815 175.424 382.332 174.832C381.803 174.621 381.284 174.415 380.776 174.213C378.657 173.368 376.683 172.544 374.943 171.334C373.517 170.338 370.212 168.409 366.257 166.783C362.552 165.255 358.443 164.03 355.101 163.939C354.847 163.93 354.597 163.927 354.351 163.93C353.977 163.934 353.601 163.936 353.224 163.937C349.982 163.953 346.692 163.913 343.808 164.608C329.921 170.411 311.663 159.716 300.726 155.685C300.587 155.633 300.437 155.579 300.293 155.526C296.791 154.239 293.548 153.293 292.123 153.011C282.729 151.251 278.006 150.801 275.367 150.574C275.212 150.561 275.07 150.549 274.942 150.538C274.827 150.528 274.722 150.521 274.63 150.513C273.262 150.396 272.008 150.406 270.721 150.427C270.65 150.429 270.578 150.43 270.507 150.431C269.137 150.454 267.674 150.479 265.968 150.374C260.347 150.034 255.568 150.023 251.312 150.085C250.719 150.094 250.118 150.104 249.518 150.115C248.661 150.132 247.76 150.146 246.944 150.164C246.941 150.164 246.939 150.164 246.936 150.164C243.25 150.244 239.954 150.328 236.839 150.308C231.148 150.274 227.296 150.462 224.299 150.668C223.359 150.733 222.491 150.799 221.675 150.863C219.905 151.002 218.364 151.125 216.772 151.167C213.777 151.248 211.025 151.466 208.31 151.68C208.068 151.699 207.829 151.716 207.586 151.735C204.648 151.967 201.734 152.186 198.659 152.206C197.954 152.211 197.347 151.511 197.33 150.646C197.308 149.782 197.885 149.078 198.59 149.073C201.581 149.053 204.423 148.842 207.363 148.61C207.607 148.591 207.852 148.57 208.095 148.551C210.803 148.337 213.61 148.12 216.663 148.038C218.198 147.997 219.656 147.881 221.392 147.745C222.219 147.68 223.109 147.61 224.102 147.542C227.148 147.333 231.052 147.14 236.807 147.175C239.891 147.194 243.142 147.113 246.839 147.033C247.668 147.015 248.57 146.997 249.445 146.98C250.076 146.969 250.726 146.958 251.359 146.949C255.632 146.888 260.437 146.901 266.103 147.243C267.728 147.343 269.143 147.322 270.518 147.298C270.597 147.297 270.675 147.296 270.754 147.296C272.045 147.274 273.392 147.262 274.858 147.387C275.057 147.404 275.31 147.428 275.608 147.453C278.257 147.678 283.245 148.16 292.585 149.914C294.321 150.247 297.661 151.234 301.252 152.547C301.292 152.562 301.333 152.577 301.373 152.593C310.104 155.822 315.564 158.129 319.854 158.788C323.277 159.342 325.761 160.043 327.796 160.666C328.182 160.785 328.549 160.897 328.9 161.006C330.412 161.477 331.616 161.847 332.873 162.043C336.689 162.637 339.646 162.475 343.42 161.565C346.619 160.794 350.209 160.834 353.363 160.819C353.368 160.819 353.372 160.819 353.377 160.819C353.752 160.817 354.12 160.816 354.481 160.812ZM549.932 204.584C550.647 204.632 551.205 205.369 551.173 206.232C551.138 207.096 550.526 207.759 549.806 207.711C548.047 207.594 546.311 207.474 544.59 207.351C543.844 207.298 543.287 206.557 543.326 205.694C543.366 204.831 543.985 204.172 544.729 204.224C546.444 204.347 548.175 204.467 549.932 204.584ZM355.89 145.006C356.599 145.032 357.102 145.747 357.019 146.604C356.935 147.461 356.29 148.136 355.574 148.11C355.196 148.096 354.569 148.087 353.726 148.072C347.687 148.091 330.05 146.939 312.837 142.365C311.383 141.993 310.081 141.677 308.859 141.391C304.494 140.425 300.058 140.558 294.065 139.971C292.607 139.84 291.089 139.637 289.473 139.367C277.046 137.205 264.466 136.138 251.53 135.459C227.441 134.283 203.112 133.236 179.016 134.029C172.182 134.281 165.381 134.685 158.789 135.574C156.952 135.819 155.039 136.108 152.887 136.296C142.186 137.258 131.752 138.19 120.971 139.291C118.264 139.556 114.945 139.782 111.419 139.939C101.32 140.415 89.5037 140.523 85.7755 140.416C84.9957 140.409 84.3449 139.685 84.3614 138.821C84.3692 137.957 84.9877 137.279 85.728 137.286C89.258 137.398 101.038 137.302 111.133 136.823C114.598 136.669 117.865 136.447 120.542 136.185C131.362 135.079 141.965 134.13 152.747 133.16C154.722 132.984 156.57 132.707 158.384 132.465C165.145 131.554 172.042 131.055 178.964 130.645C203.111 129.309 227.415 129.022 251.622 129.332C264.716 129.544 277.762 130.3 290.61 132.534C292.23 132.804 293.699 133.096 295.047 133.372C301.936 134.997 305.139 137.372 309.603 138.35C310.846 138.642 312.16 138.957 313.642 139.338C330.704 143.867 347.921 144.979 353.984 144.968C354.848 144.983 355.493 144.992 355.89 145.006ZM387.827 155.761C389.822 156.389 392.004 157.162 394.295 158.057C400.731 160.585 408.226 163.421 415.176 165.38C419.701 166.671 423.983 167.593 427.449 168.125C430.98 168.669 433.671 169.245 436.095 169.913C437.458 170.272 438.659 170.7 439.841 171.142C439.878 171.156 439.914 171.169 439.95 171.183C443.364 172.482 446.651 173.882 452.201 175.212C457.792 176.545 465.657 177.9 473.571 179.079C473.577 179.081 473.583 179.082 473.589 179.083C474.014 179.146 474.444 179.204 474.863 179.255C482.34 180.19 489.894 179.237 495.296 179.86C499.594 180.362 503.565 180.822 507.212 181.31C507.276 181.307 507.465 181.343 507.529 181.346C520.348 184.262 529.092 186.021 533.989 187.667C540.897 189.881 548.574 189.51 556.071 189.936L556.05 189.936C560.448 190.205 564.405 191.133 568.441 193.196C569.635 194.207 566.997 196.23 564.911 195.204C564.836 195.173 564.76 195.142 564.685 195.111C563.97 194.822 563.36 194.587 562.486 194.364C561.213 194.117 560.234 194.03 559.336 193.96C558.811 193.92 557.586 193.807 555.898 193.675L555.968 193.678C549.816 193.299 538.105 192.248 533.316 190.697C528.67 189.123 519.961 189.729 506.497 187.74L506.757 187.77C503.069 187.555 499.02 187.267 494.575 186.749C489.069 186.115 481.783 183.654 474.214 182.355C473.849 182.294 473.478 182.235 473.102 182.179C473.079 182.176 473.057 182.173 473.035 182.169C465.117 180.988 457.19 179.623 451.537 178.274C445.822 176.903 442.428 175.451 439.075 174.167C439.042 174.155 439.009 174.142 438.976 174.129C437.945 173.739 436.916 173.368 435.808 173.056C433.379 172.372 430.682 171.786 427.041 171.228C423.41 170.673 418.945 169.716 414.287 168.385C407.186 166.38 399.631 163.514 393.171 160.979C390.955 160.112 388.845 159.364 386.911 158.756C386.22 158.538 385.86 157.693 386.107 156.864C386.354 156.035 387.124 155.54 387.827 155.761ZM394.393 137.391C396.809 137.876 399.216 138.446 401.593 139.088C415.162 142.384 424.787 145.181 438.133 147.654C446.505 149.114 451.283 151.087 456.805 153.149C462.69 154.547 470.651 156.697 478.029 158.534C478.111 158.555 478.196 158.577 478.279 158.599C478.57 158.671 478.857 158.741 479.139 158.81C485.607 160.419 492.045 161.444 497.118 162.035C501.094 162.504 504.914 162.879 508.484 163.244C508.873 163.23 510.024 163.447 510.413 163.468C521.967 165.764 530.342 166.561 535.132 168.197C540.778 170.048 542.43 170.1 544.806 170.203C544.871 170.207 544.936 170.211 545.001 170.214C545.006 170.212 545.01 170.209 545.015 170.207C545.098 170.17 545.169 170.149 545.205 170.141C545.278 170.123 545.338 170.117 545.36 170.115C545.412 170.111 545.455 170.112 545.471 170.112C545.534 170.112 545.606 170.115 545.652 170.118C546.099 170.15 547.383 170.29 548.473 170.456C549.532 170.623 550.313 170.819 551.137 171.032C551.217 171.054 551.298 171.076 551.379 171.098C552.095 171.29 552.909 171.5 554.061 171.735C554.751 171.877 555.234 172.684 555.122 173.537C555.011 174.39 554.35 174.965 553.662 174.823C552.421 174.575 551.587 174.352 550.858 174.158C550.774 174.137 550.691 174.115 550.608 174.093C549.814 173.888 549.144 173.72 548.187 173.57C546.765 173.425 545.765 173.383 544.797 173.342C542.329 173.234 540.42 173.169 534.477 171.224C529.933 169.66 521.703 168.887 509.915 166.558C509.581 166.54 508.597 166.355 508.264 166.367C504.702 166.003 500.865 165.626 496.827 165.151C491.691 164.554 485.099 163.511 478.498 161.873C478.211 161.803 477.919 161.732 477.623 161.659C477.537 161.638 477.448 161.617 477.363 161.596C469.913 159.742 461.984 157.596 456.143 156.208C450.482 154.907 445.428 153.668 437.656 152.874C423.892 152.016 412.731 149.371 399.955 143.344C397.815 142.358 395.655 141.373 393.487 140.39C389.079 138.985 385.084 137.799 381.476 136.779C374.561 134.837 368.993 133.425 363.774 132.562C361.182 132.16 358.638 131.874 356.044 131.773C354.413 131.708 350.348 130.824 344.386 129.277C342.643 128.826 340.713 128.31 338.63 127.746C333.498 126.361 327.405 124.634 320.224 122.753C318.726 122.363 317.359 122.023 316.041 121.703C310.943 120.571 307.726 119.399 297.404 117.543C296.363 117.391 295.156 117.193 293.777 116.962C282.475 114.823 264.203 113.105 251.874 112.484C249.558 112.348 247.447 112.224 245.574 112.11C239.707 111.752 236.428 111.46 234.091 111.216C233.445 111.148 232.861 111.083 232.345 111.026C230.981 110.876 229.914 110.761 228.522 110.682C218.493 110.119 211.479 110.482 199.976 111.291C199.251 111.342 198.622 110.682 198.563 109.82C198.505 108.957 199.04 108.214 199.765 108.162C211.299 107.351 218.421 106.981 228.598 107.553C230.051 107.635 231.198 107.76 232.583 107.913C233.1 107.97 233.658 108.031 234.272 108.095C236.575 108.335 239.818 108.625 245.666 108.981C247.527 109.094 249.622 109.217 251.921 109.352C264.281 109.971 282.822 111.703 294.236 113.862C295.636 114.097 296.844 114.295 297.866 114.444C308.564 116.365 311.627 117.517 316.78 118.659C318.108 118.982 319.496 119.325 321.021 119.723C328.252 121.617 334.363 123.349 339.48 124.729C341.556 125.291 343.472 125.802 345.201 126.25C351.254 127.818 355.037 128.625 356.427 128.681C359.177 128.787 361.875 129.098 364.612 129.53C369.927 130.427 375.577 131.861 382.502 133.811C386.102 134.831 390.067 136.013 394.393 137.391ZM157.607 111.522C158.384 111.424 159.1 112.047 159.209 112.906C159.315 113.764 158.781 114.534 158.021 114.63C155.201 114.984 153.23 115.31 151.958 115.481C151.12 115.574 150.402 115.66 149.704 115.742C145.685 116.22 143.734 116.475 140.803 116.64C133.231 117.066 125.871 117.754 119.51 118.384C115.874 118.742 112.541 119.064 109.525 119.322C103.571 119.838 98.8861 120.221 95.9502 120.357C95.2468 120.39 94.6322 119.715 94.5684 118.853C94.5071 117.992 95.0147 117.27 95.7128 117.236C98.6226 117.102 103.278 116.722 109.238 116.206C112.205 115.953 115.484 115.636 119.081 115.282C125.445 114.651 132.893 113.948 140.563 113.516C143.42 113.354 145.289 113.114 149.228 112.643C150.016 112.551 150.843 112.452 151.818 112.343C152.959 112.181 154.836 111.87 157.607 111.522Z" fill="#F5F0E9"/>
<path d="M1356.85 176.195C1357.08 176.239 1357.31 176.279 1357.55 176.317C1360.63 176.798 1364.42 176.678 1367.29 177.698C1367.33 177.714 1367.38 177.729 1367.42 177.744C1368.69 178.194 1369.96 178.75 1371.49 179.427C1371.69 179.514 1371.89 179.604 1372.1 179.694C1373.91 180.499 1376.15 181.482 1379.21 182.711C1383.5 184.427 1387.52 185.533 1391.08 186.25C1392.86 186.608 1394.53 186.871 1396.17 187.076C1397 187.178 1397.82 187.267 1398.74 187.355C1399.75 187.438 1400.42 187.541 1402.91 187.639C1403.42 187.561 1403.87 187.495 1404.21 187.449C1408.26 186.899 1413.88 187.787 1421.93 189.039C1422.67 189.154 1423.43 189.274 1424.21 189.393C1424.84 189.489 1425.27 190.259 1425.15 191.116C1425.04 191.973 1424.42 192.589 1423.78 192.494C1423.01 192.376 1422.27 192.262 1421.54 192.151C1421.54 192.15 1421.54 192.15 1421.53 192.149C1413.41 190.885 1407.97 190.034 1404.16 190.57C1403.8 190.621 1403.3 190.698 1402.74 190.788C1399.89 190.665 1399.21 190.544 1398.14 190.451C1397.17 190.354 1396.3 190.252 1395.46 190.145C1393.76 189.923 1392.08 189.651 1390.27 189.281C1386.67 188.542 1382.66 187.426 1378.38 185.708C1375.29 184.47 1373.04 183.483 1371.22 182.677C1371.02 182.588 1370.82 182.501 1370.64 182.417C1370.63 182.415 1370.63 182.413 1370.62 182.411C1369.09 181.732 1367.88 181.199 1366.67 180.772C1366.65 180.763 1366.62 180.755 1366.6 180.746C1363.72 179.723 1360.04 179.861 1357.07 179.409C1356.82 179.371 1356.59 179.33 1356.36 179.285C1355.77 179.168 1355.42 178.385 1355.55 177.53C1355.69 176.678 1356.26 176.078 1356.85 176.195ZM1586.97 190.996C1590.3 189.877 1594.68 190.007 1598.56 190.5C1602.45 190.998 1605.98 191.891 1607.65 192.443C1609.27 192.982 1611.07 193.143 1613.22 193.228C1613.71 193.247 1614.22 193.263 1614.75 193.279C1616.49 193.332 1618.43 193.39 1620.56 193.609C1622.85 193.846 1624.9 194.01 1626.74 194.122C1631.31 194.39 1634.68 194.3 1637.3 194.158C1638.07 194.116 1638.78 194.068 1639.44 194.023C1639.44 194.022 1639.44 194.022 1639.44 194.022C1641.95 193.85 1643.8 193.71 1645.52 193.991C1648.56 194.491 1651.01 194.936 1653.87 195.931C1655.39 196.458 1657.11 196.738 1658.85 196.837C1662.27 196.968 1665.18 196.525 1667.5 195.804C1667.71 195.739 1667.92 195.671 1668.12 195.604C1670.82 194.749 1674.11 193.696 1679.08 192.859C1683.21 192.165 1686.84 192.132 1690.03 192.238C1690.95 192.268 1691.82 192.311 1692.66 192.352C1694.78 192.454 1696.68 192.551 1698.47 192.463C1699.15 192.429 1699.81 192.4 1700.47 192.375C1711.8 191.928 1718.53 190.992 1722.87 190.945C1726.42 190.854 1728.42 191.201 1729.81 191.493C1730.23 191.579 1730.58 191.661 1730.91 191.714C1731.2 191.762 1731.49 191.805 1731.75 191.848C1735.33 191.937 1738.42 191.397 1741.46 190.909C1742.21 190.789 1742.96 190.674 1743.69 190.575C1745.04 190.396 1746.01 190.164 1746.77 189.911C1747.87 189.542 1748.69 189.166 1749.38 188.811C1750.03 188.47 1750.55 188.147 1751.03 187.848C1751.04 187.842 1751.04 187.836 1751.05 187.83C1751.12 187.788 1751.18 187.748 1751.25 187.708C1751.3 187.677 1751.34 187.643 1751.39 187.613C1751.41 187.591 1751.42 187.574 1751.43 187.561C1751.44 187.55 1751.45 187.542 1751.45 187.537C1751.45 187.536 1751.45 187.534 1751.45 187.532C1751.53 187.439 1751.61 187.386 1751.62 187.375C1751.65 187.355 1751.68 187.342 1751.69 187.334C1751.75 187.294 1751.84 187.252 1751.9 187.225C1752.05 187.157 1752.32 187.043 1752.72 186.881C1753.06 186.708 1753.36 186.515 1753.73 186.276C1753.75 186.26 1753.77 186.245 1753.8 186.23C1754.16 185.998 1754.57 185.733 1755.08 185.441C1755.54 185.174 1756.18 185.61 1756.51 186.404C1756.85 187.198 1756.78 188.039 1756.34 188.295C1755.88 188.562 1755.51 188.805 1755.16 189.031C1755.14 189.045 1755.12 189.06 1755.1 189.075C1754.74 189.312 1754.38 189.541 1753.97 189.75C1753.84 189.82 1753.69 189.889 1753.55 189.951C1753.31 190.083 1753.04 190.255 1752.7 190.47C1752.63 190.513 1752.56 190.556 1752.49 190.602C1752.02 190.898 1751.46 191.251 1750.75 191.623C1749.98 192.026 1749.05 192.453 1747.76 192.882C1746.97 193.142 1745.93 193.386 1744.47 193.586C1743.75 193.684 1743.02 193.8 1742.27 193.923C1739.36 194.398 1736.18 194.971 1732.51 194.98C1732.07 194.915 1731.57 194.849 1731.06 194.77C1730.62 194.705 1730.18 194.616 1729.71 194.522C1728.28 194.246 1726.54 193.951 1723.17 194.044C1718.92 194.093 1712.14 195.05 1700.49 195.508C1699.87 195.532 1699.24 195.559 1698.61 195.591C1696.73 195.684 1694.72 195.579 1692.57 195.475C1691.74 195.436 1690.91 195.4 1690.05 195.371C1686.92 195.267 1683.41 195.3 1679.44 195.969C1674.58 196.786 1671.39 197.806 1668.72 198.657C1668.62 198.687 1668.53 198.718 1668.44 198.748C1668.32 198.784 1668.21 198.821 1668.1 198.856C1665.63 199.617 1662.64 200.097 1658.9 199.969C1657.02 199.866 1655.15 199.559 1653.46 198.97C1650.72 198.023 1648.39 197.594 1645.35 197.096C1643.85 196.851 1642.25 196.973 1639.79 197.141C1639.09 197.189 1638.33 197.237 1637.49 197.283C1634.82 197.428 1631.39 197.521 1626.78 197.256C1624.9 197.142 1622.8 196.975 1620.45 196.733C1618.39 196.521 1616.53 196.465 1614.8 196.412C1614.26 196.396 1613.74 196.378 1613.21 196.358C1611.06 196.272 1609.05 196.112 1607.16 195.488C1605.61 194.975 1602.2 194.104 1598.39 193.619C1594.56 193.132 1590.49 193.051 1587.56 194.037C1587.26 194.14 1586.95 194.241 1586.64 194.343C1583.99 195.219 1581.27 196.095 1579 197.566C1577.3 199.135 1575.32 200.315 1573.1 201.158C1563.15 205.342 1549.71 202.337 1539.11 200.814C1538.95 200.79 1538.78 200.766 1538.62 200.742C1536.67 200.457 1534.79 200.166 1533 199.877C1522.94 198.19 1515.77 197.613 1513.07 197.4C1512.93 197.388 1512.79 197.378 1512.67 197.369C1512.57 197.36 1512.47 197.354 1512.39 197.348C1511.11 197.246 1509.99 197.264 1508.79 197.285C1508.72 197.286 1508.66 197.288 1508.59 197.289C1507.33 197.311 1506 197.33 1504.42 197.203C1500.14 196.86 1496.23 196.656 1492.63 196.437C1491.27 196.356 1490.02 196.278 1488.83 196.203C1488 196.151 1487.22 196.098 1486.45 196.049C1486.45 196.049 1486.45 196.049 1486.45 196.048C1483.09 195.83 1480.16 195.623 1477.4 195.323C1472.37 194.774 1468.98 194.59 1466.34 194.511C1465.51 194.485 1464.75 194.469 1464.03 194.455C1462.48 194.423 1461.13 194.397 1459.75 194.288C1457.34 194.098 1455.1 194.044 1452.95 194.011C1452.8 194.011 1452.65 194.011 1452.5 194.012C1452.32 194.012 1452.14 194.011 1451.96 194.012C1449.75 194.021 1447.42 194.058 1444.75 193.876C1444.13 193.834 1443.65 193.096 1443.7 192.232C1443.75 191.369 1444.3 190.705 1444.92 190.747C1447.52 190.925 1449.83 190.892 1452.1 190.885C1452.29 190.884 1452.48 190.882 1452.66 190.882C1452.87 190.882 1453.08 190.882 1453.28 190.883C1455.39 190.917 1457.61 190.978 1459.99 191.167C1461.33 191.272 1462.61 191.298 1464.13 191.328C1464.85 191.342 1465.64 191.358 1466.51 191.384C1469.19 191.465 1472.62 191.649 1477.69 192.203C1480.42 192.499 1483.3 192.705 1486.64 192.922C1487.41 192.972 1488.2 193.022 1489.02 193.074C1490.24 193.15 1491.52 193.23 1492.9 193.313C1496.46 193.529 1500.34 193.733 1504.62 194.075C1506.12 194.196 1507.38 194.18 1508.65 194.158C1508.72 194.157 1508.79 194.156 1508.86 194.155C1510.05 194.134 1511.25 194.113 1512.6 194.221C1512.78 194.236 1513.01 194.256 1513.29 194.278C1516.01 194.492 1523.26 195.074 1533.4 196.77C1535.17 197.058 1537.03 197.348 1538.97 197.632C1539.01 197.639 1539.06 197.646 1539.1 197.653C1548.71 199.004 1553.73 199.376 1557.61 198.815C1560.63 198.347 1562.89 198.289 1564.71 198.295C1565.05 198.297 1565.38 198.297 1565.69 198.3C1567.06 198.314 1568.12 198.323 1569.2 198.153C1570.7 197.916 1572 197.58 1573.28 197.103C1574.87 196.552 1576.34 195.79 1577.95 194.753C1580.46 193.118 1583.46 192.158 1586.06 191.3C1586.06 191.299 1586.06 191.298 1586.07 191.297C1586.37 191.195 1586.68 191.095 1586.97 190.996ZM1761.39 181.45C1761.92 181.353 1762.47 181.965 1762.66 182.809C1762.84 183.654 1762.6 184.406 1762.1 184.5C1761.71 184.571 1761.32 184.647 1760.91 184.728C1760.85 184.735 1760.7 184.788 1760.64 184.794C1760.02 184.897 1759.36 185.028 1758.66 185.189C1758.23 185.287 1757.66 184.711 1757.4 183.885C1757.15 183.058 1757.34 182.287 1757.8 182.179C1758.54 182.007 1759.25 181.862 1759.92 181.746C1759.97 181.741 1760.1 181.697 1760.15 181.691C1760.57 181.606 1760.99 181.525 1761.39 181.45ZM1584.51 175.392C1585.11 175.224 1585.71 175.778 1585.84 176.626C1585.97 177.474 1585.58 178.297 1584.97 178.465C1584.65 178.554 1584.11 178.716 1583.4 178.932C1581.46 179.512 1578.18 180.509 1573.97 181.459C1566.93 183.009 1557.52 184.825 1547.58 185.027C1546.24 185.05 1545.04 185.073 1543.88 185.086C1540.99 185.117 1538.35 185.74 1534.76 185.956C1532.33 186.122 1529.43 186.129 1525.73 185.679C1515.18 184.354 1504.83 183.344 1493.89 182.01C1480.65 180.256 1467.77 178.028 1454.82 176.353C1446.98 175.329 1438.57 175.114 1429.96 173.961C1423.5 173.127 1417.04 172.271 1410.8 171.9C1408.37 171.761 1406 171.649 1403.74 171.647C1393.1 170.449 1386.13 168.626 1377.46 167.04C1372.6 166.095 1365.65 164.386 1359.61 162.992C1354.46 161.788 1349.99 160.837 1348.52 160.686C1348.02 160.627 1347.79 159.911 1347.74 159.045C1347.76 158.181 1348.15 157.498 1348.74 157.564C1350.42 157.732 1354.9 158.691 1360.09 159.899C1366.13 161.293 1373.09 163 1377.94 163.943C1386.55 165.525 1394.2 167.437 1403.91 168.513C1406.23 168.521 1408.63 168.638 1411.05 168.776C1417.45 169.16 1423.96 169.918 1430.47 170.578C1438.85 171.472 1447.13 171.341 1455.28 172.008C1468.33 173.083 1481.35 174.608 1494.43 175.825C1505.18 176.719 1515.87 177.459 1526.54 178.8C1530.3 179.256 1533.12 179.904 1535.44 180.498C1538.71 181.327 1541.11 181.988 1543.93 181.957C1545.07 181.943 1546.27 181.919 1547.61 181.896C1557.56 181.691 1567.1 179.822 1574.12 178.257C1577.97 177.361 1581.02 176.435 1582.88 175.875C1583.61 175.653 1584.17 175.486 1584.51 175.392ZM1613.57 176.61C1617.26 176.441 1621.8 176.436 1626.52 176.513C1630.72 176.585 1635.05 176.664 1639.13 176.688C1643.35 176.714 1647.28 176.689 1650.46 176.629C1653.76 176.564 1656.27 176.85 1658.49 177.263C1659.52 177.468 1660.57 177.68 1661.58 177.893C1661.61 177.899 1661.64 177.906 1661.67 177.913C1664.74 178.552 1667.83 179.163 1672.8 179.116C1677.81 179.068 1684.74 178.368 1691.73 177.743C1691.74 177.743 1691.74 177.743 1691.75 177.743C1694.64 177.484 1697.55 176.961 1700.34 176.451C1704.14 175.735 1707.56 174.778 1710.39 174.509C1716.75 173.919 1722.15 172.963 1727.02 172.304C1732.29 171.623 1736.78 170.548 1740.22 170.268C1741.65 170.14 1742.91 170.021 1743.99 169.958C1748.3 169.69 1752.37 168.281 1756.53 167.319C1756.54 167.318 1756.55 167.314 1756.56 167.314C1759.79 166.507 1763.05 165.804 1766.35 165.723L1766.25 165.733C1768.7 165.812 1771.21 166.32 1773.66 167.246C1774.76 168.075 1772.89 170.449 1770.95 169.778C1770.88 169.76 1770.81 169.741 1770.74 169.722C1770.08 169.55 1769.5 169.412 1768.7 169.318C1767.81 169.27 1767.12 169.287 1766.53 169.325L1766.82 169.296C1766.64 169.317 1766.47 169.339 1766.29 169.362C1765.31 169.486 1761.65 169.887 1757.39 170.657C1757.38 170.658 1757.34 170.672 1757.32 170.673C1752.9 171.334 1747.64 172.802 1744.63 172.985C1743.67 173.044 1742.59 173.252 1741.32 173.559C1738.21 174.233 1734.25 176.204 1728.37 177.87C1723.81 179.138 1718.07 180.745 1711.16 181.394C1708.13 181.686 1704.36 181.353 1700.37 180.99C1697.66 180.74 1694.81 180.613 1691.95 180.87C1691.93 180.871 1691.91 180.873 1691.89 180.874C1684.97 181.493 1677.99 182.199 1672.91 182.248C1667.77 182.296 1664.54 181.655 1661.42 181.006C1661.39 181 1661.36 180.993 1661.33 180.986C1660.41 180.794 1659.49 180.603 1658.55 180.419C1656.35 179.991 1653.9 179.691 1650.6 179.755C1647.37 179.816 1643.38 179.847 1639.11 179.82C1635.04 179.797 1630.73 179.716 1626.56 179.645C1621.88 179.567 1617.38 179.57 1613.7 179.738C1613.08 179.766 1612.53 179.088 1612.5 178.224C1612.46 177.36 1612.94 176.639 1613.57 176.61ZM1613.48 157.103C1617.71 156.299 1621.96 155.695 1626.25 155.288C1636.51 154.34 1646.06 153.955 1658.09 154.904C1661.96 155.355 1667.2 155.86 1671.87 156.598C1677.03 156.546 1684.25 156.59 1691.46 156.721C1691.54 156.724 1691.62 156.726 1691.71 156.729C1694.58 156.781 1697.45 156.844 1700.18 156.912C1703.25 157.021 1706.06 156.914 1708.35 156.709C1713.49 156.246 1717.55 155.415 1722.68 154.397C1725.61 154.006 1730.01 152.638 1734.09 151.88C1735.08 151.814 1736.27 151.675 1737.33 151.627C1742.72 151.286 1744.65 150.64 1747.09 149.893C1747.16 149.873 1747.23 149.853 1747.3 149.833C1747.3 149.83 1747.31 149.826 1747.31 149.822C1747.39 149.757 1747.45 149.713 1747.49 149.692C1747.56 149.649 1747.62 149.623 1747.64 149.613C1747.7 149.59 1747.74 149.576 1747.76 149.571C1747.82 149.549 1747.9 149.527 1747.95 149.514C1748.41 149.392 1749.89 149.065 1751.14 148.89C1751.51 148.837 1751.85 148.798 1752.17 148.767L1751.93 148.825C1752.6 148.771 1753.18 148.757 1753.79 148.749C1753.88 148.748 1753.97 148.747 1754.05 148.747C1754.84 148.739 1755.7 148.732 1756.94 148.681C1757.7 148.65 1758.37 149.33 1758.44 150.188C1758.51 151.045 1757.98 151.753 1757.25 151.782C1755.98 151.831 1755.1 151.836 1754.34 151.84C1754.25 151.84 1754.17 151.841 1754.08 151.841C1753.6 151.845 1753.17 151.855 1752.7 151.885L1752.89 151.838C1752.52 151.866 1752.14 151.906 1751.7 151.967C1750.17 152.259 1749.09 152.57 1748.12 152.859C1745.67 153.601 1743.56 154.314 1737.99 154.64C1737.06 154.678 1736.02 154.789 1735.09 154.863C1731.22 155.537 1726.79 156.933 1723.42 157.44C1718.39 158.432 1714.11 159.325 1708.73 159.815C1706.34 160.033 1703.4 160.15 1700.21 160.041C1697.48 159.974 1694.62 159.91 1691.75 159.858C1691.67 159.857 1691.58 159.856 1691.5 159.854C1684.3 159.723 1677.11 159.674 1671.98 159.726C1667.28 159.763 1662.18 159.989 1658.18 160.129C1646.44 160.497 1636.73 161.481 1626.33 161.062C1622.09 160.923 1617.85 160.671 1613.61 160.231C1609.99 160.397 1606.7 160.479 1603.65 160.547C1594.68 160.744 1587.86 160.839 1581.47 162.625C1580.41 162.92 1578 163.163 1574.78 163.335C1573.64 163.382 1572.42 163.429 1571.1 163.477C1569.48 163.534 1567.7 163.592 1565.78 163.656C1561.11 163.808 1555.54 164.009 1549.56 164.167C1548.31 164.198 1547.2 164.23 1546.15 164.255C1543.35 164.316 1540.97 164.343 1537.51 164.04C1535.19 163.827 1532.44 163.522 1528.9 163.09C1519.92 161.908 1505.52 160.411 1495.88 159.135C1493.29 158.773 1490.84 158.39 1488.77 158.049C1483.85 157.238 1481.05 156.644 1479.07 156.196C1478.52 156.071 1478.04 155.955 1477.6 155.851C1476.44 155.577 1475.54 155.366 1474.35 155.159C1468.2 154.089 1463.31 153.613 1457.26 153.328C1454.61 153.19 1451.86 153.154 1448.95 153.163C1448.31 153.165 1447.81 152.466 1447.82 151.601C1447.84 150.737 1448.36 150.032 1449 150.029C1451.98 150.02 1454.83 150.057 1457.59 150.206C1463.64 150.496 1468.57 150.979 1474.75 152.054C1475.99 152.271 1476.96 152.499 1478.13 152.777C1478.57 152.88 1479.04 152.99 1479.56 153.109C1481.49 153.549 1484.27 154.137 1489.14 154.942C1491.19 155.279 1493.61 155.658 1496.15 156.015C1505.66 157.279 1520.23 158.788 1529.22 159.973C1532.81 160.41 1535.57 160.717 1537.9 160.93C1541.21 161.216 1543.49 161.189 1546.21 161.127C1547.24 161.102 1548.35 161.068 1549.59 161.036C1555.51 160.878 1561.09 160.674 1565.76 160.522C1567.67 160.458 1569.45 160.4 1571.06 160.342C1572.47 160.291 1573.75 160.242 1574.92 160.193C1577.98 160.021 1580.18 159.796 1581.05 159.548C1587.6 157.707 1594.7 157.607 1603.74 157.409C1606.75 157.342 1609.97 157.264 1613.48 157.103ZM1414.39 148.089C1415.09 148.137 1415.57 148.878 1415.5 149.74C1415.43 150.602 1414.83 151.261 1414.15 151.215C1410.58 150.969 1407.81 150.897 1405.57 150.911C1405.31 150.913 1405.06 150.915 1404.82 150.919C1405.13 150.952 1405.19 150.979 1405.19 150.992C1405.19 151.007 1405.13 151.013 1405.05 151.015C1404.89 151.018 1404.66 151.006 1404.43 150.99C1403.96 150.954 1403.46 150.898 1402.99 150.837C1402.02 150.709 1401.08 150.544 1399.95 150.303C1393.75 148.962 1387.51 147.646 1381.93 146.568C1373.85 144.996 1367.01 143.843 1362.7 143.06C1362.03 142.939 1361.43 142.829 1360.9 142.727C1360.25 142.603 1359.85 141.813 1359.98 140.958C1360.12 140.106 1360.74 139.512 1361.39 139.636C1361.92 139.737 1362.51 139.847 1363.17 139.967C1367.49 140.749 1374.32 141.901 1382.42 143.475C1388.03 144.558 1394.33 145.881 1400.55 147.227C1401.67 147.466 1402.59 147.627 1403.53 147.751C1404 147.811 1404.48 147.862 1404.94 147.895C1405.15 147.907 1405.37 147.918 1405.5 147.909C1405.56 147.905 1405.6 147.895 1405.57 147.876C1405.53 147.858 1405.42 147.823 1404.99 147.783C1405.13 147.781 1405.27 147.78 1405.41 147.779C1407.76 147.76 1410.66 147.832 1414.39 148.089Z" fill="#F5F0E9"/>
<defs>
<linearGradient id="paint0_linear_395_722" x1="887.077" y1="62.1607" x2="888.19" y2="561" gradientUnits="userSpaceOnUse">
<stop stop-color="#41578C"/>
<stop offset="0.411476" stop-color="#252E77"/>
<stop offset="0.75" stop-color="#121268" stop-opacity="0.5"/>
<stop offset="1" stop-color="#121268" stop-opacity="0"/>
</linearGradient>
<g id="stroke0_395_722" data-figma-scatter="f0.50999999046325684_w0.059999998658895493_aj180_sj0.64999997615814209_r0_s0_sw34">
<path d="M215.823 333.963C215.823 333.23 216.123 332.93 216.49 333.296C216.856 333.663 216.856 334.263 216.49 334.63C216.123 334.996 215.823 334.696 215.823 333.963ZM143.424 3.97701C148.056 3.32404 151.523 8.80284 148.726 12.3588C146.775 14.8388 146.175 17.9633 147.648 17.9633C148.553 17.9667 158.823 30.3033 158.823 31.3862C158.823 32.4623 154.479 36.4974 152.507 37.2544C150.609 37.9824 151.073 39.9631 153.14 39.9633C153.801 39.9633 154.92 40.8881 155.626 42.02C156.91 44.0739 156.912 44.0744 158.617 42.0766C159.555 40.9766 161.223 39.938 162.323 39.77C163.423 39.601 164.653 39.0132 165.057 38.4633C165.472 37.8983 165.798 38.2253 165.807 39.2133C165.825 41.3531 166.254 41.3818 169.215 39.4419C170.838 38.3789 171.405 37.2303 171.099 35.6313C170.05 30.1434 175.963 30.1199 185.501 35.5737C190.79 38.5976 191.028 38.5792 193.164 34.9633C196.187 29.8454 203.13 33.2701 201.316 38.9838C200.801 40.6068 201.133 41.2309 202.733 41.6499C203.883 41.9499 204.823 42.5946 204.823 43.0805C204.824 43.5654 205.723 43.9633 206.823 43.9633C209.228 43.9633 209.333 43.3299 207.269 41.2661C205.332 39.3301 205.758 35.0191 208.025 33.5991C210.469 32.0694 211.11 33.2632 210.001 37.2797C209.157 40.3355 209.276 40.8478 210.928 41.2797C211.97 41.5527 212.823 42.4936 212.823 43.3696C212.824 45.4861 216.745 45.4516 218.302 43.3227C219.936 41.0879 223.264 42.9574 223.298 46.1294C223.32 48.1552 223.883 48.504 227.573 48.77C231.476 49.053 231.823 48.8831 231.823 46.6811C231.823 45.0832 232.672 43.8975 234.37 43.1245C240.164 40.4845 243.457 43.0685 242.282 49.3315C241.655 52.6722 241.655 52.6725 249.407 53.3745C262.73 54.5825 271.108 62.5852 260.323 63.8012C258.673 63.9882 256.79 64.5797 256.14 65.1167C255.368 65.7556 253.636 65.7276 251.14 65.0346C246.476 63.7398 245.823 63.7172 245.823 64.8549C245.823 65.7449 249.37 66.9616 253.515 67.4936C257.329 67.9826 258.042 68.9656 257.379 72.8286C255.795 82.0527 255.841 81.9633 252.685 81.9633C250.953 81.9633 249.964 81.5443 250.323 80.9633C250.663 80.4133 250.517 79.9633 249.999 79.9633C249.48 79.9633 248.821 79.0632 248.533 77.9633C248.217 76.7553 247.169 75.9633 245.885 75.9633C244.716 75.9632 243.46 75.1762 243.092 74.2133C242.404 72.4103 242.246 72.1833 238.753 67.9633C236.684 65.4633 236.684 65.4633 237.262 68.1733C237.705 70.252 237.359 71.1408 235.772 71.9897C232.719 73.6237 233.414 78.5898 236.633 78.1401C237.903 77.9621 239.585 78.3504 240.37 79.0024C241.211 79.7003 242.9 79.9101 244.485 79.5122C246.95 78.8932 247.055 78.9823 245.748 80.5922C244.844 81.7052 244.78 82.0721 245.573 81.5962C246.78 80.8713 247.26 82.2792 247.055 85.9321C247.01 86.7401 248.281 89.181 249.881 91.3569C252.292 94.6349 252.689 95.9524 252.194 99.0434C251.695 102.167 251.943 102.958 253.722 103.911C255.46 104.841 255.656 105.407 254.789 107.026C254.207 108.114 254.046 109.515 254.431 110.14C255.79 112.339 247.804 110.139 243.089 107.016C234.391 101.254 232.358 104.203 234.165 119.963C234.386 121.888 234.142 123.998 233.622 124.653C231.331 127.54 233.14 131.457 236.823 131.585C238.748 131.652 240.773 131.816 241.323 131.95C241.873 132.084 243.093 132.116 244.034 132.022C246.328 131.792 249.862 133.758 249.563 135.098C249.134 137.018 257.14 136.437 263.279 134.102C266.554 132.856 270.042 132.048 271.029 132.307C272.126 132.594 272.823 132.23 272.823 131.37C272.823 130.597 271.923 129.963 270.823 129.963C268.355 129.963 268.291 128.842 270.596 125.996C272.37 123.806 272.37 123.805 274.251 125.884C277.35 129.307 282.41 126.734 280.041 122.94C279.048 121.351 279.46 120.899 283.362 119.295C285.811 118.288 287.817 117.126 287.819 116.713C287.821 116.301 288.262 115.963 288.798 115.963C290.086 115.963 288.981 121.818 287.134 124.78C286.042 126.531 285.967 127.431 286.825 128.466C288.108 130.011 286.599 133.834 284.133 135.288C283.329 135.762 282.984 136.896 283.321 137.957C283.727 139.236 283.296 139.996 281.916 140.434C280.723 140.812 280.144 141.636 280.471 142.488C281.07 144.051 279.303 146.204 276.573 147.238C275.611 147.602 274.823 148.857 274.823 150.027C274.823 152.253 271.493 157.622 268.86 159.642C267.494 160.689 267.518 160.896 269.075 161.499C270.259 161.958 271.465 161.413 272.792 159.821C274.896 157.295 275.458 157.908 273.83 160.952C272.986 162.526 273.289 162.906 275.83 163.464C279.699 164.314 279.894 168.296 276.323 173.558C272.999 178.456 273.141 179.594 277.811 185.463C279.999 188.213 283.258 192.592 285.055 195.195C287.985 199.439 291.823 201.575 291.823 198.963C291.823 198.413 292.858 197.963 294.123 197.963C295.388 197.963 296.869 197.517 297.413 196.973C298.033 196.353 299.563 196.316 301.501 196.872C303.893 197.558 304.97 197.388 306.229 196.128C311.032 191.326 313.154 199.168 308.775 205.533C305.051 210.945 307.295 210.388 312.57 204.592C314.356 202.629 316.421 201.256 317.16 201.54C317.898 201.822 319.08 201.359 319.785 200.509C321.719 198.179 324.72 198.643 326.009 201.472C327.592 204.947 325.832 207.908 318.196 214.612C312.035 220.021 312.035 220.021 314.929 222.915C319.416 227.402 318.437 230.291 311.993 231.58C309.623 232.053 308.701 231.81 308.231 230.585C307.343 228.271 305.535 228.576 302.783 231.505C300.746 233.674 300.577 234.339 301.632 236.028C303.496 239.014 301.66 241.738 298.126 241.228C293.529 240.565 288.418 246.501 289.907 250.775C290.518 252.528 291.537 253.977 292.171 253.994C292.805 254.011 292.532 254.484 291.565 255.048C290.598 255.611 289.399 255.819 288.9 255.511C288.402 255.203 287.764 255.415 287.483 255.982C287.203 256.549 287.108 256.439 287.273 255.738C287.438 255.037 288.155 254.601 288.867 254.769C289.918 255.018 289.921 254.787 288.886 253.54C288.066 252.551 286.49 252.15 284.467 252.416C282.738 252.642 279.973 252.894 278.323 252.974C276.673 253.055 275.886 253.348 276.573 253.625C277.261 253.904 277.823 254.712 277.823 255.424C277.823 256.136 278.498 257.278 279.323 257.963C284.43 262.201 279.156 267.527 267.467 269.94C261.662 271.138 261.616 271.176 262.217 274.181C262.55 275.849 262.823 278.291 262.823 279.609C262.823 281.174 263.663 282.389 265.244 283.109C266.671 283.759 267.448 284.778 267.136 285.59C265.821 289.017 267.765 292.135 270.801 291.468C274.766 290.597 278.421 292.537 276.707 294.602C276.023 295.427 274.625 295.883 273.602 295.615C272.138 295.233 271.87 295.538 272.348 297.046C272.893 298.763 272.429 298.963 267.889 298.963C262.743 298.963 261.095 297.073 265.249 295.935C268.036 295.172 268.4 292.927 265.844 292.258C264.392 291.879 264.055 291.437 264.845 290.949C266.469 289.946 265.098 283.964 263.244 283.963C262.462 283.963 261.823 283.571 261.823 283.091C261.823 282.611 259.972 281.923 257.709 281.561C255.433 281.197 252.864 280.005 251.959 278.892C250.396 276.971 250.314 277.128 250.111 282.423C249.912 287.635 250.039 287.963 252.254 287.963C257.861 287.963 255.961 295.527 250.118 296.465C248.031 296.8 244.838 297.728 243.022 298.527C240.536 299.621 239.219 299.71 237.687 298.89C235.32 297.624 234.327 298.227 235.168 300.42C235.494 301.269 236.844 301.963 238.169 301.963C242.073 301.963 243.244 304.249 241.284 308.04C239.619 311.258 239.618 311.258 228.221 310.647C216.823 310.036 216.823 310.036 216.823 313.065C216.823 321.686 206.244 322.014 203.987 313.463C202.962 309.577 196.547 308.889 196.016 312.607C195.599 315.535 190.787 316.541 190.083 313.848C189.539 311.771 188.717 311.487 187.273 312.878C186.751 313.382 185.198 313.944 183.823 314.128C182.113 314.357 181.221 315.181 181 316.737C180.739 318.581 180.17 318.937 178 318.615C176.528 318.397 175.418 317.764 175.533 317.21C175.649 316.655 174.861 315.403 173.783 314.427C171.902 312.724 171.821 312.729 171.781 314.558C171.757 315.606 170.365 317.588 168.686 318.963C167.007 320.338 164.438 322.475 162.978 323.712C158.062 327.876 154.556 326.427 153.301 319.713C152.916 317.652 152.42 315.964 152.199 315.963C151.978 315.963 148.55 316.863 144.58 317.963C130.056 321.988 115.58 315.43 128.81 310.818C130.467 310.24 131.823 309.373 131.823 308.89C131.823 308.407 130.668 308.452 129.257 308.988C127.134 309.795 126.098 309.512 123.257 307.345C120.118 304.951 118.274 301.888 120.978 303.558C121.694 304.001 121.861 303.833 121.417 303.115C120.368 301.418 116.504 303.691 117.229 305.579C118.04 307.692 114.948 308.516 113.522 306.566C111.691 304.062 106.546 306.574 107.286 309.61C108.627 315.112 101.84 317.769 99.8455 312.524C98.8953 310.026 94.4089 310.708 90.3231 313.97C88.4581 315.459 83.5201 315.529 83.0311 314.074C82.7723 313.306 83.018 312.966 83.5799 313.313C84.1398 313.659 84.5764 313.384 84.5526 312.703C84.3916 308.249 84.9971 307.097 88.0731 306.006C91.7409 304.706 90.1749 302.466 84.8231 301.359C83.4482 301.075 81.5171 300.405 80.5321 299.87C79.5471 299.334 78.3755 299.121 77.9295 299.397C77.4824 299.673 76.2634 299.261 75.2196 298.481C73.4269 297.14 73.453 297.096 75.7069 297.665C77.4798 298.113 77.9663 297.907 77.6033 296.865C77.3352 296.094 76.3745 295.595 75.4686 295.757C74.5637 295.918 73.8231 295.644 73.8231 295.147C73.8225 293.779 67.1263 286.964 65.7821 286.963C64.5191 286.963 65.3358 292.016 66.7508 292.954C68.0246 293.798 67.6327 300.104 66.3377 299.607C65.6809 299.355 65.2149 300.076 65.2537 301.283C65.3377 303.874 62.3307 304.729 61.4256 302.372C61.0686 301.443 61.4731 299.62 62.3231 298.322C63.7468 296.15 63.7284 295.96 62.0955 295.928C61.1204 295.908 59.1988 295.27 57.826 294.51C56.13 293.571 54.9418 293.449 54.1238 294.128C52.5208 295.458 48.5416 294.139 49.1746 292.487C49.7193 291.067 47.2348 286.963 45.8309 286.963C44.5728 286.963 35.8231 278.847 35.8231 277.681C35.8231 277.1 37.4871 276.973 39.9481 277.367C43.78 277.98 44.0342 277.878 43.5272 275.938C43.0782 274.221 43.2342 274.059 44.4022 275.028C46.6741 276.914 46.0406 274.471 43.7127 272.369C42.5527 271.321 40.7375 268.625 39.6795 266.377C37.9885 262.785 29.7573 256.441 24.5213 254.696C21.1893 253.585 27.5839 242.826 31.0379 243.73C32.8048 244.192 33.0357 243.965 32.4178 242.374C31.1828 239.197 31.2554 238.448 32.7684 238.778C35.0593 239.276 38.8227 236.801 38.8231 234.794C38.8231 233.715 39.5439 232.963 40.5779 232.963C43.0149 232.963 45.0996 226.438 43.1737 224.839C42.4307 224.223 41.8231 222.9 41.8231 221.9C41.823 220.899 41.3729 219.803 40.8231 219.463C40.2731 219.123 39.8231 217.945 39.8231 216.845C39.8231 215.745 39.4205 215.093 38.9295 215.397C38.4384 215.7 37.0855 214.04 35.9237 211.706C34.7617 209.372 33.2645 206.563 32.5965 205.463C31.9285 204.363 30.3573 201.785 29.1033 199.734C26.2513 195.07 26.2154 191.993 28.9774 189.028C30.8989 186.965 30.957 186.618 29.5194 185.813C28.6324 185.316 28.1605 184.245 28.4735 183.431C28.8615 182.419 27.9015 181.476 25.4315 180.444C23.4467 179.615 21.786 178.38 21.741 177.7C21.499 174.063 20.5431 170.143 19.2762 167.585C18.4912 166.003 18.1172 163.64 18.4442 162.335C18.8492 160.724 18.6035 159.943 17.6805 159.9C16.9341 159.865 17.347 159.425 18.5975 158.923C21.2044 157.876 20.8038 153.423 17.911 151.294C13.1591 147.798 12.87 147.403 13.4549 145.213C13.7859 143.975 14.834 142.963 15.785 142.963C16.735 142.963 18.3281 142.063 19.3231 140.963C20.3181 139.863 21.5542 138.963 22.0682 138.963C22.5823 138.963 23.847 137.951 24.8787 136.713C26.4927 134.779 26.7609 134.71 26.7899 136.223C26.8079 137.191 25.9229 138.753 24.8231 139.695C22.2852 141.868 22.305 142.594 24.9237 143.279C26.0795 143.582 26.7278 144.308 26.3651 144.896C26.0023 145.483 25.92 145.963 26.1815 145.963C26.4445 145.963 27.4328 146.261 28.3778 146.623C29.5896 147.087 29.9501 146.866 29.6024 145.873C29.0314 144.244 32.5938 138.703 33.7518 139.419C34.1787 139.683 35.3646 139.287 36.3875 138.54C38.4045 137.065 37.003 133.964 34.3192 133.963C32.9872 133.963 30.2179 125.51 30.7147 122.963C30.8767 122.138 30.9536 119.741 30.8856 117.637C30.7766 114.238 31.1058 113.683 33.8338 112.653C35.9678 111.847 36.8578 110.879 36.7528 109.478C36.4928 106.022 36.7888 104.824 37.7537 105.42C38.2657 105.737 38.9407 105.581 39.2547 105.073C39.5679 104.566 40.6568 104.368 41.6746 104.635C44.2356 105.304 47.2646 102.201 45.7879 100.421C44.9809 99.4493 44.9929 98.5137 45.8309 96.9487C46.4608 95.7707 46.7305 94.1671 46.4305 93.3852C46.0505 92.3923 46.6314 91.9633 48.3543 91.9633C49.712 91.9632 50.8228 91.5132 50.8231 90.9633C50.8231 90.4135 50.3871 89.9636 49.8543 89.9633C49.3224 89.9633 49.1449 89.2882 49.4608 88.4633C49.7917 87.6015 49.481 86.9636 48.7303 86.9633C47.7133 86.9633 47.6899 86.6961 48.6229 85.7631C49.2829 85.1031 49.8231 83.8148 49.8231 82.9008C49.8233 81.6241 51.1422 81.0827 55.5067 80.5698C58.6325 80.2028 61.7825 79.411 62.5067 78.81C64.2735 77.3441 64.1799 74.9637 62.3543 74.9633C61.4603 74.9633 61.1108 75.5493 61.4608 76.4633C61.8237 77.4082 61.4499 77.9633 60.45 77.9633C58.464 77.9633 58.8759 72.1768 60.9559 70.8598C64.4336 68.656 58.1944 70.1802 53.6815 72.6362C50.1078 74.581 48.4698 75.0103 47.6688 74.2094C46.9258 73.4665 45.7561 73.4182 44.0643 74.061C39.8403 75.667 37.8231 74.3507 37.8231 69.9907C37.8233 65.514 41.1635 63.0775 53.0731 58.8667C60.4397 56.2628 60.5863 56.0654 58.1824 51.9956C56.1924 48.6276 56.994 44.361 59.7821 43.476C62.4579 42.6272 68.8174 43.9249 68.8377 45.3237C68.8797 48.4517 70.4558 49.1528 74.6307 47.9028C79.0287 46.5848 80.5395 44.5322 78.7215 42.3422C77.8406 41.2803 78.116 40.538 79.9549 39.018C81.9907 37.3362 82.4786 37.2654 83.4324 38.5122C85.3604 41.0312 100.442 37.019 99.3865 34.269C98.521 32.0121 103.808 29.185 104.979 31.2778C106.381 33.7828 109.101 33.326 112.231 30.059C115.014 27.1544 115.014 27.1541 112.856 24.9965C109.082 21.2226 112.1 14.3884 117.416 14.6713C123.005 14.9683 123.68 15.1663 123.238 16.3803C123.021 16.9763 123.233 18.0729 123.708 18.8178C124.754 20.4597 129.376 17.8723 130.306 15.1245C130.615 14.2105 133.671 11.332 137.096 8.72701C140.516 6.12608 143.361 3.99002 143.424 3.97701ZM208.763 322.963C209.345 322.963 209.823 323.413 209.823 323.963C209.823 324.513 209.625 324.963 209.382 324.963C209.139 324.963 208.663 324.513 208.323 323.963C207.983 323.413 208.182 322.964 208.763 322.963ZM116.823 315.345C116.823 314.52 117.273 314.123 117.823 314.463C118.373 314.803 118.823 315.757 118.823 316.582C118.823 317.406 118.373 317.803 117.823 317.463C117.273 317.123 116.823 316.17 116.823 315.345ZM202.323 313.963C202.598 313.963 202.823 314.188 202.823 314.463C202.823 314.738 202.598 314.963 202.323 314.963C202.048 314.963 201.823 314.738 201.823 314.463C201.823 314.188 202.048 313.963 202.323 313.963ZM74.7635 305.963C75.3455 305.963 75.8231 306.413 75.8231 306.963C75.823 307.513 75.6246 307.963 75.3817 307.963C75.1386 307.963 74.6629 307.513 74.3231 306.963C73.9831 306.413 74.1818 305.964 74.7635 305.963ZM71.8231 304.963C72.373 304.963 72.8231 305.413 72.8231 305.963C72.823 306.513 72.3729 306.963 71.8231 306.963C71.2731 306.963 70.8232 306.513 70.8231 305.963C70.8231 305.413 71.2731 304.963 71.8231 304.963ZM131.823 306.07C131.823 304.426 129.038 304.086 127.17 305.5C125.465 306.792 125.573 306.902 128.573 306.931C130.36 306.949 131.823 306.561 131.823 306.07ZM86.8231 303.963C87.5559 303.963 87.856 304.263 87.4901 304.63C87.1231 304.996 86.5231 304.996 86.1561 304.63C85.7901 304.263 86.0901 303.963 86.8231 303.963ZM77.2401 304.042C78.294 303.999 78.8836 304.235 78.5516 304.567C78.2196 304.899 77.3566 304.935 76.6356 304.646C75.838 304.327 76.0752 304.09 77.2401 304.042ZM78.8231 300.963C79.373 300.963 79.8231 301.413 79.8231 301.963C79.823 302.513 79.3729 302.963 78.8231 302.963C78.2731 302.963 77.8232 302.513 77.8231 301.963C77.8231 301.413 78.2731 300.963 78.8231 300.963ZM70.3231 299.963C71.148 299.963 71.8231 300.624 71.8231 301.432C71.8231 302.326 71.2371 302.675 70.3231 302.325C69.4981 302.008 68.8231 301.347 68.8231 300.856C68.8233 300.365 69.4982 299.963 70.3231 299.963ZM69.8231 291.963C70.3727 291.963 70.8226 292.161 70.8231 292.404C70.8231 292.647 70.3731 293.123 69.8231 293.463C69.2731 293.803 68.8231 293.604 68.8231 293.022C68.8232 292.44 69.2731 291.963 69.8231 291.963ZM270.323 285.963C271.148 285.963 271.823 286.133 271.823 286.341C271.823 286.548 271.148 287.279 270.323 287.963C269.094 288.983 268.823 288.914 268.823 287.585C268.823 286.693 269.498 285.963 270.323 285.963ZM275.323 284.963C275.598 284.963 275.823 285.188 275.823 285.463C275.823 285.738 275.598 285.963 275.323 285.963C275.048 285.963 274.823 285.738 274.823 285.463C274.823 285.188 275.048 284.963 275.323 284.963ZM273.515 281.322C274.055 279.913 274.222 279.924 275.064 281.429C276.122 283.319 275.489 284.493 273.932 283.531C273.371 283.182 273.183 282.189 273.515 281.322ZM269.981 280.963C269.981 279.588 270.208 279.026 270.485 279.713C270.763 280.401 270.763 281.526 270.485 282.213C270.208 282.901 269.981 282.338 269.981 280.963ZM272.323 279.963C272.598 279.963 272.823 280.188 272.823 280.463C272.823 280.738 272.598 280.963 272.323 280.963C272.048 280.963 271.823 280.738 271.823 280.463C271.823 280.188 272.048 279.963 272.323 279.963ZM266.479 278.508C266.109 277.545 266.407 277.251 267.374 277.622C269.054 278.267 269.168 278.632 267.928 279.398C267.435 279.703 266.783 279.302 266.479 278.508ZM273.323 277.963C273.598 277.963 273.823 278.188 273.823 278.463C273.823 278.738 273.598 278.963 273.323 278.963C273.048 278.963 272.823 278.738 272.823 278.463C272.823 278.188 273.048 277.963 273.323 277.963ZM312.823 274.963C312.823 274.23 313.123 273.93 313.49 274.296C313.856 274.663 313.856 275.263 313.49 275.63C313.123 275.996 312.823 275.696 312.823 274.963ZM306.823 264.522C306.823 262.765 307.423 262.507 308.28 263.894C308.597 264.406 308.398 265.108 307.839 265.454C307.28 265.798 306.823 265.379 306.823 264.522ZM39.241 257.57C36.868 256.659 36.5506 256.812 37.2156 258.545C37.5496 259.415 37.8231 260.315 37.8231 260.545C37.8235 260.775 38.4984 260.963 39.3231 260.963C41.3139 260.963 41.251 258.341 39.241 257.57ZM294.721 251.963C296.379 251.963 302.87 258.076 302.261 259.064C300.769 261.477 295.519 258.26 294.343 254.213C293.964 252.911 294.123 251.964 294.721 251.963ZM274.323 255.963C274.048 255.963 273.823 256.188 273.823 256.463C273.823 256.738 274.048 256.963 274.323 256.963C274.598 256.963 274.823 256.738 274.823 256.463C274.823 256.188 274.598 255.963 274.323 255.963ZM268.323 252.963C268.048 252.963 267.823 253.188 267.823 253.463C267.823 253.738 268.048 253.963 268.323 253.963C268.598 253.963 268.823 253.738 268.823 253.463C268.823 253.188 268.598 252.963 268.323 252.963ZM266.646 249.296C266.257 247.287 264.26 246.448 263.356 247.911C262.476 249.334 263.598 250.963 265.455 250.963C266.331 250.963 266.833 250.26 266.646 249.296ZM269.323 249.963C269.048 249.963 268.823 250.188 268.823 250.463C268.823 250.738 269.048 250.963 269.323 250.963C269.598 250.963 269.823 250.738 269.823 250.463C269.823 250.188 269.598 249.963 269.323 249.963ZM24.3231 232.963C24.598 232.963 24.8231 233.188 24.8231 233.463C24.823 233.738 24.5979 233.963 24.3231 233.963C24.0481 233.963 23.8232 233.738 23.8231 233.463C23.8231 233.188 24.0481 232.963 24.3231 232.963ZM26.3231 232.963C26.598 232.963 26.8231 233.188 26.8231 233.463C26.823 233.738 26.5979 233.963 26.3231 233.963C26.0481 233.963 25.8232 233.738 25.8231 233.463C25.8231 233.188 26.0481 232.963 26.3231 232.963ZM30.3231 182.963C30.0481 182.963 29.8231 183.188 29.8231 183.463C29.8232 183.738 30.0481 183.963 30.3231 183.963C30.5979 183.963 30.823 183.738 30.8231 183.463C30.8231 183.188 30.598 182.963 30.3231 182.963ZM25.8231 182.963C26.5559 182.963 26.856 183.263 26.4901 183.63C26.1231 183.996 25.5231 183.996 25.1561 183.63C24.7901 183.263 25.0901 182.963 25.8231 182.963ZM24.5418 168.045C24.7068 165.852 23.3077 164.369 22.4237 165.799C22.1289 166.277 22.4496 167.439 23.1375 168.378C24.2905 169.956 24.3998 169.93 24.5418 168.045ZM26.3231 165.963C26.0481 165.963 25.8231 166.188 25.8231 166.463C25.8232 166.738 26.0481 166.963 26.3231 166.963C26.5979 166.963 26.823 166.738 26.8231 166.463C26.8231 166.188 26.598 165.963 26.3231 165.963ZM278.023 154.164C281.374 150.813 285.386 154.145 284.39 159.453C283.619 163.564 281.534 164.032 278.766 160.713C276.583 158.097 276.33 155.857 278.023 154.164ZM0.823065 156.963C1.55594 156.963 1.85603 157.263 1.49006 157.63C1.12312 157.996 0.523086 157.996 0.156073 157.63C-0.209927 157.263 0.0900652 156.963 0.823065 156.963ZM286.917 147.963C287.415 147.963 287.823 148.863 287.823 149.963C287.823 151.063 287.65 151.962 287.44 151.963C287.229 151.963 286.821 151.063 286.533 149.963C286.246 148.863 286.418 147.963 286.917 147.963ZM285.323 145.963C285.598 145.963 285.823 146.188 285.823 146.463C285.823 146.738 285.598 146.963 285.323 146.963C285.048 146.963 284.823 146.738 284.823 146.463C284.823 146.188 285.048 145.963 285.323 145.963ZM293.205 142.963C293.48 142.963 293.983 143.413 294.323 143.963C294.663 144.513 294.716 144.963 294.441 144.963C294.166 144.963 293.663 144.513 293.323 143.963C292.983 143.413 292.93 142.963 293.205 142.963ZM18.6795 133.08C18.8755 133.016 18.7986 133.583 18.5076 134.341C18.2168 135.099 18.5072 136.25 19.1512 136.898C20.0502 137.802 19.7528 137.866 17.8738 137.174C14.8158 136.047 14.1344 134.282 16.5184 133.664C17.5105 133.407 18.4825 133.144 18.6795 133.08ZM27.4901 131.63C28.6061 130.513 29.4901 130.881 29.4901 132.463C29.49 133.288 28.8899 133.963 28.1561 133.963C26.7371 133.963 26.3861 132.734 27.4901 131.63ZM293.763 131.963C294.345 131.963 294.823 132.413 294.823 132.963C294.823 133.513 294.625 133.963 294.382 133.963C294.139 133.963 293.663 133.513 293.323 132.963C292.983 132.413 293.182 131.964 293.763 131.963ZM296.323 132.963C296.598 132.963 296.823 133.188 296.823 133.463C296.823 133.738 296.598 133.963 296.323 133.963C296.048 133.963 295.823 133.738 295.823 133.463C295.823 133.188 296.048 132.963 296.323 132.963ZM20.8231 128.963C21.373 128.963 21.8231 129.638 21.8231 130.463C21.823 131.288 21.3729 131.963 20.8231 131.963C20.2731 131.963 19.8231 131.288 19.8231 130.463C19.8231 129.638 20.2731 128.963 20.8231 128.963ZM302.823 129.091C306.081 127.786 307.823 127.729 307.823 128.928C307.823 130.677 303.932 132.124 302.06 131.07C300.503 130.194 300.582 129.989 302.823 129.091ZM14.3885 125.861C17.5155 124.636 18.4666 124.918 16.4256 126.463C15.3817 127.253 14.062 127.611 13.492 127.258C12.8941 126.889 13.2737 126.298 14.3885 125.861ZM290.882 124.963C291.4 124.963 291.823 125.413 291.823 125.963C291.823 126.513 291.12 126.963 290.263 126.963C289.407 126.963 288.983 126.513 289.323 125.963C289.663 125.413 290.364 124.963 290.882 124.963ZM253.323 104.963C253.048 104.963 252.823 105.188 252.823 105.463C252.823 105.738 253.048 105.963 253.323 105.963C253.598 105.963 253.823 105.738 253.823 105.463C253.823 105.188 253.598 104.963 253.323 104.963ZM38.3231 101.963C38.598 101.963 38.8231 102.188 38.8231 102.463C38.823 102.738 38.5979 102.963 38.3231 102.963C38.0481 102.963 37.8232 102.738 37.8231 102.463C37.8231 102.188 38.0481 101.963 38.3231 101.963ZM43.3231 100.963C43.598 100.963 43.8231 101.188 43.8231 101.463C43.823 101.738 43.5979 101.963 43.3231 101.963C43.0481 101.963 42.8232 101.738 42.8231 101.463C42.8231 101.188 43.0481 100.963 43.3231 100.963ZM32.0731 95.9458C33.86 94.8529 35.9221 94.1854 36.6551 94.4614C37.3872 94.7374 38.7372 94.9995 39.6551 95.0424C40.6539 95.0895 40.8314 95.3207 40.0975 95.6176C39.4238 95.8904 38.6452 95.9673 38.367 95.7885C38.089 95.6095 37.152 96.4753 36.286 97.7133C35.258 99.1803 33.6844 99.9633 31.7654 99.9633C27.9139 99.9632 28.0332 98.4167 32.0731 95.9458ZM260.323 98.9633C260.598 98.9634 260.823 99.1884 260.823 99.4633C260.823 99.7382 260.598 99.9632 260.323 99.9633C260.048 99.9633 259.823 99.7383 259.823 99.4633C259.823 99.1883 260.048 98.9633 260.323 98.9633ZM42.3231 97.9633C42.598 97.9634 42.8231 98.1884 42.8231 98.4633C42.823 98.7382 42.5979 98.9632 42.3231 98.9633C42.0481 98.9633 41.8232 98.7383 41.8231 98.4633C41.8231 98.1883 42.0481 97.9633 42.3231 97.9633ZM54.6434 89.7915C54.2964 87.4396 52.372 86.2652 51.411 87.8198C50.504 89.2878 51.8519 91.9633 53.4998 91.9633C54.4317 91.9633 54.8462 91.1762 54.6434 89.7915ZM239.323 74.9633C239.598 74.9634 239.823 75.1884 239.823 75.4633C239.823 75.7382 239.598 75.9632 239.323 75.9633C239.048 75.9633 238.823 75.7383 238.823 75.4633C238.823 75.1883 239.048 74.9633 239.323 74.9633ZM273.823 72.9594C273.823 72.4464 274.498 72.2376 275.323 72.4946C276.148 72.7526 277.573 73.2036 278.49 73.4965C279.664 73.8715 279.843 74.3424 279.097 75.0883C277.917 76.2677 273.824 74.6152 273.823 72.9594ZM69.8074 71.2133C69.8294 69.4163 68.1488 69.6726 67.4178 71.5766C67.0247 72.6002 66.0719 73.0001 64.8113 72.6704C63.7187 72.3845 62.8236 72.5091 62.8231 72.9477C62.8231 73.3867 64.0183 74.0465 65.4783 74.4135C68.145 75.0822 69.7744 73.878 69.8074 71.2133ZM244.382 68.9633C244.139 68.9636 243.663 69.4135 243.323 69.9633C242.983 70.5132 243.182 70.9631 243.763 70.9633C244.345 70.9633 244.823 70.5133 244.823 69.9633C244.823 69.4133 244.625 68.9633 244.382 68.9633ZM241.323 67.9633C241.048 67.9633 240.823 68.1883 240.823 68.4633C240.823 68.7383 241.048 68.9633 241.323 68.9633C241.598 68.9632 241.823 68.7382 241.823 68.4633C241.823 68.1884 241.598 67.9634 241.323 67.9633ZM144.24 46.0424C143.075 46.0904 142.838 46.327 143.636 46.646C144.357 46.935 145.22 46.8988 145.552 46.5669C145.884 46.2349 145.294 45.9995 144.24 46.0424ZM181.823 43.9633C181.09 43.9633 180.79 44.2633 181.156 44.6303C181.523 44.9962 182.123 44.9963 182.49 44.6303C182.856 44.2634 182.556 43.9634 181.823 43.9633ZM147.345 34.3335C146.209 33.8976 145.532 34.3585 145.147 35.8335C144.84 37.0054 143.967 37.9633 143.206 37.9633C142.446 37.9633 141.823 38.4133 141.823 38.9633C141.823 40.4821 144.417 40.1582 145.823 38.4633C146.508 37.6384 148.111 36.9635 149.386 36.9633C150.661 36.9633 151.983 36.5133 152.323 35.9633C152.663 35.4133 152.051 34.9633 150.964 34.9633C149.876 34.9633 148.247 34.6804 147.345 34.3335ZM138.947 36.6958C137.959 35.7159 137.845 35.8314 138.387 37.2563C138.763 38.2423 139.322 38.7967 139.63 38.4887C139.938 38.1817 139.631 37.3747 138.947 36.6958ZM160.323 29.9633C160.598 29.9634 160.823 30.1884 160.823 30.4633C160.823 30.7382 160.598 30.9632 160.323 30.9633C160.048 30.9633 159.823 30.7382 159.823 30.4633C159.823 30.1883 160.048 29.9633 160.323 29.9633ZM205.823 28.9633C206.556 28.9634 206.856 29.2634 206.49 29.6303C206.123 29.9963 205.523 29.9961 205.156 29.6303C204.79 29.2633 205.09 28.9633 205.823 28.9633ZM210.823 24.9633C211.373 24.9634 211.823 25.161 211.823 25.4038C211.823 25.6468 211.373 26.1233 210.823 26.4633C210.273 26.8033 209.823 26.6039 209.823 26.0219C209.823 25.44 210.273 24.9633 210.823 24.9633ZM176.323 24.9633C176.598 24.9634 176.823 25.1884 176.823 25.4633C176.823 25.7382 176.598 25.9632 176.323 25.9633C176.048 25.9633 175.823 25.7382 175.823 25.4633C175.823 25.1883 176.048 24.9633 176.323 24.9633ZM172.823 18.9633C173.556 18.9634 173.856 19.2634 173.49 19.6303C173.123 19.9963 172.523 19.9961 172.156 19.6303C171.79 19.2633 172.09 18.9633 172.823 18.9633ZM173.823 15.9633C173.823 15.2303 174.123 14.9303 174.49 15.2963C174.856 15.6634 174.856 16.2634 174.49 16.6303C174.123 16.9963 173.823 16.6962 173.823 15.9633ZM208.823 13.9633C209.556 13.9634 209.856 14.2634 209.49 14.6303C209.123 14.9963 208.523 14.9962 208.156 14.6303C207.79 14.2633 208.09 13.9633 208.823 13.9633ZM177.323 12.9633C177.598 12.9634 177.823 13.1884 177.823 13.4633C177.823 13.7382 177.598 13.9632 177.323 13.9633C177.048 13.9633 176.823 13.7382 176.823 13.4633C176.823 13.1883 177.048 12.9633 177.323 12.9633ZM166.323 10.9633C166.598 10.9634 166.823 11.1884 166.823 11.4633C166.823 11.7382 166.598 11.9632 166.323 11.9633C166.048 11.9633 165.823 11.7382 165.823 11.4633C165.823 11.1883 166.048 10.9633 166.323 10.9633ZM175.823 10.9633C175.823 10.2303 176.123 9.93035 176.49 10.2963C176.856 10.6634 176.856 11.2634 176.49 11.6303C176.123 11.9963 175.823 11.6962 175.823 10.9633ZM171.323 9.96334C171.598 9.96343 171.823 10.1884 171.823 10.4633C171.823 10.7382 171.598 10.9632 171.323 10.9633C171.048 10.9633 170.823 10.7382 170.823 10.4633C170.823 10.1883 171.048 9.96334 171.323 9.96334ZM132.382 6.96334C132.625 6.96334 132.823 7.41334 132.823 7.96334C132.823 8.51325 132.345 8.96334 131.763 8.96334C131.182 8.96314 130.983 8.51318 131.323 7.96334C131.663 7.41353 132.139 6.96364 132.382 6.96334ZM122.823 7.96334C123.556 7.96339 123.856 8.26336 123.49 8.63033C123.123 8.99625 122.523 8.99614 122.156 8.63033C121.79 8.26333 122.09 7.96334 122.823 7.96334ZM167.204 2.311C170.133 -0.207938 172.823 -0.770742 172.823 1.13424C172.823 2.86018 169.742 5.96305 168.028 5.96334C167.212 5.96334 166.002 6.70389 165.34 7.60885C164.278 9.06077 164.156 8.98412 164.305 6.95846C164.398 5.69446 165.703 3.603 167.204 2.311Z" fill="#F5F0E9"/>
</g>
</defs>
</svg>
